999
FBX AutoCAD (*.DXF) exporter
  0
SECTION
  2
HEADER
  9
$ACADVER
  1
AC1008
  9
$UCSORG
 10
0.0
 20
0.0
 30
0.0
  9
$UCSXDIR
 10
1.0
 20
0.0
 30
0.0
  9
$TILEMODE
 70
   1
  9
$UCSYDIR
 10
0.0
 20
1.0
 30
0.0
  0
ENDSEC
  0
SECTION
  2
TABLES
  0
TABLE
  2
LTYPE
 70
   1
  0
LTYPE
  2
CONTINUOUS
 70
   64
  3
Solid line
 72
   65
 73
   0
 40
0.0
  0
ENDTAB
  0
TABLE
  2
LAYER
 70
   3
  0
LAYER
  2
snow
 70
   0
 62
   250
  6
CONTINUOUS
  0
LAYER
  2
bark
 70
   0
 62
   250
  6
CONTINUOUS
  0
ENDTAB
  0
ENDSEC
  0
SECTION
  2
BLOCKS
  0
ENDSEC
  0
SECTION
  2
ENTITIES
  0
POLYLINE
  8
snow
 66
   1
 10
0.0
 20
0.0
 30
0.0
 70
   64
 71
   15
 72
   26
  0
VERTEX
  8
snow
 10
-25.124285
 20
289.049395
 30
17.827467
 70
   192
  0
VERTEX
  8
snow
 10
-15.855269
 20
284.323230
 30
34.621495
 70
   192
  0
VERTEX
  8
snow
 10
-10.670647
 20
283.693143
 30
15.397412
 70
   192
  0
VERTEX
  8
snow
 10
-18.480383
 20
294.821902
 30
5.685639
 70
   192
  0
VERTEX
  8
snow
 10
-15.880261
 20
287.959207
 30
5.463639
 70
   192
  0
VERTEX
  8
snow
 10
-24.516115
 20
266.223957
 30
7.364374
 70
   192
  0
VERTEX
  8
snow
 10
-13.422808
 20
283.623533
 30
36.146136
 70
   192
  0
VERTEX
  8
snow
 10
-20.388823
 20
287.001314
 30
31.697245
 70
   192
  0
VERTEX
  8
snow
 10
-16.412481
 20
277.784704
 30
29.370087
 70
   192
  0
VERTEX
  8
snow
 10
-9.414713
 20
299.195162
 30
21.005346
 70
   192
  0
VERTEX
  8
snow
 10
-10.969898
 20
284.705747
 30
26.368822
 70
   192
  0
VERTEX
  8
snow
 10
-20.681395
 20
255.793930
 30
2.126591
 70
   192
  0
VERTEX
  8
snow
 10
-15.880261
 20
287.959207
 30
5.463639
 70
   192
  0
VERTEX
  8
snow
 10
-23.841315
 20
290.838820
 30
6.437908
 70
   192
  0
VERTEX
  8
snow
 10
-25.915840
 20
275.371306
 30
18.523654
 70
   192
  0
VERTEX
  8
snow
 10
0.0
 20
0.0
 30
0.0
 70
   128
 71
   4
 72
   10
 73
   7
  0
VERTEX
  8
snow
 10
0.0
 20
0.0
 30
0.0
 70
   128
 71
   7
 72
   2
 73
   8
  0
VERTEX
  8
snow
 10
0.0
 20
0.0
 30
0.0
 70
   128
 71
   7
 72
   8
 73
   14
  0
VERTEX
  8
snow
 10
0.0
 20
0.0
 30
0.0
 70
   128
 71
   14
 72
   8
 73
   1
  0
VERTEX
  8
snow
 10
0.0
 20
0.0
 30
0.0
 70
   128
 71
   5
 72
   13
 73
   4
  0
VERTEX
  8
snow
 10
0.0
 20
0.0
 30
0.0
 70
   128
 71
   10
 72
   3
 73
   11
  0
VERTEX
  8
snow
 10
0.0
 20
0.0
 30
0.0
 70
   128
 71
   11
 72
   7
 73
   10
  0
VERTEX
  8
snow
 10
0.0
 20
0.0
 30
0.0
 70
   128
 71
   7
 72
   11
 73
   2
  0
VERTEX
  8
snow
 10
0.0
 20
0.0
 30
0.0
 70
   128
 71
   5
 72
   6
 73
   12
  0
VERTEX
  8
snow
 10
0.0
 20
0.0
 30
0.0
 70
   128
 71
   12
 72
   3
 73
   13
  0
VERTEX
  8
snow
 10
0.0
 20
0.0
 30
0.0
 70
   128
 71
   13
 72
   10
 73
   4
  0
VERTEX
  8
snow
 10
0.0
 20
0.0
 30
0.0
 70
   128
 71
   10
 72
   13
 73
   3
  0
VERTEX
  8
snow
 10
0.0
 20
0.0
 30
0.0
 70
   128
 71
   6
 72
   5
 73
   4
  0
VERTEX
  8
snow
 10
0.0
 20
0.0
 30
0.0
 70
   128
 71
   15
 72
   14
 73
   1
  0
VERTEX
  8
snow
 10
0.0
 20
0.0
 30
0.0
 70
   128
 71
   4
 72
   14
 73
   15
  0
VERTEX
  8
snow
 10
0.0
 20
0.0
 30
0.0
 70
   128
 71
   13
 72
   5
 73
   12
  0
VERTEX
  8
snow
 10
0.0
 20
0.0
 30
0.0
 70
   128
 71
   6
 72
   15
 73
   9
  0
VERTEX
  8
snow
 10
0.0
 20
0.0
 30
0.0
 70
   128
 71
   15
 72
   1
 73
   8
  0
VERTEX
  8
snow
 10
0.0
 20
0.0
 30
0.0
 70
   128
 71
   8
 72
   9
 73
   15
  0
VERTEX
  8
snow
 10
0.0
 20
0.0
 30
0.0
 70
   128
 71
   9
 72
   8
 73
   2
  0
VERTEX
  8
snow
 10
0.0
 20
0.0
 30
0.0
 70
   128
 71
   6
 72
   11
 73
   3
  0
VERTEX
  8
snow
 10
0.0
 20
0.0
 30
0.0
 70
   128
 71
   9
 72
   2
 73
   11
  0
VERTEX
  8
snow
 10
0.0
 20
0.0
 30
0.0
 70
   128
 71
   6
 72
   9
 73
   11
  0
VERTEX
  8
snow
 10
0.0
 20
0.0
 30
0.0
 70
   128
 71
   4
 72
   7
 73
   14
  0
VERTEX
  8
snow
 10
0.0
 20
0.0
 30
0.0
 70
   128
 71
   6
 72
   4
 73
   15
  0
VERTEX
  8
snow
 10
0.0
 20
0.0
 30
0.0
 70
   128
 71
   6
 72
   3
 73
   12
  0
SEQEND
  0
POLYLINE
  8
bark
 66
   1
 10
0.0
 20
0.0
 30
0.0
 70
   64
 71
   42
 72
   76
  0
VERTEX
  8
bark
 10
-28.546148
 20
250.740287
 30
4.758086
 70
   192
  0
VERTEX
  8
bark
 10
-31.929291
 20
256.079833
 30
3.564969
 70
   192
  0
VERTEX
  8
bark
 10
-30.143136
 20
260.023210
 30
-1.193117
 70
   192
  0
VERTEX
  8
bark
 10
-24.973837
 20
258.627039
 30
-4.758086
 70
   192
  0
VERTEX
  8
bark
 10
-21.590694
 20
253.287493
 30
-3.564969
 70
   192
  0
VERTEX
  8
bark
 10
-23.376849
 20
249.344117
 30
1.193117
 70
   192
  0
VERTEX
  8
bark
 10
12.303245
 20
329.830077
 30
104.022940
 70
   192
  0
VERTEX
  8
bark
 10
8.148451
 20
334.490146
 30
101.977018
 70
   192
  0
VERTEX
  8
bark
 10
8.391305
 20
337.074567
 30
95.513321
 70
   192
  0
VERTEX
  8
bark
 10
12.788954
 20
334.998920
 30
91.095547
 70
   192
  0
VERTEX
  8
bark
 10
16.943748
 20
330.338851
 30
93.141469
 70
   192
  0
VERTEX
  8
bark
 10
16.700893
 20
327.754429
 30
99.605166
 70
   192
  0
VERTEX
  8
bark
 10
51.844387
 20
447.100166
 30
88.556940
 70
   192
  0
VERTEX
  8
bark
 10
48.254116
 20
450.235497
 30
92.876616
 70
   192
  0
VERTEX
  8
bark
 10
43.291944
 20
453.835882
 30
90.928792
 70
   192
  0
VERTEX
  8
bark
 10
41.920043
 20
454.300937
 30
84.661292
 70
   192
  0
VERTEX
  8
bark
 10
45.510314
 20
451.165606
 30
80.341616
 70
   192
  0
VERTEX
  8
bark
 10
50.472486
 20
447.565221
 30
82.289440
 70
   192
  0
VERTEX
  8
bark
 10
16.536521
 20
0.055676
 30
-14.809648
 70
   192
  0
VERTEX
  8
bark
 10
21.405288
 20
-2.024925
 30
6.234732
 70
   192
  0
VERTEX
  8
bark
 10
23.330247
 20
179.454327
 30
46.740498
 70
   192
  0
VERTEX
  8
bark
 10
9.145212
 20
178.330988
 30
42.413962
 70
   192
  0
VERTEX
  8
bark
 10
5.648469
 20
177.708869
 30
27.997254
 70
   192
  0
VERTEX
  8
bark
 10
16.336762
 20
178.210089
 30
17.907083
 70
   192
  0
VERTEX
  8
bark
 10
30.521797
 20
179.333428
 30
22.233620
 70
   192
  0
VERTEX
  8
bark
 10
34.018540
 20
179.955547
 30
36.650327
 70
   192
  0
VERTEX
  8
bark
 10
-22.820071
 20
255.503118
 30
10.037024
 70
   192
  0
VERTEX
  8
bark
 10
-32.783064
 20
254.802013
 30
7.027272
 70
   192
  0
VERTEX
  8
bark
 10
-35.190842
 20
253.982558
 30
-3.009752
 70
   192
  0
VERTEX
  8
bark
 10
-27.635628
 20
253.864208
 30
-10.037024
 70
   192
  0
VERTEX
  8
bark
 10
-17.672635
 20
254.565313
 30
-7.027272
 70
   192
  0
VERTEX
  8
bark
 10
-15.264856
 20
255.384768
 30
3.009752
 70
   192
  0
VERTEX
  8
bark
 10
5.551196
 20
-2.495882
 30
21.044380
 70
   192
  0
VERTEX
  8
bark
 10
-15.171663
 20
-0.886238
 30
14.809648
 70
   192
  0
VERTEX
  8
bark
 10
-20.040430
 20
1.194363
 30
-6.234732
 70
   192
  0
VERTEX
  8
bark
 10
-4.186338
 20
1.665320
 30
-21.044380
 70
   192
  0
VERTEX
  8
bark
 10
-4.577927
 20
456.190872
 30
6.333575
 70
   192
  0
VERTEX
  8
bark
 10
-10.787817
 20
456.780638
 30
4.470668
 70
   192
  0
VERTEX
  8
bark
 10
-12.286663
 20
456.922987
 30
-1.862907
 70
   192
  0
VERTEX
  8
bark
 10
-7.575621
 20
456.475569
 30
-6.333575
 70
   192
  0
VERTEX
  8
bark
 10
-1.365731
 20
455.885803
 30
-4.470668
 70
   192
  0
VERTEX
  8
bark
 10
0.133116
 20
455.743455
 30
1.862907
 70
   192
  0
VERTEX
  8
bark
 10
0.0
 20
0.0
 30
0.0
 70
   128
 71
   1
 72
   2
 73
   8
  0
VERTEX
  8
bark
 10
0.0
 20
0.0
 30
0.0
 70
   128
 71
   2
 72
   3
 73
   9
  0
VERTEX
  8
bark
 10
0.0
 20
0.0
 30
0.0
 70
   128
 71
   3
 72
   4
 73
   10
  0
VERTEX
  8
bark
 10
0.0
 20
0.0
 30
0.0
 70
   128
 71
   4
 72
   5
 73
   11
  0
VERTEX
  8
bark
 10
0.0
 20
0.0
 30
0.0
 70
   128
 71
   5
 72
   6
 73
   12
  0
VERTEX
  8
bark
 10
0.0
 20
0.0
 30
0.0
 70
   128
 71
   6
 72
   1
 73
   7
  0
VERTEX
  8
bark
 10
0.0
 20
0.0
 30
0.0
 70
   128
 71
   7
 72
   8
 73
   15
  0
VERTEX
  8
bark
 10
0.0
 20
0.0
 30
0.0
 70
   128
 71
   8
 72
   9
 73
   16
  0
VERTEX
  8
bark
 10
0.0
 20
0.0
 30
0.0
 70
   128
 71
   9
 72
   10
 73
   17
  0
VERTEX
  8
bark
 10
0.0
 20
0.0
 30
0.0
 70
   128
 71
   10
 72
   11
 73
   18
  0
VERTEX
  8
bark
 10
0.0
 20
0.0
 30
0.0
 70
   128
 71
   11
 72
   12
 73
   13
  0
VERTEX
  8
bark
 10
0.0
 20
0.0
 30
0.0
 70
   128
 71
   12
 72
   7
 73
   14
  0
VERTEX
  8
bark
 10
0.0
 20
0.0
 30
0.0
 70
   128
 71
   6
 72
   5
 73
   1
  0
VERTEX
  8
bark
 10
0.0
 20
0.0
 30
0.0
 70
   128
 71
   5
 72
   4
 73
   3
  0
VERTEX
  8
bark
 10
0.0
 20
0.0
 30
0.0
 70
   128
 71
   5
 72
   3
 73
   1
  0
VERTEX
  8
bark
 10
0.0
 20
0.0
 30
0.0
 70
   128
 71
   3
 72
   2
 73
   1
  0
VERTEX
  8
bark
 10
0.0
 20
0.0
 30
0.0
 70
   128
 71
   14
 72
   15
 73
   16
  0
VERTEX
  8
bark
 10
0.0
 20
0.0
 30
0.0
 70
   128
 71
   14
 72
   16
 73
   13
  0
VERTEX
  8
bark
 10
0.0
 20
0.0
 30
0.0
 70
   128
 71
   16
 72
   17
 73
   18
  0
VERTEX
  8
bark
 10
0.0
 20
0.0
 30
0.0
 70
   128
 71
   16
 72
   18
 73
   13
  0
VERTEX
  8
bark
 10
0.0
 20
0.0
 30
0.0
 70
   128
 71
   33
 72
   34
 73
   22
  0
VERTEX
  8
bark
 10
0.0
 20
0.0
 30
0.0
 70
   128
 71
   34
 72
   35
 73
   23
  0
VERTEX
  8
bark
 10
0.0
 20
0.0
 30
0.0
 70
   128
 71
   35
 72
   36
 73
   24
  0
VERTEX
  8
bark
 10
0.0
 20
0.0
 30
0.0
 70
   128
 71
   36
 72
   19
 73
   25
  0
VERTEX
  8
bark
 10
0.0
 20
0.0
 30
0.0
 70
   128
 71
   19
 72
   20
 73
   26
  0
VERTEX
  8
bark
 10
0.0
 20
0.0
 30
0.0
 70
   128
 71
   20
 72
   33
 73
   21
  0
VERTEX
  8
bark
 10
0.0
 20
0.0
 30
0.0
 70
   128
 71
   21
 72
   22
 73
   28
  0
VERTEX
  8
bark
 10
0.0
 20
0.0
 30
0.0
 70
   128
 71
   22
 72
   23
 73
   29
  0
VERTEX
  8
bark
 10
0.0
 20
0.0
 30
0.0
 70
   128
 71
   23
 72
   24
 73
   30
  0
VERTEX
  8
bark
 10
0.0
 20
0.0
 30
0.0
 70
   128
 71
   24
 72
   25
 73
   31
  0
VERTEX
  8
bark
 10
0.0
 20
0.0
 30
0.0
 70
   128
 71
   25
 72
   26
 73
   32
  0
VERTEX
  8
bark
 10
0.0
 20
0.0
 30
0.0
 70
   128
 71
   26
 72
   21
 73
   27
  0
VERTEX
  8
bark
 10
0.0
 20
0.0
 30
0.0
 70
   128
 71
   27
 72
   28
 73
   38
  0
VERTEX
  8
bark
 10
0.0
 20
0.0
 30
0.0
 70
   128
 71
   28
 72
   29
 73
   39
  0
VERTEX
  8
bark
 10
0.0
 20
0.0
 30
0.0
 70
   128
 71
   29
 72
   30
 73
   40
  0
VERTEX
  8
bark
 10
0.0
 20
0.0
 30
0.0
 70
   128
 71
   30
 72
   31
 73
   41
  0
VERTEX
  8
bark
 10
0.0
 20
0.0
 30
0.0
 70
   128
 71
   31
 72
   32
 73
   42
  0
VERTEX
  8
bark
 10
0.0
 20
0.0
 30
0.0
 70
   128
 71
   32
 72
   27
 73
   37
  0
VERTEX
  8
bark
 10
0.0
 20
0.0
 30
0.0
 70
   128
 71
   20
 72
   19
 73
   33
  0
VERTEX
  8
bark
 10
0.0
 20
0.0
 30
0.0
 70
   128
 71
   19
 72
   36
 73
   35
  0
VERTEX
  8
bark
 10
0.0
 20
0.0
 30
0.0
 70
   128
 71
   19
 72
   35
 73
   33
  0
VERTEX
  8
bark
 10
0.0
 20
0.0
 30
0.0
 70
   128
 71
   35
 72
   34
 73
   33
  0
VERTEX
  8
bark
 10
0.0
 20
0.0
 30
0.0
 70
   128
 71
   37
 72
   38
 73
   39
  0
VERTEX
  8
bark
 10
0.0
 20
0.0
 30
0.0
 70
   128
 71
   37
 72
   39
 73
   42
  0
VERTEX
  8
bark
 10
0.0
 20
0.0
 30
0.0
 70
   128
 71
   39
 72
   40
 73
   41
  0
VERTEX
  8
bark
 10
0.0
 20
0.0
 30
0.0
 70
   128
 71
   39
 72
   41
 73
   42
  0
VERTEX
  8
bark
 10
0.0
 20
0.0
 30
0.0
 70
   128
 71
   1
 72
   8
 73
   7
  0
VERTEX
  8
bark
 10
0.0
 20
0.0
 30
0.0
 70
   128
 71
   2
 72
   9
 73
   8
  0
VERTEX
  8
bark
 10
0.0
 20
0.0
 30
0.0
 70
   128
 71
   3
 72
   10
 73
   9
  0
VERTEX
  8
bark
 10
0.0
 20
0.0
 30
0.0
 70
   128
 71
   4
 72
   11
 73
   10
  0
VERTEX
  8
bark
 10
0.0
 20
0.0
 30
0.0
 70
   128
 71
   5
 72
   12
 73
   11
  0
VERTEX
  8
bark
 10
0.0
 20
0.0
 30
0.0
 70
   128
 71
   6
 72
   7
 73
   12
  0
VERTEX
  8
bark
 10
0.0
 20
0.0
 30
0.0
 70
   128
 71
   7
 72
   15
 73
   14
  0
VERTEX
  8
bark
 10
0.0
 20
0.0
 30
0.0
 70
   128
 71
   8
 72
   16
 73
   15
  0
VERTEX
  8
bark
 10
0.0
 20
0.0
 30
0.0
 70
   128
 71
   9
 72
   17
 73
   16
  0
VERTEX
  8
bark
 10
0.0
 20
0.0
 30
0.0
 70
   128
 71
   10
 72
   18
 73
   17
  0
VERTEX
  8
bark
 10
0.0
 20
0.0
 30
0.0
 70
   128
 71
   11
 72
   13
 73
   18
  0
VERTEX
  8
bark
 10
0.0
 20
0.0
 30
0.0
 70
   128
 71
   12
 72
   14
 73
   13
  0
VERTEX
  8
bark
 10
0.0
 20
0.0
 30
0.0
 70
   128
 71
   33
 72
   22
 73
   21
  0
VERTEX
  8
bark
 10
0.0
 20
0.0
 30
0.0
 70
   128
 71
   34
 72
   23
 73
   22
  0
VERTEX
  8
bark
 10
0.0
 20
0.0
 30
0.0
 70
   128
 71
   35
 72
   24
 73
   23
  0
VERTEX
  8
bark
 10
0.0
 20
0.0
 30
0.0
 70
   128
 71
   36
 72
   25
 73
   24
  0
VERTEX
  8
bark
 10
0.0
 20
0.0
 30
0.0
 70
   128
 71
   19
 72
   26
 73
   25
  0
VERTEX
  8
bark
 10
0.0
 20
0.0
 30
0.0
 70
   128
 71
   20
 72
   21
 73
   26
  0
VERTEX
  8
bark
 10
0.0
 20
0.0
 30
0.0
 70
   128
 71
   21
 72
   28
 73
   27
  0
VERTEX
  8
bark
 10
0.0
 20
0.0
 30
0.0
 70
   128
 71
   22
 72
   29
 73
   28
  0
VERTEX
  8
bark
 10
0.0
 20
0.0
 30
0.0
 70
   128
 71
   23
 72
   30
 73
   29
  0
VERTEX
  8
bark
 10
0.0
 20
0.0
 30
0.0
 70
   128
 71
   24
 72
   31
 73
   30
  0
VERTEX
  8
bark
 10
0.0
 20
0.0
 30
0.0
 70
   128
 71
   25
 72
   32
 73
   31
  0
VERTEX
  8
bark
 10
0.0
 20
0.0
 30
0.0
 70
   128
 71
   26
 72
   27
 73
   32
  0
VERTEX
  8
bark
 10
0.0
 20
0.0
 30
0.0
 70
   128
 71
   27
 72
   38
 73
   37
  0
VERTEX
  8
bark
 10
0.0
 20
0.0
 30
0.0
 70
   128
 71
   28
 72
   39
 73
   38
  0
VERTEX
  8
bark
 10
0.0
 20
0.0
 30
0.0
 70
   128
 71
   29
 72
   40
 73
   39
  0
VERTEX
  8
bark
 10
0.0
 20
0.0
 30
0.0
 70
   128
 71
   30
 72
   41
 73
   40
  0
VERTEX
  8
bark
 10
0.0
 20
0.0
 30
0.0
 70
   128
 71
   31
 72
   42
 73
   41
  0
VERTEX
  8
bark
 10
0.0
 20
0.0
 30
0.0
 70
   128
 71
   32
 72
   37
 73
   42
  0
SEQEND
  0
ENDSEC
  0
EOF
