999
FBX AutoCAD (*.DXF) exporter
  0
SECTION
  2
HEADER
  9
$ACADVER
  1
AC1008
  9
$UCSORG
 10
0.0
 20
0.0
 30
0.0
  9
$UCSXDIR
 10
1.0
 20
0.0
 30
0.0
  9
$TILEMODE
 70
   1
  9
$UCSYDIR
 10
0.0
 20
1.0
 30
0.0
  0
ENDSEC
  0
SECTION
  2
TABLES
  0
TABLE
  2
LTYPE
 70
   1
  0
LTYPE
  2
CONTINUOUS
 70
   64
  3
Solid line
 72
   65
 73
   0
 40
0.0
  0
ENDTAB
  0
TABLE
  2
LAYER
 70
   2
  0
LAYER
  2
bark
 70
   0
 62
   250
  6
CONTINUOUS
  0
ENDTAB
  0
ENDSEC
  0
SECTION
  2
BLOCKS
  0
ENDSEC
  0
SECTION
  2
ENTITIES
  0
POLYLINE
  8
bark
 66
   1
 10
0.0
 20
0.0
 30
0.0
 70
   64
 71
   202
 72
   360
  0
VERTEX
  8
bark
 10
-59.834532
 20
598.887218
 30
43.308162
 70
   192
  0
VERTEX
  8
bark
 10
-60.239214
 20
597.962655
 30
45.701590
 70
   192
  0
VERTEX
  8
bark
 10
-62.333672
 20
596.507677
 30
46.194914
 70
   192
  0
VERTEX
  8
bark
 10
-64.023449
 20
595.977263
 30
44.294809
 70
   192
  0
VERTEX
  8
bark
 10
-61.928991
 20
597.432240
 30
43.801486
 70
   192
  0
VERTEX
  8
bark
 10
-15.329727
 20
-0.000000
 30
14.077627
 70
   192
  0
VERTEX
  8
bark
 10
-23.576087
 20
-0.000000
 30
1.258078
 70
   192
  0
VERTEX
  8
bark
 10
-22.673214
 20
-0.000000
 30
-13.969429
 70
   192
  0
VERTEX
  8
bark
 10
-12.965975
 20
-0.000000
 30
-25.788506
 70
   192
  0
VERTEX
  8
bark
 10
1.837794
 20
-0.000000
 30
-29.684667
 70
   192
  0
VERTEX
  8
bark
 10
16.083557
 20
-0.000000
 30
-24.169710
 70
   192
  0
VERTEX
  8
bark
 10
24.329917
 20
-0.000000
 30
-11.350162
 70
   192
  0
VERTEX
  8
bark
 10
23.427044
 20
-0.000000
 30
3.877346
 70
   192
  0
VERTEX
  8
bark
 10
13.719806
 20
-0.000000
 30
15.696424
 70
   192
  0
VERTEX
  8
bark
 10
-1.083963
 20
-0.000000
 30
19.592584
 70
   192
  0
VERTEX
  8
bark
 10
-75.474963
 20
501.934905
 30
16.053570
 70
   192
  0
VERTEX
  8
bark
 10
-47.710742
 20
570.415124
 30
34.426639
 70
   192
  0
VERTEX
  8
bark
 10
-45.520869
 20
571.828648
 30
33.894710
 70
   192
  0
VERTEX
  8
bark
 10
-43.748294
 20
572.309825
 30
35.819025
 70
   192
  0
VERTEX
  8
bark
 10
-44.165591
 20
571.377477
 30
38.275269
 70
   192
  0
VERTEX
  8
bark
 10
-8.032145
 20
147.887499
 30
2.530153
 70
   192
  0
VERTEX
  8
bark
 10
-16.853133
 20
147.945740
 30
-6.071645
 70
   192
  0
VERTEX
  8
bark
 10
-19.019363
 20
146.697164
 30
-18.136166
 70
   192
  0
VERTEX
  8
bark
 10
-13.703409
 20
144.618684
 30
-29.055173
 70
   192
  0
VERTEX
  8
bark
 10
-2.935784
 20
142.504209
 30
-34.657976
 70
   192
  0
VERTEX
  8
bark
 10
9.170645
 20
141.161397
 30
-32.804495
 70
   192
  0
VERTEX
  8
bark
 10
17.991634
 20
141.103156
 30
-24.202698
 70
   192
  0
VERTEX
  8
bark
 10
20.157864
 20
142.351732
 30
-12.138177
 70
   192
  0
VERTEX
  8
bark
 10
14.841910
 20
144.430211
 30
-1.219170
 70
   192
  0
VERTEX
  8
bark
 10
4.074285
 20
146.544686
 30
4.383634
 70
   192
  0
VERTEX
  8
bark
 10
-46.355464
 20
569.963954
 30
38.807198
 70
   192
  0
VERTEX
  8
bark
 10
-48.128039
 20
569.482777
 30
36.882883
 70
   192
  0
VERTEX
  8
bark
 10
14.441725
 20
435.163962
 30
-7.773375
 70
   192
  0
VERTEX
  8
bark
 10
18.632875
 20
430.550043
 30
-9.580614
 70
   192
  0
VERTEX
  8
bark
 10
21.671985
 20
426.986449
 30
-5.087875
 70
   192
  0
VERTEX
  8
bark
 10
20.519946
 20
428.036772
 30
1.212103
 70
   192
  0
VERTEX
  8
bark
 10
16.328795
 20
432.650691
 30
3.019342
 70
   192
  0
VERTEX
  8
bark
 10
13.289685
 20
436.214286
 30
-1.473396
 70
   192
  0
VERTEX
  8
bark
 10
-63.618768
 20
596.901826
 30
41.901381
 70
   192
  0
VERTEX
  8
bark
 10
-61.524309
 20
598.356803
 30
41.408057
 70
   192
  0
VERTEX
  8
bark
 10
8.558844
 20
237.511560
 30
-2.537851
 70
   192
  0
VERTEX
  8
bark
 10
-0.934321
 20
237.802558
 30
-8.208340
 70
   192
  0
VERTEX
  8
bark
 10
-5.303133
 20
239.132145
 30
-18.283310
 70
   192
  0
VERTEX
  8
bark
 10
-2.878854
 20
240.992462
 30
-28.914463
 70
   192
  0
VERTEX
  8
bark
 10
5.412524
 20
242.672932
 30
-36.041061
 70
   192
  0
VERTEX
  8
bark
 10
16.403977
 20
243.531672
 30
-36.940985
 70
   192
  0
VERTEX
  8
bark
 10
25.897142
 20
243.240673
 30
-31.270495
 70
   192
  0
VERTEX
  8
bark
 10
30.265955
 20
241.911087
 30
-21.195526
 70
   192
  0
VERTEX
  8
bark
 10
27.841676
 20
240.050770
 30
-10.564373
 70
   192
  0
VERTEX
  8
bark
 10
19.550298
 20
238.370300
 30
-3.437775
 70
   192
  0
VERTEX
  8
bark
 10
-18.159190
 20
534.244591
 30
24.469050
 70
   192
  0
VERTEX
  8
bark
 10
-18.618861
 20
532.986188
 30
27.460958
 70
   192
  0
VERTEX
  8
bark
 10
-21.152041
 20
530.983470
 30
28.025327
 70
   192
  0
VERTEX
  8
bark
 10
-23.225550
 20
530.239156
 30
25.597788
 70
   192
  0
VERTEX
  8
bark
 10
27.108226
 20
445.364684
 30
-6.550855
 70
   192
  0
VERTEX
  8
bark
 10
30.561361
 20
441.605526
 30
-8.030962
 70
   192
  0
VERTEX
  8
bark
 10
33.137747
 20
438.766073
 30
-4.350490
 70
   192
  0
VERTEX
  8
bark
 10
32.260998
 20
439.685778
 30
0.810091
 70
   192
  0
VERTEX
  8
bark
 10
28.807862
 20
443.444937
 30
2.290199
 70
   192
  0
VERTEX
  8
bark
 10
26.231476
 20
446.284390
 30
-1.390274
 70
   192
  0
VERTEX
  8
bark
 10
3.125329
 20
335.587957
 30
8.081758
 70
   192
  0
VERTEX
  8
bark
 10
-6.587977
 20
336.244655
 30
5.086879
 70
   192
  0
VERTEX
  8
bark
 10
-12.683212
 20
336.759503
 30
-3.057561
 70
   192
  0
VERTEX
  8
bark
 10
-12.832204
 20
336.935846
 30
-13.240664
 70
   192
  0
VERTEX
  8
bark
 10
-6.978042
 20
336.706328
 30
-21.572829
 70
   192
  0
VERTEX
  8
bark
 10
2.643182
 20
336.158615
 30
-24.871453
 70
   192
  0
VERTEX
  8
bark
 10
12.356488
 20
335.501917
 30
-21.876574
 70
   192
  0
VERTEX
  8
bark
 10
18.451724
 20
334.987069
 30
-13.732134
 70
   192
  0
VERTEX
  8
bark
 10
18.600715
 20
334.810726
 30
-3.549032
 70
   192
  0
VERTEX
  8
bark
 10
12.746554
 20
335.040244
 30
4.783133
 70
   192
  0
VERTEX
  8
bark
 10
8.034934
 20
382.659898
 30
8.059258
 70
   192
  0
VERTEX
  8
bark
 10
-1.368863
 20
385.110802
 30
6.537559
 70
   192
  0
VERTEX
  8
bark
 10
-7.983583
 20
387.371964
 30
-0.382450
 70
   192
  0
VERTEX
  8
bark
 10
-9.282628
 20
388.579698
 30
-10.057561
 70
   192
  0
VERTEX
  8
bark
 10
-4.769807
 20
388.272689
 30
-18.792210
 70
   192
  0
VERTEX
  8
bark
 10
3.831136
 20
386.568205
 30
-23.250059
 70
   192
  0
VERTEX
  8
bark
 10
13.234934
 20
384.117302
 30
-21.728360
 70
   192
  0
VERTEX
  8
bark
 10
19.849654
 20
381.856139
 30
-14.808351
 70
   192
  0
VERTEX
  8
bark
 10
21.148700
 20
380.648406
 30
-5.133240
 70
   192
  0
VERTEX
  8
bark
 10
16.635879
 20
380.955414
 30
3.601409
 70
   192
  0
VERTEX
  8
bark
 10
101.432026
 20
509.978582
 30
-3.953342
 70
   192
  0
VERTEX
  8
bark
 10
104.253467
 20
506.505354
 30
-2.855261
 70
   192
  0
VERTEX
  8
bark
 10
103.718783
 20
506.886037
 30
-0.277329
 70
   192
  0
VERTEX
  8
bark
 10
102.040720
 20
508.812992
 30
0.462597
 70
   192
  0
VERTEX
  8
bark
 10
100.897342
 20
510.359265
 30
-1.375409
 70
   192
  0
VERTEX
  8
bark
 10
103.110089
 20
508.051627
 30
-4.693268
 70
   192
  0
VERTEX
  8
bark
 10
-4.057070
 20
507.845786
 30
13.633377
 70
   192
  0
VERTEX
  8
bark
 10
-0.869897
 20
510.830387
 30
12.977623
 70
   192
  0
VERTEX
  8
bark
 10
1.818855
 20
511.954061
 30
16.294835
 70
   192
  0
VERTEX
  8
bark
 10
1.320434
 20
510.093136
 30
20.267801
 70
   192
  0
VERTEX
  8
bark
 10
-1.866739
 20
507.108535
 30
20.923555
 70
   192
  0
VERTEX
  8
bark
 10
-4.555491
 20
505.984860
 30
17.606343
 70
   192
  0
VERTEX
  8
bark
 10
51.733172
 20
466.808431
 30
-5.585986
 70
   192
  0
VERTEX
  8
bark
 10
54.215111
 20
464.198341
 30
-6.629727
 70
   192
  0
VERTEX
  8
bark
 10
56.123871
 20
462.281197
 30
-4.032962
 70
   192
  0
VERTEX
  8
bark
 10
55.550691
 20
462.974145
 30
-0.392457
 70
   192
  0
VERTEX
  8
bark
 10
53.068752
 20
465.584235
 30
0.651284
 70
   192
  0
VERTEX
  8
bark
 10
51.159993
 20
467.501379
 30
-1.945481
 70
   192
  0
VERTEX
  8
bark
 10
-22.765880
 20
531.497560
 30
22.605880
 70
   192
  0
VERTEX
  8
bark
 10
-20.232700
 20
533.500277
 30
22.041511
 70
   192
  0
VERTEX
  8
bark
 10
35.948783
 20
523.044692
 30
21.474738
 70
   192
  0
VERTEX
  8
bark
 10
29.488397
 20
523.575572
 30
22.638896
 70
   192
  0
VERTEX
  8
bark
 10
23.645228
 20
524.729808
 30
19.828416
 70
   192
  0
VERTEX
  8
bark
 10
20.651168
 20
526.066522
 30
14.116807
 70
   192
  0
VERTEX
  8
bark
 10
21.649846
 20
527.075133
 30
7.685709
 70
   192
  0
VERTEX
  8
bark
 10
26.259800
 20
527.370387
 30
2.991582
 70
   192
  0
VERTEX
  8
bark
 10
32.720186
 20
526.839507
 30
1.827424
 70
   192
  0
VERTEX
  8
bark
 10
38.563355
 20
525.685271
 30
4.637904
 70
   192
  0
VERTEX
  8
bark
 10
41.557415
 20
524.348558
 30
10.349513
 70
   192
  0
VERTEX
  8
bark
 10
40.558738
 20
523.339947
 30
16.780612
 70
   192
  0
VERTEX
  8
bark
 10
-0.557727
 20
339.648750
 30
-12.397188
 70
   192
  0
VERTEX
  8
bark
 10
4.142822
 20
335.849474
 30
-14.761601
 70
   192
  0
VERTEX
  8
bark
 10
7.584804
 20
332.074010
 30
-10.759260
 70
   192
  0
VERTEX
  8
bark
 10
6.326238
 20
332.097822
 30
-4.392507
 70
   192
  0
VERTEX
  8
bark
 10
1.625690
 20
335.897098
 30
-2.028094
 70
   192
  0
VERTEX
  8
bark
 10
-1.816293
 20
339.672562
 30
-6.030435
 70
   192
  0
VERTEX
  8
bark
 10
10.878930
 20
351.038304
 30
-9.582239
 70
   192
  0
VERTEX
  8
bark
 10
14.592640
 20
347.779649
 30
-11.540725
 70
   192
  0
VERTEX
  8
bark
 10
17.365850
 20
344.640208
 30
-8.269738
 70
   192
  0
VERTEX
  8
bark
 10
16.425351
 20
344.759423
 30
-3.040265
 70
   192
  0
VERTEX
  8
bark
 10
12.711642
 20
348.018078
 30
-1.081778
 70
   192
  0
VERTEX
  8
bark
 10
9.938431
 20
351.157519
 30
-4.352765
 70
   192
  0
VERTEX
  8
bark
 10
22.561309
 20
362.234661
 30
-7.279210
 70
   192
  0
VERTEX
  8
bark
 10
25.555583
 20
359.434981
 30
-8.919956
 70
   192
  0
VERTEX
  8
bark
 10
27.830091
 20
356.796026
 30
-6.207308
 70
   192
  0
VERTEX
  8
bark
 10
27.110326
 20
356.956751
 30
-1.853915
 70
   192
  0
VERTEX
  8
bark
 10
24.116053
 20
359.756431
 30
-0.213169
 70
   192
  0
VERTEX
  8
bark
 10
21.841544
 20
362.395386
 30
-2.925817
 70
   192
  0
VERTEX
  8
bark
 10
76.170288
 20
489.000111
 30
-5.379968
 70
   192
  0
VERTEX
  8
bark
 10
78.031734
 20
486.848486
 30
-6.205187
 70
   192
  0
VERTEX
  8
bark
 10
79.379921
 20
485.189159
 30
-4.154703
 70
   192
  0
VERTEX
  8
bark
 10
78.866662
 20
485.681458
 30
-1.279001
 70
   192
  0
VERTEX
  8
bark
 10
77.005217
 20
487.833083
 30
-0.453782
 70
   192
  0
VERTEX
  8
bark
 10
75.657030
 20
489.492410
 30
-2.504266
 70
   192
  0
VERTEX
  8
bark
 10
46.323032
 20
384.303927
 30
-3.753135
 70
   192
  0
VERTEX
  8
bark
 10
48.555437
 20
382.234588
 30
-4.969930
 70
   192
  0
VERTEX
  8
bark
 10
50.247102
 20
380.278441
 30
-2.955445
 70
   192
  0
VERTEX
  8
bark
 10
49.706362
 20
380.391635
 30
0.275836
 70
   192
  0
VERTEX
  8
bark
 10
47.473957
 20
382.460974
 30
1.492632
 70
   192
  0
VERTEX
  8
bark
 10
45.782292
 20
384.417120
 30
-0.521853
 70
   192
  0
VERTEX
  8
bark
 10
126.096065
 20
531.353451
 30
-1.809174
 70
   192
  0
VERTEX
  8
bark
 10
127.799424
 20
529.530204
 30
-2.531270
 70
   192
  0
VERTEX
  8
bark
 10
128.966991
 20
528.059817
 30
-0.736324
 70
   192
  0
VERTEX
  8
bark
 10
128.431200
 20
528.412677
 30
1.780718
 70
   192
  0
VERTEX
  8
bark
 10
126.727841
 20
530.235924
 30
2.502814
 70
   192
  0
VERTEX
  8
bark
 10
125.560274
 20
531.706311
 30
0.707868
 70
   192
  0
VERTEX
  8
bark
 10
69.021230
 20
407.239503
 30
-0.056705
 70
   192
  0
VERTEX
  8
bark
 10
71.068006
 20
405.668888
 30
-1.057250
 70
   192
  0
VERTEX
  8
bark
 10
72.550386
 20
404.074743
 30
0.651102
 70
   192
  0
VERTEX
  8
bark
 10
71.985992
 20
404.051213
 30
3.359998
 70
   192
  0
VERTEX
  8
bark
 10
69.939216
 20
405.621829
 30
4.360543
 70
   192
  0
VERTEX
  8
bark
 10
68.456835
 20
407.215974
 30
2.652192
 70
   192
  0
VERTEX
  8
bark
 10
127.263633
 20
529.883064
 30
-0.014228
 70
   192
  0
VERTEX
  8
bark
 10
13.808634
 20
484.536541
 30
3.538832
 70
   192
  0
VERTEX
  8
bark
 10
18.575698
 20
488.825403
 30
2.538403
 70
   192
  0
VERTEX
  8
bark
 10
22.637083
 20
490.347731
 30
7.366215
 70
   192
  0
VERTEX
  8
bark
 10
21.931403
 20
487.581197
 30
13.194457
 70
   192
  0
VERTEX
  8
bark
 10
17.164339
 20
483.292335
 30
14.194887
 70
   192
  0
VERTEX
  8
bark
 10
13.102954
 20
481.770007
 30
9.367074
 70
   192
  0
VERTEX
  8
bark
 10
100.581732
 20
443.887150
 30
6.983317
 70
   192
  0
VERTEX
  8
bark
 10
102.488769
 20
442.396067
 30
6.041527
 70
   192
  0
VERTEX
  8
bark
 10
103.875261
 20
440.894373
 30
7.644536
 70
   192
  0
VERTEX
  8
bark
 10
103.354717
 20
440.883762
 30
10.189336
 70
   192
  0
VERTEX
  8
bark
 10
101.447681
 20
442.374845
 30
11.131126
 70
   192
  0
VERTEX
  8
bark
 10
100.061189
 20
443.876539
 30
9.528117
 70
   192
  0
VERTEX
  8
bark
 10
101.968225
 20
442.385456
 30
8.586327
 70
   192
  0
VERTEX
  8
bark
 10
2.229168
 20
382.883650
 30
-12.635953
 70
   192
  0
VERTEX
  8
bark
 10
7.446111
 20
386.627801
 30
-13.576664
 70
   192
  0
VERTEX
  8
bark
 10
11.149978
 20
388.358203
 30
-8.536112
 70
   192
  0
VERTEX
  8
bark
 10
9.636903
 20
386.344454
 30
-2.554848
 70
   192
  0
VERTEX
  8
bark
 10
4.419961
 20
382.600302
 30
-1.614137
 70
   192
  0
VERTEX
  8
bark
 10
0.716093
 20
380.869900
 30
-6.654689
 70
   192
  0
VERTEX
  8
bark
 10
-6.225279
 20
396.461011
 30
-9.571144
 70
   192
  0
VERTEX
  8
bark
 10
-2.136461
 20
399.780471
 30
-10.284507
 70
   192
  0
VERTEX
  8
bark
 10
0.913705
 20
401.164747
 30
-6.158201
 70
   192
  0
VERTEX
  8
bark
 10
-0.124948
 20
399.229564
 30
-1.318531
 70
   192
  0
VERTEX
  8
bark
 10
-4.213767
 20
395.910104
 30
-0.605168
 70
   192
  0
VERTEX
  8
bark
 10
-7.263932
 20
394.525828
 30
-4.731474
 70
   192
  0
VERTEX
  8
bark
 10
-69.391963
 20
473.039901
 30
15.205867
 70
   192
  0
VERTEX
  8
bark
 10
-67.133564
 20
474.378569
 30
14.776749
 70
   192
  0
VERTEX
  8
bark
 10
-65.563218
 20
475.028466
 30
16.823256
 70
   192
  0
VERTEX
  8
bark
 10
-77.032251
 20
501.340775
 30
14.061348
 70
   192
  0
VERTEX
  8
bark
 10
-74.828187
 20
502.649561
 30
13.641510
 70
   192
  0
VERTEX
  8
bark
 10
-73.270899
 20
503.243692
 30
15.633732
 70
   192
  0
VERTEX
  8
bark
 10
-24.943935
 20
421.362512
 30
-1.921820
 70
   192
  0
VERTEX
  8
bark
 10
-22.151654
 20
423.820041
 30
-2.396907
 70
   192
  0
VERTEX
  8
bark
 10
-19.966734
 20
424.759011
 30
0.502482
 70
   192
  0
VERTEX
  8
bark
 10
-20.574096
 20
423.240451
 30
3.876956
 70
   192
  0
VERTEX
  8
bark
 10
-23.366377
 20
420.782922
 30
4.352043
 70
   192
  0
VERTEX
  8
bark
 10
-25.551297
 20
419.843953
 30
1.452654
 70
   192
  0
VERTEX
  8
bark
 10
-73.917676
 20
502.529036
 30
18.045791
 70
   192
  0
VERTEX
  8
bark
 10
-76.121740
 20
501.220249
 30
18.465629
 70
   192
  0
VERTEX
  8
bark
 10
-77.679027
 20
500.626119
 30
16.473407
 70
   192
  0
VERTEX
  8
bark
 10
-66.251272
 20
474.339694
 30
19.298881
 70
   192
  0
VERTEX
  8
bark
 10
-68.509671
 20
473.001026
 30
19.727998
 70
   192
  0
VERTEX
  8
bark
 10
-70.080017
 20
472.351130
 30
17.681491
 70
   192
  0
VERTEX
  8
bark
 10
-44.874384
 20
454.777086
 30
5.535132
 70
   192
  0
VERTEX
  8
bark
 10
-42.478164
 20
456.463449
 30
5.099513
 70
   192
  0
VERTEX
  8
bark
 10
-40.732106
 20
457.174545
 30
7.384481
 70
   192
  0
VERTEX
  8
bark
 10
-41.382269
 20
456.199279
 30
10.105069
 70
   192
  0
VERTEX
  8
bark
 10
-43.778489
 20
454.512916
 30
10.540689
 70
   192
  0
VERTEX
  8
bark
 10
-45.524547
 20
453.801820
 30
8.255720
 70
   192
  0
VERTEX
  8
bark
 10
0.0
 20
0.0
 30
0.0
 70
   128
 71
   31
 72
   32
 73
   4
  0
VERTEX
  8
bark
 10
0.0
 20
0.0
 30
0.0
 70
   128
 71
   32
 72
   17
 73
   39
  0
VERTEX
  8
bark
 10
0.0
 20
0.0
 30
0.0
 70
   128
 71
   17
 72
   18
 73
   40
  0
VERTEX
  8
bark
 10
0.0
 20
0.0
 30
0.0
 70
   128
 71
   18
 72
   19
 73
   1
  0
VERTEX
  8
bark
 10
0.0
 20
0.0
 30
0.0
 70
   128
 71
   19
 72
   20
 73
   2
  0
VERTEX
  8
bark
 10
0.0
 20
0.0
 30
0.0
 70
   128
 71
   20
 72
   31
 73
   3
  0
VERTEX
  8
bark
 10
0.0
 20
0.0
 30
0.0
 70
   128
 71
   199
 72
   200
 73
   194
  0
VERTEX
  8
bark
 10
0.0
 20
0.0
 30
0.0
 70
   128
 71
   200
 72
   201
 73
   195
  0
VERTEX
  8
bark
 10
0.0
 20
0.0
 30
0.0
 70
   128
 71
   40
 72
   5
 73
   39
  0
VERTEX
  8
bark
 10
0.0
 20
0.0
 30
0.0
 70
   128
 71
   40
 72
   1
 73
   5
  0
VERTEX
  8
bark
 10
0.0
 20
0.0
 30
0.0
 70
   128
 71
   6
 72
   7
 73
   22
  0
VERTEX
  8
bark
 10
0.0
 20
0.0
 30
0.0
 70
   128
 71
   7
 72
   8
 73
   23
  0
VERTEX
  8
bark
 10
0.0
 20
0.0
 30
0.0
 70
   128
 71
   8
 72
   9
 73
   24
  0
VERTEX
  8
bark
 10
0.0
 20
0.0
 30
0.0
 70
   128
 71
   9
 72
   10
 73
   25
  0
VERTEX
  8
bark
 10
0.0
 20
0.0
 30
0.0
 70
   128
 71
   10
 72
   11
 73
   26
  0
VERTEX
  8
bark
 10
0.0
 20
0.0
 30
0.0
 70
   128
 71
   11
 72
   12
 73
   27
  0
VERTEX
  8
bark
 10
0.0
 20
0.0
 30
0.0
 70
   128
 71
   12
 72
   13
 73
   28
  0
VERTEX
  8
bark
 10
0.0
 20
0.0
 30
0.0
 70
   128
 71
   13
 72
   14
 73
   29
  0
VERTEX
  8
bark
 10
0.0
 20
0.0
 30
0.0
 70
   128
 71
   14
 72
   15
 73
   30
  0
VERTEX
  8
bark
 10
0.0
 20
0.0
 30
0.0
 70
   128
 71
   15
 72
   6
 73
   21
  0
VERTEX
  8
bark
 10
0.0
 20
0.0
 30
0.0
 70
   128
 71
   51
 72
   52
 73
   20
  0
VERTEX
  8
bark
 10
0.0
 20
0.0
 30
0.0
 70
   128
 71
   52
 72
   53
 73
   31
  0
VERTEX
  8
bark
 10
0.0
 20
0.0
 30
0.0
 70
   128
 71
   53
 72
   54
 73
   32
  0
VERTEX
  8
bark
 10
0.0
 20
0.0
 30
0.0
 70
   128
 71
   54
 72
   99
 73
   17
  0
VERTEX
  8
bark
 10
0.0
 20
0.0
 30
0.0
 70
   128
 71
   99
 72
   100
 73
   18
  0
VERTEX
  8
bark
 10
0.0
 20
0.0
 30
0.0
 70
   128
 71
   100
 72
   51
 73
   19
  0
VERTEX
  8
bark
 10
0.0
 20
0.0
 30
0.0
 70
   128
 71
   201
 72
   202
 73
   196
  0
VERTEX
  8
bark
 10
0.0
 20
0.0
 30
0.0
 70
   128
 71
   202
 72
   197
 73
   179
  0
VERTEX
  8
bark
 10
0.0
 20
0.0
 30
0.0
 70
   128
 71
   179
 72
   180
 73
   183
  0
VERTEX
  8
bark
 10
0.0
 20
0.0
 30
0.0
 70
   128
 71
   180
 72
   181
 73
   184
  0
VERTEX
  8
bark
 10
0.0
 20
0.0
 30
0.0
 70
   128
 71
   21
 72
   22
 73
   42
  0
VERTEX
  8
bark
 10
0.0
 20
0.0
 30
0.0
 70
   128
 71
   22
 72
   23
 73
   43
  0
VERTEX
  8
bark
 10
0.0
 20
0.0
 30
0.0
 70
   128
 71
   23
 72
   24
 73
   44
  0
VERTEX
  8
bark
 10
0.0
 20
0.0
 30
0.0
 70
   128
 71
   24
 72
   25
 73
   45
  0
VERTEX
  8
bark
 10
0.0
 20
0.0
 30
0.0
 70
   128
 71
   25
 72
   26
 73
   46
  0
VERTEX
  8
bark
 10
0.0
 20
0.0
 30
0.0
 70
   128
 71
   26
 72
   27
 73
   47
  0
VERTEX
  8
bark
 10
0.0
 20
0.0
 30
0.0
 70
   128
 71
   27
 72
   28
 73
   48
  0
VERTEX
  8
bark
 10
0.0
 20
0.0
 30
0.0
 70
   128
 71
   28
 72
   29
 73
   49
  0
VERTEX
  8
bark
 10
0.0
 20
0.0
 30
0.0
 70
   128
 71
   29
 72
   30
 73
   50
  0
VERTEX
  8
bark
 10
0.0
 20
0.0
 30
0.0
 70
   128
 71
   30
 72
   21
 73
   41
  0
VERTEX
  8
bark
 10
0.0
 20
0.0
 30
0.0
 70
   128
 71
   181
 72
   194
 73
   191
  0
VERTEX
  8
bark
 10
0.0
 20
0.0
 30
0.0
 70
   128
 71
   194
 72
   195
 73
   192
  0
VERTEX
  8
bark
 10
0.0
 20
0.0
 30
0.0
 70
   128
 71
   195
 72
   196
 73
   193
  0
VERTEX
  8
bark
 10
0.0
 20
0.0
 30
0.0
 70
   128
 71
   196
 72
   179
 73
   182
  0
VERTEX
  8
bark
 10
0.0
 20
0.0
 30
0.0
 70
   128
 71
   185
 72
   186
 73
   198
  0
VERTEX
  8
bark
 10
0.0
 20
0.0
 30
0.0
 70
   128
 71
   186
 72
   187
 73
   199
  0
VERTEX
  8
bark
 10
0.0
 20
0.0
 30
0.0
 70
   128
 71
   187
 72
   188
 73
   200
  0
VERTEX
  8
bark
 10
0.0
 20
0.0
 30
0.0
 70
   128
 71
   188
 72
   189
 73
   201
  0
VERTEX
  8
bark
 10
0.0
 20
0.0
 30
0.0
 70
   128
 71
   189
 72
   190
 73
   202
  0
VERTEX
  8
bark
 10
0.0
 20
0.0
 30
0.0
 70
   128
 71
   190
 72
   185
 73
   197
  0
VERTEX
  8
bark
 10
0.0
 20
0.0
 30
0.0
 70
   128
 71
   41
 72
   42
 73
   62
  0
VERTEX
  8
bark
 10
0.0
 20
0.0
 30
0.0
 70
   128
 71
   42
 72
   43
 73
   63
  0
VERTEX
  8
bark
 10
0.0
 20
0.0
 30
0.0
 70
   128
 71
   43
 72
   44
 73
   64
  0
VERTEX
  8
bark
 10
0.0
 20
0.0
 30
0.0
 70
   128
 71
   44
 72
   45
 73
   65
  0
VERTEX
  8
bark
 10
0.0
 20
0.0
 30
0.0
 70
   128
 71
   45
 72
   46
 73
   66
  0
VERTEX
  8
bark
 10
0.0
 20
0.0
 30
0.0
 70
   128
 71
   46
 72
   47
 73
   67
  0
VERTEX
  8
bark
 10
0.0
 20
0.0
 30
0.0
 70
   128
 71
   47
 72
   48
 73
   68
  0
VERTEX
  8
bark
 10
0.0
 20
0.0
 30
0.0
 70
   128
 71
   48
 72
   49
 73
   69
  0
VERTEX
  8
bark
 10
0.0
 20
0.0
 30
0.0
 70
   128
 71
   49
 72
   50
 73
   70
  0
VERTEX
  8
bark
 10
0.0
 20
0.0
 30
0.0
 70
   128
 71
   50
 72
   41
 73
   61
  0
VERTEX
  8
bark
 10
0.0
 20
0.0
 30
0.0
 70
   128
 71
   91
 72
   92
 73
   54
  0
VERTEX
  8
bark
 10
0.0
 20
0.0
 30
0.0
 70
   128
 71
   92
 72
   87
 73
   99
  0
VERTEX
  8
bark
 10
0.0
 20
0.0
 30
0.0
 70
   128
 71
   87
 72
   88
 73
   100
  0
VERTEX
  8
bark
 10
0.0
 20
0.0
 30
0.0
 70
   128
 71
   88
 72
   89
 73
   51
  0
VERTEX
  8
bark
 10
0.0
 20
0.0
 30
0.0
 70
   128
 71
   89
 72
   90
 73
   52
  0
VERTEX
  8
bark
 10
0.0
 20
0.0
 30
0.0
 70
   128
 71
   90
 72
   91
 73
   53
  0
VERTEX
  8
bark
 10
0.0
 20
0.0
 30
0.0
 70
   128
 71
   183
 72
   16
 73
   182
  0
VERTEX
  8
bark
 10
0.0
 20
0.0
 30
0.0
 70
   128
 71
   184
 72
   16
 73
   183
  0
VERTEX
  8
bark
 10
0.0
 20
0.0
 30
0.0
 70
   128
 71
   191
 72
   16
 73
   184
  0
VERTEX
  8
bark
 10
0.0
 20
0.0
 30
0.0
 70
   128
 71
   192
 72
   16
 73
   191
  0
VERTEX
  8
bark
 10
0.0
 20
0.0
 30
0.0
 70
   128
 71
   61
 72
   62
 73
   72
  0
VERTEX
  8
bark
 10
0.0
 20
0.0
 30
0.0
 70
   128
 71
   62
 72
   63
 73
   73
  0
VERTEX
  8
bark
 10
0.0
 20
0.0
 30
0.0
 70
   128
 71
   63
 72
   64
 73
   74
  0
VERTEX
  8
bark
 10
0.0
 20
0.0
 30
0.0
 70
   128
 71
   64
 72
   65
 73
   75
  0
VERTEX
  8
bark
 10
0.0
 20
0.0
 30
0.0
 70
   128
 71
   65
 72
   66
 73
   76
  0
VERTEX
  8
bark
 10
0.0
 20
0.0
 30
0.0
 70
   128
 71
   66
 72
   67
 73
   77
  0
VERTEX
  8
bark
 10
0.0
 20
0.0
 30
0.0
 70
   128
 71
   67
 72
   68
 73
   78
  0
VERTEX
  8
bark
 10
0.0
 20
0.0
 30
0.0
 70
   128
 71
   68
 72
   69
 73
   79
  0
VERTEX
  8
bark
 10
0.0
 20
0.0
 30
0.0
 70
   128
 71
   69
 72
   70
 73
   80
  0
VERTEX
  8
bark
 10
0.0
 20
0.0
 30
0.0
 70
   128
 71
   70
 72
   61
 73
   71
  0
VERTEX
  8
bark
 10
0.0
 20
0.0
 30
0.0
 70
   128
 71
   71
 72
   72
 73
   102
  0
VERTEX
  8
bark
 10
0.0
 20
0.0
 30
0.0
 70
   128
 71
   72
 72
   73
 73
   103
  0
VERTEX
  8
bark
 10
0.0
 20
0.0
 30
0.0
 70
   128
 71
   73
 72
   74
 73
   104
  0
VERTEX
  8
bark
 10
0.0
 20
0.0
 30
0.0
 70
   128
 71
   74
 72
   75
 73
   105
  0
VERTEX
  8
bark
 10
0.0
 20
0.0
 30
0.0
 70
   128
 71
   75
 72
   76
 73
   106
  0
VERTEX
  8
bark
 10
0.0
 20
0.0
 30
0.0
 70
   128
 71
   76
 72
   77
 73
   107
  0
VERTEX
  8
bark
 10
0.0
 20
0.0
 30
0.0
 70
   128
 71
   77
 72
   78
 73
   108
  0
VERTEX
  8
bark
 10
0.0
 20
0.0
 30
0.0
 70
   128
 71
   78
 72
   79
 73
   109
  0
VERTEX
  8
bark
 10
0.0
 20
0.0
 30
0.0
 70
   128
 71
   79
 72
   80
 73
   110
  0
VERTEX
  8
bark
 10
0.0
 20
0.0
 30
0.0
 70
   128
 71
   80
 72
   71
 73
   101
  0
VERTEX
  8
bark
 10
0.0
 20
0.0
 30
0.0
 70
   128
 71
   144
 72
   153
 73
   143
  0
VERTEX
  8
bark
 10
0.0
 20
0.0
 30
0.0
 70
   128
 71
   145
 72
   153
 73
   144
  0
VERTEX
  8
bark
 10
0.0
 20
0.0
 30
0.0
 70
   128
 71
   146
 72
   153
 73
   145
  0
VERTEX
  8
bark
 10
0.0
 20
0.0
 30
0.0
 70
   128
 71
   141
 72
   153
 73
   146
  0
VERTEX
  8
bark
 10
0.0
 20
0.0
 30
0.0
 70
   128
 71
   154
 72
   155
 73
   88
  0
VERTEX
  8
bark
 10
0.0
 20
0.0
 30
0.0
 70
   128
 71
   155
 72
   156
 73
   89
  0
VERTEX
  8
bark
 10
0.0
 20
0.0
 30
0.0
 70
   128
 71
   156
 72
   157
 73
   90
  0
VERTEX
  8
bark
 10
0.0
 20
0.0
 30
0.0
 70
   128
 71
   157
 72
   158
 73
   91
  0
VERTEX
  8
bark
 10
0.0
 20
0.0
 30
0.0
 70
   128
 71
   158
 72
   159
 73
   92
  0
VERTEX
  8
bark
 10
0.0
 20
0.0
 30
0.0
 70
   128
 71
   159
 72
   154
 73
   87
  0
VERTEX
  8
bark
 10
0.0
 20
0.0
 30
0.0
 70
   128
 71
   193
 72
   16
 73
   192
  0
VERTEX
  8
bark
 10
0.0
 20
0.0
 30
0.0
 70
   128
 71
   182
 72
   16
 73
   193
  0
VERTEX
  8
bark
 10
0.0
 20
0.0
 30
0.0
 70
   128
 71
   33
 72
   34
 73
   56
  0
VERTEX
  8
bark
 10
0.0
 20
0.0
 30
0.0
 70
   128
 71
   34
 72
   35
 73
   57
  0
VERTEX
  8
bark
 10
0.0
 20
0.0
 30
0.0
 70
   128
 71
   35
 72
   36
 73
   58
  0
VERTEX
  8
bark
 10
0.0
 20
0.0
 30
0.0
 70
   128
 71
   36
 72
   37
 73
   59
  0
VERTEX
  8
bark
 10
0.0
 20
0.0
 30
0.0
 70
   128
 71
   37
 72
   38
 73
   60
  0
VERTEX
  8
bark
 10
0.0
 20
0.0
 30
0.0
 70
   128
 71
   38
 72
   33
 73
   55
  0
VERTEX
  8
bark
 10
0.0
 20
0.0
 30
0.0
 70
   128
 71
   55
 72
   56
 73
   94
  0
VERTEX
  8
bark
 10
0.0
 20
0.0
 30
0.0
 70
   128
 71
   56
 72
   57
 73
   95
  0
VERTEX
  8
bark
 10
0.0
 20
0.0
 30
0.0
 70
   128
 71
   1
 72
   2
 73
   5
  0
VERTEX
  8
bark
 10
0.0
 20
0.0
 30
0.0
 70
   128
 71
   101
 72
   102
 73
   103
  0
VERTEX
  8
bark
 10
0.0
 20
0.0
 30
0.0
 70
   128
 71
   3
 72
   5
 73
   2
  0
VERTEX
  8
bark
 10
0.0
 20
0.0
 30
0.0
 70
   128
 71
   101
 72
   104
 73
   105
  0
VERTEX
  8
bark
 10
0.0
 20
0.0
 30
0.0
 70
   128
 71
   4
 72
   5
 73
   3
  0
VERTEX
  8
bark
 10
0.0
 20
0.0
 30
0.0
 70
   128
 71
   105
 72
   106
 73
   109
  0
VERTEX
  8
bark
 10
0.0
 20
0.0
 30
0.0
 70
   128
 71
   39
 72
   5
 73
   4
  0
VERTEX
  8
bark
 10
0.0
 20
0.0
 30
0.0
 70
   128
 71
   106
 72
   107
 73
   108
  0
VERTEX
  8
bark
 10
0.0
 20
0.0
 30
0.0
 70
   128
 71
   111
 72
   112
 73
   118
  0
VERTEX
  8
bark
 10
0.0
 20
0.0
 30
0.0
 70
   128
 71
   112
 72
   113
 73
   119
  0
VERTEX
  8
bark
 10
0.0
 20
0.0
 30
0.0
 70
   128
 71
   113
 72
   114
 73
   120
  0
VERTEX
  8
bark
 10
0.0
 20
0.0
 30
0.0
 70
   128
 71
   114
 72
   115
 73
   121
  0
VERTEX
  8
bark
 10
0.0
 20
0.0
 30
0.0
 70
   128
 71
   115
 72
   116
 73
   122
  0
VERTEX
  8
bark
 10
0.0
 20
0.0
 30
0.0
 70
   128
 71
   116
 72
   111
 73
   117
  0
VERTEX
  8
bark
 10
0.0
 20
0.0
 30
0.0
 70
   128
 71
   117
 72
   118
 73
   124
  0
VERTEX
  8
bark
 10
0.0
 20
0.0
 30
0.0
 70
   128
 71
   118
 72
   119
 73
   125
  0
VERTEX
  8
bark
 10
0.0
 20
0.0
 30
0.0
 70
   128
 71
   119
 72
   120
 73
   126
  0
VERTEX
  8
bark
 10
0.0
 20
0.0
 30
0.0
 70
   128
 71
   120
 72
   121
 73
   127
  0
VERTEX
  8
bark
 10
0.0
 20
0.0
 30
0.0
 70
   128
 71
   121
 72
   122
 73
   128
  0
VERTEX
  8
bark
 10
0.0
 20
0.0
 30
0.0
 70
   128
 71
   122
 72
   117
 73
   123
  0
VERTEX
  8
bark
 10
0.0
 20
0.0
 30
0.0
 70
   128
 71
   123
 72
   124
 73
   136
  0
VERTEX
  8
bark
 10
0.0
 20
0.0
 30
0.0
 70
   128
 71
   124
 72
   125
 73
   137
  0
VERTEX
  8
bark
 10
0.0
 20
0.0
 30
0.0
 70
   128
 71
   125
 72
   126
 73
   138
  0
VERTEX
  8
bark
 10
0.0
 20
0.0
 30
0.0
 70
   128
 71
   126
 72
   127
 73
   139
  0
VERTEX
  8
bark
 10
0.0
 20
0.0
 30
0.0
 70
   128
 71
   127
 72
   128
 73
   140
  0
VERTEX
  8
bark
 10
0.0
 20
0.0
 30
0.0
 70
   128
 71
   128
 72
   123
 73
   135
  0
VERTEX
  8
bark
 10
0.0
 20
0.0
 30
0.0
 70
   128
 71
   131
 72
   132
 73
   83
  0
VERTEX
  8
bark
 10
0.0
 20
0.0
 30
0.0
 70
   128
 71
   132
 72
   133
 73
   84
  0
VERTEX
  8
bark
 10
0.0
 20
0.0
 30
0.0
 70
   128
 71
   133
 72
   134
 73
   85
  0
VERTEX
  8
bark
 10
0.0
 20
0.0
 30
0.0
 70
   128
 71
   134
 72
   129
 73
   81
  0
VERTEX
  8
bark
 10
0.0
 20
0.0
 30
0.0
 70
   128
 71
   129
 72
   130
 73
   86
  0
VERTEX
  8
bark
 10
0.0
 20
0.0
 30
0.0
 70
   128
 71
   130
 72
   131
 73
   82
  0
VERTEX
  8
bark
 10
0.0
 20
0.0
 30
0.0
 70
   128
 71
   135
 72
   136
 73
   148
  0
VERTEX
  8
bark
 10
0.0
 20
0.0
 30
0.0
 70
   128
 71
   136
 72
   137
 73
   149
  0
VERTEX
  8
bark
 10
0.0
 20
0.0
 30
0.0
 70
   128
 71
   137
 72
   138
 73
   150
  0
VERTEX
  8
bark
 10
0.0
 20
0.0
 30
0.0
 70
   128
 71
   138
 72
   139
 73
   151
  0
VERTEX
  8
bark
 10
0.0
 20
0.0
 30
0.0
 70
   128
 71
   139
 72
   140
 73
   152
  0
VERTEX
  8
bark
 10
0.0
 20
0.0
 30
0.0
 70
   128
 71
   140
 72
   135
 73
   147
  0
VERTEX
  8
bark
 10
0.0
 20
0.0
 30
0.0
 70
   128
 71
   57
 72
   58
 73
   96
  0
VERTEX
  8
bark
 10
0.0
 20
0.0
 30
0.0
 70
   128
 71
   58
 72
   59
 73
   97
  0
VERTEX
  8
bark
 10
0.0
 20
0.0
 30
0.0
 70
   128
 71
   59
 72
   60
 73
   98
  0
VERTEX
  8
bark
 10
0.0
 20
0.0
 30
0.0
 70
   128
 71
   60
 72
   55
 73
   93
  0
VERTEX
  8
bark
 10
0.0
 20
0.0
 30
0.0
 70
   128
 71
   81
 72
   86
 73
   142
  0
VERTEX
  8
bark
 10
0.0
 20
0.0
 30
0.0
 70
   128
 71
   86
 72
   82
 73
   143
  0
VERTEX
  8
bark
 10
0.0
 20
0.0
 30
0.0
 70
   128
 71
   147
 72
   148
 73
   161
  0
VERTEX
  8
bark
 10
0.0
 20
0.0
 30
0.0
 70
   128
 71
   148
 72
   149
 73
   162
  0
VERTEX
  8
bark
 10
0.0
 20
0.0
 30
0.0
 70
   128
 71
   149
 72
   150
 73
   163
  0
VERTEX
  8
bark
 10
0.0
 20
0.0
 30
0.0
 70
   128
 71
   150
 72
   151
 73
   164
  0
VERTEX
  8
bark
 10
0.0
 20
0.0
 30
0.0
 70
   128
 71
   151
 72
   152
 73
   165
  0
VERTEX
  8
bark
 10
0.0
 20
0.0
 30
0.0
 70
   128
 71
   152
 72
   147
 73
   160
  0
VERTEX
  8
bark
 10
0.0
 20
0.0
 30
0.0
 70
   128
 71
   82
 72
   83
 73
   144
  0
VERTEX
  8
bark
 10
0.0
 20
0.0
 30
0.0
 70
   128
 71
   83
 72
   84
 73
   145
  0
VERTEX
  8
bark
 10
0.0
 20
0.0
 30
0.0
 70
   128
 71
   84
 72
   85
 73
   146
  0
VERTEX
  8
bark
 10
0.0
 20
0.0
 30
0.0
 70
   128
 71
   85
 72
   81
 73
   141
  0
VERTEX
  8
bark
 10
0.0
 20
0.0
 30
0.0
 70
   128
 71
   93
 72
   94
 73
   130
  0
VERTEX
  8
bark
 10
0.0
 20
0.0
 30
0.0
 70
   128
 71
   94
 72
   95
 73
   131
  0
VERTEX
  8
bark
 10
0.0
 20
0.0
 30
0.0
 70
   128
 71
   95
 72
   96
 73
   132
  0
VERTEX
  8
bark
 10
0.0
 20
0.0
 30
0.0
 70
   128
 71
   96
 72
   97
 73
   133
  0
VERTEX
  8
bark
 10
0.0
 20
0.0
 30
0.0
 70
   128
 71
   97
 72
   98
 73
   134
  0
VERTEX
  8
bark
 10
0.0
 20
0.0
 30
0.0
 70
   128
 71
   98
 72
   93
 73
   129
  0
VERTEX
  8
bark
 10
0.0
 20
0.0
 30
0.0
 70
   128
 71
   142
 72
   153
 73
   141
  0
VERTEX
  8
bark
 10
0.0
 20
0.0
 30
0.0
 70
   128
 71
   143
 72
   153
 73
   142
  0
VERTEX
  8
bark
 10
0.0
 20
0.0
 30
0.0
 70
   128
 71
   161
 72
   166
 73
   160
  0
VERTEX
  8
bark
 10
0.0
 20
0.0
 30
0.0
 70
   128
 71
   162
 72
   166
 73
   161
  0
VERTEX
  8
bark
 10
0.0
 20
0.0
 30
0.0
 70
   128
 71
   163
 72
   166
 73
   162
  0
VERTEX
  8
bark
 10
0.0
 20
0.0
 30
0.0
 70
   128
 71
   164
 72
   166
 73
   163
  0
VERTEX
  8
bark
 10
0.0
 20
0.0
 30
0.0
 70
   128
 71
   165
 72
   166
 73
   164
  0
VERTEX
  8
bark
 10
0.0
 20
0.0
 30
0.0
 70
   128
 71
   160
 72
   166
 73
   165
  0
VERTEX
  8
bark
 10
0.0
 20
0.0
 30
0.0
 70
   128
 71
   167
 72
   168
 73
   174
  0
VERTEX
  8
bark
 10
0.0
 20
0.0
 30
0.0
 70
   128
 71
   168
 72
   169
 73
   175
  0
VERTEX
  8
bark
 10
0.0
 20
0.0
 30
0.0
 70
   128
 71
   169
 72
   170
 73
   176
  0
VERTEX
  8
bark
 10
0.0
 20
0.0
 30
0.0
 70
   128
 71
   170
 72
   171
 73
   177
  0
VERTEX
  8
bark
 10
0.0
 20
0.0
 30
0.0
 70
   128
 71
   171
 72
   172
 73
   178
  0
VERTEX
  8
bark
 10
0.0
 20
0.0
 30
0.0
 70
   128
 71
   172
 72
   167
 73
   173
  0
VERTEX
  8
bark
 10
0.0
 20
0.0
 30
0.0
 70
   128
 71
   173
 72
   174
 73
   186
  0
VERTEX
  8
bark
 10
0.0
 20
0.0
 30
0.0
 70
   128
 71
   174
 72
   175
 73
   187
  0
VERTEX
  8
bark
 10
0.0
 20
0.0
 30
0.0
 70
   128
 71
   175
 72
   176
 73
   188
  0
VERTEX
  8
bark
 10
0.0
 20
0.0
 30
0.0
 70
   128
 71
   176
 72
   177
 73
   189
  0
VERTEX
  8
bark
 10
0.0
 20
0.0
 30
0.0
 70
   128
 71
   177
 72
   178
 73
   190
  0
VERTEX
  8
bark
 10
0.0
 20
0.0
 30
0.0
 70
   128
 71
   178
 72
   173
 73
   185
  0
VERTEX
  8
bark
 10
0.0
 20
0.0
 30
0.0
 70
   128
 71
   197
 72
   198
 73
   180
  0
VERTEX
  8
bark
 10
0.0
 20
0.0
 30
0.0
 70
   128
 71
   198
 72
   199
 73
   181
  0
VERTEX
  8
bark
 10
0.0
 20
0.0
 30
0.0
 70
   128
 71
   31
 72
   4
 73
   3
  0
VERTEX
  8
bark
 10
0.0
 20
0.0
 30
0.0
 70
   128
 71
   32
 72
   39
 73
   4
  0
VERTEX
  8
bark
 10
0.0
 20
0.0
 30
0.0
 70
   128
 71
   17
 72
   40
 73
   39
  0
VERTEX
  8
bark
 10
0.0
 20
0.0
 30
0.0
 70
   128
 71
   18
 72
   1
 73
   40
  0
VERTEX
  8
bark
 10
0.0
 20
0.0
 30
0.0
 70
   128
 71
   19
 72
   2
 73
   1
  0
VERTEX
  8
bark
 10
0.0
 20
0.0
 30
0.0
 70
   128
 71
   20
 72
   3
 73
   2
  0
VERTEX
  8
bark
 10
0.0
 20
0.0
 30
0.0
 70
   128
 71
   199
 72
   194
 73
   181
  0
VERTEX
  8
bark
 10
0.0
 20
0.0
 30
0.0
 70
   128
 71
   200
 72
   195
 73
   194
  0
VERTEX
  8
bark
 10
0.0
 20
0.0
 30
0.0
 70
   128
 71
   6
 72
   22
 73
   21
  0
VERTEX
  8
bark
 10
0.0
 20
0.0
 30
0.0
 70
   128
 71
   7
 72
   23
 73
   22
  0
VERTEX
  8
bark
 10
0.0
 20
0.0
 30
0.0
 70
   128
 71
   8
 72
   24
 73
   23
  0
VERTEX
  8
bark
 10
0.0
 20
0.0
 30
0.0
 70
   128
 71
   9
 72
   25
 73
   24
  0
VERTEX
  8
bark
 10
0.0
 20
0.0
 30
0.0
 70
   128
 71
   10
 72
   26
 73
   25
  0
VERTEX
  8
bark
 10
0.0
 20
0.0
 30
0.0
 70
   128
 71
   11
 72
   27
 73
   26
  0
VERTEX
  8
bark
 10
0.0
 20
0.0
 30
0.0
 70
   128
 71
   12
 72
   28
 73
   27
  0
VERTEX
  8
bark
 10
0.0
 20
0.0
 30
0.0
 70
   128
 71
   13
 72
   29
 73
   28
  0
VERTEX
  8
bark
 10
0.0
 20
0.0
 30
0.0
 70
   128
 71
   14
 72
   30
 73
   29
  0
VERTEX
  8
bark
 10
0.0
 20
0.0
 30
0.0
 70
   128
 71
   15
 72
   21
 73
   30
  0
VERTEX
  8
bark
 10
0.0
 20
0.0
 30
0.0
 70
   128
 71
   51
 72
   20
 73
   19
  0
VERTEX
  8
bark
 10
0.0
 20
0.0
 30
0.0
 70
   128
 71
   52
 72
   31
 73
   20
  0
VERTEX
  8
bark
 10
0.0
 20
0.0
 30
0.0
 70
   128
 71
   53
 72
   32
 73
   31
  0
VERTEX
  8
bark
 10
0.0
 20
0.0
 30
0.0
 70
   128
 71
   54
 72
   17
 73
   32
  0
VERTEX
  8
bark
 10
0.0
 20
0.0
 30
0.0
 70
   128
 71
   99
 72
   18
 73
   17
  0
VERTEX
  8
bark
 10
0.0
 20
0.0
 30
0.0
 70
   128
 71
   100
 72
   19
 73
   18
  0
VERTEX
  8
bark
 10
0.0
 20
0.0
 30
0.0
 70
   128
 71
   201
 72
   196
 73
   195
  0
VERTEX
  8
bark
 10
0.0
 20
0.0
 30
0.0
 70
   128
 71
   202
 72
   179
 73
   196
  0
VERTEX
  8
bark
 10
0.0
 20
0.0
 30
0.0
 70
   128
 71
   179
 72
   183
 73
   182
  0
VERTEX
  8
bark
 10
0.0
 20
0.0
 30
0.0
 70
   128
 71
   180
 72
   184
 73
   183
  0
VERTEX
  8
bark
 10
0.0
 20
0.0
 30
0.0
 70
   128
 71
   21
 72
   42
 73
   41
  0
VERTEX
  8
bark
 10
0.0
 20
0.0
 30
0.0
 70
   128
 71
   22
 72
   43
 73
   42
  0
VERTEX
  8
bark
 10
0.0
 20
0.0
 30
0.0
 70
   128
 71
   23
 72
   44
 73
   43
  0
VERTEX
  8
bark
 10
0.0
 20
0.0
 30
0.0
 70
   128
 71
   24
 72
   45
 73
   44
  0
VERTEX
  8
bark
 10
0.0
 20
0.0
 30
0.0
 70
   128
 71
   25
 72
   46
 73
   45
  0
VERTEX
  8
bark
 10
0.0
 20
0.0
 30
0.0
 70
   128
 71
   26
 72
   47
 73
   46
  0
VERTEX
  8
bark
 10
0.0
 20
0.0
 30
0.0
 70
   128
 71
   27
 72
   48
 73
   47
  0
VERTEX
  8
bark
 10
0.0
 20
0.0
 30
0.0
 70
   128
 71
   28
 72
   49
 73
   48
  0
VERTEX
  8
bark
 10
0.0
 20
0.0
 30
0.0
 70
   128
 71
   29
 72
   50
 73
   49
  0
VERTEX
  8
bark
 10
0.0
 20
0.0
 30
0.0
 70
   128
 71
   30
 72
   41
 73
   50
  0
VERTEX
  8
bark
 10
0.0
 20
0.0
 30
0.0
 70
   128
 71
   181
 72
   191
 73
   184
  0
VERTEX
  8
bark
 10
0.0
 20
0.0
 30
0.0
 70
   128
 71
   194
 72
   192
 73
   191
  0
VERTEX
  8
bark
 10
0.0
 20
0.0
 30
0.0
 70
   128
 71
   195
 72
   193
 73
   192
  0
VERTEX
  8
bark
 10
0.0
 20
0.0
 30
0.0
 70
   128
 71
   196
 72
   182
 73
   193
  0
VERTEX
  8
bark
 10
0.0
 20
0.0
 30
0.0
 70
   128
 71
   185
 72
   198
 73
   197
  0
VERTEX
  8
bark
 10
0.0
 20
0.0
 30
0.0
 70
   128
 71
   186
 72
   199
 73
   198
  0
VERTEX
  8
bark
 10
0.0
 20
0.0
 30
0.0
 70
   128
 71
   187
 72
   200
 73
   199
  0
VERTEX
  8
bark
 10
0.0
 20
0.0
 30
0.0
 70
   128
 71
   188
 72
   201
 73
   200
  0
VERTEX
  8
bark
 10
0.0
 20
0.0
 30
0.0
 70
   128
 71
   189
 72
   202
 73
   201
  0
VERTEX
  8
bark
 10
0.0
 20
0.0
 30
0.0
 70
   128
 71
   190
 72
   197
 73
   202
  0
VERTEX
  8
bark
 10
0.0
 20
0.0
 30
0.0
 70
   128
 71
   41
 72
   62
 73
   61
  0
VERTEX
  8
bark
 10
0.0
 20
0.0
 30
0.0
 70
   128
 71
   42
 72
   63
 73
   62
  0
VERTEX
  8
bark
 10
0.0
 20
0.0
 30
0.0
 70
   128
 71
   43
 72
   64
 73
   63
  0
VERTEX
  8
bark
 10
0.0
 20
0.0
 30
0.0
 70
   128
 71
   44
 72
   65
 73
   64
  0
VERTEX
  8
bark
 10
0.0
 20
0.0
 30
0.0
 70
   128
 71
   45
 72
   66
 73
   65
  0
VERTEX
  8
bark
 10
0.0
 20
0.0
 30
0.0
 70
   128
 71
   46
 72
   67
 73
   66
  0
VERTEX
  8
bark
 10
0.0
 20
0.0
 30
0.0
 70
   128
 71
   47
 72
   68
 73
   67
  0
VERTEX
  8
bark
 10
0.0
 20
0.0
 30
0.0
 70
   128
 71
   48
 72
   69
 73
   68
  0
VERTEX
  8
bark
 10
0.0
 20
0.0
 30
0.0
 70
   128
 71
   49
 72
   70
 73
   69
  0
VERTEX
  8
bark
 10
0.0
 20
0.0
 30
0.0
 70
   128
 71
   50
 72
   61
 73
   70
  0
VERTEX
  8
bark
 10
0.0
 20
0.0
 30
0.0
 70
   128
 71
   91
 72
   54
 73
   53
  0
VERTEX
  8
bark
 10
0.0
 20
0.0
 30
0.0
 70
   128
 71
   92
 72
   99
 73
   54
  0
VERTEX
  8
bark
 10
0.0
 20
0.0
 30
0.0
 70
   128
 71
   87
 72
   100
 73
   99
  0
VERTEX
  8
bark
 10
0.0
 20
0.0
 30
0.0
 70
   128
 71
   88
 72
   51
 73
   100
  0
VERTEX
  8
bark
 10
0.0
 20
0.0
 30
0.0
 70
   128
 71
   89
 72
   52
 73
   51
  0
VERTEX
  8
bark
 10
0.0
 20
0.0
 30
0.0
 70
   128
 71
   90
 72
   53
 73
   52
  0
VERTEX
  8
bark
 10
0.0
 20
0.0
 30
0.0
 70
   128
 71
   61
 72
   72
 73
   71
  0
VERTEX
  8
bark
 10
0.0
 20
0.0
 30
0.0
 70
   128
 71
   62
 72
   73
 73
   72
  0
VERTEX
  8
bark
 10
0.0
 20
0.0
 30
0.0
 70
   128
 71
   63
 72
   74
 73
   73
  0
VERTEX
  8
bark
 10
0.0
 20
0.0
 30
0.0
 70
   128
 71
   64
 72
   75
 73
   74
  0
VERTEX
  8
bark
 10
0.0
 20
0.0
 30
0.0
 70
   128
 71
   65
 72
   76
 73
   75
  0
VERTEX
  8
bark
 10
0.0
 20
0.0
 30
0.0
 70
   128
 71
   66
 72
   77
 73
   76
  0
VERTEX
  8
bark
 10
0.0
 20
0.0
 30
0.0
 70
   128
 71
   67
 72
   78
 73
   77
  0
VERTEX
  8
bark
 10
0.0
 20
0.0
 30
0.0
 70
   128
 71
   68
 72
   79
 73
   78
  0
VERTEX
  8
bark
 10
0.0
 20
0.0
 30
0.0
 70
   128
 71
   69
 72
   80
 73
   79
  0
VERTEX
  8
bark
 10
0.0
 20
0.0
 30
0.0
 70
   128
 71
   70
 72
   71
 73
   80
  0
VERTEX
  8
bark
 10
0.0
 20
0.0
 30
0.0
 70
   128
 71
   71
 72
   102
 73
   101
  0
VERTEX
  8
bark
 10
0.0
 20
0.0
 30
0.0
 70
   128
 71
   72
 72
   103
 73
   102
  0
VERTEX
  8
bark
 10
0.0
 20
0.0
 30
0.0
 70
   128
 71
   73
 72
   104
 73
   103
  0
VERTEX
  8
bark
 10
0.0
 20
0.0
 30
0.0
 70
   128
 71
   74
 72
   105
 73
   104
  0
VERTEX
  8
bark
 10
0.0
 20
0.0
 30
0.0
 70
   128
 71
   75
 72
   106
 73
   105
  0
VERTEX
  8
bark
 10
0.0
 20
0.0
 30
0.0
 70
   128
 71
   76
 72
   107
 73
   106
  0
VERTEX
  8
bark
 10
0.0
 20
0.0
 30
0.0
 70
   128
 71
   77
 72
   108
 73
   107
  0
VERTEX
  8
bark
 10
0.0
 20
0.0
 30
0.0
 70
   128
 71
   78
 72
   109
 73
   108
  0
VERTEX
  8
bark
 10
0.0
 20
0.0
 30
0.0
 70
   128
 71
   79
 72
   110
 73
   109
  0
VERTEX
  8
bark
 10
0.0
 20
0.0
 30
0.0
 70
   128
 71
   80
 72
   101
 73
   110
  0
VERTEX
  8
bark
 10
0.0
 20
0.0
 30
0.0
 70
   128
 71
   154
 72
   88
 73
   87
  0
VERTEX
  8
bark
 10
0.0
 20
0.0
 30
0.0
 70
   128
 71
   155
 72
   89
 73
   88
  0
VERTEX
  8
bark
 10
0.0
 20
0.0
 30
0.0
 70
   128
 71
   156
 72
   90
 73
   89
  0
VERTEX
  8
bark
 10
0.0
 20
0.0
 30
0.0
 70
   128
 71
   157
 72
   91
 73
   90
  0
VERTEX
  8
bark
 10
0.0
 20
0.0
 30
0.0
 70
   128
 71
   158
 72
   92
 73
   91
  0
VERTEX
  8
bark
 10
0.0
 20
0.0
 30
0.0
 70
   128
 71
   159
 72
   87
 73
   92
  0
VERTEX
  8
bark
 10
0.0
 20
0.0
 30
0.0
 70
   128
 71
   33
 72
   56
 73
   55
  0
VERTEX
  8
bark
 10
0.0
 20
0.0
 30
0.0
 70
   128
 71
   34
 72
   57
 73
   56
  0
VERTEX
  8
bark
 10
0.0
 20
0.0
 30
0.0
 70
   128
 71
   35
 72
   58
 73
   57
  0
VERTEX
  8
bark
 10
0.0
 20
0.0
 30
0.0
 70
   128
 71
   36
 72
   59
 73
   58
  0
VERTEX
  8
bark
 10
0.0
 20
0.0
 30
0.0
 70
   128
 71
   37
 72
   60
 73
   59
  0
VERTEX
  8
bark
 10
0.0
 20
0.0
 30
0.0
 70
   128
 71
   38
 72
   55
 73
   60
  0
VERTEX
  8
bark
 10
0.0
 20
0.0
 30
0.0
 70
   128
 71
   55
 72
   94
 73
   93
  0
VERTEX
  8
bark
 10
0.0
 20
0.0
 30
0.0
 70
   128
 71
   56
 72
   95
 73
   94
  0
VERTEX
  8
bark
 10
0.0
 20
0.0
 30
0.0
 70
   128
 71
   101
 72
   103
 73
   104
  0
VERTEX
  8
bark
 10
0.0
 20
0.0
 30
0.0
 70
   128
 71
   101
 72
   105
 73
   110
  0
VERTEX
  8
bark
 10
0.0
 20
0.0
 30
0.0
 70
   128
 71
   105
 72
   109
 73
   110
  0
VERTEX
  8
bark
 10
0.0
 20
0.0
 30
0.0
 70
   128
 71
   106
 72
   108
 73
   109
  0
VERTEX
  8
bark
 10
0.0
 20
0.0
 30
0.0
 70
   128
 71
   111
 72
   118
 73
   117
  0
VERTEX
  8
bark
 10
0.0
 20
0.0
 30
0.0
 70
   128
 71
   112
 72
   119
 73
   118
  0
VERTEX
  8
bark
 10
0.0
 20
0.0
 30
0.0
 70
   128
 71
   113
 72
   120
 73
   119
  0
VERTEX
  8
bark
 10
0.0
 20
0.0
 30
0.0
 70
   128
 71
   114
 72
   121
 73
   120
  0
VERTEX
  8
bark
 10
0.0
 20
0.0
 30
0.0
 70
   128
 71
   115
 72
   122
 73
   121
  0
VERTEX
  8
bark
 10
0.0
 20
0.0
 30
0.0
 70
   128
 71
   116
 72
   117
 73
   122
  0
VERTEX
  8
bark
 10
0.0
 20
0.0
 30
0.0
 70
   128
 71
   117
 72
   124
 73
   123
  0
VERTEX
  8
bark
 10
0.0
 20
0.0
 30
0.0
 70
   128
 71
   118
 72
   125
 73
   124
  0
VERTEX
  8
bark
 10
0.0
 20
0.0
 30
0.0
 70
   128
 71
   119
 72
   126
 73
   125
  0
VERTEX
  8
bark
 10
0.0
 20
0.0
 30
0.0
 70
   128
 71
   120
 72
   127
 73
   126
  0
VERTEX
  8
bark
 10
0.0
 20
0.0
 30
0.0
 70
   128
 71
   121
 72
   128
 73
   127
  0
VERTEX
  8
bark
 10
0.0
 20
0.0
 30
0.0
 70
   128
 71
   122
 72
   123
 73
   128
  0
VERTEX
  8
bark
 10
0.0
 20
0.0
 30
0.0
 70
   128
 71
   123
 72
   136
 73
   135
  0
VERTEX
  8
bark
 10
0.0
 20
0.0
 30
0.0
 70
   128
 71
   124
 72
   137
 73
   136
  0
VERTEX
  8
bark
 10
0.0
 20
0.0
 30
0.0
 70
   128
 71
   125
 72
   138
 73
   137
  0
VERTEX
  8
bark
 10
0.0
 20
0.0
 30
0.0
 70
   128
 71
   126
 72
   139
 73
   138
  0
VERTEX
  8
bark
 10
0.0
 20
0.0
 30
0.0
 70
   128
 71
   127
 72
   140
 73
   139
  0
VERTEX
  8
bark
 10
0.0
 20
0.0
 30
0.0
 70
   128
 71
   128
 72
   135
 73
   140
  0
VERTEX
  8
bark
 10
0.0
 20
0.0
 30
0.0
 70
   128
 71
   131
 72
   83
 73
   82
  0
VERTEX
  8
bark
 10
0.0
 20
0.0
 30
0.0
 70
   128
 71
   132
 72
   84
 73
   83
  0
VERTEX
  8
bark
 10
0.0
 20
0.0
 30
0.0
 70
   128
 71
   133
 72
   85
 73
   84
  0
VERTEX
  8
bark
 10
0.0
 20
0.0
 30
0.0
 70
   128
 71
   134
 72
   81
 73
   85
  0
VERTEX
  8
bark
 10
0.0
 20
0.0
 30
0.0
 70
   128
 71
   129
 72
   86
 73
   81
  0
VERTEX
  8
bark
 10
0.0
 20
0.0
 30
0.0
 70
   128
 71
   130
 72
   82
 73
   86
  0
VERTEX
  8
bark
 10
0.0
 20
0.0
 30
0.0
 70
   128
 71
   135
 72
   148
 73
   147
  0
VERTEX
  8
bark
 10
0.0
 20
0.0
 30
0.0
 70
   128
 71
   136
 72
   149
 73
   148
  0
VERTEX
  8
bark
 10
0.0
 20
0.0
 30
0.0
 70
   128
 71
   137
 72
   150
 73
   149
  0
VERTEX
  8
bark
 10
0.0
 20
0.0
 30
0.0
 70
   128
 71
   138
 72
   151
 73
   150
  0
VERTEX
  8
bark
 10
0.0
 20
0.0
 30
0.0
 70
   128
 71
   139
 72
   152
 73
   151
  0
VERTEX
  8
bark
 10
0.0
 20
0.0
 30
0.0
 70
   128
 71
   140
 72
   147
 73
   152
  0
VERTEX
  8
bark
 10
0.0
 20
0.0
 30
0.0
 70
   128
 71
   57
 72
   96
 73
   95
  0
VERTEX
  8
bark
 10
0.0
 20
0.0
 30
0.0
 70
   128
 71
   58
 72
   97
 73
   96
  0
VERTEX
  8
bark
 10
0.0
 20
0.0
 30
0.0
 70
   128
 71
   59
 72
   98
 73
   97
  0
VERTEX
  8
bark
 10
0.0
 20
0.0
 30
0.0
 70
   128
 71
   60
 72
   93
 73
   98
  0
VERTEX
  8
bark
 10
0.0
 20
0.0
 30
0.0
 70
   128
 71
   81
 72
   142
 73
   141
  0
VERTEX
  8
bark
 10
0.0
 20
0.0
 30
0.0
 70
   128
 71
   86
 72
   143
 73
   142
  0
VERTEX
  8
bark
 10
0.0
 20
0.0
 30
0.0
 70
   128
 71
   147
 72
   161
 73
   160
  0
VERTEX
  8
bark
 10
0.0
 20
0.0
 30
0.0
 70
   128
 71
   148
 72
   162
 73
   161
  0
VERTEX
  8
bark
 10
0.0
 20
0.0
 30
0.0
 70
   128
 71
   149
 72
   163
 73
   162
  0
VERTEX
  8
bark
 10
0.0
 20
0.0
 30
0.0
 70
   128
 71
   150
 72
   164
 73
   163
  0
VERTEX
  8
bark
 10
0.0
 20
0.0
 30
0.0
 70
   128
 71
   151
 72
   165
 73
   164
  0
VERTEX
  8
bark
 10
0.0
 20
0.0
 30
0.0
 70
   128
 71
   152
 72
   160
 73
   165
  0
VERTEX
  8
bark
 10
0.0
 20
0.0
 30
0.0
 70
   128
 71
   82
 72
   144
 73
   143
  0
VERTEX
  8
bark
 10
0.0
 20
0.0
 30
0.0
 70
   128
 71
   83
 72
   145
 73
   144
  0
VERTEX
  8
bark
 10
0.0
 20
0.0
 30
0.0
 70
   128
 71
   84
 72
   146
 73
   145
  0
VERTEX
  8
bark
 10
0.0
 20
0.0
 30
0.0
 70
   128
 71
   85
 72
   141
 73
   146
  0
VERTEX
  8
bark
 10
0.0
 20
0.0
 30
0.0
 70
   128
 71
   93
 72
   130
 73
   129
  0
VERTEX
  8
bark
 10
0.0
 20
0.0
 30
0.0
 70
   128
 71
   94
 72
   131
 73
   130
  0
VERTEX
  8
bark
 10
0.0
 20
0.0
 30
0.0
 70
   128
 71
   95
 72
   132
 73
   131
  0
VERTEX
  8
bark
 10
0.0
 20
0.0
 30
0.0
 70
   128
 71
   96
 72
   133
 73
   132
  0
VERTEX
  8
bark
 10
0.0
 20
0.0
 30
0.0
 70
   128
 71
   97
 72
   134
 73
   133
  0
VERTEX
  8
bark
 10
0.0
 20
0.0
 30
0.0
 70
   128
 71
   98
 72
   129
 73
   134
  0
VERTEX
  8
bark
 10
0.0
 20
0.0
 30
0.0
 70
   128
 71
   167
 72
   174
 73
   173
  0
VERTEX
  8
bark
 10
0.0
 20
0.0
 30
0.0
 70
   128
 71
   168
 72
   175
 73
   174
  0
VERTEX
  8
bark
 10
0.0
 20
0.0
 30
0.0
 70
   128
 71
   169
 72
   176
 73
   175
  0
VERTEX
  8
bark
 10
0.0
 20
0.0
 30
0.0
 70
   128
 71
   170
 72
   177
 73
   176
  0
VERTEX
  8
bark
 10
0.0
 20
0.0
 30
0.0
 70
   128
 71
   171
 72
   178
 73
   177
  0
VERTEX
  8
bark
 10
0.0
 20
0.0
 30
0.0
 70
   128
 71
   172
 72
   173
 73
   178
  0
VERTEX
  8
bark
 10
0.0
 20
0.0
 30
0.0
 70
   128
 71
   173
 72
   186
 73
   185
  0
VERTEX
  8
bark
 10
0.0
 20
0.0
 30
0.0
 70
   128
 71
   174
 72
   187
 73
   186
  0
VERTEX
  8
bark
 10
0.0
 20
0.0
 30
0.0
 70
   128
 71
   175
 72
   188
 73
   187
  0
VERTEX
  8
bark
 10
0.0
 20
0.0
 30
0.0
 70
   128
 71
   176
 72
   189
 73
   188
  0
VERTEX
  8
bark
 10
0.0
 20
0.0
 30
0.0
 70
   128
 71
   177
 72
   190
 73
   189
  0
VERTEX
  8
bark
 10
0.0
 20
0.0
 30
0.0
 70
   128
 71
   178
 72
   185
 73
   190
  0
VERTEX
  8
bark
 10
0.0
 20
0.0
 30
0.0
 70
   128
 71
   197
 72
   180
 73
   179
  0
VERTEX
  8
bark
 10
0.0
 20
0.0
 30
0.0
 70
   128
 71
   198
 72
   181
 73
   180
  0
SEQEND
  0
ENDSEC
  0
EOF
