999
FBX AutoCAD (*.DXF) exporter
  0
SECTION
  2
HEADER
  9
$ACADVER
  1
AC1008
  9
$UCSORG
 10
0.0
 20
0.0
 30
0.0
  9
$UCSXDIR
 10
1.0
 20
0.0
 30
0.0
  9
$TILEMODE
 70
   1
  9
$UCSYDIR
 10
0.0
 20
1.0
 30
0.0
  0
ENDSEC
  0
SECTION
  2
TABLES
  0
TABLE
  2
LTYPE
 70
   1
  0
LTYPE
  2
CONTINUOUS
 70
   64
  3
Solid line
 72
   65
 73
   0
 40
0.0
  0
ENDTAB
  0
TABLE
  2
LAYER
 70
   1
  0
LAYER
  2
fence14
 70
   0
 62
   250
  6
CONTINUOUS
  0
ENDTAB
  0
ENDSEC
  0
SECTION
  2
BLOCKS
  0
ENDSEC
  0
SECTION
  2
ENTITIES
  0
POLYLINE
  8
fence14
 66
   1
 10
0.0
 20
0.0
 30
0.0
 70
   64
 71
   124
 72
   224
  0
VERTEX
  8
fence14
 10
-83.334836
 20
7.697941
 30
11.468802
 70
   192
  0
VERTEX
  8
fence14
 10
86.399373
 20
7.697941
 30
11.468802
 70
   192
  0
VERTEX
  8
fence14
 10
-83.334836
 20
25.807046
 30
11.468802
 70
   192
  0
VERTEX
  8
fence14
 10
86.399373
 20
25.807046
 30
11.468802
 70
   192
  0
VERTEX
  8
fence14
 10
-83.334836
 20
25.807046
 30
6.489611
 70
   192
  0
VERTEX
  8
fence14
 10
86.399373
 20
25.807046
 30
6.489611
 70
   192
  0
VERTEX
  8
fence14
 10
-83.334836
 20
7.697941
 30
6.489611
 70
   192
  0
VERTEX
  8
fence14
 10
86.399373
 20
7.697941
 30
6.489611
 70
   192
  0
VERTEX
  8
fence14
 10
-66.126120
 20
7.697941
 30
11.468802
 70
   192
  0
VERTEX
  8
fence14
 10
-66.126120
 20
25.807046
 30
11.468802
 70
   192
  0
VERTEX
  8
fence14
 10
68.217479
 20
7.697941
 30
11.468802
 70
   192
  0
VERTEX
  8
fence14
 10
68.217479
 20
25.807046
 30
11.468802
 70
   192
  0
VERTEX
  8
fence14
 10
76.126537
 20
-18.929796
 30
-2.580727
 70
   192
  0
VERTEX
  8
fence14
 10
76.126537
 20
94.041617
 30
-2.580727
 70
   192
  0
VERTEX
  8
fence14
 10
88.359172
 20
-18.929796
 30
-2.580727
 70
   192
  0
VERTEX
  8
fence14
 10
88.359172
 20
94.041617
 30
-2.580727
 70
   192
  0
VERTEX
  8
fence14
 10
86.720310
 20
-18.929796
 30
-8.697044
 70
   192
  0
VERTEX
  8
fence14
 10
86.720310
 20
94.041617
 30
-8.697044
 70
   192
  0
VERTEX
  8
fence14
 10
82.242855
 20
-18.929796
 30
-13.174500
 70
   192
  0
VERTEX
  8
fence14
 10
82.242855
 20
94.041617
 30
-13.174500
 70
   192
  0
VERTEX
  8
fence14
 10
76.126537
 20
-18.929796
 30
-14.813362
 70
   192
  0
VERTEX
  8
fence14
 10
76.126537
 20
94.041617
 30
-14.813362
 70
   192
  0
VERTEX
  8
fence14
 10
70.010220
 20
-18.929796
 30
-13.174500
 70
   192
  0
VERTEX
  8
fence14
 10
70.010220
 20
94.041617
 30
-13.174500
 70
   192
  0
VERTEX
  8
fence14
 10
65.532765
 20
-18.929796
 30
-8.697044
 70
   192
  0
VERTEX
  8
fence14
 10
65.532765
 20
94.041617
 30
-8.697044
 70
   192
  0
VERTEX
  8
fence14
 10
63.893902
 20
-18.929796
 30
-2.580727
 70
   192
  0
VERTEX
  8
fence14
 10
63.893902
 20
94.041617
 30
-2.580727
 70
   192
  0
VERTEX
  8
fence14
 10
65.532765
 20
-18.929796
 30
3.535590
 70
   192
  0
VERTEX
  8
fence14
 10
65.532765
 20
94.041617
 30
3.535590
 70
   192
  0
VERTEX
  8
fence14
 10
70.010220
 20
-18.929796
 30
8.013046
 70
   192
  0
VERTEX
  8
fence14
 10
70.010220
 20
94.041617
 30
8.013046
 70
   192
  0
VERTEX
  8
fence14
 10
76.126537
 20
-18.929796
 30
9.651908
 70
   192
  0
VERTEX
  8
fence14
 10
76.126537
 20
94.041617
 30
9.651908
 70
   192
  0
VERTEX
  8
fence14
 10
82.242855
 20
-18.929796
 30
8.013046
 70
   192
  0
VERTEX
  8
fence14
 10
82.242855
 20
94.041617
 30
8.013046
 70
   192
  0
VERTEX
  8
fence14
 10
86.720310
 20
-18.929796
 30
3.535590
 70
   192
  0
VERTEX
  8
fence14
 10
86.720310
 20
94.041617
 30
3.535590
 70
   192
  0
VERTEX
  8
fence14
 10
85.498865
 20
4.365990
 30
-0.886393
 70
   192
  0
VERTEX
  8
fence14
 10
83.860003
 20
4.365990
 30
-7.002711
 70
   192
  0
VERTEX
  8
fence14
 10
79.382547
 20
4.365990
 30
-11.480166
 70
   192
  0
VERTEX
  8
fence14
 10
73.266230
 20
4.365990
 30
-13.119028
 70
   192
  0
VERTEX
  8
fence14
 10
67.149913
 20
4.365990
 30
-11.480166
 70
   192
  0
VERTEX
  8
fence14
 10
62.672458
 20
4.365990
 30
-7.002711
 70
   192
  0
VERTEX
  8
fence14
 10
61.033595
 20
4.365990
 30
-0.886393
 70
   192
  0
VERTEX
  8
fence14
 10
62.672458
 20
4.365990
 30
5.229924
 70
   192
  0
VERTEX
  8
fence14
 10
67.149913
 20
4.365990
 30
9.707379
 70
   192
  0
VERTEX
  8
fence14
 10
73.266230
 20
4.365990
 30
11.346242
 70
   192
  0
VERTEX
  8
fence14
 10
79.382547
 20
4.365990
 30
9.707379
 70
   192
  0
VERTEX
  8
fence14
 10
83.860003
 20
4.365990
 30
5.229924
 70
   192
  0
VERTEX
  8
fence14
 10
86.684578
 20
61.630496
 30
-4.342342
 70
   192
  0
VERTEX
  8
fence14
 10
85.045715
 20
61.416065
 30
-10.458660
 70
   192
  0
VERTEX
  8
fence14
 10
80.568260
 20
60.830230
 30
-14.936115
 70
   192
  0
VERTEX
  8
fence14
 10
74.451943
 20
60.029964
 30
-16.574977
 70
   192
  0
VERTEX
  8
fence14
 10
68.335625
 20
59.229698
 30
-14.936115
 70
   192
  0
VERTEX
  8
fence14
 10
63.858170
 20
58.643863
 30
-10.458660
 70
   192
  0
VERTEX
  8
fence14
 10
62.219308
 20
58.429433
 30
-4.342342
 70
   192
  0
VERTEX
  8
fence14
 10
63.858170
 20
58.643863
 30
1.773975
 70
   192
  0
VERTEX
  8
fence14
 10
68.335625
 20
59.229698
 30
6.251430
 70
   192
  0
VERTEX
  8
fence14
 10
74.451943
 20
60.029964
 30
7.890293
 70
   192
  0
VERTEX
  8
fence14
 10
80.568260
 20
60.830230
 30
6.251430
 70
   192
  0
VERTEX
  8
fence14
 10
85.045715
 20
61.416065
 30
1.773975
 70
   192
  0
VERTEX
  8
fence14
 10
-67.549420
 20
-18.929796
 30
-2.580727
 70
   192
  0
VERTEX
  8
fence14
 10
-67.549420
 20
94.041617
 30
-2.580727
 70
   192
  0
VERTEX
  8
fence14
 10
-55.316785
 20
-18.929796
 30
-2.580727
 70
   192
  0
VERTEX
  8
fence14
 10
-55.316785
 20
94.041617
 30
-2.580727
 70
   192
  0
VERTEX
  8
fence14
 10
-56.955648
 20
-18.929796
 30
-8.697044
 70
   192
  0
VERTEX
  8
fence14
 10
-56.955648
 20
94.041617
 30
-8.697044
 70
   192
  0
VERTEX
  8
fence14
 10
-61.433103
 20
-18.929796
 30
-13.174500
 70
   192
  0
VERTEX
  8
fence14
 10
-61.433103
 20
94.041617
 30
-13.174500
 70
   192
  0
VERTEX
  8
fence14
 10
-67.549420
 20
-18.929796
 30
-14.813362
 70
   192
  0
VERTEX
  8
fence14
 10
-67.549420
 20
94.041617
 30
-14.813362
 70
   192
  0
VERTEX
  8
fence14
 10
-73.665738
 20
-18.929796
 30
-13.174500
 70
   192
  0
VERTEX
  8
fence14
 10
-73.665738
 20
94.041617
 30
-13.174500
 70
   192
  0
VERTEX
  8
fence14
 10
-78.143193
 20
-18.929796
 30
-8.697044
 70
   192
  0
VERTEX
  8
fence14
 10
-78.143193
 20
94.041617
 30
-8.697044
 70
   192
  0
VERTEX
  8
fence14
 10
-79.782055
 20
-18.929796
 30
-2.580727
 70
   192
  0
VERTEX
  8
fence14
 10
-79.782055
 20
94.041617
 30
-2.580727
 70
   192
  0
VERTEX
  8
fence14
 10
-78.143193
 20
-18.929796
 30
3.535590
 70
   192
  0
VERTEX
  8
fence14
 10
-78.143193
 20
94.041617
 30
3.535590
 70
   192
  0
VERTEX
  8
fence14
 10
-73.665738
 20
-18.929796
 30
8.013046
 70
   192
  0
VERTEX
  8
fence14
 10
-73.665738
 20
94.041617
 30
8.013046
 70
   192
  0
VERTEX
  8
fence14
 10
-67.549420
 20
-18.929796
 30
9.651908
 70
   192
  0
VERTEX
  8
fence14
 10
-67.549420
 20
94.041617
 30
9.651908
 70
   192
  0
VERTEX
  8
fence14
 10
-61.433103
 20
-18.929796
 30
8.013046
 70
   192
  0
VERTEX
  8
fence14
 10
-61.433103
 20
94.041617
 30
8.013046
 70
   192
  0
VERTEX
  8
fence14
 10
-56.955648
 20
-18.929796
 30
3.535590
 70
   192
  0
VERTEX
  8
fence14
 10
-56.955648
 20
94.041617
 30
3.535590
 70
   192
  0
VERTEX
  8
fence14
 10
-56.134940
 20
23.607834
 30
-3.436212
 70
   192
  0
VERTEX
  8
fence14
 10
-57.773803
 20
23.607834
 30
-9.552530
 70
   192
  0
VERTEX
  8
fence14
 10
-62.251258
 20
23.607834
 30
-14.029985
 70
   192
  0
VERTEX
  8
fence14
 10
-68.367575
 20
23.607834
 30
-15.668847
 70
   192
  0
VERTEX
  8
fence14
 10
-74.483893
 20
23.607834
 30
-14.029985
 70
   192
  0
VERTEX
  8
fence14
 10
-78.961348
 20
23.607834
 30
-9.552530
 70
   192
  0
VERTEX
  8
fence14
 10
-80.600210
 20
23.607834
 30
-3.436212
 70
   192
  0
VERTEX
  8
fence14
 10
-78.961348
 20
23.607834
 30
2.680105
 70
   192
  0
VERTEX
  8
fence14
 10
-74.483893
 20
23.607834
 30
7.157560
 70
   192
  0
VERTEX
  8
fence14
 10
-68.367575
 20
23.607834
 30
8.796423
 70
   192
  0
VERTEX
  8
fence14
 10
-62.251258
 20
23.607834
 30
7.157560
 70
   192
  0
VERTEX
  8
fence14
 10
-57.773803
 20
23.607834
 30
2.680105
 70
   192
  0
VERTEX
  8
fence14
 10
-53.953194
 20
60.955343
 30
-2.580727
 70
   192
  0
VERTEX
  8
fence14
 10
-55.592056
 20
60.740913
 30
-8.697044
 70
   192
  0
VERTEX
  8
fence14
 10
-60.069511
 20
60.155078
 30
-13.174500
 70
   192
  0
VERTEX
  8
fence14
 10
-66.185829
 20
59.354812
 30
-14.813362
 70
   192
  0
VERTEX
  8
fence14
 10
-72.302146
 20
58.554546
 30
-13.174500
 70
   192
  0
VERTEX
  8
fence14
 10
-76.779601
 20
57.968711
 30
-8.697044
 70
   192
  0
VERTEX
  8
fence14
 10
-78.418464
 20
57.754280
 30
-2.580727
 70
   192
  0
VERTEX
  8
fence14
 10
-76.779601
 20
57.968711
 30
3.535590
 70
   192
  0
VERTEX
  8
fence14
 10
-72.302146
 20
58.554546
 30
8.013046
 70
   192
  0
VERTEX
  8
fence14
 10
-66.185829
 20
59.354812
 30
9.651908
 70
   192
  0
VERTEX
  8
fence14
 10
-60.069511
 20
60.155078
 30
8.013046
 70
   192
  0
VERTEX
  8
fence14
 10
-55.592056
 20
60.740913
 30
3.535590
 70
   192
  0
VERTEX
  8
fence14
 10
-83.334836
 20
62.454640
 30
11.468802
 70
   192
  0
VERTEX
  8
fence14
 10
86.399373
 20
62.454640
 30
11.468802
 70
   192
  0
VERTEX
  8
fence14
 10
-83.334836
 20
80.563745
 30
11.468802
 70
   192
  0
VERTEX
  8
fence14
 10
86.399373
 20
80.563745
 30
11.468802
 70
   192
  0
VERTEX
  8
fence14
 10
-83.334836
 20
80.563745
 30
6.489611
 70
   192
  0
VERTEX
  8
fence14
 10
86.399373
 20
80.563745
 30
6.489611
 70
   192
  0
VERTEX
  8
fence14
 10
-83.334836
 20
62.454640
 30
6.489611
 70
   192
  0
VERTEX
  8
fence14
 10
86.399373
 20
62.454640
 30
6.489611
 70
   192
  0
VERTEX
  8
fence14
 10
-66.126120
 20
62.454640
 30
11.468802
 70
   192
  0
VERTEX
  8
fence14
 10
-66.126120
 20
80.563745
 30
11.468802
 70
   192
  0
VERTEX
  8
fence14
 10
68.217479
 20
62.454640
 30
11.468802
 70
   192
  0
VERTEX
  8
fence14
 10
68.217479
 20
80.563745
 30
11.468802
 70
   192
  0
VERTEX
  8
fence14
 10
0.0
 20
0.0
 30
0.0
 70
   128
 71
   7
 72
   1
 73
   9
  0
VERTEX
  8
fence14
 10
0.0
 20
0.0
 30
0.0
 70
   128
 71
   3
 72
   5
 73
   10
  0
VERTEX
  8
fence14
 10
0.0
 20
0.0
 30
0.0
 70
   128
 71
   4
 72
   2
 73
   11
  0
VERTEX
  8
fence14
 10
0.0
 20
0.0
 30
0.0
 70
   128
 71
   6
 72
   8
 73
   2
  0
VERTEX
  8
fence14
 10
0.0
 20
0.0
 30
0.0
 70
   128
 71
   7
 72
   8
 73
   6
  0
VERTEX
  8
fence14
 10
0.0
 20
0.0
 30
0.0
 70
   128
 71
   5
 72
   3
 73
   1
  0
VERTEX
  8
fence14
 10
0.0
 20
0.0
 30
0.0
 70
   128
 71
   7
 72
   9
 73
   11
  0
VERTEX
  8
fence14
 10
0.0
 20
0.0
 30
0.0
 70
   128
 71
   5
 72
   6
 73
   12
  0
VERTEX
  8
fence14
 10
0.0
 20
0.0
 30
0.0
 70
   128
 71
   9
 72
   1
 73
   3
  0
VERTEX
  8
fence14
 10
0.0
 20
0.0
 30
0.0
 70
   128
 71
   11
 72
   2
 73
   8
  0
VERTEX
  8
fence14
 10
0.0
 20
0.0
 30
0.0
 70
   128
 71
   6
 72
   4
 73
   12
  0
VERTEX
  8
fence14
 10
0.0
 20
0.0
 30
0.0
 70
   128
 71
   11
 72
   9
 73
   10
  0
VERTEX
  8
fence14
 10
0.0
 20
0.0
 30
0.0
 70
   128
 71
   39
 72
   51
 73
   52
  0
VERTEX
  8
fence14
 10
0.0
 20
0.0
 30
0.0
 70
   128
 71
   15
 72
   39
 73
   40
  0
VERTEX
  8
fence14
 10
0.0
 20
0.0
 30
0.0
 70
   128
 71
   41
 72
   19
 73
   17
  0
VERTEX
  8
fence14
 10
0.0
 20
0.0
 30
0.0
 70
   128
 71
   41
 72
   53
 73
   54
  0
VERTEX
  8
fence14
 10
0.0
 20
0.0
 30
0.0
 70
   128
 71
   52
 72
   18
 73
   20
  0
VERTEX
  8
fence14
 10
0.0
 20
0.0
 30
0.0
 70
   128
 71
   43
 72
   23
 73
   21
  0
VERTEX
  8
fence14
 10
0.0
 20
0.0
 30
0.0
 70
   128
 71
   43
 72
   55
 73
   56
  0
VERTEX
  8
fence14
 10
0.0
 20
0.0
 30
0.0
 70
   128
 71
   19
 72
   41
 73
   42
  0
VERTEX
  8
fence14
 10
0.0
 20
0.0
 30
0.0
 70
   128
 71
   45
 72
   27
 73
   25
  0
VERTEX
  8
fence14
 10
0.0
 20
0.0
 30
0.0
 70
   128
 71
   45
 72
   57
 73
   58
  0
VERTEX
  8
fence14
 10
0.0
 20
0.0
 30
0.0
 70
   128
 71
   42
 72
   54
 73
   55
  0
VERTEX
  8
fence14
 10
0.0
 20
0.0
 30
0.0
 70
   128
 71
   47
 72
   31
 73
   29
  0
VERTEX
  8
fence14
 10
0.0
 20
0.0
 30
0.0
 70
   128
 71
   47
 72
   59
 73
   60
  0
VERTEX
  8
fence14
 10
0.0
 20
0.0
 30
0.0
 70
   128
 71
   23
 72
   43
 73
   44
  0
VERTEX
  8
fence14
 10
0.0
 20
0.0
 30
0.0
 70
   128
 71
   49
 72
   35
 73
   33
  0
VERTEX
  8
fence14
 10
0.0
 20
0.0
 30
0.0
 70
   128
 71
   49
 72
   61
 73
   62
  0
VERTEX
  8
fence14
 10
0.0
 20
0.0
 30
0.0
 70
   128
 71
   44
 72
   56
 73
   57
  0
VERTEX
  8
fence14
 10
0.0
 20
0.0
 30
0.0
 70
   128
 71
   39
 72
   15
 73
   37
  0
VERTEX
  8
fence14
 10
0.0
 20
0.0
 30
0.0
 70
   128
 71
   53
 72
   41
 73
   40
  0
VERTEX
  8
fence14
 10
0.0
 20
0.0
 30
0.0
 70
   128
 71
   27
 72
   45
 73
   46
  0
VERTEX
  8
fence14
 10
0.0
 20
0.0
 30
0.0
 70
   128
 71
   54
 72
   22
 73
   24
  0
VERTEX
  8
fence14
 10
0.0
 20
0.0
 30
0.0
 70
   128
 71
   56
 72
   26
 73
   28
  0
VERTEX
  8
fence14
 10
0.0
 20
0.0
 30
0.0
 70
   128
 71
   46
 72
   58
 73
   59
  0
VERTEX
  8
fence14
 10
0.0
 20
0.0
 30
0.0
 70
   128
 71
   58
 72
   30
 73
   32
  0
VERTEX
  8
fence14
 10
0.0
 20
0.0
 30
0.0
 70
   128
 71
   60
 72
   34
 73
   36
  0
VERTEX
  8
fence14
 10
0.0
 20
0.0
 30
0.0
 70
   128
 71
   31
 72
   47
 73
   48
  0
VERTEX
  8
fence14
 10
0.0
 20
0.0
 30
0.0
 70
   128
 71
   62
 72
   38
 73
   16
  0
VERTEX
  8
fence14
 10
0.0
 20
0.0
 30
0.0
 70
   128
 71
   51
 72
   16
 73
   18
  0
VERTEX
  8
fence14
 10
0.0
 20
0.0
 30
0.0
 70
   128
 71
   48
 72
   60
 73
   61
  0
VERTEX
  8
fence14
 10
0.0
 20
0.0
 30
0.0
 70
   128
 71
   53
 72
   20
 73
   22
  0
VERTEX
  8
fence14
 10
0.0
 20
0.0
 30
0.0
 70
   128
 71
   55
 72
   24
 73
   26
  0
VERTEX
  8
fence14
 10
0.0
 20
0.0
 30
0.0
 70
   128
 71
   35
 72
   49
 73
   50
  0
VERTEX
  8
fence14
 10
0.0
 20
0.0
 30
0.0
 70
   128
 71
   57
 72
   28
 73
   30
  0
VERTEX
  8
fence14
 10
0.0
 20
0.0
 30
0.0
 70
   128
 71
   59
 72
   32
 73
   34
  0
VERTEX
  8
fence14
 10
0.0
 20
0.0
 30
0.0
 70
   128
 71
   50
 72
   62
 73
   51
  0
VERTEX
  8
fence14
 10
0.0
 20
0.0
 30
0.0
 70
   128
 71
   61
 72
   36
 73
   38
  0
VERTEX
  8
fence14
 10
0.0
 20
0.0
 30
0.0
 70
   128
 71
   19
 72
   37
 73
   15
  0
VERTEX
  8
fence14
 10
0.0
 20
0.0
 30
0.0
 70
   128
 71
   31
 72
   37
 73
   19
  0
VERTEX
  8
fence14
 10
0.0
 20
0.0
 30
0.0
 70
   128
 71
   37
 72
   31
 73
   33
  0
VERTEX
  8
fence14
 10
0.0
 20
0.0
 30
0.0
 70
   128
 71
   21
 72
   23
 73
   25
  0
VERTEX
  8
fence14
 10
0.0
 20
0.0
 30
0.0
 70
   128
 71
   21
 72
   25
 73
   27
  0
VERTEX
  8
fence14
 10
0.0
 20
0.0
 30
0.0
 70
   128
 71
   27
 72
   29
 73
   31
  0
VERTEX
  8
fence14
 10
0.0
 20
0.0
 30
0.0
 70
   128
 71
   36
 72
   32
 73
   30
  0
VERTEX
  8
fence14
 10
0.0
 20
0.0
 30
0.0
 70
   128
 71
   36
 72
   34
 73
   32
  0
VERTEX
  8
fence14
 10
0.0
 20
0.0
 30
0.0
 70
   128
 71
   24
 72
   30
 73
   28
  0
VERTEX
  8
fence14
 10
0.0
 20
0.0
 30
0.0
 70
   128
 71
   38
 72
   30
 73
   24
  0
VERTEX
  8
fence14
 10
0.0
 20
0.0
 30
0.0
 70
   128
 71
   24
 72
   22
 73
   20
  0
VERTEX
  8
fence14
 10
0.0
 20
0.0
 30
0.0
 70
   128
 71
   18
 72
   16
 73
   38
  0
VERTEX
  8
fence14
 10
0.0
 20
0.0
 30
0.0
 70
   128
 71
   89
 72
   101
 73
   102
  0
VERTEX
  8
fence14
 10
0.0
 20
0.0
 30
0.0
 70
   128
 71
   65
 72
   89
 73
   90
  0
VERTEX
  8
fence14
 10
0.0
 20
0.0
 30
0.0
 70
   128
 71
   91
 72
   69
 73
   67
  0
VERTEX
  8
fence14
 10
0.0
 20
0.0
 30
0.0
 70
   128
 71
   91
 72
   103
 73
   104
  0
VERTEX
  8
fence14
 10
0.0
 20
0.0
 30
0.0
 70
   128
 71
   102
 72
   68
 73
   70
  0
VERTEX
  8
fence14
 10
0.0
 20
0.0
 30
0.0
 70
   128
 71
   93
 72
   73
 73
   71
  0
VERTEX
  8
fence14
 10
0.0
 20
0.0
 30
0.0
 70
   128
 71
   93
 72
   105
 73
   106
  0
VERTEX
  8
fence14
 10
0.0
 20
0.0
 30
0.0
 70
   128
 71
   69
 72
   91
 73
   92
  0
VERTEX
  8
fence14
 10
0.0
 20
0.0
 30
0.0
 70
   128
 71
   95
 72
   77
 73
   75
  0
VERTEX
  8
fence14
 10
0.0
 20
0.0
 30
0.0
 70
   128
 71
   95
 72
   107
 73
   108
  0
VERTEX
  8
fence14
 10
0.0
 20
0.0
 30
0.0
 70
   128
 71
   92
 72
   104
 73
   105
  0
VERTEX
  8
fence14
 10
0.0
 20
0.0
 30
0.0
 70
   128
 71
   97
 72
   81
 73
   79
  0
VERTEX
  8
fence14
 10
0.0
 20
0.0
 30
0.0
 70
   128
 71
   97
 72
   109
 73
   110
  0
VERTEX
  8
fence14
 10
0.0
 20
0.0
 30
0.0
 70
   128
 71
   73
 72
   93
 73
   94
  0
VERTEX
  8
fence14
 10
0.0
 20
0.0
 30
0.0
 70
   128
 71
   99
 72
   85
 73
   83
  0
VERTEX
  8
fence14
 10
0.0
 20
0.0
 30
0.0
 70
   128
 71
   99
 72
   111
 73
   112
  0
VERTEX
  8
fence14
 10
0.0
 20
0.0
 30
0.0
 70
   128
 71
   94
 72
   106
 73
   107
  0
VERTEX
  8
fence14
 10
0.0
 20
0.0
 30
0.0
 70
   128
 71
   89
 72
   65
 73
   87
  0
VERTEX
  8
fence14
 10
0.0
 20
0.0
 30
0.0
 70
   128
 71
   103
 72
   91
 73
   90
  0
VERTEX
  8
fence14
 10
0.0
 20
0.0
 30
0.0
 70
   128
 71
   77
 72
   95
 73
   96
  0
VERTEX
  8
fence14
 10
0.0
 20
0.0
 30
0.0
 70
   128
 71
   104
 72
   72
 73
   74
  0
VERTEX
  8
fence14
 10
0.0
 20
0.0
 30
0.0
 70
   128
 71
   106
 72
   76
 73
   78
  0
VERTEX
  8
fence14
 10
0.0
 20
0.0
 30
0.0
 70
   128
 71
   96
 72
   108
 73
   109
  0
VERTEX
  8
fence14
 10
0.0
 20
0.0
 30
0.0
 70
   128
 71
   108
 72
   80
 73
   82
  0
VERTEX
  8
fence14
 10
0.0
 20
0.0
 30
0.0
 70
   128
 71
   110
 72
   84
 73
   86
  0
VERTEX
  8
fence14
 10
0.0
 20
0.0
 30
0.0
 70
   128
 71
   81
 72
   97
 73
   98
  0
VERTEX
  8
fence14
 10
0.0
 20
0.0
 30
0.0
 70
   128
 71
   112
 72
   88
 73
   66
  0
VERTEX
  8
fence14
 10
0.0
 20
0.0
 30
0.0
 70
   128
 71
   101
 72
   66
 73
   68
  0
VERTEX
  8
fence14
 10
0.0
 20
0.0
 30
0.0
 70
   128
 71
   98
 72
   110
 73
   111
  0
VERTEX
  8
fence14
 10
0.0
 20
0.0
 30
0.0
 70
   128
 71
   103
 72
   70
 73
   72
  0
VERTEX
  8
fence14
 10
0.0
 20
0.0
 30
0.0
 70
   128
 71
   105
 72
   74
 73
   76
  0
VERTEX
  8
fence14
 10
0.0
 20
0.0
 30
0.0
 70
   128
 71
   85
 72
   99
 73
   100
  0
VERTEX
  8
fence14
 10
0.0
 20
0.0
 30
0.0
 70
   128
 71
   107
 72
   78
 73
   80
  0
VERTEX
  8
fence14
 10
0.0
 20
0.0
 30
0.0
 70
   128
 71
   109
 72
   82
 73
   84
  0
VERTEX
  8
fence14
 10
0.0
 20
0.0
 30
0.0
 70
   128
 71
   100
 72
   112
 73
   101
  0
VERTEX
  8
fence14
 10
0.0
 20
0.0
 30
0.0
 70
   128
 71
   111
 72
   86
 73
   88
  0
VERTEX
  8
fence14
 10
0.0
 20
0.0
 30
0.0
 70
   128
 71
   69
 72
   87
 73
   65
  0
VERTEX
  8
fence14
 10
0.0
 20
0.0
 30
0.0
 70
   128
 71
   81
 72
   87
 73
   69
  0
VERTEX
  8
fence14
 10
0.0
 20
0.0
 30
0.0
 70
   128
 71
   87
 72
   81
 73
   83
  0
VERTEX
  8
fence14
 10
0.0
 20
0.0
 30
0.0
 70
   128
 71
   71
 72
   73
 73
   75
  0
VERTEX
  8
fence14
 10
0.0
 20
0.0
 30
0.0
 70
   128
 71
   71
 72
   75
 73
   77
  0
VERTEX
  8
fence14
 10
0.0
 20
0.0
 30
0.0
 70
   128
 71
   77
 72
   79
 73
   81
  0
VERTEX
  8
fence14
 10
0.0
 20
0.0
 30
0.0
 70
   128
 71
   86
 72
   82
 73
   80
  0
VERTEX
  8
fence14
 10
0.0
 20
0.0
 30
0.0
 70
   128
 71
   86
 72
   84
 73
   82
  0
VERTEX
  8
fence14
 10
0.0
 20
0.0
 30
0.0
 70
   128
 71
   74
 72
   80
 73
   78
  0
VERTEX
  8
fence14
 10
0.0
 20
0.0
 30
0.0
 70
   128
 71
   88
 72
   80
 73
   74
  0
VERTEX
  8
fence14
 10
0.0
 20
0.0
 30
0.0
 70
   128
 71
   74
 72
   72
 73
   70
  0
VERTEX
  8
fence14
 10
0.0
 20
0.0
 30
0.0
 70
   128
 71
   68
 72
   66
 73
   88
  0
VERTEX
  8
fence14
 10
0.0
 20
0.0
 30
0.0
 70
   128
 71
   119
 72
   113
 73
   121
  0
VERTEX
  8
fence14
 10
0.0
 20
0.0
 30
0.0
 70
   128
 71
   115
 72
   117
 73
   122
  0
VERTEX
  8
fence14
 10
0.0
 20
0.0
 30
0.0
 70
   128
 71
   116
 72
   114
 73
   123
  0
VERTEX
  8
fence14
 10
0.0
 20
0.0
 30
0.0
 70
   128
 71
   118
 72
   120
 73
   114
  0
VERTEX
  8
fence14
 10
0.0
 20
0.0
 30
0.0
 70
   128
 71
   119
 72
   120
 73
   118
  0
VERTEX
  8
fence14
 10
0.0
 20
0.0
 30
0.0
 70
   128
 71
   117
 72
   115
 73
   113
  0
VERTEX
  8
fence14
 10
0.0
 20
0.0
 30
0.0
 70
   128
 71
   119
 72
   121
 73
   123
  0
VERTEX
  8
fence14
 10
0.0
 20
0.0
 30
0.0
 70
   128
 71
   117
 72
   118
 73
   124
  0
VERTEX
  8
fence14
 10
0.0
 20
0.0
 30
0.0
 70
   128
 71
   121
 72
   113
 73
   115
  0
VERTEX
  8
fence14
 10
0.0
 20
0.0
 30
0.0
 70
   128
 71
   123
 72
   114
 73
   120
  0
VERTEX
  8
fence14
 10
0.0
 20
0.0
 30
0.0
 70
   128
 71
   118
 72
   116
 73
   124
  0
VERTEX
  8
fence14
 10
0.0
 20
0.0
 30
0.0
 70
   128
 71
   123
 72
   121
 73
   122
  0
VERTEX
  8
fence14
 10
0.0
 20
0.0
 30
0.0
 70
   128
 71
   4
 72
   11
 73
   12
  0
VERTEX
  8
fence14
 10
0.0
 20
0.0
 30
0.0
 70
   128
 71
   6
 72
   2
 73
   4
  0
VERTEX
  8
fence14
 10
0.0
 20
0.0
 30
0.0
 70
   128
 71
   7
 72
   6
 73
   5
  0
VERTEX
  8
fence14
 10
0.0
 20
0.0
 30
0.0
 70
   128
 71
   5
 72
   1
 73
   7
  0
VERTEX
  8
fence14
 10
0.0
 20
0.0
 30
0.0
 70
   128
 71
   7
 72
   11
 73
   8
  0
VERTEX
  8
fence14
 10
0.0
 20
0.0
 30
0.0
 70
   128
 71
   5
 72
   12
 73
   10
  0
VERTEX
  8
fence14
 10
0.0
 20
0.0
 30
0.0
 70
   128
 71
   9
 72
   3
 73
   10
  0
VERTEX
  8
fence14
 10
0.0
 20
0.0
 30
0.0
 70
   128
 71
   11
 72
   10
 73
   12
  0
VERTEX
  8
fence14
 10
0.0
 20
0.0
 30
0.0
 70
   128
 71
   39
 72
   52
 73
   40
  0
VERTEX
  8
fence14
 10
0.0
 20
0.0
 30
0.0
 70
   128
 71
   15
 72
   40
 73
   17
  0
VERTEX
  8
fence14
 10
0.0
 20
0.0
 30
0.0
 70
   128
 71
   41
 72
   17
 73
   40
  0
VERTEX
  8
fence14
 10
0.0
 20
0.0
 30
0.0
 70
   128
 71
   41
 72
   54
 73
   42
  0
VERTEX
  8
fence14
 10
0.0
 20
0.0
 30
0.0
 70
   128
 71
   52
 72
   20
 73
   53
  0
VERTEX
  8
fence14
 10
0.0
 20
0.0
 30
0.0
 70
   128
 71
   43
 72
   21
 73
   42
  0
VERTEX
  8
fence14
 10
0.0
 20
0.0
 30
0.0
 70
   128
 71
   43
 72
   56
 73
   44
  0
VERTEX
  8
fence14
 10
0.0
 20
0.0
 30
0.0
 70
   128
 71
   19
 72
   42
 73
   21
  0
VERTEX
  8
fence14
 10
0.0
 20
0.0
 30
0.0
 70
   128
 71
   45
 72
   25
 73
   44
  0
VERTEX
  8
fence14
 10
0.0
 20
0.0
 30
0.0
 70
   128
 71
   45
 72
   58
 73
   46
  0
VERTEX
  8
fence14
 10
0.0
 20
0.0
 30
0.0
 70
   128
 71
   42
 72
   55
 73
   43
  0
VERTEX
  8
fence14
 10
0.0
 20
0.0
 30
0.0
 70
   128
 71
   47
 72
   29
 73
   46
  0
VERTEX
  8
fence14
 10
0.0
 20
0.0
 30
0.0
 70
   128
 71
   47
 72
   60
 73
   48
  0
VERTEX
  8
fence14
 10
0.0
 20
0.0
 30
0.0
 70
   128
 71
   23
 72
   44
 73
   25
  0
VERTEX
  8
fence14
 10
0.0
 20
0.0
 30
0.0
 70
   128
 71
   49
 72
   33
 73
   48
  0
VERTEX
  8
fence14
 10
0.0
 20
0.0
 30
0.0
 70
   128
 71
   49
 72
   62
 73
   50
  0
VERTEX
  8
fence14
 10
0.0
 20
0.0
 30
0.0
 70
   128
 71
   44
 72
   57
 73
   45
  0
VERTEX
  8
fence14
 10
0.0
 20
0.0
 30
0.0
 70
   128
 71
   39
 72
   37
 73
   50
  0
VERTEX
  8
fence14
 10
0.0
 20
0.0
 30
0.0
 70
   128
 71
   53
 72
   40
 73
   52
  0
VERTEX
  8
fence14
 10
0.0
 20
0.0
 30
0.0
 70
   128
 71
   27
 72
   46
 73
   29
  0
VERTEX
  8
fence14
 10
0.0
 20
0.0
 30
0.0
 70
   128
 71
   54
 72
   24
 73
   55
  0
VERTEX
  8
fence14
 10
0.0
 20
0.0
 30
0.0
 70
   128
 71
   56
 72
   28
 73
   57
  0
VERTEX
  8
fence14
 10
0.0
 20
0.0
 30
0.0
 70
   128
 71
   46
 72
   59
 73
   47
  0
VERTEX
  8
fence14
 10
0.0
 20
0.0
 30
0.0
 70
   128
 71
   58
 72
   32
 73
   59
  0
VERTEX
  8
fence14
 10
0.0
 20
0.0
 30
0.0
 70
   128
 71
   60
 72
   36
 73
   61
  0
VERTEX
  8
fence14
 10
0.0
 20
0.0
 30
0.0
 70
   128
 71
   31
 72
   48
 73
   33
  0
VERTEX
  8
fence14
 10
0.0
 20
0.0
 30
0.0
 70
   128
 71
   62
 72
   16
 73
   51
  0
VERTEX
  8
fence14
 10
0.0
 20
0.0
 30
0.0
 70
   128
 71
   51
 72
   18
 73
   52
  0
VERTEX
  8
fence14
 10
0.0
 20
0.0
 30
0.0
 70
   128
 71
   48
 72
   61
 73
   49
  0
VERTEX
  8
fence14
 10
0.0
 20
0.0
 30
0.0
 70
   128
 71
   53
 72
   22
 73
   54
  0
VERTEX
  8
fence14
 10
0.0
 20
0.0
 30
0.0
 70
   128
 71
   55
 72
   26
 73
   56
  0
VERTEX
  8
fence14
 10
0.0
 20
0.0
 30
0.0
 70
   128
 71
   35
 72
   50
 73
   37
  0
VERTEX
  8
fence14
 10
0.0
 20
0.0
 30
0.0
 70
   128
 71
   57
 72
   30
 73
   58
  0
VERTEX
  8
fence14
 10
0.0
 20
0.0
 30
0.0
 70
   128
 71
   59
 72
   34
 73
   60
  0
VERTEX
  8
fence14
 10
0.0
 20
0.0
 30
0.0
 70
   128
 71
   50
 72
   51
 73
   39
  0
VERTEX
  8
fence14
 10
0.0
 20
0.0
 30
0.0
 70
   128
 71
   61
 72
   38
 73
   62
  0
VERTEX
  8
fence14
 10
0.0
 20
0.0
 30
0.0
 70
   128
 71
   19
 72
   15
 73
   17
  0
VERTEX
  8
fence14
 10
0.0
 20
0.0
 30
0.0
 70
   128
 71
   31
 72
   19
 73
   21
  0
VERTEX
  8
fence14
 10
0.0
 20
0.0
 30
0.0
 70
   128
 71
   37
 72
   33
 73
   35
  0
VERTEX
  8
fence14
 10
0.0
 20
0.0
 30
0.0
 70
   128
 71
   21
 72
   27
 73
   31
  0
VERTEX
  8
fence14
 10
0.0
 20
0.0
 30
0.0
 70
   128
 71
   36
 72
   30
 73
   38
  0
VERTEX
  8
fence14
 10
0.0
 20
0.0
 30
0.0
 70
   128
 71
   24
 72
   28
 73
   26
  0
VERTEX
  8
fence14
 10
0.0
 20
0.0
 30
0.0
 70
   128
 71
   38
 72
   24
 73
   18
  0
VERTEX
  8
fence14
 10
0.0
 20
0.0
 30
0.0
 70
   128
 71
   24
 72
   20
 73
   18
  0
VERTEX
  8
fence14
 10
0.0
 20
0.0
 30
0.0
 70
   128
 71
   89
 72
   102
 73
   90
  0
VERTEX
  8
fence14
 10
0.0
 20
0.0
 30
0.0
 70
   128
 71
   65
 72
   90
 73
   67
  0
VERTEX
  8
fence14
 10
0.0
 20
0.0
 30
0.0
 70
   128
 71
   91
 72
   67
 73
   90
  0
VERTEX
  8
fence14
 10
0.0
 20
0.0
 30
0.0
 70
   128
 71
   91
 72
   104
 73
   92
  0
VERTEX
  8
fence14
 10
0.0
 20
0.0
 30
0.0
 70
   128
 71
   102
 72
   70
 73
   103
  0
VERTEX
  8
fence14
 10
0.0
 20
0.0
 30
0.0
 70
   128
 71
   93
 72
   71
 73
   92
  0
VERTEX
  8
fence14
 10
0.0
 20
0.0
 30
0.0
 70
   128
 71
   93
 72
   106
 73
   94
  0
VERTEX
  8
fence14
 10
0.0
 20
0.0
 30
0.0
 70
   128
 71
   69
 72
   92
 73
   71
  0
VERTEX
  8
fence14
 10
0.0
 20
0.0
 30
0.0
 70
   128
 71
   95
 72
   75
 73
   94
  0
VERTEX
  8
fence14
 10
0.0
 20
0.0
 30
0.0
 70
   128
 71
   95
 72
   108
 73
   96
  0
VERTEX
  8
fence14
 10
0.0
 20
0.0
 30
0.0
 70
   128
 71
   92
 72
   105
 73
   93
  0
VERTEX
  8
fence14
 10
0.0
 20
0.0
 30
0.0
 70
   128
 71
   97
 72
   79
 73
   96
  0
VERTEX
  8
fence14
 10
0.0
 20
0.0
 30
0.0
 70
   128
 71
   97
 72
   110
 73
   98
  0
VERTEX
  8
fence14
 10
0.0
 20
0.0
 30
0.0
 70
   128
 71
   73
 72
   94
 73
   75
  0
VERTEX
  8
fence14
 10
0.0
 20
0.0
 30
0.0
 70
   128
 71
   99
 72
   83
 73
   98
  0
VERTEX
  8
fence14
 10
0.0
 20
0.0
 30
0.0
 70
   128
 71
   99
 72
   112
 73
   100
  0
VERTEX
  8
fence14
 10
0.0
 20
0.0
 30
0.0
 70
   128
 71
   94
 72
   107
 73
   95
  0
VERTEX
  8
fence14
 10
0.0
 20
0.0
 30
0.0
 70
   128
 71
   89
 72
   87
 73
   100
  0
VERTEX
  8
fence14
 10
0.0
 20
0.0
 30
0.0
 70
   128
 71
   103
 72
   90
 73
   102
  0
VERTEX
  8
fence14
 10
0.0
 20
0.0
 30
0.0
 70
   128
 71
   77
 72
   96
 73
   79
  0
VERTEX
  8
fence14
 10
0.0
 20
0.0
 30
0.0
 70
   128
 71
   104
 72
   74
 73
   105
  0
VERTEX
  8
fence14
 10
0.0
 20
0.0
 30
0.0
 70
   128
 71
   106
 72
   78
 73
   107
  0
VERTEX
  8
fence14
 10
0.0
 20
0.0
 30
0.0
 70
   128
 71
   96
 72
   109
 73
   97
  0
VERTEX
  8
fence14
 10
0.0
 20
0.0
 30
0.0
 70
   128
 71
   108
 72
   82
 73
   109
  0
VERTEX
  8
fence14
 10
0.0
 20
0.0
 30
0.0
 70
   128
 71
   110
 72
   86
 73
   111
  0
VERTEX
  8
fence14
 10
0.0
 20
0.0
 30
0.0
 70
   128
 71
   81
 72
   98
 73
   83
  0
VERTEX
  8
fence14
 10
0.0
 20
0.0
 30
0.0
 70
   128
 71
   112
 72
   66
 73
   101
  0
VERTEX
  8
fence14
 10
0.0
 20
0.0
 30
0.0
 70
   128
 71
   101
 72
   68
 73
   102
  0
VERTEX
  8
fence14
 10
0.0
 20
0.0
 30
0.0
 70
   128
 71
   98
 72
   111
 73
   99
  0
VERTEX
  8
fence14
 10
0.0
 20
0.0
 30
0.0
 70
   128
 71
   103
 72
   72
 73
   104
  0
VERTEX
  8
fence14
 10
0.0
 20
0.0
 30
0.0
 70
   128
 71
   105
 72
   76
 73
   106
  0
VERTEX
  8
fence14
 10
0.0
 20
0.0
 30
0.0
 70
   128
 71
   85
 72
   100
 73
   87
  0
VERTEX
  8
fence14
 10
0.0
 20
0.0
 30
0.0
 70
   128
 71
   107
 72
   80
 73
   108
  0
VERTEX
  8
fence14
 10
0.0
 20
0.0
 30
0.0
 70
   128
 71
   109
 72
   84
 73
   110
  0
VERTEX
  8
fence14
 10
0.0
 20
0.0
 30
0.0
 70
   128
 71
   100
 72
   101
 73
   89
  0
VERTEX
  8
fence14
 10
0.0
 20
0.0
 30
0.0
 70
   128
 71
   111
 72
   88
 73
   112
  0
VERTEX
  8
fence14
 10
0.0
 20
0.0
 30
0.0
 70
   128
 71
   69
 72
   65
 73
   67
  0
VERTEX
  8
fence14
 10
0.0
 20
0.0
 30
0.0
 70
   128
 71
   81
 72
   69
 73
   71
  0
VERTEX
  8
fence14
 10
0.0
 20
0.0
 30
0.0
 70
   128
 71
   87
 72
   83
 73
   85
  0
VERTEX
  8
fence14
 10
0.0
 20
0.0
 30
0.0
 70
   128
 71
   71
 72
   77
 73
   81
  0
VERTEX
  8
fence14
 10
0.0
 20
0.0
 30
0.0
 70
   128
 71
   86
 72
   80
 73
   88
  0
VERTEX
  8
fence14
 10
0.0
 20
0.0
 30
0.0
 70
   128
 71
   74
 72
   78
 73
   76
  0
VERTEX
  8
fence14
 10
0.0
 20
0.0
 30
0.0
 70
   128
 71
   88
 72
   74
 73
   68
  0
VERTEX
  8
fence14
 10
0.0
 20
0.0
 30
0.0
 70
   128
 71
   74
 72
   70
 73
   68
  0
VERTEX
  8
fence14
 10
0.0
 20
0.0
 30
0.0
 70
   128
 71
   116
 72
   123
 73
   124
  0
VERTEX
  8
fence14
 10
0.0
 20
0.0
 30
0.0
 70
   128
 71
   118
 72
   114
 73
   116
  0
VERTEX
  8
fence14
 10
0.0
 20
0.0
 30
0.0
 70
   128
 71
   119
 72
   118
 73
   117
  0
VERTEX
  8
fence14
 10
0.0
 20
0.0
 30
0.0
 70
   128
 71
   117
 72
   113
 73
   119
  0
VERTEX
  8
fence14
 10
0.0
 20
0.0
 30
0.0
 70
   128
 71
   119
 72
   123
 73
   120
  0
VERTEX
  8
fence14
 10
0.0
 20
0.0
 30
0.0
 70
   128
 71
   117
 72
   124
 73
   122
  0
VERTEX
  8
fence14
 10
0.0
 20
0.0
 30
0.0
 70
   128
 71
   121
 72
   115
 73
   122
  0
VERTEX
  8
fence14
 10
0.0
 20
0.0
 30
0.0
 70
   128
 71
   123
 72
   122
 73
   124
  0
SEQEND
  0
ENDSEC
  0
EOF
