999
FBX AutoCAD (*.DXF) exporter
  0
SECTION
  2
HEADER
  9
$ACADVER
  1
AC1008
  9
$UCSORG
 10
0.0
 20
0.0
 30
0.0
  9
$UCSXDIR
 10
1.0
 20
0.0
 30
0.0
  9
$TILEMODE
 70
   1
  9
$UCSYDIR
 10
0.0
 20
1.0
 30
0.0
  0
ENDSEC
  0
SECTION
  2
TABLES
  0
TABLE
  2
LTYPE
 70
   1
  0
LTYPE
  2
CONTINUOUS
 70
   64
  3
Solid line
 72
   65
 73
   0
 40
0.0
  0
ENDTAB
  0
TABLE
  2
LAYER
 70
   6
  0
LAYER
  2
leaf
 70
   0
 62
   250
  6
CONTINUOUS
  0
LAYER
  2
leaf_2
 70
   0
 62
   250
  6
CONTINUOUS
  0
LAYER
  2
leaf_3
 70
   0
 62
   250
  6
CONTINUOUS
  0
LAYER
  2
leaf_4
 70
   0
 62
   250
  6
CONTINUOUS
  0
LAYER
  2
bark
 70
   0
 62
   250
  6
CONTINUOUS
  0
ENDTAB
  0
ENDSEC
  0
SECTION
  2
BLOCKS
  0
ENDSEC
  0
SECTION
  2
ENTITIES
  0
POLYLINE
  8
leaf
 66
   1
 10
0.0
 20
0.0
 30
0.0
 70
   64
 71
   13
 72
   22
  0
VERTEX
  8
leaf
 10
-96.144105
 20
678.240305
 30
88.188536
 70
   192
  0
VERTEX
  8
leaf
 10
-137.882482
 20
672.197539
 30
53.566893
 70
   192
  0
VERTEX
  8
leaf
 10
-153.193320
 20
670.319161
 30
6.304335
 70
   192
  0
VERTEX
  8
leaf
 10
-137.974090
 20
673.108481
 30
-40.935176
 70
   192
  0
VERTEX
  8
leaf
 10
-96.302775
 20
679.818103
 30
-75.493851
 70
   192
  0
VERTEX
  8
leaf
 10
17.636984
 20
697.238190
 30
-75.407835
 70
   192
  0
VERTEX
  8
leaf
 10
59.375361
 20
703.280956
 30
-40.786193
 70
   192
  0
VERTEX
  8
leaf
 10
74.686199
 20
705.159334
 30
6.476365
 70
   192
  0
VERTEX
  8
leaf
 10
59.466970
 20
702.370014
 30
53.715876
 70
   192
  0
VERTEX
  8
leaf
 10
17.795654
 20
695.660392
 30
88.274551
 70
   192
  0
VERTEX
  8
leaf
 10
-83.893220
 20
994.123496
 30
11.402284
 70
   192
  0
VERTEX
  8
leaf
 10
-39.161952
 20
686.828305
 30
100.892420
 70
   192
  0
VERTEX
  8
leaf
 10
-39.345169
 20
688.650189
 30
-88.111720
 70
   192
  0
VERTEX
  8
leaf
 10
0.0
 20
0.0
 30
0.0
 70
   128
 71
   12
 72
   1
 73
   11
  0
VERTEX
  8
leaf
 10
0.0
 20
0.0
 30
0.0
 70
   128
 71
   1
 72
   2
 73
   11
  0
VERTEX
  8
leaf
 10
0.0
 20
0.0
 30
0.0
 70
   128
 71
   2
 72
   3
 73
   11
  0
VERTEX
  8
leaf
 10
0.0
 20
0.0
 30
0.0
 70
   128
 71
   3
 72
   4
 73
   11
  0
VERTEX
  8
leaf
 10
0.0
 20
0.0
 30
0.0
 70
   128
 71
   4
 72
   5
 73
   11
  0
VERTEX
  8
leaf
 10
0.0
 20
0.0
 30
0.0
 70
   128
 71
   5
 72
   13
 73
   11
  0
VERTEX
  8
leaf
 10
0.0
 20
0.0
 30
0.0
 70
   128
 71
   13
 72
   6
 73
   11
  0
VERTEX
  8
leaf
 10
0.0
 20
0.0
 30
0.0
 70
   128
 71
   6
 72
   7
 73
   11
  0
VERTEX
  8
leaf
 10
0.0
 20
0.0
 30
0.0
 70
   128
 71
   7
 72
   8
 73
   11
  0
VERTEX
  8
leaf
 10
0.0
 20
0.0
 30
0.0
 70
   128
 71
   8
 72
   9
 73
   11
  0
VERTEX
  8
leaf
 10
0.0
 20
0.0
 30
0.0
 70
   128
 71
   9
 72
   10
 73
   11
  0
VERTEX
  8
leaf
 10
0.0
 20
0.0
 30
0.0
 70
   128
 71
   10
 72
   12
 73
   11
  0
VERTEX
  8
leaf
 10
0.0
 20
0.0
 30
0.0
 70
   128
 71
   10
 72
   9
 73
   7
  0
VERTEX
  8
leaf
 10
0.0
 20
0.0
 30
0.0
 70
   128
 71
   10
 72
   7
 73
   2
  0
VERTEX
  8
leaf
 10
0.0
 20
0.0
 30
0.0
 70
   128
 71
   10
 72
   2
 73
   1
  0
VERTEX
  8
leaf
 10
0.0
 20
0.0
 30
0.0
 70
   128
 71
   10
 72
   1
 73
   12
  0
VERTEX
  8
leaf
 10
0.0
 20
0.0
 30
0.0
 70
   128
 71
   9
 72
   8
 73
   7
  0
VERTEX
  8
leaf
 10
0.0
 20
0.0
 30
0.0
 70
   128
 71
   7
 72
   6
 73
   5
  0
VERTEX
  8
leaf
 10
0.0
 20
0.0
 30
0.0
 70
   128
 71
   7
 72
   5
 73
   4
  0
VERTEX
  8
leaf
 10
0.0
 20
0.0
 30
0.0
 70
   128
 71
   7
 72
   4
 73
   2
  0
VERTEX
  8
leaf
 10
0.0
 20
0.0
 30
0.0
 70
   128
 71
   6
 72
   13
 73
   5
  0
VERTEX
  8
leaf
 10
0.0
 20
0.0
 30
0.0
 70
   128
 71
   4
 72
   3
 73
   2
  0
SEQEND
  0
POLYLINE
  8
leaf_2
 66
   1
 10
0.0
 20
0.0
 30
0.0
 70
   64
 71
   13
 72
   22
  0
VERTEX
  8
leaf_2
 10
-94.107326
 20
552.508370
 30
123.847289
 70
   192
  0
VERTEX
  8
leaf_2
 10
-144.150273
 20
546.408864
 30
73.397847
 70
   192
  0
VERTEX
  8
leaf_2
 10
-162.516136
 20
544.662375
 30
4.505116
 70
   192
  0
VERTEX
  8
leaf_2
 10
-144.283796
 20
547.736876
 30
-64.371153
 70
   192
  0
VERTEX
  8
leaf_2
 10
-26.063308
 20
563.982561
 30
-133.202446
 70
   192
  0
VERTEX
  8
leaf_2
 10
42.247756
 20
572.800728
 30
-114.714181
 70
   192
  0
VERTEX
  8
leaf_2
 10
92.290703
 20
578.900234
 30
-64.264739
 70
   192
  0
VERTEX
  8
leaf_2
 10
92.424227
 20
577.572222
 30
73.504261
 70
   192
  0
VERTEX
  8
leaf_2
 10
42.479025
 20
570.500544
 30
123.908727
 70
   192
  0
VERTEX
  8
leaf_2
 10
-77.777051
 20
933.328599
 30
9.989097
 70
   192
  0
VERTEX
  8
leaf_2
 10
-25.796261
 20
561.326537
 30
142.335555
 70
   192
  0
VERTEX
  8
leaf_2
 10
-94.338595
 20
554.808554
 30
-114.775619
 70
   192
  0
VERTEX
  8
leaf_2
 10
110.656566
 20
580.646723
 30
4.627992
 70
   192
  0
VERTEX
  8
leaf_2
 10
0.0
 20
0.0
 30
0.0
 70
   128
 71
   11
 72
   1
 73
   10
  0
VERTEX
  8
leaf_2
 10
0.0
 20
0.0
 30
0.0
 70
   128
 71
   1
 72
   2
 73
   10
  0
VERTEX
  8
leaf_2
 10
0.0
 20
0.0
 30
0.0
 70
   128
 71
   2
 72
   3
 73
   10
  0
VERTEX
  8
leaf_2
 10
0.0
 20
0.0
 30
0.0
 70
   128
 71
   3
 72
   4
 73
   10
  0
VERTEX
  8
leaf_2
 10
0.0
 20
0.0
 30
0.0
 70
   128
 71
   4
 72
   12
 73
   10
  0
VERTEX
  8
leaf_2
 10
0.0
 20
0.0
 30
0.0
 70
   128
 71
   12
 72
   5
 73
   10
  0
VERTEX
  8
leaf_2
 10
0.0
 20
0.0
 30
0.0
 70
   128
 71
   5
 72
   6
 73
   10
  0
VERTEX
  8
leaf_2
 10
0.0
 20
0.0
 30
0.0
 70
   128
 71
   6
 72
   7
 73
   10
  0
VERTEX
  8
leaf_2
 10
0.0
 20
0.0
 30
0.0
 70
   128
 71
   7
 72
   13
 73
   10
  0
VERTEX
  8
leaf_2
 10
0.0
 20
0.0
 30
0.0
 70
   128
 71
   13
 72
   8
 73
   10
  0
VERTEX
  8
leaf_2
 10
0.0
 20
0.0
 30
0.0
 70
   128
 71
   8
 72
   9
 73
   10
  0
VERTEX
  8
leaf_2
 10
0.0
 20
0.0
 30
0.0
 70
   128
 71
   9
 72
   11
 73
   10
  0
VERTEX
  8
leaf_2
 10
0.0
 20
0.0
 30
0.0
 70
   128
 71
   9
 72
   8
 73
   6
  0
VERTEX
  8
leaf_2
 10
0.0
 20
0.0
 30
0.0
 70
   128
 71
   9
 72
   6
 73
   4
  0
VERTEX
  8
leaf_2
 10
0.0
 20
0.0
 30
0.0
 70
   128
 71
   9
 72
   4
 73
   1
  0
VERTEX
  8
leaf_2
 10
0.0
 20
0.0
 30
0.0
 70
   128
 71
   9
 72
   1
 73
   11
  0
VERTEX
  8
leaf_2
 10
0.0
 20
0.0
 30
0.0
 70
   128
 71
   8
 72
   13
 73
   7
  0
VERTEX
  8
leaf_2
 10
0.0
 20
0.0
 30
0.0
 70
   128
 71
   8
 72
   7
 73
   6
  0
VERTEX
  8
leaf_2
 10
0.0
 20
0.0
 30
0.0
 70
   128
 71
   6
 72
   5
 73
   4
  0
VERTEX
  8
leaf_2
 10
0.0
 20
0.0
 30
0.0
 70
   128
 71
   5
 72
   12
 73
   4
  0
VERTEX
  8
leaf_2
 10
0.0
 20
0.0
 30
0.0
 70
   128
 71
   4
 72
   3
 73
   2
  0
VERTEX
  8
leaf_2
 10
0.0
 20
0.0
 30
0.0
 70
   128
 71
   4
 72
   2
 73
   1
  0
SEQEND
  0
POLYLINE
  8
leaf_3
 66
   1
 10
0.0
 20
0.0
 30
0.0
 70
   64
 71
   13
 72
   22
  0
VERTEX
  8
leaf_3
 10
12.291396
 20
264.063743
 30
198.018982
 70
   192
  0
VERTEX
  8
leaf_3
 10
-81.072778
 20
250.096846
 30
172.674547
 70
   192
  0
VERTEX
  8
leaf_3
 10
-149.561136
 20
241.275009
 30
103.544964
 70
   192
  0
VERTEX
  8
leaf_3
 10
-174.822279
 20
239.962035
 30
9.153449
 70
   192
  0
VERTEX
  8
leaf_3
 10
-150.087503
 20
246.509735
 30
-85.207868
 70
   192
  0
VERTEX
  8
leaf_3
 10
11.238662
 20
274.533194
 30
-179.486682
 70
   192
  0
VERTEX
  8
leaf_3
 10
104.602836
 20
288.500091
 30
-154.142247
 70
   192
  0
VERTEX
  8
leaf_3
 10
173.091195
 20
297.321928
 30
-85.012664
 70
   192
  0
VERTEX
  8
leaf_3
 10
198.352337
 20
298.634902
 30
9.378851
 70
   192
  0
VERTEX
  8
leaf_3
 10
173.617562
 20
292.087203
 30
103.740168
 70
   192
  0
VERTEX
  8
leaf_3
 10
105.514531
 20
279.433280
 30
172.787248
 70
   192
  0
VERTEX
  8
leaf_3
 10
-79.738053
 20
953.165519
 30
16.652712
 70
   192
  0
VERTEX
  8
leaf_3
 10
-81.984472
 20
259.163657
 30
-154.254948
 70
   192
  0
VERTEX
  8
leaf_3
 10
0.0
 20
0.0
 30
0.0
 70
   128
 71
   1
 72
   2
 73
   12
  0
VERTEX
  8
leaf_3
 10
0.0
 20
0.0
 30
0.0
 70
   128
 71
   2
 72
   3
 73
   12
  0
VERTEX
  8
leaf_3
 10
0.0
 20
0.0
 30
0.0
 70
   128
 71
   3
 72
   4
 73
   12
  0
VERTEX
  8
leaf_3
 10
0.0
 20
0.0
 30
0.0
 70
   128
 71
   4
 72
   5
 73
   12
  0
VERTEX
  8
leaf_3
 10
0.0
 20
0.0
 30
0.0
 70
   128
 71
   5
 72
   13
 73
   12
  0
VERTEX
  8
leaf_3
 10
0.0
 20
0.0
 30
0.0
 70
   128
 71
   13
 72
   6
 73
   12
  0
VERTEX
  8
leaf_3
 10
0.0
 20
0.0
 30
0.0
 70
   128
 71
   6
 72
   7
 73
   12
  0
VERTEX
  8
leaf_3
 10
0.0
 20
0.0
 30
0.0
 70
   128
 71
   7
 72
   8
 73
   12
  0
VERTEX
  8
leaf_3
 10
0.0
 20
0.0
 30
0.0
 70
   128
 71
   8
 72
   9
 73
   12
  0
VERTEX
  8
leaf_3
 10
0.0
 20
0.0
 30
0.0
 70
   128
 71
   9
 72
   10
 73
   12
  0
VERTEX
  8
leaf_3
 10
0.0
 20
0.0
 30
0.0
 70
   128
 71
   10
 72
   11
 73
   12
  0
VERTEX
  8
leaf_3
 10
0.0
 20
0.0
 30
0.0
 70
   128
 71
   11
 72
   1
 73
   12
  0
VERTEX
  8
leaf_3
 10
0.0
 20
0.0
 30
0.0
 70
   128
 71
   11
 72
   10
 73
   9
  0
VERTEX
  8
leaf_3
 10
0.0
 20
0.0
 30
0.0
 70
   128
 71
   11
 72
   9
 73
   8
  0
VERTEX
  8
leaf_3
 10
0.0
 20
0.0
 30
0.0
 70
   128
 71
   11
 72
   8
 73
   6
  0
VERTEX
  8
leaf_3
 10
0.0
 20
0.0
 30
0.0
 70
   128
 71
   11
 72
   6
 73
   2
  0
VERTEX
  8
leaf_3
 10
0.0
 20
0.0
 30
0.0
 70
   128
 71
   11
 72
   2
 73
   1
  0
VERTEX
  8
leaf_3
 10
0.0
 20
0.0
 30
0.0
 70
   128
 71
   8
 72
   7
 73
   6
  0
VERTEX
  8
leaf_3
 10
0.0
 20
0.0
 30
0.0
 70
   128
 71
   6
 72
   13
 73
   2
  0
VERTEX
  8
leaf_3
 10
0.0
 20
0.0
 30
0.0
 70
   128
 71
   13
 72
   5
 73
   4
  0
VERTEX
  8
leaf_3
 10
0.0
 20
0.0
 30
0.0
 70
   128
 71
   13
 72
   4
 73
   2
  0
VERTEX
  8
leaf_3
 10
0.0
 20
0.0
 30
0.0
 70
   128
 71
   4
 72
   3
 73
   2
  0
SEQEND
  0
POLYLINE
  8
leaf_4
 66
   1
 10
0.0
 20
0.0
 30
0.0
 70
   64
 71
   24
 72
   34
  0
VERTEX
  8
leaf_4
 10
-180.517170
 20
148.054162
 30
16.138470
 70
   192
  0
VERTEX
  8
leaf_4
 10
-81.718046
 20
153.960423
 30
-155.292135
 70
   192
  0
VERTEX
  8
leaf_4
 10
17.081078
 20
159.866683
 30
-181.812542
 70
   192
  0
VERTEX
  8
leaf_4
 10
115.880202
 20
165.772943
 30
-155.292135
 70
   192
  0
VERTEX
  8
leaf_4
 10
188.206180
 20
170.096626
 30
-82.837036
 70
   192
  0
VERTEX
  8
leaf_4
 10
214.679326
 20
171.679204
 30
16.138470
 70
   192
  0
VERTEX
  8
leaf_4
 10
188.206180
 20
170.096626
 30
115.113976
 70
   192
  0
VERTEX
  8
leaf_4
 10
115.880202
 20
165.772944
 30
187.569075
 70
   192
  0
VERTEX
  8
leaf_4
 10
-81.718046
 20
153.960423
 30
187.569075
 70
   192
  0
VERTEX
  8
leaf_4
 10
-135.901708
 20
386.345173
 30
16.138470
 70
   192
  0
VERTEX
  8
leaf_4
 10
-117.329928
 20
387.747673
 30
-53.369713
 70
   192
  0
VERTEX
  8
leaf_4
 10
-66.590882
 20
391.579373
 30
-104.253234
 70
   192
  0
VERTEX
  8
leaf_4
 10
2.719944
 20
396.813573
 30
-122.877895
 70
   192
  0
VERTEX
  8
leaf_4
 10
72.030770
 20
402.047773
 30
-104.253234
 70
   192
  0
VERTEX
  8
leaf_4
 10
122.769816
 20
405.879473
 30
-53.369713
 70
   192
  0
VERTEX
  8
leaf_4
 10
141.341596
 20
407.281973
 30
16.138470
 70
   192
  0
VERTEX
  8
leaf_4
 10
122.769816
 20
405.879473
 30
85.646653
 70
   192
  0
VERTEX
  8
leaf_4
 10
72.030770
 20
402.047773
 30
136.530174
 70
   192
  0
VERTEX
  8
leaf_4
 10
2.719944
 20
396.813573
 30
155.154835
 70
   192
  0
VERTEX
  8
leaf_4
 10
-66.590882
 20
391.579373
 30
136.530174
 70
   192
  0
VERTEX
  8
leaf_4
 10
-117.329928
 20
387.747673
 30
85.646653
 70
   192
  0
VERTEX
  8
leaf_4
 10
-154.044024
 20
149.636740
 30
-82.837036
 70
   192
  0
VERTEX
  8
leaf_4
 10
17.081078
 20
159.866683
 30
214.089482
 70
   192
  0
VERTEX
  8
leaf_4
 10
-154.044024
 20
149.636740
 30
115.113976
 70
   192
  0
VERTEX
  8
leaf_4
 10
0.0
 20
0.0
 30
0.0
 70
   128
 71
   1
 72
   22
 73
   11
  0
VERTEX
  8
leaf_4
 10
0.0
 20
0.0
 30
0.0
 70
   128
 71
   22
 72
   2
 73
   12
  0
VERTEX
  8
leaf_4
 10
0.0
 20
0.0
 30
0.0
 70
   128
 71
   2
 72
   3
 73
   13
  0
VERTEX
  8
leaf_4
 10
0.0
 20
0.0
 30
0.0
 70
   128
 71
   3
 72
   4
 73
   14
  0
VERTEX
  8
leaf_4
 10
0.0
 20
0.0
 30
0.0
 70
   128
 71
   4
 72
   5
 73
   15
  0
VERTEX
  8
leaf_4
 10
0.0
 20
0.0
 30
0.0
 70
   128
 71
   5
 72
   6
 73
   16
  0
VERTEX
  8
leaf_4
 10
0.0
 20
0.0
 30
0.0
 70
   128
 71
   6
 72
   7
 73
   17
  0
VERTEX
  8
leaf_4
 10
0.0
 20
0.0
 30
0.0
 70
   128
 71
   7
 72
   8
 73
   18
  0
VERTEX
  8
leaf_4
 10
0.0
 20
0.0
 30
0.0
 70
   128
 71
   8
 72
   23
 73
   19
  0
VERTEX
  8
leaf_4
 10
0.0
 20
0.0
 30
0.0
 70
   128
 71
   23
 72
   9
 73
   20
  0
VERTEX
  8
leaf_4
 10
0.0
 20
0.0
 30
0.0
 70
   128
 71
   9
 72
   24
 73
   21
  0
VERTEX
  8
leaf_4
 10
0.0
 20
0.0
 30
0.0
 70
   128
 71
   24
 72
   1
 73
   10
  0
VERTEX
  8
leaf_4
 10
0.0
 20
0.0
 30
0.0
 70
   128
 71
   24
 72
   2
 73
   22
  0
VERTEX
  8
leaf_4
 10
0.0
 20
0.0
 30
0.0
 70
   128
 71
   24
 72
   22
 73
   1
  0
VERTEX
  8
leaf_4
 10
0.0
 20
0.0
 30
0.0
 70
   128
 71
   24
 72
   9
 73
   2
  0
VERTEX
  8
leaf_4
 10
0.0
 20
0.0
 30
0.0
 70
   128
 71
   9
 72
   8
 73
   2
  0
VERTEX
  8
leaf_4
 10
0.0
 20
0.0
 30
0.0
 70
   128
 71
   9
 72
   23
 73
   8
  0
VERTEX
  8
leaf_4
 10
0.0
 20
0.0
 30
0.0
 70
   128
 71
   8
 72
   7
 73
   4
  0
VERTEX
  8
leaf_4
 10
0.0
 20
0.0
 30
0.0
 70
   128
 71
   8
 72
   4
 73
   2
  0
VERTEX
  8
leaf_4
 10
0.0
 20
0.0
 30
0.0
 70
   128
 71
   7
 72
   6
 73
   4
  0
VERTEX
  8
leaf_4
 10
0.0
 20
0.0
 30
0.0
 70
   128
 71
   6
 72
   5
 73
   4
  0
VERTEX
  8
leaf_4
 10
0.0
 20
0.0
 30
0.0
 70
   128
 71
   4
 72
   3
 73
   2
  0
VERTEX
  8
leaf_4
 10
0.0
 20
0.0
 30
0.0
 70
   128
 71
   1
 72
   11
 73
   10
  0
VERTEX
  8
leaf_4
 10
0.0
 20
0.0
 30
0.0
 70
   128
 71
   22
 72
   12
 73
   11
  0
VERTEX
  8
leaf_4
 10
0.0
 20
0.0
 30
0.0
 70
   128
 71
   2
 72
   13
 73
   12
  0
VERTEX
  8
leaf_4
 10
0.0
 20
0.0
 30
0.0
 70
   128
 71
   3
 72
   14
 73
   13
  0
VERTEX
  8
leaf_4
 10
0.0
 20
0.0
 30
0.0
 70
   128
 71
   4
 72
   15
 73
   14
  0
VERTEX
  8
leaf_4
 10
0.0
 20
0.0
 30
0.0
 70
   128
 71
   5
 72
   16
 73
   15
  0
VERTEX
  8
leaf_4
 10
0.0
 20
0.0
 30
0.0
 70
   128
 71
   6
 72
   17
 73
   16
  0
VERTEX
  8
leaf_4
 10
0.0
 20
0.0
 30
0.0
 70
   128
 71
   7
 72
   18
 73
   17
  0
VERTEX
  8
leaf_4
 10
0.0
 20
0.0
 30
0.0
 70
   128
 71
   8
 72
   19
 73
   18
  0
VERTEX
  8
leaf_4
 10
0.0
 20
0.0
 30
0.0
 70
   128
 71
   23
 72
   20
 73
   19
  0
VERTEX
  8
leaf_4
 10
0.0
 20
0.0
 30
0.0
 70
   128
 71
   9
 72
   21
 73
   20
  0
VERTEX
  8
leaf_4
 10
0.0
 20
0.0
 30
0.0
 70
   128
 71
   24
 72
   10
 73
   21
  0
SEQEND
  0
POLYLINE
  8
bark
 66
   1
 10
0.0
 20
0.0
 30
0.0
 70
   64
 71
   12
 72
   20
  0
VERTEX
  8
bark
 10
0.000003
 20
-0.000000
 30
37.363558
 70
   192
  0
VERTEX
  8
bark
 10
-32.356176
 20
0.387842
 30
18.681782
 70
   192
  0
VERTEX
  8
bark
 10
-32.356179
 20
0.387842
 30
-18.681776
 70
   192
  0
VERTEX
  8
bark
 10
-0.000003
 20
0.000000
 30
-37.363558
 70
   192
  0
VERTEX
  8
bark
 10
32.356176
 20
-0.387842
 30
-18.681782
 70
   192
  0
VERTEX
  8
bark
 10
32.356179
 20
-0.387842
 30
18.681776
 70
   192
  0
VERTEX
  8
bark
 10
2.376322
 20
285.649918
 30
16.813601
 70
   192
  0
VERTEX
  8
bark
 10
-12.183959
 20
285.824447
 30
8.406802
 70
   192
  0
VERTEX
  8
bark
 10
-12.183960
 20
285.824447
 30
-8.406799
 70
   192
  0
VERTEX
  8
bark
 10
2.376319
 20
285.649918
 30
-16.813601
 70
   192
  0
VERTEX
  8
bark
 10
16.936599
 20
285.475389
 30
-8.406802
 70
   192
  0
VERTEX
  8
bark
 10
16.936601
 20
285.475389
 30
8.406799
 70
   192
  0
VERTEX
  8
bark
 10
0.0
 20
0.0
 30
0.0
 70
   128
 71
   1
 72
   2
 73
   8
  0
VERTEX
  8
bark
 10
0.0
 20
0.0
 30
0.0
 70
   128
 71
   2
 72
   3
 73
   9
  0
VERTEX
  8
bark
 10
0.0
 20
0.0
 30
0.0
 70
   128
 71
   3
 72
   4
 73
   10
  0
VERTEX
  8
bark
 10
0.0
 20
0.0
 30
0.0
 70
   128
 71
   4
 72
   5
 73
   11
  0
VERTEX
  8
bark
 10
0.0
 20
0.0
 30
0.0
 70
   128
 71
   5
 72
   6
 73
   12
  0
VERTEX
  8
bark
 10
0.0
 20
0.0
 30
0.0
 70
   128
 71
   6
 72
   1
 73
   7
  0
VERTEX
  8
bark
 10
0.0
 20
0.0
 30
0.0
 70
   128
 71
   6
 72
   5
 73
   2
  0
VERTEX
  8
bark
 10
0.0
 20
0.0
 30
0.0
 70
   128
 71
   6
 72
   2
 73
   1
  0
VERTEX
  8
bark
 10
0.0
 20
0.0
 30
0.0
 70
   128
 71
   5
 72
   4
 73
   3
  0
VERTEX
  8
bark
 10
0.0
 20
0.0
 30
0.0
 70
   128
 71
   5
 72
   3
 73
   2
  0
VERTEX
  8
bark
 10
0.0
 20
0.0
 30
0.0
 70
   128
 71
   7
 72
   8
 73
   11
  0
VERTEX
  8
bark
 10
0.0
 20
0.0
 30
0.0
 70
   128
 71
   7
 72
   11
 73
   12
  0
VERTEX
  8
bark
 10
0.0
 20
0.0
 30
0.0
 70
   128
 71
   8
 72
   9
 73
   11
  0
VERTEX
  8
bark
 10
0.0
 20
0.0
 30
0.0
 70
   128
 71
   9
 72
   10
 73
   11
  0
VERTEX
  8
bark
 10
0.0
 20
0.0
 30
0.0
 70
   128
 71
   1
 72
   8
 73
   7
  0
VERTEX
  8
bark
 10
0.0
 20
0.0
 30
0.0
 70
   128
 71
   2
 72
   9
 73
   8
  0
VERTEX
  8
bark
 10
0.0
 20
0.0
 30
0.0
 70
   128
 71
   3
 72
   10
 73
   9
  0
VERTEX
  8
bark
 10
0.0
 20
0.0
 30
0.0
 70
   128
 71
   4
 72
   11
 73
   10
  0
VERTEX
  8
bark
 10
0.0
 20
0.0
 30
0.0
 70
   128
 71
   5
 72
   12
 73
   11
  0
VERTEX
  8
bark
 10
0.0
 20
0.0
 30
0.0
 70
   128
 71
   6
 72
   7
 73
   12
  0
SEQEND
  0
ENDSEC
  0
EOF
