999
FBX AutoCAD (*.DXF) exporter
  0
SECTION
  2
HEADER
  9
$ACADVER
  1
AC1008
  9
$UCSORG
 10
0.0
 20
0.0
 30
0.0
  9
$UCSXDIR
 10
1.0
 20
0.0
 30
0.0
  9
$TILEMODE
 70
   1
  9
$UCSYDIR
 10
0.0
 20
1.0
 30
0.0
  0
ENDSEC
  0
SECTION
  2
TABLES
  0
TABLE
  2
LTYPE
 70
   1
  0
LTYPE
  2
CONTINUOUS
 70
   64
  3
Solid line
 72
   65
 73
   0
 40
0.0
  0
ENDTAB
  0
TABLE
  2
LAYER
 70
   6
  0
LAYER
  2
leaf
 70
   0
 62
   250
  6
CONTINUOUS
  0
LAYER
  2
leaf_2
 70
   0
 62
   250
  6
CONTINUOUS
  0
LAYER
  2
leaf_3
 70
   0
 62
   250
  6
CONTINUOUS
  0
LAYER
  2
leaf_4
 70
   0
 62
   250
  6
CONTINUOUS
  0
LAYER
  2
bark
 70
   0
 62
   250
  6
CONTINUOUS
  0
ENDTAB
  0
ENDSEC
  0
SECTION
  2
BLOCKS
  0
ENDSEC
  0
SECTION
  2
ENTITIES
  0
POLYLINE
  8
leaf
 66
   1
 10
0.0
 20
0.0
 30
0.0
 70
   64
 71
   18
 72
   32
  0
VERTEX
  8
leaf
 10
-367.269304
 20
422.130004
 30
-108.569812
 70
   192
  0
VERTEX
  8
leaf
 10
-212.480563
 20
422.130004
 30
46.218930
 70
   192
  0
VERTEX
  8
leaf
 10
-57.691821
 20
422.130004
 30
-108.569812
 70
   192
  0
VERTEX
  8
leaf
 10
-212.480563
 20
422.130004
 30
-263.358553
 70
   192
  0
VERTEX
  8
leaf
 10
-212.480563
 20
576.148652
 30
-108.569812
 70
   192
  0
VERTEX
  8
leaf
 10
-212.480563
 20
268.111355
 30
-108.569812
 70
   192
  0
VERTEX
  8
leaf
 10
-212.480563
 20
531.037635
 30
0.882357
 70
   192
  0
VERTEX
  8
leaf
 10
-321.932732
 20
422.130004
 30
0.882357
 70
   192
  0
VERTEX
  8
leaf
 10
-321.932732
 20
531.037635
 30
-108.569812
 70
   192
  0
VERTEX
  8
leaf
 10
-103.028394
 20
531.037635
 30
-108.569812
 70
   192
  0
VERTEX
  8
leaf
 10
-103.028394
 20
422.130004
 30
0.882357
 70
   192
  0
VERTEX
  8
leaf
 10
-212.480563
 20
531.037635
 30
-218.021981
 70
   192
  0
VERTEX
  8
leaf
 10
-103.028394
 20
422.130004
 30
-218.021981
 70
   192
  0
VERTEX
  8
leaf
 10
-321.932732
 20
422.130004
 30
-218.021981
 70
   192
  0
VERTEX
  8
leaf
 10
-321.932732
 20
313.222373
 30
-108.569812
 70
   192
  0
VERTEX
  8
leaf
 10
-212.480563
 20
313.222373
 30
0.882357
 70
   192
  0
VERTEX
  8
leaf
 10
-103.028394
 20
313.222373
 30
-108.569812
 70
   192
  0
VERTEX
  8
leaf
 10
-212.480563
 20
313.222373
 30
-218.021981
 70
   192
  0
VERTEX
  8
leaf
 10
0.0
 20
0.0
 30
0.0
 70
   128
 71
   5
 72
   7
 73
   9
  0
VERTEX
  8
leaf
 10
0.0
 20
0.0
 30
0.0
 70
   128
 71
   7
 72
   2
 73
   8
  0
VERTEX
  8
leaf
 10
0.0
 20
0.0
 30
0.0
 70
   128
 71
   8
 72
   9
 73
   7
  0
VERTEX
  8
leaf
 10
0.0
 20
0.0
 30
0.0
 70
   128
 71
   9
 72
   8
 73
   1
  0
VERTEX
  8
leaf
 10
0.0
 20
0.0
 30
0.0
 70
   128
 71
   5
 72
   10
 73
   7
  0
VERTEX
  8
leaf
 10
0.0
 20
0.0
 30
0.0
 70
   128
 71
   10
 72
   3
 73
   11
  0
VERTEX
  8
leaf
 10
0.0
 20
0.0
 30
0.0
 70
   128
 71
   11
 72
   7
 73
   10
  0
VERTEX
  8
leaf
 10
0.0
 20
0.0
 30
0.0
 70
   128
 71
   7
 72
   11
 73
   2
  0
VERTEX
  8
leaf
 10
0.0
 20
0.0
 30
0.0
 70
   128
 71
   5
 72
   12
 73
   10
  0
VERTEX
  8
leaf
 10
0.0
 20
0.0
 30
0.0
 70
   128
 71
   12
 72
   4
 73
   13
  0
VERTEX
  8
leaf
 10
0.0
 20
0.0
 30
0.0
 70
   128
 71
   13
 72
   10
 73
   12
  0
VERTEX
  8
leaf
 10
0.0
 20
0.0
 30
0.0
 70
   128
 71
   10
 72
   13
 73
   3
  0
VERTEX
  8
leaf
 10
0.0
 20
0.0
 30
0.0
 70
   128
 71
   5
 72
   9
 73
   12
  0
VERTEX
  8
leaf
 10
0.0
 20
0.0
 30
0.0
 70
   128
 71
   9
 72
   1
 73
   14
  0
VERTEX
  8
leaf
 10
0.0
 20
0.0
 30
0.0
 70
   128
 71
   14
 72
   12
 73
   9
  0
VERTEX
  8
leaf
 10
0.0
 20
0.0
 30
0.0
 70
   128
 71
   12
 72
   14
 73
   4
  0
VERTEX
  8
leaf
 10
0.0
 20
0.0
 30
0.0
 70
   128
 71
   6
 72
   15
 73
   16
  0
VERTEX
  8
leaf
 10
0.0
 20
0.0
 30
0.0
 70
   128
 71
   15
 72
   1
 73
   8
  0
VERTEX
  8
leaf
 10
0.0
 20
0.0
 30
0.0
 70
   128
 71
   8
 72
   16
 73
   15
  0
VERTEX
  8
leaf
 10
0.0
 20
0.0
 30
0.0
 70
   128
 71
   16
 72
   8
 73
   2
  0
VERTEX
  8
leaf
 10
0.0
 20
0.0
 30
0.0
 70
   128
 71
   6
 72
   16
 73
   17
  0
VERTEX
  8
leaf
 10
0.0
 20
0.0
 30
0.0
 70
   128
 71
   16
 72
   2
 73
   11
  0
VERTEX
  8
leaf
 10
0.0
 20
0.0
 30
0.0
 70
   128
 71
   11
 72
   17
 73
   16
  0
VERTEX
  8
leaf
 10
0.0
 20
0.0
 30
0.0
 70
   128
 71
   17
 72
   11
 73
   3
  0
VERTEX
  8
leaf
 10
0.0
 20
0.0
 30
0.0
 70
   128
 71
   6
 72
   17
 73
   18
  0
VERTEX
  8
leaf
 10
0.0
 20
0.0
 30
0.0
 70
   128
 71
   17
 72
   3
 73
   13
  0
VERTEX
  8
leaf
 10
0.0
 20
0.0
 30
0.0
 70
   128
 71
   13
 72
   18
 73
   17
  0
VERTEX
  8
leaf
 10
0.0
 20
0.0
 30
0.0
 70
   128
 71
   18
 72
   13
 73
   4
  0
VERTEX
  8
leaf
 10
0.0
 20
0.0
 30
0.0
 70
   128
 71
   6
 72
   18
 73
   15
  0
VERTEX
  8
leaf
 10
0.0
 20
0.0
 30
0.0
 70
   128
 71
   18
 72
   4
 73
   14
  0
VERTEX
  8
leaf
 10
0.0
 20
0.0
 30
0.0
 70
   128
 71
   14
 72
   15
 73
   18
  0
VERTEX
  8
leaf
 10
0.0
 20
0.0
 30
0.0
 70
   128
 71
   15
 72
   14
 73
   1
  0
SEQEND
  0
POLYLINE
  8
leaf_2
 66
   1
 10
0.0
 20
0.0
 30
0.0
 70
   64
 71
   18
 72
   32
  0
VERTEX
  8
leaf_2
 10
68.775729
 20
342.296317
 30
16.882314
 70
   192
  0
VERTEX
  8
leaf_2
 10
161.448215
 20
342.296317
 30
109.554800
 70
   192
  0
VERTEX
  8
leaf_2
 10
254.120700
 20
342.296317
 30
16.882314
 70
   192
  0
VERTEX
  8
leaf_2
 10
161.448215
 20
342.296317
 30
-75.790171
 70
   192
  0
VERTEX
  8
leaf_2
 10
161.448215
 20
434.507745
 30
16.882314
 70
   192
  0
VERTEX
  8
leaf_2
 10
161.448215
 20
250.084889
 30
16.882314
 70
   192
  0
VERTEX
  8
leaf_2
 10
161.448215
 20
407.499643
 30
82.411657
 70
   192
  0
VERTEX
  8
leaf_2
 10
95.918872
 20
342.296317
 30
82.411657
 70
   192
  0
VERTEX
  8
leaf_2
 10
95.918872
 20
407.499643
 30
16.882314
 70
   192
  0
VERTEX
  8
leaf_2
 10
226.977557
 20
407.499643
 30
16.882314
 70
   192
  0
VERTEX
  8
leaf_2
 10
226.977557
 20
342.296317
 30
82.411657
 70
   192
  0
VERTEX
  8
leaf_2
 10
161.448215
 20
407.499643
 30
-48.647028
 70
   192
  0
VERTEX
  8
leaf_2
 10
226.977557
 20
342.296317
 30
-48.647028
 70
   192
  0
VERTEX
  8
leaf_2
 10
95.918872
 20
342.296317
 30
-48.647028
 70
   192
  0
VERTEX
  8
leaf_2
 10
95.918872
 20
277.092991
 30
16.882314
 70
   192
  0
VERTEX
  8
leaf_2
 10
161.448215
 20
277.092991
 30
82.411657
 70
   192
  0
VERTEX
  8
leaf_2
 10
226.977557
 20
277.092991
 30
16.882314
 70
   192
  0
VERTEX
  8
leaf_2
 10
161.448215
 20
277.092991
 30
-48.647028
 70
   192
  0
VERTEX
  8
leaf_2
 10
0.0
 20
0.0
 30
0.0
 70
   128
 71
   5
 72
   7
 73
   9
  0
VERTEX
  8
leaf_2
 10
0.0
 20
0.0
 30
0.0
 70
   128
 71
   7
 72
   2
 73
   8
  0
VERTEX
  8
leaf_2
 10
0.0
 20
0.0
 30
0.0
 70
   128
 71
   8
 72
   9
 73
   7
  0
VERTEX
  8
leaf_2
 10
0.0
 20
0.0
 30
0.0
 70
   128
 71
   9
 72
   8
 73
   1
  0
VERTEX
  8
leaf_2
 10
0.0
 20
0.0
 30
0.0
 70
   128
 71
   5
 72
   10
 73
   7
  0
VERTEX
  8
leaf_2
 10
0.0
 20
0.0
 30
0.0
 70
   128
 71
   10
 72
   3
 73
   11
  0
VERTEX
  8
leaf_2
 10
0.0
 20
0.0
 30
0.0
 70
   128
 71
   11
 72
   7
 73
   10
  0
VERTEX
  8
leaf_2
 10
0.0
 20
0.0
 30
0.0
 70
   128
 71
   7
 72
   11
 73
   2
  0
VERTEX
  8
leaf_2
 10
0.0
 20
0.0
 30
0.0
 70
   128
 71
   5
 72
   12
 73
   10
  0
VERTEX
  8
leaf_2
 10
0.0
 20
0.0
 30
0.0
 70
   128
 71
   12
 72
   4
 73
   13
  0
VERTEX
  8
leaf_2
 10
0.0
 20
0.0
 30
0.0
 70
   128
 71
   13
 72
   10
 73
   12
  0
VERTEX
  8
leaf_2
 10
0.0
 20
0.0
 30
0.0
 70
   128
 71
   10
 72
   13
 73
   3
  0
VERTEX
  8
leaf_2
 10
0.0
 20
0.0
 30
0.0
 70
   128
 71
   5
 72
   9
 73
   12
  0
VERTEX
  8
leaf_2
 10
0.0
 20
0.0
 30
0.0
 70
   128
 71
   9
 72
   1
 73
   14
  0
VERTEX
  8
leaf_2
 10
0.0
 20
0.0
 30
0.0
 70
   128
 71
   14
 72
   12
 73
   9
  0
VERTEX
  8
leaf_2
 10
0.0
 20
0.0
 30
0.0
 70
   128
 71
   12
 72
   14
 73
   4
  0
VERTEX
  8
leaf_2
 10
0.0
 20
0.0
 30
0.0
 70
   128
 71
   6
 72
   15
 73
   16
  0
VERTEX
  8
leaf_2
 10
0.0
 20
0.0
 30
0.0
 70
   128
 71
   15
 72
   1
 73
   8
  0
VERTEX
  8
leaf_2
 10
0.0
 20
0.0
 30
0.0
 70
   128
 71
   8
 72
   16
 73
   15
  0
VERTEX
  8
leaf_2
 10
0.0
 20
0.0
 30
0.0
 70
   128
 71
   16
 72
   8
 73
   2
  0
VERTEX
  8
leaf_2
 10
0.0
 20
0.0
 30
0.0
 70
   128
 71
   6
 72
   16
 73
   17
  0
VERTEX
  8
leaf_2
 10
0.0
 20
0.0
 30
0.0
 70
   128
 71
   16
 72
   2
 73
   11
  0
VERTEX
  8
leaf_2
 10
0.0
 20
0.0
 30
0.0
 70
   128
 71
   11
 72
   17
 73
   16
  0
VERTEX
  8
leaf_2
 10
0.0
 20
0.0
 30
0.0
 70
   128
 71
   17
 72
   11
 73
   3
  0
VERTEX
  8
leaf_2
 10
0.0
 20
0.0
 30
0.0
 70
   128
 71
   6
 72
   17
 73
   18
  0
VERTEX
  8
leaf_2
 10
0.0
 20
0.0
 30
0.0
 70
   128
 71
   17
 72
   3
 73
   13
  0
VERTEX
  8
leaf_2
 10
0.0
 20
0.0
 30
0.0
 70
   128
 71
   13
 72
   18
 73
   17
  0
VERTEX
  8
leaf_2
 10
0.0
 20
0.0
 30
0.0
 70
   128
 71
   18
 72
   13
 73
   4
  0
VERTEX
  8
leaf_2
 10
0.0
 20
0.0
 30
0.0
 70
   128
 71
   6
 72
   18
 73
   15
  0
VERTEX
  8
leaf_2
 10
0.0
 20
0.0
 30
0.0
 70
   128
 71
   18
 72
   4
 73
   14
  0
VERTEX
  8
leaf_2
 10
0.0
 20
0.0
 30
0.0
 70
   128
 71
   14
 72
   15
 73
   18
  0
VERTEX
  8
leaf_2
 10
0.0
 20
0.0
 30
0.0
 70
   128
 71
   15
 72
   14
 73
   1
  0
SEQEND
  0
POLYLINE
  8
leaf_3
 66
   1
 10
0.0
 20
0.0
 30
0.0
 70
   64
 71
   18
 72
   32
  0
VERTEX
  8
leaf_3
 10
61.131723
 20
422.395187
 30
123.735118
 70
   192
  0
VERTEX
  8
leaf_3
 10
176.298889
 20
422.395187
 30
238.902285
 70
   192
  0
VERTEX
  8
leaf_3
 10
291.466056
 20
422.395187
 30
123.735118
 70
   192
  0
VERTEX
  8
leaf_3
 10
176.298889
 20
422.395187
 30
8.567951
 70
   192
  0
VERTEX
  8
leaf_3
 10
176.298889
 20
536.989383
 30
123.735118
 70
   192
  0
VERTEX
  8
leaf_3
 10
176.298889
 20
307.800992
 30
123.735118
 70
   192
  0
VERTEX
  8
leaf_3
 10
176.298889
 20
503.425520
 30
205.170603
 70
   192
  0
VERTEX
  8
leaf_3
 10
94.863405
 20
422.395187
 30
205.170603
 70
   192
  0
VERTEX
  8
leaf_3
 10
94.863405
 20
503.425520
 30
123.735118
 70
   192
  0
VERTEX
  8
leaf_3
 10
257.734374
 20
503.425520
 30
123.735118
 70
   192
  0
VERTEX
  8
leaf_3
 10
257.734374
 20
422.395187
 30
205.170603
 70
   192
  0
VERTEX
  8
leaf_3
 10
176.298889
 20
503.425520
 30
42.299633
 70
   192
  0
VERTEX
  8
leaf_3
 10
257.734374
 20
422.395187
 30
42.299633
 70
   192
  0
VERTEX
  8
leaf_3
 10
94.863405
 20
422.395187
 30
42.299633
 70
   192
  0
VERTEX
  8
leaf_3
 10
94.863405
 20
341.364854
 30
123.735118
 70
   192
  0
VERTEX
  8
leaf_3
 10
176.298889
 20
341.364854
 30
205.170603
 70
   192
  0
VERTEX
  8
leaf_3
 10
257.734374
 20
341.364854
 30
123.735118
 70
   192
  0
VERTEX
  8
leaf_3
 10
176.298889
 20
341.364854
 30
42.299633
 70
   192
  0
VERTEX
  8
leaf_3
 10
0.0
 20
0.0
 30
0.0
 70
   128
 71
   5
 72
   7
 73
   9
  0
VERTEX
  8
leaf_3
 10
0.0
 20
0.0
 30
0.0
 70
   128
 71
   7
 72
   2
 73
   8
  0
VERTEX
  8
leaf_3
 10
0.0
 20
0.0
 30
0.0
 70
   128
 71
   8
 72
   9
 73
   7
  0
VERTEX
  8
leaf_3
 10
0.0
 20
0.0
 30
0.0
 70
   128
 71
   9
 72
   8
 73
   1
  0
VERTEX
  8
leaf_3
 10
0.0
 20
0.0
 30
0.0
 70
   128
 71
   5
 72
   10
 73
   7
  0
VERTEX
  8
leaf_3
 10
0.0
 20
0.0
 30
0.0
 70
   128
 71
   10
 72
   3
 73
   11
  0
VERTEX
  8
leaf_3
 10
0.0
 20
0.0
 30
0.0
 70
   128
 71
   11
 72
   7
 73
   10
  0
VERTEX
  8
leaf_3
 10
0.0
 20
0.0
 30
0.0
 70
   128
 71
   7
 72
   11
 73
   2
  0
VERTEX
  8
leaf_3
 10
0.0
 20
0.0
 30
0.0
 70
   128
 71
   5
 72
   12
 73
   10
  0
VERTEX
  8
leaf_3
 10
0.0
 20
0.0
 30
0.0
 70
   128
 71
   12
 72
   4
 73
   13
  0
VERTEX
  8
leaf_3
 10
0.0
 20
0.0
 30
0.0
 70
   128
 71
   13
 72
   10
 73
   12
  0
VERTEX
  8
leaf_3
 10
0.0
 20
0.0
 30
0.0
 70
   128
 71
   10
 72
   13
 73
   3
  0
VERTEX
  8
leaf_3
 10
0.0
 20
0.0
 30
0.0
 70
   128
 71
   5
 72
   9
 73
   12
  0
VERTEX
  8
leaf_3
 10
0.0
 20
0.0
 30
0.0
 70
   128
 71
   9
 72
   1
 73
   14
  0
VERTEX
  8
leaf_3
 10
0.0
 20
0.0
 30
0.0
 70
   128
 71
   14
 72
   12
 73
   9
  0
VERTEX
  8
leaf_3
 10
0.0
 20
0.0
 30
0.0
 70
   128
 71
   12
 72
   14
 73
   4
  0
VERTEX
  8
leaf_3
 10
0.0
 20
0.0
 30
0.0
 70
   128
 71
   6
 72
   15
 73
   16
  0
VERTEX
  8
leaf_3
 10
0.0
 20
0.0
 30
0.0
 70
   128
 71
   15
 72
   1
 73
   8
  0
VERTEX
  8
leaf_3
 10
0.0
 20
0.0
 30
0.0
 70
   128
 71
   8
 72
   16
 73
   15
  0
VERTEX
  8
leaf_3
 10
0.0
 20
0.0
 30
0.0
 70
   128
 71
   16
 72
   8
 73
   2
  0
VERTEX
  8
leaf_3
 10
0.0
 20
0.0
 30
0.0
 70
   128
 71
   6
 72
   16
 73
   17
  0
VERTEX
  8
leaf_3
 10
0.0
 20
0.0
 30
0.0
 70
   128
 71
   16
 72
   2
 73
   11
  0
VERTEX
  8
leaf_3
 10
0.0
 20
0.0
 30
0.0
 70
   128
 71
   11
 72
   17
 73
   16
  0
VERTEX
  8
leaf_3
 10
0.0
 20
0.0
 30
0.0
 70
   128
 71
   17
 72
   11
 73
   3
  0
VERTEX
  8
leaf_3
 10
0.0
 20
0.0
 30
0.0
 70
   128
 71
   6
 72
   17
 73
   18
  0
VERTEX
  8
leaf_3
 10
0.0
 20
0.0
 30
0.0
 70
   128
 71
   17
 72
   3
 73
   13
  0
VERTEX
  8
leaf_3
 10
0.0
 20
0.0
 30
0.0
 70
   128
 71
   13
 72
   18
 73
   17
  0
VERTEX
  8
leaf_3
 10
0.0
 20
0.0
 30
0.0
 70
   128
 71
   18
 72
   13
 73
   4
  0
VERTEX
  8
leaf_3
 10
0.0
 20
0.0
 30
0.0
 70
   128
 71
   6
 72
   18
 73
   15
  0
VERTEX
  8
leaf_3
 10
0.0
 20
0.0
 30
0.0
 70
   128
 71
   18
 72
   4
 73
   14
  0
VERTEX
  8
leaf_3
 10
0.0
 20
0.0
 30
0.0
 70
   128
 71
   14
 72
   15
 73
   18
  0
VERTEX
  8
leaf_3
 10
0.0
 20
0.0
 30
0.0
 70
   128
 71
   15
 72
   14
 73
   1
  0
SEQEND
  0
POLYLINE
  8
leaf_4
 66
   1
 10
0.0
 20
0.0
 30
0.0
 70
   64
 71
   18
 72
   32
  0
VERTEX
  8
leaf_4
 10
-244.756496
 20
529.496759
 30
0.000000
 70
   192
  0
VERTEX
  8
leaf_4
 10
-5.468080
 20
529.496759
 30
239.288416
 70
   192
  0
VERTEX
  8
leaf_4
 10
233.820337
 20
529.496759
 30
-0.000000
 70
   192
  0
VERTEX
  8
leaf_4
 10
-5.468080
 20
529.496759
 30
-239.288416
 70
   192
  0
VERTEX
  8
leaf_4
 10
-5.468080
 20
767.594686
 30
-0.000000
 70
   192
  0
VERTEX
  8
leaf_4
 10
-5.468080
 20
291.398832
 30
-0.000000
 70
   192
  0
VERTEX
  8
leaf_4
 10
-5.468080
 20
697.857417
 30
169.202462
 70
   192
  0
VERTEX
  8
leaf_4
 10
-174.670542
 20
529.496759
 30
169.202462
 70
   192
  0
VERTEX
  8
leaf_4
 10
-174.670542
 20
697.857417
 30
0.000000
 70
   192
  0
VERTEX
  8
leaf_4
 10
163.734382
 20
697.857417
 30
-0.000000
 70
   192
  0
VERTEX
  8
leaf_4
 10
163.734382
 20
529.496759
 30
169.202462
 70
   192
  0
VERTEX
  8
leaf_4
 10
-5.468080
 20
697.857417
 30
-169.202462
 70
   192
  0
VERTEX
  8
leaf_4
 10
163.734382
 20
529.496759
 30
-169.202462
 70
   192
  0
VERTEX
  8
leaf_4
 10
-174.670542
 20
529.496759
 30
-169.202462
 70
   192
  0
VERTEX
  8
leaf_4
 10
-174.670542
 20
361.136100
 30
0.000000
 70
   192
  0
VERTEX
  8
leaf_4
 10
-5.468080
 20
361.136100
 30
169.202462
 70
   192
  0
VERTEX
  8
leaf_4
 10
163.734382
 20
361.136100
 30
-0.000000
 70
   192
  0
VERTEX
  8
leaf_4
 10
-5.468080
 20
361.136100
 30
-169.202462
 70
   192
  0
VERTEX
  8
leaf_4
 10
0.0
 20
0.0
 30
0.0
 70
   128
 71
   5
 72
   7
 73
   9
  0
VERTEX
  8
leaf_4
 10
0.0
 20
0.0
 30
0.0
 70
   128
 71
   7
 72
   2
 73
   8
  0
VERTEX
  8
leaf_4
 10
0.0
 20
0.0
 30
0.0
 70
   128
 71
   8
 72
   9
 73
   7
  0
VERTEX
  8
leaf_4
 10
0.0
 20
0.0
 30
0.0
 70
   128
 71
   9
 72
   8
 73
   1
  0
VERTEX
  8
leaf_4
 10
0.0
 20
0.0
 30
0.0
 70
   128
 71
   5
 72
   10
 73
   7
  0
VERTEX
  8
leaf_4
 10
0.0
 20
0.0
 30
0.0
 70
   128
 71
   10
 72
   3
 73
   11
  0
VERTEX
  8
leaf_4
 10
0.0
 20
0.0
 30
0.0
 70
   128
 71
   11
 72
   7
 73
   10
  0
VERTEX
  8
leaf_4
 10
0.0
 20
0.0
 30
0.0
 70
   128
 71
   7
 72
   11
 73
   2
  0
VERTEX
  8
leaf_4
 10
0.0
 20
0.0
 30
0.0
 70
   128
 71
   5
 72
   12
 73
   10
  0
VERTEX
  8
leaf_4
 10
0.0
 20
0.0
 30
0.0
 70
   128
 71
   12
 72
   4
 73
   13
  0
VERTEX
  8
leaf_4
 10
0.0
 20
0.0
 30
0.0
 70
   128
 71
   13
 72
   10
 73
   12
  0
VERTEX
  8
leaf_4
 10
0.0
 20
0.0
 30
0.0
 70
   128
 71
   10
 72
   13
 73
   3
  0
VERTEX
  8
leaf_4
 10
0.0
 20
0.0
 30
0.0
 70
   128
 71
   5
 72
   9
 73
   12
  0
VERTEX
  8
leaf_4
 10
0.0
 20
0.0
 30
0.0
 70
   128
 71
   9
 72
   1
 73
   14
  0
VERTEX
  8
leaf_4
 10
0.0
 20
0.0
 30
0.0
 70
   128
 71
   14
 72
   12
 73
   9
  0
VERTEX
  8
leaf_4
 10
0.0
 20
0.0
 30
0.0
 70
   128
 71
   12
 72
   14
 73
   4
  0
VERTEX
  8
leaf_4
 10
0.0
 20
0.0
 30
0.0
 70
   128
 71
   6
 72
   15
 73
   16
  0
VERTEX
  8
leaf_4
 10
0.0
 20
0.0
 30
0.0
 70
   128
 71
   15
 72
   1
 73
   8
  0
VERTEX
  8
leaf_4
 10
0.0
 20
0.0
 30
0.0
 70
   128
 71
   8
 72
   16
 73
   15
  0
VERTEX
  8
leaf_4
 10
0.0
 20
0.0
 30
0.0
 70
   128
 71
   16
 72
   8
 73
   2
  0
VERTEX
  8
leaf_4
 10
0.0
 20
0.0
 30
0.0
 70
   128
 71
   6
 72
   16
 73
   17
  0
VERTEX
  8
leaf_4
 10
0.0
 20
0.0
 30
0.0
 70
   128
 71
   16
 72
   2
 73
   11
  0
VERTEX
  8
leaf_4
 10
0.0
 20
0.0
 30
0.0
 70
   128
 71
   11
 72
   17
 73
   16
  0
VERTEX
  8
leaf_4
 10
0.0
 20
0.0
 30
0.0
 70
   128
 71
   17
 72
   11
 73
   3
  0
VERTEX
  8
leaf_4
 10
0.0
 20
0.0
 30
0.0
 70
   128
 71
   6
 72
   17
 73
   18
  0
VERTEX
  8
leaf_4
 10
0.0
 20
0.0
 30
0.0
 70
   128
 71
   17
 72
   3
 73
   13
  0
VERTEX
  8
leaf_4
 10
0.0
 20
0.0
 30
0.0
 70
   128
 71
   13
 72
   18
 73
   17
  0
VERTEX
  8
leaf_4
 10
0.0
 20
0.0
 30
0.0
 70
   128
 71
   18
 72
   13
 73
   4
  0
VERTEX
  8
leaf_4
 10
0.0
 20
0.0
 30
0.0
 70
   128
 71
   6
 72
   18
 73
   15
  0
VERTEX
  8
leaf_4
 10
0.0
 20
0.0
 30
0.0
 70
   128
 71
   18
 72
   4
 73
   14
  0
VERTEX
  8
leaf_4
 10
0.0
 20
0.0
 30
0.0
 70
   128
 71
   14
 72
   15
 73
   18
  0
VERTEX
  8
leaf_4
 10
0.0
 20
0.0
 30
0.0
 70
   128
 71
   15
 72
   14
 73
   1
  0
SEQEND
  0
POLYLINE
  8
bark
 66
   1
 10
0.0
 20
0.0
 30
0.0
 70
   64
 71
   230
 72
   400
  0
VERTEX
  8
bark
 10
9.888065
 20
159.299883
 30
-0.295172
 70
   192
  0
VERTEX
  8
bark
 10
8.208969
 20
161.472721
 30
9.844772
 70
   192
  0
VERTEX
  8
bark
 10
1.253961
 20
160.657753
 30
17.678253
 70
   192
  0
VERTEX
  8
bark
 10
-8.320382
 20
157.166271
 30
20.213147
 70
   192
  0
VERTEX
  8
bark
 10
-16.856986
 20
152.331901
 30
16.481211
 70
   192
  0
VERTEX
  8
bark
 10
-21.095159
 20
148.001209
 30
7.907917
 70
   192
  0
VERTEX
  8
bark
 10
-19.416063
 20
145.828372
 30
-2.232027
 70
   192
  0
VERTEX
  8
bark
 10
-12.461055
 20
146.643340
 30
-10.065508
 70
   192
  0
VERTEX
  8
bark
 10
-2.886712
 20
150.134822
 30
-12.600402
 70
   192
  0
VERTEX
  8
bark
 10
5.649892
 20
154.969192
 30
-8.868466
 70
   192
  0
VERTEX
  8
bark
 10
-46.694292
 20
279.501461
 30
-34.268654
 70
   192
  0
VERTEX
  8
bark
 10
-48.730269
 20
282.076161
 30
-26.208783
 70
   192
  0
VERTEX
  8
bark
 10
-54.238330
 20
280.402304
 30
-19.684315
 70
   192
  0
VERTEX
  8
bark
 10
-61.114585
 20
275.119244
 30
-17.187373
 70
   192
  0
VERTEX
  8
bark
 10
-66.732536
 20
268.244933
 30
-19.671705
 70
   192
  0
VERTEX
  8
bark
 10
-68.946319
 20
262.405122
 30
-26.188381
 70
   192
  0
VERTEX
  8
bark
 10
-66.910343
 20
259.830422
 30
-34.248252
 70
   192
  0
VERTEX
  8
bark
 10
-61.402281
 20
261.504279
 30
-40.772720
 70
   192
  0
VERTEX
  8
bark
 10
-54.526027
 20
266.787339
 30
-43.269662
 70
   192
  0
VERTEX
  8
bark
 10
-48.908075
 20
273.661650
 30
-40.785329
 70
   192
  0
VERTEX
  8
bark
 10
-133.960163
 20
314.861084
 30
-80.210842
 70
   192
  0
VERTEX
  8
bark
 10
-135.556616
 20
316.898575
 30
-73.412931
 70
   192
  0
VERTEX
  8
bark
 10
-139.771563
 20
315.282069
 30
-67.787173
 70
   192
  0
VERTEX
  8
bark
 10
-144.995037
 20
310.629014
 30
-65.482416
 70
   192
  0
VERTEX
  8
bark
 10
-149.231850
 20
304.716721
 30
-67.378998
 70
   192
  0
VERTEX
  8
bark
 10
-150.863683
 20
299.803483
 30
-72.752491
 70
   192
  0
VERTEX
  8
bark
 10
-149.267230
 20
297.765992
 30
-79.550402
 70
   192
  0
VERTEX
  8
bark
 10
-145.052283
 20
299.382498
 30
-85.176160
 70
   192
  0
VERTEX
  8
bark
 10
-139.828808
 20
304.035552
 30
-87.480917
 70
   192
  0
VERTEX
  8
bark
 10
-135.591996
 20
309.947846
 30
-85.584334
 70
   192
  0
VERTEX
  8
bark
 10
-208.952647
 20
425.477470
 30
-109.610755
 70
   192
  0
VERTEX
  8
bark
 10
-209.828663
 20
426.293356
 30
-104.495889
 70
   192
  0
VERTEX
  8
bark
 10
-213.110424
 20
425.262696
 30
-100.526162
 70
   192
  0
VERTEX
  8
bark
 10
-217.544409
 20
422.779166
 30
-99.217875
 70
   192
  0
VERTEX
  8
bark
 10
-221.436988
 20
419.791391
 30
-101.070749
 70
   192
  0
VERTEX
  8
bark
 10
-223.301326
 20
417.440600
 30
-105.377048
 70
   192
  0
VERTEX
  8
bark
 10
-222.425311
 20
416.624714
 30
-110.491914
 70
   192
  0
VERTEX
  8
bark
 10
-219.143550
 20
417.655374
 30
-114.461641
 70
   192
  0
VERTEX
  8
bark
 10
-214.709564
 20
420.138904
 30
-115.769928
 70
   192
  0
VERTEX
  8
bark
 10
-210.816986
 20
423.126679
 30
-113.917054
 70
   192
  0
VERTEX
  8
bark
 10
6.953555
 20
196.900793
 30
-10.021388
 70
   192
  0
VERTEX
  8
bark
 10
1.762753
 20
199.473920
 30
-2.726501
 70
   192
  0
VERTEX
  8
bark
 10
-2.443420
 20
206.691309
 30
1.340728
 70
   192
  0
VERTEX
  8
bark
 10
-4.058349
 20
215.796162
 30
0.626756
 70
   192
  0
VERTEX
  8
bark
 10
-2.465185
 20
223.310735
 30
-4.595703
 70
   192
  0
VERTEX
  8
bark
 10
1.727536
 20
226.364716
 30
-12.331848
 70
   192
  0
VERTEX
  8
bark
 10
6.918338
 20
223.791588
 30
-19.626735
 70
   192
  0
VERTEX
  8
bark
 10
11.124510
 20
216.574200
 30
-23.693964
 70
   192
  0
VERTEX
  8
bark
 10
12.739439
 20
207.469347
 30
-22.979992
 70
   192
  0
VERTEX
  8
bark
 10
11.146276
 20
199.954774
 30
-17.757533
 70
   192
  0
VERTEX
  8
bark
 10
102.785428
 20
221.420819
 30
50.605195
 70
   192
  0
VERTEX
  8
bark
 10
98.698677
 20
223.516022
 30
56.531028
 70
   192
  0
VERTEX
  8
bark
 10
95.209289
 20
229.302832
 30
59.733635
 70
   192
  0
VERTEX
  8
bark
 10
93.650091
 20
236.570884
 30
58.989729
 70
   192
  0
VERTEX
  8
bark
 10
94.616643
 20
242.544029
 30
54.583457
 70
   192
  0
VERTEX
  8
bark
 10
97.739756
 20
244.940729
 30
48.197864
 70
   192
  0
VERTEX
  8
bark
 10
101.826507
 20
242.845525
 30
42.272031
 70
   192
  0
VERTEX
  8
bark
 10
105.315895
 20
237.058715
 30
39.069424
 70
   192
  0
VERTEX
  8
bark
 10
106.875093
 20
229.790663
 30
39.813330
 70
   192
  0
VERTEX
  8
bark
 10
105.908541
 20
223.817518
 30
44.219602
 70
   192
  0
VERTEX
  8
bark
 10
104.374941
 20
221.953945
 30
51.529617
 70
   192
  0
VERTEX
  8
bark
 10
100.500492
 20
224.134004
 30
57.552070
 70
   192
  0
VERTEX
  8
bark
 10
96.775685
 20
229.846477
 30
60.594473
 70
   192
  0
VERTEX
  8
bark
 10
94.623269
 20
236.909393
 30
59.494732
 70
   192
  0
VERTEX
  8
bark
 10
94.865395
 20
242.624958
 30
54.672910
 70
   192
  0
VERTEX
  8
bark
 10
97.409578
 20
244.810020
 30
47.970779
 70
   192
  0
VERTEX
  8
bark
 10
101.284027
 20
242.629960
 30
41.948325
 70
   192
  0
VERTEX
  8
bark
 10
105.008834
 20
236.917488
 30
38.905922
 70
   192
  0
VERTEX
  8
bark
 10
107.161250
 20
229.854572
 30
40.005663
 70
   192
  0
VERTEX
  8
bark
 10
106.919124
 20
224.139007
 30
44.827486
 70
   192
  0
VERTEX
  8
bark
 10
107.282785
 20
223.266440
 30
52.934673
 70
   192
  0
VERTEX
  8
bark
 10
103.094224
 20
225.345758
 30
58.785607
 70
   192
  0
VERTEX
  8
bark
 10
98.304379
 20
230.599985
 30
61.294559
 70
   192
  0
VERTEX
  8
bark
 10
94.742808
 20
237.022186
 30
59.503194
 70
   192
  0
VERTEX
  8
bark
 10
93.769910
 20
242.159297
 30
54.095753
 70
   192
  0
VERTEX
  8
bark
 10
95.757298
 20
244.049117
 30
47.137695
 70
   192
  0
VERTEX
  8
bark
 10
99.945859
 20
241.969799
 30
41.286760
 70
   192
  0
VERTEX
  8
bark
 10
104.735703
 20
236.715571
 30
38.777808
 70
   192
  0
VERTEX
  8
bark
 10
108.297275
 20
230.293371
 30
40.569173
 70
   192
  0
VERTEX
  8
bark
 10
109.270173
 20
225.156260
 30
45.976615
 70
   192
  0
VERTEX
  8
bark
 10
108.570633
 20
224.541449
 30
53.578196
 70
   192
  0
VERTEX
  8
bark
 10
103.655606
 20
225.910603
 30
59.065587
 70
   192
  0
VERTEX
  8
bark
 10
97.984417
 20
230.297345
 30
61.133393
 70
   192
  0
VERTEX
  8
bark
 10
93.723268
 20
236.026087
 30
58.991782
 70
   192
  0
VERTEX
  8
bark
 10
92.499772
 20
240.908645
 30
53.458777
 70
   192
  0
VERTEX
  8
bark
 10
94.781264
 20
243.080048
 30
46.647798
 70
   192
  0
VERTEX
  8
bark
 10
99.696290
 20
241.710893
 30
41.160406
 70
   192
  0
VERTEX
  8
bark
 10
105.367479
 20
237.324152
 30
39.092600
 70
   192
  0
VERTEX
  8
bark
 10
109.628628
 20
231.595410
 30
41.234211
 70
   192
  0
VERTEX
  8
bark
 10
110.852124
 20
226.712852
 30
46.767216
 70
   192
  0
VERTEX
  8
bark
 10
108.440049
 20
224.448443
 30
53.528335
 70
   192
  0
VERTEX
  8
bark
 10
102.971206
 20
225.303252
 30
58.546427
 70
   192
  0
VERTEX
  8
bark
 10
97.112983
 20
229.510063
 30
60.429669
 70
   192
  0
VERTEX
  8
bark
 10
93.103021
 20
235.462018
 30
58.458726
 70
   192
  0
VERTEX
  8
bark
 10
92.472991
 20
240.885672
 30
53.386432
 70
   192
  0
VERTEX
  8
bark
 10
95.463541
 20
243.709373
 30
47.150231
 70
   192
  0
VERTEX
  8
bark
 10
100.932385
 20
242.854564
 30
42.132140
 70
   192
  0
VERTEX
  8
bark
 10
106.790608
 20
238.647753
 30
40.248898
 70
   192
  0
VERTEX
  8
bark
 10
110.800569
 20
232.695799
 30
42.219840
 70
   192
  0
VERTEX
  8
bark
 10
111.430600
 20
227.272145
 30
47.292134
 70
   192
  0
VERTEX
  8
bark
 10
110.432724
 20
226.507263
 30
55.626123
 70
   192
  0
VERTEX
  8
bark
 10
104.731283
 20
227.093050
 30
60.314263
 70
   192
  0
VERTEX
  8
bark
 10
98.809584
 20
231.160826
 30
62.061396
 70
   192
  0
VERTEX
  8
bark
 10
94.929515
 20
237.156839
 30
60.200175
 70
   192
  0
VERTEX
  8
bark
 10
94.573130
 20
242.790816
 30
55.441524
 70
   192
  0
VERTEX
  8
bark
 10
97.876557
 20
245.910769
 30
49.603086
 70
   192
  0
VERTEX
  8
bark
 10
103.577997
 20
245.324982
 30
44.914946
 70
   192
  0
VERTEX
  8
bark
 10
109.499696
 20
241.257206
 30
43.167813
 70
   192
  0
VERTEX
  8
bark
 10
113.379765
 20
235.261193
 30
45.029034
 70
   192
  0
VERTEX
  8
bark
 10
113.736150
 20
229.627216
 30
49.787685
 70
   192
  0
VERTEX
  8
bark
 10
162.736090
 20
281.397370
 30
116.963023
 70
   192
  0
VERTEX
  8
bark
 10
158.243981
 20
281.893957
 30
120.720091
 70
   192
  0
VERTEX
  8
bark
 10
153.455697
 20
285.032189
 30
122.001706
 70
   192
  0
VERTEX
  8
bark
 10
150.200201
 20
289.613369
 30
120.318336
 70
   192
  0
VERTEX
  8
bark
 10
149.720980
 20
293.887641
 30
116.312970
 70
   192
  0
VERTEX
  8
bark
 10
152.201081
 20
296.222379
 30
111.515522
 70
   192
  0
VERTEX
  8
bark
 10
156.693190
 20
295.725793
 30
107.758454
 70
   192
  0
VERTEX
  8
bark
 10
161.481474
 20
292.587561
 30
106.476838
 70
   192
  0
VERTEX
  8
bark
 10
164.736970
 20
288.006381
 30
108.160209
 70
   192
  0
VERTEX
  8
bark
 10
165.216191
 20
283.732109
 30
112.165575
 70
   192
  0
VERTEX
  8
bark
 10
163.719096
 20
282.625731
 30
117.984701
 70
   192
  0
VERTEX
  8
bark
 10
159.443272
 20
283.414926
 30
121.923104
 70
   192
  0
VERTEX
  8
bark
 10
154.562454
 20
286.441677
 30
123.067693
 70
   192
  0
VERTEX
  8
bark
 10
150.940947
 20
290.549868
 30
120.981275
 70
   192
  0
VERTEX
  8
bark
 10
149.962045
 20
294.170310
 30
116.460789
 70
   192
  0
VERTEX
  8
bark
 10
151.999655
 20
295.920117
 30
111.232909
 70
   192
  0
VERTEX
  8
bark
 10
156.275479
 20
295.130922
 30
107.294505
 70
   192
  0
VERTEX
  8
bark
 10
161.156298
 20
292.104171
 30
106.149916
 70
   192
  0
VERTEX
  8
bark
 10
164.777805
 20
287.995980
 30
108.236334
 70
   192
  0
VERTEX
  8
bark
 10
165.756707
 20
284.375538
 30
112.756820
 70
   192
  0
VERTEX
  8
bark
 10
165.470855
 20
285.271620
 30
119.511117
 70
   192
  0
VERTEX
  8
bark
 10
161.321575
 20
286.409694
 30
123.475883
 70
   192
  0
VERTEX
  8
bark
 10
156.014768
 20
288.871073
 30
124.169500
 70
   192
  0
VERTEX
  8
bark
 10
151.577453
 20
291.715595
 30
121.327030
 70
   192
  0
VERTEX
  8
bark
 10
149.704535
 20
293.856748
 30
116.034200
 70
   192
  0
VERTEX
  8
bark
 10
151.111404
 20
294.476686
 30
110.312691
 70
   192
  0
VERTEX
  8
bark
 10
155.260685
 20
293.338612
 30
106.347925
 70
   192
  0
VERTEX
  8
bark
 10
160.567492
 20
290.877233
 30
105.654308
 70
   192
  0
VERTEX
  8
bark
 10
165.004807
 20
288.032711
 30
108.496778
 70
   192
  0
VERTEX
  8
bark
 10
166.877725
 20
285.891558
 30
113.789608
 70
   192
  0
VERTEX
  8
bark
 10
166.316808
 20
288.114426
 30
119.670613
 70
   192
  0
VERTEX
  8
bark
 10
162.060246
 20
289.090221
 30
123.567111
 70
   192
  0
VERTEX
  8
bark
 10
156.405473
 20
290.492978
 30
124.159740
 70
   192
  0
VERTEX
  8
bark
 10
151.512420
 20
291.786890
 30
121.222136
 70
   192
  0
VERTEX
  8
bark
 10
149.250066
 20
292.477728
 30
115.876364
 70
   192
  0
VERTEX
  8
bark
 10
150.482554
 20
292.301614
 30
110.164327
 70
   192
  0
VERTEX
  8
bark
 10
154.739116
 20
291.325819
 30
106.267829
 70
   192
  0
VERTEX
  8
bark
 10
160.393889
 20
289.923062
 30
105.675200
 70
   192
  0
VERTEX
  8
bark
 10
165.286942
 20
288.629150
 30
108.612804
 70
   192
  0
VERTEX
  8
bark
 10
167.549296
 20
287.938312
 30
113.958576
 70
   192
  0
VERTEX
  8
bark
 10
166.884993
 20
291.508101
 30
119.719547
 70
   192
  0
VERTEX
  8
bark
 10
162.588817
 20
292.031201
 30
123.583529
 70
   192
  0
VERTEX
  8
bark
 10
156.878840
 20
292.874660
 30
124.167883
 70
   192
  0
VERTEX
  8
bark
 10
151.936080
 20
293.716306
 30
121.249406
 70
   192
  0
VERTEX
  8
bark
 10
149.648502
 20
294.234658
 30
115.942857
 70
   192
  0
VERTEX
  8
bark
 10
150.889884
 20
294.231723
 30
110.275157
 70
   192
  0
VERTEX
  8
bark
 10
155.186059
 20
293.708623
 30
106.411175
 70
   192
  0
VERTEX
  8
bark
 10
160.896036
 20
292.865164
 30
105.826821
 70
   192
  0
VERTEX
  8
bark
 10
165.838797
 20
292.023518
 30
108.745298
 70
   192
  0
VERTEX
  8
bark
 10
168.126375
 20
291.505166
 30
114.051847
 70
   192
  0
VERTEX
  8
bark
 10
174.042889
 20
363.171512
 30
121.345189
 70
   192
  0
VERTEX
  8
bark
 10
170.575155
 20
363.490817
 30
124.449090
 70
   192
  0
VERTEX
  8
bark
 10
165.966894
 20
364.043740
 30
124.915463
 70
   192
  0
VERTEX
  8
bark
 10
161.978305
 20
364.619082
 30
122.566169
 70
   192
  0
VERTEX
  8
bark
 10
160.132894
 20
364.997083
 30
118.298559
 70
   192
  0
VERTEX
  8
bark
 10
161.135545
 20
365.033359
 30
113.742714
 70
   192
  0
VERTEX
  8
bark
 10
164.603279
 20
364.714054
 30
110.638812
 70
   192
  0
VERTEX
  8
bark
 10
169.211540
 20
364.161131
 30
110.172439
 70
   192
  0
VERTEX
  8
bark
 10
173.200128
 20
363.585789
 30
112.521733
 70
   192
  0
VERTEX
  8
bark
 10
175.045540
 20
363.207788
 30
116.789344
 70
   192
  0
VERTEX
  8
bark
 10
180.221326
 20
422.031591
 30
122.650070
 70
   192
  0
VERTEX
  8
bark
 10
177.451335
 20
422.294406
 30
125.130579
 70
   192
  0
VERTEX
  8
bark
 10
173.770209
 20
422.745719
 30
125.503586
 70
   192
  0
VERTEX
  8
bark
 10
170.584014
 20
423.213143
 30
123.626612
 70
   192
  0
VERTEX
  8
bark
 10
169.109768
 20
423.518139
 30
120.216600
 70
   192
  0
VERTEX
  8
bark
 10
169.910582
 20
423.544208
 30
116.576057
 70
   192
  0
VERTEX
  8
bark
 10
172.680573
 20
423.281393
 30
114.095547
 70
   192
  0
VERTEX
  8
bark
 10
176.361698
 20
422.830080
 30
113.722540
 70
   192
  0
VERTEX
  8
bark
 10
179.547894
 20
422.362656
 30
115.599514
 70
   192
  0
VERTEX
  8
bark
 10
181.022140
 20
422.057660
 30
119.009526
 70
   192
  0
VERTEX
  8
bark
 10
-8.566949
 20
-0.826484
 30
34.696577
 70
   192
  0
VERTEX
  8
bark
 10
-27.373906
 20
-0.893715
 30
21.723483
 70
   192
  0
VERTEX
  8
bark
 10
-35.274860
 20
-0.619577
 30
0.452757
 70
   192
  0
VERTEX
  8
bark
 10
-29.251914
 20
-0.108782
 30
-20.990906
 70
   192
  0
VERTEX
  8
bark
 10
-11.605629
 20
0.443564
 30
-34.416757
 70
   192
  0
VERTEX
  8
bark
 10
10.923713
 20
0.826484
 30
-34.696577
 70
   192
  0
VERTEX
  8
bark
 10
29.730670
 20
0.893715
 30
-21.723483
 70
   192
  0
VERTEX
  8
bark
 10
37.631623
 20
0.619577
 30
-0.452757
 70
   192
  0
VERTEX
  8
bark
 10
31.608677
 20
0.108782
 30
20.990906
 70
   192
  0
VERTEX
  8
bark
 10
13.962393
 20
-0.443564
 30
34.416757
 70
   192
  0
VERTEX
  8
bark
 10
-26.300264
 20
92.062971
 30
50.778370
 70
   192
  0
VERTEX
  8
bark
 10
-42.125424
 20
91.718603
 30
39.633077
 70
   192
  0
VERTEX
  8
bark
 10
-48.097091
 20
91.143467
 30
20.975674
 70
   192
  0
VERTEX
  8
bark
 10
-41.934291
 20
90.557246
 30
1.932656
 70
   192
  0
VERTEX
  8
bark
 10
-25.991004
 20
90.183856
 30
-10.222192
 70
   192
  0
VERTEX
  8
bark
 10
-6.357023
 20
90.165920
 30
-10.846132
 70
   192
  0
VERTEX
  8
bark
 10
9.468137
 20
90.510288
 30
0.299161
 70
   192
  0
VERTEX
  8
bark
 10
15.439804
 20
91.085424
 30
18.956564
 70
   192
  0
VERTEX
  8
bark
 10
9.277004
 20
91.671645
 30
37.999582
 70
   192
  0
VERTEX
  8
bark
 10
-6.666283
 20
92.045035
 30
50.154430
 70
   192
  0
VERTEX
  8
bark
 10
-3.309329
 20
212.964386
 30
12.931052
 70
   192
  0
VERTEX
  8
bark
 10
-15.705818
 20
213.186016
 30
4.089144
 70
   192
  0
VERTEX
  8
bark
 10
-20.445278
 20
212.814352
 30
-10.583766
 70
   192
  0
VERTEX
  8
bark
 10
-15.717396
 20
211.991358
 30
-25.483125
 70
   192
  0
VERTEX
  8
bark
 10
-3.328061
 20
211.031390
 30
-34.917885
 70
   192
  0
VERTEX
  8
bark
 10
11.990420
 20
210.301122
 30
-35.284288
 70
   192
  0
VERTEX
  8
bark
 10
24.386909
 20
210.079493
 30
-26.442380
 70
   192
  0
VERTEX
  8
bark
 10
29.126369
 20
210.451157
 30
-11.769470
 70
   192
  0
VERTEX
  8
bark
 10
24.398486
 20
211.274151
 30
3.129889
 70
   192
  0
VERTEX
  8
bark
 10
12.009152
 20
212.234119
 30
12.564649
 70
   192
  0
VERTEX
  8
bark
 10
-13.809579
 20
398.940566
 30
34.947015
 70
   192
  0
VERTEX
  8
bark
 10
-21.145280
 20
398.493930
 30
29.676432
 70
   192
  0
VERTEX
  8
bark
 10
-23.990400
 20
397.885454
 30
20.951229
 70
   192
  0
VERTEX
  8
bark
 10
-21.258199
 20
397.347556
 30
12.104137
 70
   192
  0
VERTEX
  8
bark
 10
-13.992286
 20
397.085695
 30
6.514446
 70
   192
  0
VERTEX
  8
bark
 10
-4.967993
 20
397.199892
 30
6.317226
 70
   192
  0
VERTEX
  8
bark
 10
2.367708
 20
397.646528
 30
11.587810
 70
   192
  0
VERTEX
  8
bark
 10
5.212828
 20
398.255004
 30
20.313013
 70
   192
  0
VERTEX
  8
bark
 10
2.480628
 20
398.792902
 30
29.160104
 70
   192
  0
VERTEX
  8
bark
 10
-4.785285
 20
399.054763
 30
34.749796
 70
   192
  0
VERTEX
  8
bark
 10
-5.468080
 20
529.496759
 30
-12.610998
 70
   192
  0
VERTEX
  8
bark
 10
-9.212335
 20
528.889821
 30
-15.161852
 70
   192
  0
VERTEX
  8
bark
 10
-10.704548
 20
527.688763
 30
-19.310909
 70
   192
  0
VERTEX
  8
bark
 10
-9.374743
 20
526.352347
 30
-23.473370
 70
   192
  0
VERTEX
  8
bark
 10
-5.730861
 20
525.391040
 30
-26.059316
 70
   192
  0
VERTEX
  8
bark
 10
-1.164740
 20
525.172028
 30
-26.081004
 70
   192
  0
VERTEX
  8
bark
 10
2.579515
 20
525.778966
 30
-23.530150
 70
   192
  0
VERTEX
  8
bark
 10
4.071728
 20
526.980024
 30
-19.381094
 70
   192
  0
VERTEX
  8
bark
 10
2.741923
 20
528.316439
 30
-15.218633
 70
   192
  0
VERTEX
  8
bark
 10
-0.901959
 20
529.277747
 30
-12.632686
 70
   192
  0
VERTEX
  8
bark
 10
0.0
 20
0.0
 30
0.0
 70
   128
 71
   1
 72
   2
 73
   12
  0
VERTEX
  8
bark
 10
0.0
 20
0.0
 30
0.0
 70
   128
 71
   2
 72
   3
 73
   13
  0
VERTEX
  8
bark
 10
0.0
 20
0.0
 30
0.0
 70
   128
 71
   3
 72
   4
 73
   14
  0
VERTEX
  8
bark
 10
0.0
 20
0.0
 30
0.0
 70
   128
 71
   4
 72
   5
 73
   15
  0
VERTEX
  8
bark
 10
0.0
 20
0.0
 30
0.0
 70
   128
 71
   5
 72
   6
 73
   16
  0
VERTEX
  8
bark
 10
0.0
 20
0.0
 30
0.0
 70
   128
 71
   6
 72
   7
 73
   17
  0
VERTEX
  8
bark
 10
0.0
 20
0.0
 30
0.0
 70
   128
 71
   7
 72
   8
 73
   18
  0
VERTEX
  8
bark
 10
0.0
 20
0.0
 30
0.0
 70
   128
 71
   8
 72
   9
 73
   19
  0
VERTEX
  8
bark
 10
0.0
 20
0.0
 30
0.0
 70
   128
 71
   9
 72
   10
 73
   20
  0
VERTEX
  8
bark
 10
0.0
 20
0.0
 30
0.0
 70
   128
 71
   10
 72
   1
 73
   11
  0
VERTEX
  8
bark
 10
0.0
 20
0.0
 30
0.0
 70
   128
 71
   11
 72
   12
 73
   22
  0
VERTEX
  8
bark
 10
0.0
 20
0.0
 30
0.0
 70
   128
 71
   12
 72
   13
 73
   23
  0
VERTEX
  8
bark
 10
0.0
 20
0.0
 30
0.0
 70
   128
 71
   13
 72
   14
 73
   24
  0
VERTEX
  8
bark
 10
0.0
 20
0.0
 30
0.0
 70
   128
 71
   14
 72
   15
 73
   25
  0
VERTEX
  8
bark
 10
0.0
 20
0.0
 30
0.0
 70
   128
 71
   15
 72
   16
 73
   26
  0
VERTEX
  8
bark
 10
0.0
 20
0.0
 30
0.0
 70
   128
 71
   16
 72
   17
 73
   27
  0
VERTEX
  8
bark
 10
0.0
 20
0.0
 30
0.0
 70
   128
 71
   17
 72
   18
 73
   28
  0
VERTEX
  8
bark
 10
0.0
 20
0.0
 30
0.0
 70
   128
 71
   18
 72
   19
 73
   29
  0
VERTEX
  8
bark
 10
0.0
 20
0.0
 30
0.0
 70
   128
 71
   19
 72
   20
 73
   30
  0
VERTEX
  8
bark
 10
0.0
 20
0.0
 30
0.0
 70
   128
 71
   20
 72
   11
 73
   21
  0
VERTEX
  8
bark
 10
0.0
 20
0.0
 30
0.0
 70
   128
 71
   21
 72
   22
 73
   32
  0
VERTEX
  8
bark
 10
0.0
 20
0.0
 30
0.0
 70
   128
 71
   22
 72
   23
 73
   33
  0
VERTEX
  8
bark
 10
0.0
 20
0.0
 30
0.0
 70
   128
 71
   23
 72
   24
 73
   34
  0
VERTEX
  8
bark
 10
0.0
 20
0.0
 30
0.0
 70
   128
 71
   24
 72
   25
 73
   35
  0
VERTEX
  8
bark
 10
0.0
 20
0.0
 30
0.0
 70
   128
 71
   25
 72
   26
 73
   36
  0
VERTEX
  8
bark
 10
0.0
 20
0.0
 30
0.0
 70
   128
 71
   26
 72
   27
 73
   37
  0
VERTEX
  8
bark
 10
0.0
 20
0.0
 30
0.0
 70
   128
 71
   27
 72
   28
 73
   38
  0
VERTEX
  8
bark
 10
0.0
 20
0.0
 30
0.0
 70
   128
 71
   28
 72
   29
 73
   39
  0
VERTEX
  8
bark
 10
0.0
 20
0.0
 30
0.0
 70
   128
 71
   29
 72
   30
 73
   40
  0
VERTEX
  8
bark
 10
0.0
 20
0.0
 30
0.0
 70
   128
 71
   30
 72
   21
 73
   31
  0
VERTEX
  8
bark
 10
0.0
 20
0.0
 30
0.0
 70
   128
 71
   41
 72
   42
 73
   52
  0
VERTEX
  8
bark
 10
0.0
 20
0.0
 30
0.0
 70
   128
 71
   42
 72
   43
 73
   53
  0
VERTEX
  8
bark
 10
0.0
 20
0.0
 30
0.0
 70
   128
 71
   43
 72
   44
 73
   54
  0
VERTEX
  8
bark
 10
0.0
 20
0.0
 30
0.0
 70
   128
 71
   44
 72
   45
 73
   55
  0
VERTEX
  8
bark
 10
0.0
 20
0.0
 30
0.0
 70
   128
 71
   45
 72
   46
 73
   56
  0
VERTEX
  8
bark
 10
0.0
 20
0.0
 30
0.0
 70
   128
 71
   46
 72
   47
 73
   57
  0
VERTEX
  8
bark
 10
0.0
 20
0.0
 30
0.0
 70
   128
 71
   47
 72
   48
 73
   58
  0
VERTEX
  8
bark
 10
0.0
 20
0.0
 30
0.0
 70
   128
 71
   48
 72
   49
 73
   59
  0
VERTEX
  8
bark
 10
0.0
 20
0.0
 30
0.0
 70
   128
 71
   49
 72
   50
 73
   60
  0
VERTEX
  8
bark
 10
0.0
 20
0.0
 30
0.0
 70
   128
 71
   50
 72
   41
 73
   51
  0
VERTEX
  8
bark
 10
0.0
 20
0.0
 30
0.0
 70
   128
 71
   51
 72
   52
 73
   62
  0
VERTEX
  8
bark
 10
0.0
 20
0.0
 30
0.0
 70
   128
 71
   52
 72
   53
 73
   63
  0
VERTEX
  8
bark
 10
0.0
 20
0.0
 30
0.0
 70
   128
 71
   53
 72
   54
 73
   64
  0
VERTEX
  8
bark
 10
0.0
 20
0.0
 30
0.0
 70
   128
 71
   54
 72
   55
 73
   65
  0
VERTEX
  8
bark
 10
0.0
 20
0.0
 30
0.0
 70
   128
 71
   55
 72
   56
 73
   65
  0
VERTEX
  8
bark
 10
0.0
 20
0.0
 30
0.0
 70
   128
 71
   56
 72
   57
 73
   67
  0
VERTEX
  8
bark
 10
0.0
 20
0.0
 30
0.0
 70
   128
 71
   57
 72
   58
 73
   68
  0
VERTEX
  8
bark
 10
0.0
 20
0.0
 30
0.0
 70
   128
 71
   58
 72
   59
 73
   69
  0
VERTEX
  8
bark
 10
0.0
 20
0.0
 30
0.0
 70
   128
 71
   59
 72
   60
 73
   70
  0
VERTEX
  8
bark
 10
0.0
 20
0.0
 30
0.0
 70
   128
 71
   60
 72
   51
 73
   61
  0
VERTEX
  8
bark
 10
0.0
 20
0.0
 30
0.0
 70
   128
 71
   61
 72
   62
 73
   72
  0
VERTEX
  8
bark
 10
0.0
 20
0.0
 30
0.0
 70
   128
 71
   62
 72
   63
 73
   73
  0
VERTEX
  8
bark
 10
0.0
 20
0.0
 30
0.0
 70
   128
 71
   63
 72
   64
 73
   74
  0
VERTEX
  8
bark
 10
0.0
 20
0.0
 30
0.0
 70
   128
 71
   64
 72
   65
 73
   74
  0
VERTEX
  8
bark
 10
0.0
 20
0.0
 30
0.0
 70
   128
 71
   65
 72
   66
 73
   76
  0
VERTEX
  8
bark
 10
0.0
 20
0.0
 30
0.0
 70
   128
 71
   66
 72
   67
 73
   77
  0
VERTEX
  8
bark
 10
0.0
 20
0.0
 30
0.0
 70
   128
 71
   67
 72
   68
 73
   78
  0
VERTEX
  8
bark
 10
0.0
 20
0.0
 30
0.0
 70
   128
 71
   68
 72
   69
 73
   78
  0
VERTEX
  8
bark
 10
0.0
 20
0.0
 30
0.0
 70
   128
 71
   69
 72
   70
 73
   80
  0
VERTEX
  8
bark
 10
0.0
 20
0.0
 30
0.0
 70
   128
 71
   70
 72
   61
 73
   71
  0
VERTEX
  8
bark
 10
0.0
 20
0.0
 30
0.0
 70
   128
 71
   71
 72
   72
 73
   82
  0
VERTEX
  8
bark
 10
0.0
 20
0.0
 30
0.0
 70
   128
 71
   72
 72
   73
 73
   83
  0
VERTEX
  8
bark
 10
0.0
 20
0.0
 30
0.0
 70
   128
 71
   73
 72
   74
 73
   84
  0
VERTEX
  8
bark
 10
0.0
 20
0.0
 30
0.0
 70
   128
 71
   74
 72
   75
 73
   85
  0
VERTEX
  8
bark
 10
0.0
 20
0.0
 30
0.0
 70
   128
 71
   75
 72
   76
 73
   86
  0
VERTEX
  8
bark
 10
0.0
 20
0.0
 30
0.0
 70
   128
 71
   76
 72
   77
 73
   87
  0
VERTEX
  8
bark
 10
0.0
 20
0.0
 30
0.0
 70
   128
 71
   77
 72
   78
 73
   87
  0
VERTEX
  8
bark
 10
0.0
 20
0.0
 30
0.0
 70
   128
 71
   78
 72
   79
 73
   89
  0
VERTEX
  8
bark
 10
0.0
 20
0.0
 30
0.0
 70
   128
 71
   79
 72
   80
 73
   90
  0
VERTEX
  8
bark
 10
0.0
 20
0.0
 30
0.0
 70
   128
 71
   80
 72
   71
 73
   81
  0
VERTEX
  8
bark
 10
0.0
 20
0.0
 30
0.0
 70
   128
 71
   81
 72
   82
 73
   92
  0
VERTEX
  8
bark
 10
0.0
 20
0.0
 30
0.0
 70
   128
 71
   82
 72
   83
 73
   93
  0
VERTEX
  8
bark
 10
0.0
 20
0.0
 30
0.0
 70
   128
 71
   83
 72
   84
 73
   94
  0
VERTEX
  8
bark
 10
0.0
 20
0.0
 30
0.0
 70
   128
 71
   84
 72
   85
 73
   95
  0
VERTEX
  8
bark
 10
0.0
 20
0.0
 30
0.0
 70
   128
 71
   85
 72
   86
 73
   95
  0
VERTEX
  8
bark
 10
0.0
 20
0.0
 30
0.0
 70
   128
 71
   86
 72
   87
 73
   97
  0
VERTEX
  8
bark
 10
0.0
 20
0.0
 30
0.0
 70
   128
 71
   87
 72
   88
 73
   98
  0
VERTEX
  8
bark
 10
0.0
 20
0.0
 30
0.0
 70
   128
 71
   88
 72
   89
 73
   99
  0
VERTEX
  8
bark
 10
0.0
 20
0.0
 30
0.0
 70
   128
 71
   89
 72
   90
 73
   100
  0
VERTEX
  8
bark
 10
0.0
 20
0.0
 30
0.0
 70
   128
 71
   90
 72
   81
 73
   91
  0
VERTEX
  8
bark
 10
0.0
 20
0.0
 30
0.0
 70
   128
 71
   91
 72
   92
 73
   102
  0
VERTEX
  8
bark
 10
0.0
 20
0.0
 30
0.0
 70
   128
 71
   92
 72
   93
 73
   103
  0
VERTEX
  8
bark
 10
0.0
 20
0.0
 30
0.0
 70
   128
 71
   93
 72
   94
 73
   104
  0
VERTEX
  8
bark
 10
0.0
 20
0.0
 30
0.0
 70
   128
 71
   94
 72
   95
 73
   105
  0
VERTEX
  8
bark
 10
0.0
 20
0.0
 30
0.0
 70
   128
 71
   95
 72
   96
 73
   106
  0
VERTEX
  8
bark
 10
0.0
 20
0.0
 30
0.0
 70
   128
 71
   96
 72
   97
 73
   107
  0
VERTEX
  8
bark
 10
0.0
 20
0.0
 30
0.0
 70
   128
 71
   97
 72
   98
 73
   108
  0
VERTEX
  8
bark
 10
0.0
 20
0.0
 30
0.0
 70
   128
 71
   98
 72
   99
 73
   109
  0
VERTEX
  8
bark
 10
0.0
 20
0.0
 30
0.0
 70
   128
 71
   99
 72
   100
 73
   110
  0
VERTEX
  8
bark
 10
0.0
 20
0.0
 30
0.0
 70
   128
 71
   100
 72
   91
 73
   101
  0
VERTEX
  8
bark
 10
0.0
 20
0.0
 30
0.0
 70
   128
 71
   101
 72
   102
 73
   112
  0
VERTEX
  8
bark
 10
0.0
 20
0.0
 30
0.0
 70
   128
 71
   102
 72
   103
 73
   113
  0
VERTEX
  8
bark
 10
0.0
 20
0.0
 30
0.0
 70
   128
 71
   103
 72
   104
 73
   114
  0
VERTEX
  8
bark
 10
0.0
 20
0.0
 30
0.0
 70
   128
 71
   104
 72
   105
 73
   115
  0
VERTEX
  8
bark
 10
0.0
 20
0.0
 30
0.0
 70
   128
 71
   105
 72
   106
 73
   116
  0
VERTEX
  8
bark
 10
0.0
 20
0.0
 30
0.0
 70
   128
 71
   106
 72
   107
 73
   117
  0
VERTEX
  8
bark
 10
0.0
 20
0.0
 30
0.0
 70
   128
 71
   107
 72
   108
 73
   118
  0
VERTEX
  8
bark
 10
0.0
 20
0.0
 30
0.0
 70
   128
 71
   108
 72
   109
 73
   119
  0
VERTEX
  8
bark
 10
0.0
 20
0.0
 30
0.0
 70
   128
 71
   109
 72
   110
 73
   120
  0
VERTEX
  8
bark
 10
0.0
 20
0.0
 30
0.0
 70
   128
 71
   110
 72
   101
 73
   111
  0
VERTEX
  8
bark
 10
0.0
 20
0.0
 30
0.0
 70
   128
 71
   111
 72
   112
 73
   122
  0
VERTEX
  8
bark
 10
0.0
 20
0.0
 30
0.0
 70
   128
 71
   112
 72
   113
 73
   123
  0
VERTEX
  8
bark
 10
0.0
 20
0.0
 30
0.0
 70
   128
 71
   113
 72
   114
 73
   124
  0
VERTEX
  8
bark
 10
0.0
 20
0.0
 30
0.0
 70
   128
 71
   114
 72
   115
 73
   125
  0
VERTEX
  8
bark
 10
0.0
 20
0.0
 30
0.0
 70
   128
 71
   115
 72
   116
 73
   125
  0
VERTEX
  8
bark
 10
0.0
 20
0.0
 30
0.0
 70
   128
 71
   116
 72
   117
 73
   127
  0
VERTEX
  8
bark
 10
0.0
 20
0.0
 30
0.0
 70
   128
 71
   117
 72
   118
 73
   128
  0
VERTEX
  8
bark
 10
0.0
 20
0.0
 30
0.0
 70
   128
 71
   118
 72
   119
 73
   129
  0
VERTEX
  8
bark
 10
0.0
 20
0.0
 30
0.0
 70
   128
 71
   119
 72
   120
 73
   130
  0
VERTEX
  8
bark
 10
0.0
 20
0.0
 30
0.0
 70
   128
 71
   120
 72
   111
 73
   121
  0
VERTEX
  8
bark
 10
0.0
 20
0.0
 30
0.0
 70
   128
 71
   121
 72
   122
 73
   132
  0
VERTEX
  8
bark
 10
0.0
 20
0.0
 30
0.0
 70
   128
 71
   122
 72
   123
 73
   133
  0
VERTEX
  8
bark
 10
0.0
 20
0.0
 30
0.0
 70
   128
 71
   123
 72
   124
 73
   134
  0
VERTEX
  8
bark
 10
0.0
 20
0.0
 30
0.0
 70
   128
 71
   124
 72
   125
 73
   135
  0
VERTEX
  8
bark
 10
0.0
 20
0.0
 30
0.0
 70
   128
 71
   125
 72
   126
 73
   136
  0
VERTEX
  8
bark
 10
0.0
 20
0.0
 30
0.0
 70
   128
 71
   126
 72
   127
 73
   137
  0
VERTEX
  8
bark
 10
0.0
 20
0.0
 30
0.0
 70
   128
 71
   127
 72
   128
 73
   138
  0
VERTEX
  8
bark
 10
0.0
 20
0.0
 30
0.0
 70
   128
 71
   128
 72
   129
 73
   139
  0
VERTEX
  8
bark
 10
0.0
 20
0.0
 30
0.0
 70
   128
 71
   129
 72
   130
 73
   140
  0
VERTEX
  8
bark
 10
0.0
 20
0.0
 30
0.0
 70
   128
 71
   130
 72
   121
 73
   131
  0
VERTEX
  8
bark
 10
0.0
 20
0.0
 30
0.0
 70
   128
 71
   131
 72
   132
 73
   142
  0
VERTEX
  8
bark
 10
0.0
 20
0.0
 30
0.0
 70
   128
 71
   132
 72
   133
 73
   143
  0
VERTEX
  8
bark
 10
0.0
 20
0.0
 30
0.0
 70
   128
 71
   133
 72
   134
 73
   144
  0
VERTEX
  8
bark
 10
0.0
 20
0.0
 30
0.0
 70
   128
 71
   134
 72
   135
 73
   144
  0
VERTEX
  8
bark
 10
0.0
 20
0.0
 30
0.0
 70
   128
 71
   135
 72
   136
 73
   146
  0
VERTEX
  8
bark
 10
0.0
 20
0.0
 30
0.0
 70
   128
 71
   136
 72
   137
 73
   147
  0
VERTEX
  8
bark
 10
0.0
 20
0.0
 30
0.0
 70
   128
 71
   137
 72
   138
 73
   148
  0
VERTEX
  8
bark
 10
0.0
 20
0.0
 30
0.0
 70
   128
 71
   138
 72
   139
 73
   149
  0
VERTEX
  8
bark
 10
0.0
 20
0.0
 30
0.0
 70
   128
 71
   139
 72
   140
 73
   150
  0
VERTEX
  8
bark
 10
0.0
 20
0.0
 30
0.0
 70
   128
 71
   140
 72
   131
 73
   141
  0
VERTEX
  8
bark
 10
0.0
 20
0.0
 30
0.0
 70
   128
 71
   141
 72
   142
 73
   152
  0
VERTEX
  8
bark
 10
0.0
 20
0.0
 30
0.0
 70
   128
 71
   142
 72
   143
 73
   153
  0
VERTEX
  8
bark
 10
0.0
 20
0.0
 30
0.0
 70
   128
 71
   143
 72
   144
 73
   154
  0
VERTEX
  8
bark
 10
0.0
 20
0.0
 30
0.0
 70
   128
 71
   144
 72
   145
 73
   155
  0
VERTEX
  8
bark
 10
0.0
 20
0.0
 30
0.0
 70
   128
 71
   145
 72
   146
 73
   156
  0
VERTEX
  8
bark
 10
0.0
 20
0.0
 30
0.0
 70
   128
 71
   146
 72
   147
 73
   157
  0
VERTEX
  8
bark
 10
0.0
 20
0.0
 30
0.0
 70
   128
 71
   147
 72
   148
 73
   158
  0
VERTEX
  8
bark
 10
0.0
 20
0.0
 30
0.0
 70
   128
 71
   148
 72
   149
 73
   159
  0
VERTEX
  8
bark
 10
0.0
 20
0.0
 30
0.0
 70
   128
 71
   149
 72
   150
 73
   160
  0
VERTEX
  8
bark
 10
0.0
 20
0.0
 30
0.0
 70
   128
 71
   150
 72
   141
 73
   151
  0
VERTEX
  8
bark
 10
0.0
 20
0.0
 30
0.0
 70
   128
 71
   151
 72
   152
 73
   162
  0
VERTEX
  8
bark
 10
0.0
 20
0.0
 30
0.0
 70
   128
 71
   152
 72
   153
 73
   163
  0
VERTEX
  8
bark
 10
0.0
 20
0.0
 30
0.0
 70
   128
 71
   153
 72
   154
 73
   164
  0
VERTEX
  8
bark
 10
0.0
 20
0.0
 30
0.0
 70
   128
 71
   154
 72
   155
 73
   165
  0
VERTEX
  8
bark
 10
0.0
 20
0.0
 30
0.0
 70
   128
 71
   155
 72
   156
 73
   166
  0
VERTEX
  8
bark
 10
0.0
 20
0.0
 30
0.0
 70
   128
 71
   156
 72
   157
 73
   167
  0
VERTEX
  8
bark
 10
0.0
 20
0.0
 30
0.0
 70
   128
 71
   157
 72
   158
 73
   168
  0
VERTEX
  8
bark
 10
0.0
 20
0.0
 30
0.0
 70
   128
 71
   158
 72
   159
 73
   169
  0
VERTEX
  8
bark
 10
0.0
 20
0.0
 30
0.0
 70
   128
 71
   159
 72
   160
 73
   170
  0
VERTEX
  8
bark
 10
0.0
 20
0.0
 30
0.0
 70
   128
 71
   160
 72
   151
 73
   161
  0
VERTEX
  8
bark
 10
0.0
 20
0.0
 30
0.0
 70
   128
 71
   161
 72
   162
 73
   172
  0
VERTEX
  8
bark
 10
0.0
 20
0.0
 30
0.0
 70
   128
 71
   162
 72
   163
 73
   173
  0
VERTEX
  8
bark
 10
0.0
 20
0.0
 30
0.0
 70
   128
 71
   163
 72
   164
 73
   174
  0
VERTEX
  8
bark
 10
0.0
 20
0.0
 30
0.0
 70
   128
 71
   164
 72
   165
 73
   175
  0
VERTEX
  8
bark
 10
0.0
 20
0.0
 30
0.0
 70
   128
 71
   165
 72
   166
 73
   176
  0
VERTEX
  8
bark
 10
0.0
 20
0.0
 30
0.0
 70
   128
 71
   166
 72
   167
 73
   177
  0
VERTEX
  8
bark
 10
0.0
 20
0.0
 30
0.0
 70
   128
 71
   167
 72
   168
 73
   178
  0
VERTEX
  8
bark
 10
0.0
 20
0.0
 30
0.0
 70
   128
 71
   168
 72
   169
 73
   179
  0
VERTEX
  8
bark
 10
0.0
 20
0.0
 30
0.0
 70
   128
 71
   169
 72
   170
 73
   180
  0
VERTEX
  8
bark
 10
0.0
 20
0.0
 30
0.0
 70
   128
 71
   170
 72
   161
 73
   171
  0
VERTEX
  8
bark
 10
0.0
 20
0.0
 30
0.0
 70
   128
 71
   181
 72
   182
 73
   192
  0
VERTEX
  8
bark
 10
0.0
 20
0.0
 30
0.0
 70
   128
 71
   182
 72
   183
 73
   193
  0
VERTEX
  8
bark
 10
0.0
 20
0.0
 30
0.0
 70
   128
 71
   183
 72
   184
 73
   194
  0
VERTEX
  8
bark
 10
0.0
 20
0.0
 30
0.0
 70
   128
 71
   184
 72
   185
 73
   195
  0
VERTEX
  8
bark
 10
0.0
 20
0.0
 30
0.0
 70
   128
 71
   185
 72
   186
 73
   196
  0
VERTEX
  8
bark
 10
0.0
 20
0.0
 30
0.0
 70
   128
 71
   186
 72
   187
 73
   197
  0
VERTEX
  8
bark
 10
0.0
 20
0.0
 30
0.0
 70
   128
 71
   187
 72
   188
 73
   198
  0
VERTEX
  8
bark
 10
0.0
 20
0.0
 30
0.0
 70
   128
 71
   188
 72
   189
 73
   199
  0
VERTEX
  8
bark
 10
0.0
 20
0.0
 30
0.0
 70
   128
 71
   189
 72
   190
 73
   200
  0
VERTEX
  8
bark
 10
0.0
 20
0.0
 30
0.0
 70
   128
 71
   190
 72
   181
 73
   191
  0
VERTEX
  8
bark
 10
0.0
 20
0.0
 30
0.0
 70
   128
 71
   191
 72
   192
 73
   202
  0
VERTEX
  8
bark
 10
0.0
 20
0.0
 30
0.0
 70
   128
 71
   192
 72
   193
 73
   203
  0
VERTEX
  8
bark
 10
0.0
 20
0.0
 30
0.0
 70
   128
 71
   193
 72
   194
 73
   204
  0
VERTEX
  8
bark
 10
0.0
 20
0.0
 30
0.0
 70
   128
 71
   194
 72
   195
 73
   205
  0
VERTEX
  8
bark
 10
0.0
 20
0.0
 30
0.0
 70
   128
 71
   195
 72
   196
 73
   206
  0
VERTEX
  8
bark
 10
0.0
 20
0.0
 30
0.0
 70
   128
 71
   196
 72
   197
 73
   207
  0
VERTEX
  8
bark
 10
0.0
 20
0.0
 30
0.0
 70
   128
 71
   197
 72
   198
 73
   208
  0
VERTEX
  8
bark
 10
0.0
 20
0.0
 30
0.0
 70
   128
 71
   198
 72
   199
 73
   209
  0
VERTEX
  8
bark
 10
0.0
 20
0.0
 30
0.0
 70
   128
 71
   199
 72
   200
 73
   210
  0
VERTEX
  8
bark
 10
0.0
 20
0.0
 30
0.0
 70
   128
 71
   200
 72
   191
 73
   201
  0
VERTEX
  8
bark
 10
0.0
 20
0.0
 30
0.0
 70
   128
 71
   201
 72
   202
 73
   212
  0
VERTEX
  8
bark
 10
0.0
 20
0.0
 30
0.0
 70
   128
 71
   202
 72
   203
 73
   213
  0
VERTEX
  8
bark
 10
0.0
 20
0.0
 30
0.0
 70
   128
 71
   203
 72
   204
 73
   214
  0
VERTEX
  8
bark
 10
0.0
 20
0.0
 30
0.0
 70
   128
 71
   204
 72
   205
 73
   215
  0
VERTEX
  8
bark
 10
0.0
 20
0.0
 30
0.0
 70
   128
 71
   205
 72
   206
 73
   216
  0
VERTEX
  8
bark
 10
0.0
 20
0.0
 30
0.0
 70
   128
 71
   206
 72
   207
 73
   217
  0
VERTEX
  8
bark
 10
0.0
 20
0.0
 30
0.0
 70
   128
 71
   207
 72
   208
 73
   218
  0
VERTEX
  8
bark
 10
0.0
 20
0.0
 30
0.0
 70
   128
 71
   208
 72
   209
 73
   219
  0
VERTEX
  8
bark
 10
0.0
 20
0.0
 30
0.0
 70
   128
 71
   209
 72
   210
 73
   220
  0
VERTEX
  8
bark
 10
0.0
 20
0.0
 30
0.0
 70
   128
 71
   210
 72
   201
 73
   211
  0
VERTEX
  8
bark
 10
0.0
 20
0.0
 30
0.0
 70
   128
 71
   211
 72
   212
 73
   222
  0
VERTEX
  8
bark
 10
0.0
 20
0.0
 30
0.0
 70
   128
 71
   212
 72
   213
 73
   223
  0
VERTEX
  8
bark
 10
0.0
 20
0.0
 30
0.0
 70
   128
 71
   213
 72
   214
 73
   224
  0
VERTEX
  8
bark
 10
0.0
 20
0.0
 30
0.0
 70
   128
 71
   214
 72
   215
 73
   225
  0
VERTEX
  8
bark
 10
0.0
 20
0.0
 30
0.0
 70
   128
 71
   215
 72
   216
 73
   226
  0
VERTEX
  8
bark
 10
0.0
 20
0.0
 30
0.0
 70
   128
 71
   216
 72
   217
 73
   227
  0
VERTEX
  8
bark
 10
0.0
 20
0.0
 30
0.0
 70
   128
 71
   217
 72
   218
 73
   228
  0
VERTEX
  8
bark
 10
0.0
 20
0.0
 30
0.0
 70
   128
 71
   218
 72
   219
 73
   229
  0
VERTEX
  8
bark
 10
0.0
 20
0.0
 30
0.0
 70
   128
 71
   219
 72
   220
 73
   230
  0
VERTEX
  8
bark
 10
0.0
 20
0.0
 30
0.0
 70
   128
 71
   220
 72
   211
 73
   221
  0
VERTEX
  8
bark
 10
0.0
 20
0.0
 30
0.0
 70
   128
 71
   1
 72
   12
 73
   11
  0
VERTEX
  8
bark
 10
0.0
 20
0.0
 30
0.0
 70
   128
 71
   2
 72
   13
 73
   12
  0
VERTEX
  8
bark
 10
0.0
 20
0.0
 30
0.0
 70
   128
 71
   3
 72
   14
 73
   13
  0
VERTEX
  8
bark
 10
0.0
 20
0.0
 30
0.0
 70
   128
 71
   4
 72
   15
 73
   14
  0
VERTEX
  8
bark
 10
0.0
 20
0.0
 30
0.0
 70
   128
 71
   5
 72
   16
 73
   15
  0
VERTEX
  8
bark
 10
0.0
 20
0.0
 30
0.0
 70
   128
 71
   6
 72
   17
 73
   16
  0
VERTEX
  8
bark
 10
0.0
 20
0.0
 30
0.0
 70
   128
 71
   7
 72
   18
 73
   17
  0
VERTEX
  8
bark
 10
0.0
 20
0.0
 30
0.0
 70
   128
 71
   8
 72
   19
 73
   18
  0
VERTEX
  8
bark
 10
0.0
 20
0.0
 30
0.0
 70
   128
 71
   9
 72
   20
 73
   19
  0
VERTEX
  8
bark
 10
0.0
 20
0.0
 30
0.0
 70
   128
 71
   10
 72
   11
 73
   20
  0
VERTEX
  8
bark
 10
0.0
 20
0.0
 30
0.0
 70
   128
 71
   11
 72
   22
 73
   21
  0
VERTEX
  8
bark
 10
0.0
 20
0.0
 30
0.0
 70
   128
 71
   12
 72
   23
 73
   22
  0
VERTEX
  8
bark
 10
0.0
 20
0.0
 30
0.0
 70
   128
 71
   13
 72
   24
 73
   23
  0
VERTEX
  8
bark
 10
0.0
 20
0.0
 30
0.0
 70
   128
 71
   14
 72
   25
 73
   24
  0
VERTEX
  8
bark
 10
0.0
 20
0.0
 30
0.0
 70
   128
 71
   15
 72
   26
 73
   25
  0
VERTEX
  8
bark
 10
0.0
 20
0.0
 30
0.0
 70
   128
 71
   16
 72
   27
 73
   26
  0
VERTEX
  8
bark
 10
0.0
 20
0.0
 30
0.0
 70
   128
 71
   17
 72
   28
 73
   27
  0
VERTEX
  8
bark
 10
0.0
 20
0.0
 30
0.0
 70
   128
 71
   18
 72
   29
 73
   28
  0
VERTEX
  8
bark
 10
0.0
 20
0.0
 30
0.0
 70
   128
 71
   19
 72
   30
 73
   29
  0
VERTEX
  8
bark
 10
0.0
 20
0.0
 30
0.0
 70
   128
 71
   20
 72
   21
 73
   30
  0
VERTEX
  8
bark
 10
0.0
 20
0.0
 30
0.0
 70
   128
 71
   21
 72
   32
 73
   31
  0
VERTEX
  8
bark
 10
0.0
 20
0.0
 30
0.0
 70
   128
 71
   22
 72
   33
 73
   32
  0
VERTEX
  8
bark
 10
0.0
 20
0.0
 30
0.0
 70
   128
 71
   23
 72
   34
 73
   33
  0
VERTEX
  8
bark
 10
0.0
 20
0.0
 30
0.0
 70
   128
 71
   24
 72
   35
 73
   34
  0
VERTEX
  8
bark
 10
0.0
 20
0.0
 30
0.0
 70
   128
 71
   25
 72
   36
 73
   35
  0
VERTEX
  8
bark
 10
0.0
 20
0.0
 30
0.0
 70
   128
 71
   26
 72
   37
 73
   36
  0
VERTEX
  8
bark
 10
0.0
 20
0.0
 30
0.0
 70
   128
 71
   27
 72
   38
 73
   37
  0
VERTEX
  8
bark
 10
0.0
 20
0.0
 30
0.0
 70
   128
 71
   28
 72
   39
 73
   38
  0
VERTEX
  8
bark
 10
0.0
 20
0.0
 30
0.0
 70
   128
 71
   29
 72
   40
 73
   39
  0
VERTEX
  8
bark
 10
0.0
 20
0.0
 30
0.0
 70
   128
 71
   30
 72
   31
 73
   40
  0
VERTEX
  8
bark
 10
0.0
 20
0.0
 30
0.0
 70
   128
 71
   41
 72
   52
 73
   51
  0
VERTEX
  8
bark
 10
0.0
 20
0.0
 30
0.0
 70
   128
 71
   42
 72
   53
 73
   52
  0
VERTEX
  8
bark
 10
0.0
 20
0.0
 30
0.0
 70
   128
 71
   43
 72
   54
 73
   53
  0
VERTEX
  8
bark
 10
0.0
 20
0.0
 30
0.0
 70
   128
 71
   44
 72
   55
 73
   54
  0
VERTEX
  8
bark
 10
0.0
 20
0.0
 30
0.0
 70
   128
 71
   45
 72
   56
 73
   55
  0
VERTEX
  8
bark
 10
0.0
 20
0.0
 30
0.0
 70
   128
 71
   46
 72
   57
 73
   56
  0
VERTEX
  8
bark
 10
0.0
 20
0.0
 30
0.0
 70
   128
 71
   47
 72
   58
 73
   57
  0
VERTEX
  8
bark
 10
0.0
 20
0.0
 30
0.0
 70
   128
 71
   48
 72
   59
 73
   58
  0
VERTEX
  8
bark
 10
0.0
 20
0.0
 30
0.0
 70
   128
 71
   49
 72
   60
 73
   59
  0
VERTEX
  8
bark
 10
0.0
 20
0.0
 30
0.0
 70
   128
 71
   50
 72
   51
 73
   60
  0
VERTEX
  8
bark
 10
0.0
 20
0.0
 30
0.0
 70
   128
 71
   51
 72
   62
 73
   61
  0
VERTEX
  8
bark
 10
0.0
 20
0.0
 30
0.0
 70
   128
 71
   52
 72
   63
 73
   62
  0
VERTEX
  8
bark
 10
0.0
 20
0.0
 30
0.0
 70
   128
 71
   53
 72
   64
 73
   63
  0
VERTEX
  8
bark
 10
0.0
 20
0.0
 30
0.0
 70
   128
 71
   54
 72
   65
 73
   64
  0
VERTEX
  8
bark
 10
0.0
 20
0.0
 30
0.0
 70
   128
 71
   56
 72
   66
 73
   65
  0
VERTEX
  8
bark
 10
0.0
 20
0.0
 30
0.0
 70
   128
 71
   56
 72
   67
 73
   66
  0
VERTEX
  8
bark
 10
0.0
 20
0.0
 30
0.0
 70
   128
 71
   57
 72
   68
 73
   67
  0
VERTEX
  8
bark
 10
0.0
 20
0.0
 30
0.0
 70
   128
 71
   58
 72
   69
 73
   68
  0
VERTEX
  8
bark
 10
0.0
 20
0.0
 30
0.0
 70
   128
 71
   59
 72
   70
 73
   69
  0
VERTEX
  8
bark
 10
0.0
 20
0.0
 30
0.0
 70
   128
 71
   60
 72
   61
 73
   70
  0
VERTEX
  8
bark
 10
0.0
 20
0.0
 30
0.0
 70
   128
 71
   61
 72
   72
 73
   71
  0
VERTEX
  8
bark
 10
0.0
 20
0.0
 30
0.0
 70
   128
 71
   62
 72
   73
 73
   72
  0
VERTEX
  8
bark
 10
0.0
 20
0.0
 30
0.0
 70
   128
 71
   63
 72
   74
 73
   73
  0
VERTEX
  8
bark
 10
0.0
 20
0.0
 30
0.0
 70
   128
 71
   65
 72
   75
 73
   74
  0
VERTEX
  8
bark
 10
0.0
 20
0.0
 30
0.0
 70
   128
 71
   65
 72
   76
 73
   75
  0
VERTEX
  8
bark
 10
0.0
 20
0.0
 30
0.0
 70
   128
 71
   66
 72
   77
 73
   76
  0
VERTEX
  8
bark
 10
0.0
 20
0.0
 30
0.0
 70
   128
 71
   67
 72
   78
 73
   77
  0
VERTEX
  8
bark
 10
0.0
 20
0.0
 30
0.0
 70
   128
 71
   69
 72
   79
 73
   78
  0
VERTEX
  8
bark
 10
0.0
 20
0.0
 30
0.0
 70
   128
 71
   69
 72
   80
 73
   79
  0
VERTEX
  8
bark
 10
0.0
 20
0.0
 30
0.0
 70
   128
 71
   70
 72
   71
 73
   80
  0
VERTEX
  8
bark
 10
0.0
 20
0.0
 30
0.0
 70
   128
 71
   71
 72
   82
 73
   81
  0
VERTEX
  8
bark
 10
0.0
 20
0.0
 30
0.0
 70
   128
 71
   72
 72
   83
 73
   82
  0
VERTEX
  8
bark
 10
0.0
 20
0.0
 30
0.0
 70
   128
 71
   73
 72
   84
 73
   83
  0
VERTEX
  8
bark
 10
0.0
 20
0.0
 30
0.0
 70
   128
 71
   74
 72
   85
 73
   84
  0
VERTEX
  8
bark
 10
0.0
 20
0.0
 30
0.0
 70
   128
 71
   75
 72
   86
 73
   85
  0
VERTEX
  8
bark
 10
0.0
 20
0.0
 30
0.0
 70
   128
 71
   76
 72
   87
 73
   86
  0
VERTEX
  8
bark
 10
0.0
 20
0.0
 30
0.0
 70
   128
 71
   78
 72
   88
 73
   87
  0
VERTEX
  8
bark
 10
0.0
 20
0.0
 30
0.0
 70
   128
 71
   78
 72
   89
 73
   88
  0
VERTEX
  8
bark
 10
0.0
 20
0.0
 30
0.0
 70
   128
 71
   79
 72
   90
 73
   89
  0
VERTEX
  8
bark
 10
0.0
 20
0.0
 30
0.0
 70
   128
 71
   80
 72
   81
 73
   90
  0
VERTEX
  8
bark
 10
0.0
 20
0.0
 30
0.0
 70
   128
 71
   81
 72
   92
 73
   91
  0
VERTEX
  8
bark
 10
0.0
 20
0.0
 30
0.0
 70
   128
 71
   82
 72
   93
 73
   92
  0
VERTEX
  8
bark
 10
0.0
 20
0.0
 30
0.0
 70
   128
 71
   83
 72
   94
 73
   93
  0
VERTEX
  8
bark
 10
0.0
 20
0.0
 30
0.0
 70
   128
 71
   84
 72
   95
 73
   94
  0
VERTEX
  8
bark
 10
0.0
 20
0.0
 30
0.0
 70
   128
 71
   86
 72
   96
 73
   95
  0
VERTEX
  8
bark
 10
0.0
 20
0.0
 30
0.0
 70
   128
 71
   86
 72
   97
 73
   96
  0
VERTEX
  8
bark
 10
0.0
 20
0.0
 30
0.0
 70
   128
 71
   87
 72
   98
 73
   97
  0
VERTEX
  8
bark
 10
0.0
 20
0.0
 30
0.0
 70
   128
 71
   88
 72
   99
 73
   98
  0
VERTEX
  8
bark
 10
0.0
 20
0.0
 30
0.0
 70
   128
 71
   89
 72
   100
 73
   99
  0
VERTEX
  8
bark
 10
0.0
 20
0.0
 30
0.0
 70
   128
 71
   90
 72
   91
 73
   100
  0
VERTEX
  8
bark
 10
0.0
 20
0.0
 30
0.0
 70
   128
 71
   91
 72
   102
 73
   101
  0
VERTEX
  8
bark
 10
0.0
 20
0.0
 30
0.0
 70
   128
 71
   92
 72
   103
 73
   102
  0
VERTEX
  8
bark
 10
0.0
 20
0.0
 30
0.0
 70
   128
 71
   93
 72
   104
 73
   103
  0
VERTEX
  8
bark
 10
0.0
 20
0.0
 30
0.0
 70
   128
 71
   94
 72
   105
 73
   104
  0
VERTEX
  8
bark
 10
0.0
 20
0.0
 30
0.0
 70
   128
 71
   95
 72
   106
 73
   105
  0
VERTEX
  8
bark
 10
0.0
 20
0.0
 30
0.0
 70
   128
 71
   96
 72
   107
 73
   106
  0
VERTEX
  8
bark
 10
0.0
 20
0.0
 30
0.0
 70
   128
 71
   97
 72
   108
 73
   107
  0
VERTEX
  8
bark
 10
0.0
 20
0.0
 30
0.0
 70
   128
 71
   98
 72
   109
 73
   108
  0
VERTEX
  8
bark
 10
0.0
 20
0.0
 30
0.0
 70
   128
 71
   99
 72
   110
 73
   109
  0
VERTEX
  8
bark
 10
0.0
 20
0.0
 30
0.0
 70
   128
 71
   100
 72
   101
 73
   110
  0
VERTEX
  8
bark
 10
0.0
 20
0.0
 30
0.0
 70
   128
 71
   101
 72
   112
 73
   111
  0
VERTEX
  8
bark
 10
0.0
 20
0.0
 30
0.0
 70
   128
 71
   102
 72
   113
 73
   112
  0
VERTEX
  8
bark
 10
0.0
 20
0.0
 30
0.0
 70
   128
 71
   103
 72
   114
 73
   113
  0
VERTEX
  8
bark
 10
0.0
 20
0.0
 30
0.0
 70
   128
 71
   104
 72
   115
 73
   114
  0
VERTEX
  8
bark
 10
0.0
 20
0.0
 30
0.0
 70
   128
 71
   105
 72
   116
 73
   115
  0
VERTEX
  8
bark
 10
0.0
 20
0.0
 30
0.0
 70
   128
 71
   106
 72
   117
 73
   116
  0
VERTEX
  8
bark
 10
0.0
 20
0.0
 30
0.0
 70
   128
 71
   107
 72
   118
 73
   117
  0
VERTEX
  8
bark
 10
0.0
 20
0.0
 30
0.0
 70
   128
 71
   108
 72
   119
 73
   118
  0
VERTEX
  8
bark
 10
0.0
 20
0.0
 30
0.0
 70
   128
 71
   109
 72
   120
 73
   119
  0
VERTEX
  8
bark
 10
0.0
 20
0.0
 30
0.0
 70
   128
 71
   110
 72
   111
 73
   120
  0
VERTEX
  8
bark
 10
0.0
 20
0.0
 30
0.0
 70
   128
 71
   111
 72
   122
 73
   121
  0
VERTEX
  8
bark
 10
0.0
 20
0.0
 30
0.0
 70
   128
 71
   112
 72
   123
 73
   122
  0
VERTEX
  8
bark
 10
0.0
 20
0.0
 30
0.0
 70
   128
 71
   113
 72
   124
 73
   123
  0
VERTEX
  8
bark
 10
0.0
 20
0.0
 30
0.0
 70
   128
 71
   114
 72
   125
 73
   124
  0
VERTEX
  8
bark
 10
0.0
 20
0.0
 30
0.0
 70
   128
 71
   116
 72
   126
 73
   125
  0
VERTEX
  8
bark
 10
0.0
 20
0.0
 30
0.0
 70
   128
 71
   116
 72
   127
 73
   126
  0
VERTEX
  8
bark
 10
0.0
 20
0.0
 30
0.0
 70
   128
 71
   117
 72
   128
 73
   127
  0
VERTEX
  8
bark
 10
0.0
 20
0.0
 30
0.0
 70
   128
 71
   118
 72
   129
 73
   128
  0
VERTEX
  8
bark
 10
0.0
 20
0.0
 30
0.0
 70
   128
 71
   119
 72
   130
 73
   129
  0
VERTEX
  8
bark
 10
0.0
 20
0.0
 30
0.0
 70
   128
 71
   120
 72
   121
 73
   130
  0
VERTEX
  8
bark
 10
0.0
 20
0.0
 30
0.0
 70
   128
 71
   121
 72
   132
 73
   131
  0
VERTEX
  8
bark
 10
0.0
 20
0.0
 30
0.0
 70
   128
 71
   122
 72
   133
 73
   132
  0
VERTEX
  8
bark
 10
0.0
 20
0.0
 30
0.0
 70
   128
 71
   123
 72
   134
 73
   133
  0
VERTEX
  8
bark
 10
0.0
 20
0.0
 30
0.0
 70
   128
 71
   124
 72
   135
 73
   134
  0
VERTEX
  8
bark
 10
0.0
 20
0.0
 30
0.0
 70
   128
 71
   125
 72
   136
 73
   135
  0
VERTEX
  8
bark
 10
0.0
 20
0.0
 30
0.0
 70
   128
 71
   126
 72
   137
 73
   136
  0
VERTEX
  8
bark
 10
0.0
 20
0.0
 30
0.0
 70
   128
 71
   127
 72
   138
 73
   137
  0
VERTEX
  8
bark
 10
0.0
 20
0.0
 30
0.0
 70
   128
 71
   128
 72
   139
 73
   138
  0
VERTEX
  8
bark
 10
0.0
 20
0.0
 30
0.0
 70
   128
 71
   129
 72
   140
 73
   139
  0
VERTEX
  8
bark
 10
0.0
 20
0.0
 30
0.0
 70
   128
 71
   130
 72
   131
 73
   140
  0
VERTEX
  8
bark
 10
0.0
 20
0.0
 30
0.0
 70
   128
 71
   131
 72
   142
 73
   141
  0
VERTEX
  8
bark
 10
0.0
 20
0.0
 30
0.0
 70
   128
 71
   132
 72
   143
 73
   142
  0
VERTEX
  8
bark
 10
0.0
 20
0.0
 30
0.0
 70
   128
 71
   133
 72
   144
 73
   143
  0
VERTEX
  8
bark
 10
0.0
 20
0.0
 30
0.0
 70
   128
 71
   135
 72
   145
 73
   144
  0
VERTEX
  8
bark
 10
0.0
 20
0.0
 30
0.0
 70
   128
 71
   135
 72
   146
 73
   145
  0
VERTEX
  8
bark
 10
0.0
 20
0.0
 30
0.0
 70
   128
 71
   136
 72
   147
 73
   146
  0
VERTEX
  8
bark
 10
0.0
 20
0.0
 30
0.0
 70
   128
 71
   137
 72
   148
 73
   147
  0
VERTEX
  8
bark
 10
0.0
 20
0.0
 30
0.0
 70
   128
 71
   138
 72
   149
 73
   148
  0
VERTEX
  8
bark
 10
0.0
 20
0.0
 30
0.0
 70
   128
 71
   139
 72
   150
 73
   149
  0
VERTEX
  8
bark
 10
0.0
 20
0.0
 30
0.0
 70
   128
 71
   140
 72
   141
 73
   150
  0
VERTEX
  8
bark
 10
0.0
 20
0.0
 30
0.0
 70
   128
 71
   141
 72
   152
 73
   151
  0
VERTEX
  8
bark
 10
0.0
 20
0.0
 30
0.0
 70
   128
 71
   142
 72
   153
 73
   152
  0
VERTEX
  8
bark
 10
0.0
 20
0.0
 30
0.0
 70
   128
 71
   143
 72
   154
 73
   153
  0
VERTEX
  8
bark
 10
0.0
 20
0.0
 30
0.0
 70
   128
 71
   144
 72
   155
 73
   154
  0
VERTEX
  8
bark
 10
0.0
 20
0.0
 30
0.0
 70
   128
 71
   145
 72
   156
 73
   155
  0
VERTEX
  8
bark
 10
0.0
 20
0.0
 30
0.0
 70
   128
 71
   146
 72
   157
 73
   156
  0
VERTEX
  8
bark
 10
0.0
 20
0.0
 30
0.0
 70
   128
 71
   147
 72
   158
 73
   157
  0
VERTEX
  8
bark
 10
0.0
 20
0.0
 30
0.0
 70
   128
 71
   148
 72
   159
 73
   158
  0
VERTEX
  8
bark
 10
0.0
 20
0.0
 30
0.0
 70
   128
 71
   149
 72
   160
 73
   159
  0
VERTEX
  8
bark
 10
0.0
 20
0.0
 30
0.0
 70
   128
 71
   150
 72
   151
 73
   160
  0
VERTEX
  8
bark
 10
0.0
 20
0.0
 30
0.0
 70
   128
 71
   151
 72
   162
 73
   161
  0
VERTEX
  8
bark
 10
0.0
 20
0.0
 30
0.0
 70
   128
 71
   152
 72
   163
 73
   162
  0
VERTEX
  8
bark
 10
0.0
 20
0.0
 30
0.0
 70
   128
 71
   153
 72
   164
 73
   163
  0
VERTEX
  8
bark
 10
0.0
 20
0.0
 30
0.0
 70
   128
 71
   154
 72
   165
 73
   164
  0
VERTEX
  8
bark
 10
0.0
 20
0.0
 30
0.0
 70
   128
 71
   155
 72
   166
 73
   165
  0
VERTEX
  8
bark
 10
0.0
 20
0.0
 30
0.0
 70
   128
 71
   156
 72
   167
 73
   166
  0
VERTEX
  8
bark
 10
0.0
 20
0.0
 30
0.0
 70
   128
 71
   157
 72
   168
 73
   167
  0
VERTEX
  8
bark
 10
0.0
 20
0.0
 30
0.0
 70
   128
 71
   158
 72
   169
 73
   168
  0
VERTEX
  8
bark
 10
0.0
 20
0.0
 30
0.0
 70
   128
 71
   159
 72
   170
 73
   169
  0
VERTEX
  8
bark
 10
0.0
 20
0.0
 30
0.0
 70
   128
 71
   160
 72
   161
 73
   170
  0
VERTEX
  8
bark
 10
0.0
 20
0.0
 30
0.0
 70
   128
 71
   161
 72
   172
 73
   171
  0
VERTEX
  8
bark
 10
0.0
 20
0.0
 30
0.0
 70
   128
 71
   162
 72
   173
 73
   172
  0
VERTEX
  8
bark
 10
0.0
 20
0.0
 30
0.0
 70
   128
 71
   163
 72
   174
 73
   173
  0
VERTEX
  8
bark
 10
0.0
 20
0.0
 30
0.0
 70
   128
 71
   164
 72
   175
 73
   174
  0
VERTEX
  8
bark
 10
0.0
 20
0.0
 30
0.0
 70
   128
 71
   165
 72
   176
 73
   175
  0
VERTEX
  8
bark
 10
0.0
 20
0.0
 30
0.0
 70
   128
 71
   166
 72
   177
 73
   176
  0
VERTEX
  8
bark
 10
0.0
 20
0.0
 30
0.0
 70
   128
 71
   167
 72
   178
 73
   177
  0
VERTEX
  8
bark
 10
0.0
 20
0.0
 30
0.0
 70
   128
 71
   168
 72
   179
 73
   178
  0
VERTEX
  8
bark
 10
0.0
 20
0.0
 30
0.0
 70
   128
 71
   169
 72
   180
 73
   179
  0
VERTEX
  8
bark
 10
0.0
 20
0.0
 30
0.0
 70
   128
 71
   170
 72
   171
 73
   180
  0
VERTEX
  8
bark
 10
0.0
 20
0.0
 30
0.0
 70
   128
 71
   181
 72
   192
 73
   191
  0
VERTEX
  8
bark
 10
0.0
 20
0.0
 30
0.0
 70
   128
 71
   182
 72
   193
 73
   192
  0
VERTEX
  8
bark
 10
0.0
 20
0.0
 30
0.0
 70
   128
 71
   183
 72
   194
 73
   193
  0
VERTEX
  8
bark
 10
0.0
 20
0.0
 30
0.0
 70
   128
 71
   184
 72
   195
 73
   194
  0
VERTEX
  8
bark
 10
0.0
 20
0.0
 30
0.0
 70
   128
 71
   185
 72
   196
 73
   195
  0
VERTEX
  8
bark
 10
0.0
 20
0.0
 30
0.0
 70
   128
 71
   186
 72
   197
 73
   196
  0
VERTEX
  8
bark
 10
0.0
 20
0.0
 30
0.0
 70
   128
 71
   187
 72
   198
 73
   197
  0
VERTEX
  8
bark
 10
0.0
 20
0.0
 30
0.0
 70
   128
 71
   188
 72
   199
 73
   198
  0
VERTEX
  8
bark
 10
0.0
 20
0.0
 30
0.0
 70
   128
 71
   189
 72
   200
 73
   199
  0
VERTEX
  8
bark
 10
0.0
 20
0.0
 30
0.0
 70
   128
 71
   190
 72
   191
 73
   200
  0
VERTEX
  8
bark
 10
0.0
 20
0.0
 30
0.0
 70
   128
 71
   191
 72
   202
 73
   201
  0
VERTEX
  8
bark
 10
0.0
 20
0.0
 30
0.0
 70
   128
 71
   192
 72
   203
 73
   202
  0
VERTEX
  8
bark
 10
0.0
 20
0.0
 30
0.0
 70
   128
 71
   193
 72
   204
 73
   203
  0
VERTEX
  8
bark
 10
0.0
 20
0.0
 30
0.0
 70
   128
 71
   194
 72
   205
 73
   204
  0
VERTEX
  8
bark
 10
0.0
 20
0.0
 30
0.0
 70
   128
 71
   195
 72
   206
 73
   205
  0
VERTEX
  8
bark
 10
0.0
 20
0.0
 30
0.0
 70
   128
 71
   196
 72
   207
 73
   206
  0
VERTEX
  8
bark
 10
0.0
 20
0.0
 30
0.0
 70
   128
 71
   197
 72
   208
 73
   207
  0
VERTEX
  8
bark
 10
0.0
 20
0.0
 30
0.0
 70
   128
 71
   198
 72
   209
 73
   208
  0
VERTEX
  8
bark
 10
0.0
 20
0.0
 30
0.0
 70
   128
 71
   199
 72
   210
 73
   209
  0
VERTEX
  8
bark
 10
0.0
 20
0.0
 30
0.0
 70
   128
 71
   200
 72
   201
 73
   210
  0
VERTEX
  8
bark
 10
0.0
 20
0.0
 30
0.0
 70
   128
 71
   201
 72
   212
 73
   211
  0
VERTEX
  8
bark
 10
0.0
 20
0.0
 30
0.0
 70
   128
 71
   202
 72
   213
 73
   212
  0
VERTEX
  8
bark
 10
0.0
 20
0.0
 30
0.0
 70
   128
 71
   203
 72
   214
 73
   213
  0
VERTEX
  8
bark
 10
0.0
 20
0.0
 30
0.0
 70
   128
 71
   204
 72
   215
 73
   214
  0
VERTEX
  8
bark
 10
0.0
 20
0.0
 30
0.0
 70
   128
 71
   205
 72
   216
 73
   215
  0
VERTEX
  8
bark
 10
0.0
 20
0.0
 30
0.0
 70
   128
 71
   206
 72
   217
 73
   216
  0
VERTEX
  8
bark
 10
0.0
 20
0.0
 30
0.0
 70
   128
 71
   207
 72
   218
 73
   217
  0
VERTEX
  8
bark
 10
0.0
 20
0.0
 30
0.0
 70
   128
 71
   208
 72
   219
 73
   218
  0
VERTEX
  8
bark
 10
0.0
 20
0.0
 30
0.0
 70
   128
 71
   209
 72
   220
 73
   219
  0
VERTEX
  8
bark
 10
0.0
 20
0.0
 30
0.0
 70
   128
 71
   210
 72
   211
 73
   220
  0
VERTEX
  8
bark
 10
0.0
 20
0.0
 30
0.0
 70
   128
 71
   211
 72
   222
 73
   221
  0
VERTEX
  8
bark
 10
0.0
 20
0.0
 30
0.0
 70
   128
 71
   212
 72
   223
 73
   222
  0
VERTEX
  8
bark
 10
0.0
 20
0.0
 30
0.0
 70
   128
 71
   213
 72
   224
 73
   223
  0
VERTEX
  8
bark
 10
0.0
 20
0.0
 30
0.0
 70
   128
 71
   214
 72
   225
 73
   224
  0
VERTEX
  8
bark
 10
0.0
 20
0.0
 30
0.0
 70
   128
 71
   215
 72
   226
 73
   225
  0
VERTEX
  8
bark
 10
0.0
 20
0.0
 30
0.0
 70
   128
 71
   216
 72
   227
 73
   226
  0
VERTEX
  8
bark
 10
0.0
 20
0.0
 30
0.0
 70
   128
 71
   217
 72
   228
 73
   227
  0
VERTEX
  8
bark
 10
0.0
 20
0.0
 30
0.0
 70
   128
 71
   218
 72
   229
 73
   228
  0
VERTEX
  8
bark
 10
0.0
 20
0.0
 30
0.0
 70
   128
 71
   219
 72
   230
 73
   229
  0
VERTEX
  8
bark
 10
0.0
 20
0.0
 30
0.0
 70
   128
 71
   220
 72
   221
 73
   230
  0
SEQEND
  0
ENDSEC
  0
EOF
