999
FBX AutoCAD (*.DXF) exporter
  0
SECTION
  2
HEADER
  9
$ACADVER
  1
AC1008
  9
$UCSORG
 10
0.0
 20
0.0
 30
0.0
  9
$UCSXDIR
 10
1.0
 20
0.0
 30
0.0
  9
$TILEMODE
 70
   1
  9
$UCSYDIR
 10
0.0
 20
1.0
 30
0.0
  0
ENDSEC
  0
SECTION
  2
TABLES
  0
TABLE
  2
LTYPE
 70
   1
  0
LTYPE
  2
CONTINUOUS
 70
   64
  3
Solid line
 72
   65
 73
   0
 40
0.0
  0
ENDTAB
  0
TABLE
  2
LAYER
 70
   2
  0
LAYER
  2
bark
 70
   0
 62
   250
  6
CONTINUOUS
  0
ENDTAB
  0
ENDSEC
  0
SECTION
  2
BLOCKS
  0
ENDSEC
  0
SECTION
  2
ENTITIES
  0
POLYLINE
  8
bark
 66
   1
 10
0.0
 20
0.0
 30
0.0
 70
   64
 71
   78
 72
   144
  0
VERTEX
  8
bark
 10
-2.044291
 20
304.971967
 30
-2.013633
 70
   192
  0
VERTEX
  8
bark
 10
0.499883
 20
307.548411
 30
-2.013633
 70
   192
  0
VERTEX
  8
bark
 10
1.771970
 20
308.836632
 30
1.952136
 70
   192
  0
VERTEX
  8
bark
 10
0.499883
 20
307.548411
 30
5.917905
 70
   192
  0
VERTEX
  8
bark
 10
-2.044292
 20
304.971968
 30
5.917905
 70
   192
  0
VERTEX
  8
bark
 10
-49.974039
 20
379.053814
 30
0.000000
 70
   192
  0
VERTEX
  8
bark
 10
-46.994831
 20
379.882402
 30
-5.196152
 70
   192
  0
VERTEX
  8
bark
 10
-41.036416
 20
381.539579
 30
-5.196152
 70
   192
  0
VERTEX
  8
bark
 10
-38.057208
 20
382.368167
 30
0.000000
 70
   192
  0
VERTEX
  8
bark
 10
-41.036416
 20
381.539579
 30
5.196152
 70
   192
  0
VERTEX
  8
bark
 10
-46.994831
 20
379.882402
 30
5.196152
 70
   192
  0
VERTEX
  8
bark
 10
-56.769533
 20
636.942987
 30
0.000000
 70
   192
  0
VERTEX
  8
bark
 10
-53.802945
 20
638.250491
 30
-5.196152
 70
   192
  0
VERTEX
  8
bark
 10
-47.869769
 20
640.865498
 30
-5.196152
 70
   192
  0
VERTEX
  8
bark
 10
-44.903181
 20
642.173002
 30
0.000000
 70
   192
  0
VERTEX
  8
bark
 10
-47.869769
 20
640.865498
 30
5.196152
 70
   192
  0
VERTEX
  8
bark
 10
-53.802945
 20
638.250491
 30
5.196152
 70
   192
  0
VERTEX
  8
bark
 10
-109.438611
 20
687.696826
 30
0.000000
 70
   192
  0
VERTEX
  8
bark
 10
-106.466814
 20
688.999310
 30
-5.196152
 70
   192
  0
VERTEX
  8
bark
 10
-100.523221
 20
691.604280
 30
-5.196152
 70
   192
  0
VERTEX
  8
bark
 10
-97.551425
 20
692.906765
 30
0.000000
 70
   192
  0
VERTEX
  8
bark
 10
-100.523221
 20
691.604280
 30
5.196152
 70
   192
  0
VERTEX
  8
bark
 10
-106.466814
 20
688.999310
 30
5.196152
 70
   192
  0
VERTEX
  8
bark
 10
-113.323258
 20
862.505931
 30
0.000000
 70
   192
  0
VERTEX
  8
bark
 10
-104.325479
 20
862.705882
 30
5.196152
 70
   192
  0
VERTEX
  8
bark
 10
-3.316379
 20
303.683746
 30
1.952136
 70
   192
  0
VERTEX
  8
bark
 10
-110.323998
 20
862.572581
 30
-5.196152
 70
   192
  0
VERTEX
  8
bark
 10
-104.325479
 20
862.705882
 30
-5.196152
 70
   192
  0
VERTEX
  8
bark
 10
-101.326220
 20
862.772532
 30
0.000000
 70
   192
  0
VERTEX
  8
bark
 10
-110.323998
 20
862.572581
 30
5.196152
 70
   192
  0
VERTEX
  8
bark
 10
4.386842
 20
407.823975
 30
2.261104
 70
   192
  0
VERTEX
  8
bark
 10
1.713954
 20
407.799527
 30
6.890876
 70
   192
  0
VERTEX
  8
bark
 10
-6.304710
 20
407.726186
 30
2.261104
 70
   192
  0
VERTEX
  8
bark
 10
-3.631822
 20
407.750633
 30
-2.368667
 70
   192
  0
VERTEX
  8
bark
 10
-4.480692
 20
732.715044
 30
0.000000
 70
   192
  0
VERTEX
  8
bark
 10
-7.469192
 20
731.444029
 30
5.196152
 70
   192
  0
VERTEX
  8
bark
 10
-13.446193
 20
728.901999
 30
5.196152
 70
   192
  0
VERTEX
  8
bark
 10
-16.434693
 20
727.630985
 30
0.000000
 70
   192
  0
VERTEX
  8
bark
 10
-13.446193
 20
728.901999
 30
-5.196152
 70
   192
  0
VERTEX
  8
bark
 10
-7.469192
 20
731.444029
 30
-5.196152
 70
   192
  0
VERTEX
  8
bark
 10
-54.271991
 20
781.548819
 30
0.000000
 70
   192
  0
VERTEX
  8
bark
 10
-57.258027
 20
780.275387
 30
5.196152
 70
   192
  0
VERTEX
  8
bark
 10
-63.230099
 20
777.728523
 30
5.196152
 70
   192
  0
VERTEX
  8
bark
 10
-66.216135
 20
776.455091
 30
0.000000
 70
   192
  0
VERTEX
  8
bark
 10
-63.230099
 20
777.728523
 30
-5.196152
 70
   192
  0
VERTEX
  8
bark
 10
-57.258027
 20
780.275387
 30
-5.196152
 70
   192
  0
VERTEX
  8
bark
 10
-3.631822
 20
407.750633
 30
6.890876
 70
   192
  0
VERTEX
  8
bark
 10
1.713954
 20
407.799527
 30
-2.368667
 70
   192
  0
VERTEX
  8
bark
 10
-55.201863
 20
865.237335
 30
0.000000
 70
   192
  0
VERTEX
  8
bark
 10
-58.201678
 20
865.204004
 30
5.196152
 70
   192
  0
VERTEX
  8
bark
 10
-64.201308
 20
865.137342
 30
5.196152
 70
   192
  0
VERTEX
  8
bark
 10
-67.201123
 20
865.104010
 30
0.000000
 70
   192
  0
VERTEX
  8
bark
 10
-64.201308
 20
865.137342
 30
-5.196152
 70
   192
  0
VERTEX
  8
bark
 10
-58.201678
 20
865.204004
 30
-5.196152
 70
   192
  0
VERTEX
  8
bark
 10
-0.536889
 20
0.956481
 30
2.594316
 70
   192
  0
VERTEX
  8
bark
 10
-5.017375
 20
1.014610
 30
-1.395905
 70
   192
  0
VERTEX
  8
bark
 10
-3.801680
 20
1.130867
 30
-7.270304
 70
   192
  0
VERTEX
  8
bark
 10
1.894502
 20
1.188995
 30
-9.154483
 70
   192
  0
VERTEX
  8
bark
 10
-2.130956
 20
406.839951
 30
10.297059
 70
   192
  0
VERTEX
  8
bark
 10
-6.607751
 20
405.958152
 30
6.289001
 70
   192
  0
VERTEX
  8
bark
 10
-5.384673
 20
404.194552
 30
0.378926
 70
   192
  0
VERTEX
  8
bark
 10
0.315201
 20
403.312752
 30
-1.523091
 70
   192
  0
VERTEX
  8
bark
 10
4.791996
 20
404.194552
 30
2.484967
 70
   192
  0
VERTEX
  8
bark
 10
3.568918
 20
405.958152
 30
8.395042
 70
   192
  0
VERTEX
  8
bark
 10
7.348470
 20
477.008915
 30
-35.508769
 70
   192
  0
VERTEX
  8
bark
 10
2.868872
 20
476.106365
 30
-39.503282
 70
   192
  0
VERTEX
  8
bark
 10
4.086344
 20
474.301265
 30
-45.386266
 70
   192
  0
VERTEX
  8
bark
 10
9.783414
 20
473.398715
 30
-47.274737
 70
   192
  0
VERTEX
  8
bark
 10
14.263012
 20
474.301265
 30
-43.280225
 70
   192
  0
VERTEX
  8
bark
 10
13.045540
 20
476.106365
 30
-37.397241
 70
   192
  0
VERTEX
  8
bark
 10
7.078980
 20
793.395692
 30
-34.206559
 70
   192
  0
VERTEX
  8
bark
 10
2.598602
 20
793.408301
 30
-38.197306
 70
   192
  0
VERTEX
  8
bark
 10
3.814515
 20
793.433519
 30
-44.072756
 70
   192
  0
VERTEX
  8
bark
 10
9.510806
 20
793.446129
 30
-45.957461
 70
   192
  0
VERTEX
  8
bark
 10
13.991184
 20
793.433519
 30
-41.966715
 70
   192
  0
VERTEX
  8
bark
 10
12.775271
 20
793.408301
 30
-36.091264
 70
   192
  0
VERTEX
  8
bark
 10
6.374989
 20
1.130867
 30
-5.164263
 70
   192
  0
VERTEX
  8
bark
 10
5.159294
 20
1.014610
 30
0.710137
 70
   192
  0
VERTEX
  8
bark
 10
0.0
 20
0.0
 30
0.0
 70
   128
 71
   26
 72
   1
 73
   7
  0
VERTEX
  8
bark
 10
0.0
 20
0.0
 30
0.0
 70
   128
 71
   1
 72
   2
 73
   8
  0
VERTEX
  8
bark
 10
0.0
 20
0.0
 30
0.0
 70
   128
 71
   2
 72
   3
 73
   9
  0
VERTEX
  8
bark
 10
0.0
 20
0.0
 30
0.0
 70
   128
 71
   3
 72
   4
 73
   10
  0
VERTEX
  8
bark
 10
0.0
 20
0.0
 30
0.0
 70
   128
 71
   4
 72
   5
 73
   11
  0
VERTEX
  8
bark
 10
0.0
 20
0.0
 30
0.0
 70
   128
 71
   5
 72
   26
 73
   6
  0
VERTEX
  8
bark
 10
0.0
 20
0.0
 30
0.0
 70
   128
 71
   6
 72
   7
 73
   13
  0
VERTEX
  8
bark
 10
0.0
 20
0.0
 30
0.0
 70
   128
 71
   7
 72
   8
 73
   14
  0
VERTEX
  8
bark
 10
0.0
 20
0.0
 30
0.0
 70
   128
 71
   8
 72
   9
 73
   15
  0
VERTEX
  8
bark
 10
0.0
 20
0.0
 30
0.0
 70
   128
 71
   9
 72
   10
 73
   16
  0
VERTEX
  8
bark
 10
0.0
 20
0.0
 30
0.0
 70
   128
 71
   10
 72
   11
 73
   17
  0
VERTEX
  8
bark
 10
0.0
 20
0.0
 30
0.0
 70
   128
 71
   11
 72
   6
 73
   12
  0
VERTEX
  8
bark
 10
0.0
 20
0.0
 30
0.0
 70
   128
 71
   12
 72
   13
 73
   19
  0
VERTEX
  8
bark
 10
0.0
 20
0.0
 30
0.0
 70
   128
 71
   13
 72
   14
 73
   20
  0
VERTEX
  8
bark
 10
0.0
 20
0.0
 30
0.0
 70
   128
 71
   14
 72
   15
 73
   21
  0
VERTEX
  8
bark
 10
0.0
 20
0.0
 30
0.0
 70
   128
 71
   15
 72
   16
 73
   22
  0
VERTEX
  8
bark
 10
0.0
 20
0.0
 30
0.0
 70
   128
 71
   16
 72
   17
 73
   23
  0
VERTEX
  8
bark
 10
0.0
 20
0.0
 30
0.0
 70
   128
 71
   17
 72
   12
 73
   18
  0
VERTEX
  8
bark
 10
0.0
 20
0.0
 30
0.0
 70
   128
 71
   18
 72
   19
 73
   27
  0
VERTEX
  8
bark
 10
0.0
 20
0.0
 30
0.0
 70
   128
 71
   19
 72
   20
 73
   28
  0
VERTEX
  8
bark
 10
0.0
 20
0.0
 30
0.0
 70
   128
 71
   20
 72
   21
 73
   29
  0
VERTEX
  8
bark
 10
0.0
 20
0.0
 30
0.0
 70
   128
 71
   21
 72
   22
 73
   25
  0
VERTEX
  8
bark
 10
0.0
 20
0.0
 30
0.0
 70
   128
 71
   22
 72
   23
 73
   30
  0
VERTEX
  8
bark
 10
0.0
 20
0.0
 30
0.0
 70
   128
 71
   23
 72
   18
 73
   24
  0
VERTEX
  8
bark
 10
0.0
 20
0.0
 30
0.0
 70
   128
 71
   5
 72
   4
 73
   2
  0
VERTEX
  8
bark
 10
0.0
 20
0.0
 30
0.0
 70
   128
 71
   5
 72
   2
 73
   26
  0
VERTEX
  8
bark
 10
0.0
 20
0.0
 30
0.0
 70
   128
 71
   4
 72
   3
 73
   2
  0
VERTEX
  8
bark
 10
0.0
 20
0.0
 30
0.0
 70
   128
 71
   2
 72
   1
 73
   26
  0
VERTEX
  8
bark
 10
0.0
 20
0.0
 30
0.0
 70
   128
 71
   24
 72
   27
 73
   28
  0
VERTEX
  8
bark
 10
0.0
 20
0.0
 30
0.0
 70
   128
 71
   24
 72
   28
 73
   29
  0
VERTEX
  8
bark
 10
0.0
 20
0.0
 30
0.0
 70
   128
 71
   24
 72
   29
 73
   30
  0
VERTEX
  8
bark
 10
0.0
 20
0.0
 30
0.0
 70
   128
 71
   29
 72
   25
 73
   30
  0
VERTEX
  8
bark
 10
0.0
 20
0.0
 30
0.0
 70
   128
 71
   31
 72
   32
 73
   36
  0
VERTEX
  8
bark
 10
0.0
 20
0.0
 30
0.0
 70
   128
 71
   32
 72
   47
 73
   37
  0
VERTEX
  8
bark
 10
0.0
 20
0.0
 30
0.0
 70
   128
 71
   47
 72
   33
 73
   38
  0
VERTEX
  8
bark
 10
0.0
 20
0.0
 30
0.0
 70
   128
 71
   33
 72
   34
 73
   39
  0
VERTEX
  8
bark
 10
0.0
 20
0.0
 30
0.0
 70
   128
 71
   34
 72
   48
 73
   40
  0
VERTEX
  8
bark
 10
0.0
 20
0.0
 30
0.0
 70
   128
 71
   48
 72
   31
 73
   35
  0
VERTEX
  8
bark
 10
0.0
 20
0.0
 30
0.0
 70
   128
 71
   35
 72
   36
 73
   42
  0
VERTEX
  8
bark
 10
0.0
 20
0.0
 30
0.0
 70
   128
 71
   36
 72
   37
 73
   43
  0
VERTEX
  8
bark
 10
0.0
 20
0.0
 30
0.0
 70
   128
 71
   37
 72
   38
 73
   44
  0
VERTEX
  8
bark
 10
0.0
 20
0.0
 30
0.0
 70
   128
 71
   38
 72
   39
 73
   45
  0
VERTEX
  8
bark
 10
0.0
 20
0.0
 30
0.0
 70
   128
 71
   39
 72
   40
 73
   46
  0
VERTEX
  8
bark
 10
0.0
 20
0.0
 30
0.0
 70
   128
 71
   40
 72
   35
 73
   41
  0
VERTEX
  8
bark
 10
0.0
 20
0.0
 30
0.0
 70
   128
 71
   41
 72
   42
 73
   50
  0
VERTEX
  8
bark
 10
0.0
 20
0.0
 30
0.0
 70
   128
 71
   42
 72
   43
 73
   51
  0
VERTEX
  8
bark
 10
0.0
 20
0.0
 30
0.0
 70
   128
 71
   43
 72
   44
 73
   52
  0
VERTEX
  8
bark
 10
0.0
 20
0.0
 30
0.0
 70
   128
 71
   44
 72
   45
 73
   53
  0
VERTEX
  8
bark
 10
0.0
 20
0.0
 30
0.0
 70
   128
 71
   45
 72
   46
 73
   54
  0
VERTEX
  8
bark
 10
0.0
 20
0.0
 30
0.0
 70
   128
 71
   46
 72
   41
 73
   49
  0
VERTEX
  8
bark
 10
0.0
 20
0.0
 30
0.0
 70
   128
 71
   48
 72
   34
 73
   31
  0
VERTEX
  8
bark
 10
0.0
 20
0.0
 30
0.0
 70
   128
 71
   34
 72
   33
 73
   47
  0
VERTEX
  8
bark
 10
0.0
 20
0.0
 30
0.0
 70
   128
 71
   34
 72
   47
 73
   32
  0
VERTEX
  8
bark
 10
0.0
 20
0.0
 30
0.0
 70
   128
 71
   34
 72
   32
 73
   31
  0
VERTEX
  8
bark
 10
0.0
 20
0.0
 30
0.0
 70
   128
 71
   49
 72
   50
 73
   51
  0
VERTEX
  8
bark
 10
0.0
 20
0.0
 30
0.0
 70
   128
 71
   49
 72
   51
 73
   54
  0
VERTEX
  8
bark
 10
0.0
 20
0.0
 30
0.0
 70
   128
 71
   51
 72
   52
 73
   53
  0
VERTEX
  8
bark
 10
0.0
 20
0.0
 30
0.0
 70
   128
 71
   51
 72
   53
 73
   54
  0
VERTEX
  8
bark
 10
0.0
 20
0.0
 30
0.0
 70
   128
 71
   55
 72
   56
 73
   60
  0
VERTEX
  8
bark
 10
0.0
 20
0.0
 30
0.0
 70
   128
 71
   56
 72
   57
 73
   61
  0
VERTEX
  8
bark
 10
0.0
 20
0.0
 30
0.0
 70
   128
 71
   57
 72
   58
 73
   62
  0
VERTEX
  8
bark
 10
0.0
 20
0.0
 30
0.0
 70
   128
 71
   58
 72
   77
 73
   63
  0
VERTEX
  8
bark
 10
0.0
 20
0.0
 30
0.0
 70
   128
 71
   77
 72
   78
 73
   64
  0
VERTEX
  8
bark
 10
0.0
 20
0.0
 30
0.0
 70
   128
 71
   78
 72
   55
 73
   59
  0
VERTEX
  8
bark
 10
0.0
 20
0.0
 30
0.0
 70
   128
 71
   59
 72
   60
 73
   66
  0
VERTEX
  8
bark
 10
0.0
 20
0.0
 30
0.0
 70
   128
 71
   60
 72
   61
 73
   67
  0
VERTEX
  8
bark
 10
0.0
 20
0.0
 30
0.0
 70
   128
 71
   61
 72
   62
 73
   68
  0
VERTEX
  8
bark
 10
0.0
 20
0.0
 30
0.0
 70
   128
 71
   62
 72
   63
 73
   69
  0
VERTEX
  8
bark
 10
0.0
 20
0.0
 30
0.0
 70
   128
 71
   63
 72
   64
 73
   70
  0
VERTEX
  8
bark
 10
0.0
 20
0.0
 30
0.0
 70
   128
 71
   64
 72
   59
 73
   65
  0
VERTEX
  8
bark
 10
0.0
 20
0.0
 30
0.0
 70
   128
 71
   65
 72
   66
 73
   72
  0
VERTEX
  8
bark
 10
0.0
 20
0.0
 30
0.0
 70
   128
 71
   66
 72
   67
 73
   73
  0
VERTEX
  8
bark
 10
0.0
 20
0.0
 30
0.0
 70
   128
 71
   67
 72
   68
 73
   74
  0
VERTEX
  8
bark
 10
0.0
 20
0.0
 30
0.0
 70
   128
 71
   68
 72
   69
 73
   75
  0
VERTEX
  8
bark
 10
0.0
 20
0.0
 30
0.0
 70
   128
 71
   69
 72
   70
 73
   76
  0
VERTEX
  8
bark
 10
0.0
 20
0.0
 30
0.0
 70
   128
 71
   70
 72
   65
 73
   71
  0
VERTEX
  8
bark
 10
0.0
 20
0.0
 30
0.0
 70
   128
 71
   78
 72
   77
 73
   56
  0
VERTEX
  8
bark
 10
0.0
 20
0.0
 30
0.0
 70
   128
 71
   78
 72
   56
 73
   55
  0
VERTEX
  8
bark
 10
0.0
 20
0.0
 30
0.0
 70
   128
 71
   77
 72
   58
 73
   57
  0
VERTEX
  8
bark
 10
0.0
 20
0.0
 30
0.0
 70
   128
 71
   77
 72
   57
 73
   56
  0
VERTEX
  8
bark
 10
0.0
 20
0.0
 30
0.0
 70
   128
 71
   71
 72
   72
 73
   75
  0
VERTEX
  8
bark
 10
0.0
 20
0.0
 30
0.0
 70
   128
 71
   71
 72
   75
 73
   76
  0
VERTEX
  8
bark
 10
0.0
 20
0.0
 30
0.0
 70
   128
 71
   72
 72
   73
 73
   75
  0
VERTEX
  8
bark
 10
0.0
 20
0.0
 30
0.0
 70
   128
 71
   73
 72
   74
 73
   75
  0
VERTEX
  8
bark
 10
0.0
 20
0.0
 30
0.0
 70
   128
 71
   26
 72
   7
 73
   6
  0
VERTEX
  8
bark
 10
0.0
 20
0.0
 30
0.0
 70
   128
 71
   1
 72
   8
 73
   7
  0
VERTEX
  8
bark
 10
0.0
 20
0.0
 30
0.0
 70
   128
 71
   2
 72
   9
 73
   8
  0
VERTEX
  8
bark
 10
0.0
 20
0.0
 30
0.0
 70
   128
 71
   3
 72
   10
 73
   9
  0
VERTEX
  8
bark
 10
0.0
 20
0.0
 30
0.0
 70
   128
 71
   4
 72
   11
 73
   10
  0
VERTEX
  8
bark
 10
0.0
 20
0.0
 30
0.0
 70
   128
 71
   5
 72
   6
 73
   11
  0
VERTEX
  8
bark
 10
0.0
 20
0.0
 30
0.0
 70
   128
 71
   6
 72
   13
 73
   12
  0
VERTEX
  8
bark
 10
0.0
 20
0.0
 30
0.0
 70
   128
 71
   7
 72
   14
 73
   13
  0
VERTEX
  8
bark
 10
0.0
 20
0.0
 30
0.0
 70
   128
 71
   8
 72
   15
 73
   14
  0
VERTEX
  8
bark
 10
0.0
 20
0.0
 30
0.0
 70
   128
 71
   9
 72
   16
 73
   15
  0
VERTEX
  8
bark
 10
0.0
 20
0.0
 30
0.0
 70
   128
 71
   10
 72
   17
 73
   16
  0
VERTEX
  8
bark
 10
0.0
 20
0.0
 30
0.0
 70
   128
 71
   11
 72
   12
 73
   17
  0
VERTEX
  8
bark
 10
0.0
 20
0.0
 30
0.0
 70
   128
 71
   12
 72
   19
 73
   18
  0
VERTEX
  8
bark
 10
0.0
 20
0.0
 30
0.0
 70
   128
 71
   13
 72
   20
 73
   19
  0
VERTEX
  8
bark
 10
0.0
 20
0.0
 30
0.0
 70
   128
 71
   14
 72
   21
 73
   20
  0
VERTEX
  8
bark
 10
0.0
 20
0.0
 30
0.0
 70
   128
 71
   15
 72
   22
 73
   21
  0
VERTEX
  8
bark
 10
0.0
 20
0.0
 30
0.0
 70
   128
 71
   16
 72
   23
 73
   22
  0
VERTEX
  8
bark
 10
0.0
 20
0.0
 30
0.0
 70
   128
 71
   17
 72
   18
 73
   23
  0
VERTEX
  8
bark
 10
0.0
 20
0.0
 30
0.0
 70
   128
 71
   18
 72
   27
 73
   24
  0
VERTEX
  8
bark
 10
0.0
 20
0.0
 30
0.0
 70
   128
 71
   19
 72
   28
 73
   27
  0
VERTEX
  8
bark
 10
0.0
 20
0.0
 30
0.0
 70
   128
 71
   20
 72
   29
 73
   28
  0
VERTEX
  8
bark
 10
0.0
 20
0.0
 30
0.0
 70
   128
 71
   21
 72
   25
 73
   29
  0
VERTEX
  8
bark
 10
0.0
 20
0.0
 30
0.0
 70
   128
 71
   22
 72
   30
 73
   25
  0
VERTEX
  8
bark
 10
0.0
 20
0.0
 30
0.0
 70
   128
 71
   23
 72
   24
 73
   30
  0
VERTEX
  8
bark
 10
0.0
 20
0.0
 30
0.0
 70
   128
 71
   31
 72
   36
 73
   35
  0
VERTEX
  8
bark
 10
0.0
 20
0.0
 30
0.0
 70
   128
 71
   32
 72
   37
 73
   36
  0
VERTEX
  8
bark
 10
0.0
 20
0.0
 30
0.0
 70
   128
 71
   47
 72
   38
 73
   37
  0
VERTEX
  8
bark
 10
0.0
 20
0.0
 30
0.0
 70
   128
 71
   33
 72
   39
 73
   38
  0
VERTEX
  8
bark
 10
0.0
 20
0.0
 30
0.0
 70
   128
 71
   34
 72
   40
 73
   39
  0
VERTEX
  8
bark
 10
0.0
 20
0.0
 30
0.0
 70
   128
 71
   48
 72
   35
 73
   40
  0
VERTEX
  8
bark
 10
0.0
 20
0.0
 30
0.0
 70
   128
 71
   35
 72
   42
 73
   41
  0
VERTEX
  8
bark
 10
0.0
 20
0.0
 30
0.0
 70
   128
 71
   36
 72
   43
 73
   42
  0
VERTEX
  8
bark
 10
0.0
 20
0.0
 30
0.0
 70
   128
 71
   37
 72
   44
 73
   43
  0
VERTEX
  8
bark
 10
0.0
 20
0.0
 30
0.0
 70
   128
 71
   38
 72
   45
 73
   44
  0
VERTEX
  8
bark
 10
0.0
 20
0.0
 30
0.0
 70
   128
 71
   39
 72
   46
 73
   45
  0
VERTEX
  8
bark
 10
0.0
 20
0.0
 30
0.0
 70
   128
 71
   40
 72
   41
 73
   46
  0
VERTEX
  8
bark
 10
0.0
 20
0.0
 30
0.0
 70
   128
 71
   41
 72
   50
 73
   49
  0
VERTEX
  8
bark
 10
0.0
 20
0.0
 30
0.0
 70
   128
 71
   42
 72
   51
 73
   50
  0
VERTEX
  8
bark
 10
0.0
 20
0.0
 30
0.0
 70
   128
 71
   43
 72
   52
 73
   51
  0
VERTEX
  8
bark
 10
0.0
 20
0.0
 30
0.0
 70
   128
 71
   44
 72
   53
 73
   52
  0
VERTEX
  8
bark
 10
0.0
 20
0.0
 30
0.0
 70
   128
 71
   45
 72
   54
 73
   53
  0
VERTEX
  8
bark
 10
0.0
 20
0.0
 30
0.0
 70
   128
 71
   46
 72
   49
 73
   54
  0
VERTEX
  8
bark
 10
0.0
 20
0.0
 30
0.0
 70
   128
 71
   55
 72
   60
 73
   59
  0
VERTEX
  8
bark
 10
0.0
 20
0.0
 30
0.0
 70
   128
 71
   56
 72
   61
 73
   60
  0
VERTEX
  8
bark
 10
0.0
 20
0.0
 30
0.0
 70
   128
 71
   57
 72
   62
 73
   61
  0
VERTEX
  8
bark
 10
0.0
 20
0.0
 30
0.0
 70
   128
 71
   58
 72
   63
 73
   62
  0
VERTEX
  8
bark
 10
0.0
 20
0.0
 30
0.0
 70
   128
 71
   77
 72
   64
 73
   63
  0
VERTEX
  8
bark
 10
0.0
 20
0.0
 30
0.0
 70
   128
 71
   78
 72
   59
 73
   64
  0
VERTEX
  8
bark
 10
0.0
 20
0.0
 30
0.0
 70
   128
 71
   59
 72
   66
 73
   65
  0
VERTEX
  8
bark
 10
0.0
 20
0.0
 30
0.0
 70
   128
 71
   60
 72
   67
 73
   66
  0
VERTEX
  8
bark
 10
0.0
 20
0.0
 30
0.0
 70
   128
 71
   61
 72
   68
 73
   67
  0
VERTEX
  8
bark
 10
0.0
 20
0.0
 30
0.0
 70
   128
 71
   62
 72
   69
 73
   68
  0
VERTEX
  8
bark
 10
0.0
 20
0.0
 30
0.0
 70
   128
 71
   63
 72
   70
 73
   69
  0
VERTEX
  8
bark
 10
0.0
 20
0.0
 30
0.0
 70
   128
 71
   64
 72
   65
 73
   70
  0
VERTEX
  8
bark
 10
0.0
 20
0.0
 30
0.0
 70
   128
 71
   65
 72
   72
 73
   71
  0
VERTEX
  8
bark
 10
0.0
 20
0.0
 30
0.0
 70
   128
 71
   66
 72
   73
 73
   72
  0
VERTEX
  8
bark
 10
0.0
 20
0.0
 30
0.0
 70
   128
 71
   67
 72
   74
 73
   73
  0
VERTEX
  8
bark
 10
0.0
 20
0.0
 30
0.0
 70
   128
 71
   68
 72
   75
 73
   74
  0
VERTEX
  8
bark
 10
0.0
 20
0.0
 30
0.0
 70
   128
 71
   69
 72
   76
 73
   75
  0
VERTEX
  8
bark
 10
0.0
 20
0.0
 30
0.0
 70
   128
 71
   70
 72
   71
 73
   76
  0
SEQEND
  0
ENDSEC
  0
EOF
