999
FBX AutoCAD (*.DXF) exporter
  0
SECTION
  2
HEADER
  9
$ACADVER
  1
AC1008
  9
$UCSORG
 10
0.0
 20
0.0
 30
0.0
  9
$UCSXDIR
 10
1.0
 20
0.0
 30
0.0
  9
$TILEMODE
 70
   1
  9
$UCSYDIR
 10
0.0
 20
1.0
 30
0.0
  0
ENDSEC
  0
SECTION
  2
TABLES
  0
TABLE
  2
LTYPE
 70
   1
  0
LTYPE
  2
CONTINUOUS
 70
   64
  3
Solid line
 72
   65
 73
   0
 40
0.0
  0
ENDTAB
  0
TABLE
  2
LAYER
 70
   1
  0
LAYER
  2
fence03
 70
   0
 62
   250
  6
CONTINUOUS
  0
ENDTAB
  0
ENDSEC
  0
SECTION
  2
BLOCKS
  0
ENDSEC
  0
SECTION
  2
ENTITIES
  0
POLYLINE
  8
fence03
 66
   1
 10
0.0
 20
0.0
 30
0.0
 70
   64
 71
   10
 72
   16
  0
VERTEX
  8
fence03
 10
10.943706
 20
-17.193525
 30
6.037753
 70
   192
  0
VERTEX
  8
fence03
 10
10.943706
 20
91.925225
 30
6.037753
 70
   192
  0
VERTEX
  8
fence03
 10
-10.785084
 20
-17.193525
 30
6.037753
 70
   192
  0
VERTEX
  8
fence03
 10
-10.785084
 20
91.925225
 30
6.037753
 70
   192
  0
VERTEX
  8
fence03
 10
-10.785084
 20
-17.193525
 30
-6.037753
 70
   192
  0
VERTEX
  8
fence03
 10
-10.785084
 20
91.925225
 30
-6.037753
 70
   192
  0
VERTEX
  8
fence03
 10
10.943706
 20
-17.193525
 30
-6.037753
 70
   192
  0
VERTEX
  8
fence03
 10
10.943706
 20
91.925225
 30
-6.037753
 70
   192
  0
VERTEX
  8
fence03
 10
0.086700
 20
106.250752
 30
6.037753
 70
   192
  0
VERTEX
  8
fence03
 10
0.086700
 20
106.250752
 30
-6.037753
 70
   192
  0
VERTEX
  8
fence03
 10
0.0
 20
0.0
 30
0.0
 70
   128
 71
   7
 72
   1
 73
   2
  0
VERTEX
  8
fence03
 10
0.0
 20
0.0
 30
0.0
 70
   128
 71
   9
 72
   4
 73
   6
  0
VERTEX
  8
fence03
 10
0.0
 20
0.0
 30
0.0
 70
   128
 71
   4
 72
   9
 73
   1
  0
VERTEX
  8
fence03
 10
0.0
 20
0.0
 30
0.0
 70
   128
 71
   9
 72
   2
 73
   1
  0
VERTEX
  8
fence03
 10
0.0
 20
0.0
 30
0.0
 70
   128
 71
   7
 72
   10
 73
   6
  0
VERTEX
  8
fence03
 10
0.0
 20
0.0
 30
0.0
 70
   128
 71
   5
 72
   3
 73
   1
  0
VERTEX
  8
fence03
 10
0.0
 20
0.0
 30
0.0
 70
   128
 71
   7
 72
   8
 73
   10
  0
VERTEX
  8
fence03
 10
0.0
 20
0.0
 30
0.0
 70
   128
 71
   10
 72
   8
 73
   2
  0
VERTEX
  8
fence03
 10
0.0
 20
0.0
 30
0.0
 70
   128
 71
   3
 72
   5
 73
   6
  0
VERTEX
  8
fence03
 10
0.0
 20
0.0
 30
0.0
 70
   128
 71
   7
 72
   2
 73
   8
  0
VERTEX
  8
fence03
 10
0.0
 20
0.0
 30
0.0
 70
   128
 71
   9
 72
   6
 73
   10
  0
VERTEX
  8
fence03
 10
0.0
 20
0.0
 30
0.0
 70
   128
 71
   4
 72
   1
 73
   3
  0
VERTEX
  8
fence03
 10
0.0
 20
0.0
 30
0.0
 70
   128
 71
   7
 72
   6
 73
   5
  0
VERTEX
  8
fence03
 10
0.0
 20
0.0
 30
0.0
 70
   128
 71
   5
 72
   1
 73
   7
  0
VERTEX
  8
fence03
 10
0.0
 20
0.0
 30
0.0
 70
   128
 71
   10
 72
   2
 73
   9
  0
VERTEX
  8
fence03
 10
0.0
 20
0.0
 30
0.0
 70
   128
 71
   3
 72
   6
 73
   4
  0
SEQEND
  0
ENDSEC
  0
EOF
