999
FBX AutoCAD (*.DXF) exporter
  0
SECTION
  2
HEADER
  9
$ACADVER
  1
AC1008
  9
$UCSORG
 10
0.0
 20
0.0
 30
0.0
  9
$UCSXDIR
 10
1.0
 20
0.0
 30
0.0
  9
$TILEMODE
 70
   1
  9
$UCSYDIR
 10
0.0
 20
1.0
 30
0.0
  0
ENDSEC
  0
SECTION
  2
TABLES
  0
TABLE
  2
LTYPE
 70
   1
  0
LTYPE
  2
CONTINUOUS
 70
   64
  3
Solid line
 72
   65
 73
   0
 40
0.0
  0
ENDTAB
  0
TABLE
  2
LAYER
 70
   1
  0
LAYER
  2
fence01
 70
   0
 62
   250
  6
CONTINUOUS
  0
ENDTAB
  0
ENDSEC
  0
SECTION
  2
BLOCKS
  0
ENDSEC
  0
SECTION
  2
ENTITIES
  0
POLYLINE
  8
fence01
 66
   1
 10
0.0
 20
0.0
 30
0.0
 70
   64
 71
   40
 72
   80
  0
VERTEX
  8
fence01
 10
-92.508836
 20
-17.193525
 30
-6.037753
 70
   192
  0
VERTEX
  8
fence01
 10
-92.508836
 20
91.925225
 30
-6.037753
 70
   192
  0
VERTEX
  8
fence01
 10
-70.780046
 20
-17.193525
 30
-6.037753
 70
   192
  0
VERTEX
  8
fence01
 10
-70.780046
 20
91.925225
 30
-6.037753
 70
   192
  0
VERTEX
  8
fence01
 10
-70.780046
 20
-17.193525
 30
6.037753
 70
   192
  0
VERTEX
  8
fence01
 10
-70.780046
 20
91.925225
 30
6.037753
 70
   192
  0
VERTEX
  8
fence01
 10
-92.508836
 20
-17.193525
 30
6.037753
 70
   192
  0
VERTEX
  8
fence01
 10
-92.508836
 20
91.925225
 30
6.037753
 70
   192
  0
VERTEX
  8
fence01
 10
-81.651830
 20
106.250752
 30
-6.037753
 70
   192
  0
VERTEX
  8
fence01
 10
-81.651830
 20
106.250752
 30
6.037753
 70
   192
  0
VERTEX
  8
fence01
 10
-70.780046
 20
10.965168
 30
-4.716662
 70
   192
  0
VERTEX
  8
fence01
 10
-70.780046
 20
80.960057
 30
-4.716662
 70
   192
  0
VERTEX
  8
fence01
 10
-70.780046
 20
10.965168
 30
4.716662
 70
   192
  0
VERTEX
  8
fence01
 10
-70.780046
 20
80.960057
 30
4.716662
 70
   192
  0
VERTEX
  8
fence01
 10
-70.780046
 20
19.923160
 30
-4.716662
 70
   192
  0
VERTEX
  8
fence01
 10
-70.780046
 20
19.923160
 30
4.716662
 70
   192
  0
VERTEX
  8
fence01
 10
-70.780046
 20
37.421882
 30
-4.716662
 70
   192
  0
VERTEX
  8
fence01
 10
-70.780046
 20
37.421882
 30
4.716662
 70
   192
  0
VERTEX
  8
fence01
 10
-70.780046
 20
63.461335
 30
-4.716662
 70
   192
  0
VERTEX
  8
fence01
 10
-70.780046
 20
63.461335
 30
4.716662
 70
   192
  0
VERTEX
  8
fence01
 10
-10.785084
 20
37.421882
 30
4.716662
 70
   192
  0
VERTEX
  8
fence01
 10
-10.785084
 20
37.421882
 30
-4.716662
 70
   192
  0
VERTEX
  8
fence01
 10
-10.785084
 20
63.461335
 30
4.716662
 70
   192
  0
VERTEX
  8
fence01
 10
-10.785084
 20
63.461335
 30
-4.716662
 70
   192
  0
VERTEX
  8
fence01
 10
-10.785084
 20
80.960057
 30
-4.716662
 70
   192
  0
VERTEX
  8
fence01
 10
-10.785084
 20
10.965168
 30
-4.716662
 70
   192
  0
VERTEX
  8
fence01
 10
-10.785084
 20
19.923160
 30
4.716662
 70
   192
  0
VERTEX
  8
fence01
 10
-10.785084
 20
19.923160
 30
-4.716662
 70
   192
  0
VERTEX
  8
fence01
 10
10.943706
 20
-17.193525
 30
6.037753
 70
   192
  0
VERTEX
  8
fence01
 10
10.943706
 20
91.925225
 30
6.037753
 70
   192
  0
VERTEX
  8
fence01
 10
-10.785084
 20
-17.193525
 30
6.037753
 70
   192
  0
VERTEX
  8
fence01
 10
-10.785084
 20
91.925225
 30
6.037753
 70
   192
  0
VERTEX
  8
fence01
 10
-10.785084
 20
-17.193525
 30
-6.037753
 70
   192
  0
VERTEX
  8
fence01
 10
-10.785084
 20
91.925225
 30
-6.037753
 70
   192
  0
VERTEX
  8
fence01
 10
10.943706
 20
-17.193525
 30
-6.037753
 70
   192
  0
VERTEX
  8
fence01
 10
10.943706
 20
91.925225
 30
-6.037753
 70
   192
  0
VERTEX
  8
fence01
 10
0.086700
 20
106.250752
 30
6.037753
 70
   192
  0
VERTEX
  8
fence01
 10
0.086700
 20
106.250752
 30
-6.037753
 70
   192
  0
VERTEX
  8
fence01
 10
-10.785084
 20
10.965168
 30
4.716662
 70
   192
  0
VERTEX
  8
fence01
 10
-10.785084
 20
80.960057
 30
4.716662
 70
   192
  0
VERTEX
  8
fence01
 10
0.0
 20
0.0
 30
0.0
 70
   128
 71
   1
 72
   3
 73
   4
  0
VERTEX
  8
fence01
 10
0.0
 20
0.0
 30
0.0
 70
   128
 71
   13
 72
   16
 73
   15
  0
VERTEX
  8
fence01
 10
0.0
 20
0.0
 30
0.0
 70
   128
 71
   5
 72
   7
 73
   8
  0
VERTEX
  8
fence01
 10
0.0
 20
0.0
 30
0.0
 70
   128
 71
   1
 72
   2
 73
   8
  0
VERTEX
  8
fence01
 10
0.0
 20
0.0
 30
0.0
 70
   128
 71
   9
 72
   4
 73
   6
  0
VERTEX
  8
fence01
 10
0.0
 20
0.0
 30
0.0
 70
   128
 71
   5
 72
   3
 73
   1
  0
VERTEX
  8
fence01
 10
0.0
 20
0.0
 30
0.0
 70
   128
 71
   4
 72
   9
 73
   2
  0
VERTEX
  8
fence01
 10
0.0
 20
0.0
 30
0.0
 70
   128
 71
   8
 72
   10
 73
   6
  0
VERTEX
  8
fence01
 10
0.0
 20
0.0
 30
0.0
 70
   128
 71
   10
 72
   8
 73
   2
  0
VERTEX
  8
fence01
 10
0.0
 20
0.0
 30
0.0
 70
   128
 71
   5
 72
   13
 73
   11
  0
VERTEX
  8
fence01
 10
0.0
 20
0.0
 30
0.0
 70
   128
 71
   16
 72
   13
 73
   5
  0
VERTEX
  8
fence01
 10
0.0
 20
0.0
 30
0.0
 70
   128
 71
   4
 72
   12
 73
   14
  0
VERTEX
  8
fence01
 10
0.0
 20
0.0
 30
0.0
 70
   128
 71
   19
 72
   12
 73
   4
  0
VERTEX
  8
fence01
 10
0.0
 20
0.0
 30
0.0
 70
   128
 71
   6
 72
   14
 73
   20
  0
VERTEX
  8
fence01
 10
0.0
 20
0.0
 30
0.0
 70
   128
 71
   3
 72
   11
 73
   15
  0
VERTEX
  8
fence01
 10
0.0
 20
0.0
 30
0.0
 70
   128
 71
   12
 72
   25
 73
   40
  0
VERTEX
  8
fence01
 10
0.0
 20
0.0
 30
0.0
 70
   128
 71
   6
 72
   20
 73
   18
  0
VERTEX
  8
fence01
 10
0.0
 20
0.0
 30
0.0
 70
   128
 71
   3
 72
   15
 73
   17
  0
VERTEX
  8
fence01
 10
0.0
 20
0.0
 30
0.0
 70
   128
 71
   18
 72
   20
 73
   19
  0
VERTEX
  8
fence01
 10
0.0
 20
0.0
 30
0.0
 70
   128
 71
   18
 72
   16
 73
   5
  0
VERTEX
  8
fence01
 10
0.0
 20
0.0
 30
0.0
 70
   128
 71
   4
 72
   3
 73
   17
  0
VERTEX
  8
fence01
 10
0.0
 20
0.0
 30
0.0
 70
   128
 71
   19
 72
   24
 73
   25
  0
VERTEX
  8
fence01
 10
0.0
 20
0.0
 30
0.0
 70
   128
 71
   16
 72
   27
 73
   28
  0
VERTEX
  8
fence01
 10
0.0
 20
0.0
 30
0.0
 70
   128
 71
   18
 72
   21
 73
   27
  0
VERTEX
  8
fence01
 10
0.0
 20
0.0
 30
0.0
 70
   128
 71
   17
 72
   22
 73
   21
  0
VERTEX
  8
fence01
 10
0.0
 20
0.0
 30
0.0
 70
   128
 71
   15
 72
   28
 73
   22
  0
VERTEX
  8
fence01
 10
0.0
 20
0.0
 30
0.0
 70
   128
 71
   20
 72
   23
 73
   24
  0
VERTEX
  8
fence01
 10
0.0
 20
0.0
 30
0.0
 70
   128
 71
   14
 72
   40
 73
   23
  0
VERTEX
  8
fence01
 10
0.0
 20
0.0
 30
0.0
 70
   128
 71
   37
 72
   30
 73
   29
  0
VERTEX
  8
fence01
 10
0.0
 20
0.0
 30
0.0
 70
   128
 71
   26
 72
   28
 73
   27
  0
VERTEX
  8
fence01
 10
0.0
 20
0.0
 30
0.0
 70
   128
 71
   35
 72
   38
 73
   34
  0
VERTEX
  8
fence01
 10
0.0
 20
0.0
 30
0.0
 70
   128
 71
   29
 72
   30
 73
   36
  0
VERTEX
  8
fence01
 10
0.0
 20
0.0
 30
0.0
 70
   128
 71
   37
 72
   32
 73
   34
  0
VERTEX
  8
fence01
 10
0.0
 20
0.0
 30
0.0
 70
   128
 71
   33
 72
   31
 73
   29
  0
VERTEX
  8
fence01
 10
0.0
 20
0.0
 30
0.0
 70
   128
 71
   32
 72
   37
 73
   29
  0
VERTEX
  8
fence01
 10
0.0
 20
0.0
 30
0.0
 70
   128
 71
   35
 72
   36
 73
   38
  0
VERTEX
  8
fence01
 10
0.0
 20
0.0
 30
0.0
 70
   128
 71
   38
 72
   36
 73
   30
  0
VERTEX
  8
fence01
 10
0.0
 20
0.0
 30
0.0
 70
   128
 71
   33
 72
   26
 73
   39
  0
VERTEX
  8
fence01
 10
0.0
 20
0.0
 30
0.0
 70
   128
 71
   22
 72
   28
 73
   33
  0
VERTEX
  8
fence01
 10
0.0
 20
0.0
 30
0.0
 70
   128
 71
   32
 72
   40
 73
   25
  0
VERTEX
  8
fence01
 10
0.0
 20
0.0
 30
0.0
 70
   128
 71
   31
 72
   21
 73
   23
  0
VERTEX
  8
fence01
 10
0.0
 20
0.0
 30
0.0
 70
   128
 71
   24
 72
   22
 73
   33
  0
VERTEX
  8
fence01
 10
0.0
 20
0.0
 30
0.0
 70
   128
 71
   31
 72
   27
 73
   21
  0
VERTEX
  8
fence01
 10
0.0
 20
0.0
 30
0.0
 70
   128
 71
   23
 72
   40
 73
   32
  0
VERTEX
  8
fence01
 10
0.0
 20
0.0
 30
0.0
 70
   128
 71
   34
 72
   25
 73
   24
  0
VERTEX
  8
fence01
 10
0.0
 20
0.0
 30
0.0
 70
   128
 71
   31
 72
   39
 73
   27
  0
VERTEX
  8
fence01
 10
0.0
 20
0.0
 30
0.0
 70
   128
 71
   22
 72
   24
 73
   23
  0
VERTEX
  8
fence01
 10
0.0
 20
0.0
 30
0.0
 70
   128
 71
   28
 72
   26
 73
   33
  0
VERTEX
  8
fence01
 10
0.0
 20
0.0
 30
0.0
 70
   128
 71
   1
 72
   4
 73
   2
  0
VERTEX
  8
fence01
 10
0.0
 20
0.0
 30
0.0
 70
   128
 71
   13
 72
   15
 73
   11
  0
VERTEX
  8
fence01
 10
0.0
 20
0.0
 30
0.0
 70
   128
 71
   5
 72
   8
 73
   6
  0
VERTEX
  8
fence01
 10
0.0
 20
0.0
 30
0.0
 70
   128
 71
   1
 72
   8
 73
   7
  0
VERTEX
  8
fence01
 10
0.0
 20
0.0
 30
0.0
 70
   128
 71
   9
 72
   6
 73
   10
  0
VERTEX
  8
fence01
 10
0.0
 20
0.0
 30
0.0
 70
   128
 71
   5
 72
   1
 73
   7
  0
VERTEX
  8
fence01
 10
0.0
 20
0.0
 30
0.0
 70
   128
 71
   10
 72
   2
 73
   9
  0
VERTEX
  8
fence01
 10
0.0
 20
0.0
 30
0.0
 70
   128
 71
   5
 72
   11
 73
   3
  0
VERTEX
  8
fence01
 10
0.0
 20
0.0
 30
0.0
 70
   128
 71
   4
 72
   14
 73
   6
  0
VERTEX
  8
fence01
 10
0.0
 20
0.0
 30
0.0
 70
   128
 71
   12
 72
   40
 73
   14
  0
VERTEX
  8
fence01
 10
0.0
 20
0.0
 30
0.0
 70
   128
 71
   6
 72
   18
 73
   5
  0
VERTEX
  8
fence01
 10
0.0
 20
0.0
 30
0.0
 70
   128
 71
   18
 72
   19
 73
   17
  0
VERTEX
  8
fence01
 10
0.0
 20
0.0
 30
0.0
 70
   128
 71
   4
 72
   17
 73
   19
  0
VERTEX
  8
fence01
 10
0.0
 20
0.0
 30
0.0
 70
   128
 71
   19
 72
   25
 73
   12
  0
VERTEX
  8
fence01
 10
0.0
 20
0.0
 30
0.0
 70
   128
 71
   16
 72
   28
 73
   15
  0
VERTEX
  8
fence01
 10
0.0
 20
0.0
 30
0.0
 70
   128
 71
   18
 72
   27
 73
   16
  0
VERTEX
  8
fence01
 10
0.0
 20
0.0
 30
0.0
 70
   128
 71
   17
 72
   21
 73
   18
  0
VERTEX
  8
fence01
 10
0.0
 20
0.0
 30
0.0
 70
   128
 71
   15
 72
   22
 73
   17
  0
VERTEX
  8
fence01
 10
0.0
 20
0.0
 30
0.0
 70
   128
 71
   20
 72
   24
 73
   19
  0
VERTEX
  8
fence01
 10
0.0
 20
0.0
 30
0.0
 70
   128
 71
   14
 72
   23
 73
   20
  0
VERTEX
  8
fence01
 10
0.0
 20
0.0
 30
0.0
 70
   128
 71
   26
 72
   27
 73
   39
  0
VERTEX
  8
fence01
 10
0.0
 20
0.0
 30
0.0
 70
   128
 71
   35
 72
   34
 73
   33
  0
VERTEX
  8
fence01
 10
0.0
 20
0.0
 30
0.0
 70
   128
 71
   29
 72
   36
 73
   35
  0
VERTEX
  8
fence01
 10
0.0
 20
0.0
 30
0.0
 70
   128
 71
   37
 72
   34
 73
   38
  0
VERTEX
  8
fence01
 10
0.0
 20
0.0
 30
0.0
 70
   128
 71
   33
 72
   29
 73
   35
  0
VERTEX
  8
fence01
 10
0.0
 20
0.0
 30
0.0
 70
   128
 71
   32
 72
   29
 73
   31
  0
VERTEX
  8
fence01
 10
0.0
 20
0.0
 30
0.0
 70
   128
 71
   38
 72
   30
 73
   37
  0
VERTEX
  8
fence01
 10
0.0
 20
0.0
 30
0.0
 70
   128
 71
   33
 72
   39
 73
   31
  0
VERTEX
  8
fence01
 10
0.0
 20
0.0
 30
0.0
 70
   128
 71
   32
 72
   25
 73
   34
  0
VERTEX
  8
fence01
 10
0.0
 20
0.0
 30
0.0
 70
   128
 71
   31
 72
   23
 73
   32
  0
VERTEX
  8
fence01
 10
0.0
 20
0.0
 30
0.0
 70
   128
 71
   24
 72
   33
 73
   34
  0
VERTEX
  8
fence01
 10
0.0
 20
0.0
 30
0.0
 70
   128
 71
   22
 72
   23
 73
   21
  0
SEQEND
  0
ENDSEC
  0
EOF
