999
FBX AutoCAD (*.DXF) exporter
  0
SECTION
  2
HEADER
  9
$ACADVER
  1
AC1008
  9
$UCSORG
 10
0.0
 20
0.0
 30
0.0
  9
$UCSXDIR
 10
1.0
 20
0.0
 30
0.0
  9
$TILEMODE
 70
   1
  9
$UCSYDIR
 10
0.0
 20
1.0
 30
0.0
  0
ENDSEC
  0
SECTION
  2
TABLES
  0
TABLE
  2
LTYPE
 70
   1
  0
LTYPE
  2
CONTINUOUS
 70
   64
  3
Solid line
 72
   65
 73
   0
 40
0.0
  0
ENDTAB
  0
TABLE
  2
LAYER
 70
   1
  0
LAYER
  2
fence25
 70
   0
 62
   250
  6
CONTINUOUS
  0
ENDTAB
  0
ENDSEC
  0
SECTION
  2
BLOCKS
  0
ENDSEC
  0
SECTION
  2
ENTITIES
  0
POLYLINE
  8
fence25
 66
   1
 10
0.0
 20
0.0
 30
0.0
 70
   64
 71
   350
 72
   644
  0
VERTEX
  8
fence25
 10
42.409900
 20
-18.933939
 30
-2.681943
 70
   192
  0
VERTEX
  8
fence25
 10
42.787156
 20
99.686045
 30
-2.582698
 70
   192
  0
VERTEX
  8
fence25
 10
56.518548
 20
-18.933939
 30
0.676976
 70
   192
  0
VERTEX
  8
fence25
 10
60.140794
 20
99.686045
 30
1.548773
 70
   192
  0
VERTEX
  8
fence25
 10
56.307807
 20
-18.933939
 30
-6.827358
 70
   192
  0
VERTEX
  8
fence25
 10
59.881582
 20
99.686045
 30
-7.681558
 70
   192
  0
VERTEX
  8
fence25
 10
52.373133
 20
-18.933939
 30
-13.220931
 70
   192
  0
VERTEX
  8
fence25
 10
55.041934
 20
99.686045
 30
-15.545653
 70
   192
  0
VERTEX
  8
fence25
 10
45.768819
 20
-18.933939
 30
-16.790591
 70
   192
  0
VERTEX
  8
fence25
 10
46.918627
 20
99.686045
 30
-19.936335
 70
   192
  0
VERTEX
  8
fence25
 10
38.264485
 20
-18.933939
 30
-16.579851
 70
   192
  0
VERTEX
  8
fence25
 10
37.688296
 20
99.686045
 30
-19.677124
 70
   192
  0
VERTEX
  8
fence25
 10
31.870912
 20
-18.933939
 30
-12.645177
 70
   192
  0
VERTEX
  8
fence25
 10
29.824201
 20
99.686045
 30
-14.837475
 70
   192
  0
VERTEX
  8
fence25
 10
28.301252
 20
-18.933939
 30
-6.040862
 70
   192
  0
VERTEX
  8
fence25
 10
25.433519
 20
99.686045
 30
-6.714169
 70
   192
  0
VERTEX
  8
fence25
 10
28.511993
 20
-18.933939
 30
1.463471
 70
   192
  0
VERTEX
  8
fence25
 10
25.692731
 20
99.686045
 30
2.516162
 70
   192
  0
VERTEX
  8
fence25
 10
32.446666
 20
-18.933939
 30
7.857045
 70
   192
  0
VERTEX
  8
fence25
 10
30.532379
 20
99.686045
 30
10.380257
 70
   192
  0
VERTEX
  8
fence25
 10
39.050981
 20
-18.933939
 30
11.426705
 70
   192
  0
VERTEX
  8
fence25
 10
38.655686
 20
99.686045
 30
14.770939
 70
   192
  0
VERTEX
  8
fence25
 10
46.555315
 20
-18.933939
 30
11.215964
 70
   192
  0
VERTEX
  8
fence25
 10
47.886017
 20
99.686045
 30
14.511728
 70
   192
  0
VERTEX
  8
fence25
 10
52.948888
 20
-18.933939
 30
7.281290
 70
   192
  0
VERTEX
  8
fence25
 10
55.750112
 20
99.686045
 30
9.672079
 70
   192
  0
VERTEX
  8
fence25
 10
52.871551
 20
5.526637
 30
1.894254
 70
   192
  0
VERTEX
  8
fence25
 10
52.658749
 20
5.526637
 30
-5.683473
 70
   192
  0
VERTEX
  8
fence25
 10
48.685593
 20
5.526637
 30
-12.139577
 70
   192
  0
VERTEX
  8
fence25
 10
42.016688
 20
5.526637
 30
-15.744148
 70
   192
  0
VERTEX
  8
fence25
 10
34.438961
 20
5.526637
 30
-15.531347
 70
   192
  0
VERTEX
  8
fence25
 10
27.982857
 20
5.526637
 30
-11.558191
 70
   192
  0
VERTEX
  8
fence25
 10
24.378285
 20
5.526637
 30
-4.889286
 70
   192
  0
VERTEX
  8
fence25
 10
24.591087
 20
5.526637
 30
2.688442
 70
   192
  0
VERTEX
  8
fence25
 10
28.564243
 20
5.526637
 30
9.144545
 70
   192
  0
VERTEX
  8
fence25
 10
35.233148
 20
5.526637
 30
12.749117
 70
   192
  0
VERTEX
  8
fence25
 10
42.810876
 20
5.526637
 30
12.536315
 70
   192
  0
VERTEX
  8
fence25
 10
49.266979
 20
5.526637
 30
8.563160
 70
   192
  0
VERTEX
  8
fence25
 10
56.743502
 20
65.654368
 30
-1.662716
 70
   192
  0
VERTEX
  8
fence25
 10
56.499352
 20
65.429216
 30
-10.040889
 70
   192
  0
VERTEX
  8
fence25
 10
52.089763
 20
64.814089
 30
-17.156975
 70
   192
  0
VERTEX
  8
fence25
 10
44.720157
 20
63.973810
 30
-21.098873
 70
   192
  0
VERTEX
  8
fence25
 10
36.381612
 20
63.133531
 30
-20.828293
 70
   192
  0
VERTEX
  8
fence25
 10
29.301171
 20
62.518404
 30
-16.440677
 70
   192
  0
VERTEX
  8
fence25
 10
25.352722
 20
62.293251
 30
-9.116897
 70
   192
  0
VERTEX
  8
fence25
 10
25.577986
 20
62.518404
 30
-0.801982
 70
   192
  0
VERTEX
  8
fence25
 10
29.923300
 20
63.133531
 30
6.298899
 70
   192
  0
VERTEX
  8
fence25
 10
37.247519
 20
63.973810
 30
10.288850
 70
   192
  0
VERTEX
  8
fence25
 10
45.604951
 20
64.814089
 30
10.081528
 70
   192
  0
VERTEX
  8
fence25
 10
52.749666
 20
65.429216
 30
5.709116
 70
   192
  0
VERTEX
  8
fence25
 10
4.293852
 20
-18.968409
 30
-0.165693
 70
   192
  0
VERTEX
  8
fence25
 10
4.195381
 20
110.609802
 30
-0.011247
 70
   192
  0
VERTEX
  8
fence25
 10
20.068408
 20
-18.968409
 30
-0.165693
 70
   192
  0
VERTEX
  8
fence25
 10
24.386813
 20
110.609802
 30
-0.011247
 70
   192
  0
VERTEX
  8
fence25
 10
17.955019
 20
-18.968409
 30
-8.052971
 70
   192
  0
VERTEX
  8
fence25
 10
21.681674
 20
110.609802
 30
-10.106963
 70
   192
  0
VERTEX
  8
fence25
 10
12.181130
 20
-18.968409
 30
-13.826860
 70
   192
  0
VERTEX
  8
fence25
 10
14.291097
 20
110.609802
 30
-17.497540
 70
   192
  0
VERTEX
  8
fence25
 10
4.293852
 20
-18.968409
 30
-15.940249
 70
   192
  0
VERTEX
  8
fence25
 10
4.195381
 20
110.609802
 30
-20.202679
 70
   192
  0
VERTEX
  8
fence25
 10
-3.593426
 20
-18.968409
 30
-13.826860
 70
   192
  0
VERTEX
  8
fence25
 10
-5.900335
 20
110.609802
 30
-17.497540
 70
   192
  0
VERTEX
  8
fence25
 10
-9.367314
 20
-18.968409
 30
-8.052971
 70
   192
  0
VERTEX
  8
fence25
 10
-13.290912
 20
110.609802
 30
-10.106963
 70
   192
  0
VERTEX
  8
fence25
 10
-11.480703
 20
-18.968409
 30
-0.165693
 70
   192
  0
VERTEX
  8
fence25
 10
-15.996050
 20
110.609802
 30
-0.011247
 70
   192
  0
VERTEX
  8
fence25
 10
-9.367314
 20
-18.968409
 30
7.721585
 70
   192
  0
VERTEX
  8
fence25
 10
-13.290912
 20
110.609802
 30
10.084469
 70
   192
  0
VERTEX
  8
fence25
 10
-3.593426
 20
-18.968409
 30
13.495473
 70
   192
  0
VERTEX
  8
fence25
 10
-5.900335
 20
110.609802
 30
17.475046
 70
   192
  0
VERTEX
  8
fence25
 10
4.293852
 20
-18.968409
 30
15.608862
 70
   192
  0
VERTEX
  8
fence25
 10
4.195381
 20
110.609802
 30
20.180185
 70
   192
  0
VERTEX
  8
fence25
 10
12.181130
 20
-18.968409
 30
13.495473
 70
   192
  0
VERTEX
  8
fence25
 10
14.291097
 20
110.609802
 30
17.475046
 70
   192
  0
VERTEX
  8
fence25
 10
17.955019
 20
-18.968409
 30
7.721585
 70
   192
  0
VERTEX
  8
fence25
 10
21.681674
 20
110.609802
 30
10.084469
 70
   192
  0
VERTEX
  8
fence25
 10
19.583732
 20
29.822252
 30
-1.290779
 70
   192
  0
VERTEX
  8
fence25
 10
17.386445
 20
29.822252
 30
-9.491165
 70
   192
  0
VERTEX
  8
fence25
 10
11.383345
 20
29.822252
 30
-15.494265
 70
   192
  0
VERTEX
  8
fence25
 10
3.182959
 20
29.822252
 30
-17.691552
 70
   192
  0
VERTEX
  8
fence25
 10
-5.017427
 20
29.822252
 30
-15.494265
 70
   192
  0
VERTEX
  8
fence25
 10
-11.020527
 20
29.822252
 30
-9.491165
 70
   192
  0
VERTEX
  8
fence25
 10
-13.217814
 20
29.822252
 30
-1.290779
 70
   192
  0
VERTEX
  8
fence25
 10
-11.020527
 20
29.822252
 30
6.909607
 70
   192
  0
VERTEX
  8
fence25
 10
-5.017427
 20
29.822252
 30
12.912707
 70
   192
  0
VERTEX
  8
fence25
 10
3.182959
 20
29.822252
 30
15.109994
 70
   192
  0
VERTEX
  8
fence25
 10
11.383345
 20
29.822252
 30
12.912707
 70
   192
  0
VERTEX
  8
fence25
 10
17.386445
 20
29.822252
 30
6.909607
 70
   192
  0
VERTEX
  8
fence25
 10
24.232342
 20
72.659846
 30
-0.088466
 70
   192
  0
VERTEX
  8
fence25
 10
21.811750
 20
72.413894
 30
-9.074520
 70
   192
  0
VERTEX
  8
fence25
 10
15.214841
 20
71.741941
 30
-15.625715
 70
   192
  0
VERTEX
  8
fence25
 10
6.241408
 20
70.824036
 30
-17.987037
 70
   192
  0
VERTEX
  8
fence25
 10
-2.688622
 20
69.906131
 30
-15.553641
 70
   192
  0
VERTEX
  8
fence25
 10
-9.198726
 20
69.234178
 30
-9.004665
 70
   192
  0
VERTEX
  8
fence25
 10
-11.575915
 20
68.988226
 30
-0.094531
 70
   192
  0
VERTEX
  8
fence25
 10
-9.198726
 20
69.234178
 30
8.816401
 70
   192
  0
VERTEX
  8
fence25
 10
-2.688622
 20
69.906131
 30
15.367565
 70
   192
  0
VERTEX
  8
fence25
 10
6.241408
 20
70.824036
 30
17.803978
 70
   192
  0
VERTEX
  8
fence25
 10
15.214841
 20
71.741941
 30
15.445704
 70
   192
  0
VERTEX
  8
fence25
 10
21.811750
 20
72.413894
 30
8.896760
 70
   192
  0
VERTEX
  8
fence25
 10
-27.841336
 20
-18.933939
 30
-2.292330
 70
   192
  0
VERTEX
  8
fence25
 10
-27.572621
 20
99.686045
 30
-2.575111
 70
   192
  0
VERTEX
  8
fence25
 10
-18.100999
 20
-18.933939
 30
-13.037661
 70
   192
  0
VERTEX
  8
fence25
 10
-15.592008
 20
99.686045
 30
-15.791868
 70
   192
  0
VERTEX
  8
fence25
 10
-24.778622
 20
-18.933939
 30
-16.468228
 70
   192
  0
VERTEX
  8
fence25
 10
-23.805484
 20
99.686045
 30
-20.011465
 70
   192
  0
VERTEX
  8
fence25
 10
-32.276897
 20
-18.933939
 30
-16.100374
 70
   192
  0
VERTEX
  8
fence25
 10
-33.028362
 20
99.686045
 30
-19.559005
 70
   192
  0
VERTEX
  8
fence25
 10
-38.586666
 20
-18.933939
 30
-12.032666
 70
   192
  0
VERTEX
  8
fence25
 10
-40.789379
 20
99.686045
 30
-14.555725
 70
   192
  0
VERTEX
  8
fence25
 10
-42.017233
 20
-18.933939
 30
-5.355043
 70
   192
  0
VERTEX
  8
fence25
 10
-45.008976
 20
99.686045
 30
-6.342248
 70
   192
  0
VERTEX
  8
fence25
 10
-41.649380
 20
-18.933939
 30
2.143231
 70
   192
  0
VERTEX
  8
fence25
 10
-44.556516
 20
99.686045
 30
2.880630
 70
   192
  0
VERTEX
  8
fence25
 10
-37.581672
 20
-18.933939
 30
8.453001
 70
   192
  0
VERTEX
  8
fence25
 10
-39.553235
 20
99.686045
 30
10.641646
 70
   192
  0
VERTEX
  8
fence25
 10
-30.904049
 20
-18.933939
 30
11.883568
 70
   192
  0
VERTEX
  8
fence25
 10
-31.339759
 20
99.686045
 30
14.861243
 70
   192
  0
VERTEX
  8
fence25
 10
-23.405774
 20
-18.933939
 30
11.515714
 70
   192
  0
VERTEX
  8
fence25
 10
-22.116881
 20
99.686045
 30
14.408784
 70
   192
  0
VERTEX
  8
fence25
 10
-17.096005
 20
-18.933939
 30
7.448006
 70
   192
  0
VERTEX
  8
fence25
 10
-14.355864
 20
99.686045
 30
9.405503
 70
   192
  0
VERTEX
  8
fence25
 10
-13.665438
 20
-18.933939
 30
0.770383
 70
   192
  0
VERTEX
  8
fence25
 10
-10.136267
 20
99.686045
 30
1.192026
 70
   192
  0
VERTEX
  8
fence25
 10
-14.033291
 20
-18.933939
 30
-6.727891
 70
   192
  0
VERTEX
  8
fence25
 10
-10.588727
 20
99.686045
 30
-8.030851
 70
   192
  0
VERTEX
  8
fence25
 10
-18.791244
 20
5.526637
 30
-9.255345
 70
   192
  0
VERTEX
  8
fence25
 10
-25.534176
 20
5.526637
 30
-12.719463
 70
   192
  0
VERTEX
  8
fence25
 10
-33.105784
 20
5.526637
 30
-12.348012
 70
   192
  0
VERTEX
  8
fence25
 10
-39.477265
 20
5.526637
 30
-8.240521
 70
   192
  0
VERTEX
  8
fence25
 10
-42.941383
 20
5.526637
 30
-1.497590
 70
   192
  0
VERTEX
  8
fence25
 10
-42.569932
 20
5.526637
 30
6.074019
 70
   192
  0
VERTEX
  8
fence25
 10
-38.462441
 20
5.526637
 30
12.445499
 70
   192
  0
VERTEX
  8
fence25
 10
-31.719510
 20
5.526637
 30
15.909617
 70
   192
  0
VERTEX
  8
fence25
 10
-24.147901
 20
5.526637
 30
15.538166
 70
   192
  0
VERTEX
  8
fence25
 10
-17.776421
 20
5.526637
 30
11.430675
 70
   192
  0
VERTEX
  8
fence25
 10
-14.312303
 20
5.526637
 30
4.687744
 70
   192
  0
VERTEX
  8
fence25
 10
-14.683754
 20
5.526637
 30
-2.883865
 70
   192
  0
VERTEX
  8
fence25
 10
-20.042914
 20
65.654368
 30
-14.361945
 70
   192
  0
VERTEX
  8
fence25
 10
-27.502384
 20
65.429216
 30
-18.184210
 70
   192
  0
VERTEX
  8
fence25
 10
-35.862592
 20
64.814089
 30
-17.748259
 70
   192
  0
VERTEX
  8
fence25
 10
-42.867239
 20
63.973810
 30
-13.189248
 70
   192
  0
VERTEX
  8
fence25
 10
-46.647253
 20
63.133531
 30
-5.751772
 70
   192
  0
VERTEX
  8
fence25
 10
-46.213384
 20
62.518404
 30
2.566616
 70
   192
  0
VERTEX
  8
fence25
 10
-41.697686
 20
62.293251
 30
9.554926
 70
   192
  0
VERTEX
  8
fence25
 10
-34.302749
 20
62.518404
 30
13.363267
 70
   192
  0
VERTEX
  8
fence25
 10
-25.986829
 20
63.133531
 30
12.976315
 70
   192
  0
VERTEX
  8
fence25
 10
-18.961939
 20
63.973810
 30
8.480226
 70
   192
  0
VERTEX
  8
fence25
 10
-15.117392
 20
64.814089
 30
1.056674
 70
   192
  0
VERTEX
  8
fence25
 10
-15.506973
 20
65.429216
 30
-7.310713
 70
   192
  0
VERTEX
  8
fence25
 10
75.747747
 20
-18.929796
 30
-2.589637
 70
   192
  0
VERTEX
  8
fence25
 10
76.119161
 20
94.041617
 30
-2.580900
 70
   192
  0
VERTEX
  8
fence25
 10
89.560104
 20
-18.929796
 30
-2.589637
 70
   192
  0
VERTEX
  8
fence25
 10
93.108360
 20
94.041617
 30
-2.580900
 70
   192
  0
VERTEX
  8
fence25
 10
87.709599
 20
-18.929796
 30
-9.495816
 70
   192
  0
VERTEX
  8
fence25
 10
90.832239
 20
94.041617
 30
-11.075500
 70
   192
  0
VERTEX
  8
fence25
 10
82.653925
 20
-18.929796
 30
-14.551489
 70
   192
  0
VERTEX
  8
fence25
 10
84.613760
 20
94.041617
 30
-17.293979
 70
   192
  0
VERTEX
  8
fence25
 10
75.747747
 20
-18.929796
 30
-16.401994
 70
   192
  0
VERTEX
  8
fence25
 10
76.119161
 20
94.041617
 30
-19.570100
 70
   192
  0
VERTEX
  8
fence25
 10
68.841568
 20
-18.929796
 30
-14.551489
 70
   192
  0
VERTEX
  8
fence25
 10
67.624561
 20
94.041617
 30
-17.293979
 70
   192
  0
VERTEX
  8
fence25
 10
63.785894
 20
-18.929796
 30
-9.495816
 70
   192
  0
VERTEX
  8
fence25
 10
61.406082
 20
94.041617
 30
-11.075500
 70
   192
  0
VERTEX
  8
fence25
 10
61.935389
 20
-18.929796
 30
-2.589637
 70
   192
  0
VERTEX
  8
fence25
 10
59.129961
 20
94.041617
 30
-2.580900
 70
   192
  0
VERTEX
  8
fence25
 10
63.785894
 20
-18.929796
 30
4.316542
 70
   192
  0
VERTEX
  8
fence25
 10
61.406082
 20
94.041617
 30
5.913699
 70
   192
  0
VERTEX
  8
fence25
 10
68.841568
 20
-18.929796
 30
9.372215
 70
   192
  0
VERTEX
  8
fence25
 10
67.624561
 20
94.041617
 30
12.132178
 70
   192
  0
VERTEX
  8
fence25
 10
75.747747
 20
-18.929796
 30
11.222720
 70
   192
  0
VERTEX
  8
fence25
 10
76.119161
 20
94.041617
 30
14.408299
 70
   192
  0
VERTEX
  8
fence25
 10
82.653925
 20
-18.929796
 30
9.372215
 70
   192
  0
VERTEX
  8
fence25
 10
84.613760
 20
94.041617
 30
12.132178
 70
   192
  0
VERTEX
  8
fence25
 10
87.709599
 20
-18.929796
 30
4.316542
 70
   192
  0
VERTEX
  8
fence25
 10
90.832239
 20
94.041617
 30
5.913699
 70
   192
  0
VERTEX
  8
fence25
 10
86.449710
 20
4.365990
 30
-0.657415
 70
   192
  0
VERTEX
  8
fence25
 10
84.581107
 20
4.365990
 30
-7.631137
 70
   192
  0
VERTEX
  8
fence25
 10
79.475988
 20
4.365990
 30
-12.736256
 70
   192
  0
VERTEX
  8
fence25
 10
72.502266
 20
4.365990
 30
-14.604859
 70
   192
  0
VERTEX
  8
fence25
 10
65.528544
 20
4.365990
 30
-12.736256
 70
   192
  0
VERTEX
  8
fence25
 10
60.423425
 20
4.365990
 30
-7.631137
 70
   192
  0
VERTEX
  8
fence25
 10
58.554822
 20
4.365990
 30
-0.657415
 70
   192
  0
VERTEX
  8
fence25
 10
60.423425
 20
4.365990
 30
6.316307
 70
   192
  0
VERTEX
  8
fence25
 10
65.528544
 20
4.365990
 30
11.421426
 70
   192
  0
VERTEX
  8
fence25
 10
72.502266
 20
4.365990
 30
13.290029
 70
   192
  0
VERTEX
  8
fence25
 10
79.475988
 20
4.365990
 30
11.421426
 70
   192
  0
VERTEX
  8
fence25
 10
84.581107
 20
4.365990
 30
6.316307
 70
   192
  0
VERTEX
  8
fence25
 10
89.252447
 20
61.630496
 30
-4.806949
 70
   192
  0
VERTEX
  8
fence25
 10
87.178243
 20
61.416065
 30
-12.515358
 70
   192
  0
VERTEX
  8
fence25
 10
81.523201
 20
60.830230
 30
-18.135676
 70
   192
  0
VERTEX
  8
fence25
 10
73.825884
 20
60.029964
 30
-20.162251
 70
   192
  0
VERTEX
  8
fence25
 10
66.160018
 20
59.229698
 30
-18.072302
 70
   192
  0
VERTEX
  8
fence25
 10
60.567878
 20
58.643863
 30
-12.445478
 70
   192
  0
VERTEX
  8
fence25
 10
58.525126
 20
58.429433
 30
-4.789174
 70
   192
  0
VERTEX
  8
fence25
 10
60.567878
 20
58.643863
 30
2.864794
 70
   192
  0
VERTEX
  8
fence25
 10
66.160018
 20
59.229698
 30
8.485202
 70
   192
  0
VERTEX
  8
fence25
 10
73.825884
 20
60.029964
 30
10.566309
 70
   192
  0
VERTEX
  8
fence25
 10
81.523201
 20
60.830230
 30
8.530801
 70
   192
  0
VERTEX
  8
fence25
 10
87.178243
 20
61.416065
 30
2.903887
 70
   192
  0
VERTEX
  8
fence25
 10
99.730322
 20
63.555939
 30
-2.961596
 70
   192
  0
VERTEX
  8
fence25
 10
-96.315764
 20
63.555939
 30
-2.961596
 70
   192
  0
VERTEX
  8
fence25
 10
99.730322
 20
70.547908
 30
-2.961596
 70
   192
  0
VERTEX
  8
fence25
 10
-96.315764
 20
70.547908
 30
-2.961596
 70
   192
  0
VERTEX
  8
fence25
 10
99.730322
 20
69.611162
 30
-6.457581
 70
   192
  0
VERTEX
  8
fence25
 10
-96.315764
 20
69.611162
 30
-6.457581
 70
   192
  0
VERTEX
  8
fence25
 10
99.730322
 20
67.051924
 30
-9.016819
 70
   192
  0
VERTEX
  8
fence25
 10
-96.315764
 20
67.051924
 30
-9.016819
 70
   192
  0
VERTEX
  8
fence25
 10
99.730322
 20
63.555939
 30
-9.953565
 70
   192
  0
VERTEX
  8
fence25
 10
-96.315764
 20
63.555939
 30
-9.953565
 70
   192
  0
VERTEX
  8
fence25
 10
99.730322
 20
60.059955
 30
-9.016819
 70
   192
  0
VERTEX
  8
fence25
 10
-96.315764
 20
60.059955
 30
-9.016819
 70
   192
  0
VERTEX
  8
fence25
 10
99.730322
 20
57.500716
 30
-6.457581
 70
   192
  0
VERTEX
  8
fence25
 10
-96.315764
 20
57.500716
 30
-6.457581
 70
   192
  0
VERTEX
  8
fence25
 10
99.730322
 20
56.563970
 30
-2.961596
 70
   192
  0
VERTEX
  8
fence25
 10
-96.315764
 20
56.563970
 30
-2.961596
 70
   192
  0
VERTEX
  8
fence25
 10
99.730322
 20
57.500716
 30
0.534388
 70
   192
  0
VERTEX
  8
fence25
 10
-96.315764
 20
57.500716
 30
0.534388
 70
   192
  0
VERTEX
  8
fence25
 10
99.730322
 20
60.059955
 30
3.093627
 70
   192
  0
VERTEX
  8
fence25
 10
-96.315764
 20
60.059955
 30
3.093627
 70
   192
  0
VERTEX
  8
fence25
 10
99.730322
 20
63.555939
 30
4.030373
 70
   192
  0
VERTEX
  8
fence25
 10
-96.315764
 20
63.555939
 30
4.030373
 70
   192
  0
VERTEX
  8
fence25
 10
99.730322
 20
67.051924
 30
3.093627
 70
   192
  0
VERTEX
  8
fence25
 10
-96.315764
 20
67.051924
 30
3.093627
 70
   192
  0
VERTEX
  8
fence25
 10
99.730322
 20
69.611162
 30
0.534388
 70
   192
  0
VERTEX
  8
fence25
 10
-96.315764
 20
69.611162
 30
0.534388
 70
   192
  0
VERTEX
  8
fence25
 10
25.912216
 20
72.952292
 30
-3.450577
 70
   192
  0
VERTEX
  8
fence25
 10
25.912216
 20
72.015546
 30
-6.946562
 70
   192
  0
VERTEX
  8
fence25
 10
25.912216
 20
69.456308
 30
-9.505800
 70
   192
  0
VERTEX
  8
fence25
 10
25.912216
 20
65.960323
 30
-10.442547
 70
   192
  0
VERTEX
  8
fence25
 10
25.912216
 20
62.464339
 30
-9.505800
 70
   192
  0
VERTEX
  8
fence25
 10
25.912216
 20
59.905100
 30
-6.946562
 70
   192
  0
VERTEX
  8
fence25
 10
25.912216
 20
58.968354
 30
-3.450577
 70
   192
  0
VERTEX
  8
fence25
 10
25.912216
 20
59.905100
 30
0.045407
 70
   192
  0
VERTEX
  8
fence25
 10
25.912216
 20
62.464339
 30
2.604646
 70
   192
  0
VERTEX
  8
fence25
 10
25.912216
 20
65.960323
 30
3.541392
 70
   192
  0
VERTEX
  8
fence25
 10
25.912216
 20
69.456308
 30
2.604646
 70
   192
  0
VERTEX
  8
fence25
 10
25.912216
 20
72.015546
 30
0.045407
 70
   192
  0
VERTEX
  8
fence25
 10
-38.899164
 20
71.327315
 30
-2.961596
 70
   192
  0
VERTEX
  8
fence25
 10
-38.527050
 20
70.390568
 30
-6.457581
 70
   192
  0
VERTEX
  8
fence25
 10
-37.510415
 20
67.831330
 30
-9.016819
 70
   192
  0
VERTEX
  8
fence25
 10
-36.121665
 20
64.335345
 30
-9.953565
 70
   192
  0
VERTEX
  8
fence25
 10
-34.732916
 20
60.839361
 30
-9.016819
 70
   192
  0
VERTEX
  8
fence25
 10
-33.716281
 20
58.280122
 30
-6.457581
 70
   192
  0
VERTEX
  8
fence25
 10
-33.344166
 20
57.343376
 30
-2.961596
 70
   192
  0
VERTEX
  8
fence25
 10
-33.716281
 20
58.280122
 30
0.534388
 70
   192
  0
VERTEX
  8
fence25
 10
-34.732916
 20
60.839361
 30
3.093627
 70
   192
  0
VERTEX
  8
fence25
 10
-36.121665
 20
64.335345
 30
4.030373
 70
   192
  0
VERTEX
  8
fence25
 10
-37.510415
 20
67.831330
 30
3.093627
 70
   192
  0
VERTEX
  8
fence25
 10
-38.527050
 20
70.390568
 30
0.534388
 70
   192
  0
VERTEX
  8
fence25
 10
99.730322
 20
14.602071
 30
-3.384256
 70
   192
  0
VERTEX
  8
fence25
 10
-96.315764
 20
14.602071
 30
-3.384256
 70
   192
  0
VERTEX
  8
fence25
 10
99.730322
 20
14.053365
 30
3.746817
 70
   192
  0
VERTEX
  8
fence25
 10
-96.315764
 20
14.053365
 30
3.746817
 70
   192
  0
VERTEX
  8
fence25
 10
99.730322
 20
17.692414
 30
3.065787
 70
   192
  0
VERTEX
  8
fence25
 10
-96.315764
 20
17.692414
 30
3.065787
 70
   192
  0
VERTEX
  8
fence25
 10
99.730322
 20
20.503408
 30
0.656474
 70
   192
  0
VERTEX
  8
fence25
 10
-96.315764
 20
20.503408
 30
0.656474
 70
   192
  0
VERTEX
  8
fence25
 10
99.730322
 20
21.733143
 30
-2.835550
 70
   192
  0
VERTEX
  8
fence25
 10
-96.315764
 20
21.733143
 30
-2.835550
 70
   192
  0
VERTEX
  8
fence25
 10
99.730322
 20
21.052114
 30
-6.474599
 70
   192
  0
VERTEX
  8
fence25
 10
-96.315764
 20
21.052114
 30
-6.474599
 70
   192
  0
VERTEX
  8
fence25
 10
99.730322
 20
18.642801
 30
-9.285593
 70
   192
  0
VERTEX
  8
fence25
 10
-96.315764
 20
18.642801
 30
-9.285593
 70
   192
  0
VERTEX
  8
fence25
 10
99.730322
 20
15.150777
 30
-10.515329
 70
   192
  0
VERTEX
  8
fence25
 10
-96.315764
 20
15.150777
 30
-10.515329
 70
   192
  0
VERTEX
  8
fence25
 10
99.730322
 20
11.511728
 30
-9.834299
 70
   192
  0
VERTEX
  8
fence25
 10
-96.315764
 20
11.511728
 30
-9.834299
 70
   192
  0
VERTEX
  8
fence25
 10
99.730322
 20
8.700734
 30
-7.424986
 70
   192
  0
VERTEX
  8
fence25
 10
-96.315764
 20
8.700734
 30
-7.424986
 70
   192
  0
VERTEX
  8
fence25
 10
99.730322
 20
7.470998
 30
-3.932962
 70
   192
  0
VERTEX
  8
fence25
 10
-96.315764
 20
7.470998
 30
-3.932962
 70
   192
  0
VERTEX
  8
fence25
 10
99.730322
 20
8.152028
 30
-0.293913
 70
   192
  0
VERTEX
  8
fence25
 10
-96.315764
 20
8.152028
 30
-0.293913
 70
   192
  0
VERTEX
  8
fence25
 10
99.730322
 20
10.561341
 30
2.517081
 70
   192
  0
VERTEX
  8
fence25
 10
-96.315764
 20
10.561341
 30
2.517081
 70
   192
  0
VERTEX
  8
fence25
 10
25.912216
 20
13.119861
 30
3.195216
 70
   192
  0
VERTEX
  8
fence25
 10
25.912216
 20
16.758910
 30
2.514187
 70
   192
  0
VERTEX
  8
fence25
 10
25.912216
 20
19.569904
 30
0.104873
 70
   192
  0
VERTEX
  8
fence25
 10
25.912216
 20
20.799640
 30
-3.387150
 70
   192
  0
VERTEX
  8
fence25
 10
25.912216
 20
20.118610
 30
-7.026199
 70
   192
  0
VERTEX
  8
fence25
 10
25.912216
 20
17.709297
 30
-9.837193
 70
   192
  0
VERTEX
  8
fence25
 10
25.912216
 20
14.217273
 30
-11.066929
 70
   192
  0
VERTEX
  8
fence25
 10
25.912216
 20
10.578224
 30
-10.385899
 70
   192
  0
VERTEX
  8
fence25
 10
25.912216
 20
7.767230
 30
-7.976586
 70
   192
  0
VERTEX
  8
fence25
 10
25.912216
 20
6.537494
 30
-4.484562
 70
   192
  0
VERTEX
  8
fence25
 10
25.912216
 20
7.218524
 30
-0.845513
 70
   192
  0
VERTEX
  8
fence25
 10
25.912216
 20
9.627837
 30
1.965481
 70
   192
  0
VERTEX
  8
fence25
 10
-38.899164
 20
15.167329
 30
4.632150
 70
   192
  0
VERTEX
  8
fence25
 10
-38.527050
 20
18.806378
 30
3.951121
 70
   192
  0
VERTEX
  8
fence25
 10
-37.510415
 20
21.617372
 30
1.541807
 70
   192
  0
VERTEX
  8
fence25
 10
-36.121665
 20
22.847108
 30
-1.950216
 70
   192
  0
VERTEX
  8
fence25
 10
-34.732916
 20
22.166078
 30
-5.589265
 70
   192
  0
VERTEX
  8
fence25
 10
-33.716281
 20
19.756765
 30
-8.400260
 70
   192
  0
VERTEX
  8
fence25
 10
-33.344166
 20
16.264741
 30
-9.629995
 70
   192
  0
VERTEX
  8
fence25
 10
-33.716281
 20
12.625692
 30
-8.948966
 70
   192
  0
VERTEX
  8
fence25
 10
-34.732916
 20
9.814698
 30
-6.539652
 70
   192
  0
VERTEX
  8
fence25
 10
-36.121665
 20
8.584963
 30
-3.047629
 70
   192
  0
VERTEX
  8
fence25
 10
-37.510415
 20
9.265992
 30
0.591420
 70
   192
  0
VERTEX
  8
fence25
 10
-38.527050
 20
11.675306
 30
3.402414
 70
   192
  0
VERTEX
  8
fence25
 10
-67.378937
 20
-18.929796
 30
-2.563799
 70
   192
  0
VERTEX
  8
fence25
 10
-67.537848
 20
94.041617
 30
-2.579577
 70
   192
  0
VERTEX
  8
fence25
 10
-61.167433
 20
-18.929796
 30
9.706449
 70
   192
  0
VERTEX
  8
fence25
 10
-59.587122
 20
94.041617
 30
13.126340
 70
   192
  0
VERTEX
  8
fence25
 10
-55.864493
 20
-18.929796
 30
4.956796
 70
   192
  0
VERTEX
  8
fence25
 10
-52.799359
 20
94.041617
 30
7.046784
 70
   192
  0
VERTEX
  8
fence25
 10
-53.646839
 20
-18.929796
 30
-1.807995
 70
   192
  0
VERTEX
  8
fence25
 10
-49.960761
 20
94.041617
 30
-1.612149
 70
   192
  0
VERTEX
  8
fence25
 10
-55.108689
 20
-18.929796
 30
-8.775303
 70
   192
  0
VERTEX
  8
fence25
 10
-51.831930
 20
94.041617
 30
-10.530302
 70
   192
  0
VERTEX
  8
fence25
 10
-59.858343
 20
-18.929796
 30
-14.078243
 70
   192
  0
VERTEX
  8
fence25
 10
-57.911487
 20
94.041617
 30
-17.318066
 70
   192
  0
VERTEX
  8
fence25
 10
-66.623134
 20
-18.929796
 30
-16.295897
 70
   192
  0
VERTEX
  8
fence25
 10
-66.570419
 20
94.041617
 30
-20.156663
 70
   192
  0
VERTEX
  8
fence25
 10
-73.590442
 20
-18.929796
 30
-14.834047
 70
   192
  0
VERTEX
  8
fence25
 10
-75.488573
 20
94.041617
 30
-18.285494
 70
   192
  0
VERTEX
  8
fence25
 10
-78.893382
 20
-18.929796
 30
-10.084393
 70
   192
  0
VERTEX
  8
fence25
 10
-82.276337
 20
94.041617
 30
-12.205938
 70
   192
  0
VERTEX
  8
fence25
 10
-81.111036
 20
-18.929796
 30
-3.319602
 70
   192
  0
VERTEX
  8
fence25
 10
-85.114934
 20
94.041617
 30
-3.547006
 70
   192
  0
VERTEX
  8
fence25
 10
-79.649185
 20
-18.929796
 30
3.647706
 70
   192
  0
VERTEX
  8
fence25
 10
-83.243765
 20
94.041617
 30
5.371148
 70
   192
  0
VERTEX
  8
fence25
 10
-74.899532
 20
-18.929796
 30
8.950646
 70
   192
  0
VERTEX
  8
fence25
 10
-77.164208
 20
94.041617
 30
12.158912
 70
   192
  0
VERTEX
  8
fence25
 10
-68.134741
 20
-18.929796
 30
11.168300
 70
   192
  0
VERTEX
  8
fence25
 10
-68.505276
 20
94.041617
 30
14.997509
 70
   192
  0
VERTEX
  8
fence25
 10
-60.483134
 20
23.607833
 30
8.886422
 70
   192
  0
VERTEX
  8
fence25
 10
-54.969678
 20
23.607833
 30
3.948217
 70
   192
  0
VERTEX
  8
fence25
 10
-52.663988
 20
23.607833
 30
-3.085122
 70
   192
  0
VERTEX
  8
fence25
 10
-54.183871
 20
23.607834
 30
-10.329017
 70
   192
  0
VERTEX
  8
fence25
 10
-59.122076
 20
23.607834
 30
-15.842473
 70
   192
  0
VERTEX
  8
fence25
 10
-66.155415
 20
23.607834
 30
-18.148163
 70
   192
  0
VERTEX
  8
fence25
 10
-73.399310
 20
23.607834
 30
-16.628280
 70
   192
  0
VERTEX
  8
fence25
 10
-78.912766
 20
23.607834
 30
-11.690075
 70
   192
  0
VERTEX
  8
fence25
 10
-81.218456
 20
23.607834
 30
-4.656736
 70
   192
  0
VERTEX
  8
fence25
 10
-79.698573
 20
23.607834
 30
2.587159
 70
   192
  0
VERTEX
  8
fence25
 10
-74.760368
 20
23.607833
 30
8.100615
 70
   192
  0
VERTEX
  8
fence25
 10
-67.727029
 20
23.607833
 30
10.406305
 70
   192
  0
VERTEX
  8
fence25
 10
-59.587884
 20
60.955343
 30
12.975778
 70
   192
  0
VERTEX
  8
fence25
 10
-53.551226
 20
60.740913
 30
7.554505
 70
   192
  0
VERTEX
  8
fence25
 10
-51.053021
 20
60.155077
 30
-0.156551
 70
   192
  0
VERTEX
  8
fence25
 10
-52.749710
 20
59.354812
 30
-8.066352
 70
   192
  0
VERTEX
  8
fence25
 10
-58.158883
 20
58.554546
 30
-14.054390
 70
   192
  0
VERTEX
  8
fence25
 10
-65.816473
 20
57.968711
 30
-16.539506
 70
   192
  0
VERTEX
  8
fence25
 10
-73.683286
 20
57.754280
 30
-14.880085
 70
   192
  0
VERTEX
  8
fence25
 10
-79.678600
 20
57.968711
 30
-9.522153
 70
   192
  0
VERTEX
  8
fence25
 10
-82.210962
 20
58.554546
 30
-1.878631
 70
   192
  0
VERTEX
  8
fence25
 10
-80.589773
 20
59.354812
 30
6.026979
 70
   192
  0
VERTEX
  8
fence25
 10
-75.221944
 20
60.155077
 30
12.078358
 70
   192
  0
VERTEX
  8
fence25
 10
-67.530197
 20
60.740913
 30
14.631008
 70
   192
  0
VERTEX
  8
fence25
 10
0.0
 20
0.0
 30
0.0
 70
   128
 71
   27
 72
   39
 73
   40
  0
VERTEX
  8
fence25
 10
0.0
 20
0.0
 30
0.0
 70
   128
 71
   3
 72
   27
 73
   28
  0
VERTEX
  8
fence25
 10
0.0
 20
0.0
 30
0.0
 70
   128
 71
   29
 72
   7
 73
   5
  0
VERTEX
  8
fence25
 10
0.0
 20
0.0
 30
0.0
 70
   128
 71
   29
 72
   41
 73
   42
  0
VERTEX
  8
fence25
 10
0.0
 20
0.0
 30
0.0
 70
   128
 71
   40
 72
   6
 73
   8
  0
VERTEX
  8
fence25
 10
0.0
 20
0.0
 30
0.0
 70
   128
 71
   31
 72
   11
 73
   9
  0
VERTEX
  8
fence25
 10
0.0
 20
0.0
 30
0.0
 70
   128
 71
   31
 72
   43
 73
   44
  0
VERTEX
  8
fence25
 10
0.0
 20
0.0
 30
0.0
 70
   128
 71
   7
 72
   29
 73
   30
  0
VERTEX
  8
fence25
 10
0.0
 20
0.0
 30
0.0
 70
   128
 71
   33
 72
   15
 73
   13
  0
VERTEX
  8
fence25
 10
0.0
 20
0.0
 30
0.0
 70
   128
 71
   33
 72
   45
 73
   46
  0
VERTEX
  8
fence25
 10
0.0
 20
0.0
 30
0.0
 70
   128
 71
   30
 72
   42
 73
   43
  0
VERTEX
  8
fence25
 10
0.0
 20
0.0
 30
0.0
 70
   128
 71
   35
 72
   19
 73
   17
  0
VERTEX
  8
fence25
 10
0.0
 20
0.0
 30
0.0
 70
   128
 71
   35
 72
   47
 73
   48
  0
VERTEX
  8
fence25
 10
0.0
 20
0.0
 30
0.0
 70
   128
 71
   11
 72
   31
 73
   32
  0
VERTEX
  8
fence25
 10
0.0
 20
0.0
 30
0.0
 70
   128
 71
   37
 72
   23
 73
   21
  0
VERTEX
  8
fence25
 10
0.0
 20
0.0
 30
0.0
 70
   128
 71
   37
 72
   49
 73
   50
  0
VERTEX
  8
fence25
 10
0.0
 20
0.0
 30
0.0
 70
   128
 71
   32
 72
   44
 73
   45
  0
VERTEX
  8
fence25
 10
0.0
 20
0.0
 30
0.0
 70
   128
 71
   27
 72
   3
 73
   25
  0
VERTEX
  8
fence25
 10
0.0
 20
0.0
 30
0.0
 70
   128
 71
   41
 72
   29
 73
   28
  0
VERTEX
  8
fence25
 10
0.0
 20
0.0
 30
0.0
 70
   128
 71
   15
 72
   33
 73
   34
  0
VERTEX
  8
fence25
 10
0.0
 20
0.0
 30
0.0
 70
   128
 71
   42
 72
   10
 73
   12
  0
VERTEX
  8
fence25
 10
0.0
 20
0.0
 30
0.0
 70
   128
 71
   44
 72
   14
 73
   16
  0
VERTEX
  8
fence25
 10
0.0
 20
0.0
 30
0.0
 70
   128
 71
   34
 72
   46
 73
   47
  0
VERTEX
  8
fence25
 10
0.0
 20
0.0
 30
0.0
 70
   128
 71
   46
 72
   18
 73
   20
  0
VERTEX
  8
fence25
 10
0.0
 20
0.0
 30
0.0
 70
   128
 71
   48
 72
   22
 73
   24
  0
VERTEX
  8
fence25
 10
0.0
 20
0.0
 30
0.0
 70
   128
 71
   19
 72
   35
 73
   36
  0
VERTEX
  8
fence25
 10
0.0
 20
0.0
 30
0.0
 70
   128
 71
   50
 72
   26
 73
   4
  0
VERTEX
  8
fence25
 10
0.0
 20
0.0
 30
0.0
 70
   128
 71
   39
 72
   4
 73
   6
  0
VERTEX
  8
fence25
 10
0.0
 20
0.0
 30
0.0
 70
   128
 71
   36
 72
   48
 73
   49
  0
VERTEX
  8
fence25
 10
0.0
 20
0.0
 30
0.0
 70
   128
 71
   41
 72
   8
 73
   10
  0
VERTEX
  8
fence25
 10
0.0
 20
0.0
 30
0.0
 70
   128
 71
   43
 72
   12
 73
   14
  0
VERTEX
  8
fence25
 10
0.0
 20
0.0
 30
0.0
 70
   128
 71
   23
 72
   37
 73
   38
  0
VERTEX
  8
fence25
 10
0.0
 20
0.0
 30
0.0
 70
   128
 71
   45
 72
   16
 73
   18
  0
VERTEX
  8
fence25
 10
0.0
 20
0.0
 30
0.0
 70
   128
 71
   47
 72
   20
 73
   22
  0
VERTEX
  8
fence25
 10
0.0
 20
0.0
 30
0.0
 70
   128
 71
   38
 72
   50
 73
   39
  0
VERTEX
  8
fence25
 10
0.0
 20
0.0
 30
0.0
 70
   128
 71
   49
 72
   24
 73
   26
  0
VERTEX
  8
fence25
 10
0.0
 20
0.0
 30
0.0
 70
   128
 71
   7
 72
   25
 73
   3
  0
VERTEX
  8
fence25
 10
0.0
 20
0.0
 30
0.0
 70
   128
 71
   19
 72
   25
 73
   7
  0
VERTEX
  8
fence25
 10
0.0
 20
0.0
 30
0.0
 70
   128
 71
   25
 72
   19
 73
   21
  0
VERTEX
  8
fence25
 10
0.0
 20
0.0
 30
0.0
 70
   128
 71
   9
 72
   11
 73
   13
  0
VERTEX
  8
fence25
 10
0.0
 20
0.0
 30
0.0
 70
   128
 71
   9
 72
   13
 73
   15
  0
VERTEX
  8
fence25
 10
0.0
 20
0.0
 30
0.0
 70
   128
 71
   15
 72
   17
 73
   19
  0
VERTEX
  8
fence25
 10
0.0
 20
0.0
 30
0.0
 70
   128
 71
   24
 72
   20
 73
   18
  0
VERTEX
  8
fence25
 10
0.0
 20
0.0
 30
0.0
 70
   128
 71
   24
 72
   22
 73
   20
  0
VERTEX
  8
fence25
 10
0.0
 20
0.0
 30
0.0
 70
   128
 71
   12
 72
   18
 73
   16
  0
VERTEX
  8
fence25
 10
0.0
 20
0.0
 30
0.0
 70
   128
 71
   26
 72
   18
 73
   12
  0
VERTEX
  8
fence25
 10
0.0
 20
0.0
 30
0.0
 70
   128
 71
   12
 72
   10
 73
   8
  0
VERTEX
  8
fence25
 10
0.0
 20
0.0
 30
0.0
 70
   128
 71
   6
 72
   4
 73
   26
  0
VERTEX
  8
fence25
 10
0.0
 20
0.0
 30
0.0
 70
   128
 71
   77
 72
   89
 73
   90
  0
VERTEX
  8
fence25
 10
0.0
 20
0.0
 30
0.0
 70
   128
 71
   53
 72
   77
 73
   78
  0
VERTEX
  8
fence25
 10
0.0
 20
0.0
 30
0.0
 70
   128
 71
   79
 72
   57
 73
   55
  0
VERTEX
  8
fence25
 10
0.0
 20
0.0
 30
0.0
 70
   128
 71
   79
 72
   91
 73
   92
  0
VERTEX
  8
fence25
 10
0.0
 20
0.0
 30
0.0
 70
   128
 71
   90
 72
   56
 73
   58
  0
VERTEX
  8
fence25
 10
0.0
 20
0.0
 30
0.0
 70
   128
 71
   81
 72
   61
 73
   59
  0
VERTEX
  8
fence25
 10
0.0
 20
0.0
 30
0.0
 70
   128
 71
   81
 72
   93
 73
   94
  0
VERTEX
  8
fence25
 10
0.0
 20
0.0
 30
0.0
 70
   128
 71
   57
 72
   79
 73
   80
  0
VERTEX
  8
fence25
 10
0.0
 20
0.0
 30
0.0
 70
   128
 71
   83
 72
   65
 73
   63
  0
VERTEX
  8
fence25
 10
0.0
 20
0.0
 30
0.0
 70
   128
 71
   83
 72
   95
 73
   96
  0
VERTEX
  8
fence25
 10
0.0
 20
0.0
 30
0.0
 70
   128
 71
   80
 72
   92
 73
   93
  0
VERTEX
  8
fence25
 10
0.0
 20
0.0
 30
0.0
 70
   128
 71
   85
 72
   69
 73
   67
  0
VERTEX
  8
fence25
 10
0.0
 20
0.0
 30
0.0
 70
   128
 71
   85
 72
   97
 73
   98
  0
VERTEX
  8
fence25
 10
0.0
 20
0.0
 30
0.0
 70
   128
 71
   61
 72
   81
 73
   82
  0
VERTEX
  8
fence25
 10
0.0
 20
0.0
 30
0.0
 70
   128
 71
   87
 72
   73
 73
   71
  0
VERTEX
  8
fence25
 10
0.0
 20
0.0
 30
0.0
 70
   128
 71
   87
 72
   99
 73
   100
  0
VERTEX
  8
fence25
 10
0.0
 20
0.0
 30
0.0
 70
   128
 71
   82
 72
   94
 73
   95
  0
VERTEX
  8
fence25
 10
0.0
 20
0.0
 30
0.0
 70
   128
 71
   77
 72
   53
 73
   75
  0
VERTEX
  8
fence25
 10
0.0
 20
0.0
 30
0.0
 70
   128
 71
   91
 72
   79
 73
   78
  0
VERTEX
  8
fence25
 10
0.0
 20
0.0
 30
0.0
 70
   128
 71
   65
 72
   83
 73
   84
  0
VERTEX
  8
fence25
 10
0.0
 20
0.0
 30
0.0
 70
   128
 71
   92
 72
   60
 73
   62
  0
VERTEX
  8
fence25
 10
0.0
 20
0.0
 30
0.0
 70
   128
 71
   94
 72
   64
 73
   66
  0
VERTEX
  8
fence25
 10
0.0
 20
0.0
 30
0.0
 70
   128
 71
   84
 72
   96
 73
   97
  0
VERTEX
  8
fence25
 10
0.0
 20
0.0
 30
0.0
 70
   128
 71
   96
 72
   68
 73
   70
  0
VERTEX
  8
fence25
 10
0.0
 20
0.0
 30
0.0
 70
   128
 71
   98
 72
   72
 73
   74
  0
VERTEX
  8
fence25
 10
0.0
 20
0.0
 30
0.0
 70
   128
 71
   69
 72
   85
 73
   86
  0
VERTEX
  8
fence25
 10
0.0
 20
0.0
 30
0.0
 70
   128
 71
   100
 72
   76
 73
   54
  0
VERTEX
  8
fence25
 10
0.0
 20
0.0
 30
0.0
 70
   128
 71
   89
 72
   54
 73
   56
  0
VERTEX
  8
fence25
 10
0.0
 20
0.0
 30
0.0
 70
   128
 71
   86
 72
   98
 73
   99
  0
VERTEX
  8
fence25
 10
0.0
 20
0.0
 30
0.0
 70
   128
 71
   91
 72
   58
 73
   60
  0
VERTEX
  8
fence25
 10
0.0
 20
0.0
 30
0.0
 70
   128
 71
   93
 72
   62
 73
   64
  0
VERTEX
  8
fence25
 10
0.0
 20
0.0
 30
0.0
 70
   128
 71
   73
 72
   87
 73
   88
  0
VERTEX
  8
fence25
 10
0.0
 20
0.0
 30
0.0
 70
   128
 71
   95
 72
   66
 73
   68
  0
VERTEX
  8
fence25
 10
0.0
 20
0.0
 30
0.0
 70
   128
 71
   97
 72
   70
 73
   72
  0
VERTEX
  8
fence25
 10
0.0
 20
0.0
 30
0.0
 70
   128
 71
   88
 72
   100
 73
   89
  0
VERTEX
  8
fence25
 10
0.0
 20
0.0
 30
0.0
 70
   128
 71
   99
 72
   74
 73
   76
  0
VERTEX
  8
fence25
 10
0.0
 20
0.0
 30
0.0
 70
   128
 71
   57
 72
   75
 73
   53
  0
VERTEX
  8
fence25
 10
0.0
 20
0.0
 30
0.0
 70
   128
 71
   69
 72
   75
 73
   57
  0
VERTEX
  8
fence25
 10
0.0
 20
0.0
 30
0.0
 70
   128
 71
   75
 72
   69
 73
   71
  0
VERTEX
  8
fence25
 10
0.0
 20
0.0
 30
0.0
 70
   128
 71
   59
 72
   61
 73
   63
  0
VERTEX
  8
fence25
 10
0.0
 20
0.0
 30
0.0
 70
   128
 71
   59
 72
   63
 73
   65
  0
VERTEX
  8
fence25
 10
0.0
 20
0.0
 30
0.0
 70
   128
 71
   65
 72
   67
 73
   69
  0
VERTEX
  8
fence25
 10
0.0
 20
0.0
 30
0.0
 70
   128
 71
   74
 72
   70
 73
   68
  0
VERTEX
  8
fence25
 10
0.0
 20
0.0
 30
0.0
 70
   128
 71
   74
 72
   72
 73
   70
  0
VERTEX
  8
fence25
 10
0.0
 20
0.0
 30
0.0
 70
   128
 71
   62
 72
   68
 73
   66
  0
VERTEX
  8
fence25
 10
0.0
 20
0.0
 30
0.0
 70
   128
 71
   76
 72
   68
 73
   62
  0
VERTEX
  8
fence25
 10
0.0
 20
0.0
 30
0.0
 70
   128
 71
   62
 72
   60
 73
   58
  0
VERTEX
  8
fence25
 10
0.0
 20
0.0
 30
0.0
 70
   128
 71
   56
 72
   54
 73
   76
  0
VERTEX
  8
fence25
 10
0.0
 20
0.0
 30
0.0
 70
   128
 71
   127
 72
   139
 73
   140
  0
VERTEX
  8
fence25
 10
0.0
 20
0.0
 30
0.0
 70
   128
 71
   103
 72
   127
 73
   128
  0
VERTEX
  8
fence25
 10
0.0
 20
0.0
 30
0.0
 70
   128
 71
   129
 72
   107
 73
   105
  0
VERTEX
  8
fence25
 10
0.0
 20
0.0
 30
0.0
 70
   128
 71
   129
 72
   141
 73
   142
  0
VERTEX
  8
fence25
 10
0.0
 20
0.0
 30
0.0
 70
   128
 71
   140
 72
   106
 73
   108
  0
VERTEX
  8
fence25
 10
0.0
 20
0.0
 30
0.0
 70
   128
 71
   131
 72
   111
 73
   109
  0
VERTEX
  8
fence25
 10
0.0
 20
0.0
 30
0.0
 70
   128
 71
   131
 72
   143
 73
   144
  0
VERTEX
  8
fence25
 10
0.0
 20
0.0
 30
0.0
 70
   128
 71
   107
 72
   129
 73
   130
  0
VERTEX
  8
fence25
 10
0.0
 20
0.0
 30
0.0
 70
   128
 71
   133
 72
   115
 73
   113
  0
VERTEX
  8
fence25
 10
0.0
 20
0.0
 30
0.0
 70
   128
 71
   133
 72
   145
 73
   146
  0
VERTEX
  8
fence25
 10
0.0
 20
0.0
 30
0.0
 70
   128
 71
   130
 72
   142
 73
   143
  0
VERTEX
  8
fence25
 10
0.0
 20
0.0
 30
0.0
 70
   128
 71
   135
 72
   119
 73
   117
  0
VERTEX
  8
fence25
 10
0.0
 20
0.0
 30
0.0
 70
   128
 71
   135
 72
   147
 73
   148
  0
VERTEX
  8
fence25
 10
0.0
 20
0.0
 30
0.0
 70
   128
 71
   111
 72
   131
 73
   132
  0
VERTEX
  8
fence25
 10
0.0
 20
0.0
 30
0.0
 70
   128
 71
   137
 72
   123
 73
   121
  0
VERTEX
  8
fence25
 10
0.0
 20
0.0
 30
0.0
 70
   128
 71
   137
 72
   149
 73
   150
  0
VERTEX
  8
fence25
 10
0.0
 20
0.0
 30
0.0
 70
   128
 71
   132
 72
   144
 73
   145
  0
VERTEX
  8
fence25
 10
0.0
 20
0.0
 30
0.0
 70
   128
 71
   127
 72
   103
 73
   125
  0
VERTEX
  8
fence25
 10
0.0
 20
0.0
 30
0.0
 70
   128
 71
   141
 72
   129
 73
   128
  0
VERTEX
  8
fence25
 10
0.0
 20
0.0
 30
0.0
 70
   128
 71
   115
 72
   133
 73
   134
  0
VERTEX
  8
fence25
 10
0.0
 20
0.0
 30
0.0
 70
   128
 71
   142
 72
   110
 73
   112
  0
VERTEX
  8
fence25
 10
0.0
 20
0.0
 30
0.0
 70
   128
 71
   144
 72
   114
 73
   116
  0
VERTEX
  8
fence25
 10
0.0
 20
0.0
 30
0.0
 70
   128
 71
   134
 72
   146
 73
   147
  0
VERTEX
  8
fence25
 10
0.0
 20
0.0
 30
0.0
 70
   128
 71
   146
 72
   118
 73
   120
  0
VERTEX
  8
fence25
 10
0.0
 20
0.0
 30
0.0
 70
   128
 71
   148
 72
   122
 73
   124
  0
VERTEX
  8
fence25
 10
0.0
 20
0.0
 30
0.0
 70
   128
 71
   119
 72
   135
 73
   136
  0
VERTEX
  8
fence25
 10
0.0
 20
0.0
 30
0.0
 70
   128
 71
   150
 72
   126
 73
   104
  0
VERTEX
  8
fence25
 10
0.0
 20
0.0
 30
0.0
 70
   128
 71
   139
 72
   104
 73
   106
  0
VERTEX
  8
fence25
 10
0.0
 20
0.0
 30
0.0
 70
   128
 71
   136
 72
   148
 73
   149
  0
VERTEX
  8
fence25
 10
0.0
 20
0.0
 30
0.0
 70
   128
 71
   141
 72
   108
 73
   110
  0
VERTEX
  8
fence25
 10
0.0
 20
0.0
 30
0.0
 70
   128
 71
   143
 72
   112
 73
   114
  0
VERTEX
  8
fence25
 10
0.0
 20
0.0
 30
0.0
 70
   128
 71
   123
 72
   137
 73
   138
  0
VERTEX
  8
fence25
 10
0.0
 20
0.0
 30
0.0
 70
   128
 71
   145
 72
   116
 73
   118
  0
VERTEX
  8
fence25
 10
0.0
 20
0.0
 30
0.0
 70
   128
 71
   147
 72
   120
 73
   122
  0
VERTEX
  8
fence25
 10
0.0
 20
0.0
 30
0.0
 70
   128
 71
   138
 72
   150
 73
   139
  0
VERTEX
  8
fence25
 10
0.0
 20
0.0
 30
0.0
 70
   128
 71
   149
 72
   124
 73
   126
  0
VERTEX
  8
fence25
 10
0.0
 20
0.0
 30
0.0
 70
   128
 71
   107
 72
   125
 73
   103
  0
VERTEX
  8
fence25
 10
0.0
 20
0.0
 30
0.0
 70
   128
 71
   119
 72
   125
 73
   107
  0
VERTEX
  8
fence25
 10
0.0
 20
0.0
 30
0.0
 70
   128
 71
   125
 72
   119
 73
   121
  0
VERTEX
  8
fence25
 10
0.0
 20
0.0
 30
0.0
 70
   128
 71
   109
 72
   111
 73
   113
  0
VERTEX
  8
fence25
 10
0.0
 20
0.0
 30
0.0
 70
   128
 71
   109
 72
   113
 73
   115
  0
VERTEX
  8
fence25
 10
0.0
 20
0.0
 30
0.0
 70
   128
 71
   115
 72
   117
 73
   119
  0
VERTEX
  8
fence25
 10
0.0
 20
0.0
 30
0.0
 70
   128
 71
   124
 72
   120
 73
   118
  0
VERTEX
  8
fence25
 10
0.0
 20
0.0
 30
0.0
 70
   128
 71
   124
 72
   122
 73
   120
  0
VERTEX
  8
fence25
 10
0.0
 20
0.0
 30
0.0
 70
   128
 71
   112
 72
   118
 73
   116
  0
VERTEX
  8
fence25
 10
0.0
 20
0.0
 30
0.0
 70
   128
 71
   126
 72
   118
 73
   112
  0
VERTEX
  8
fence25
 10
0.0
 20
0.0
 30
0.0
 70
   128
 71
   112
 72
   110
 73
   108
  0
VERTEX
  8
fence25
 10
0.0
 20
0.0
 30
0.0
 70
   128
 71
   106
 72
   104
 73
   126
  0
VERTEX
  8
fence25
 10
0.0
 20
0.0
 30
0.0
 70
   128
 71
   177
 72
   189
 73
   190
  0
VERTEX
  8
fence25
 10
0.0
 20
0.0
 30
0.0
 70
   128
 71
   153
 72
   177
 73
   178
  0
VERTEX
  8
fence25
 10
0.0
 20
0.0
 30
0.0
 70
   128
 71
   179
 72
   157
 73
   155
  0
VERTEX
  8
fence25
 10
0.0
 20
0.0
 30
0.0
 70
   128
 71
   179
 72
   191
 73
   192
  0
VERTEX
  8
fence25
 10
0.0
 20
0.0
 30
0.0
 70
   128
 71
   190
 72
   156
 73
   158
  0
VERTEX
  8
fence25
 10
0.0
 20
0.0
 30
0.0
 70
   128
 71
   181
 72
   161
 73
   159
  0
VERTEX
  8
fence25
 10
0.0
 20
0.0
 30
0.0
 70
   128
 71
   181
 72
   193
 73
   194
  0
VERTEX
  8
fence25
 10
0.0
 20
0.0
 30
0.0
 70
   128
 71
   157
 72
   179
 73
   180
  0
VERTEX
  8
fence25
 10
0.0
 20
0.0
 30
0.0
 70
   128
 71
   183
 72
   165
 73
   163
  0
VERTEX
  8
fence25
 10
0.0
 20
0.0
 30
0.0
 70
   128
 71
   183
 72
   195
 73
   196
  0
VERTEX
  8
fence25
 10
0.0
 20
0.0
 30
0.0
 70
   128
 71
   180
 72
   192
 73
   193
  0
VERTEX
  8
fence25
 10
0.0
 20
0.0
 30
0.0
 70
   128
 71
   185
 72
   169
 73
   167
  0
VERTEX
  8
fence25
 10
0.0
 20
0.0
 30
0.0
 70
   128
 71
   185
 72
   197
 73
   198
  0
VERTEX
  8
fence25
 10
0.0
 20
0.0
 30
0.0
 70
   128
 71
   161
 72
   181
 73
   182
  0
VERTEX
  8
fence25
 10
0.0
 20
0.0
 30
0.0
 70
   128
 71
   187
 72
   173
 73
   171
  0
VERTEX
  8
fence25
 10
0.0
 20
0.0
 30
0.0
 70
   128
 71
   187
 72
   199
 73
   200
  0
VERTEX
  8
fence25
 10
0.0
 20
0.0
 30
0.0
 70
   128
 71
   182
 72
   194
 73
   195
  0
VERTEX
  8
fence25
 10
0.0
 20
0.0
 30
0.0
 70
   128
 71
   177
 72
   153
 73
   175
  0
VERTEX
  8
fence25
 10
0.0
 20
0.0
 30
0.0
 70
   128
 71
   191
 72
   179
 73
   178
  0
VERTEX
  8
fence25
 10
0.0
 20
0.0
 30
0.0
 70
   128
 71
   165
 72
   183
 73
   184
  0
VERTEX
  8
fence25
 10
0.0
 20
0.0
 30
0.0
 70
   128
 71
   192
 72
   160
 73
   162
  0
VERTEX
  8
fence25
 10
0.0
 20
0.0
 30
0.0
 70
   128
 71
   194
 72
   164
 73
   166
  0
VERTEX
  8
fence25
 10
0.0
 20
0.0
 30
0.0
 70
   128
 71
   184
 72
   196
 73
   197
  0
VERTEX
  8
fence25
 10
0.0
 20
0.0
 30
0.0
 70
   128
 71
   196
 72
   168
 73
   170
  0
VERTEX
  8
fence25
 10
0.0
 20
0.0
 30
0.0
 70
   128
 71
   198
 72
   172
 73
   174
  0
VERTEX
  8
fence25
 10
0.0
 20
0.0
 30
0.0
 70
   128
 71
   169
 72
   185
 73
   186
  0
VERTEX
  8
fence25
 10
0.0
 20
0.0
 30
0.0
 70
   128
 71
   200
 72
   176
 73
   154
  0
VERTEX
  8
fence25
 10
0.0
 20
0.0
 30
0.0
 70
   128
 71
   189
 72
   154
 73
   156
  0
VERTEX
  8
fence25
 10
0.0
 20
0.0
 30
0.0
 70
   128
 71
   186
 72
   198
 73
   199
  0
VERTEX
  8
fence25
 10
0.0
 20
0.0
 30
0.0
 70
   128
 71
   191
 72
   158
 73
   160
  0
VERTEX
  8
fence25
 10
0.0
 20
0.0
 30
0.0
 70
   128
 71
   193
 72
   162
 73
   164
  0
VERTEX
  8
fence25
 10
0.0
 20
0.0
 30
0.0
 70
   128
 71
   173
 72
   187
 73
   188
  0
VERTEX
  8
fence25
 10
0.0
 20
0.0
 30
0.0
 70
   128
 71
   195
 72
   166
 73
   168
  0
VERTEX
  8
fence25
 10
0.0
 20
0.0
 30
0.0
 70
   128
 71
   197
 72
   170
 73
   172
  0
VERTEX
  8
fence25
 10
0.0
 20
0.0
 30
0.0
 70
   128
 71
   188
 72
   200
 73
   189
  0
VERTEX
  8
fence25
 10
0.0
 20
0.0
 30
0.0
 70
   128
 71
   199
 72
   174
 73
   176
  0
VERTEX
  8
fence25
 10
0.0
 20
0.0
 30
0.0
 70
   128
 71
   157
 72
   175
 73
   153
  0
VERTEX
  8
fence25
 10
0.0
 20
0.0
 30
0.0
 70
   128
 71
   169
 72
   175
 73
   157
  0
VERTEX
  8
fence25
 10
0.0
 20
0.0
 30
0.0
 70
   128
 71
   175
 72
   169
 73
   171
  0
VERTEX
  8
fence25
 10
0.0
 20
0.0
 30
0.0
 70
   128
 71
   159
 72
   161
 73
   163
  0
VERTEX
  8
fence25
 10
0.0
 20
0.0
 30
0.0
 70
   128
 71
   159
 72
   163
 73
   165
  0
VERTEX
  8
fence25
 10
0.0
 20
0.0
 30
0.0
 70
   128
 71
   165
 72
   167
 73
   169
  0
VERTEX
  8
fence25
 10
0.0
 20
0.0
 30
0.0
 70
   128
 71
   174
 72
   170
 73
   168
  0
VERTEX
  8
fence25
 10
0.0
 20
0.0
 30
0.0
 70
   128
 71
   174
 72
   172
 73
   170
  0
VERTEX
  8
fence25
 10
0.0
 20
0.0
 30
0.0
 70
   128
 71
   162
 72
   168
 73
   166
  0
VERTEX
  8
fence25
 10
0.0
 20
0.0
 30
0.0
 70
   128
 71
   176
 72
   168
 73
   162
  0
VERTEX
  8
fence25
 10
0.0
 20
0.0
 30
0.0
 70
   128
 71
   162
 72
   160
 73
   158
  0
VERTEX
  8
fence25
 10
0.0
 20
0.0
 30
0.0
 70
   128
 71
   156
 72
   154
 73
   176
  0
VERTEX
  8
fence25
 10
0.0
 20
0.0
 30
0.0
 70
   128
 71
   227
 72
   239
 73
   240
  0
VERTEX
  8
fence25
 10
0.0
 20
0.0
 30
0.0
 70
   128
 71
   203
 72
   227
 73
   228
  0
VERTEX
  8
fence25
 10
0.0
 20
0.0
 30
0.0
 70
   128
 71
   229
 72
   207
 73
   205
  0
VERTEX
  8
fence25
 10
0.0
 20
0.0
 30
0.0
 70
   128
 71
   229
 72
   241
 73
   242
  0
VERTEX
  8
fence25
 10
0.0
 20
0.0
 30
0.0
 70
   128
 71
   240
 72
   206
 73
   208
  0
VERTEX
  8
fence25
 10
0.0
 20
0.0
 30
0.0
 70
   128
 71
   231
 72
   211
 73
   209
  0
VERTEX
  8
fence25
 10
0.0
 20
0.0
 30
0.0
 70
   128
 71
   231
 72
   243
 73
   244
  0
VERTEX
  8
fence25
 10
0.0
 20
0.0
 30
0.0
 70
   128
 71
   207
 72
   229
 73
   230
  0
VERTEX
  8
fence25
 10
0.0
 20
0.0
 30
0.0
 70
   128
 71
   233
 72
   215
 73
   213
  0
VERTEX
  8
fence25
 10
0.0
 20
0.0
 30
0.0
 70
   128
 71
   233
 72
   245
 73
   246
  0
VERTEX
  8
fence25
 10
0.0
 20
0.0
 30
0.0
 70
   128
 71
   230
 72
   242
 73
   243
  0
VERTEX
  8
fence25
 10
0.0
 20
0.0
 30
0.0
 70
   128
 71
   235
 72
   219
 73
   217
  0
VERTEX
  8
fence25
 10
0.0
 20
0.0
 30
0.0
 70
   128
 71
   235
 72
   247
 73
   248
  0
VERTEX
  8
fence25
 10
0.0
 20
0.0
 30
0.0
 70
   128
 71
   211
 72
   231
 73
   232
  0
VERTEX
  8
fence25
 10
0.0
 20
0.0
 30
0.0
 70
   128
 71
   237
 72
   223
 73
   221
  0
VERTEX
  8
fence25
 10
0.0
 20
0.0
 30
0.0
 70
   128
 71
   237
 72
   249
 73
   250
  0
VERTEX
  8
fence25
 10
0.0
 20
0.0
 30
0.0
 70
   128
 71
   232
 72
   244
 73
   245
  0
VERTEX
  8
fence25
 10
0.0
 20
0.0
 30
0.0
 70
   128
 71
   227
 72
   203
 73
   225
  0
VERTEX
  8
fence25
 10
0.0
 20
0.0
 30
0.0
 70
   128
 71
   241
 72
   229
 73
   228
  0
VERTEX
  8
fence25
 10
0.0
 20
0.0
 30
0.0
 70
   128
 71
   215
 72
   233
 73
   234
  0
VERTEX
  8
fence25
 10
0.0
 20
0.0
 30
0.0
 70
   128
 71
   242
 72
   210
 73
   212
  0
VERTEX
  8
fence25
 10
0.0
 20
0.0
 30
0.0
 70
   128
 71
   244
 72
   214
 73
   216
  0
VERTEX
  8
fence25
 10
0.0
 20
0.0
 30
0.0
 70
   128
 71
   234
 72
   246
 73
   247
  0
VERTEX
  8
fence25
 10
0.0
 20
0.0
 30
0.0
 70
   128
 71
   246
 72
   218
 73
   220
  0
VERTEX
  8
fence25
 10
0.0
 20
0.0
 30
0.0
 70
   128
 71
   248
 72
   222
 73
   224
  0
VERTEX
  8
fence25
 10
0.0
 20
0.0
 30
0.0
 70
   128
 71
   219
 72
   235
 73
   236
  0
VERTEX
  8
fence25
 10
0.0
 20
0.0
 30
0.0
 70
   128
 71
   250
 72
   226
 73
   204
  0
VERTEX
  8
fence25
 10
0.0
 20
0.0
 30
0.0
 70
   128
 71
   239
 72
   204
 73
   206
  0
VERTEX
  8
fence25
 10
0.0
 20
0.0
 30
0.0
 70
   128
 71
   236
 72
   248
 73
   249
  0
VERTEX
  8
fence25
 10
0.0
 20
0.0
 30
0.0
 70
   128
 71
   241
 72
   208
 73
   210
  0
VERTEX
  8
fence25
 10
0.0
 20
0.0
 30
0.0
 70
   128
 71
   243
 72
   212
 73
   214
  0
VERTEX
  8
fence25
 10
0.0
 20
0.0
 30
0.0
 70
   128
 71
   223
 72
   237
 73
   238
  0
VERTEX
  8
fence25
 10
0.0
 20
0.0
 30
0.0
 70
   128
 71
   245
 72
   216
 73
   218
  0
VERTEX
  8
fence25
 10
0.0
 20
0.0
 30
0.0
 70
   128
 71
   247
 72
   220
 73
   222
  0
VERTEX
  8
fence25
 10
0.0
 20
0.0
 30
0.0
 70
   128
 71
   238
 72
   250
 73
   239
  0
VERTEX
  8
fence25
 10
0.0
 20
0.0
 30
0.0
 70
   128
 71
   249
 72
   224
 73
   226
  0
VERTEX
  8
fence25
 10
0.0
 20
0.0
 30
0.0
 70
   128
 71
   207
 72
   225
 73
   203
  0
VERTEX
  8
fence25
 10
0.0
 20
0.0
 30
0.0
 70
   128
 71
   219
 72
   225
 73
   207
  0
VERTEX
  8
fence25
 10
0.0
 20
0.0
 30
0.0
 70
   128
 71
   225
 72
   219
 73
   221
  0
VERTEX
  8
fence25
 10
0.0
 20
0.0
 30
0.0
 70
   128
 71
   209
 72
   211
 73
   213
  0
VERTEX
  8
fence25
 10
0.0
 20
0.0
 30
0.0
 70
   128
 71
   209
 72
   213
 73
   215
  0
VERTEX
  8
fence25
 10
0.0
 20
0.0
 30
0.0
 70
   128
 71
   215
 72
   217
 73
   219
  0
VERTEX
  8
fence25
 10
0.0
 20
0.0
 30
0.0
 70
   128
 71
   224
 72
   220
 73
   218
  0
VERTEX
  8
fence25
 10
0.0
 20
0.0
 30
0.0
 70
   128
 71
   224
 72
   222
 73
   220
  0
VERTEX
  8
fence25
 10
0.0
 20
0.0
 30
0.0
 70
   128
 71
   212
 72
   218
 73
   216
  0
VERTEX
  8
fence25
 10
0.0
 20
0.0
 30
0.0
 70
   128
 71
   226
 72
   218
 73
   212
  0
VERTEX
  8
fence25
 10
0.0
 20
0.0
 30
0.0
 70
   128
 71
   212
 72
   210
 73
   208
  0
VERTEX
  8
fence25
 10
0.0
 20
0.0
 30
0.0
 70
   128
 71
   206
 72
   204
 73
   226
  0
VERTEX
  8
fence25
 10
0.0
 20
0.0
 30
0.0
 70
   128
 71
   277
 72
   289
 73
   290
  0
VERTEX
  8
fence25
 10
0.0
 20
0.0
 30
0.0
 70
   128
 71
   253
 72
   277
 73
   278
  0
VERTEX
  8
fence25
 10
0.0
 20
0.0
 30
0.0
 70
   128
 71
   279
 72
   257
 73
   255
  0
VERTEX
  8
fence25
 10
0.0
 20
0.0
 30
0.0
 70
   128
 71
   279
 72
   291
 73
   292
  0
VERTEX
  8
fence25
 10
0.0
 20
0.0
 30
0.0
 70
   128
 71
   290
 72
   256
 73
   258
  0
VERTEX
  8
fence25
 10
0.0
 20
0.0
 30
0.0
 70
   128
 71
   281
 72
   261
 73
   259
  0
VERTEX
  8
fence25
 10
0.0
 20
0.0
 30
0.0
 70
   128
 71
   281
 72
   293
 73
   294
  0
VERTEX
  8
fence25
 10
0.0
 20
0.0
 30
0.0
 70
   128
 71
   257
 72
   279
 73
   280
  0
VERTEX
  8
fence25
 10
0.0
 20
0.0
 30
0.0
 70
   128
 71
   283
 72
   265
 73
   263
  0
VERTEX
  8
fence25
 10
0.0
 20
0.0
 30
0.0
 70
   128
 71
   283
 72
   295
 73
   296
  0
VERTEX
  8
fence25
 10
0.0
 20
0.0
 30
0.0
 70
   128
 71
   280
 72
   292
 73
   293
  0
VERTEX
  8
fence25
 10
0.0
 20
0.0
 30
0.0
 70
   128
 71
   285
 72
   269
 73
   267
  0
VERTEX
  8
fence25
 10
0.0
 20
0.0
 30
0.0
 70
   128
 71
   285
 72
   297
 73
   298
  0
VERTEX
  8
fence25
 10
0.0
 20
0.0
 30
0.0
 70
   128
 71
   261
 72
   281
 73
   282
  0
VERTEX
  8
fence25
 10
0.0
 20
0.0
 30
0.0
 70
   128
 71
   287
 72
   273
 73
   271
  0
VERTEX
  8
fence25
 10
0.0
 20
0.0
 30
0.0
 70
   128
 71
   287
 72
   299
 73
   300
  0
VERTEX
  8
fence25
 10
0.0
 20
0.0
 30
0.0
 70
   128
 71
   282
 72
   294
 73
   295
  0
VERTEX
  8
fence25
 10
0.0
 20
0.0
 30
0.0
 70
   128
 71
   277
 72
   253
 73
   275
  0
VERTEX
  8
fence25
 10
0.0
 20
0.0
 30
0.0
 70
   128
 71
   291
 72
   279
 73
   278
  0
VERTEX
  8
fence25
 10
0.0
 20
0.0
 30
0.0
 70
   128
 71
   265
 72
   283
 73
   284
  0
VERTEX
  8
fence25
 10
0.0
 20
0.0
 30
0.0
 70
   128
 71
   292
 72
   260
 73
   262
  0
VERTEX
  8
fence25
 10
0.0
 20
0.0
 30
0.0
 70
   128
 71
   294
 72
   264
 73
   266
  0
VERTEX
  8
fence25
 10
0.0
 20
0.0
 30
0.0
 70
   128
 71
   284
 72
   296
 73
   297
  0
VERTEX
  8
fence25
 10
0.0
 20
0.0
 30
0.0
 70
   128
 71
   296
 72
   268
 73
   270
  0
VERTEX
  8
fence25
 10
0.0
 20
0.0
 30
0.0
 70
   128
 71
   298
 72
   272
 73
   274
  0
VERTEX
  8
fence25
 10
0.0
 20
0.0
 30
0.0
 70
   128
 71
   269
 72
   285
 73
   286
  0
VERTEX
  8
fence25
 10
0.0
 20
0.0
 30
0.0
 70
   128
 71
   300
 72
   276
 73
   254
  0
VERTEX
  8
fence25
 10
0.0
 20
0.0
 30
0.0
 70
   128
 71
   289
 72
   254
 73
   256
  0
VERTEX
  8
fence25
 10
0.0
 20
0.0
 30
0.0
 70
   128
 71
   286
 72
   298
 73
   299
  0
VERTEX
  8
fence25
 10
0.0
 20
0.0
 30
0.0
 70
   128
 71
   291
 72
   258
 73
   260
  0
VERTEX
  8
fence25
 10
0.0
 20
0.0
 30
0.0
 70
   128
 71
   293
 72
   262
 73
   264
  0
VERTEX
  8
fence25
 10
0.0
 20
0.0
 30
0.0
 70
   128
 71
   273
 72
   287
 73
   288
  0
VERTEX
  8
fence25
 10
0.0
 20
0.0
 30
0.0
 70
   128
 71
   295
 72
   266
 73
   268
  0
VERTEX
  8
fence25
 10
0.0
 20
0.0
 30
0.0
 70
   128
 71
   297
 72
   270
 73
   272
  0
VERTEX
  8
fence25
 10
0.0
 20
0.0
 30
0.0
 70
   128
 71
   288
 72
   300
 73
   289
  0
VERTEX
  8
fence25
 10
0.0
 20
0.0
 30
0.0
 70
   128
 71
   299
 72
   274
 73
   276
  0
VERTEX
  8
fence25
 10
0.0
 20
0.0
 30
0.0
 70
   128
 71
   257
 72
   275
 73
   253
  0
VERTEX
  8
fence25
 10
0.0
 20
0.0
 30
0.0
 70
   128
 71
   269
 72
   275
 73
   257
  0
VERTEX
  8
fence25
 10
0.0
 20
0.0
 30
0.0
 70
   128
 71
   275
 72
   269
 73
   271
  0
VERTEX
  8
fence25
 10
0.0
 20
0.0
 30
0.0
 70
   128
 71
   259
 72
   261
 73
   263
  0
VERTEX
  8
fence25
 10
0.0
 20
0.0
 30
0.0
 70
   128
 71
   259
 72
   263
 73
   265
  0
VERTEX
  8
fence25
 10
0.0
 20
0.0
 30
0.0
 70
   128
 71
   265
 72
   267
 73
   269
  0
VERTEX
  8
fence25
 10
0.0
 20
0.0
 30
0.0
 70
   128
 71
   274
 72
   270
 73
   268
  0
VERTEX
  8
fence25
 10
0.0
 20
0.0
 30
0.0
 70
   128
 71
   274
 72
   272
 73
   270
  0
VERTEX
  8
fence25
 10
0.0
 20
0.0
 30
0.0
 70
   128
 71
   262
 72
   268
 73
   266
  0
VERTEX
  8
fence25
 10
0.0
 20
0.0
 30
0.0
 70
   128
 71
   276
 72
   268
 73
   262
  0
VERTEX
  8
fence25
 10
0.0
 20
0.0
 30
0.0
 70
   128
 71
   262
 72
   260
 73
   258
  0
VERTEX
  8
fence25
 10
0.0
 20
0.0
 30
0.0
 70
   128
 71
   256
 72
   254
 73
   276
  0
VERTEX
  8
fence25
 10
0.0
 20
0.0
 30
0.0
 70
   128
 71
   327
 72
   339
 73
   340
  0
VERTEX
  8
fence25
 10
0.0
 20
0.0
 30
0.0
 70
   128
 71
   303
 72
   327
 73
   328
  0
VERTEX
  8
fence25
 10
0.0
 20
0.0
 30
0.0
 70
   128
 71
   329
 72
   307
 73
   305
  0
VERTEX
  8
fence25
 10
0.0
 20
0.0
 30
0.0
 70
   128
 71
   329
 72
   341
 73
   342
  0
VERTEX
  8
fence25
 10
0.0
 20
0.0
 30
0.0
 70
   128
 71
   340
 72
   306
 73
   308
  0
VERTEX
  8
fence25
 10
0.0
 20
0.0
 30
0.0
 70
   128
 71
   331
 72
   311
 73
   309
  0
VERTEX
  8
fence25
 10
0.0
 20
0.0
 30
0.0
 70
   128
 71
   331
 72
   343
 73
   344
  0
VERTEX
  8
fence25
 10
0.0
 20
0.0
 30
0.0
 70
   128
 71
   307
 72
   329
 73
   330
  0
VERTEX
  8
fence25
 10
0.0
 20
0.0
 30
0.0
 70
   128
 71
   333
 72
   315
 73
   313
  0
VERTEX
  8
fence25
 10
0.0
 20
0.0
 30
0.0
 70
   128
 71
   333
 72
   345
 73
   346
  0
VERTEX
  8
fence25
 10
0.0
 20
0.0
 30
0.0
 70
   128
 71
   330
 72
   342
 73
   343
  0
VERTEX
  8
fence25
 10
0.0
 20
0.0
 30
0.0
 70
   128
 71
   335
 72
   319
 73
   317
  0
VERTEX
  8
fence25
 10
0.0
 20
0.0
 30
0.0
 70
   128
 71
   335
 72
   347
 73
   348
  0
VERTEX
  8
fence25
 10
0.0
 20
0.0
 30
0.0
 70
   128
 71
   311
 72
   331
 73
   332
  0
VERTEX
  8
fence25
 10
0.0
 20
0.0
 30
0.0
 70
   128
 71
   337
 72
   323
 73
   321
  0
VERTEX
  8
fence25
 10
0.0
 20
0.0
 30
0.0
 70
   128
 71
   337
 72
   349
 73
   350
  0
VERTEX
  8
fence25
 10
0.0
 20
0.0
 30
0.0
 70
   128
 71
   332
 72
   344
 73
   345
  0
VERTEX
  8
fence25
 10
0.0
 20
0.0
 30
0.0
 70
   128
 71
   327
 72
   303
 73
   325
  0
VERTEX
  8
fence25
 10
0.0
 20
0.0
 30
0.0
 70
   128
 71
   341
 72
   329
 73
   328
  0
VERTEX
  8
fence25
 10
0.0
 20
0.0
 30
0.0
 70
   128
 71
   315
 72
   333
 73
   334
  0
VERTEX
  8
fence25
 10
0.0
 20
0.0
 30
0.0
 70
   128
 71
   342
 72
   310
 73
   312
  0
VERTEX
  8
fence25
 10
0.0
 20
0.0
 30
0.0
 70
   128
 71
   344
 72
   314
 73
   316
  0
VERTEX
  8
fence25
 10
0.0
 20
0.0
 30
0.0
 70
   128
 71
   334
 72
   346
 73
   347
  0
VERTEX
  8
fence25
 10
0.0
 20
0.0
 30
0.0
 70
   128
 71
   346
 72
   318
 73
   320
  0
VERTEX
  8
fence25
 10
0.0
 20
0.0
 30
0.0
 70
   128
 71
   348
 72
   322
 73
   324
  0
VERTEX
  8
fence25
 10
0.0
 20
0.0
 30
0.0
 70
   128
 71
   319
 72
   335
 73
   336
  0
VERTEX
  8
fence25
 10
0.0
 20
0.0
 30
0.0
 70
   128
 71
   350
 72
   326
 73
   304
  0
VERTEX
  8
fence25
 10
0.0
 20
0.0
 30
0.0
 70
   128
 71
   339
 72
   304
 73
   306
  0
VERTEX
  8
fence25
 10
0.0
 20
0.0
 30
0.0
 70
   128
 71
   336
 72
   348
 73
   349
  0
VERTEX
  8
fence25
 10
0.0
 20
0.0
 30
0.0
 70
   128
 71
   341
 72
   308
 73
   310
  0
VERTEX
  8
fence25
 10
0.0
 20
0.0
 30
0.0
 70
   128
 71
   343
 72
   312
 73
   314
  0
VERTEX
  8
fence25
 10
0.0
 20
0.0
 30
0.0
 70
   128
 71
   323
 72
   337
 73
   338
  0
VERTEX
  8
fence25
 10
0.0
 20
0.0
 30
0.0
 70
   128
 71
   345
 72
   316
 73
   318
  0
VERTEX
  8
fence25
 10
0.0
 20
0.0
 30
0.0
 70
   128
 71
   347
 72
   320
 73
   322
  0
VERTEX
  8
fence25
 10
0.0
 20
0.0
 30
0.0
 70
   128
 71
   338
 72
   350
 73
   339
  0
VERTEX
  8
fence25
 10
0.0
 20
0.0
 30
0.0
 70
   128
 71
   349
 72
   324
 73
   326
  0
VERTEX
  8
fence25
 10
0.0
 20
0.0
 30
0.0
 70
   128
 71
   307
 72
   325
 73
   303
  0
VERTEX
  8
fence25
 10
0.0
 20
0.0
 30
0.0
 70
   128
 71
   319
 72
   325
 73
   307
  0
VERTEX
  8
fence25
 10
0.0
 20
0.0
 30
0.0
 70
   128
 71
   325
 72
   319
 73
   321
  0
VERTEX
  8
fence25
 10
0.0
 20
0.0
 30
0.0
 70
   128
 71
   309
 72
   311
 73
   313
  0
VERTEX
  8
fence25
 10
0.0
 20
0.0
 30
0.0
 70
   128
 71
   309
 72
   313
 73
   315
  0
VERTEX
  8
fence25
 10
0.0
 20
0.0
 30
0.0
 70
   128
 71
   315
 72
   317
 73
   319
  0
VERTEX
  8
fence25
 10
0.0
 20
0.0
 30
0.0
 70
   128
 71
   324
 72
   320
 73
   318
  0
VERTEX
  8
fence25
 10
0.0
 20
0.0
 30
0.0
 70
   128
 71
   324
 72
   322
 73
   320
  0
VERTEX
  8
fence25
 10
0.0
 20
0.0
 30
0.0
 70
   128
 71
   312
 72
   318
 73
   316
  0
VERTEX
  8
fence25
 10
0.0
 20
0.0
 30
0.0
 70
   128
 71
   326
 72
   318
 73
   312
  0
VERTEX
  8
fence25
 10
0.0
 20
0.0
 30
0.0
 70
   128
 71
   312
 72
   310
 73
   308
  0
VERTEX
  8
fence25
 10
0.0
 20
0.0
 30
0.0
 70
   128
 71
   306
 72
   304
 73
   326
  0
VERTEX
  8
fence25
 10
0.0
 20
0.0
 30
0.0
 70
   128
 71
   27
 72
   40
 73
   28
  0
VERTEX
  8
fence25
 10
0.0
 20
0.0
 30
0.0
 70
   128
 71
   3
 72
   28
 73
   5
  0
VERTEX
  8
fence25
 10
0.0
 20
0.0
 30
0.0
 70
   128
 71
   29
 72
   5
 73
   28
  0
VERTEX
  8
fence25
 10
0.0
 20
0.0
 30
0.0
 70
   128
 71
   29
 72
   42
 73
   30
  0
VERTEX
  8
fence25
 10
0.0
 20
0.0
 30
0.0
 70
   128
 71
   40
 72
   8
 73
   41
  0
VERTEX
  8
fence25
 10
0.0
 20
0.0
 30
0.0
 70
   128
 71
   31
 72
   9
 73
   30
  0
VERTEX
  8
fence25
 10
0.0
 20
0.0
 30
0.0
 70
   128
 71
   31
 72
   44
 73
   32
  0
VERTEX
  8
fence25
 10
0.0
 20
0.0
 30
0.0
 70
   128
 71
   7
 72
   30
 73
   9
  0
VERTEX
  8
fence25
 10
0.0
 20
0.0
 30
0.0
 70
   128
 71
   33
 72
   13
 73
   32
  0
VERTEX
  8
fence25
 10
0.0
 20
0.0
 30
0.0
 70
   128
 71
   33
 72
   46
 73
   34
  0
VERTEX
  8
fence25
 10
0.0
 20
0.0
 30
0.0
 70
   128
 71
   30
 72
   43
 73
   31
  0
VERTEX
  8
fence25
 10
0.0
 20
0.0
 30
0.0
 70
   128
 71
   35
 72
   17
 73
   34
  0
VERTEX
  8
fence25
 10
0.0
 20
0.0
 30
0.0
 70
   128
 71
   35
 72
   48
 73
   36
  0
VERTEX
  8
fence25
 10
0.0
 20
0.0
 30
0.0
 70
   128
 71
   11
 72
   32
 73
   13
  0
VERTEX
  8
fence25
 10
0.0
 20
0.0
 30
0.0
 70
   128
 71
   37
 72
   21
 73
   36
  0
VERTEX
  8
fence25
 10
0.0
 20
0.0
 30
0.0
 70
   128
 71
   37
 72
   50
 73
   38
  0
VERTEX
  8
fence25
 10
0.0
 20
0.0
 30
0.0
 70
   128
 71
   32
 72
   45
 73
   33
  0
VERTEX
  8
fence25
 10
0.0
 20
0.0
 30
0.0
 70
   128
 71
   27
 72
   25
 73
   38
  0
VERTEX
  8
fence25
 10
0.0
 20
0.0
 30
0.0
 70
   128
 71
   41
 72
   28
 73
   40
  0
VERTEX
  8
fence25
 10
0.0
 20
0.0
 30
0.0
 70
   128
 71
   15
 72
   34
 73
   17
  0
VERTEX
  8
fence25
 10
0.0
 20
0.0
 30
0.0
 70
   128
 71
   42
 72
   12
 73
   43
  0
VERTEX
  8
fence25
 10
0.0
 20
0.0
 30
0.0
 70
   128
 71
   44
 72
   16
 73
   45
  0
VERTEX
  8
fence25
 10
0.0
 20
0.0
 30
0.0
 70
   128
 71
   34
 72
   47
 73
   35
  0
VERTEX
  8
fence25
 10
0.0
 20
0.0
 30
0.0
 70
   128
 71
   46
 72
   20
 73
   47
  0
VERTEX
  8
fence25
 10
0.0
 20
0.0
 30
0.0
 70
   128
 71
   48
 72
   24
 73
   49
  0
VERTEX
  8
fence25
 10
0.0
 20
0.0
 30
0.0
 70
   128
 71
   19
 72
   36
 73
   21
  0
VERTEX
  8
fence25
 10
0.0
 20
0.0
 30
0.0
 70
   128
 71
   50
 72
   4
 73
   39
  0
VERTEX
  8
fence25
 10
0.0
 20
0.0
 30
0.0
 70
   128
 71
   39
 72
   6
 73
   40
  0
VERTEX
  8
fence25
 10
0.0
 20
0.0
 30
0.0
 70
   128
 71
   36
 72
   49
 73
   37
  0
VERTEX
  8
fence25
 10
0.0
 20
0.0
 30
0.0
 70
   128
 71
   41
 72
   10
 73
   42
  0
VERTEX
  8
fence25
 10
0.0
 20
0.0
 30
0.0
 70
   128
 71
   43
 72
   14
 73
   44
  0
VERTEX
  8
fence25
 10
0.0
 20
0.0
 30
0.0
 70
   128
 71
   23
 72
   38
 73
   25
  0
VERTEX
  8
fence25
 10
0.0
 20
0.0
 30
0.0
 70
   128
 71
   45
 72
   18
 73
   46
  0
VERTEX
  8
fence25
 10
0.0
 20
0.0
 30
0.0
 70
   128
 71
   47
 72
   22
 73
   48
  0
VERTEX
  8
fence25
 10
0.0
 20
0.0
 30
0.0
 70
   128
 71
   38
 72
   39
 73
   27
  0
VERTEX
  8
fence25
 10
0.0
 20
0.0
 30
0.0
 70
   128
 71
   49
 72
   26
 73
   50
  0
VERTEX
  8
fence25
 10
0.0
 20
0.0
 30
0.0
 70
   128
 71
   7
 72
   3
 73
   5
  0
VERTEX
  8
fence25
 10
0.0
 20
0.0
 30
0.0
 70
   128
 71
   19
 72
   7
 73
   9
  0
VERTEX
  8
fence25
 10
0.0
 20
0.0
 30
0.0
 70
   128
 71
   25
 72
   21
 73
   23
  0
VERTEX
  8
fence25
 10
0.0
 20
0.0
 30
0.0
 70
   128
 71
   9
 72
   15
 73
   19
  0
VERTEX
  8
fence25
 10
0.0
 20
0.0
 30
0.0
 70
   128
 71
   24
 72
   18
 73
   26
  0
VERTEX
  8
fence25
 10
0.0
 20
0.0
 30
0.0
 70
   128
 71
   12
 72
   16
 73
   14
  0
VERTEX
  8
fence25
 10
0.0
 20
0.0
 30
0.0
 70
   128
 71
   26
 72
   12
 73
   6
  0
VERTEX
  8
fence25
 10
0.0
 20
0.0
 30
0.0
 70
   128
 71
   12
 72
   8
 73
   6
  0
VERTEX
  8
fence25
 10
0.0
 20
0.0
 30
0.0
 70
   128
 71
   77
 72
   90
 73
   78
  0
VERTEX
  8
fence25
 10
0.0
 20
0.0
 30
0.0
 70
   128
 71
   53
 72
   78
 73
   55
  0
VERTEX
  8
fence25
 10
0.0
 20
0.0
 30
0.0
 70
   128
 71
   79
 72
   55
 73
   78
  0
VERTEX
  8
fence25
 10
0.0
 20
0.0
 30
0.0
 70
   128
 71
   79
 72
   92
 73
   80
  0
VERTEX
  8
fence25
 10
0.0
 20
0.0
 30
0.0
 70
   128
 71
   90
 72
   58
 73
   91
  0
VERTEX
  8
fence25
 10
0.0
 20
0.0
 30
0.0
 70
   128
 71
   81
 72
   59
 73
   80
  0
VERTEX
  8
fence25
 10
0.0
 20
0.0
 30
0.0
 70
   128
 71
   81
 72
   94
 73
   82
  0
VERTEX
  8
fence25
 10
0.0
 20
0.0
 30
0.0
 70
   128
 71
   57
 72
   80
 73
   59
  0
VERTEX
  8
fence25
 10
0.0
 20
0.0
 30
0.0
 70
   128
 71
   83
 72
   63
 73
   82
  0
VERTEX
  8
fence25
 10
0.0
 20
0.0
 30
0.0
 70
   128
 71
   83
 72
   96
 73
   84
  0
VERTEX
  8
fence25
 10
0.0
 20
0.0
 30
0.0
 70
   128
 71
   80
 72
   93
 73
   81
  0
VERTEX
  8
fence25
 10
0.0
 20
0.0
 30
0.0
 70
   128
 71
   85
 72
   67
 73
   84
  0
VERTEX
  8
fence25
 10
0.0
 20
0.0
 30
0.0
 70
   128
 71
   85
 72
   98
 73
   86
  0
VERTEX
  8
fence25
 10
0.0
 20
0.0
 30
0.0
 70
   128
 71
   61
 72
   82
 73
   63
  0
VERTEX
  8
fence25
 10
0.0
 20
0.0
 30
0.0
 70
   128
 71
   87
 72
   71
 73
   86
  0
VERTEX
  8
fence25
 10
0.0
 20
0.0
 30
0.0
 70
   128
 71
   87
 72
   100
 73
   88
  0
VERTEX
  8
fence25
 10
0.0
 20
0.0
 30
0.0
 70
   128
 71
   82
 72
   95
 73
   83
  0
VERTEX
  8
fence25
 10
0.0
 20
0.0
 30
0.0
 70
   128
 71
   77
 72
   75
 73
   88
  0
VERTEX
  8
fence25
 10
0.0
 20
0.0
 30
0.0
 70
   128
 71
   91
 72
   78
 73
   90
  0
VERTEX
  8
fence25
 10
0.0
 20
0.0
 30
0.0
 70
   128
 71
   65
 72
   84
 73
   67
  0
VERTEX
  8
fence25
 10
0.0
 20
0.0
 30
0.0
 70
   128
 71
   92
 72
   62
 73
   93
  0
VERTEX
  8
fence25
 10
0.0
 20
0.0
 30
0.0
 70
   128
 71
   94
 72
   66
 73
   95
  0
VERTEX
  8
fence25
 10
0.0
 20
0.0
 30
0.0
 70
   128
 71
   84
 72
   97
 73
   85
  0
VERTEX
  8
fence25
 10
0.0
 20
0.0
 30
0.0
 70
   128
 71
   96
 72
   70
 73
   97
  0
VERTEX
  8
fence25
 10
0.0
 20
0.0
 30
0.0
 70
   128
 71
   98
 72
   74
 73
   99
  0
VERTEX
  8
fence25
 10
0.0
 20
0.0
 30
0.0
 70
   128
 71
   69
 72
   86
 73
   71
  0
VERTEX
  8
fence25
 10
0.0
 20
0.0
 30
0.0
 70
   128
 71
   100
 72
   54
 73
   89
  0
VERTEX
  8
fence25
 10
0.0
 20
0.0
 30
0.0
 70
   128
 71
   89
 72
   56
 73
   90
  0
VERTEX
  8
fence25
 10
0.0
 20
0.0
 30
0.0
 70
   128
 71
   86
 72
   99
 73
   87
  0
VERTEX
  8
fence25
 10
0.0
 20
0.0
 30
0.0
 70
   128
 71
   91
 72
   60
 73
   92
  0
VERTEX
  8
fence25
 10
0.0
 20
0.0
 30
0.0
 70
   128
 71
   93
 72
   64
 73
   94
  0
VERTEX
  8
fence25
 10
0.0
 20
0.0
 30
0.0
 70
   128
 71
   73
 72
   88
 73
   75
  0
VERTEX
  8
fence25
 10
0.0
 20
0.0
 30
0.0
 70
   128
 71
   95
 72
   68
 73
   96
  0
VERTEX
  8
fence25
 10
0.0
 20
0.0
 30
0.0
 70
   128
 71
   97
 72
   72
 73
   98
  0
VERTEX
  8
fence25
 10
0.0
 20
0.0
 30
0.0
 70
   128
 71
   88
 72
   89
 73
   77
  0
VERTEX
  8
fence25
 10
0.0
 20
0.0
 30
0.0
 70
   128
 71
   99
 72
   76
 73
   100
  0
VERTEX
  8
fence25
 10
0.0
 20
0.0
 30
0.0
 70
   128
 71
   57
 72
   53
 73
   55
  0
VERTEX
  8
fence25
 10
0.0
 20
0.0
 30
0.0
 70
   128
 71
   69
 72
   57
 73
   59
  0
VERTEX
  8
fence25
 10
0.0
 20
0.0
 30
0.0
 70
   128
 71
   75
 72
   71
 73
   73
  0
VERTEX
  8
fence25
 10
0.0
 20
0.0
 30
0.0
 70
   128
 71
   59
 72
   65
 73
   69
  0
VERTEX
  8
fence25
 10
0.0
 20
0.0
 30
0.0
 70
   128
 71
   74
 72
   68
 73
   76
  0
VERTEX
  8
fence25
 10
0.0
 20
0.0
 30
0.0
 70
   128
 71
   62
 72
   66
 73
   64
  0
VERTEX
  8
fence25
 10
0.0
 20
0.0
 30
0.0
 70
   128
 71
   76
 72
   62
 73
   56
  0
VERTEX
  8
fence25
 10
0.0
 20
0.0
 30
0.0
 70
   128
 71
   62
 72
   58
 73
   56
  0
VERTEX
  8
fence25
 10
0.0
 20
0.0
 30
0.0
 70
   128
 71
   127
 72
   140
 73
   128
  0
VERTEX
  8
fence25
 10
0.0
 20
0.0
 30
0.0
 70
   128
 71
   103
 72
   128
 73
   105
  0
VERTEX
  8
fence25
 10
0.0
 20
0.0
 30
0.0
 70
   128
 71
   129
 72
   105
 73
   128
  0
VERTEX
  8
fence25
 10
0.0
 20
0.0
 30
0.0
 70
   128
 71
   129
 72
   142
 73
   130
  0
VERTEX
  8
fence25
 10
0.0
 20
0.0
 30
0.0
 70
   128
 71
   140
 72
   108
 73
   141
  0
VERTEX
  8
fence25
 10
0.0
 20
0.0
 30
0.0
 70
   128
 71
   131
 72
   109
 73
   130
  0
VERTEX
  8
fence25
 10
0.0
 20
0.0
 30
0.0
 70
   128
 71
   131
 72
   144
 73
   132
  0
VERTEX
  8
fence25
 10
0.0
 20
0.0
 30
0.0
 70
   128
 71
   107
 72
   130
 73
   109
  0
VERTEX
  8
fence25
 10
0.0
 20
0.0
 30
0.0
 70
   128
 71
   133
 72
   113
 73
   132
  0
VERTEX
  8
fence25
 10
0.0
 20
0.0
 30
0.0
 70
   128
 71
   133
 72
   146
 73
   134
  0
VERTEX
  8
fence25
 10
0.0
 20
0.0
 30
0.0
 70
   128
 71
   130
 72
   143
 73
   131
  0
VERTEX
  8
fence25
 10
0.0
 20
0.0
 30
0.0
 70
   128
 71
   135
 72
   117
 73
   134
  0
VERTEX
  8
fence25
 10
0.0
 20
0.0
 30
0.0
 70
   128
 71
   135
 72
   148
 73
   136
  0
VERTEX
  8
fence25
 10
0.0
 20
0.0
 30
0.0
 70
   128
 71
   111
 72
   132
 73
   113
  0
VERTEX
  8
fence25
 10
0.0
 20
0.0
 30
0.0
 70
   128
 71
   137
 72
   121
 73
   136
  0
VERTEX
  8
fence25
 10
0.0
 20
0.0
 30
0.0
 70
   128
 71
   137
 72
   150
 73
   138
  0
VERTEX
  8
fence25
 10
0.0
 20
0.0
 30
0.0
 70
   128
 71
   132
 72
   145
 73
   133
  0
VERTEX
  8
fence25
 10
0.0
 20
0.0
 30
0.0
 70
   128
 71
   127
 72
   125
 73
   138
  0
VERTEX
  8
fence25
 10
0.0
 20
0.0
 30
0.0
 70
   128
 71
   141
 72
   128
 73
   140
  0
VERTEX
  8
fence25
 10
0.0
 20
0.0
 30
0.0
 70
   128
 71
   115
 72
   134
 73
   117
  0
VERTEX
  8
fence25
 10
0.0
 20
0.0
 30
0.0
 70
   128
 71
   142
 72
   112
 73
   143
  0
VERTEX
  8
fence25
 10
0.0
 20
0.0
 30
0.0
 70
   128
 71
   144
 72
   116
 73
   145
  0
VERTEX
  8
fence25
 10
0.0
 20
0.0
 30
0.0
 70
   128
 71
   134
 72
   147
 73
   135
  0
VERTEX
  8
fence25
 10
0.0
 20
0.0
 30
0.0
 70
   128
 71
   146
 72
   120
 73
   147
  0
VERTEX
  8
fence25
 10
0.0
 20
0.0
 30
0.0
 70
   128
 71
   148
 72
   124
 73
   149
  0
VERTEX
  8
fence25
 10
0.0
 20
0.0
 30
0.0
 70
   128
 71
   119
 72
   136
 73
   121
  0
VERTEX
  8
fence25
 10
0.0
 20
0.0
 30
0.0
 70
   128
 71
   150
 72
   104
 73
   139
  0
VERTEX
  8
fence25
 10
0.0
 20
0.0
 30
0.0
 70
   128
 71
   139
 72
   106
 73
   140
  0
VERTEX
  8
fence25
 10
0.0
 20
0.0
 30
0.0
 70
   128
 71
   136
 72
   149
 73
   137
  0
VERTEX
  8
fence25
 10
0.0
 20
0.0
 30
0.0
 70
   128
 71
   141
 72
   110
 73
   142
  0
VERTEX
  8
fence25
 10
0.0
 20
0.0
 30
0.0
 70
   128
 71
   143
 72
   114
 73
   144
  0
VERTEX
  8
fence25
 10
0.0
 20
0.0
 30
0.0
 70
   128
 71
   123
 72
   138
 73
   125
  0
VERTEX
  8
fence25
 10
0.0
 20
0.0
 30
0.0
 70
   128
 71
   145
 72
   118
 73
   146
  0
VERTEX
  8
fence25
 10
0.0
 20
0.0
 30
0.0
 70
   128
 71
   147
 72
   122
 73
   148
  0
VERTEX
  8
fence25
 10
0.0
 20
0.0
 30
0.0
 70
   128
 71
   138
 72
   139
 73
   127
  0
VERTEX
  8
fence25
 10
0.0
 20
0.0
 30
0.0
 70
   128
 71
   149
 72
   126
 73
   150
  0
VERTEX
  8
fence25
 10
0.0
 20
0.0
 30
0.0
 70
   128
 71
   107
 72
   103
 73
   105
  0
VERTEX
  8
fence25
 10
0.0
 20
0.0
 30
0.0
 70
   128
 71
   119
 72
   107
 73
   109
  0
VERTEX
  8
fence25
 10
0.0
 20
0.0
 30
0.0
 70
   128
 71
   125
 72
   121
 73
   123
  0
VERTEX
  8
fence25
 10
0.0
 20
0.0
 30
0.0
 70
   128
 71
   109
 72
   115
 73
   119
  0
VERTEX
  8
fence25
 10
0.0
 20
0.0
 30
0.0
 70
   128
 71
   124
 72
   118
 73
   126
  0
VERTEX
  8
fence25
 10
0.0
 20
0.0
 30
0.0
 70
   128
 71
   112
 72
   116
 73
   114
  0
VERTEX
  8
fence25
 10
0.0
 20
0.0
 30
0.0
 70
   128
 71
   126
 72
   112
 73
   106
  0
VERTEX
  8
fence25
 10
0.0
 20
0.0
 30
0.0
 70
   128
 71
   112
 72
   108
 73
   106
  0
VERTEX
  8
fence25
 10
0.0
 20
0.0
 30
0.0
 70
   128
 71
   177
 72
   190
 73
   178
  0
VERTEX
  8
fence25
 10
0.0
 20
0.0
 30
0.0
 70
   128
 71
   153
 72
   178
 73
   155
  0
VERTEX
  8
fence25
 10
0.0
 20
0.0
 30
0.0
 70
   128
 71
   179
 72
   155
 73
   178
  0
VERTEX
  8
fence25
 10
0.0
 20
0.0
 30
0.0
 70
   128
 71
   179
 72
   192
 73
   180
  0
VERTEX
  8
fence25
 10
0.0
 20
0.0
 30
0.0
 70
   128
 71
   190
 72
   158
 73
   191
  0
VERTEX
  8
fence25
 10
0.0
 20
0.0
 30
0.0
 70
   128
 71
   181
 72
   159
 73
   180
  0
VERTEX
  8
fence25
 10
0.0
 20
0.0
 30
0.0
 70
   128
 71
   181
 72
   194
 73
   182
  0
VERTEX
  8
fence25
 10
0.0
 20
0.0
 30
0.0
 70
   128
 71
   157
 72
   180
 73
   159
  0
VERTEX
  8
fence25
 10
0.0
 20
0.0
 30
0.0
 70
   128
 71
   183
 72
   163
 73
   182
  0
VERTEX
  8
fence25
 10
0.0
 20
0.0
 30
0.0
 70
   128
 71
   183
 72
   196
 73
   184
  0
VERTEX
  8
fence25
 10
0.0
 20
0.0
 30
0.0
 70
   128
 71
   180
 72
   193
 73
   181
  0
VERTEX
  8
fence25
 10
0.0
 20
0.0
 30
0.0
 70
   128
 71
   185
 72
   167
 73
   184
  0
VERTEX
  8
fence25
 10
0.0
 20
0.0
 30
0.0
 70
   128
 71
   185
 72
   198
 73
   186
  0
VERTEX
  8
fence25
 10
0.0
 20
0.0
 30
0.0
 70
   128
 71
   161
 72
   182
 73
   163
  0
VERTEX
  8
fence25
 10
0.0
 20
0.0
 30
0.0
 70
   128
 71
   187
 72
   171
 73
   186
  0
VERTEX
  8
fence25
 10
0.0
 20
0.0
 30
0.0
 70
   128
 71
   187
 72
   200
 73
   188
  0
VERTEX
  8
fence25
 10
0.0
 20
0.0
 30
0.0
 70
   128
 71
   182
 72
   195
 73
   183
  0
VERTEX
  8
fence25
 10
0.0
 20
0.0
 30
0.0
 70
   128
 71
   177
 72
   175
 73
   188
  0
VERTEX
  8
fence25
 10
0.0
 20
0.0
 30
0.0
 70
   128
 71
   191
 72
   178
 73
   190
  0
VERTEX
  8
fence25
 10
0.0
 20
0.0
 30
0.0
 70
   128
 71
   165
 72
   184
 73
   167
  0
VERTEX
  8
fence25
 10
0.0
 20
0.0
 30
0.0
 70
   128
 71
   192
 72
   162
 73
   193
  0
VERTEX
  8
fence25
 10
0.0
 20
0.0
 30
0.0
 70
   128
 71
   194
 72
   166
 73
   195
  0
VERTEX
  8
fence25
 10
0.0
 20
0.0
 30
0.0
 70
   128
 71
   184
 72
   197
 73
   185
  0
VERTEX
  8
fence25
 10
0.0
 20
0.0
 30
0.0
 70
   128
 71
   196
 72
   170
 73
   197
  0
VERTEX
  8
fence25
 10
0.0
 20
0.0
 30
0.0
 70
   128
 71
   198
 72
   174
 73
   199
  0
VERTEX
  8
fence25
 10
0.0
 20
0.0
 30
0.0
 70
   128
 71
   169
 72
   186
 73
   171
  0
VERTEX
  8
fence25
 10
0.0
 20
0.0
 30
0.0
 70
   128
 71
   200
 72
   154
 73
   189
  0
VERTEX
  8
fence25
 10
0.0
 20
0.0
 30
0.0
 70
   128
 71
   189
 72
   156
 73
   190
  0
VERTEX
  8
fence25
 10
0.0
 20
0.0
 30
0.0
 70
   128
 71
   186
 72
   199
 73
   187
  0
VERTEX
  8
fence25
 10
0.0
 20
0.0
 30
0.0
 70
   128
 71
   191
 72
   160
 73
   192
  0
VERTEX
  8
fence25
 10
0.0
 20
0.0
 30
0.0
 70
   128
 71
   193
 72
   164
 73
   194
  0
VERTEX
  8
fence25
 10
0.0
 20
0.0
 30
0.0
 70
   128
 71
   173
 72
   188
 73
   175
  0
VERTEX
  8
fence25
 10
0.0
 20
0.0
 30
0.0
 70
   128
 71
   195
 72
   168
 73
   196
  0
VERTEX
  8
fence25
 10
0.0
 20
0.0
 30
0.0
 70
   128
 71
   197
 72
   172
 73
   198
  0
VERTEX
  8
fence25
 10
0.0
 20
0.0
 30
0.0
 70
   128
 71
   188
 72
   189
 73
   177
  0
VERTEX
  8
fence25
 10
0.0
 20
0.0
 30
0.0
 70
   128
 71
   199
 72
   176
 73
   200
  0
VERTEX
  8
fence25
 10
0.0
 20
0.0
 30
0.0
 70
   128
 71
   157
 72
   153
 73
   155
  0
VERTEX
  8
fence25
 10
0.0
 20
0.0
 30
0.0
 70
   128
 71
   169
 72
   157
 73
   159
  0
VERTEX
  8
fence25
 10
0.0
 20
0.0
 30
0.0
 70
   128
 71
   175
 72
   171
 73
   173
  0
VERTEX
  8
fence25
 10
0.0
 20
0.0
 30
0.0
 70
   128
 71
   159
 72
   165
 73
   169
  0
VERTEX
  8
fence25
 10
0.0
 20
0.0
 30
0.0
 70
   128
 71
   174
 72
   168
 73
   176
  0
VERTEX
  8
fence25
 10
0.0
 20
0.0
 30
0.0
 70
   128
 71
   162
 72
   166
 73
   164
  0
VERTEX
  8
fence25
 10
0.0
 20
0.0
 30
0.0
 70
   128
 71
   176
 72
   162
 73
   156
  0
VERTEX
  8
fence25
 10
0.0
 20
0.0
 30
0.0
 70
   128
 71
   162
 72
   158
 73
   156
  0
VERTEX
  8
fence25
 10
0.0
 20
0.0
 30
0.0
 70
   128
 71
   227
 72
   240
 73
   228
  0
VERTEX
  8
fence25
 10
0.0
 20
0.0
 30
0.0
 70
   128
 71
   203
 72
   228
 73
   205
  0
VERTEX
  8
fence25
 10
0.0
 20
0.0
 30
0.0
 70
   128
 71
   229
 72
   205
 73
   228
  0
VERTEX
  8
fence25
 10
0.0
 20
0.0
 30
0.0
 70
   128
 71
   229
 72
   242
 73
   230
  0
VERTEX
  8
fence25
 10
0.0
 20
0.0
 30
0.0
 70
   128
 71
   240
 72
   208
 73
   241
  0
VERTEX
  8
fence25
 10
0.0
 20
0.0
 30
0.0
 70
   128
 71
   231
 72
   209
 73
   230
  0
VERTEX
  8
fence25
 10
0.0
 20
0.0
 30
0.0
 70
   128
 71
   231
 72
   244
 73
   232
  0
VERTEX
  8
fence25
 10
0.0
 20
0.0
 30
0.0
 70
   128
 71
   207
 72
   230
 73
   209
  0
VERTEX
  8
fence25
 10
0.0
 20
0.0
 30
0.0
 70
   128
 71
   233
 72
   213
 73
   232
  0
VERTEX
  8
fence25
 10
0.0
 20
0.0
 30
0.0
 70
   128
 71
   233
 72
   246
 73
   234
  0
VERTEX
  8
fence25
 10
0.0
 20
0.0
 30
0.0
 70
   128
 71
   230
 72
   243
 73
   231
  0
VERTEX
  8
fence25
 10
0.0
 20
0.0
 30
0.0
 70
   128
 71
   235
 72
   217
 73
   234
  0
VERTEX
  8
fence25
 10
0.0
 20
0.0
 30
0.0
 70
   128
 71
   235
 72
   248
 73
   236
  0
VERTEX
  8
fence25
 10
0.0
 20
0.0
 30
0.0
 70
   128
 71
   211
 72
   232
 73
   213
  0
VERTEX
  8
fence25
 10
0.0
 20
0.0
 30
0.0
 70
   128
 71
   237
 72
   221
 73
   236
  0
VERTEX
  8
fence25
 10
0.0
 20
0.0
 30
0.0
 70
   128
 71
   237
 72
   250
 73
   238
  0
VERTEX
  8
fence25
 10
0.0
 20
0.0
 30
0.0
 70
   128
 71
   232
 72
   245
 73
   233
  0
VERTEX
  8
fence25
 10
0.0
 20
0.0
 30
0.0
 70
   128
 71
   227
 72
   225
 73
   238
  0
VERTEX
  8
fence25
 10
0.0
 20
0.0
 30
0.0
 70
   128
 71
   241
 72
   228
 73
   240
  0
VERTEX
  8
fence25
 10
0.0
 20
0.0
 30
0.0
 70
   128
 71
   215
 72
   234
 73
   217
  0
VERTEX
  8
fence25
 10
0.0
 20
0.0
 30
0.0
 70
   128
 71
   242
 72
   212
 73
   243
  0
VERTEX
  8
fence25
 10
0.0
 20
0.0
 30
0.0
 70
   128
 71
   244
 72
   216
 73
   245
  0
VERTEX
  8
fence25
 10
0.0
 20
0.0
 30
0.0
 70
   128
 71
   234
 72
   247
 73
   235
  0
VERTEX
  8
fence25
 10
0.0
 20
0.0
 30
0.0
 70
   128
 71
   246
 72
   220
 73
   247
  0
VERTEX
  8
fence25
 10
0.0
 20
0.0
 30
0.0
 70
   128
 71
   248
 72
   224
 73
   249
  0
VERTEX
  8
fence25
 10
0.0
 20
0.0
 30
0.0
 70
   128
 71
   219
 72
   236
 73
   221
  0
VERTEX
  8
fence25
 10
0.0
 20
0.0
 30
0.0
 70
   128
 71
   250
 72
   204
 73
   239
  0
VERTEX
  8
fence25
 10
0.0
 20
0.0
 30
0.0
 70
   128
 71
   239
 72
   206
 73
   240
  0
VERTEX
  8
fence25
 10
0.0
 20
0.0
 30
0.0
 70
   128
 71
   236
 72
   249
 73
   237
  0
VERTEX
  8
fence25
 10
0.0
 20
0.0
 30
0.0
 70
   128
 71
   241
 72
   210
 73
   242
  0
VERTEX
  8
fence25
 10
0.0
 20
0.0
 30
0.0
 70
   128
 71
   243
 72
   214
 73
   244
  0
VERTEX
  8
fence25
 10
0.0
 20
0.0
 30
0.0
 70
   128
 71
   223
 72
   238
 73
   225
  0
VERTEX
  8
fence25
 10
0.0
 20
0.0
 30
0.0
 70
   128
 71
   245
 72
   218
 73
   246
  0
VERTEX
  8
fence25
 10
0.0
 20
0.0
 30
0.0
 70
   128
 71
   247
 72
   222
 73
   248
  0
VERTEX
  8
fence25
 10
0.0
 20
0.0
 30
0.0
 70
   128
 71
   238
 72
   239
 73
   227
  0
VERTEX
  8
fence25
 10
0.0
 20
0.0
 30
0.0
 70
   128
 71
   249
 72
   226
 73
   250
  0
VERTEX
  8
fence25
 10
0.0
 20
0.0
 30
0.0
 70
   128
 71
   207
 72
   203
 73
   205
  0
VERTEX
  8
fence25
 10
0.0
 20
0.0
 30
0.0
 70
   128
 71
   219
 72
   207
 73
   209
  0
VERTEX
  8
fence25
 10
0.0
 20
0.0
 30
0.0
 70
   128
 71
   225
 72
   221
 73
   223
  0
VERTEX
  8
fence25
 10
0.0
 20
0.0
 30
0.0
 70
   128
 71
   209
 72
   215
 73
   219
  0
VERTEX
  8
fence25
 10
0.0
 20
0.0
 30
0.0
 70
   128
 71
   224
 72
   218
 73
   226
  0
VERTEX
  8
fence25
 10
0.0
 20
0.0
 30
0.0
 70
   128
 71
   212
 72
   216
 73
   214
  0
VERTEX
  8
fence25
 10
0.0
 20
0.0
 30
0.0
 70
   128
 71
   226
 72
   212
 73
   206
  0
VERTEX
  8
fence25
 10
0.0
 20
0.0
 30
0.0
 70
   128
 71
   212
 72
   208
 73
   206
  0
VERTEX
  8
fence25
 10
0.0
 20
0.0
 30
0.0
 70
   128
 71
   277
 72
   290
 73
   278
  0
VERTEX
  8
fence25
 10
0.0
 20
0.0
 30
0.0
 70
   128
 71
   253
 72
   278
 73
   255
  0
VERTEX
  8
fence25
 10
0.0
 20
0.0
 30
0.0
 70
   128
 71
   279
 72
   255
 73
   278
  0
VERTEX
  8
fence25
 10
0.0
 20
0.0
 30
0.0
 70
   128
 71
   279
 72
   292
 73
   280
  0
VERTEX
  8
fence25
 10
0.0
 20
0.0
 30
0.0
 70
   128
 71
   290
 72
   258
 73
   291
  0
VERTEX
  8
fence25
 10
0.0
 20
0.0
 30
0.0
 70
   128
 71
   281
 72
   259
 73
   280
  0
VERTEX
  8
fence25
 10
0.0
 20
0.0
 30
0.0
 70
   128
 71
   281
 72
   294
 73
   282
  0
VERTEX
  8
fence25
 10
0.0
 20
0.0
 30
0.0
 70
   128
 71
   257
 72
   280
 73
   259
  0
VERTEX
  8
fence25
 10
0.0
 20
0.0
 30
0.0
 70
   128
 71
   283
 72
   263
 73
   282
  0
VERTEX
  8
fence25
 10
0.0
 20
0.0
 30
0.0
 70
   128
 71
   283
 72
   296
 73
   284
  0
VERTEX
  8
fence25
 10
0.0
 20
0.0
 30
0.0
 70
   128
 71
   280
 72
   293
 73
   281
  0
VERTEX
  8
fence25
 10
0.0
 20
0.0
 30
0.0
 70
   128
 71
   285
 72
   267
 73
   284
  0
VERTEX
  8
fence25
 10
0.0
 20
0.0
 30
0.0
 70
   128
 71
   285
 72
   298
 73
   286
  0
VERTEX
  8
fence25
 10
0.0
 20
0.0
 30
0.0
 70
   128
 71
   261
 72
   282
 73
   263
  0
VERTEX
  8
fence25
 10
0.0
 20
0.0
 30
0.0
 70
   128
 71
   287
 72
   271
 73
   286
  0
VERTEX
  8
fence25
 10
0.0
 20
0.0
 30
0.0
 70
   128
 71
   287
 72
   300
 73
   288
  0
VERTEX
  8
fence25
 10
0.0
 20
0.0
 30
0.0
 70
   128
 71
   282
 72
   295
 73
   283
  0
VERTEX
  8
fence25
 10
0.0
 20
0.0
 30
0.0
 70
   128
 71
   277
 72
   275
 73
   288
  0
VERTEX
  8
fence25
 10
0.0
 20
0.0
 30
0.0
 70
   128
 71
   291
 72
   278
 73
   290
  0
VERTEX
  8
fence25
 10
0.0
 20
0.0
 30
0.0
 70
   128
 71
   265
 72
   284
 73
   267
  0
VERTEX
  8
fence25
 10
0.0
 20
0.0
 30
0.0
 70
   128
 71
   292
 72
   262
 73
   293
  0
VERTEX
  8
fence25
 10
0.0
 20
0.0
 30
0.0
 70
   128
 71
   294
 72
   266
 73
   295
  0
VERTEX
  8
fence25
 10
0.0
 20
0.0
 30
0.0
 70
   128
 71
   284
 72
   297
 73
   285
  0
VERTEX
  8
fence25
 10
0.0
 20
0.0
 30
0.0
 70
   128
 71
   296
 72
   270
 73
   297
  0
VERTEX
  8
fence25
 10
0.0
 20
0.0
 30
0.0
 70
   128
 71
   298
 72
   274
 73
   299
  0
VERTEX
  8
fence25
 10
0.0
 20
0.0
 30
0.0
 70
   128
 71
   269
 72
   286
 73
   271
  0
VERTEX
  8
fence25
 10
0.0
 20
0.0
 30
0.0
 70
   128
 71
   300
 72
   254
 73
   289
  0
VERTEX
  8
fence25
 10
0.0
 20
0.0
 30
0.0
 70
   128
 71
   289
 72
   256
 73
   290
  0
VERTEX
  8
fence25
 10
0.0
 20
0.0
 30
0.0
 70
   128
 71
   286
 72
   299
 73
   287
  0
VERTEX
  8
fence25
 10
0.0
 20
0.0
 30
0.0
 70
   128
 71
   291
 72
   260
 73
   292
  0
VERTEX
  8
fence25
 10
0.0
 20
0.0
 30
0.0
 70
   128
 71
   293
 72
   264
 73
   294
  0
VERTEX
  8
fence25
 10
0.0
 20
0.0
 30
0.0
 70
   128
 71
   273
 72
   288
 73
   275
  0
VERTEX
  8
fence25
 10
0.0
 20
0.0
 30
0.0
 70
   128
 71
   295
 72
   268
 73
   296
  0
VERTEX
  8
fence25
 10
0.0
 20
0.0
 30
0.0
 70
   128
 71
   297
 72
   272
 73
   298
  0
VERTEX
  8
fence25
 10
0.0
 20
0.0
 30
0.0
 70
   128
 71
   288
 72
   289
 73
   277
  0
VERTEX
  8
fence25
 10
0.0
 20
0.0
 30
0.0
 70
   128
 71
   299
 72
   276
 73
   300
  0
VERTEX
  8
fence25
 10
0.0
 20
0.0
 30
0.0
 70
   128
 71
   257
 72
   253
 73
   255
  0
VERTEX
  8
fence25
 10
0.0
 20
0.0
 30
0.0
 70
   128
 71
   269
 72
   257
 73
   259
  0
VERTEX
  8
fence25
 10
0.0
 20
0.0
 30
0.0
 70
   128
 71
   275
 72
   271
 73
   273
  0
VERTEX
  8
fence25
 10
0.0
 20
0.0
 30
0.0
 70
   128
 71
   259
 72
   265
 73
   269
  0
VERTEX
  8
fence25
 10
0.0
 20
0.0
 30
0.0
 70
   128
 71
   274
 72
   268
 73
   276
  0
VERTEX
  8
fence25
 10
0.0
 20
0.0
 30
0.0
 70
   128
 71
   262
 72
   266
 73
   264
  0
VERTEX
  8
fence25
 10
0.0
 20
0.0
 30
0.0
 70
   128
 71
   276
 72
   262
 73
   256
  0
VERTEX
  8
fence25
 10
0.0
 20
0.0
 30
0.0
 70
   128
 71
   262
 72
   258
 73
   256
  0
VERTEX
  8
fence25
 10
0.0
 20
0.0
 30
0.0
 70
   128
 71
   327
 72
   340
 73
   328
  0
VERTEX
  8
fence25
 10
0.0
 20
0.0
 30
0.0
 70
   128
 71
   303
 72
   328
 73
   305
  0
VERTEX
  8
fence25
 10
0.0
 20
0.0
 30
0.0
 70
   128
 71
   329
 72
   305
 73
   328
  0
VERTEX
  8
fence25
 10
0.0
 20
0.0
 30
0.0
 70
   128
 71
   329
 72
   342
 73
   330
  0
VERTEX
  8
fence25
 10
0.0
 20
0.0
 30
0.0
 70
   128
 71
   340
 72
   308
 73
   341
  0
VERTEX
  8
fence25
 10
0.0
 20
0.0
 30
0.0
 70
   128
 71
   331
 72
   309
 73
   330
  0
VERTEX
  8
fence25
 10
0.0
 20
0.0
 30
0.0
 70
   128
 71
   331
 72
   344
 73
   332
  0
VERTEX
  8
fence25
 10
0.0
 20
0.0
 30
0.0
 70
   128
 71
   307
 72
   330
 73
   309
  0
VERTEX
  8
fence25
 10
0.0
 20
0.0
 30
0.0
 70
   128
 71
   333
 72
   313
 73
   332
  0
VERTEX
  8
fence25
 10
0.0
 20
0.0
 30
0.0
 70
   128
 71
   333
 72
   346
 73
   334
  0
VERTEX
  8
fence25
 10
0.0
 20
0.0
 30
0.0
 70
   128
 71
   330
 72
   343
 73
   331
  0
VERTEX
  8
fence25
 10
0.0
 20
0.0
 30
0.0
 70
   128
 71
   335
 72
   317
 73
   334
  0
VERTEX
  8
fence25
 10
0.0
 20
0.0
 30
0.0
 70
   128
 71
   335
 72
   348
 73
   336
  0
VERTEX
  8
fence25
 10
0.0
 20
0.0
 30
0.0
 70
   128
 71
   311
 72
   332
 73
   313
  0
VERTEX
  8
fence25
 10
0.0
 20
0.0
 30
0.0
 70
   128
 71
   337
 72
   321
 73
   336
  0
VERTEX
  8
fence25
 10
0.0
 20
0.0
 30
0.0
 70
   128
 71
   337
 72
   350
 73
   338
  0
VERTEX
  8
fence25
 10
0.0
 20
0.0
 30
0.0
 70
   128
 71
   332
 72
   345
 73
   333
  0
VERTEX
  8
fence25
 10
0.0
 20
0.0
 30
0.0
 70
   128
 71
   327
 72
   325
 73
   338
  0
VERTEX
  8
fence25
 10
0.0
 20
0.0
 30
0.0
 70
   128
 71
   341
 72
   328
 73
   340
  0
VERTEX
  8
fence25
 10
0.0
 20
0.0
 30
0.0
 70
   128
 71
   315
 72
   334
 73
   317
  0
VERTEX
  8
fence25
 10
0.0
 20
0.0
 30
0.0
 70
   128
 71
   342
 72
   312
 73
   343
  0
VERTEX
  8
fence25
 10
0.0
 20
0.0
 30
0.0
 70
   128
 71
   344
 72
   316
 73
   345
  0
VERTEX
  8
fence25
 10
0.0
 20
0.0
 30
0.0
 70
   128
 71
   334
 72
   347
 73
   335
  0
VERTEX
  8
fence25
 10
0.0
 20
0.0
 30
0.0
 70
   128
 71
   346
 72
   320
 73
   347
  0
VERTEX
  8
fence25
 10
0.0
 20
0.0
 30
0.0
 70
   128
 71
   348
 72
   324
 73
   349
  0
VERTEX
  8
fence25
 10
0.0
 20
0.0
 30
0.0
 70
   128
 71
   319
 72
   336
 73
   321
  0
VERTEX
  8
fence25
 10
0.0
 20
0.0
 30
0.0
 70
   128
 71
   350
 72
   304
 73
   339
  0
VERTEX
  8
fence25
 10
0.0
 20
0.0
 30
0.0
 70
   128
 71
   339
 72
   306
 73
   340
  0
VERTEX
  8
fence25
 10
0.0
 20
0.0
 30
0.0
 70
   128
 71
   336
 72
   349
 73
   337
  0
VERTEX
  8
fence25
 10
0.0
 20
0.0
 30
0.0
 70
   128
 71
   341
 72
   310
 73
   342
  0
VERTEX
  8
fence25
 10
0.0
 20
0.0
 30
0.0
 70
   128
 71
   343
 72
   314
 73
   344
  0
VERTEX
  8
fence25
 10
0.0
 20
0.0
 30
0.0
 70
   128
 71
   323
 72
   338
 73
   325
  0
VERTEX
  8
fence25
 10
0.0
 20
0.0
 30
0.0
 70
   128
 71
   345
 72
   318
 73
   346
  0
VERTEX
  8
fence25
 10
0.0
 20
0.0
 30
0.0
 70
   128
 71
   347
 72
   322
 73
   348
  0
VERTEX
  8
fence25
 10
0.0
 20
0.0
 30
0.0
 70
   128
 71
   338
 72
   339
 73
   327
  0
VERTEX
  8
fence25
 10
0.0
 20
0.0
 30
0.0
 70
   128
 71
   349
 72
   326
 73
   350
  0
VERTEX
  8
fence25
 10
0.0
 20
0.0
 30
0.0
 70
   128
 71
   307
 72
   303
 73
   305
  0
VERTEX
  8
fence25
 10
0.0
 20
0.0
 30
0.0
 70
   128
 71
   319
 72
   307
 73
   309
  0
VERTEX
  8
fence25
 10
0.0
 20
0.0
 30
0.0
 70
   128
 71
   325
 72
   321
 73
   323
  0
VERTEX
  8
fence25
 10
0.0
 20
0.0
 30
0.0
 70
   128
 71
   309
 72
   315
 73
   319
  0
VERTEX
  8
fence25
 10
0.0
 20
0.0
 30
0.0
 70
   128
 71
   324
 72
   318
 73
   326
  0
VERTEX
  8
fence25
 10
0.0
 20
0.0
 30
0.0
 70
   128
 71
   312
 72
   316
 73
   314
  0
VERTEX
  8
fence25
 10
0.0
 20
0.0
 30
0.0
 70
   128
 71
   326
 72
   312
 73
   306
  0
VERTEX
  8
fence25
 10
0.0
 20
0.0
 30
0.0
 70
   128
 71
   312
 72
   308
 73
   306
  0
SEQEND
  0
ENDSEC
  0
EOF
