999
FBX AutoCAD (*.DXF) exporter
  0
SECTION
  2
HEADER
  9
$ACADVER
  1
AC1008
  9
$UCSORG
 10
0.0
 20
0.0
 30
0.0
  9
$UCSXDIR
 10
1.0
 20
0.0
 30
0.0
  9
$TILEMODE
 70
   1
  9
$UCSYDIR
 10
0.0
 20
1.0
 30
0.0
  0
ENDSEC
  0
SECTION
  2
TABLES
  0
TABLE
  2
LTYPE
 70
   1
  0
LTYPE
  2
CONTINUOUS
 70
   64
  3
Solid line
 72
   65
 73
   0
 40
0.0
  0
ENDTAB
  0
TABLE
  2
LAYER
 70
   7
  0
LAYER
  2
leaf
 70
   0
 62
   250
  6
CONTINUOUS
  0
LAYER
  2
leaf_2
 70
   0
 62
   250
  6
CONTINUOUS
  0
LAYER
  2
leaf_3
 70
   0
 62
   250
  6
CONTINUOUS
  0
LAYER
  2
leaf_4
 70
   0
 62
   250
  6
CONTINUOUS
  0
LAYER
  2
leaf_5
 70
   0
 62
   250
  6
CONTINUOUS
  0
LAYER
  2
bark
 70
   0
 62
   250
  6
CONTINUOUS
  0
ENDTAB
  0
ENDSEC
  0
SECTION
  2
BLOCKS
  0
ENDSEC
  0
SECTION
  2
ENTITIES
  0
POLYLINE
  8
leaf
 66
   1
 10
0.0
 20
0.0
 30
0.0
 70
   64
 71
   18
 72
   32
  0
VERTEX
  8
leaf
 10
-187.700198
 20
478.538075
 30
163.343061
 70
   192
  0
VERTEX
  8
leaf
 10
-38.161658
 20
478.538075
 30
344.861402
 70
   192
  0
VERTEX
  8
leaf
 10
111.376882
 20
478.538075
 30
163.343061
 70
   192
  0
VERTEX
  8
leaf
 10
-38.161658
 20
478.538075
 30
-18.175279
 70
   192
  0
VERTEX
  8
leaf
 10
-38.161658
 20
739.340288
 30
163.343061
 70
   192
  0
VERTEX
  8
leaf
 10
-38.161658
 20
478.538075
 30
163.343061
 70
   192
  0
VERTEX
  8
leaf
 10
-38.161658
 20
688.415489
 30
286.286404
 70
   192
  0
VERTEX
  8
leaf
 10
-143.901374
 20
478.538075
 30
291.695911
 70
   192
  0
VERTEX
  8
leaf
 10
-161.105000
 20
688.415489
 30
163.343061
 70
   192
  0
VERTEX
  8
leaf
 10
84.781684
 20
688.415489
 30
163.343061
 70
   192
  0
VERTEX
  8
leaf
 10
67.578058
 20
478.538075
 30
291.695911
 70
   192
  0
VERTEX
  8
leaf
 10
-38.161658
 20
688.415489
 30
40.399719
 70
   192
  0
VERTEX
  8
leaf
 10
67.578058
 20
478.538075
 30
34.990212
 70
   192
  0
VERTEX
  8
leaf
 10
-143.901374
 20
478.538075
 30
34.990212
 70
   192
  0
VERTEX
  8
leaf
 10
-143.901374
 20
478.538075
 30
163.343061
 70
   192
  0
VERTEX
  8
leaf
 10
-38.161658
 20
478.538075
 30
291.695911
 70
   192
  0
VERTEX
  8
leaf
 10
67.578058
 20
478.538075
 30
163.343061
 70
   192
  0
VERTEX
  8
leaf
 10
-38.161658
 20
478.538075
 30
34.990212
 70
   192
  0
VERTEX
  8
leaf
 10
0.0
 20
0.0
 30
0.0
 70
   128
 71
   5
 72
   7
 73
   9
  0
VERTEX
  8
leaf
 10
0.0
 20
0.0
 30
0.0
 70
   128
 71
   7
 72
   2
 73
   8
  0
VERTEX
  8
leaf
 10
0.0
 20
0.0
 30
0.0
 70
   128
 71
   8
 72
   9
 73
   7
  0
VERTEX
  8
leaf
 10
0.0
 20
0.0
 30
0.0
 70
   128
 71
   9
 72
   8
 73
   1
  0
VERTEX
  8
leaf
 10
0.0
 20
0.0
 30
0.0
 70
   128
 71
   5
 72
   10
 73
   7
  0
VERTEX
  8
leaf
 10
0.0
 20
0.0
 30
0.0
 70
   128
 71
   10
 72
   3
 73
   11
  0
VERTEX
  8
leaf
 10
0.0
 20
0.0
 30
0.0
 70
   128
 71
   11
 72
   7
 73
   10
  0
VERTEX
  8
leaf
 10
0.0
 20
0.0
 30
0.0
 70
   128
 71
   7
 72
   11
 73
   2
  0
VERTEX
  8
leaf
 10
0.0
 20
0.0
 30
0.0
 70
   128
 71
   5
 72
   12
 73
   10
  0
VERTEX
  8
leaf
 10
0.0
 20
0.0
 30
0.0
 70
   128
 71
   12
 72
   4
 73
   13
  0
VERTEX
  8
leaf
 10
0.0
 20
0.0
 30
0.0
 70
   128
 71
   13
 72
   10
 73
   12
  0
VERTEX
  8
leaf
 10
0.0
 20
0.0
 30
0.0
 70
   128
 71
   10
 72
   13
 73
   3
  0
VERTEX
  8
leaf
 10
0.0
 20
0.0
 30
0.0
 70
   128
 71
   5
 72
   9
 73
   12
  0
VERTEX
  8
leaf
 10
0.0
 20
0.0
 30
0.0
 70
   128
 71
   9
 72
   1
 73
   14
  0
VERTEX
  8
leaf
 10
0.0
 20
0.0
 30
0.0
 70
   128
 71
   14
 72
   12
 73
   9
  0
VERTEX
  8
leaf
 10
0.0
 20
0.0
 30
0.0
 70
   128
 71
   12
 72
   14
 73
   4
  0
VERTEX
  8
leaf
 10
0.0
 20
0.0
 30
0.0
 70
   128
 71
   6
 72
   15
 73
   16
  0
VERTEX
  8
leaf
 10
0.0
 20
0.0
 30
0.0
 70
   128
 71
   15
 72
   1
 73
   8
  0
VERTEX
  8
leaf
 10
0.0
 20
0.0
 30
0.0
 70
   128
 71
   8
 72
   16
 73
   15
  0
VERTEX
  8
leaf
 10
0.0
 20
0.0
 30
0.0
 70
   128
 71
   16
 72
   8
 73
   2
  0
VERTEX
  8
leaf
 10
0.0
 20
0.0
 30
0.0
 70
   128
 71
   6
 72
   16
 73
   17
  0
VERTEX
  8
leaf
 10
0.0
 20
0.0
 30
0.0
 70
   128
 71
   16
 72
   2
 73
   11
  0
VERTEX
  8
leaf
 10
0.0
 20
0.0
 30
0.0
 70
   128
 71
   11
 72
   17
 73
   16
  0
VERTEX
  8
leaf
 10
0.0
 20
0.0
 30
0.0
 70
   128
 71
   17
 72
   11
 73
   3
  0
VERTEX
  8
leaf
 10
0.0
 20
0.0
 30
0.0
 70
   128
 71
   6
 72
   17
 73
   18
  0
VERTEX
  8
leaf
 10
0.0
 20
0.0
 30
0.0
 70
   128
 71
   17
 72
   3
 73
   13
  0
VERTEX
  8
leaf
 10
0.0
 20
0.0
 30
0.0
 70
   128
 71
   13
 72
   18
 73
   17
  0
VERTEX
  8
leaf
 10
0.0
 20
0.0
 30
0.0
 70
   128
 71
   18
 72
   13
 73
   4
  0
VERTEX
  8
leaf
 10
0.0
 20
0.0
 30
0.0
 70
   128
 71
   6
 72
   18
 73
   15
  0
VERTEX
  8
leaf
 10
0.0
 20
0.0
 30
0.0
 70
   128
 71
   18
 72
   4
 73
   14
  0
VERTEX
  8
leaf
 10
0.0
 20
0.0
 30
0.0
 70
   128
 71
   14
 72
   15
 73
   18
  0
VERTEX
  8
leaf
 10
0.0
 20
0.0
 30
0.0
 70
   128
 71
   15
 72
   14
 73
   1
  0
SEQEND
  0
POLYLINE
  8
leaf_2
 66
   1
 10
0.0
 20
0.0
 30
0.0
 70
   64
 71
   18
 72
   32
  0
VERTEX
  8
leaf_2
 10
-145.054022
 20
391.663276
 30
-146.993976
 70
   192
  0
VERTEX
  8
leaf_2
 10
-31.265971
 20
391.663276
 30
-33.205925
 70
   192
  0
VERTEX
  8
leaf_2
 10
82.522080
 20
391.663276
 30
-146.993976
 70
   192
  0
VERTEX
  8
leaf_2
 10
-31.265971
 20
391.663276
 30
-260.782027
 70
   192
  0
VERTEX
  8
leaf_2
 10
-31.265971
 20
648.841872
 30
-146.993976
 70
   192
  0
VERTEX
  8
leaf_2
 10
-31.265971
 20
380.284470
 30
-146.993976
 70
   192
  0
VERTEX
  8
leaf_2
 10
-31.265971
 20
615.514123
 30
-66.533674
 70
   192
  0
VERTEX
  8
leaf_2
 10
-111.726274
 20
391.663276
 30
-66.533674
 70
   192
  0
VERTEX
  8
leaf_2
 10
-111.726274
 20
615.514123
 30
-146.993976
 70
   192
  0
VERTEX
  8
leaf_2
 10
49.194331
 20
615.514123
 30
-146.993976
 70
   192
  0
VERTEX
  8
leaf_2
 10
49.194331
 20
391.663276
 30
-66.533674
 70
   192
  0
VERTEX
  8
leaf_2
 10
-31.265971
 20
615.514123
 30
-227.454279
 70
   192
  0
VERTEX
  8
leaf_2
 10
49.194331
 20
391.663276
 30
-227.454279
 70
   192
  0
VERTEX
  8
leaf_2
 10
-111.726274
 20
391.663276
 30
-227.454279
 70
   192
  0
VERTEX
  8
leaf_2
 10
-111.726274
 20
383.617245
 30
-146.993976
 70
   192
  0
VERTEX
  8
leaf_2
 10
-31.265971
 20
383.617245
 30
-66.533674
 70
   192
  0
VERTEX
  8
leaf_2
 10
49.194331
 20
383.617245
 30
-146.993976
 70
   192
  0
VERTEX
  8
leaf_2
 10
-31.265971
 20
383.617245
 30
-227.454279
 70
   192
  0
VERTEX
  8
leaf_2
 10
0.0
 20
0.0
 30
0.0
 70
   128
 71
   5
 72
   7
 73
   9
  0
VERTEX
  8
leaf_2
 10
0.0
 20
0.0
 30
0.0
 70
   128
 71
   7
 72
   2
 73
   8
  0
VERTEX
  8
leaf_2
 10
0.0
 20
0.0
 30
0.0
 70
   128
 71
   8
 72
   9
 73
   7
  0
VERTEX
  8
leaf_2
 10
0.0
 20
0.0
 30
0.0
 70
   128
 71
   9
 72
   8
 73
   1
  0
VERTEX
  8
leaf_2
 10
0.0
 20
0.0
 30
0.0
 70
   128
 71
   5
 72
   10
 73
   7
  0
VERTEX
  8
leaf_2
 10
0.0
 20
0.0
 30
0.0
 70
   128
 71
   10
 72
   3
 73
   11
  0
VERTEX
  8
leaf_2
 10
0.0
 20
0.0
 30
0.0
 70
   128
 71
   11
 72
   7
 73
   10
  0
VERTEX
  8
leaf_2
 10
0.0
 20
0.0
 30
0.0
 70
   128
 71
   7
 72
   11
 73
   2
  0
VERTEX
  8
leaf_2
 10
0.0
 20
0.0
 30
0.0
 70
   128
 71
   5
 72
   12
 73
   10
  0
VERTEX
  8
leaf_2
 10
0.0
 20
0.0
 30
0.0
 70
   128
 71
   12
 72
   4
 73
   13
  0
VERTEX
  8
leaf_2
 10
0.0
 20
0.0
 30
0.0
 70
   128
 71
   13
 72
   10
 73
   12
  0
VERTEX
  8
leaf_2
 10
0.0
 20
0.0
 30
0.0
 70
   128
 71
   10
 72
   13
 73
   3
  0
VERTEX
  8
leaf_2
 10
0.0
 20
0.0
 30
0.0
 70
   128
 71
   5
 72
   9
 73
   12
  0
VERTEX
  8
leaf_2
 10
0.0
 20
0.0
 30
0.0
 70
   128
 71
   9
 72
   1
 73
   14
  0
VERTEX
  8
leaf_2
 10
0.0
 20
0.0
 30
0.0
 70
   128
 71
   14
 72
   12
 73
   9
  0
VERTEX
  8
leaf_2
 10
0.0
 20
0.0
 30
0.0
 70
   128
 71
   12
 72
   14
 73
   4
  0
VERTEX
  8
leaf_2
 10
0.0
 20
0.0
 30
0.0
 70
   128
 71
   6
 72
   15
 73
   16
  0
VERTEX
  8
leaf_2
 10
0.0
 20
0.0
 30
0.0
 70
   128
 71
   15
 72
   1
 73
   8
  0
VERTEX
  8
leaf_2
 10
0.0
 20
0.0
 30
0.0
 70
   128
 71
   8
 72
   16
 73
   15
  0
VERTEX
  8
leaf_2
 10
0.0
 20
0.0
 30
0.0
 70
   128
 71
   16
 72
   8
 73
   2
  0
VERTEX
  8
leaf_2
 10
0.0
 20
0.0
 30
0.0
 70
   128
 71
   6
 72
   16
 73
   17
  0
VERTEX
  8
leaf_2
 10
0.0
 20
0.0
 30
0.0
 70
   128
 71
   16
 72
   2
 73
   11
  0
VERTEX
  8
leaf_2
 10
0.0
 20
0.0
 30
0.0
 70
   128
 71
   11
 72
   17
 73
   16
  0
VERTEX
  8
leaf_2
 10
0.0
 20
0.0
 30
0.0
 70
   128
 71
   17
 72
   11
 73
   3
  0
VERTEX
  8
leaf_2
 10
0.0
 20
0.0
 30
0.0
 70
   128
 71
   6
 72
   17
 73
   18
  0
VERTEX
  8
leaf_2
 10
0.0
 20
0.0
 30
0.0
 70
   128
 71
   17
 72
   3
 73
   13
  0
VERTEX
  8
leaf_2
 10
0.0
 20
0.0
 30
0.0
 70
   128
 71
   13
 72
   18
 73
   17
  0
VERTEX
  8
leaf_2
 10
0.0
 20
0.0
 30
0.0
 70
   128
 71
   18
 72
   13
 73
   4
  0
VERTEX
  8
leaf_2
 10
0.0
 20
0.0
 30
0.0
 70
   128
 71
   6
 72
   18
 73
   15
  0
VERTEX
  8
leaf_2
 10
0.0
 20
0.0
 30
0.0
 70
   128
 71
   18
 72
   4
 73
   14
  0
VERTEX
  8
leaf_2
 10
0.0
 20
0.0
 30
0.0
 70
   128
 71
   14
 72
   15
 73
   18
  0
VERTEX
  8
leaf_2
 10
0.0
 20
0.0
 30
0.0
 70
   128
 71
   15
 72
   14
 73
   1
  0
SEQEND
  0
POLYLINE
  8
leaf_3
 66
   1
 10
0.0
 20
0.0
 30
0.0
 70
   64
 71
   18
 72
   32
  0
VERTEX
  8
leaf_3
 10
-296.461696
 20
408.383747
 30
-160.998960
 70
   192
  0
VERTEX
  8
leaf_3
 10
-153.657696
 20
690.919294
 30
-153.633433
 70
   192
  0
VERTEX
  8
leaf_3
 10
-10.853687
 20
408.383750
 30
-160.998935
 70
   192
  0
VERTEX
  8
leaf_3
 10
-153.657692
 20
408.383749
 30
-160.998947
 70
   192
  0
VERTEX
  8
leaf_3
 10
-153.657679
 20
412.995031
 30
-303.728481
 70
   192
  0
VERTEX
  8
leaf_3
 10
-153.657704
 20
403.772466
 30
-18.269414
 70
   192
  0
VERTEX
  8
leaf_3
 10
-153.657686
 20
652.375450
 30
-255.909067
 70
   192
  0
VERTEX
  8
leaf_3
 10
-254.635375
 20
649.114780
 30
-154.984055
 70
   192
  0
VERTEX
  8
leaf_3
 10
-254.635363
 20
411.644417
 30
-261.923977
 70
   192
  0
VERTEX
  8
leaf_3
 10
-52.680003
 20
411.644419
 30
-261.923959
 70
   192
  0
VERTEX
  8
leaf_3
 10
-52.680015
 20
649.114782
 30
-154.984038
 70
   192
  0
VERTEX
  8
leaf_3
 10
-153.657683
 20
411.644418
 30
-261.923968
 70
   192
  0
VERTEX
  8
leaf_3
 10
-52.680012
 20
408.383750
 30
-160.998939
 70
   192
  0
VERTEX
  8
leaf_3
 10
-254.635371
 20
408.383747
 30
-160.998956
 70
   192
  0
VERTEX
  8
leaf_3
 10
-254.635380
 20
405.123078
 30
-60.073935
 70
   192
  0
VERTEX
  8
leaf_3
 10
-153.657704
 20
645.854112
 30
-54.059026
 70
   192
  0
VERTEX
  8
leaf_3
 10
-52.680021
 20
405.123081
 30
-60.073918
 70
   192
  0
VERTEX
  8
leaf_3
 10
-153.657700
 20
405.123079
 30
-60.073926
 70
   192
  0
VERTEX
  8
leaf_3
 10
0.0
 20
0.0
 30
0.0
 70
   128
 71
   5
 72
   7
 73
   9
  0
VERTEX
  8
leaf_3
 10
0.0
 20
0.0
 30
0.0
 70
   128
 71
   7
 72
   2
 73
   8
  0
VERTEX
  8
leaf_3
 10
0.0
 20
0.0
 30
0.0
 70
   128
 71
   8
 72
   9
 73
   7
  0
VERTEX
  8
leaf_3
 10
0.0
 20
0.0
 30
0.0
 70
   128
 71
   9
 72
   8
 73
   1
  0
VERTEX
  8
leaf_3
 10
0.0
 20
0.0
 30
0.0
 70
   128
 71
   5
 72
   10
 73
   7
  0
VERTEX
  8
leaf_3
 10
0.0
 20
0.0
 30
0.0
 70
   128
 71
   10
 72
   3
 73
   11
  0
VERTEX
  8
leaf_3
 10
0.0
 20
0.0
 30
0.0
 70
   128
 71
   11
 72
   7
 73
   10
  0
VERTEX
  8
leaf_3
 10
0.0
 20
0.0
 30
0.0
 70
   128
 71
   7
 72
   11
 73
   2
  0
VERTEX
  8
leaf_3
 10
0.0
 20
0.0
 30
0.0
 70
   128
 71
   5
 72
   12
 73
   10
  0
VERTEX
  8
leaf_3
 10
0.0
 20
0.0
 30
0.0
 70
   128
 71
   12
 72
   4
 73
   13
  0
VERTEX
  8
leaf_3
 10
0.0
 20
0.0
 30
0.0
 70
   128
 71
   13
 72
   10
 73
   12
  0
VERTEX
  8
leaf_3
 10
0.0
 20
0.0
 30
0.0
 70
   128
 71
   10
 72
   13
 73
   3
  0
VERTEX
  8
leaf_3
 10
0.0
 20
0.0
 30
0.0
 70
   128
 71
   5
 72
   9
 73
   12
  0
VERTEX
  8
leaf_3
 10
0.0
 20
0.0
 30
0.0
 70
   128
 71
   9
 72
   1
 73
   14
  0
VERTEX
  8
leaf_3
 10
0.0
 20
0.0
 30
0.0
 70
   128
 71
   14
 72
   12
 73
   9
  0
VERTEX
  8
leaf_3
 10
0.0
 20
0.0
 30
0.0
 70
   128
 71
   12
 72
   14
 73
   4
  0
VERTEX
  8
leaf_3
 10
0.0
 20
0.0
 30
0.0
 70
   128
 71
   6
 72
   15
 73
   16
  0
VERTEX
  8
leaf_3
 10
0.0
 20
0.0
 30
0.0
 70
   128
 71
   15
 72
   1
 73
   8
  0
VERTEX
  8
leaf_3
 10
0.0
 20
0.0
 30
0.0
 70
   128
 71
   8
 72
   16
 73
   15
  0
VERTEX
  8
leaf_3
 10
0.0
 20
0.0
 30
0.0
 70
   128
 71
   16
 72
   8
 73
   2
  0
VERTEX
  8
leaf_3
 10
0.0
 20
0.0
 30
0.0
 70
   128
 71
   6
 72
   16
 73
   17
  0
VERTEX
  8
leaf_3
 10
0.0
 20
0.0
 30
0.0
 70
   128
 71
   16
 72
   2
 73
   11
  0
VERTEX
  8
leaf_3
 10
0.0
 20
0.0
 30
0.0
 70
   128
 71
   11
 72
   17
 73
   16
  0
VERTEX
  8
leaf_3
 10
0.0
 20
0.0
 30
0.0
 70
   128
 71
   17
 72
   11
 73
   3
  0
VERTEX
  8
leaf_3
 10
0.0
 20
0.0
 30
0.0
 70
   128
 71
   6
 72
   17
 73
   18
  0
VERTEX
  8
leaf_3
 10
0.0
 20
0.0
 30
0.0
 70
   128
 71
   17
 72
   3
 73
   13
  0
VERTEX
  8
leaf_3
 10
0.0
 20
0.0
 30
0.0
 70
   128
 71
   13
 72
   18
 73
   17
  0
VERTEX
  8
leaf_3
 10
0.0
 20
0.0
 30
0.0
 70
   128
 71
   18
 72
   13
 73
   4
  0
VERTEX
  8
leaf_3
 10
0.0
 20
0.0
 30
0.0
 70
   128
 71
   6
 72
   18
 73
   15
  0
VERTEX
  8
leaf_3
 10
0.0
 20
0.0
 30
0.0
 70
   128
 71
   18
 72
   4
 73
   14
  0
VERTEX
  8
leaf_3
 10
0.0
 20
0.0
 30
0.0
 70
   128
 71
   14
 72
   15
 73
   18
  0
VERTEX
  8
leaf_3
 10
0.0
 20
0.0
 30
0.0
 70
   128
 71
   15
 72
   14
 73
   1
  0
SEQEND
  0
POLYLINE
  8
leaf_4
 66
   1
 10
0.0
 20
0.0
 30
0.0
 70
   64
 71
   18
 72
   32
  0
VERTEX
  8
leaf_4
 10
3.324121
 20
415.024850
 30
194.269658
 70
   192
  0
VERTEX
  8
leaf_4
 10
108.464281
 20
415.024850
 30
299.409817
 70
   192
  0
VERTEX
  8
leaf_4
 10
213.604440
 20
415.024850
 30
194.269658
 70
   192
  0
VERTEX
  8
leaf_4
 10
108.464281
 20
415.024850
 30
89.129499
 70
   192
  0
VERTEX
  8
leaf_4
 10
108.464281
 20
691.062266
 30
194.269658
 70
   192
  0
VERTEX
  8
leaf_4
 10
108.464281
 20
415.024850
 30
194.269658
 70
   192
  0
VERTEX
  8
leaf_4
 10
108.464281
 20
657.734517
 30
274.729960
 70
   192
  0
VERTEX
  8
leaf_4
 10
34.118961
 20
415.024850
 30
268.614977
 70
   192
  0
VERTEX
  8
leaf_4
 10
28.003978
 20
657.734517
 30
194.269658
 70
   192
  0
VERTEX
  8
leaf_4
 10
188.924583
 20
657.734517
 30
194.269658
 70
   192
  0
VERTEX
  8
leaf_4
 10
182.809600
 20
415.024850
 30
268.614977
 70
   192
  0
VERTEX
  8
leaf_4
 10
108.464281
 20
657.734517
 30
113.809355
 70
   192
  0
VERTEX
  8
leaf_4
 10
182.809600
 20
415.024850
 30
119.924338
 70
   192
  0
VERTEX
  8
leaf_4
 10
34.118961
 20
415.024850
 30
119.924338
 70
   192
  0
VERTEX
  8
leaf_4
 10
34.118961
 20
415.024850
 30
194.269658
 70
   192
  0
VERTEX
  8
leaf_4
 10
108.464281
 20
415.024850
 30
268.614977
 70
   192
  0
VERTEX
  8
leaf_4
 10
182.809600
 20
415.024850
 30
194.269658
 70
   192
  0
VERTEX
  8
leaf_4
 10
108.464281
 20
415.024850
 30
119.924338
 70
   192
  0
VERTEX
  8
leaf_4
 10
0.0
 20
0.0
 30
0.0
 70
   128
 71
   5
 72
   7
 73
   9
  0
VERTEX
  8
leaf_4
 10
0.0
 20
0.0
 30
0.0
 70
   128
 71
   7
 72
   2
 73
   8
  0
VERTEX
  8
leaf_4
 10
0.0
 20
0.0
 30
0.0
 70
   128
 71
   8
 72
   9
 73
   7
  0
VERTEX
  8
leaf_4
 10
0.0
 20
0.0
 30
0.0
 70
   128
 71
   9
 72
   8
 73
   1
  0
VERTEX
  8
leaf_4
 10
0.0
 20
0.0
 30
0.0
 70
   128
 71
   5
 72
   10
 73
   7
  0
VERTEX
  8
leaf_4
 10
0.0
 20
0.0
 30
0.0
 70
   128
 71
   10
 72
   3
 73
   11
  0
VERTEX
  8
leaf_4
 10
0.0
 20
0.0
 30
0.0
 70
   128
 71
   11
 72
   7
 73
   10
  0
VERTEX
  8
leaf_4
 10
0.0
 20
0.0
 30
0.0
 70
   128
 71
   7
 72
   11
 73
   2
  0
VERTEX
  8
leaf_4
 10
0.0
 20
0.0
 30
0.0
 70
   128
 71
   5
 72
   12
 73
   10
  0
VERTEX
  8
leaf_4
 10
0.0
 20
0.0
 30
0.0
 70
   128
 71
   12
 72
   4
 73
   13
  0
VERTEX
  8
leaf_4
 10
0.0
 20
0.0
 30
0.0
 70
   128
 71
   13
 72
   10
 73
   12
  0
VERTEX
  8
leaf_4
 10
0.0
 20
0.0
 30
0.0
 70
   128
 71
   10
 72
   13
 73
   3
  0
VERTEX
  8
leaf_4
 10
0.0
 20
0.0
 30
0.0
 70
   128
 71
   5
 72
   9
 73
   12
  0
VERTEX
  8
leaf_4
 10
0.0
 20
0.0
 30
0.0
 70
   128
 71
   9
 72
   1
 73
   14
  0
VERTEX
  8
leaf_4
 10
0.0
 20
0.0
 30
0.0
 70
   128
 71
   14
 72
   12
 73
   9
  0
VERTEX
  8
leaf_4
 10
0.0
 20
0.0
 30
0.0
 70
   128
 71
   12
 72
   14
 73
   4
  0
VERTEX
  8
leaf_4
 10
0.0
 20
0.0
 30
0.0
 70
   128
 71
   6
 72
   15
 73
   16
  0
VERTEX
  8
leaf_4
 10
0.0
 20
0.0
 30
0.0
 70
   128
 71
   15
 72
   1
 73
   8
  0
VERTEX
  8
leaf_4
 10
0.0
 20
0.0
 30
0.0
 70
   128
 71
   8
 72
   16
 73
   15
  0
VERTEX
  8
leaf_4
 10
0.0
 20
0.0
 30
0.0
 70
   128
 71
   16
 72
   8
 73
   2
  0
VERTEX
  8
leaf_4
 10
0.0
 20
0.0
 30
0.0
 70
   128
 71
   6
 72
   16
 73
   17
  0
VERTEX
  8
leaf_4
 10
0.0
 20
0.0
 30
0.0
 70
   128
 71
   16
 72
   2
 73
   11
  0
VERTEX
  8
leaf_4
 10
0.0
 20
0.0
 30
0.0
 70
   128
 71
   11
 72
   17
 73
   16
  0
VERTEX
  8
leaf_4
 10
0.0
 20
0.0
 30
0.0
 70
   128
 71
   17
 72
   11
 73
   3
  0
VERTEX
  8
leaf_4
 10
0.0
 20
0.0
 30
0.0
 70
   128
 71
   6
 72
   17
 73
   18
  0
VERTEX
  8
leaf_4
 10
0.0
 20
0.0
 30
0.0
 70
   128
 71
   17
 72
   3
 73
   13
  0
VERTEX
  8
leaf_4
 10
0.0
 20
0.0
 30
0.0
 70
   128
 71
   13
 72
   18
 73
   17
  0
VERTEX
  8
leaf_4
 10
0.0
 20
0.0
 30
0.0
 70
   128
 71
   18
 72
   13
 73
   4
  0
VERTEX
  8
leaf_4
 10
0.0
 20
0.0
 30
0.0
 70
   128
 71
   6
 72
   18
 73
   15
  0
VERTEX
  8
leaf_4
 10
0.0
 20
0.0
 30
0.0
 70
   128
 71
   18
 72
   4
 73
   14
  0
VERTEX
  8
leaf_4
 10
0.0
 20
0.0
 30
0.0
 70
   128
 71
   14
 72
   15
 73
   18
  0
VERTEX
  8
leaf_4
 10
0.0
 20
0.0
 30
0.0
 70
   128
 71
   15
 72
   14
 73
   1
  0
SEQEND
  0
POLYLINE
  8
leaf_5
 66
   1
 10
0.0
 20
0.0
 30
0.0
 70
   64
 71
   18
 72
   32
  0
VERTEX
  8
leaf_5
 10
-222.185476
 20
592.516865
 30
0.000000
 70
   192
  0
VERTEX
  8
leaf_5
 10
-13.782452
 20
592.516865
 30
208.403024
 70
   192
  0
VERTEX
  8
leaf_5
 10
194.620572
 20
592.516865
 30
0.000000
 70
   192
  0
VERTEX
  8
leaf_5
 10
-13.782452
 20
592.516865
 30
-208.403024
 70
   192
  0
VERTEX
  8
leaf_5
 10
-13.782452
 20
1020.353803
 30
0.000000
 70
   192
  0
VERTEX
  8
leaf_5
 10
-13.782452
 20
592.516865
 30
0.000000
 70
   192
  0
VERTEX
  8
leaf_5
 10
-13.782452
 20
959.313971
 30
147.363192
 70
   192
  0
VERTEX
  8
leaf_5
 10
-161.145644
 20
592.516865
 30
147.363192
 70
   192
  0
VERTEX
  8
leaf_5
 10
-161.145644
 20
959.313971
 30
0.000000
 70
   192
  0
VERTEX
  8
leaf_5
 10
133.580739
 20
959.313971
 30
0.000000
 70
   192
  0
VERTEX
  8
leaf_5
 10
133.580739
 20
592.516865
 30
147.363192
 70
   192
  0
VERTEX
  8
leaf_5
 10
-13.782452
 20
959.313971
 30
-147.363192
 70
   192
  0
VERTEX
  8
leaf_5
 10
133.580739
 20
592.516865
 30
-147.363192
 70
   192
  0
VERTEX
  8
leaf_5
 10
-161.145644
 20
592.516865
 30
-147.363192
 70
   192
  0
VERTEX
  8
leaf_5
 10
-161.145644
 20
592.516865
 30
0.000000
 70
   192
  0
VERTEX
  8
leaf_5
 10
-13.782452
 20
592.516865
 30
147.363192
 70
   192
  0
VERTEX
  8
leaf_5
 10
133.580739
 20
592.516865
 30
0.000000
 70
   192
  0
VERTEX
  8
leaf_5
 10
-13.782452
 20
592.516865
 30
-147.363192
 70
   192
  0
VERTEX
  8
leaf_5
 10
0.0
 20
0.0
 30
0.0
 70
   128
 71
   5
 72
   7
 73
   9
  0
VERTEX
  8
leaf_5
 10
0.0
 20
0.0
 30
0.0
 70
   128
 71
   7
 72
   2
 73
   8
  0
VERTEX
  8
leaf_5
 10
0.0
 20
0.0
 30
0.0
 70
   128
 71
   8
 72
   9
 73
   7
  0
VERTEX
  8
leaf_5
 10
0.0
 20
0.0
 30
0.0
 70
   128
 71
   9
 72
   8
 73
   1
  0
VERTEX
  8
leaf_5
 10
0.0
 20
0.0
 30
0.0
 70
   128
 71
   5
 72
   10
 73
   7
  0
VERTEX
  8
leaf_5
 10
0.0
 20
0.0
 30
0.0
 70
   128
 71
   10
 72
   3
 73
   11
  0
VERTEX
  8
leaf_5
 10
0.0
 20
0.0
 30
0.0
 70
   128
 71
   11
 72
   7
 73
   10
  0
VERTEX
  8
leaf_5
 10
0.0
 20
0.0
 30
0.0
 70
   128
 71
   7
 72
   11
 73
   2
  0
VERTEX
  8
leaf_5
 10
0.0
 20
0.0
 30
0.0
 70
   128
 71
   5
 72
   12
 73
   10
  0
VERTEX
  8
leaf_5
 10
0.0
 20
0.0
 30
0.0
 70
   128
 71
   12
 72
   4
 73
   13
  0
VERTEX
  8
leaf_5
 10
0.0
 20
0.0
 30
0.0
 70
   128
 71
   13
 72
   10
 73
   12
  0
VERTEX
  8
leaf_5
 10
0.0
 20
0.0
 30
0.0
 70
   128
 71
   10
 72
   13
 73
   3
  0
VERTEX
  8
leaf_5
 10
0.0
 20
0.0
 30
0.0
 70
   128
 71
   5
 72
   9
 73
   12
  0
VERTEX
  8
leaf_5
 10
0.0
 20
0.0
 30
0.0
 70
   128
 71
   9
 72
   1
 73
   14
  0
VERTEX
  8
leaf_5
 10
0.0
 20
0.0
 30
0.0
 70
   128
 71
   14
 72
   12
 73
   9
  0
VERTEX
  8
leaf_5
 10
0.0
 20
0.0
 30
0.0
 70
   128
 71
   12
 72
   14
 73
   4
  0
VERTEX
  8
leaf_5
 10
0.0
 20
0.0
 30
0.0
 70
   128
 71
   6
 72
   15
 73
   16
  0
VERTEX
  8
leaf_5
 10
0.0
 20
0.0
 30
0.0
 70
   128
 71
   15
 72
   1
 73
   8
  0
VERTEX
  8
leaf_5
 10
0.0
 20
0.0
 30
0.0
 70
   128
 71
   8
 72
   16
 73
   15
  0
VERTEX
  8
leaf_5
 10
0.0
 20
0.0
 30
0.0
 70
   128
 71
   16
 72
   8
 73
   2
  0
VERTEX
  8
leaf_5
 10
0.0
 20
0.0
 30
0.0
 70
   128
 71
   6
 72
   16
 73
   17
  0
VERTEX
  8
leaf_5
 10
0.0
 20
0.0
 30
0.0
 70
   128
 71
   16
 72
   2
 73
   11
  0
VERTEX
  8
leaf_5
 10
0.0
 20
0.0
 30
0.0
 70
   128
 71
   11
 72
   17
 73
   16
  0
VERTEX
  8
leaf_5
 10
0.0
 20
0.0
 30
0.0
 70
   128
 71
   17
 72
   11
 73
   3
  0
VERTEX
  8
leaf_5
 10
0.0
 20
0.0
 30
0.0
 70
   128
 71
   6
 72
   17
 73
   18
  0
VERTEX
  8
leaf_5
 10
0.0
 20
0.0
 30
0.0
 70
   128
 71
   17
 72
   3
 73
   13
  0
VERTEX
  8
leaf_5
 10
0.0
 20
0.0
 30
0.0
 70
   128
 71
   13
 72
   18
 73
   17
  0
VERTEX
  8
leaf_5
 10
0.0
 20
0.0
 30
0.0
 70
   128
 71
   18
 72
   13
 73
   4
  0
VERTEX
  8
leaf_5
 10
0.0
 20
0.0
 30
0.0
 70
   128
 71
   6
 72
   18
 73
   15
  0
VERTEX
  8
leaf_5
 10
0.0
 20
0.0
 30
0.0
 70
   128
 71
   18
 72
   4
 73
   14
  0
VERTEX
  8
leaf_5
 10
0.0
 20
0.0
 30
0.0
 70
   128
 71
   14
 72
   15
 73
   18
  0
VERTEX
  8
leaf_5
 10
0.0
 20
0.0
 30
0.0
 70
   128
 71
   15
 72
   14
 73
   1
  0
SEQEND
  0
POLYLINE
  8
bark
 66
   1
 10
0.0
 20
0.0
 30
0.0
 70
   64
 71
   220
 72
   380
  0
VERTEX
  8
bark
 10
-64.627296
 20
291.534660
 30
0.455878
 70
   192
  0
VERTEX
  8
bark
 10
-58.707529
 20
292.968318
 30
-2.194166
 70
   192
  0
VERTEX
  8
bark
 10
-54.084641
 20
297.702472
 30
-2.775913
 70
   192
  0
VERTEX
  8
bark
 10
-52.524416
 20
303.928834
 30
-1.067158
 70
   192
  0
VERTEX
  8
bark
 10
-54.622808
 20
309.269147
 30
2.279415
 70
   192
  0
VERTEX
  8
bark
 10
-59.578302
 20
311.683592
 30
5.985528
 70
   192
  0
VERTEX
  8
bark
 10
-65.498068
 20
310.249934
 30
8.635571
 70
   192
  0
VERTEX
  8
bark
 10
-70.120957
 20
305.515780
 30
9.217319
 70
   192
  0
VERTEX
  8
bark
 10
-71.681182
 20
299.289417
 30
7.508564
 70
   192
  0
VERTEX
  8
bark
 10
-69.582790
 20
293.949105
 30
4.161991
 70
   192
  0
VERTEX
  8
bark
 10
-105.545324
 20
324.245923
 30
-74.646941
 70
   192
  0
VERTEX
  8
bark
 10
-100.474571
 20
325.382581
 30
-76.672579
 70
   192
  0
VERTEX
  8
bark
 10
-96.212476
 20
329.068357
 30
-76.437180
 70
   192
  0
VERTEX
  8
bark
 10
-94.387014
 20
333.895411
 30
-74.030657
 70
   192
  0
VERTEX
  8
bark
 10
-95.695450
 20
338.019972
 30
-70.372220
 70
   192
  0
VERTEX
  8
bark
 10
-99.638005
 20
339.866598
 30
-66.859269
 70
   192
  0
VERTEX
  8
bark
 10
-104.708758
 20
338.729940
 30
-64.833630
 70
   192
  0
VERTEX
  8
bark
 10
-108.970853
 20
335.044163
 30
-65.069030
 70
   192
  0
VERTEX
  8
bark
 10
-110.796315
 20
330.217109
 30
-67.475553
 70
   192
  0
VERTEX
  8
bark
 10
-109.487879
 20
326.092548
 30
-71.133989
 70
   192
  0
VERTEX
  8
bark
 10
-145.708336
 20
404.704200
 30
-145.071277
 70
   192
  0
VERTEX
  8
bark
 10
-141.614511
 20
405.166074
 30
-146.216511
 70
   192
  0
VERTEX
  8
bark
 10
-137.791194
 20
406.874628
 30
-145.005122
 70
   192
  0
VERTEX
  8
bark
 10
-135.698763
 20
409.177251
 30
-141.899821
 70
   192
  0
VERTEX
  8
bark
 10
-136.136455
 20
411.194420
 30
-138.086726
 70
   192
  0
VERTEX
  8
bark
 10
-138.937087
 20
412.155645
 30
-135.022310
 70
   192
  0
VERTEX
  8
bark
 10
-143.030912
 20
411.693771
 30
-133.877076
 70
   192
  0
VERTEX
  8
bark
 10
-146.854229
 20
409.985217
 30
-135.088464
 70
   192
  0
VERTEX
  8
bark
 10
-148.946660
 20
407.682594
 30
-138.193766
 70
   192
  0
VERTEX
  8
bark
 10
-148.508968
 20
405.665425
 30
-142.006861
 70
   192
  0
VERTEX
  8
bark
 10
-155.694974
 20
534.628670
 30
-182.750614
 70
   192
  0
VERTEX
  8
bark
 10
-153.117051
 20
534.656394
 30
-183.393281
 70
   192
  0
VERTEX
  8
bark
 10
-150.676476
 20
535.154637
 30
-182.468711
 70
   192
  0
VERTEX
  8
bark
 10
-149.305468
 20
535.933088
 30
-180.330061
 70
   192
  0
VERTEX
  8
bark
 10
-149.527703
 20
536.694405
 30
-177.794220
 70
   192
  0
VERTEX
  8
bark
 10
-151.258297
 20
537.147791
 30
-175.829795
 70
   192
  0
VERTEX
  8
bark
 10
-153.836220
 20
537.120068
 30
-175.187129
 70
   192
  0
VERTEX
  8
bark
 10
-156.276795
 20
536.621825
 30
-176.111699
 70
   192
  0
VERTEX
  8
bark
 10
-157.647804
 20
535.843374
 30
-178.250349
 70
   192
  0
VERTEX
  8
bark
 10
-157.425568
 20
535.082056
 30
-180.786190
 70
   192
  0
VERTEX
  8
bark
 10
12.424947
 20
328.461775
 30
41.486067
 70
   192
  0
VERTEX
  8
bark
 10
6.931422
 20
330.448445
 30
44.647723
 70
   192
  0
VERTEX
  8
bark
 10
2.574665
 20
335.427473
 30
45.239058
 70
   192
  0
VERTEX
  8
bark
 10
1.018809
 20
341.497042
 30
43.034203
 70
   192
  0
VERTEX
  8
bark
 10
2.858137
 20
346.338782
 30
38.875337
 70
   192
  0
VERTEX
  8
bark
 10
7.390090
 20
348.103312
 30
34.351006
 70
   192
  0
VERTEX
  8
bark
 10
12.883615
 20
346.116643
 30
31.189350
 70
   192
  0
VERTEX
  8
bark
 10
17.240372
 20
341.137615
 30
30.598014
 70
   192
  0
VERTEX
  8
bark
 10
18.796229
 20
335.068046
 30
32.802869
 70
   192
  0
VERTEX
  8
bark
 10
16.956900
 20
330.226306
 30
36.961735
 70
   192
  0
VERTEX
  8
bark
 10
51.502261
 20
358.367372
 30
91.604905
 70
   192
  0
VERTEX
  8
bark
 10
46.856288
 20
360.118199
 30
94.391468
 70
   192
  0
VERTEX
  8
bark
 10
43.076888
 20
364.352708
 30
94.833791
 70
   192
  0
VERTEX
  8
bark
 10
41.607663
 20
369.453460
 30
92.762924
 70
   192
  0
VERTEX
  8
bark
 10
43.009807
 20
373.472142
 30
88.969866
 70
   192
  0
VERTEX
  8
bark
 10
46.747749
 20
374.873754
 30
84.903437
 70
   192
  0
VERTEX
  8
bark
 10
51.393722
 20
373.122927
 30
82.116875
 70
   192
  0
VERTEX
  8
bark
 10
55.173122
 20
368.888417
 30
81.674551
 70
   192
  0
VERTEX
  8
bark
 10
56.642347
 20
363.787665
 30
83.745418
 70
   192
  0
VERTEX
  8
bark
 10
55.240203
 20
359.768983
 30
87.538476
 70
   192
  0
VERTEX
  8
bark
 10
52.257824
 20
359.012529
 30
92.469924
 70
   192
  0
VERTEX
  8
bark
 10
47.748724
 20
360.882963
 30
95.386821
 70
   192
  0
VERTEX
  8
bark
 10
43.878257
 20
365.036747
 30
95.702404
 70
   192
  0
VERTEX
  8
bark
 10
42.124811
 20
369.887278
 30
93.296132
 70
   192
  0
VERTEX
  8
bark
 10
43.158141
 20
373.581816
 30
89.087118
 70
   192
  0
VERTEX
  8
bark
 10
46.583552
 20
374.709175
 30
84.683062
 70
   192
  0
VERTEX
  8
bark
 10
51.092652
 20
372.838742
 30
81.766165
 70
   192
  0
VERTEX
  8
bark
 10
54.963119
 20
368.684958
 30
81.450582
 70
   192
  0
VERTEX
  8
bark
 10
56.716565
 20
363.834427
 30
83.856854
 70
   192
  0
VERTEX
  8
bark
 10
55.683235
 20
360.139888
 30
88.065868
 70
   192
  0
VERTEX
  8
bark
 10
53.131771
 20
359.820987
 30
93.279716
 70
   192
  0
VERTEX
  8
bark
 10
48.496718
 20
361.577711
 30
96.068288
 70
   192
  0
VERTEX
  8
bark
 10
44.345572
 20
365.470005
 30
96.114103
 70
   192
  0
VERTEX
  8
bark
 10
42.263932
 20
370.011143
 30
93.399662
 70
   192
  0
VERTEX
  8
bark
 10
43.046912
 20
373.466566
 30
88.961790
 70
   192
  0
VERTEX
  8
bark
 10
46.395441
 20
374.516420
 30
84.495601
 70
   192
  0
VERTEX
  8
bark
 10
51.030494
 20
372.759696
 30
81.707030
 70
   192
  0
VERTEX
  8
bark
 10
55.181640
 20
368.867402
 30
81.661215
 70
   192
  0
VERTEX
  8
bark
 10
57.263280
 20
364.326264
 30
84.375656
 70
   192
  0
VERTEX
  8
bark
 10
56.480300
 20
360.870840
 30
88.813528
 70
   192
  0
VERTEX
  8
bark
 10
53.282257
 20
360.037421
 30
93.479558
 70
   192
  0
VERTEX
  8
bark
 10
48.291782
 20
361.360363
 30
95.862843
 70
   192
  0
VERTEX
  8
bark
 10
43.913478
 20
364.964011
 30
95.637115
 70
   192
  0
VERTEX
  8
bark
 10
41.819708
 20
369.471892
 30
92.888595
 70
   192
  0
VERTEX
  8
bark
 10
42.810223
 20
373.162149
 30
88.667125
 70
   192
  0
VERTEX
  8
bark
 10
46.506678
 20
374.625231
 30
84.585162
 70
   192
  0
VERTEX
  8
bark
 10
51.497153
 20
373.302288
 30
82.201877
 70
   192
  0
VERTEX
  8
bark
 10
55.875458
 20
369.698641
 30
82.427605
 70
   192
  0
VERTEX
  8
bark
 10
57.969227
 20
365.190760
 30
85.176124
 70
   192
  0
VERTEX
  8
bark
 10
56.978712
 20
361.500502
 30
89.397595
 70
   192
  0
VERTEX
  8
bark
 10
53.548949
 20
360.472165
 30
93.992875
 70
   192
  0
VERTEX
  8
bark
 10
48.345571
 20
361.493218
 30
95.964751
 70
   192
  0
VERTEX
  8
bark
 10
43.934588
 20
365.019878
 30
95.630279
 70
   192
  0
VERTEX
  8
bark
 10
42.000844
 20
369.705082
 30
93.117217
 70
   192
  0
VERTEX
  8
bark
 10
43.282964
 20
373.759240
 30
89.385469
 70
   192
  0
VERTEX
  8
bark
 10
47.291222
 20
375.633803
 30
85.860435
 70
   192
  0
VERTEX
  8
bark
 10
52.494599
 20
374.612750
 30
83.888559
 70
   192
  0
VERTEX
  8
bark
 10
56.905583
 20
371.086090
 30
84.223030
 70
   192
  0
VERTEX
  8
bark
 10
58.839327
 20
366.400886
 30
86.736092
 70
   192
  0
VERTEX
  8
bark
 10
57.557207
 20
362.346728
 30
90.467841
 70
   192
  0
VERTEX
  8
bark
 10
94.799465
 20
425.698656
 30
182.398668
 70
   192
  0
VERTEX
  8
bark
 10
91.047992
 20
426.415114
 30
183.799692
 70
   192
  0
VERTEX
  8
bark
 10
87.805540
 20
428.843891
 30
183.413645
 70
   192
  0
VERTEX
  8
bark
 10
86.310616
 20
432.057276
 30
181.387982
 70
   192
  0
VERTEX
  8
bark
 10
87.134231
 20
434.827865
 30
178.496439
 70
   192
  0
VERTEX
  8
bark
 10
89.961790
 20
436.097388
 30
175.843487
 70
   192
  0
VERTEX
  8
bark
 10
93.713264
 20
435.380929
 30
174.442462
 70
   192
  0
VERTEX
  8
bark
 10
96.955716
 20
432.952153
 30
174.828510
 70
   192
  0
VERTEX
  8
bark
 10
98.450639
 20
429.738768
 30
176.854172
 70
   192
  0
VERTEX
  8
bark
 10
97.627025
 20
426.968179
 30
179.745715
 70
   192
  0
VERTEX
  8
bark
 10
95.403769
 20
426.862148
 30
183.475958
 70
   192
  0
VERTEX
  8
bark
 10
91.739232
 20
427.752368
 30
184.981424
 70
   192
  0
VERTEX
  8
bark
 10
88.403744
 20
429.991089
 30
184.381808
 70
   192
  0
VERTEX
  8
bark
 10
86.671347
 20
432.723196
 30
181.906144
 70
   192
  0
VERTEX
  8
bark
 10
87.203759
 20
434.905117
 30
178.500051
 70
   192
  0
VERTEX
  8
bark
 10
89.797617
 20
435.703433
 30
175.464541
 70
   192
  0
VERTEX
  8
bark
 10
93.462154
 20
434.813213
 30
173.959075
 70
   192
  0
VERTEX
  8
bark
 10
96.797642
 20
432.574492
 30
174.558690
 70
   192
  0
VERTEX
  8
bark
 10
98.530039
 20
429.842384
 30
177.034354
 70
   192
  0
VERTEX
  8
bark
 10
97.997627
 20
427.660463
 30
180.440447
 70
   192
  0
VERTEX
  8
bark
 10
96.129772
 20
428.445106
 30
184.426231
 70
   192
  0
VERTEX
  8
bark
 10
92.482841
 20
429.418090
 30
185.908053
 70
   192
  0
VERTEX
  8
bark
 10
88.930911
 20
431.200555
 30
184.986124
 70
   192
  0
VERTEX
  8
bark
 10
86.830697
 20
433.111660
 30
182.012588
 70
   192
  0
VERTEX
  8
bark
 10
86.984410
 20
434.421427
 30
178.123237
 70
   192
  0
VERTEX
  8
bark
 10
89.333338
 20
434.629571
 30
174.803669
 70
   192
  0
VERTEX
  8
bark
 10
92.980268
 20
433.656586
 30
173.321847
 70
   192
  0
VERTEX
  8
bark
 10
96.532198
 20
431.874121
 30
174.243777
 70
   192
  0
VERTEX
  8
bark
 10
98.632412
 20
429.963017
 30
177.217312
 70
   192
  0
VERTEX
  8
bark
 10
98.478699
 20
428.653249
 30
181.106663
 70
   192
  0
VERTEX
  8
bark
 10
96.633897
 20
430.100247
 30
184.721992
 70
   192
  0
VERTEX
  8
bark
 10
92.908355
 20
430.839086
 30
186.144139
 70
   192
  0
VERTEX
  8
bark
 10
89.151781
 20
431.957833
 30
185.091704
 70
   192
  0
VERTEX
  8
bark
 10
86.799060
 20
433.029164
 30
181.966680
 70
   192
  0
VERTEX
  8
bark
 10
86.748852
 20
433.643869
 30
177.962722
 70
   192
  0
VERTEX
  8
bark
 10
89.020333
 20
433.567150
 30
174.609205
 70
   192
  0
VERTEX
  8
bark
 10
92.745876
 20
432.828311
 30
173.187058
 70
   192
  0
VERTEX
  8
bark
 10
96.502449
 20
431.709564
 30
174.239493
 70
   192
  0
VERTEX
  8
bark
 10
98.855170
 20
430.638232
 30
177.364517
 70
   192
  0
VERTEX
  8
bark
 10
98.905379
 20
430.023528
 30
181.368475
 70
   192
  0
VERTEX
  8
bark
 10
97.115932
 20
432.733246
 30
185.017257
 70
   192
  0
VERTEX
  8
bark
 10
93.363990
 20
433.160539
 30
186.398028
 70
   192
  0
VERTEX
  8
bark
 10
89.562181
 20
433.892176
 30
185.313071
 70
   192
  0
VERTEX
  8
bark
 10
87.162667
 20
434.648696
 30
182.176802
 70
   192
  0
VERTEX
  8
bark
 10
87.081980
 20
435.141134
 30
178.187169
 70
   192
  0
VERTEX
  8
bark
 10
89.350940
 20
435.181395
 30
174.868076
 70
   192
  0
VERTEX
  8
bark
 10
93.102882
 20
434.754102
 30
173.487305
 70
   192
  0
VERTEX
  8
bark
 10
96.904691
 20
434.022465
 30
174.572262
 70
   192
  0
VERTEX
  8
bark
 10
99.304205
 20
433.265945
 30
177.708531
 70
   192
  0
VERTEX
  8
bark
 10
99.384892
 20
432.773507
 30
181.698165
 70
   192
  0
VERTEX
  8
bark
 10
103.192446
 20
487.161406
 30
190.044375
 70
   192
  0
VERTEX
  8
bark
 10
100.125589
 20
487.430959
 30
191.160583
 70
   192
  0
VERTEX
  8
bark
 10
97.014948
 20
487.929358
 30
190.266320
 70
   192
  0
VERTEX
  8
bark
 10
95.048683
 20
488.466231
 30
187.703166
 70
   192
  0
VERTEX
  8
bark
 10
94.977840
 20
488.836510
 30
184.450157
 70
   192
  0
VERTEX
  8
bark
 10
96.829478
 20
488.898762
 30
181.749833
 70
   192
  0
VERTEX
  8
bark
 10
99.896336
 20
488.629209
 30
180.633625
 70
   192
  0
VERTEX
  8
bark
 10
103.006976
 20
488.130810
 30
181.527887
 70
   192
  0
VERTEX
  8
bark
 10
104.973241
 20
487.593938
 30
184.091042
 70
   192
  0
VERTEX
  8
bark
 10
105.044085
 20
487.223658
 30
187.344051
 70
   192
  0
VERTEX
  8
bark
 10
108.464281
 20
532.058023
 30
194.269658
 70
   192
  0
VERTEX
  8
bark
 10
105.976838
 20
532.283085
 30
195.175999
 70
   192
  0
VERTEX
  8
bark
 10
103.454070
 20
532.695371
 30
194.451334
 70
   192
  0
VERTEX
  8
bark
 10
101.859588
 20
533.137401
 30
192.372461
 70
   192
  0
VERTEX
  8
bark
 10
101.802430
 20
533.440335
 30
189.733438
 70
   192
  0
VERTEX
  8
bark
 10
103.304428
 20
533.488462
 30
187.542282
 70
   192
  0
VERTEX
  8
bark
 10
105.791871
 20
533.263400
 30
186.635941
 70
   192
  0
VERTEX
  8
bark
 10
108.314639
 20
532.851115
 30
187.360606
 70
   192
  0
VERTEX
  8
bark
 10
109.909121
 20
532.409085
 30
189.439479
 70
   192
  0
VERTEX
  8
bark
 10
109.966279
 20
532.106151
 30
192.078502
 70
   192
  0
VERTEX
  8
bark
 10
-11.044996
 20
-0.294285
 30
46.807973
 70
   192
  0
VERTEX
  8
bark
 10
-35.698296
 20
-0.774464
 30
30.487340
 70
   192
  0
VERTEX
  8
bark
 10
-46.268197
 20
-0.958825
 30
2.521579
 70
   192
  0
VERTEX
  8
bark
 10
-38.717358
 20
-0.776946
 30
-26.407339
 70
   192
  0
VERTEX
  8
bark
 10
-15.929941
 20
-0.298301
 30
-45.249551
 70
   192
  0
VERTEX
  8
bark
 10
13.390034
 20
0.294285
 30
-46.807973
 70
   192
  0
VERTEX
  8
bark
 10
38.043334
 20
0.774464
 30
-30.487340
 70
   192
  0
VERTEX
  8
bark
 10
48.613235
 20
0.958825
 30
-2.521579
 70
   192
  0
VERTEX
  8
bark
 10
41.062396
 20
0.776946
 30
26.407339
 70
   192
  0
VERTEX
  8
bark
 10
18.274979
 20
0.298301
 30
45.249551
 70
   192
  0
VERTEX
  8
bark
 10
-66.530450
 20
294.825901
 30
29.868393
 70
   192
  0
VERTEX
  8
bark
 10
-83.368232
 20
304.412709
 30
21.556846
 70
   192
  0
VERTEX
  8
bark
 10
-92.083341
 20
312.928643
 30
6.241515
 70
   192
  0
VERTEX
  8
bark
 10
-89.346902
 20
317.120907
 30
-10.227664
 70
   192
  0
VERTEX
  8
bark
 10
-76.204142
 20
315.388197
 30
-21.560023
 70
   192
  0
VERTEX
  8
bark
 10
-57.675148
 20
308.392351
 30
-23.426987
 70
   192
  0
VERTEX
  8
bark
 10
-40.837366
 20
298.805543
 30
-15.115440
 70
   192
  0
VERTEX
  8
bark
 10
-32.122257
 20
290.289609
 30
0.199891
 70
   192
  0
VERTEX
  8
bark
 10
-34.858696
 20
286.097345
 30
16.669070
 70
   192
  0
VERTEX
  8
bark
 10
-48.001456
 20
287.830055
 30
28.001429
 70
   192
  0
VERTEX
  8
bark
 10
0.233771
 20
334.002323
 30
62.587324
 70
   192
  0
VERTEX
  8
bark
 10
-12.329536
 20
342.045569
 30
55.986963
 70
   192
  0
VERTEX
  8
bark
 10
-19.002960
 20
348.651467
 30
43.537500
 70
   192
  0
VERTEX
  8
bark
 10
-17.237481
 20
351.296789
 30
29.994206
 70
   192
  0
VERTEX
  8
bark
 10
-7.707450
 20
348.971112
 30
20.530160
 70
   192
  0
VERTEX
  8
bark
 10
5.946983
 20
342.562765
 30
18.760304
 70
   192
  0
VERTEX
  8
bark
 10
18.510290
 20
334.519519
 30
25.360665
 70
   192
  0
VERTEX
  8
bark
 10
25.183715
 20
327.913621
 30
37.810128
 70
   192
  0
VERTEX
  8
bark
 10
23.418235
 20
325.268299
 30
51.353422
 70
   192
  0
VERTEX
  8
bark
 10
13.888204
 20
327.593976
 30
60.817468
 70
   192
  0
VERTEX
  8
bark
 10
-4.050816
 20
477.404521
 30
43.188937
 70
   192
  0
VERTEX
  8
bark
 10
-11.642509
 20
475.714105
 30
41.389830
 70
   192
  0
VERTEX
  8
bark
 10
-16.608592
 20
473.222177
 30
35.497509
 70
   192
  0
VERTEX
  8
bark
 10
-17.052190
 20
470.880568
 30
27.762640
 70
   192
  0
VERTEX
  8
bark
 10
-12.803864
 20
469.583693
 30
21.139680
 70
   192
  0
VERTEX
  8
bark
 10
-5.486329
 20
469.826914
 30
18.158374
 70
   192
  0
VERTEX
  8
bark
 10
2.105365
 20
471.517330
 30
19.957480
 70
   192
  0
VERTEX
  8
bark
 10
7.071448
 20
474.009258
 30
25.849801
 70
   192
  0
VERTEX
  8
bark
 10
7.515046
 20
476.350867
 30
33.584670
 70
   192
  0
VERTEX
  8
bark
 10
3.266719
 20
477.647742
 30
40.207631
 70
   192
  0
VERTEX
  8
bark
 10
-31.758382
 20
578.568622
 30
-21.588837
 70
   192
  0
VERTEX
  8
bark
 10
-34.547168
 20
577.578328
 30
-22.051489
 70
   192
  0
VERTEX
  8
bark
 10
-36.297674
 20
576.067965
 30
-23.955849
 70
   192
  0
VERTEX
  8
bark
 10
-36.341266
 20
574.614440
 30
-26.574517
 70
   192
  0
VERTEX
  8
bark
 10
-34.661293
 20
573.772949
 30
-28.907249
 70
   192
  0
VERTEX
  8
bark
 10
-31.899449
 20
573.864915
 30
-30.063022
 70
   192
  0
VERTEX
  8
bark
 10
-29.110663
 20
574.855208
 30
-29.600370
 70
   192
  0
VERTEX
  8
bark
 10
-27.360157
 20
576.365571
 30
-27.696010
 70
   192
  0
VERTEX
  8
bark
 10
-27.316565
 20
577.819097
 30
-25.077343
 70
   192
  0
VERTEX
  8
bark
 10
-28.996538
 20
578.660587
 30
-22.744610
 70
   192
  0
VERTEX
  8
bark
 10
0.0
 20
0.0
 30
0.0
 70
   128
 71
   1
 72
   2
 73
   12
  0
VERTEX
  8
bark
 10
0.0
 20
0.0
 30
0.0
 70
   128
 71
   2
 72
   3
 73
   13
  0
VERTEX
  8
bark
 10
0.0
 20
0.0
 30
0.0
 70
   128
 71
   3
 72
   4
 73
   14
  0
VERTEX
  8
bark
 10
0.0
 20
0.0
 30
0.0
 70
   128
 71
   4
 72
   5
 73
   15
  0
VERTEX
  8
bark
 10
0.0
 20
0.0
 30
0.0
 70
   128
 71
   5
 72
   6
 73
   16
  0
VERTEX
  8
bark
 10
0.0
 20
0.0
 30
0.0
 70
   128
 71
   6
 72
   7
 73
   17
  0
VERTEX
  8
bark
 10
0.0
 20
0.0
 30
0.0
 70
   128
 71
   7
 72
   8
 73
   18
  0
VERTEX
  8
bark
 10
0.0
 20
0.0
 30
0.0
 70
   128
 71
   8
 72
   9
 73
   19
  0
VERTEX
  8
bark
 10
0.0
 20
0.0
 30
0.0
 70
   128
 71
   9
 72
   10
 73
   20
  0
VERTEX
  8
bark
 10
0.0
 20
0.0
 30
0.0
 70
   128
 71
   10
 72
   1
 73
   11
  0
VERTEX
  8
bark
 10
0.0
 20
0.0
 30
0.0
 70
   128
 71
   11
 72
   12
 73
   22
  0
VERTEX
  8
bark
 10
0.0
 20
0.0
 30
0.0
 70
   128
 71
   12
 72
   13
 73
   23
  0
VERTEX
  8
bark
 10
0.0
 20
0.0
 30
0.0
 70
   128
 71
   13
 72
   14
 73
   24
  0
VERTEX
  8
bark
 10
0.0
 20
0.0
 30
0.0
 70
   128
 71
   14
 72
   15
 73
   25
  0
VERTEX
  8
bark
 10
0.0
 20
0.0
 30
0.0
 70
   128
 71
   15
 72
   16
 73
   26
  0
VERTEX
  8
bark
 10
0.0
 20
0.0
 30
0.0
 70
   128
 71
   16
 72
   17
 73
   27
  0
VERTEX
  8
bark
 10
0.0
 20
0.0
 30
0.0
 70
   128
 71
   17
 72
   18
 73
   28
  0
VERTEX
  8
bark
 10
0.0
 20
0.0
 30
0.0
 70
   128
 71
   18
 72
   19
 73
   29
  0
VERTEX
  8
bark
 10
0.0
 20
0.0
 30
0.0
 70
   128
 71
   19
 72
   20
 73
   30
  0
VERTEX
  8
bark
 10
0.0
 20
0.0
 30
0.0
 70
   128
 71
   20
 72
   11
 73
   21
  0
VERTEX
  8
bark
 10
0.0
 20
0.0
 30
0.0
 70
   128
 71
   21
 72
   22
 73
   32
  0
VERTEX
  8
bark
 10
0.0
 20
0.0
 30
0.0
 70
   128
 71
   22
 72
   23
 73
   33
  0
VERTEX
  8
bark
 10
0.0
 20
0.0
 30
0.0
 70
   128
 71
   23
 72
   24
 73
   34
  0
VERTEX
  8
bark
 10
0.0
 20
0.0
 30
0.0
 70
   128
 71
   24
 72
   25
 73
   35
  0
VERTEX
  8
bark
 10
0.0
 20
0.0
 30
0.0
 70
   128
 71
   25
 72
   26
 73
   36
  0
VERTEX
  8
bark
 10
0.0
 20
0.0
 30
0.0
 70
   128
 71
   26
 72
   27
 73
   37
  0
VERTEX
  8
bark
 10
0.0
 20
0.0
 30
0.0
 70
   128
 71
   27
 72
   28
 73
   38
  0
VERTEX
  8
bark
 10
0.0
 20
0.0
 30
0.0
 70
   128
 71
   28
 72
   29
 73
   39
  0
VERTEX
  8
bark
 10
0.0
 20
0.0
 30
0.0
 70
   128
 71
   29
 72
   30
 73
   40
  0
VERTEX
  8
bark
 10
0.0
 20
0.0
 30
0.0
 70
   128
 71
   30
 72
   21
 73
   31
  0
VERTEX
  8
bark
 10
0.0
 20
0.0
 30
0.0
 70
   128
 71
   41
 72
   42
 73
   52
  0
VERTEX
  8
bark
 10
0.0
 20
0.0
 30
0.0
 70
   128
 71
   42
 72
   43
 73
   53
  0
VERTEX
  8
bark
 10
0.0
 20
0.0
 30
0.0
 70
   128
 71
   43
 72
   44
 73
   54
  0
VERTEX
  8
bark
 10
0.0
 20
0.0
 30
0.0
 70
   128
 71
   44
 72
   45
 73
   55
  0
VERTEX
  8
bark
 10
0.0
 20
0.0
 30
0.0
 70
   128
 71
   45
 72
   46
 73
   56
  0
VERTEX
  8
bark
 10
0.0
 20
0.0
 30
0.0
 70
   128
 71
   46
 72
   47
 73
   57
  0
VERTEX
  8
bark
 10
0.0
 20
0.0
 30
0.0
 70
   128
 71
   47
 72
   48
 73
   58
  0
VERTEX
  8
bark
 10
0.0
 20
0.0
 30
0.0
 70
   128
 71
   48
 72
   49
 73
   59
  0
VERTEX
  8
bark
 10
0.0
 20
0.0
 30
0.0
 70
   128
 71
   49
 72
   50
 73
   60
  0
VERTEX
  8
bark
 10
0.0
 20
0.0
 30
0.0
 70
   128
 71
   50
 72
   41
 73
   51
  0
VERTEX
  8
bark
 10
0.0
 20
0.0
 30
0.0
 70
   128
 71
   51
 72
   52
 73
   62
  0
VERTEX
  8
bark
 10
0.0
 20
0.0
 30
0.0
 70
   128
 71
   52
 72
   53
 73
   63
  0
VERTEX
  8
bark
 10
0.0
 20
0.0
 30
0.0
 70
   128
 71
   53
 72
   54
 73
   64
  0
VERTEX
  8
bark
 10
0.0
 20
0.0
 30
0.0
 70
   128
 71
   54
 72
   55
 73
   65
  0
VERTEX
  8
bark
 10
0.0
 20
0.0
 30
0.0
 70
   128
 71
   55
 72
   56
 73
   65
  0
VERTEX
  8
bark
 10
0.0
 20
0.0
 30
0.0
 70
   128
 71
   56
 72
   57
 73
   67
  0
VERTEX
  8
bark
 10
0.0
 20
0.0
 30
0.0
 70
   128
 71
   57
 72
   58
 73
   68
  0
VERTEX
  8
bark
 10
0.0
 20
0.0
 30
0.0
 70
   128
 71
   58
 72
   59
 73
   69
  0
VERTEX
  8
bark
 10
0.0
 20
0.0
 30
0.0
 70
   128
 71
   59
 72
   60
 73
   70
  0
VERTEX
  8
bark
 10
0.0
 20
0.0
 30
0.0
 70
   128
 71
   60
 72
   51
 73
   61
  0
VERTEX
  8
bark
 10
0.0
 20
0.0
 30
0.0
 70
   128
 71
   61
 72
   62
 73
   72
  0
VERTEX
  8
bark
 10
0.0
 20
0.0
 30
0.0
 70
   128
 71
   62
 72
   63
 73
   73
  0
VERTEX
  8
bark
 10
0.0
 20
0.0
 30
0.0
 70
   128
 71
   63
 72
   64
 73
   74
  0
VERTEX
  8
bark
 10
0.0
 20
0.0
 30
0.0
 70
   128
 71
   64
 72
   65
 73
   75
  0
VERTEX
  8
bark
 10
0.0
 20
0.0
 30
0.0
 70
   128
 71
   65
 72
   66
 73
   76
  0
VERTEX
  8
bark
 10
0.0
 20
0.0
 30
0.0
 70
   128
 71
   66
 72
   67
 73
   77
  0
VERTEX
  8
bark
 10
0.0
 20
0.0
 30
0.0
 70
   128
 71
   67
 72
   68
 73
   77
  0
VERTEX
  8
bark
 10
0.0
 20
0.0
 30
0.0
 70
   128
 71
   68
 72
   69
 73
   79
  0
VERTEX
  8
bark
 10
0.0
 20
0.0
 30
0.0
 70
   128
 71
   69
 72
   70
 73
   80
  0
VERTEX
  8
bark
 10
0.0
 20
0.0
 30
0.0
 70
   128
 71
   70
 72
   61
 73
   71
  0
VERTEX
  8
bark
 10
0.0
 20
0.0
 30
0.0
 70
   128
 71
   71
 72
   72
 73
   81
  0
VERTEX
  8
bark
 10
0.0
 20
0.0
 30
0.0
 70
   128
 71
   72
 72
   73
 73
   83
  0
VERTEX
  8
bark
 10
0.0
 20
0.0
 30
0.0
 70
   128
 71
   73
 72
   74
 73
   84
  0
VERTEX
  8
bark
 10
0.0
 20
0.0
 30
0.0
 70
   128
 71
   74
 72
   75
 73
   85
  0
VERTEX
  8
bark
 10
0.0
 20
0.0
 30
0.0
 70
   128
 71
   75
 72
   76
 73
   86
  0
VERTEX
  8
bark
 10
0.0
 20
0.0
 30
0.0
 70
   128
 71
   76
 72
   77
 73
   87
  0
VERTEX
  8
bark
 10
0.0
 20
0.0
 30
0.0
 70
   128
 71
   77
 72
   78
 73
   88
  0
VERTEX
  8
bark
 10
0.0
 20
0.0
 30
0.0
 70
   128
 71
   78
 72
   79
 73
   89
  0
VERTEX
  8
bark
 10
0.0
 20
0.0
 30
0.0
 70
   128
 71
   79
 72
   80
 73
   90
  0
VERTEX
  8
bark
 10
0.0
 20
0.0
 30
0.0
 70
   128
 71
   80
 72
   71
 73
   81
  0
VERTEX
  8
bark
 10
0.0
 20
0.0
 30
0.0
 70
   128
 71
   81
 72
   82
 73
   92
  0
VERTEX
  8
bark
 10
0.0
 20
0.0
 30
0.0
 70
   128
 71
   82
 72
   83
 73
   93
  0
VERTEX
  8
bark
 10
0.0
 20
0.0
 30
0.0
 70
   128
 71
   83
 72
   84
 73
   94
  0
VERTEX
  8
bark
 10
0.0
 20
0.0
 30
0.0
 70
   128
 71
   84
 72
   85
 73
   95
  0
VERTEX
  8
bark
 10
0.0
 20
0.0
 30
0.0
 70
   128
 71
   85
 72
   86
 73
   96
  0
VERTEX
  8
bark
 10
0.0
 20
0.0
 30
0.0
 70
   128
 71
   86
 72
   87
 73
   97
  0
VERTEX
  8
bark
 10
0.0
 20
0.0
 30
0.0
 70
   128
 71
   87
 72
   88
 73
   98
  0
VERTEX
  8
bark
 10
0.0
 20
0.0
 30
0.0
 70
   128
 71
   88
 72
   89
 73
   99
  0
VERTEX
  8
bark
 10
0.0
 20
0.0
 30
0.0
 70
   128
 71
   89
 72
   90
 73
   100
  0
VERTEX
  8
bark
 10
0.0
 20
0.0
 30
0.0
 70
   128
 71
   90
 72
   81
 73
   91
  0
VERTEX
  8
bark
 10
0.0
 20
0.0
 30
0.0
 70
   128
 71
   91
 72
   92
 73
   102
  0
VERTEX
  8
bark
 10
0.0
 20
0.0
 30
0.0
 70
   128
 71
   92
 72
   93
 73
   103
  0
VERTEX
  8
bark
 10
0.0
 20
0.0
 30
0.0
 70
   128
 71
   93
 72
   94
 73
   104
  0
VERTEX
  8
bark
 10
0.0
 20
0.0
 30
0.0
 70
   128
 71
   94
 72
   95
 73
   105
  0
VERTEX
  8
bark
 10
0.0
 20
0.0
 30
0.0
 70
   128
 71
   95
 72
   96
 73
   106
  0
VERTEX
  8
bark
 10
0.0
 20
0.0
 30
0.0
 70
   128
 71
   96
 72
   97
 73
   107
  0
VERTEX
  8
bark
 10
0.0
 20
0.0
 30
0.0
 70
   128
 71
   97
 72
   98
 73
   108
  0
VERTEX
  8
bark
 10
0.0
 20
0.0
 30
0.0
 70
   128
 71
   98
 72
   99
 73
   109
  0
VERTEX
  8
bark
 10
0.0
 20
0.0
 30
0.0
 70
   128
 71
   99
 72
   100
 73
   110
  0
VERTEX
  8
bark
 10
0.0
 20
0.0
 30
0.0
 70
   128
 71
   100
 72
   91
 73
   101
  0
VERTEX
  8
bark
 10
0.0
 20
0.0
 30
0.0
 70
   128
 71
   101
 72
   102
 73
   112
  0
VERTEX
  8
bark
 10
0.0
 20
0.0
 30
0.0
 70
   128
 71
   102
 72
   103
 73
   113
  0
VERTEX
  8
bark
 10
0.0
 20
0.0
 30
0.0
 70
   128
 71
   103
 72
   104
 73
   114
  0
VERTEX
  8
bark
 10
0.0
 20
0.0
 30
0.0
 70
   128
 71
   104
 72
   105
 73
   115
  0
VERTEX
  8
bark
 10
0.0
 20
0.0
 30
0.0
 70
   128
 71
   105
 72
   106
 73
   115
  0
VERTEX
  8
bark
 10
0.0
 20
0.0
 30
0.0
 70
   128
 71
   106
 72
   107
 73
   117
  0
VERTEX
  8
bark
 10
0.0
 20
0.0
 30
0.0
 70
   128
 71
   107
 72
   108
 73
   118
  0
VERTEX
  8
bark
 10
0.0
 20
0.0
 30
0.0
 70
   128
 71
   108
 72
   109
 73
   119
  0
VERTEX
  8
bark
 10
0.0
 20
0.0
 30
0.0
 70
   128
 71
   109
 72
   110
 73
   120
  0
VERTEX
  8
bark
 10
0.0
 20
0.0
 30
0.0
 70
   128
 71
   110
 72
   101
 73
   111
  0
VERTEX
  8
bark
 10
0.0
 20
0.0
 30
0.0
 70
   128
 71
   111
 72
   112
 73
   122
  0
VERTEX
  8
bark
 10
0.0
 20
0.0
 30
0.0
 70
   128
 71
   112
 72
   113
 73
   123
  0
VERTEX
  8
bark
 10
0.0
 20
0.0
 30
0.0
 70
   128
 71
   113
 72
   114
 73
   124
  0
VERTEX
  8
bark
 10
0.0
 20
0.0
 30
0.0
 70
   128
 71
   114
 72
   115
 73
   124
  0
VERTEX
  8
bark
 10
0.0
 20
0.0
 30
0.0
 70
   128
 71
   115
 72
   116
 73
   126
  0
VERTEX
  8
bark
 10
0.0
 20
0.0
 30
0.0
 70
   128
 71
   116
 72
   117
 73
   127
  0
VERTEX
  8
bark
 10
0.0
 20
0.0
 30
0.0
 70
   128
 71
   117
 72
   118
 73
   128
  0
VERTEX
  8
bark
 10
0.0
 20
0.0
 30
0.0
 70
   128
 71
   118
 72
   119
 73
   129
  0
VERTEX
  8
bark
 10
0.0
 20
0.0
 30
0.0
 70
   128
 71
   119
 72
   120
 73
   130
  0
VERTEX
  8
bark
 10
0.0
 20
0.0
 30
0.0
 70
   128
 71
   120
 72
   111
 73
   121
  0
VERTEX
  8
bark
 10
0.0
 20
0.0
 30
0.0
 70
   128
 71
   121
 72
   122
 73
   132
  0
VERTEX
  8
bark
 10
0.0
 20
0.0
 30
0.0
 70
   128
 71
   122
 72
   123
 73
   133
  0
VERTEX
  8
bark
 10
0.0
 20
0.0
 30
0.0
 70
   128
 71
   123
 72
   124
 73
   134
  0
VERTEX
  8
bark
 10
0.0
 20
0.0
 30
0.0
 70
   128
 71
   124
 72
   125
 73
   135
  0
VERTEX
  8
bark
 10
0.0
 20
0.0
 30
0.0
 70
   128
 71
   125
 72
   126
 73
   136
  0
VERTEX
  8
bark
 10
0.0
 20
0.0
 30
0.0
 70
   128
 71
   126
 72
   127
 73
   137
  0
VERTEX
  8
bark
 10
0.0
 20
0.0
 30
0.0
 70
   128
 71
   127
 72
   128
 73
   138
  0
VERTEX
  8
bark
 10
0.0
 20
0.0
 30
0.0
 70
   128
 71
   128
 72
   129
 73
   138
  0
VERTEX
  8
bark
 10
0.0
 20
0.0
 30
0.0
 70
   128
 71
   129
 72
   130
 73
   140
  0
VERTEX
  8
bark
 10
0.0
 20
0.0
 30
0.0
 70
   128
 71
   130
 72
   121
 73
   131
  0
VERTEX
  8
bark
 10
0.0
 20
0.0
 30
0.0
 70
   128
 71
   131
 72
   132
 73
   142
  0
VERTEX
  8
bark
 10
0.0
 20
0.0
 30
0.0
 70
   128
 71
   132
 72
   133
 73
   143
  0
VERTEX
  8
bark
 10
0.0
 20
0.0
 30
0.0
 70
   128
 71
   133
 72
   134
 73
   144
  0
VERTEX
  8
bark
 10
0.0
 20
0.0
 30
0.0
 70
   128
 71
   134
 72
   135
 73
   145
  0
VERTEX
  8
bark
 10
0.0
 20
0.0
 30
0.0
 70
   128
 71
   135
 72
   136
 73
   146
  0
VERTEX
  8
bark
 10
0.0
 20
0.0
 30
0.0
 70
   128
 71
   136
 72
   137
 73
   147
  0
VERTEX
  8
bark
 10
0.0
 20
0.0
 30
0.0
 70
   128
 71
   137
 72
   138
 73
   148
  0
VERTEX
  8
bark
 10
0.0
 20
0.0
 30
0.0
 70
   128
 71
   138
 72
   139
 73
   149
  0
VERTEX
  8
bark
 10
0.0
 20
0.0
 30
0.0
 70
   128
 71
   139
 72
   140
 73
   150
  0
VERTEX
  8
bark
 10
0.0
 20
0.0
 30
0.0
 70
   128
 71
   140
 72
   131
 73
   141
  0
VERTEX
  8
bark
 10
0.0
 20
0.0
 30
0.0
 70
   128
 71
   141
 72
   142
 73
   152
  0
VERTEX
  8
bark
 10
0.0
 20
0.0
 30
0.0
 70
   128
 71
   142
 72
   143
 73
   153
  0
VERTEX
  8
bark
 10
0.0
 20
0.0
 30
0.0
 70
   128
 71
   143
 72
   144
 73
   154
  0
VERTEX
  8
bark
 10
0.0
 20
0.0
 30
0.0
 70
   128
 71
   144
 72
   145
 73
   155
  0
VERTEX
  8
bark
 10
0.0
 20
0.0
 30
0.0
 70
   128
 71
   145
 72
   146
 73
   156
  0
VERTEX
  8
bark
 10
0.0
 20
0.0
 30
0.0
 70
   128
 71
   146
 72
   147
 73
   157
  0
VERTEX
  8
bark
 10
0.0
 20
0.0
 30
0.0
 70
   128
 71
   147
 72
   148
 73
   158
  0
VERTEX
  8
bark
 10
0.0
 20
0.0
 30
0.0
 70
   128
 71
   148
 72
   149
 73
   159
  0
VERTEX
  8
bark
 10
0.0
 20
0.0
 30
0.0
 70
   128
 71
   149
 72
   150
 73
   160
  0
VERTEX
  8
bark
 10
0.0
 20
0.0
 30
0.0
 70
   128
 71
   150
 72
   141
 73
   151
  0
VERTEX
  8
bark
 10
0.0
 20
0.0
 30
0.0
 70
   128
 71
   151
 72
   152
 73
   162
  0
VERTEX
  8
bark
 10
0.0
 20
0.0
 30
0.0
 70
   128
 71
   152
 72
   153
 73
   163
  0
VERTEX
  8
bark
 10
0.0
 20
0.0
 30
0.0
 70
   128
 71
   153
 72
   154
 73
   164
  0
VERTEX
  8
bark
 10
0.0
 20
0.0
 30
0.0
 70
   128
 71
   154
 72
   155
 73
   165
  0
VERTEX
  8
bark
 10
0.0
 20
0.0
 30
0.0
 70
   128
 71
   155
 72
   156
 73
   166
  0
VERTEX
  8
bark
 10
0.0
 20
0.0
 30
0.0
 70
   128
 71
   156
 72
   157
 73
   167
  0
VERTEX
  8
bark
 10
0.0
 20
0.0
 30
0.0
 70
   128
 71
   157
 72
   158
 73
   168
  0
VERTEX
  8
bark
 10
0.0
 20
0.0
 30
0.0
 70
   128
 71
   158
 72
   159
 73
   169
  0
VERTEX
  8
bark
 10
0.0
 20
0.0
 30
0.0
 70
   128
 71
   159
 72
   160
 73
   170
  0
VERTEX
  8
bark
 10
0.0
 20
0.0
 30
0.0
 70
   128
 71
   160
 72
   151
 73
   161
  0
VERTEX
  8
bark
 10
0.0
 20
0.0
 30
0.0
 70
   128
 71
   171
 72
   172
 73
   182
  0
VERTEX
  8
bark
 10
0.0
 20
0.0
 30
0.0
 70
   128
 71
   172
 72
   173
 73
   183
  0
VERTEX
  8
bark
 10
0.0
 20
0.0
 30
0.0
 70
   128
 71
   173
 72
   174
 73
   184
  0
VERTEX
  8
bark
 10
0.0
 20
0.0
 30
0.0
 70
   128
 71
   174
 72
   175
 73
   185
  0
VERTEX
  8
bark
 10
0.0
 20
0.0
 30
0.0
 70
   128
 71
   175
 72
   176
 73
   186
  0
VERTEX
  8
bark
 10
0.0
 20
0.0
 30
0.0
 70
   128
 71
   176
 72
   177
 73
   187
  0
VERTEX
  8
bark
 10
0.0
 20
0.0
 30
0.0
 70
   128
 71
   177
 72
   178
 73
   188
  0
VERTEX
  8
bark
 10
0.0
 20
0.0
 30
0.0
 70
   128
 71
   178
 72
   179
 73
   189
  0
VERTEX
  8
bark
 10
0.0
 20
0.0
 30
0.0
 70
   128
 71
   179
 72
   180
 73
   190
  0
VERTEX
  8
bark
 10
0.0
 20
0.0
 30
0.0
 70
   128
 71
   180
 72
   171
 73
   181
  0
VERTEX
  8
bark
 10
0.0
 20
0.0
 30
0.0
 70
   128
 71
   181
 72
   182
 73
   192
  0
VERTEX
  8
bark
 10
0.0
 20
0.0
 30
0.0
 70
   128
 71
   182
 72
   183
 73
   193
  0
VERTEX
  8
bark
 10
0.0
 20
0.0
 30
0.0
 70
   128
 71
   183
 72
   184
 73
   194
  0
VERTEX
  8
bark
 10
0.0
 20
0.0
 30
0.0
 70
   128
 71
   184
 72
   185
 73
   195
  0
VERTEX
  8
bark
 10
0.0
 20
0.0
 30
0.0
 70
   128
 71
   185
 72
   186
 73
   196
  0
VERTEX
  8
bark
 10
0.0
 20
0.0
 30
0.0
 70
   128
 71
   186
 72
   187
 73
   197
  0
VERTEX
  8
bark
 10
0.0
 20
0.0
 30
0.0
 70
   128
 71
   187
 72
   188
 73
   198
  0
VERTEX
  8
bark
 10
0.0
 20
0.0
 30
0.0
 70
   128
 71
   188
 72
   189
 73
   199
  0
VERTEX
  8
bark
 10
0.0
 20
0.0
 30
0.0
 70
   128
 71
   189
 72
   190
 73
   200
  0
VERTEX
  8
bark
 10
0.0
 20
0.0
 30
0.0
 70
   128
 71
   190
 72
   181
 73
   191
  0
VERTEX
  8
bark
 10
0.0
 20
0.0
 30
0.0
 70
   128
 71
   191
 72
   192
 73
   202
  0
VERTEX
  8
bark
 10
0.0
 20
0.0
 30
0.0
 70
   128
 71
   192
 72
   193
 73
   203
  0
VERTEX
  8
bark
 10
0.0
 20
0.0
 30
0.0
 70
   128
 71
   193
 72
   194
 73
   204
  0
VERTEX
  8
bark
 10
0.0
 20
0.0
 30
0.0
 70
   128
 71
   194
 72
   195
 73
   205
  0
VERTEX
  8
bark
 10
0.0
 20
0.0
 30
0.0
 70
   128
 71
   195
 72
   196
 73
   206
  0
VERTEX
  8
bark
 10
0.0
 20
0.0
 30
0.0
 70
   128
 71
   196
 72
   197
 73
   207
  0
VERTEX
  8
bark
 10
0.0
 20
0.0
 30
0.0
 70
   128
 71
   197
 72
   198
 73
   208
  0
VERTEX
  8
bark
 10
0.0
 20
0.0
 30
0.0
 70
   128
 71
   198
 72
   199
 73
   209
  0
VERTEX
  8
bark
 10
0.0
 20
0.0
 30
0.0
 70
   128
 71
   199
 72
   200
 73
   210
  0
VERTEX
  8
bark
 10
0.0
 20
0.0
 30
0.0
 70
   128
 71
   200
 72
   191
 73
   201
  0
VERTEX
  8
bark
 10
0.0
 20
0.0
 30
0.0
 70
   128
 71
   201
 72
   202
 73
   212
  0
VERTEX
  8
bark
 10
0.0
 20
0.0
 30
0.0
 70
   128
 71
   202
 72
   203
 73
   213
  0
VERTEX
  8
bark
 10
0.0
 20
0.0
 30
0.0
 70
   128
 71
   203
 72
   204
 73
   214
  0
VERTEX
  8
bark
 10
0.0
 20
0.0
 30
0.0
 70
   128
 71
   204
 72
   205
 73
   215
  0
VERTEX
  8
bark
 10
0.0
 20
0.0
 30
0.0
 70
   128
 71
   205
 72
   206
 73
   216
  0
VERTEX
  8
bark
 10
0.0
 20
0.0
 30
0.0
 70
   128
 71
   206
 72
   207
 73
   217
  0
VERTEX
  8
bark
 10
0.0
 20
0.0
 30
0.0
 70
   128
 71
   207
 72
   208
 73
   218
  0
VERTEX
  8
bark
 10
0.0
 20
0.0
 30
0.0
 70
   128
 71
   208
 72
   209
 73
   219
  0
VERTEX
  8
bark
 10
0.0
 20
0.0
 30
0.0
 70
   128
 71
   209
 72
   210
 73
   220
  0
VERTEX
  8
bark
 10
0.0
 20
0.0
 30
0.0
 70
   128
 71
   210
 72
   201
 73
   211
  0
VERTEX
  8
bark
 10
0.0
 20
0.0
 30
0.0
 70
   128
 71
   1
 72
   12
 73
   11
  0
VERTEX
  8
bark
 10
0.0
 20
0.0
 30
0.0
 70
   128
 71
   2
 72
   13
 73
   12
  0
VERTEX
  8
bark
 10
0.0
 20
0.0
 30
0.0
 70
   128
 71
   3
 72
   14
 73
   13
  0
VERTEX
  8
bark
 10
0.0
 20
0.0
 30
0.0
 70
   128
 71
   4
 72
   15
 73
   14
  0
VERTEX
  8
bark
 10
0.0
 20
0.0
 30
0.0
 70
   128
 71
   5
 72
   16
 73
   15
  0
VERTEX
  8
bark
 10
0.0
 20
0.0
 30
0.0
 70
   128
 71
   6
 72
   17
 73
   16
  0
VERTEX
  8
bark
 10
0.0
 20
0.0
 30
0.0
 70
   128
 71
   7
 72
   18
 73
   17
  0
VERTEX
  8
bark
 10
0.0
 20
0.0
 30
0.0
 70
   128
 71
   8
 72
   19
 73
   18
  0
VERTEX
  8
bark
 10
0.0
 20
0.0
 30
0.0
 70
   128
 71
   9
 72
   20
 73
   19
  0
VERTEX
  8
bark
 10
0.0
 20
0.0
 30
0.0
 70
   128
 71
   10
 72
   11
 73
   20
  0
VERTEX
  8
bark
 10
0.0
 20
0.0
 30
0.0
 70
   128
 71
   11
 72
   22
 73
   21
  0
VERTEX
  8
bark
 10
0.0
 20
0.0
 30
0.0
 70
   128
 71
   12
 72
   23
 73
   22
  0
VERTEX
  8
bark
 10
0.0
 20
0.0
 30
0.0
 70
   128
 71
   13
 72
   24
 73
   23
  0
VERTEX
  8
bark
 10
0.0
 20
0.0
 30
0.0
 70
   128
 71
   14
 72
   25
 73
   24
  0
VERTEX
  8
bark
 10
0.0
 20
0.0
 30
0.0
 70
   128
 71
   15
 72
   26
 73
   25
  0
VERTEX
  8
bark
 10
0.0
 20
0.0
 30
0.0
 70
   128
 71
   16
 72
   27
 73
   26
  0
VERTEX
  8
bark
 10
0.0
 20
0.0
 30
0.0
 70
   128
 71
   17
 72
   28
 73
   27
  0
VERTEX
  8
bark
 10
0.0
 20
0.0
 30
0.0
 70
   128
 71
   18
 72
   29
 73
   28
  0
VERTEX
  8
bark
 10
0.0
 20
0.0
 30
0.0
 70
   128
 71
   19
 72
   30
 73
   29
  0
VERTEX
  8
bark
 10
0.0
 20
0.0
 30
0.0
 70
   128
 71
   20
 72
   21
 73
   30
  0
VERTEX
  8
bark
 10
0.0
 20
0.0
 30
0.0
 70
   128
 71
   21
 72
   32
 73
   31
  0
VERTEX
  8
bark
 10
0.0
 20
0.0
 30
0.0
 70
   128
 71
   22
 72
   33
 73
   32
  0
VERTEX
  8
bark
 10
0.0
 20
0.0
 30
0.0
 70
   128
 71
   23
 72
   34
 73
   33
  0
VERTEX
  8
bark
 10
0.0
 20
0.0
 30
0.0
 70
   128
 71
   24
 72
   35
 73
   34
  0
VERTEX
  8
bark
 10
0.0
 20
0.0
 30
0.0
 70
   128
 71
   25
 72
   36
 73
   35
  0
VERTEX
  8
bark
 10
0.0
 20
0.0
 30
0.0
 70
   128
 71
   26
 72
   37
 73
   36
  0
VERTEX
  8
bark
 10
0.0
 20
0.0
 30
0.0
 70
   128
 71
   27
 72
   38
 73
   37
  0
VERTEX
  8
bark
 10
0.0
 20
0.0
 30
0.0
 70
   128
 71
   28
 72
   39
 73
   38
  0
VERTEX
  8
bark
 10
0.0
 20
0.0
 30
0.0
 70
   128
 71
   29
 72
   40
 73
   39
  0
VERTEX
  8
bark
 10
0.0
 20
0.0
 30
0.0
 70
   128
 71
   30
 72
   31
 73
   40
  0
VERTEX
  8
bark
 10
0.0
 20
0.0
 30
0.0
 70
   128
 71
   41
 72
   52
 73
   51
  0
VERTEX
  8
bark
 10
0.0
 20
0.0
 30
0.0
 70
   128
 71
   42
 72
   53
 73
   52
  0
VERTEX
  8
bark
 10
0.0
 20
0.0
 30
0.0
 70
   128
 71
   43
 72
   54
 73
   53
  0
VERTEX
  8
bark
 10
0.0
 20
0.0
 30
0.0
 70
   128
 71
   44
 72
   55
 73
   54
  0
VERTEX
  8
bark
 10
0.0
 20
0.0
 30
0.0
 70
   128
 71
   45
 72
   56
 73
   55
  0
VERTEX
  8
bark
 10
0.0
 20
0.0
 30
0.0
 70
   128
 71
   46
 72
   57
 73
   56
  0
VERTEX
  8
bark
 10
0.0
 20
0.0
 30
0.0
 70
   128
 71
   47
 72
   58
 73
   57
  0
VERTEX
  8
bark
 10
0.0
 20
0.0
 30
0.0
 70
   128
 71
   48
 72
   59
 73
   58
  0
VERTEX
  8
bark
 10
0.0
 20
0.0
 30
0.0
 70
   128
 71
   49
 72
   60
 73
   59
  0
VERTEX
  8
bark
 10
0.0
 20
0.0
 30
0.0
 70
   128
 71
   50
 72
   51
 73
   60
  0
VERTEX
  8
bark
 10
0.0
 20
0.0
 30
0.0
 70
   128
 71
   51
 72
   62
 73
   61
  0
VERTEX
  8
bark
 10
0.0
 20
0.0
 30
0.0
 70
   128
 71
   52
 72
   63
 73
   62
  0
VERTEX
  8
bark
 10
0.0
 20
0.0
 30
0.0
 70
   128
 71
   53
 72
   64
 73
   63
  0
VERTEX
  8
bark
 10
0.0
 20
0.0
 30
0.0
 70
   128
 71
   54
 72
   65
 73
   64
  0
VERTEX
  8
bark
 10
0.0
 20
0.0
 30
0.0
 70
   128
 71
   56
 72
   66
 73
   65
  0
VERTEX
  8
bark
 10
0.0
 20
0.0
 30
0.0
 70
   128
 71
   56
 72
   67
 73
   66
  0
VERTEX
  8
bark
 10
0.0
 20
0.0
 30
0.0
 70
   128
 71
   57
 72
   68
 73
   67
  0
VERTEX
  8
bark
 10
0.0
 20
0.0
 30
0.0
 70
   128
 71
   58
 72
   69
 73
   68
  0
VERTEX
  8
bark
 10
0.0
 20
0.0
 30
0.0
 70
   128
 71
   59
 72
   70
 73
   69
  0
VERTEX
  8
bark
 10
0.0
 20
0.0
 30
0.0
 70
   128
 71
   60
 72
   61
 73
   70
  0
VERTEX
  8
bark
 10
0.0
 20
0.0
 30
0.0
 70
   128
 71
   61
 72
   72
 73
   71
  0
VERTEX
  8
bark
 10
0.0
 20
0.0
 30
0.0
 70
   128
 71
   62
 72
   73
 73
   72
  0
VERTEX
  8
bark
 10
0.0
 20
0.0
 30
0.0
 70
   128
 71
   63
 72
   74
 73
   73
  0
VERTEX
  8
bark
 10
0.0
 20
0.0
 30
0.0
 70
   128
 71
   64
 72
   75
 73
   74
  0
VERTEX
  8
bark
 10
0.0
 20
0.0
 30
0.0
 70
   128
 71
   65
 72
   76
 73
   75
  0
VERTEX
  8
bark
 10
0.0
 20
0.0
 30
0.0
 70
   128
 71
   66
 72
   77
 73
   76
  0
VERTEX
  8
bark
 10
0.0
 20
0.0
 30
0.0
 70
   128
 71
   68
 72
   78
 73
   77
  0
VERTEX
  8
bark
 10
0.0
 20
0.0
 30
0.0
 70
   128
 71
   68
 72
   79
 73
   78
  0
VERTEX
  8
bark
 10
0.0
 20
0.0
 30
0.0
 70
   128
 71
   69
 72
   80
 73
   79
  0
VERTEX
  8
bark
 10
0.0
 20
0.0
 30
0.0
 70
   128
 71
   70
 72
   71
 73
   80
  0
VERTEX
  8
bark
 10
0.0
 20
0.0
 30
0.0
 70
   128
 71
   72
 72
   82
 73
   81
  0
VERTEX
  8
bark
 10
0.0
 20
0.0
 30
0.0
 70
   128
 71
   72
 72
   83
 73
   82
  0
VERTEX
  8
bark
 10
0.0
 20
0.0
 30
0.0
 70
   128
 71
   73
 72
   84
 73
   83
  0
VERTEX
  8
bark
 10
0.0
 20
0.0
 30
0.0
 70
   128
 71
   74
 72
   85
 73
   84
  0
VERTEX
  8
bark
 10
0.0
 20
0.0
 30
0.0
 70
   128
 71
   75
 72
   86
 73
   85
  0
VERTEX
  8
bark
 10
0.0
 20
0.0
 30
0.0
 70
   128
 71
   76
 72
   87
 73
   86
  0
VERTEX
  8
bark
 10
0.0
 20
0.0
 30
0.0
 70
   128
 71
   77
 72
   88
 73
   87
  0
VERTEX
  8
bark
 10
0.0
 20
0.0
 30
0.0
 70
   128
 71
   78
 72
   89
 73
   88
  0
VERTEX
  8
bark
 10
0.0
 20
0.0
 30
0.0
 70
   128
 71
   79
 72
   90
 73
   89
  0
VERTEX
  8
bark
 10
0.0
 20
0.0
 30
0.0
 70
   128
 71
   80
 72
   81
 73
   90
  0
VERTEX
  8
bark
 10
0.0
 20
0.0
 30
0.0
 70
   128
 71
   81
 72
   92
 73
   91
  0
VERTEX
  8
bark
 10
0.0
 20
0.0
 30
0.0
 70
   128
 71
   82
 72
   93
 73
   92
  0
VERTEX
  8
bark
 10
0.0
 20
0.0
 30
0.0
 70
   128
 71
   83
 72
   94
 73
   93
  0
VERTEX
  8
bark
 10
0.0
 20
0.0
 30
0.0
 70
   128
 71
   84
 72
   95
 73
   94
  0
VERTEX
  8
bark
 10
0.0
 20
0.0
 30
0.0
 70
   128
 71
   85
 72
   96
 73
   95
  0
VERTEX
  8
bark
 10
0.0
 20
0.0
 30
0.0
 70
   128
 71
   86
 72
   97
 73
   96
  0
VERTEX
  8
bark
 10
0.0
 20
0.0
 30
0.0
 70
   128
 71
   87
 72
   98
 73
   97
  0
VERTEX
  8
bark
 10
0.0
 20
0.0
 30
0.0
 70
   128
 71
   88
 72
   99
 73
   98
  0
VERTEX
  8
bark
 10
0.0
 20
0.0
 30
0.0
 70
   128
 71
   89
 72
   100
 73
   99
  0
VERTEX
  8
bark
 10
0.0
 20
0.0
 30
0.0
 70
   128
 71
   90
 72
   91
 73
   100
  0
VERTEX
  8
bark
 10
0.0
 20
0.0
 30
0.0
 70
   128
 71
   91
 72
   102
 73
   101
  0
VERTEX
  8
bark
 10
0.0
 20
0.0
 30
0.0
 70
   128
 71
   92
 72
   103
 73
   102
  0
VERTEX
  8
bark
 10
0.0
 20
0.0
 30
0.0
 70
   128
 71
   93
 72
   104
 73
   103
  0
VERTEX
  8
bark
 10
0.0
 20
0.0
 30
0.0
 70
   128
 71
   94
 72
   105
 73
   104
  0
VERTEX
  8
bark
 10
0.0
 20
0.0
 30
0.0
 70
   128
 71
   95
 72
   106
 73
   105
  0
VERTEX
  8
bark
 10
0.0
 20
0.0
 30
0.0
 70
   128
 71
   96
 72
   107
 73
   106
  0
VERTEX
  8
bark
 10
0.0
 20
0.0
 30
0.0
 70
   128
 71
   97
 72
   108
 73
   107
  0
VERTEX
  8
bark
 10
0.0
 20
0.0
 30
0.0
 70
   128
 71
   98
 72
   109
 73
   108
  0
VERTEX
  8
bark
 10
0.0
 20
0.0
 30
0.0
 70
   128
 71
   99
 72
   110
 73
   109
  0
VERTEX
  8
bark
 10
0.0
 20
0.0
 30
0.0
 70
   128
 71
   100
 72
   101
 73
   110
  0
VERTEX
  8
bark
 10
0.0
 20
0.0
 30
0.0
 70
   128
 71
   101
 72
   112
 73
   111
  0
VERTEX
  8
bark
 10
0.0
 20
0.0
 30
0.0
 70
   128
 71
   102
 72
   113
 73
   112
  0
VERTEX
  8
bark
 10
0.0
 20
0.0
 30
0.0
 70
   128
 71
   103
 72
   114
 73
   113
  0
VERTEX
  8
bark
 10
0.0
 20
0.0
 30
0.0
 70
   128
 71
   104
 72
   115
 73
   114
  0
VERTEX
  8
bark
 10
0.0
 20
0.0
 30
0.0
 70
   128
 71
   106
 72
   116
 73
   115
  0
VERTEX
  8
bark
 10
0.0
 20
0.0
 30
0.0
 70
   128
 71
   106
 72
   117
 73
   116
  0
VERTEX
  8
bark
 10
0.0
 20
0.0
 30
0.0
 70
   128
 71
   107
 72
   118
 73
   117
  0
VERTEX
  8
bark
 10
0.0
 20
0.0
 30
0.0
 70
   128
 71
   108
 72
   119
 73
   118
  0
VERTEX
  8
bark
 10
0.0
 20
0.0
 30
0.0
 70
   128
 71
   109
 72
   120
 73
   119
  0
VERTEX
  8
bark
 10
0.0
 20
0.0
 30
0.0
 70
   128
 71
   110
 72
   111
 73
   120
  0
VERTEX
  8
bark
 10
0.0
 20
0.0
 30
0.0
 70
   128
 71
   111
 72
   122
 73
   121
  0
VERTEX
  8
bark
 10
0.0
 20
0.0
 30
0.0
 70
   128
 71
   112
 72
   123
 73
   122
  0
VERTEX
  8
bark
 10
0.0
 20
0.0
 30
0.0
 70
   128
 71
   113
 72
   124
 73
   123
  0
VERTEX
  8
bark
 10
0.0
 20
0.0
 30
0.0
 70
   128
 71
   115
 72
   125
 73
   124
  0
VERTEX
  8
bark
 10
0.0
 20
0.0
 30
0.0
 70
   128
 71
   115
 72
   126
 73
   125
  0
VERTEX
  8
bark
 10
0.0
 20
0.0
 30
0.0
 70
   128
 71
   116
 72
   127
 73
   126
  0
VERTEX
  8
bark
 10
0.0
 20
0.0
 30
0.0
 70
   128
 71
   117
 72
   128
 73
   127
  0
VERTEX
  8
bark
 10
0.0
 20
0.0
 30
0.0
 70
   128
 71
   118
 72
   129
 73
   128
  0
VERTEX
  8
bark
 10
0.0
 20
0.0
 30
0.0
 70
   128
 71
   119
 72
   130
 73
   129
  0
VERTEX
  8
bark
 10
0.0
 20
0.0
 30
0.0
 70
   128
 71
   120
 72
   121
 73
   130
  0
VERTEX
  8
bark
 10
0.0
 20
0.0
 30
0.0
 70
   128
 71
   121
 72
   132
 73
   131
  0
VERTEX
  8
bark
 10
0.0
 20
0.0
 30
0.0
 70
   128
 71
   122
 72
   133
 73
   132
  0
VERTEX
  8
bark
 10
0.0
 20
0.0
 30
0.0
 70
   128
 71
   123
 72
   134
 73
   133
  0
VERTEX
  8
bark
 10
0.0
 20
0.0
 30
0.0
 70
   128
 71
   124
 72
   135
 73
   134
  0
VERTEX
  8
bark
 10
0.0
 20
0.0
 30
0.0
 70
   128
 71
   125
 72
   136
 73
   135
  0
VERTEX
  8
bark
 10
0.0
 20
0.0
 30
0.0
 70
   128
 71
   126
 72
   137
 73
   136
  0
VERTEX
  8
bark
 10
0.0
 20
0.0
 30
0.0
 70
   128
 71
   127
 72
   138
 73
   137
  0
VERTEX
  8
bark
 10
0.0
 20
0.0
 30
0.0
 70
   128
 71
   129
 72
   139
 73
   138
  0
VERTEX
  8
bark
 10
0.0
 20
0.0
 30
0.0
 70
   128
 71
   129
 72
   140
 73
   139
  0
VERTEX
  8
bark
 10
0.0
 20
0.0
 30
0.0
 70
   128
 71
   130
 72
   131
 73
   140
  0
VERTEX
  8
bark
 10
0.0
 20
0.0
 30
0.0
 70
   128
 71
   131
 72
   142
 73
   141
  0
VERTEX
  8
bark
 10
0.0
 20
0.0
 30
0.0
 70
   128
 71
   132
 72
   143
 73
   142
  0
VERTEX
  8
bark
 10
0.0
 20
0.0
 30
0.0
 70
   128
 71
   133
 72
   144
 73
   143
  0
VERTEX
  8
bark
 10
0.0
 20
0.0
 30
0.0
 70
   128
 71
   134
 72
   145
 73
   144
  0
VERTEX
  8
bark
 10
0.0
 20
0.0
 30
0.0
 70
   128
 71
   135
 72
   146
 73
   145
  0
VERTEX
  8
bark
 10
0.0
 20
0.0
 30
0.0
 70
   128
 71
   136
 72
   147
 73
   146
  0
VERTEX
  8
bark
 10
0.0
 20
0.0
 30
0.0
 70
   128
 71
   137
 72
   148
 73
   147
  0
VERTEX
  8
bark
 10
0.0
 20
0.0
 30
0.0
 70
   128
 71
   138
 72
   149
 73
   148
  0
VERTEX
  8
bark
 10
0.0
 20
0.0
 30
0.0
 70
   128
 71
   139
 72
   150
 73
   149
  0
VERTEX
  8
bark
 10
0.0
 20
0.0
 30
0.0
 70
   128
 71
   140
 72
   141
 73
   150
  0
VERTEX
  8
bark
 10
0.0
 20
0.0
 30
0.0
 70
   128
 71
   141
 72
   152
 73
   151
  0
VERTEX
  8
bark
 10
0.0
 20
0.0
 30
0.0
 70
   128
 71
   142
 72
   153
 73
   152
  0
VERTEX
  8
bark
 10
0.0
 20
0.0
 30
0.0
 70
   128
 71
   143
 72
   154
 73
   153
  0
VERTEX
  8
bark
 10
0.0
 20
0.0
 30
0.0
 70
   128
 71
   144
 72
   155
 73
   154
  0
VERTEX
  8
bark
 10
0.0
 20
0.0
 30
0.0
 70
   128
 71
   145
 72
   156
 73
   155
  0
VERTEX
  8
bark
 10
0.0
 20
0.0
 30
0.0
 70
   128
 71
   146
 72
   157
 73
   156
  0
VERTEX
  8
bark
 10
0.0
 20
0.0
 30
0.0
 70
   128
 71
   147
 72
   158
 73
   157
  0
VERTEX
  8
bark
 10
0.0
 20
0.0
 30
0.0
 70
   128
 71
   148
 72
   159
 73
   158
  0
VERTEX
  8
bark
 10
0.0
 20
0.0
 30
0.0
 70
   128
 71
   149
 72
   160
 73
   159
  0
VERTEX
  8
bark
 10
0.0
 20
0.0
 30
0.0
 70
   128
 71
   150
 72
   151
 73
   160
  0
VERTEX
  8
bark
 10
0.0
 20
0.0
 30
0.0
 70
   128
 71
   151
 72
   162
 73
   161
  0
VERTEX
  8
bark
 10
0.0
 20
0.0
 30
0.0
 70
   128
 71
   152
 72
   163
 73
   162
  0
VERTEX
  8
bark
 10
0.0
 20
0.0
 30
0.0
 70
   128
 71
   153
 72
   164
 73
   163
  0
VERTEX
  8
bark
 10
0.0
 20
0.0
 30
0.0
 70
   128
 71
   154
 72
   165
 73
   164
  0
VERTEX
  8
bark
 10
0.0
 20
0.0
 30
0.0
 70
   128
 71
   155
 72
   166
 73
   165
  0
VERTEX
  8
bark
 10
0.0
 20
0.0
 30
0.0
 70
   128
 71
   156
 72
   167
 73
   166
  0
VERTEX
  8
bark
 10
0.0
 20
0.0
 30
0.0
 70
   128
 71
   157
 72
   168
 73
   167
  0
VERTEX
  8
bark
 10
0.0
 20
0.0
 30
0.0
 70
   128
 71
   158
 72
   169
 73
   168
  0
VERTEX
  8
bark
 10
0.0
 20
0.0
 30
0.0
 70
   128
 71
   159
 72
   170
 73
   169
  0
VERTEX
  8
bark
 10
0.0
 20
0.0
 30
0.0
 70
   128
 71
   160
 72
   161
 73
   170
  0
VERTEX
  8
bark
 10
0.0
 20
0.0
 30
0.0
 70
   128
 71
   171
 72
   182
 73
   181
  0
VERTEX
  8
bark
 10
0.0
 20
0.0
 30
0.0
 70
   128
 71
   172
 72
   183
 73
   182
  0
VERTEX
  8
bark
 10
0.0
 20
0.0
 30
0.0
 70
   128
 71
   173
 72
   184
 73
   183
  0
VERTEX
  8
bark
 10
0.0
 20
0.0
 30
0.0
 70
   128
 71
   174
 72
   185
 73
   184
  0
VERTEX
  8
bark
 10
0.0
 20
0.0
 30
0.0
 70
   128
 71
   175
 72
   186
 73
   185
  0
VERTEX
  8
bark
 10
0.0
 20
0.0
 30
0.0
 70
   128
 71
   176
 72
   187
 73
   186
  0
VERTEX
  8
bark
 10
0.0
 20
0.0
 30
0.0
 70
   128
 71
   177
 72
   188
 73
   187
  0
VERTEX
  8
bark
 10
0.0
 20
0.0
 30
0.0
 70
   128
 71
   178
 72
   189
 73
   188
  0
VERTEX
  8
bark
 10
0.0
 20
0.0
 30
0.0
 70
   128
 71
   179
 72
   190
 73
   189
  0
VERTEX
  8
bark
 10
0.0
 20
0.0
 30
0.0
 70
   128
 71
   180
 72
   181
 73
   190
  0
VERTEX
  8
bark
 10
0.0
 20
0.0
 30
0.0
 70
   128
 71
   181
 72
   192
 73
   191
  0
VERTEX
  8
bark
 10
0.0
 20
0.0
 30
0.0
 70
   128
 71
   182
 72
   193
 73
   192
  0
VERTEX
  8
bark
 10
0.0
 20
0.0
 30
0.0
 70
   128
 71
   183
 72
   194
 73
   193
  0
VERTEX
  8
bark
 10
0.0
 20
0.0
 30
0.0
 70
   128
 71
   184
 72
   195
 73
   194
  0
VERTEX
  8
bark
 10
0.0
 20
0.0
 30
0.0
 70
   128
 71
   185
 72
   196
 73
   195
  0
VERTEX
  8
bark
 10
0.0
 20
0.0
 30
0.0
 70
   128
 71
   186
 72
   197
 73
   196
  0
VERTEX
  8
bark
 10
0.0
 20
0.0
 30
0.0
 70
   128
 71
   187
 72
   198
 73
   197
  0
VERTEX
  8
bark
 10
0.0
 20
0.0
 30
0.0
 70
   128
 71
   188
 72
   199
 73
   198
  0
VERTEX
  8
bark
 10
0.0
 20
0.0
 30
0.0
 70
   128
 71
   189
 72
   200
 73
   199
  0
VERTEX
  8
bark
 10
0.0
 20
0.0
 30
0.0
 70
   128
 71
   190
 72
   191
 73
   200
  0
VERTEX
  8
bark
 10
0.0
 20
0.0
 30
0.0
 70
   128
 71
   191
 72
   202
 73
   201
  0
VERTEX
  8
bark
 10
0.0
 20
0.0
 30
0.0
 70
   128
 71
   192
 72
   203
 73
   202
  0
VERTEX
  8
bark
 10
0.0
 20
0.0
 30
0.0
 70
   128
 71
   193
 72
   204
 73
   203
  0
VERTEX
  8
bark
 10
0.0
 20
0.0
 30
0.0
 70
   128
 71
   194
 72
   205
 73
   204
  0
VERTEX
  8
bark
 10
0.0
 20
0.0
 30
0.0
 70
   128
 71
   195
 72
   206
 73
   205
  0
VERTEX
  8
bark
 10
0.0
 20
0.0
 30
0.0
 70
   128
 71
   196
 72
   207
 73
   206
  0
VERTEX
  8
bark
 10
0.0
 20
0.0
 30
0.0
 70
   128
 71
   197
 72
   208
 73
   207
  0
VERTEX
  8
bark
 10
0.0
 20
0.0
 30
0.0
 70
   128
 71
   198
 72
   209
 73
   208
  0
VERTEX
  8
bark
 10
0.0
 20
0.0
 30
0.0
 70
   128
 71
   199
 72
   210
 73
   209
  0
VERTEX
  8
bark
 10
0.0
 20
0.0
 30
0.0
 70
   128
 71
   200
 72
   201
 73
   210
  0
VERTEX
  8
bark
 10
0.0
 20
0.0
 30
0.0
 70
   128
 71
   201
 72
   212
 73
   211
  0
VERTEX
  8
bark
 10
0.0
 20
0.0
 30
0.0
 70
   128
 71
   202
 72
   213
 73
   212
  0
VERTEX
  8
bark
 10
0.0
 20
0.0
 30
0.0
 70
   128
 71
   203
 72
   214
 73
   213
  0
VERTEX
  8
bark
 10
0.0
 20
0.0
 30
0.0
 70
   128
 71
   204
 72
   215
 73
   214
  0
VERTEX
  8
bark
 10
0.0
 20
0.0
 30
0.0
 70
   128
 71
   205
 72
   216
 73
   215
  0
VERTEX
  8
bark
 10
0.0
 20
0.0
 30
0.0
 70
   128
 71
   206
 72
   217
 73
   216
  0
VERTEX
  8
bark
 10
0.0
 20
0.0
 30
0.0
 70
   128
 71
   207
 72
   218
 73
   217
  0
VERTEX
  8
bark
 10
0.0
 20
0.0
 30
0.0
 70
   128
 71
   208
 72
   219
 73
   218
  0
VERTEX
  8
bark
 10
0.0
 20
0.0
 30
0.0
 70
   128
 71
   209
 72
   220
 73
   219
  0
VERTEX
  8
bark
 10
0.0
 20
0.0
 30
0.0
 70
   128
 71
   210
 72
   211
 73
   220
  0
SEQEND
  0
ENDSEC
  0
EOF
