# Blender v2.79 (sub 0) OBJ File: 'temp.blend'
# www.blender.org
mtllib brownmushroom.mtl
o Cylinder
v -0.001248 0.020733 0.000147
v 0.019201 0.026578 0.015004
v -0.009834 0.023849 0.026575
v -0.029390 0.023464 0.000147
v -0.009034 0.026665 -0.023816
v 0.019654 0.025969 -0.015039
v 0.006723 0.036128 0.024680
v -0.022754 0.036634 0.015772
v -0.024900 0.038340 -0.017037
v 0.007381 0.037497 -0.026410
v 0.024804 0.036293 0.000147
v -0.001248 0.053058 0.000147
v -0.006166 0.019385 0.015284
v 0.011418 0.020543 0.009349
v 0.006102 0.026364 0.022768
v 0.023162 0.025513 0.000147
v 0.011270 0.021356 -0.008947
v -0.016638 0.021726 0.000147
v -0.022034 0.023765 0.015249
v -0.005877 0.023559 -0.014099
v -0.020139 0.026955 -0.013578
v 0.006333 0.025347 -0.023184
v 0.024331 0.030121 0.008469
v 0.026078 0.029912 -0.008733
v -0.001248 0.029863 0.029318
v 0.015737 0.029894 0.023522
v -0.030241 0.029713 0.009574
v -0.019303 0.029688 0.024987
v -0.018018 0.029935 -0.022940
v -0.030608 0.029669 -0.009400
v 0.014971 0.030043 -0.022164
v -0.001244 0.029744 -0.030068
v 0.017481 0.037061 0.013755
v -0.008821 0.038122 0.023454
v -0.027672 0.039622 0.000147
v -0.009053 0.038709 -0.023873
v 0.017221 0.036810 -0.013271
v 0.004043 0.050004 0.016433
v 0.013411 0.045627 0.000147
v -0.012729 0.044795 0.008489
v -0.012838 0.045035 -0.008273
v 0.003596 0.047432 -0.014761
v -0.002653 -0.002465 -0.007050
v -0.001248 0.024095 -0.006515
v 0.003168 -0.002465 -0.005018
v 0.003917 0.024095 -0.005018
v 0.006484 -0.002465 -0.000205
v 0.005516 0.024095 0.000147
v 0.003917 -0.002465 0.004662
v 0.002954 0.024095 0.005070
v -0.000297 -0.002465 0.007104
v -0.001248 0.024095 0.007452
v -0.005578 -0.002465 0.006421
v -0.006413 0.024095 0.004866
v -0.007618 -0.002465 0.000147
v -0.006201 0.024095 0.000147
v -0.006413 -0.002465 -0.005018
v -0.005717 0.024095 -0.003664
vn 0.0400 -0.9963 -0.0757
vn 0.5082 -0.8387 0.1956
vn -0.0640 -0.9920 -0.1091
vn -0.0634 -0.9826 -0.1743
vn -0.0750 -0.9825 -0.1705
vn 0.7412 -0.6260 0.2425
vn 0.2693 -0.6907 0.6711
vn -0.6965 -0.6254 0.3517
vn -0.3501 -0.8667 -0.3552
vn 0.4230 -0.6385 -0.6430
vn 0.8209 -0.3335 0.4636
vn -0.2308 -0.1113 0.9666
vn -0.9863 -0.1638 0.0195
vn -0.3040 -0.6482 -0.6981
vn 0.7495 -0.2264 -0.6220
vn 0.5993 0.4913 0.6320
vn -0.3391 0.8231 0.4556
vn -0.4055 0.9044 -0.1329
vn -0.0459 0.7527 -0.6568
vn 0.6021 0.7349 -0.3120
vn 0.4442 0.8763 -0.1864
vn 0.6054 0.7331 -0.3098
vn 0.5893 0.6992 -0.4048
vn -0.2909 0.8601 -0.4191
vn -0.2910 0.8599 -0.4193
vn -0.1972 0.8909 -0.4092
vn -0.5767 0.8168 0.0154
vn -0.3349 0.9421 0.0157
vn -0.4588 0.8349 0.3041
vn -0.4079 0.8642 0.2946
vn -0.4545 0.7633 0.4590
vn -0.0023 0.5106 0.8598
vn 0.4520 0.8918 0.0203
vn 0.6992 0.6805 0.2193
vn 0.6074 0.7414 0.2851
vn 0.6810 0.6375 -0.3603
vn 0.6701 0.4992 -0.5493
vn 0.7282 0.4441 -0.5221
vn -0.0946 0.5089 -0.8556
vn -0.3720 0.2862 -0.8830
vn -0.3838 0.2993 -0.8736
vn -0.8861 0.4293 -0.1750
vn -0.9635 0.2670 0.0180
vn -0.7751 0.5293 0.3452
vn -0.4220 0.6409 0.6412
vn -0.2149 0.4266 0.8785
vn 0.0112 0.5856 0.8105
vn 0.5174 0.6433 0.5644
vn 0.7824 0.4272 0.4531
vn 0.7862 0.4741 0.3964
vn 0.4382 -0.0645 -0.8966
vn 0.3788 -0.5325 -0.7569
vn -0.0540 -0.8675 -0.4945
vn -0.7260 -0.1187 -0.6774
vn -0.3652 -0.8600 -0.3564
vn -0.3916 -0.7935 -0.4658
vn -0.7662 0.3414 0.5443
vn -0.7076 -0.4979 0.5014
vn -0.5038 -0.6680 0.5477
vn 0.3096 0.2789 0.9090
vn 0.2197 -0.7364 0.6399
vn 0.2773 -0.8519 0.4444
vn 0.9932 0.0589 0.1002
vn 0.9087 -0.4060 0.0972
vn 0.6304 -0.7578 -0.1684
vn 0.2508 -0.9060 -0.3410
vn -0.0478 -0.9660 -0.2543
vn -0.0704 -0.9566 -0.2828
vn -0.2334 -0.9457 -0.2264
vn -0.2315 -0.9273 -0.2943
vn -0.1278 -0.9372 -0.3245
vn -0.1346 -0.9872 0.0853
vn -0.2660 -0.9633 0.0351
vn -0.2558 -0.9246 0.2824
vn 0.4092 -0.9043 -0.1217
vn 0.3597 -0.9320 -0.0443
vn 0.0173 -0.9989 -0.0445
vn 0.2390 -0.8740 0.4232
vn 0.2115 -0.8633 0.4583
vn 0.2959 -0.8279 0.4764
vn 0.3058 -0.0028 -0.9521
vn 0.8971 0.0066 -0.4419
vn 0.8855 0.0255 0.4640
vn 0.4973 0.0056 0.8676
vn -0.2987 0.0117 0.9543
vn -0.9863 0.0156 0.1640
vn 0.0000 1.0000 0.0000
vn -0.9818 0.0438 -0.1846
vn -0.5096 0.0507 -0.8589
vn 0.0000 -1.0000 0.0000
usemtl Brown
s off
f 1//1 14//1 13//1
f 2//2 14//2 16//2
f 1//3 13//3 18//3
f 1//4 18//4 20//4
f 1//5 20//5 17//5
f 2//6 16//6 23//6
f 3//7 15//7 25//7
f 4//8 19//8 27//8
f 5//9 21//9 29//9
f 6//10 22//10 31//10
f 2//11 23//11 26//11
f 3//12 25//12 28//12
f 4//13 27//13 30//13
f 5//14 29//14 32//14
f 6//15 31//15 24//15
f 7//16 33//16 38//16
f 8//17 34//17 40//17
f 9//18 35//18 41//18
f 10//19 36//19 42//19
f 11//20 37//20 39//20
f 39//21 42//21 12//21
f 39//22 37//22 42//22
f 37//23 10//23 42//23
f 42//24 41//24 12//24
f 42//25 36//25 41//25
f 36//26 9//26 41//26
f 41//27 40//27 12//27
f 41//28 35//28 40//28
f 35//29 8//29 40//29
f 40//30 38//30 12//30
f 40//31 34//31 38//31
f 34//32 7//32 38//32
f 38//33 39//33 12//33
f 38//34 33//34 39//34
f 33//35 11//35 39//35
f 24//36 37//36 11//36
f 24//37 31//37 37//37
f 31//38 10//38 37//38
f 32//39 36//39 10//39
f 32//40 29//40 36//40
f 29//41 9//41 36//41
f 30//42 35//42 9//42
f 30//43 27//43 35//43
f 27//44 8//44 35//44
f 28//45 34//45 8//45
f 28//46 25//46 34//46
f 25//47 7//47 34//47
f 26//48 33//48 7//48
f 26//49 23//49 33//49
f 23//50 11//50 33//50
f 31//51 32//51 10//51
f 31//52 22//52 32//52
f 22//53 5//53 32//53
f 29//54 30//54 9//54
f 29//55 21//55 30//55
f 21//56 4//56 30//56
f 27//57 28//57 8//57
f 27//58 19//58 28//58
f 19//59 3//59 28//59
f 25//60 26//60 7//60
f 25//61 15//61 26//61
f 15//62 2//62 26//62
f 23//63 24//63 11//63
f 23//64 16//64 24//64
f 16//65 6//65 24//65
f 17//66 22//66 6//66
f 17//67 20//67 22//67
f 20//68 5//68 22//68
f 20//69 21//69 5//69
f 20//70 18//70 21//70
f 18//71 4//71 21//71
f 18//72 19//72 4//72
f 18//73 13//73 19//73
f 13//74 3//74 19//74
f 16//75 17//75 6//75
f 16//76 14//76 17//76
f 14//77 1//77 17//77
f 13//78 15//78 3//78
f 13//79 14//79 15//79
f 14//80 2//80 15//80
usemtl Light_Brown
f 43//81 44//81 46//81 45//81
f 45//82 46//82 48//82 47//82
f 47//83 48//83 50//83 49//83
f 49//84 50//84 52//84 51//84
f 51//85 52//85 54//85 53//85
f 53//86 54//86 56//86 55//86
f 46//87 44//87 58//87 56//87 54//87 52//87 50//87 48//87
f 55//88 56//88 58//88 57//88
f 57//89 58//89 44//89 43//89
f 43//90 45//90 47//90 49//90 51//90 53//90 55//90 57//90
