# Blender v2.79 (sub 0) OBJ File: 'temp.blend'
# www.blender.org
mtllib fern.mtl
o Plane.019
v -0.023043 0.022160 -0.001410
v -0.015063 0.040208 0.030586
v -0.045906 0.040208 -0.025173
v -0.030079 0.040364 0.002483
v -0.024892 0.056525 0.036024
v -0.055736 0.056525 -0.019735
v -0.021337 0.001617 -0.002354
v -0.007963 0.021430 0.026659
v -0.038807 0.021430 -0.029100
v -0.064874 0.080702 0.021730
v -0.070807 0.087335 0.049871
v -0.091867 0.087335 0.011803
v -0.080841 0.088200 0.030562
v -0.091629 0.090812 0.051919
v -0.104665 0.090812 0.028354
v -0.039495 0.057560 0.007691
v -0.036666 0.071379 0.042535
v -0.067509 0.071379 -0.013222
v -0.051154 0.070346 0.014140
v -0.052334 0.080505 0.047479
v -0.080022 0.080505 -0.002576
v 0.034578 0.022160 -0.012021
v 0.047658 0.040208 -0.042294
v 0.038327 0.040208 0.020740
v 0.042533 0.040364 -0.010843
v 0.058771 0.056525 -0.040649
v 0.049438 0.056525 0.022386
v 0.032652 0.001617 -0.012306
v 0.039632 0.021430 -0.043481
v 0.030301 0.021430 0.019553
v 0.081867 0.080702 -0.005022
v 0.103666 0.087335 -0.023784
v 0.097295 0.087335 0.019253
v 0.099919 0.088200 -0.002348
v 0.121456 0.090812 -0.012774
v 0.117511 0.090812 0.013868
v 0.053179 0.057560 -0.009268
v 0.072078 0.071379 -0.038678
v 0.062748 0.071379 0.024356
v 0.066357 0.070346 -0.007317
v 0.087531 0.080505 -0.033096
v 0.079154 0.080505 0.023490
v 0.025971 0.022160 -0.051460
v 0.003690 0.040208 -0.075768
v 0.057403 0.040208 -0.041486
v 0.030297 0.040364 -0.058237
v 0.009734 0.056525 -0.085238
v 0.063447 0.056525 -0.050956
v 0.024924 0.001617 -0.049816
v -0.000675 0.021430 -0.068930
v 0.053039 0.021430 -0.034648
v 0.051691 0.080703 -0.091755
v 0.043478 0.087335 -0.119318
v 0.080150 0.087335 -0.095912
v 0.061507 0.088200 -0.107135
v 0.060798 0.090812 -0.131052
v 0.083499 0.090812 -0.116563
v 0.036087 0.057561 -0.067307
v 0.016973 0.071379 -0.096579
v 0.070686 0.071379 -0.062297
v 0.043255 0.070346 -0.078538
v 0.028384 0.080505 -0.108399
v 0.076602 0.080505 -0.077624
v -0.017028 0.022160 -0.050371
v -0.046347 0.040208 -0.035275
v 0.000868 0.040208 -0.078067
v -0.022429 0.040364 -0.056329
v -0.053890 0.056525 -0.043599
v -0.006677 0.056525 -0.086391
v -0.015721 0.001617 -0.048927
v -0.040897 0.021430 -0.029264
v 0.006316 0.021430 -0.072056
v -0.049130 0.080703 -0.085791
v -0.077885 0.087335 -0.085124
v -0.045649 0.087335 -0.114340
v -0.061385 0.088200 -0.099311
v -0.084645 0.090812 -0.104924
v -0.064691 0.090812 -0.123010
v -0.029655 0.057561 -0.064302
v -0.062926 0.071379 -0.053569
v -0.015711 0.071379 -0.096360
v -0.038602 0.070346 -0.074172
v -0.071324 0.080505 -0.067687
v -0.028941 0.080505 -0.106102
v 0.000312 0.022160 0.007110
v 0.032173 0.040208 0.015614
v -0.031548 0.040208 0.015614
v 0.000312 0.040364 0.015151
v 0.032173 0.056525 0.026847
v -0.031548 0.056525 0.026847
v 0.000312 0.001617 0.005160
v 0.032173 0.021430 0.007501
v -0.031548 0.021430 0.007501
v 0.000312 0.080702 0.054914
v 0.022065 0.087335 0.073730
v -0.021440 0.087335 0.073730
v 0.000312 0.088200 0.073161
v 0.013779 0.090812 0.092940
v -0.013154 0.090812 0.092940
v 0.000312 0.057560 0.025912
v 0.032173 0.071379 0.040303
v -0.031548 0.071379 0.040303
v 0.000312 0.070346 0.039235
v 0.028914 0.080505 0.056405
v -0.028289 0.080505 0.056405
v -0.023043 0.022160 -0.001410
v -0.015063 0.040208 0.030586
v -0.045906 0.040208 -0.025173
v -0.030079 0.040364 0.002483
v -0.024892 0.056525 0.036024
v -0.055736 0.056525 -0.019735
v -0.021337 0.001617 -0.002354
v -0.007963 0.021430 0.026659
v -0.038807 0.021430 -0.029100
v -0.064874 0.080702 0.021730
v -0.070807 0.087335 0.049871
v -0.091867 0.087335 0.011803
v -0.080841 0.088200 0.030562
v -0.091629 0.090812 0.051919
v -0.104665 0.090812 0.028354
v -0.039495 0.057560 0.007691
v -0.036666 0.071379 0.042535
v -0.067509 0.071379 -0.013222
v -0.051154 0.070346 0.014140
v -0.052334 0.080505 0.047479
v -0.080022 0.080505 -0.002576
v 0.034578 0.022160 -0.012021
v 0.047658 0.040208 -0.042294
v 0.038327 0.040208 0.020740
v 0.042533 0.040364 -0.010843
v 0.058771 0.056525 -0.040649
v 0.049438 0.056525 0.022386
v 0.032652 0.001617 -0.012306
v 0.039632 0.021430 -0.043481
v 0.030301 0.021430 0.019553
v 0.081867 0.080702 -0.005022
v 0.103666 0.087335 -0.023784
v 0.097295 0.087335 0.019253
v 0.099919 0.088200 -0.002348
v 0.121456 0.090812 -0.012774
v 0.117511 0.090812 0.013868
v 0.053179 0.057560 -0.009268
v 0.072078 0.071379 -0.038678
v 0.062748 0.071379 0.024356
v 0.066357 0.070346 -0.007317
v 0.087531 0.080505 -0.033096
v 0.079154 0.080505 0.023490
v 0.025971 0.022160 -0.051460
v 0.003690 0.040208 -0.075768
v 0.057403 0.040208 -0.041486
v 0.030297 0.040364 -0.058237
v 0.009734 0.056525 -0.085238
v 0.063447 0.056525 -0.050956
v 0.024924 0.001617 -0.049816
v -0.000675 0.021430 -0.068930
v 0.053039 0.021430 -0.034648
v 0.051691 0.080703 -0.091755
v 0.043478 0.087335 -0.119318
v 0.080150 0.087335 -0.095912
v 0.061507 0.088200 -0.107135
v 0.060798 0.090812 -0.131052
v 0.083499 0.090812 -0.116563
v 0.036087 0.057561 -0.067307
v 0.016973 0.071379 -0.096579
v 0.070686 0.071379 -0.062297
v 0.043255 0.070346 -0.078538
v 0.028384 0.080505 -0.108399
v 0.076602 0.080505 -0.077624
v -0.017028 0.022160 -0.050371
v -0.046347 0.040208 -0.035275
v 0.000868 0.040208 -0.078067
v -0.022429 0.040364 -0.056329
v -0.053890 0.056525 -0.043599
v -0.006677 0.056525 -0.086391
v -0.015721 0.001617 -0.048927
v -0.040897 0.021430 -0.029264
v 0.006316 0.021430 -0.072056
v -0.049130 0.080703 -0.085791
v -0.077885 0.087335 -0.085124
v -0.045649 0.087335 -0.114340
v -0.061385 0.088200 -0.099311
v -0.084645 0.090812 -0.104924
v -0.064691 0.090812 -0.123010
v -0.029655 0.057561 -0.064302
v -0.062926 0.071379 -0.053569
v -0.015711 0.071379 -0.096360
v -0.038602 0.070346 -0.074172
v -0.071324 0.080505 -0.067687
v -0.028941 0.080505 -0.106102
v 0.000312 0.022160 0.007110
v 0.032173 0.040208 0.015614
v -0.031548 0.040208 0.015614
v 0.000312 0.040364 0.015151
v 0.032173 0.056525 0.026847
v -0.031548 0.056525 0.026847
v 0.000312 0.001617 0.005160
v 0.032173 0.021430 0.007501
v -0.031548 0.021430 0.007501
v 0.000312 0.080702 0.054914
v 0.022065 0.087335 0.073730
v -0.021440 0.087335 0.073730
v 0.000312 0.088200 0.073161
v 0.013779 0.090812 0.092940
v -0.013154 0.090812 0.092940
v 0.000312 0.057560 0.025912
v 0.032173 0.071379 0.040303
v -0.031548 0.071379 0.040303
v 0.000312 0.070346 0.039235
v 0.028914 0.080505 0.056405
v -0.028289 0.080505 0.056405
vn -0.7916 -0.4262 0.4379
vn -0.7089 -0.5863 0.3921
vn -0.8690 -0.1173 0.4807
vn -0.2909 -0.9431 0.1609
vn -0.1146 -0.9914 0.0634
vn -0.6061 -0.7213 0.3353
vn -0.4456 -0.8606 0.2465
vn 0.8948 -0.4263 0.1325
vn 0.8014 -0.5863 0.1186
vn 0.9824 -0.1173 0.1454
vn 0.3289 -0.9431 0.0487
vn 0.1295 -0.9914 0.0192
vn 0.6852 -0.7213 0.1014
vn 0.5037 -0.8606 0.0746
vn 0.4867 -0.4262 -0.7625
vn 0.4358 -0.5863 -0.6829
vn 0.5343 -0.1173 -0.8371
vn 0.1789 -0.9431 -0.2803
vn 0.0705 -0.9914 -0.1104
vn 0.3726 -0.7213 -0.5838
vn 0.2740 -0.8606 -0.4293
vn -0.6075 -0.4262 -0.6703
vn -0.5441 -0.5863 -0.6003
vn -0.6669 -0.1172 -0.7358
vn -0.2233 -0.9431 -0.2463
vn -0.0879 -0.9914 -0.0970
vn -0.4651 -0.7213 -0.5132
vn -0.3420 -0.8606 -0.3773
vn 0.0000 -0.4263 0.9046
vn 0.0000 -0.5863 0.8101
vn 0.0000 -0.1173 0.9931
vn 0.0000 -0.9431 0.3325
vn 0.0000 -0.9914 0.1309
vn 0.0000 -0.7213 0.6926
vn 0.0000 -0.8606 0.5092
vn 0.7916 0.4262 -0.4379
vn 0.7089 0.5863 -0.3921
vn 0.8690 0.1173 -0.4807
vn 0.2909 0.9431 -0.1609
vn 0.1146 0.9914 -0.0634
vn 0.6061 0.7213 -0.3353
vn 0.4456 0.8606 -0.2465
vn -0.8948 0.4263 -0.1325
vn -0.8014 0.5863 -0.1186
vn -0.9824 0.1173 -0.1454
vn -0.3289 0.9431 -0.0487
vn -0.1295 0.9914 -0.0192
vn -0.6852 0.7213 -0.1014
vn -0.5037 0.8606 -0.0746
vn -0.4867 0.4262 0.7625
vn -0.4358 0.5863 0.6829
vn -0.5343 0.1173 0.8371
vn -0.1789 0.9431 0.2803
vn -0.0705 0.9914 0.1104
vn -0.3726 0.7213 0.5838
vn -0.2740 0.8606 0.4293
vn 0.6075 0.4262 0.6703
vn 0.5441 0.5863 0.6003
vn 0.6669 0.1172 0.7358
vn 0.2233 0.9431 0.2463
vn 0.0879 0.9914 0.0970
vn 0.4651 0.7213 0.5132
vn 0.3420 0.8606 0.3773
vn 0.0000 0.4263 -0.9046
vn 0.0000 0.5863 -0.8101
vn 0.0000 0.1173 -0.9931
vn 0.0000 0.9431 -0.3325
vn 0.0000 0.9914 -0.1309
vn 0.0000 0.7213 -0.6926
vn 0.0000 0.8606 -0.5092
usemtl Green
s off
f 1//1 2//1 3//1
f 4//2 5//2 6//2
f 7//3 8//3 9//3
f 10//4 11//4 12//4
f 13//5 14//5 15//5
f 16//6 17//6 18//6
f 19//7 20//7 21//7
f 22//8 23//8 24//8
f 25//9 26//9 27//9
f 28//10 29//10 30//10
f 31//11 32//11 33//11
f 34//12 35//12 36//12
f 37//13 38//13 39//13
f 40//14 41//14 42//14
f 43//15 44//15 45//15
f 46//16 47//16 48//16
f 49//17 50//17 51//17
f 52//18 53//18 54//18
f 55//19 56//19 57//19
f 58//20 59//20 60//20
f 61//21 62//21 63//21
f 64//22 65//22 66//22
f 67//23 68//23 69//23
f 70//24 71//24 72//24
f 73//25 74//25 75//25
f 76//26 77//26 78//26
f 79//27 80//27 81//27
f 82//28 83//28 84//28
f 85//29 86//29 87//29
f 88//30 89//30 90//30
f 91//31 92//31 93//31
f 94//32 95//32 96//32
f 97//33 98//33 99//33
f 100//34 101//34 102//34
f 103//35 104//35 105//35
f 106//36 108//36 107//36
f 109//37 111//37 110//37
f 112//38 114//38 113//38
f 115//39 117//39 116//39
f 118//40 120//40 119//40
f 121//41 123//41 122//41
f 124//42 126//42 125//42
f 127//43 129//43 128//43
f 130//44 132//44 131//44
f 133//45 135//45 134//45
f 136//46 138//46 137//46
f 139//47 141//47 140//47
f 142//48 144//48 143//48
f 145//49 147//49 146//49
f 148//50 150//50 149//50
f 151//51 153//51 152//51
f 154//52 156//52 155//52
f 157//53 159//53 158//53
f 160//54 162//54 161//54
f 163//55 165//55 164//55
f 166//56 168//56 167//56
f 169//57 171//57 170//57
f 172//58 174//58 173//58
f 175//59 177//59 176//59
f 178//60 180//60 179//60
f 181//61 183//61 182//61
f 184//62 186//62 185//62
f 187//63 189//63 188//63
f 190//64 192//64 191//64
f 193//65 195//65 194//65
f 196//66 198//66 197//66
f 199//67 201//67 200//67
f 202//68 204//68 203//68
f 205//69 207//69 206//69
f 208//70 210//70 209//70
