# Blender v2.79 (sub 0) OBJ File: 'temp.blend'
# www.blender.org
mtllib leafyplant.mtl
o Plane.001_Plane.023
v 0.003269 0.081790 0.003576
v 0.000978 -0.000088 0.003576
v 0.003269 0.081790 -0.003576
v 0.000978 -0.000088 -0.003576
v -0.000306 0.081790 0.000000
v -0.002597 -0.000088 0.000000
v 0.004554 -0.000088 -0.000000
v 0.006845 0.081790 -0.000000
v 0.013789 0.098415 -0.013916
v 0.015170 0.098415 -0.000000
v 0.012433 0.098415 0.000000
v 0.013789 0.098415 0.013916
v 0.029761 0.118138 -0.013916
v 0.031141 0.118138 -0.000000
v 0.028404 0.118138 0.000000
v 0.029761 0.118138 0.013916
v 0.044724 0.131998 0.000000
v 0.013661 0.064826 -0.007380
v 0.004012 0.000235 0.000905
v 0.006932 0.065737 -0.009623
v -0.002717 0.001145 -0.001338
v 0.009237 0.065777 -0.005123
v -0.000411 0.001185 0.003163
v 0.001707 0.000195 -0.003596
v 0.011356 0.064786 -0.011881
v 0.003042 0.081925 -0.024348
v 0.016545 0.079961 -0.021288
v 0.015735 0.080340 -0.018702
v 0.029231 0.078381 -0.015619
v 0.011004 0.099082 -0.041268
v 0.024507 0.097119 -0.038208
v 0.023697 0.097498 -0.035622
v 0.037193 0.095538 -0.032538
v 0.030802 0.108850 -0.052329
v -0.017645 0.081790 -0.006799
v -0.001805 -0.000088 -0.004086
v -0.011589 0.081790 -0.002996
v 0.004252 -0.000088 -0.000283
v -0.012716 0.081790 -0.007926
v 0.003125 -0.000088 -0.005213
v -0.000678 -0.000088 0.000844
v -0.016519 0.081790 -0.001870
v -0.008426 0.098415 0.011412
v -0.020946 0.098415 0.005181
v -0.019490 0.098415 0.002863
v -0.031997 0.098415 -0.003389
v -0.016919 0.112919 0.024937
v -0.029438 0.109841 0.018706
v -0.027983 0.111026 0.016389
v -0.040490 0.112919 0.010137
v -0.036662 0.116176 0.030210
v -0.004033 0.094479 -0.023606
v 0.005259 -0.000088 -0.006934
v -0.010711 0.094479 -0.021047
v -0.001419 -0.000088 -0.004375
v -0.006093 0.094479 -0.018987
v 0.003199 -0.000088 -0.002316
v 0.000641 -0.000088 -0.008994
v -0.008651 0.094479 -0.025665
v -0.024131 0.111104 -0.027172
v -0.011630 0.111104 -0.033439
v -0.010651 0.111104 -0.030884
v 0.001859 0.111104 -0.037129
v -0.029845 0.125608 -0.042085
v -0.017344 0.122531 -0.048353
v -0.016364 0.123715 -0.045798
v -0.003855 0.125608 -0.052043
v -0.022203 0.128865 -0.061038
v -0.016753 0.057044 -0.017953
v 0.003981 -0.001369 -0.002843
v -0.017063 0.057044 -0.010808
v 0.003670 -0.001369 0.004301
v -0.013335 0.057044 -0.014226
v 0.007398 -0.001369 0.000884
v 0.000253 -0.001369 0.000574
v -0.020480 0.057044 -0.014536
v -0.028022 0.072153 -0.000934
v -0.028797 0.069017 -0.014897
v -0.026063 0.072153 -0.014778
v -0.026814 0.072153 -0.028740
v -0.043978 0.078596 -0.001627
v -0.044753 0.075518 -0.015590
v -0.042019 0.076702 -0.015471
v -0.042770 0.078596 -0.029433
v -0.058324 0.074824 -0.016179
vn 0.7070 -0.0198 -0.7070
vn -0.7070 0.0198 -0.7070
vn 0.7070 -0.0198 0.7070
vn -0.7070 0.0198 0.7070
vn 0.0000 -1.0000 0.0000
vn -0.8294 0.5074 -0.2338
vn 0.7748 -0.6275 0.0769
vn 0.8140 -0.5331 0.2307
vn 0.8140 -0.5331 -0.2307
vn -0.8294 0.5074 0.2338
vn -0.6461 0.7607 0.0630
vn 0.7748 -0.6275 -0.0769
vn -0.7749 0.6275 0.0755
vn -0.7749 0.6275 -0.0755
vn -0.6461 0.7607 -0.0630
vn 0.7124 -0.6982 0.0707
vn 0.7124 -0.6982 -0.0707
vn -0.4617 -0.0447 -0.8859
vn -0.8749 0.1879 0.4464
vn 0.8749 -0.1879 -0.4464
vn 0.4617 0.0447 0.8859
vn -0.1638 -0.9821 0.0926
vn -0.3826 0.6431 0.6634
vn 0.1991 -0.7334 -0.6500
vn 0.3709 -0.6657 -0.6475
vn -0.0632 -0.6070 -0.7922
vn 0.0574 0.5835 0.8101
vn -0.0076 0.8286 0.5598
vn 0.0544 -0.7138 -0.6982
vn -0.0557 0.7141 0.6979
vn -0.1979 0.7333 0.6505
vn -0.1260 0.8446 0.5203
vn 0.1632 -0.7934 -0.5864
vn 0.0302 -0.7754 -0.6307
vn 0.2222 0.0752 0.9721
vn 0.9592 0.1783 -0.2193
vn -0.9592 -0.1783 0.2193
vn -0.2222 -0.0752 -0.9721
vn 0.6391 0.5074 -0.5780
vn -0.4558 -0.7680 0.4499
vn -0.6282 -0.5331 0.5667
vn -0.2375 -0.5331 0.8120
vn 0.2430 0.5074 -0.8267
vn 0.2438 0.9489 -0.2004
vn -0.2072 -0.7680 0.6060
vn 0.3346 0.7623 -0.5540
vn 0.3536 0.7623 -0.5421
vn 0.0746 0.9489 -0.3067
vn -0.4179 -0.8808 0.2226
vn -0.0189 -0.8808 0.4731
vn -0.9016 -0.1595 -0.4021
vn -0.4044 0.1201 0.9067
vn 0.4044 -0.1201 -0.9067
vn 0.9016 0.1595 0.4021
vn 0.0784 0.5074 0.8581
vn -0.0860 -0.7680 -0.6347
vn -0.0758 -0.5331 -0.8427
vn -0.5066 -0.5331 -0.6776
vn 0.5151 0.5074 0.6908
vn 0.0138 0.9489 0.3153
vn -0.3601 -0.7680 -0.5297
vn 0.2420 0.7623 0.6003
vn 0.2211 0.7623 0.6083
vn 0.2004 0.9489 0.2438
vn 0.0730 -0.8808 -0.4678
vn -0.3669 -0.8808 -0.2993
vn -0.7344 -0.0865 0.6732
vn 0.6207 0.3954 0.6770
vn -0.6207 -0.3954 -0.6770
vn 0.7344 0.0865 -0.6732
vn 0.7971 0.5438 0.2626
vn -0.3542 -0.9003 -0.2528
vn -0.7042 -0.6202 -0.3457
vn -0.7315 -0.6202 0.2833
vn 0.8168 0.5438 -0.1925
vn -0.1193 0.9830 0.1397
vn -0.3748 -0.9003 0.2212
vn 0.3235 0.9451 0.0467
vn 0.3263 0.9451 -0.0185
vn -0.1067 0.9830 -0.1495
vn 0.0589 -0.9762 -0.2086
vn 0.0406 -0.9762 0.2129
usemtl Green
s off
f 4//1 3//1 8//1 7//1
f 6//2 5//2 3//2 4//2
f 7//3 8//3 1//3 2//3
f 2//4 1//4 5//4 6//4
f 4//5 7//5 2//5 6//5
f 3//6 5//6 11//6 9//6
f 12//7 10//7 14//7 16//7
f 1//8 8//8 10//8 12//8
f 8//9 3//9 9//9 10//9
f 5//10 1//10 12//10 11//10
f 15//11 16//11 17//11
f 10//12 9//12 13//12 14//12
f 11//13 12//13 16//13 15//13
f 9//14 11//14 15//14 13//14
f 13//15 15//15 17//15
f 16//16 14//16 17//16
f 14//17 13//17 17//17
f 21//18 20//18 25//18 24//18
f 23//19 22//19 20//19 21//19
f 24//20 25//20 18//20 19//20
f 19//21 18//21 22//21 23//21
f 21//22 24//22 19//22 23//22
f 20//23 22//23 28//23 26//23
f 29//24 27//24 31//24 33//24
f 18//25 25//25 27//25 29//25
f 25//26 20//26 26//26 27//26
f 22//27 18//27 29//27 28//27
f 32//28 33//28 34//28
f 27//29 26//29 30//29 31//29
f 28//30 29//30 33//30 32//30
f 26//31 28//31 32//31 30//31
f 30//32 32//32 34//32
f 33//33 31//33 34//33
f 31//34 30//34 34//34
f 38//35 37//35 42//35 41//35
f 40//36 39//36 37//36 38//36
f 41//37 42//37 35//37 36//37
f 36//38 35//38 39//38 40//38
f 38//5 41//5 36//5 40//5
f 37//39 39//39 45//39 43//39
f 46//40 44//40 48//40 50//40
f 35//41 42//41 44//41 46//41
f 42//42 37//42 43//42 44//42
f 39//43 35//43 46//43 45//43
f 49//44 50//44 51//44
f 44//45 43//45 47//45 48//45
f 45//46 46//46 50//46 49//46
f 43//47 45//47 49//47 47//47
f 47//48 49//48 51//48
f 50//49 48//49 51//49
f 48//50 47//50 51//50
f 55//51 54//51 59//51 58//51
f 57//52 56//52 54//52 55//52
f 58//53 59//53 52//53 53//53
f 53//54 52//54 56//54 57//54
f 54//55 56//55 62//55 60//55
f 63//56 61//56 65//56 67//56
f 52//57 59//57 61//57 63//57
f 59//58 54//58 60//58 61//58
f 56//59 52//59 63//59 62//59
f 66//60 67//60 68//60
f 61//61 60//61 64//61 65//61
f 62//62 63//62 67//62 66//62
f 60//63 62//63 66//63 64//63
f 64//64 66//64 68//64
f 67//65 65//65 68//65
f 65//66 64//66 68//66
f 72//67 71//67 76//67 75//67
f 74//68 73//68 71//68 72//68
f 75//69 76//69 69//69 70//69
f 70//70 69//70 73//70 74//70
f 71//71 73//71 79//71 77//71
f 80//72 78//72 82//72 84//72
f 69//73 76//73 78//73 80//73
f 76//74 71//74 77//74 78//74
f 73//75 69//75 80//75 79//75
f 83//76 84//76 85//76
f 78//77 77//77 81//77 82//77
f 79//78 80//78 84//78 83//78
f 77//79 79//79 83//79 81//79
f 81//80 83//80 85//80
f 84//81 82//81 85//81
f 82//82 81//82 85//82
