# Blender v2.79 (sub 0) OBJ File: 'temp.blend'
# www.blender.org
mtllib lowleafyplant.mtl
o Cube_Cube.003
v -0.052130 0.043062 0.002137
v -0.052130 0.043062 -0.002137
v -0.058312 0.043350 -0.007856
v -0.058312 0.043350 0.007856
v -0.058436 0.042232 -0.007856
v -0.076928 0.043095 -0.011656
v -0.076805 0.044213 -0.011656
v -0.052253 0.041944 -0.002137
v -0.052253 0.041944 0.002137
v -0.058436 0.042232 0.007856
v -0.076805 0.044213 0.011656
v -0.104988 0.039782 -0.007474
v -0.104988 0.039782 0.007474
v -0.076928 0.043095 0.011656
v -0.105111 0.038664 -0.007474
v -0.105111 0.038664 0.007474
v -0.122737 0.035361 0.000000
v -0.122614 0.036479 0.000000
v -0.036721 0.043062 -0.032906
v -0.034210 0.043062 -0.035839
v -0.035092 0.043350 -0.043397
v -0.044325 0.043350 -0.032614
v -0.035177 0.042232 -0.043469
v -0.045636 0.043095 -0.056945
v -0.045551 0.044213 -0.056872
v -0.034294 0.041944 -0.035911
v -0.036806 0.041944 -0.032978
v -0.044410 0.042232 -0.032687
v -0.059250 0.044213 -0.040873
v -0.067351 0.039782 -0.070563
v -0.076134 0.039782 -0.060305
v -0.059334 0.043095 -0.040946
v -0.067435 0.038664 -0.070636
v -0.076219 0.038664 -0.060378
v -0.083924 0.035361 -0.075864
v -0.083839 0.036479 -0.075792
v 0.008542 0.050071 -0.051126
v 0.012391 0.050071 -0.050804
v 0.018005 0.050396 -0.055940
v 0.003859 0.050396 -0.057124
v 0.018014 0.048943 -0.056051
v 0.022829 0.049915 -0.072415
v 0.022819 0.051369 -0.072304
v 0.012400 0.048617 -0.050915
v 0.008552 0.048617 -0.051237
v 0.003869 0.048943 -0.057235
v 0.001830 0.051369 -0.074060
v 0.021176 0.046375 -0.097994
v 0.007719 0.046375 -0.099120
v 0.001840 0.049915 -0.074171
v 0.021186 0.044921 -0.098105
v 0.007728 0.044921 -0.099231
v 0.015784 0.041199 -0.114538
v 0.015775 0.042652 -0.114427
v 0.044230 0.049030 -0.027853
v 0.046262 0.049030 -0.024975
v 0.053146 0.049326 -0.024063
v 0.045674 0.049326 -0.034645
v 0.053229 0.048133 -0.024122
v 0.067491 0.049020 -0.030357
v 0.067408 0.050214 -0.030298
v 0.046345 0.047836 -0.025033
v 0.044313 0.047836 -0.027912
v 0.045757 0.048133 -0.034703
v 0.056322 0.050214 -0.045999
v 0.084400 0.045657 -0.046518
v 0.077292 0.045657 -0.056584
v 0.056405 0.049020 -0.046057
v 0.084483 0.044464 -0.046576
v 0.077375 0.044464 -0.056643
v 0.092800 0.041067 -0.059992
v 0.092717 0.042260 -0.059933
v 0.055502 0.049631 -0.013841
v 0.056408 0.049631 -0.010234
v 0.062839 0.049944 -0.006719
v 0.059508 0.049944 -0.019977
v 0.062943 0.048601 -0.006745
v 0.079354 0.049537 -0.007459
v 0.079250 0.050881 -0.007432
v 0.056512 0.048288 -0.010260
v 0.055606 0.048288 -0.013867
v 0.059612 0.048601 -0.020004
v 0.074308 0.050881 -0.027105
v 0.102147 0.046072 -0.016937
v 0.098978 0.046072 -0.029551
v 0.074412 0.049537 -0.027131
v 0.102251 0.044728 -0.016963
v 0.099082 0.044728 -0.029577
v 0.115541 0.041143 -0.027007
v 0.115437 0.042487 -0.026981
v 0.034758 0.049631 0.042548
v 0.031682 0.049631 0.044638
v 0.030588 0.049944 0.051884
v 0.041897 0.049944 0.044203
v 0.030648 0.048601 0.051973
v 0.036953 0.049537 0.067142
v 0.036893 0.050881 0.067053
v 0.031742 0.048288 0.044726
v 0.034818 0.048288 0.042637
v 0.041957 0.048601 0.044292
v 0.053673 0.050881 0.055657
v 0.053681 0.046072 0.085295
v 0.064440 0.046072 0.077987
v 0.053733 0.049537 0.055745
v 0.053741 0.044728 0.085383
v 0.064500 0.044728 0.078076
v 0.067738 0.041143 0.094417
v 0.067677 0.042487 0.094328
v -0.039334 0.051407 0.040489
v -0.042322 0.051407 0.037405
v -0.050783 0.051769 0.037600
v -0.039798 0.051769 0.048940
v -0.050872 0.049981 0.037687
v -0.066877 0.051062 0.047874
v -0.066788 0.052850 0.047788
v -0.042411 0.049619 0.037491
v -0.039423 0.049619 0.040576
v -0.039887 0.049981 0.049026
v -0.050487 0.052850 0.064613
v -0.084204 0.047296 0.070513
v -0.073753 0.047296 0.081301
v -0.050576 0.051062 0.064700
v -0.084293 0.045508 0.070599
v -0.073842 0.045508 0.081387
v -0.091789 0.041368 0.088318
v -0.091700 0.043156 0.088232
v 0.008521 0.050725 0.043956
v 0.004457 0.050725 0.044198
v -0.000565 0.051068 0.049478
v 0.014373 0.051068 0.048589
v -0.000557 0.049451 0.049577
v -0.002929 0.050477 0.064616
v -0.002937 0.052094 0.064517
v 0.004465 0.049108 0.044297
v 0.008529 0.049108 0.044055
v 0.014381 0.049451 0.048688
v 0.019227 0.052094 0.063198
v 0.002931 0.046826 0.086873
v 0.017143 0.046826 0.086027
v 0.019236 0.050477 0.063297
v 0.002939 0.045209 0.086972
v 0.017151 0.045209 0.086126
v 0.011228 0.041282 0.100678
v 0.011220 0.042899 0.100579
v 0.053710 0.054943 0.010560
v 0.052388 0.054943 0.014906
v 0.055964 0.055326 0.022208
v 0.060827 0.055326 0.006234
v 0.056071 0.053344 0.022238
v 0.070886 0.054489 0.030552
v 0.070780 0.056470 0.030522
v 0.052494 0.052961 0.014936
v 0.053817 0.052961 0.010590
v 0.060934 0.053344 0.006264
v 0.077995 0.056470 0.006820
v 0.096445 0.050592 0.033052
v 0.101071 0.050592 0.017854
v 0.078101 0.054489 0.006850
v 0.096552 0.048610 0.033081
v 0.101178 0.048610 0.017884
v 0.114107 0.044229 0.029724
v 0.114000 0.046210 0.029694
v -0.020355 0.030705 -0.002289
v -0.022513 0.026642 -0.002289
v 0.008918 0.001274 -0.002289
v 0.005281 -0.001544 -0.002289
v -0.022513 0.026642 0.002289
v 0.005281 -0.001544 0.002289
v -0.020355 0.030705 0.002289
v 0.008918 0.001274 0.002289
v -0.012313 0.030705 -0.017271
v -0.013794 0.026642 -0.018539
v 0.007777 0.001274 -0.000069
v 0.005281 -0.001544 -0.002206
v -0.016484 0.026642 -0.015397
v 0.002591 -0.001544 0.000936
v -0.015003 0.030705 -0.014129
v 0.005087 0.001274 0.003073
v 0.010134 0.036145 -0.022184
v 0.010297 0.031566 -0.024126
v 0.007930 0.002974 0.004173
v 0.008203 -0.000201 0.000899
v 0.006175 0.031566 -0.024471
v 0.004082 -0.000201 0.000554
v 0.006013 0.036145 -0.022528
v 0.003808 0.002974 0.003828
v 0.024934 0.036321 -0.009762
v 0.026387 0.032143 -0.010788
v 0.005219 0.006053 0.004159
v 0.007668 0.003155 0.002430
v 0.024211 0.032143 -0.013871
v 0.005491 0.003155 -0.000653
v 0.022757 0.036321 -0.012845
v 0.003042 0.006053 0.001076
v 0.029626 0.036219 -0.003369
v 0.031447 0.031809 -0.003826
v 0.004923 0.004275 0.002837
v 0.007991 0.001216 0.002066
v 0.030476 0.031809 -0.007689
v 0.007021 0.001216 -0.001797
v 0.028655 0.036219 -0.007232
v 0.003952 0.004275 -0.001026
v 0.016039 0.036219 0.021840
v 0.017094 0.031809 0.023393
v 0.001728 0.004275 0.000769
v 0.003506 0.001216 0.003387
v 0.020389 0.031809 0.021155
v 0.006801 0.001216 0.001149
v 0.019334 0.036219 0.019602
v 0.005023 0.004275 -0.001469
v -0.019495 0.035918 0.015077
v -0.021053 0.030825 0.016586
v 0.001632 -0.000975 -0.005391
v -0.000992 -0.004507 -0.002849
v -0.017852 0.030825 0.019890
v 0.002209 -0.004507 0.000455
v -0.016294 0.035918 0.018381
v 0.004833 -0.000975 -0.002087
v 0.002180 0.036033 0.018735
v 0.002324 0.031203 0.020465
v 0.000215 0.001040 -0.004730
v 0.000459 -0.002310 -0.001815
v 0.006677 0.031203 0.020206
v 0.004811 -0.002310 -0.002074
v 0.006532 0.036033 0.018476
v 0.004567 0.001040 -0.004989
v 0.024863 0.038549 0.007414
v 0.026729 0.033159 0.007933
v -0.000450 -0.000497 0.000370
v 0.002694 -0.004235 0.001245
v 0.028146 0.033159 0.003279
v 0.004111 -0.004235 -0.003410
v 0.026280 0.038549 0.002760
v 0.000967 -0.000497 -0.004285
vn -0.0035 -0.0004 -1.0000
vn -0.0061 0.0028 -1.0000
vn -0.0041 0.0018 -1.0000
vn 0.0011 0.0020 -1.0000
vn 0.0023 0.0000 -1.0000
vn 0.0000 0.0000 -1.0000
vn -0.7120 -0.7021 0.0000
vn 0.7090 0.7052 0.0000
vn 0.0023 0.0000 1.0000
vn 0.0011 0.0020 1.0000
vn 0.0000 -0.0000 1.0000
vn -0.0061 0.0029 1.0000
vn -0.0035 -0.0004 1.0000
vn -0.0041 0.0018 1.0000
vn 0.3624 0.9320 0.0000
vn -0.4575 -0.8892 0.0000
vn 0.6477 -0.0005 -0.7619
vn 0.6456 0.0021 -0.7637
vn 0.6473 0.0016 -0.7623
vn 0.6507 0.0022 -0.7594
vn 0.6521 -0.0002 -0.7581
vn 0.6504 -0.0000 -0.7596
vn -0.5672 -0.6652 -0.4856
vn 0.5650 0.6684 0.4837
vn -0.6488 -0.0010 0.7609
vn -0.6507 0.0022 0.7593
vn -0.6504 0.0000 0.7596
vn -0.6552 0.0013 0.7555
vn -0.6536 -0.0005 0.7568
vn -0.6535 0.0017 0.7569
vn 0.3003 0.9185 0.2571
vn -0.3759 -0.8690 -0.3219
vn 0.9968 -0.0006 0.0802
vn 0.9970 0.0020 0.0771
vn 0.9969 0.0015 0.0793
vn 0.9965 0.0022 0.0836
vn 0.9963 0.0001 0.0856
vn 0.9965 -0.0000 0.0833
vn 0.0654 -0.6201 -0.7817
vn -0.0651 0.6234 0.7792
vn -0.9967 0.0001 -0.0811
vn -0.9965 0.0023 -0.0834
vn -0.9965 0.0000 -0.0833
vn -0.9960 0.0015 -0.0898
vn -0.9962 -0.0007 -0.0866
vn -0.9962 0.0014 -0.0875
vn -0.0363 0.8997 0.4349
vn 0.0447 -0.8444 -0.5339
vn 0.5795 -0.0006 0.8149
vn 0.5820 0.0015 0.8132
vn 0.5801 0.0015 0.8145
vn 0.5769 0.0023 0.8168
vn 0.5750 -0.0002 0.8182
vn 0.5768 0.0000 0.8169
vn 0.6409 -0.6202 -0.4524
vn -0.6387 0.6234 0.4510
vn -0.5786 0.0004 -0.8156
vn -0.5773 0.0021 -0.8166
vn -0.5767 -0.0001 -0.8169
vn -0.5717 0.0024 -0.8204
vn -0.5744 -0.0005 -0.8186
vn -0.5734 0.0014 -0.8193
vn -0.3565 0.8997 0.2518
vn 0.4403 -0.8422 -0.3112
vn 0.2470 -0.0006 0.9690
vn 0.2498 0.0015 0.9683
vn 0.2476 0.0015 0.9689
vn 0.2439 0.0023 0.9698
vn 0.2415 -0.0003 0.9704
vn 0.2436 0.0000 0.9699
vn 0.7608 -0.6201 -0.1911
vn -0.7583 0.6234 0.1906
vn -0.2457 0.0006 -0.9693
vn -0.2443 0.0021 -0.9697
vn -0.2436 -0.0000 -0.9699
vn -0.2377 0.0024 -0.9713
vn -0.2409 -0.0005 -0.9705
vn -0.2396 0.0013 -0.9709
vn -0.4233 0.8997 0.1064
vn 0.5209 -0.8435 -0.1309
vn -0.8256 -0.0005 0.5643
vn -0.8237 0.0020 0.5670
vn -0.8249 0.0014 0.5653
vn -0.8274 0.0022 0.5615
vn -0.8285 0.0004 0.5600
vn -0.8272 -0.0000 0.5619
vn 0.4408 -0.6201 0.6490
vn -0.4393 0.6234 -0.6468
vn 0.8260 0.0001 -0.5637
vn 0.8272 0.0022 -0.5619
vn 0.8272 0.0000 -0.5619
vn 0.8308 0.0017 -0.5566
vn 0.8290 -0.0006 -0.5592
vn 0.8296 0.0014 -0.5584
vn -0.2453 0.8997 -0.3610
vn 0.3018 -0.8435 0.4443
vn -0.6983 -0.0007 -0.7158
vn -0.7004 0.0014 -0.7137
vn -0.6988 0.0014 -0.7153
vn -0.6959 0.0023 -0.7181
vn -0.6941 -0.0002 -0.7198
vn -0.6958 0.0000 -0.7182
vn -0.5634 -0.6202 0.5459
vn 0.5616 0.6234 -0.5441
vn 0.6974 0.0001 0.7166
vn 0.6959 0.0022 0.7181
vn 0.6958 -0.0000 0.7182
vn 0.6912 0.0018 0.7226
vn 0.6935 -0.0007 0.7204
vn 0.6928 0.0014 0.7211
vn 0.3135 0.8997 -0.3037
vn -0.3824 -0.8465 0.3704
vn -0.9962 -0.0009 0.0871
vn -0.9959 0.0009 0.0909
vn -0.9961 0.0016 0.0882
vn -0.9964 0.0026 0.0844
vn -0.9967 -0.0001 0.0806
vn -0.9965 0.0001 0.0833
vn 0.0494 -0.5549 0.8305
vn -0.0493 0.5582 -0.8283
vn 0.9963 0.0005 -0.0861
vn 0.9965 0.0026 -0.0830
vn 0.9965 -0.0000 -0.0835
vn 0.9971 0.0014 -0.0759
vn 0.9968 -0.0008 -0.0802
vn 0.9969 0.0014 -0.0785
vn -0.0296 0.8669 -0.4976
vn 0.0356 -0.8005 0.5982
vn -0.2648 -0.0008 0.9643
vn -0.2608 0.0014 0.9654
vn -0.2633 0.0014 0.9647
vn -0.2676 0.0026 0.9635
vn -0.2706 0.0004 0.9627
vn -0.2681 -0.0000 0.9634
vn 0.7959 -0.5549 0.2423
vn -0.7938 0.5582 -0.2416
vn 0.2655 0.0004 -0.9641
vn 0.2686 0.0026 -0.9632
vn 0.2681 0.0000 -0.9634
vn 0.2754 0.0013 -0.9613
vn 0.2713 -0.0009 -0.9625
vn 0.2728 0.0014 -0.9621
vn -0.4769 0.8669 -0.1451
vn 0.5700 -0.8031 0.1735
vn 0.0465 0.9989 0.0000
vn 0.2002 -0.0221 -0.9795
vn -0.0465 -0.9989 0.0000
vn 0.6753 -0.0746 -0.7338
vn 0.6753 -0.0746 0.7338
vn -0.1553 0.9879 0.0000
vn 0.2002 -0.0221 0.9795
vn 0.0466 0.9989 0.0000
vn -0.0466 -0.9989 0.0000
vn 0.1842 -0.9829 0.0000
vn 0.1553 -0.9879 -0.0000
vn -0.1493 0.0164 -0.9887
vn -0.1493 0.0164 0.9887
vn -0.3969 0.0437 -0.9168
vn -0.3969 0.0437 0.9168
vn -0.1842 0.9829 0.0000
vn 0.0391 0.9987 0.0335
vn 0.7892 -0.0202 -0.6138
vn -0.0391 -0.9987 -0.0335
vn 0.9907 -0.0673 -0.1182
vn 0.0357 -0.0674 0.9971
vn -0.1302 0.9852 -0.1115
vn -0.4850 -0.0204 0.8743
vn 0.0392 0.9987 0.0335
vn -0.0392 -0.9987 -0.0335
vn 0.1543 -0.9792 0.1321
vn 0.1302 -0.9852 0.1115
vn 0.5295 0.0154 -0.8481
vn -0.7564 0.0148 0.6540
vn 0.2948 0.0396 -0.9547
vn -0.8980 0.0399 0.4383
vn -0.1543 0.9792 -0.1321
vn -0.0048 0.9983 0.0579
vn 0.9595 -0.0152 0.2814
vn 0.0049 -0.9983 -0.0581
vn 0.6757 -0.0520 0.7353
vn -0.7885 -0.0522 0.6128
vn 0.0160 0.9813 -0.1918
vn -0.9929 -0.0154 0.1180
vn 0.0048 -0.9983 -0.0579
vn -0.0190 -0.9738 0.2268
vn -0.0160 -0.9813 0.1918
vn 0.9977 0.0116 -0.0661
vn -0.9729 0.0113 -0.2309
vn 0.9475 0.0305 -0.3183
vn -0.8814 0.0305 -0.4713
vn 0.0190 0.9737 -0.2268
vn -0.0474 0.9983 0.0334
vn 0.4014 -0.0174 0.9157
vn 0.0475 -0.9983 -0.0336
vn -0.1286 -0.0575 0.9900
vn -0.9760 -0.0576 -0.2100
vn 0.1572 0.9813 -0.1110
vn -0.7286 -0.0174 -0.6847
vn -0.0475 0.9983 0.0335
vn 0.0474 -0.9983 -0.0335
vn -0.1859 -0.9738 0.1313
vn -0.1572 -0.9813 0.1110
vn 0.6922 0.0128 0.7216
vn -0.4484 0.0126 -0.8937
vn 0.8532 0.0338 0.5204
vn -0.2049 0.0341 -0.9782
vn 0.1859 0.9737 -0.1313
vn -0.0563 0.9983 0.0142
vn 0.0444 -0.0163 0.9989
vn 0.0563 -0.9983 -0.0141
vn -0.4769 -0.0539 0.8773
vn -0.8349 -0.0538 -0.5478
vn 0.1866 0.9813 -0.0469
vn -0.4330 -0.0157 -0.9012
vn -0.0564 0.9983 0.0142
vn -0.2208 -0.9738 0.0555
vn -0.1866 -0.9813 0.0469
vn 0.3854 0.0116 0.9227
vn -0.0964 0.0118 -0.9953
vn 0.6081 0.0317 0.7933
vn 0.1609 0.0315 -0.9865
vn 0.2208 0.9738 -0.0555
vn -0.0326 0.9983 -0.0480
vn -0.9230 -0.0157 0.3846
vn 0.0326 -0.9983 0.0480
vn -0.9877 -0.0538 -0.1468
vn 0.2278 -0.0542 -0.9722
vn 0.1081 0.9813 0.1592
vn 0.6978 -0.0160 -0.7161
vn -0.0327 0.9983 -0.0481
vn -0.1279 -0.9738 -0.1883
vn -0.1081 -0.9813 -0.1592
vn -0.7342 0.0119 0.6788
vn 0.9017 0.0118 -0.4322
vn -0.5363 0.0314 0.8434
vn 0.9817 0.0318 -0.1875
vn 0.1279 0.9737 0.1883
vn 0.0418 0.9983 -0.0405
vn -0.5376 -0.0140 -0.8431
vn -0.0418 -0.9983 0.0405
vn -0.0251 -0.0471 -0.9986
vn 0.9973 -0.0469 0.0568
vn -0.1382 0.9813 0.1339
vn 0.8256 -0.0138 0.5640
vn 0.0417 0.9983 -0.0404
vn -0.0417 -0.9983 0.0404
vn 0.1635 -0.9738 -0.1584
vn 0.1382 -0.9813 -0.1339
vn -0.7949 0.0104 -0.6067
vn 0.5812 0.0104 0.8137
vn -0.9229 0.0275 -0.3840
vn 0.3546 0.0273 0.9346
vn -0.1635 0.9738 0.1584
vn -0.0041 0.9976 -0.0687
vn -0.9878 -0.0144 -0.1548
vn 0.0041 -0.9976 0.0687
vn -0.7253 -0.0456 -0.6869
vn 0.6217 -0.0448 -0.7820
vn 0.0135 0.9740 0.2260
vn 0.9492 -0.0143 -0.3144
vn -0.0159 -0.9637 -0.2665
vn -0.0135 -0.9740 -0.2260
vn -0.9665 0.0109 0.2563
vn 0.9956 0.0110 0.0934
vn -0.8518 0.0278 0.5231
vn 0.9232 0.0280 0.3833
vn 0.0159 0.9637 0.2665
vn -0.0659 0.9976 -0.0201
vn -0.4886 -0.0130 0.8724
vn 0.0659 -0.9976 0.0201
vn -0.8964 -0.0415 0.4412
vn -0.5174 -0.0409 -0.8548
vn 0.2166 0.9740 0.0659
vn 0.0350 -0.0132 -0.9993
vn -0.0658 0.9976 -0.0200
vn 0.0659 -0.9976 0.0200
vn -0.2554 -0.9637 -0.0777
vn -0.2166 -0.9740 -0.0659
vn -0.0959 0.0097 0.9953
vn 0.4334 0.0096 -0.9012
vn 0.1938 0.0251 0.9807
vn 0.6799 0.0256 -0.7329
vn 0.2554 0.9637 0.0777
usemtl Brown
s off
f 163//1 164//2 8//3 2//3
f 164//4 163//5 165//6 166//6
f 167//7 164//7 166//7 168//7
f 163//8 169//8 170//8 165//8
f 169//9 167//10 168//11 170//11
f 167//12 169//13 1//14 9//14
f 169//15 163//15 2//15 1//15
f 164//16 167//16 9//16 8//16
f 171//17 172//18 26//19 20//19
f 172//20 171//21 173//22 174//22
f 175//23 172//23 174//23 176//23
f 171//24 177//24 178//24 173//24
f 177//25 175//26 176//27 178//27
f 175//28 177//29 19//30 27//30
f 177//31 171//31 20//31 19//31
f 172//32 175//32 27//32 26//32
f 179//33 180//34 44//35 38//35
f 180//36 179//37 181//38 182//38
f 183//39 180//39 182//39 184//39
f 179//40 185//40 186//40 181//40
f 185//41 183//42 184//43 186//43
f 183//44 185//45 37//46 45//46
f 185//47 179//47 38//47 37//47
f 180//48 183//48 45//48 44//48
f 187//49 188//50 62//51 56//51
f 188//52 187//53 189//54 190//54
f 191//55 188//55 190//55 192//55
f 187//56 193//56 194//56 189//56
f 193//57 191//58 192//59 194//59
f 191//60 193//61 55//62 63//62
f 193//63 187//63 56//63 55//63
f 188//64 191//64 63//64 62//64
f 195//65 196//66 80//67 74//67
f 196//68 195//69 197//70 198//70
f 199//71 196//71 198//71 200//71
f 195//72 201//72 202//72 197//72
f 201//73 199//74 200//75 202//75
f 199//76 201//77 73//78 81//78
f 201//79 195//79 74//79 73//79
f 196//80 199//80 81//80 80//80
f 203//81 204//82 98//83 92//83
f 204//84 203//85 205//86 206//86
f 207//87 204//87 206//87 208//87
f 203//88 209//88 210//88 205//88
f 209//89 207//90 208//91 210//91
f 207//92 209//93 91//94 99//94
f 209//95 203//95 92//95 91//95
f 204//96 207//96 99//96 98//96
f 211//97 212//98 116//99 110//99
f 212//100 211//101 213//102 214//102
f 215//103 212//103 214//103 216//103
f 211//104 217//104 218//104 213//104
f 217//105 215//106 216//107 218//107
f 215//108 217//109 109//110 117//110
f 217//111 211//111 110//111 109//111
f 212//112 215//112 117//112 116//112
f 219//113 220//114 134//115 128//115
f 220//116 219//117 221//118 222//118
f 223//119 220//119 222//119 224//119
f 219//120 225//120 226//120 221//120
f 225//121 223//122 224//123 226//123
f 223//124 225//125 127//126 135//126
f 225//127 219//127 128//127 127//127
f 220//128 223//128 135//128 134//128
f 227//129 228//130 152//131 146//131
f 228//132 227//133 229//134 230//134
f 231//135 228//135 230//135 232//135
f 227//136 233//136 234//136 229//136
f 233//137 231//138 232//139 234//139
f 231//140 233//141 145//142 153//142
f 233//143 227//143 146//143 145//143
f 228//144 231//144 153//144 152//144
usemtl Green
f 1//145 2//145 3//145 4//145
f 3//146 5//146 6//146 7//146
f 8//147 9//147 10//147 5//147
f 2//148 8//148 5//148 3//148
f 9//149 1//149 4//149 10//149
f 11//150 7//150 12//150 13//150
f 10//151 4//151 11//151 14//151
f 4//152 3//152 7//152 11//152
f 5//153 10//153 14//153 6//153
f 15//154 16//154 17//154
f 6//155 14//155 16//155 15//155
f 7//156 6//156 15//156 12//156
f 14//157 11//157 13//157 16//157
f 12//158 15//158 17//158 18//158
f 16//159 13//159 18//159 17//159
f 13//160 12//160 18//160
f 19//161 20//161 21//161 22//161
f 21//162 23//162 24//162 25//162
f 26//163 27//163 28//163 23//163
f 20//164 26//164 23//164 21//164
f 27//165 19//165 22//165 28//165
f 29//166 25//166 30//166 31//166
f 28//167 22//167 29//167 32//167
f 22//168 21//168 25//168 29//168
f 23//169 28//169 32//169 24//169
f 33//170 34//170 35//170
f 24//171 32//171 34//171 33//171
f 25//172 24//172 33//172 30//172
f 32//173 29//173 31//173 34//173
f 30//174 33//174 35//174 36//174
f 34//175 31//175 36//175 35//175
f 31//176 30//176 36//176
f 37//177 38//177 39//177 40//177
f 39//178 41//178 42//178 43//178
f 44//179 45//179 46//179 41//179
f 38//180 44//180 41//180 39//180
f 45//181 37//181 40//181 46//181
f 47//182 43//182 48//182 49//182
f 46//183 40//183 47//183 50//183
f 40//177 39//177 43//177 47//177
f 41//184 46//184 50//184 42//184
f 51//185 52//185 53//185
f 42//186 50//186 52//186 51//186
f 43//187 42//187 51//187 48//187
f 50//188 47//188 49//188 52//188
f 48//189 51//189 53//189 54//189
f 52//190 49//190 54//190 53//190
f 49//191 48//191 54//191
f 55//192 56//192 57//192 58//192
f 57//193 59//193 60//193 61//193
f 62//194 63//194 64//194 59//194
f 56//195 62//195 59//195 57//195
f 63//196 55//196 58//196 64//196
f 65//197 61//197 66//197 67//197
f 64//198 58//198 65//198 68//198
f 58//199 57//199 61//199 65//199
f 59//200 64//200 68//200 60//200
f 69//201 70//201 71//201
f 60//202 68//202 70//202 69//202
f 61//203 60//203 69//203 66//203
f 68//204 65//204 67//204 70//204
f 66//205 69//205 71//205 72//205
f 70//206 67//206 72//206 71//206
f 67//207 66//207 72//207
f 73//208 74//208 75//208 76//208
f 75//209 77//209 78//209 79//209
f 80//210 81//210 82//210 77//210
f 74//211 80//211 77//211 75//211
f 81//212 73//212 76//212 82//212
f 83//213 79//213 84//213 85//213
f 82//214 76//214 83//214 86//214
f 76//215 75//215 79//215 83//215
f 77//210 82//210 86//210 78//210
f 87//216 88//216 89//216
f 78//217 86//217 88//217 87//217
f 79//218 78//218 87//218 84//218
f 86//219 83//219 85//219 88//219
f 84//220 87//220 89//220 90//220
f 88//221 85//221 90//221 89//221
f 85//222 84//222 90//222
f 91//223 92//223 93//223 94//223
f 93//224 95//224 96//224 97//224
f 98//225 99//225 100//225 95//225
f 92//226 98//226 95//226 93//226
f 99//227 91//227 94//227 100//227
f 101//228 97//228 102//228 103//228
f 100//229 94//229 101//229 104//229
f 94//230 93//230 97//230 101//230
f 95//225 100//225 104//225 96//225
f 105//231 106//231 107//231
f 96//232 104//232 106//232 105//232
f 97//233 96//233 105//233 102//233
f 104//234 101//234 103//234 106//234
f 102//235 105//235 107//235 108//235
f 106//236 103//236 108//236 107//236
f 103//237 102//237 108//237
f 109//238 110//238 111//238 112//238
f 111//239 113//239 114//239 115//239
f 116//240 117//240 118//240 113//240
f 110//241 116//241 113//241 111//241
f 117//242 109//242 112//242 118//242
f 119//243 115//243 120//243 121//243
f 118//244 112//244 119//244 122//244
f 112//245 111//245 115//245 119//245
f 113//246 118//246 122//246 114//246
f 123//247 124//247 125//247
f 114//248 122//248 124//248 123//248
f 115//249 114//249 123//249 120//249
f 122//250 119//250 121//250 124//250
f 120//251 123//251 125//251 126//251
f 124//252 121//252 126//252 125//252
f 121//253 120//253 126//253
f 127//254 128//254 129//254 130//254
f 129//255 131//255 132//255 133//255
f 134//256 135//256 136//256 131//256
f 128//257 134//257 131//257 129//257
f 135//258 127//258 130//258 136//258
f 137//259 133//259 138//259 139//259
f 136//260 130//260 137//260 140//260
f 130//254 129//254 133//254 137//254
f 131//256 136//256 140//256 132//256
f 141//261 142//261 143//261
f 132//262 140//262 142//262 141//262
f 133//263 132//263 141//263 138//263
f 140//264 137//264 139//264 142//264
f 138//265 141//265 143//265 144//265
f 142//266 139//266 144//266 143//266
f 139//267 138//267 144//267
f 145//268 146//268 147//268 148//268
f 147//269 149//269 150//269 151//269
f 152//270 153//270 154//270 149//270
f 146//271 152//271 149//271 147//271
f 153//272 145//272 148//272 154//272
f 155//273 151//273 156//273 157//273
f 154//274 148//274 155//274 158//274
f 148//275 147//275 151//275 155//275
f 149//276 154//276 158//276 150//276
f 159//277 160//277 161//277
f 150//278 158//278 160//278 159//278
f 151//279 150//279 159//279 156//279
f 158//280 155//280 157//280 160//280
f 156//281 159//281 161//281 162//281
f 160//282 157//282 162//282 161//282
f 157//283 156//283 162//283
