# Blender v2.79 (sub 0) OBJ File: 'temp.blend'
# www.blender.org
mtllib whitemushroom.mtl
o Cylinder
v -0.007944 -0.002465 0.002205
v -0.005965 0.031634 0.000710
v -0.007488 -0.002465 -0.003944
v -0.005856 0.031634 -0.004667
v -0.003697 -0.002465 -0.008392
v -0.001281 0.031634 -0.007549
v 0.001668 -0.002465 -0.007173
v 0.004138 0.031634 -0.006348
v 0.005118 -0.002465 -0.003734
v 0.007526 0.031634 -0.002906
v 0.005825 -0.002465 0.001544
v 0.006365 0.031634 0.002753
v 0.000293 -0.002465 0.005138
v 0.001752 0.031634 0.003769
v -0.005008 -0.002465 0.005311
v -0.002055 0.031634 0.004289
v 0.016527 0.044577 -0.013720
v 0.023614 0.039160 -0.020807
v 0.026741 0.033001 -0.023934
v 0.022641 0.045918 0.000709
v 0.032715 0.040913 -0.005359
v 0.037825 0.033304 0.000709
v 0.016591 0.044701 0.015201
v 0.023462 0.039039 0.022072
v 0.024586 0.033795 0.026875
v 0.002098 0.043864 0.020592
v 0.002098 0.040697 0.031155
v 0.002098 0.033109 0.035146
v -0.011500 0.042970 0.014306
v -0.014113 0.038631 0.021562
v -0.023311 0.032719 0.025872
v -0.017530 0.043514 0.005746
v -0.027605 0.038751 0.000709
v -0.032568 0.033049 0.000709
v -0.012325 0.044567 -0.013714
v -0.018550 0.038467 -0.022686
v -0.022673 0.032954 -0.024063
v 0.002098 0.048800 0.000709
v 0.002098 0.045133 -0.016175
v -0.000459 0.038443 -0.028449
v 0.005192 0.033046 -0.033972
v 0.016545 0.029870 -0.013738
v 0.019805 0.030428 0.000709
v 0.012665 0.030097 0.015118
v 0.002098 0.031138 0.020815
v -0.012124 0.031261 0.013501
v -0.018368 0.029711 0.000709
v -0.013645 0.030854 -0.016951
v 0.001004 0.031401 -0.019372
vn -0.9975 0.0512 -0.0489
vn -0.6584 0.0404 -0.7515
vn 0.2190 0.0082 -0.9757
vn 0.7089 -0.0336 -0.7045
vn 0.9982 -0.0444 0.0415
vn 0.4137 -0.0100 0.9104
vn 0.0758 0.0300 0.9967
vn -0.6966 0.0767 0.7134
vn 0.0000 -1.0000 -0.0000
vn 0.0000 1.0000 0.0000
vn 0.2509 0.6950 -0.6739
vn 0.0735 0.9746 -0.2116
vn 0.1286 0.8541 -0.5040
vn 0.3421 0.9008 -0.2675
vn 0.8125 0.3945 -0.4293
vn 0.1374 0.9792 -0.1492
vn 0.5080 0.8254 0.2463
vn 0.7193 0.6178 0.3178
vn 0.1376 0.9806 0.1397
vn 0.1774 0.9044 0.3882
vn 0.3167 0.5550 0.7692
vn 0.0335 0.9700 0.2408
vn -0.2705 0.9008 0.3398
vn -0.3450 0.6509 0.6763
vn -0.1726 0.9560 0.2373
vn -0.5555 0.7821 0.2823
vn -0.2050 0.9570 0.2053
vn -0.5040 0.7886 0.3523
vn -0.7258 0.6236 -0.2904
vn -0.2644 0.9642 -0.0185
vn -0.4639 0.8750 -0.1386
vn -0.2831 0.4839 -0.8281
vn -0.0744 0.9745 -0.2116
vn -0.1334 0.8725 -0.4701
vn -0.1999 -0.9754 -0.0930
vn 0.0667 -0.9809 0.1827
vn -0.0397 -0.9930 0.1109
vn 0.0308 -0.9846 -0.1718
vn 0.1912 -0.9804 -0.0485
vn -0.0324 -0.9861 -0.1628
vn -0.1425 -0.9857 0.0899
vn 0.1784 -0.9795 0.0934
vn -0.0086 -1.0000 0.0002
usemtl White
s off
f 1//1 2//1 4//1 3//1
f 3//2 4//2 6//2 5//2
f 5//3 6//3 8//3 7//3
f 7//4 8//4 10//4 9//4
f 9//5 10//5 12//5 11//5
f 11//6 12//6 14//6 13//6
f 13//7 14//7 16//7 15//7
f 15//8 16//8 2//8 1//8
f 1//9 3//9 5//9 7//9 9//9 11//9 13//9 15//9
usemtl Beige
f 4//10 2//10 16//10 14//10 12//10 10//10 8//10 6//10
f 41//11 40//11 18//11 19//11
f 39//12 38//12 17//12
f 40//13 39//13 17//13 18//13
f 18//14 17//14 20//14 21//14
f 19//15 18//15 21//15 22//15
f 17//16 38//16 20//16
f 21//17 20//17 23//17 24//17
f 22//18 21//18 24//18 25//18
f 20//19 38//19 23//19
f 24//20 23//20 26//20 27//20
f 25//21 24//21 27//21 28//21
f 23//22 38//22 26//22
f 27//23 26//23 29//23 30//23
f 28//24 27//24 30//24 31//24
f 26//25 38//25 29//25
f 31//26 30//26 33//26 34//26
f 29//27 38//27 32//27
f 30//28 29//28 32//28 33//28
f 34//29 33//29 36//29 37//29
f 32//30 38//30 35//30
f 33//31 32//31 35//31 36//31
f 37//32 36//32 40//32 41//32
f 35//33 38//33 39//33
f 36//34 35//34 39//34 40//34
f 34//35 37//35 48//35 47//35
f 25//36 28//36 45//36 44//36
f 28//37 31//37 46//37 45//37
f 41//38 19//38 42//38 49//38
f 19//39 22//39 43//39 42//39
f 37//40 41//40 49//40 48//40
f 31//41 34//41 47//41 46//41
f 22//42 25//42 44//42 43//42
f 43//43 44//43 45//43 46//43 47//43 48//43 49//43 42//43
