# Blender v2.79 (sub 0) OBJ File: ''
# www.blender.org
mtllib carrying_crate.mtl
o Cube_Cube.001
v 0.146107 0.116450 0.051754
v -0.146137 0.116450 0.051754
v -0.146137 0.116450 0.065682
v 0.146107 0.116450 0.065682
v -0.146137 0.043471 0.051754
v -0.146137 0.075889 0.051754
v 0.146107 0.075889 0.051754
v 0.146107 0.043471 0.051754
v -0.146137 0.084032 0.051754
v 0.146107 0.084032 0.051754
v 0.146107 0.084032 0.065682
v -0.146137 0.084032 0.065682
v 0.146107 0.043471 0.065682
v 0.146107 0.075889 0.065682
v -0.146137 0.075889 0.065682
v -0.146137 0.043471 0.065682
v -0.143647 -0.001576 -0.057524
v -0.143647 -0.001576 -0.071451
v -0.143647 0.124738 -0.071451
v -0.143647 0.124738 -0.057524
v -0.156166 -0.001576 0.051985
v -0.156166 -0.001576 0.065913
v -0.156166 0.124738 0.065913
v -0.156166 0.124738 0.051985
v -0.143647 -0.001576 0.065913
v -0.143647 -0.001576 0.051985
v -0.156166 -0.001576 -0.071451
v -0.156166 0.124738 -0.071451
v -0.143647 0.124738 0.051985
v 0.158627 -0.001576 0.065913
v 0.146107 -0.001576 0.065913
v 0.146107 -0.001576 0.051985
v 0.158627 -0.001576 0.051985
v 0.146107 -0.001576 -0.071451
v 0.146107 -0.001576 -0.057524
v 0.146107 0.124738 -0.057524
v 0.146107 0.124738 -0.071451
v -0.156166 -0.001576 -0.057524
v -0.156166 0.124738 -0.057524
v 0.158627 0.124738 -0.057524
v 0.158627 0.124738 -0.071451
v 0.146107 0.124738 0.065913
v 0.146107 0.124738 0.051985
v 0.158627 -0.001576 -0.057524
v 0.158627 -0.001576 -0.071451
v 0.158627 0.124738 0.051985
v 0.158627 0.124738 0.065913
v 0.146107 0.043471 -0.058018
v 0.146107 0.075889 -0.058018
v -0.146137 0.075889 -0.058018
v -0.146137 0.043471 -0.058018
v -0.146137 0.084032 -0.071945
v 0.146107 0.084032 -0.071945
v 0.146107 0.084032 -0.058018
v -0.146137 0.084032 -0.058018
v -0.143647 0.124738 0.065913
v -0.146137 0.043471 -0.071945
v -0.146137 0.075889 -0.071945
v 0.146107 0.075889 -0.071945
v 0.146107 0.043471 -0.071945
v 0.146107 0.116450 -0.071945
v -0.146137 0.116450 -0.071945
v -0.146137 0.116450 -0.058018
v 0.146107 0.116450 -0.058018
v 0.145626 0.116450 -0.065273
v 0.145626 0.116450 0.058356
v 0.159554 0.116450 0.058356
v 0.159554 0.116450 -0.065273
v 0.145626 0.043471 0.058356
v 0.145626 0.075889 0.058356
v 0.145626 0.075889 -0.065273
v 0.145626 0.043471 -0.065273
v 0.145626 0.084032 0.058356
v 0.145626 0.084032 -0.065273
v 0.159554 0.084032 -0.065273
v 0.159554 0.084032 0.058356
v 0.159554 0.043471 -0.065273
v 0.159554 0.075889 -0.065273
v 0.159554 0.075889 0.058356
v 0.159554 0.043471 0.058356
v -0.154729 0.116450 -0.065273
v -0.154729 0.116450 0.058356
v -0.140800 0.116450 0.058356
v -0.140800 0.116450 -0.065273
v -0.154729 0.043471 0.058356
v -0.154729 0.075889 0.058356
v -0.154729 0.075889 -0.065273
v -0.154729 0.043471 -0.065273
v -0.154729 0.084032 0.058356
v -0.154729 0.084032 -0.065273
v -0.140800 0.084032 -0.065273
v -0.140800 0.084032 0.058356
v -0.140800 0.043471 -0.065273
v -0.140800 0.075889 -0.065273
v -0.140800 0.075889 0.058356
v -0.140800 0.043471 0.058356
v -0.146137 0.000195 0.051754
v -0.146137 0.032613 0.051754
v 0.146107 0.032613 0.051754
v 0.146107 0.000195 0.051754
v 0.146107 0.000195 0.065682
v 0.146107 0.032613 0.065682
v -0.146137 0.032613 0.065682
v -0.146137 0.000195 0.065682
v 0.146107 0.000195 -0.058018
v 0.146107 0.032613 -0.058018
v -0.146137 0.032613 -0.058018
v -0.146137 0.000195 -0.058018
v -0.146137 0.000195 -0.071945
v -0.146137 0.032613 -0.071945
v 0.146107 0.032613 -0.071945
v 0.146107 0.000195 -0.071945
v 0.145626 0.000195 0.058356
v 0.145626 0.032613 0.058356
v 0.145626 0.032613 -0.065273
v 0.145626 0.000195 -0.065273
v 0.159554 0.000195 -0.065273
v 0.159554 0.032613 -0.065273
v 0.159554 0.032613 0.058356
v 0.159554 0.000195 0.058356
v -0.154729 0.000195 0.058356
v -0.154729 0.032613 0.058356
v -0.154729 0.032613 -0.065273
v -0.154729 0.000195 -0.065273
v -0.140800 0.000195 -0.065273
v -0.140800 0.032613 -0.065273
v -0.140800 0.032613 0.058356
v -0.140800 0.000195 0.058356
vn 0.0000 1.0000 0.0000
vn 0.0000 0.0000 -1.0000
vn 0.0000 -1.0000 0.0000
vn 0.0000 -0.0000 1.0000
vn 1.0000 0.0000 0.0000
vn -1.0000 0.0000 0.0000
usemtl Wood
s 1
f 1//1 2//1 3//1 4//1
f 5//2 6//2 7//2 8//2
f 9//3 10//3 11//3 12//3
f 13//4 14//4 15//4 16//4
f 7//1 6//1 15//1 14//1
f 5//3 8//3 13//3 16//3
f 17//5 18//5 19//5 20//5
f 9//2 2//2 1//2 10//2
f 21//6 22//6 23//6 24//6
f 11//4 4//4 3//4 12//4
f 25//3 22//3 21//3 26//3
f 18//2 27//2 28//2 19//2
f 26//2 21//2 24//2 29//2
f 30//3 31//3 32//3 33//3
f 34//6 35//6 36//6 37//6
f 27//6 38//6 39//6 28//6
f 28//1 39//1 20//1 19//1
f 37//1 36//1 40//1 41//1
f 32//6 31//6 42//6 43//6
f 44//5 45//5 41//5 40//5
f 45//2 34//2 37//2 41//2
f 33//2 32//2 43//2 46//2
f 43//1 42//1 47//1 46//1
f 30//5 33//5 46//5 47//5
f 31//4 30//4 47//4 42//4
f 48//4 49//4 50//4 51//4
f 52//3 53//3 54//3 55//3
f 24//1 23//1 56//1 29//1
f 57//2 58//2 59//2 60//2
f 61//1 62//1 63//1 64//1
f 44//3 35//3 34//3 45//3
f 35//4 44//4 40//4 36//4
f 54//4 64//4 63//4 55//4
f 52//2 62//2 61//2 53//2
f 57//3 60//3 48//3 51//3
f 59//1 58//1 50//1 49//1
f 25//5 26//5 29//5 56//5
f 22//4 25//4 56//4 23//4
f 17//3 38//3 27//3 18//3
f 38//4 17//4 20//4 39//4
f 65//1 66//1 67//1 68//1
f 69//6 70//6 71//6 72//6
f 73//3 74//3 75//3 76//3
f 77//5 78//5 79//5 80//5
f 71//1 70//1 79//1 78//1
f 69//3 72//3 77//3 80//3
f 73//6 66//6 65//6 74//6
f 75//5 68//5 67//5 76//5
f 81//1 82//1 83//1 84//1
f 85//6 86//6 87//6 88//6
f 89//3 90//3 91//3 92//3
f 93//5 94//5 95//5 96//5
f 87//1 86//1 95//1 94//1
f 85//3 88//3 93//3 96//3
f 89//6 82//6 81//6 90//6
f 91//5 84//5 83//5 92//5
f 97//2 98//2 99//2 100//2
f 101//4 102//4 103//4 104//4
f 99//1 98//1 103//1 102//1
f 97//3 100//3 101//3 104//3
f 105//4 106//4 107//4 108//4
f 109//2 110//2 111//2 112//2
f 109//3 112//3 105//3 108//3
f 111//1 110//1 107//1 106//1
f 113//6 114//6 115//6 116//6
f 117//5 118//5 119//5 120//5
f 115//1 114//1 119//1 118//1
f 113//3 116//3 117//3 120//3
f 121//6 122//6 123//6 124//6
f 125//5 126//5 127//5 128//5
f 123//1 122//1 127//1 126//1
f 121//3 124//3 125//3 128//3
f 125//1 108//1 97//1 128//1 113//1 100//1 105//1 116//1
