# Blender v2.79 (sub 0) OBJ File: ''
# www.blender.org
mtllib crate_cross.mtl
o Cube_Cube.001
v -0.069114 0.027921 0.100000
v -0.069114 0.166149 0.100000
v -0.070300 0.026735 -0.100000
v -0.069141 0.197035 -0.069141
v 0.069114 0.027921 0.100000
v 0.069114 0.166149 0.100000
v 0.070300 0.026735 -0.100000
v 0.069141 0.197035 -0.069141
v -0.100000 0.024551 0.072484
v -0.069141 0.197035 0.069141
v 0.069141 0.197035 0.069141
v 0.068245 -0.002965 0.068245
v -0.100000 0.169519 0.072484
v -0.070300 0.167336 -0.100000
v 0.070300 0.167336 -0.100000
v 0.100000 0.169567 0.072531
v -0.100000 0.169519 -0.072484
v -0.100000 0.024551 -0.072484
v 0.068245 -0.002965 -0.068245
v 0.100000 0.169567 -0.072531
v -0.068245 -0.002965 -0.068245
v -0.068245 -0.002965 0.068245
v -0.100000 0.197035 0.100000
v -0.100000 0.197035 -0.100000
v -0.100000 -0.002965 -0.100000
v -0.100000 -0.002965 0.100000
v 0.100000 0.024504 -0.072531
v 0.100000 0.024504 0.072531
v -0.068245 0.012193 -0.068245
v -0.068245 0.012193 0.068245
v 0.068245 0.012193 -0.068245
v 0.068245 0.012193 0.068245
v -0.069114 0.027921 0.086794
v -0.069114 0.166149 0.086794
v 0.069114 0.166149 0.086794
v 0.069114 0.027921 0.086794
v -0.069141 0.184470 0.069141
v -0.069141 0.184470 -0.069141
v 0.069141 0.184470 -0.069141
v 0.069141 0.184470 0.069141
v -0.083390 0.024551 -0.072484
v -0.083390 0.024551 0.072484
v -0.083390 0.169519 0.072484
v -0.083390 0.169519 -0.072484
v -0.070300 0.167336 -0.083102
v -0.070300 0.026735 -0.083102
v 0.070300 0.026735 -0.083102
v 0.070300 0.167336 -0.083102
v 0.100000 0.197035 -0.100000
v 0.100000 -0.002965 -0.100000
v 0.100000 -0.002965 0.100000
v 0.100000 0.197035 0.100000
v 0.084005 0.169567 -0.072531
v 0.084005 0.024504 -0.072531
v 0.084005 0.024504 0.072531
v 0.084005 0.169567 0.072531
v -0.070013 0.035175 0.083725
v -0.090148 0.035262 0.083725
v -0.070075 0.012486 0.061035
v -0.090209 0.012573 0.061035
v -0.069604 0.186629 -0.069374
v -0.089738 0.186715 -0.069374
v -0.069665 0.163939 -0.092063
v -0.089800 0.164026 -0.092063
v 0.090092 0.035175 0.083725
v 0.070906 0.035262 0.083725
v 0.090031 0.012486 0.061035
v 0.070845 0.012573 0.061035
v 0.090502 0.186629 -0.069374
v 0.071316 0.186715 -0.069374
v 0.090440 0.163939 -0.092063
v 0.071255 0.164026 -0.092063
v -0.088065 0.035175 -0.073723
v -0.088065 0.035262 -0.091592
v -0.065375 0.012486 -0.073784
v -0.065375 0.012573 -0.091653
v 0.065034 0.186629 -0.073313
v 0.065034 0.186715 -0.091182
v 0.087723 0.163939 -0.073374
v 0.087723 0.164026 -0.091244
v -0.088065 0.035175 0.092328
v -0.088065 0.035262 0.070590
v -0.065375 0.012486 0.092267
v -0.065375 0.012573 0.070529
v 0.065034 0.186629 0.092738
v 0.065034 0.186715 0.071000
v 0.087723 0.163939 0.092676
v 0.087723 0.164026 0.070938
v -0.060302 0.005655 0.083725
v -0.060302 0.013937 0.083725
v -0.082991 0.005655 0.061035
v -0.082991 0.013937 0.061035
v 0.091152 0.005655 -0.069374
v 0.091152 0.013937 -0.069374
v 0.068463 0.005655 -0.092063
v 0.068463 0.013937 -0.092063
v 0.061249 0.011707 -0.073723
v 0.061162 0.011707 -0.091592
v 0.083938 0.034396 -0.073784
v 0.083852 0.034396 -0.091653
v -0.090204 0.164805 -0.073313
v -0.090291 0.164805 -0.091182
v -0.067515 0.187495 -0.073374
v -0.067602 0.187495 -0.091244
v 0.090092 0.187495 0.066718
v 0.070906 0.187495 0.066631
v 0.090031 0.164805 0.089407
v 0.070845 0.164805 0.089321
v 0.090502 0.034396 -0.084735
v 0.071316 0.034396 -0.084822
v 0.090440 0.011707 -0.062046
v 0.071255 0.011707 -0.062133
v -0.070013 0.184409 0.065106
v -0.090148 0.184409 0.065019
v -0.070075 0.161720 0.087795
v -0.090209 0.161720 0.087708
v -0.069604 0.031310 -0.086348
v -0.089738 0.031310 -0.086434
v -0.069665 0.008621 -0.063658
v -0.089800 0.008621 -0.063745
v -0.083814 0.005655 -0.061119
v -0.083814 0.013937 -0.061119
v -0.061124 0.005655 -0.083809
v -0.061124 0.013937 -0.083809
v 0.069285 0.005655 0.090335
v 0.069285 0.013937 0.090335
v 0.091974 0.005655 0.067645
v 0.091974 0.013937 0.067645
v -0.068690 0.187495 0.092328
v -0.068603 0.187495 0.070590
v -0.091379 0.164805 0.092267
v -0.091292 0.164805 0.070529
v 0.082763 0.034396 0.092738
v 0.082850 0.034396 0.071000
v 0.060074 0.011707 0.092676
v 0.060161 0.011707 0.070938
v -0.060302 0.183272 0.083725
v -0.060302 0.191553 0.083725
v -0.082991 0.183272 0.061035
v -0.082991 0.191553 0.061035
v 0.091152 0.183272 -0.069374
v 0.091152 0.191553 -0.069374
v 0.068463 0.183272 -0.092063
v 0.068463 0.191553 -0.092063
v -0.083814 0.183272 -0.061119
v -0.083814 0.191553 -0.061119
v -0.061124 0.183272 -0.083809
v -0.061124 0.191553 -0.083809
v 0.069285 0.183272 0.090335
v 0.069285 0.191553 0.090335
v 0.091974 0.183272 0.067645
v 0.091974 0.191553 0.067645
vn 0.0000 0.0000 1.0000
vn 0.0000 -1.0000 0.0000
vn -1.0000 0.0000 0.0000
vn 0.0000 1.0000 0.0000
vn 0.0000 0.0000 -1.0000
vn 1.0000 0.0000 0.0000
vn -0.0031 -0.7109 -0.7033
vn 0.0031 0.7109 0.7033
vn 1.0000 -0.0027 0.0000
vn -1.0000 0.0027 0.0000
vn -0.0032 -0.7109 -0.7033
vn 0.0032 0.7109 0.7033
vn 0.7033 -0.7109 -0.0035
vn -0.7033 0.7109 0.0035
vn -0.0000 -0.0027 1.0000
vn -0.0000 0.0027 -1.0000
vn 0.7033 -0.7109 -0.0028
vn -0.7033 0.7109 0.0028
vn -0.7109 0.0000 -0.7033
vn 0.7109 0.0000 0.7033
vn 0.7109 0.7033 -0.0035
vn -0.7109 -0.7033 0.0035
vn 0.0027 -0.0000 1.0000
vn -0.0027 -0.0000 -1.0000
vn -0.0032 -0.7033 0.7109
vn 0.0032 0.7033 -0.7109
vn 1.0000 0.0000 0.0027
vn -1.0000 0.0000 -0.0027
vn -0.0031 -0.7033 0.7109
vn 0.0031 0.7033 -0.7109
vn 0.7033 0.0000 -0.7109
vn -0.7033 0.0000 0.7109
vn -0.7109 -0.7033 -0.0028
vn 0.7109 0.7033 0.0028
vn -0.0027 0.0000 1.0000
vn 0.0027 0.0000 -1.0000
usemtl Wood
s off
f 17//1 18//1 41//1 44//1
f 14//2 15//2 48//2 45//2
f 20//2 16//2 56//2 53//2
f 6//2 2//2 34//2 35//2
f 19//3 12//3 32//3 31//3
f 11//3 8//3 39//3 40//3
f 1//1 2//1 23//1 26//1
f 6//1 5//1 51//1 52//1
f 5//1 1//1 26//1 51//1
f 2//1 6//1 52//1 23//1
f 10//4 4//4 24//4 23//4
f 4//4 8//4 49//4 24//4
f 8//4 11//4 52//4 49//4
f 11//4 10//4 23//4 52//4
f 14//5 3//5 25//5 24//5
f 3//5 7//5 50//5 25//5
f 15//5 14//5 24//5 49//5
f 7//5 15//5 49//5 50//5
f 9//3 18//3 25//3 26//3
f 13//3 9//3 26//3 23//3
f 17//3 13//3 23//3 24//3
f 18//3 17//3 24//3 25//3
f 21//2 22//2 26//2 25//2
f 19//2 21//2 25//2 50//2
f 12//2 19//2 50//2 51//2
f 22//2 12//2 51//2 26//2
f 22//6 21//6 29//6 30//6
f 12//5 22//5 30//5 32//5
f 21//1 19//1 31//1 29//1
f 5//3 6//3 35//3 36//3
f 1//4 5//4 36//4 33//4
f 2//6 1//6 33//6 34//6
f 4//6 10//6 37//6 38//6
f 10//5 11//5 40//5 37//5
f 8//1 4//1 38//1 39//1
f 9//5 13//5 43//5 42//5
f 13//2 17//2 44//2 43//2
f 18//4 9//4 42//4 41//4
f 3//6 14//6 45//6 46//6
f 15//3 7//3 47//3 48//3
f 7//4 3//4 46//4 47//4
f 20//6 27//6 50//6 49//6
f 27//6 28//6 51//6 50//6
f 16//6 20//6 49//6 52//6
f 28//6 16//6 52//6 51//6
f 27//1 20//1 53//1 54//1
f 16//5 28//5 55//5 56//5
f 28//4 27//4 54//4 55//4
f 59//7 60//7 64//7 63//7
f 61//8 62//8 58//8 57//8
f 59//9 63//9 61//9 57//9
f 64//10 60//10 58//10 62//10
f 67//11 68//11 72//11 71//11
f 69//12 70//12 66//12 65//12
f 67//9 71//9 69//9 65//9
f 72//10 68//10 66//10 70//10
f 75//13 76//13 80//13 79//13
f 77//14 78//14 74//14 73//14
f 75//15 79//15 77//15 73//15
f 80//16 76//16 74//16 78//16
f 83//17 84//17 88//17 87//17
f 85//18 86//18 82//18 81//18
f 83//15 87//15 85//15 81//15
f 88//16 84//16 82//16 86//16
f 91//19 92//19 96//19 95//19
f 93//20 94//20 90//20 89//20
f 91//2 95//2 93//2 89//2
f 96//4 92//4 90//4 94//4
f 99//21 100//21 104//21 103//21
f 101//22 102//22 98//22 97//22
f 99//23 103//23 101//23 97//23
f 104//24 100//24 98//24 102//24
f 107//25 108//25 112//25 111//25
f 109//26 110//26 106//26 105//26
f 107//27 111//27 109//27 105//27
f 112//28 108//28 106//28 110//28
f 115//29 116//29 120//29 119//29
f 117//30 118//30 114//30 113//30
f 115//27 119//27 117//27 113//27
f 120//28 116//28 114//28 118//28
f 123//31 124//31 128//31 127//31
f 125//32 126//32 122//32 121//32
f 123//2 127//2 125//2 121//2
f 128//4 124//4 122//4 126//4
f 131//33 132//33 136//33 135//33
f 133//34 134//34 130//34 129//34
f 131//35 135//35 133//35 129//35
f 136//36 132//36 130//36 134//36
f 139//19 140//19 144//19 143//19
f 141//20 142//20 138//20 137//20
f 139//2 143//2 141//2 137//2
f 144//4 140//4 138//4 142//4
f 147//31 148//31 152//31 151//31
f 149//32 150//32 146//32 145//32
f 147//2 151//2 149//2 145//2
f 152//4 148//4 146//4 150//4
usemtl Dark_Wood
f 29//2 31//2 32//2 30//2
f 36//1 35//1 34//1 33//1
f 39//4 38//4 37//4 40//4
f 42//3 43//3 44//3 41//3
f 46//5 45//5 48//5 47//5
f 54//6 53//6 56//6 55//6
