# Blender v2.79 (sub 0) OBJ File: 'temp.blend'
# www.blender.org
mtllib flat_chest.mtl
o Cube_Cube.001
v -0.058969 0.000384 0.103631
v -0.058969 0.118322 0.103631
v -0.058969 0.000384 -0.103631
v -0.058969 0.118322 -0.103631
v 0.058969 0.000384 0.103631
v 0.058969 0.118322 0.103631
v 0.058969 0.000384 -0.103631
v 0.058969 0.118322 -0.103631
v -0.061182 0.015160 -0.089765
v 0.058683 0.015160 -0.089765
v -0.061182 0.015160 -0.106213
v 0.058683 0.015160 -0.106213
v -0.061182 -0.001288 -0.089765
v 0.058683 -0.001288 -0.089765
v -0.061182 -0.001288 -0.106213
v 0.058683 -0.001288 -0.106213
v -0.061182 0.015160 0.107644
v 0.058683 0.015160 0.107644
v -0.061182 0.015160 0.091196
v 0.058683 0.015160 0.091196
v -0.061182 -0.001288 0.107644
v 0.058683 -0.001288 0.107644
v -0.061182 -0.001288 0.091196
v 0.058683 -0.001288 0.091196
v -0.061182 0.122139 0.107644
v 0.058683 0.122139 0.107644
v -0.061182 0.122139 0.091196
v 0.058683 0.122139 0.091196
v -0.061182 0.105692 0.107644
v 0.058683 0.105692 0.107644
v -0.061182 0.105692 0.091196
v 0.058683 0.105692 0.091196
v -0.061182 0.122139 -0.089765
v 0.058683 0.122139 -0.089765
v -0.061182 0.122139 -0.106213
v 0.058683 0.122139 -0.106213
v -0.061182 0.105692 -0.089765
v 0.058683 0.105692 -0.089765
v -0.061182 0.105692 -0.106213
v 0.058683 0.105692 -0.106213
v -0.062063 -0.002396 0.107507
v -0.062063 0.122048 0.107507
v -0.062063 -0.002396 0.091059
v -0.062063 0.122048 0.091059
v -0.045615 -0.002396 0.107507
v -0.045615 0.122048 0.107507
v -0.045615 -0.002396 0.091059
v -0.045615 0.122048 0.091059
v 0.044917 -0.002396 0.107507
v 0.044917 0.122048 0.107507
v 0.044917 -0.002396 0.091059
v 0.044917 0.122048 0.091059
v 0.061364 -0.002396 0.107507
v 0.061364 0.122048 0.107507
v 0.061364 -0.002396 0.091059
v 0.061364 0.122048 0.091059
v 0.044917 -0.002396 -0.089765
v 0.044917 0.122048 -0.089765
v 0.044917 -0.002396 -0.106213
v 0.044917 0.122048 -0.106213
v 0.061364 -0.002396 -0.089765
v 0.061364 0.122048 -0.089765
v 0.061364 -0.002396 -0.106213
v 0.061364 0.122048 -0.106213
v -0.062063 -0.002396 -0.089765
v -0.062063 0.122048 -0.089765
v -0.062063 -0.002396 -0.106213
v -0.062063 0.122048 -0.106213
v -0.045615 -0.002396 -0.089765
v -0.045615 0.122048 -0.089765
v -0.045615 -0.002396 -0.106213
v -0.045615 0.122048 -0.106213
v 0.060924 0.122139 0.098775
v 0.060924 0.122139 -0.093444
v 0.044476 0.122139 0.098775
v 0.044476 0.122139 -0.093444
v 0.060924 0.105692 0.098775
v 0.060924 0.105692 -0.093444
v 0.044476 0.105692 0.098775
v 0.044476 0.105692 -0.093444
v 0.060924 0.014135 0.098775
v 0.060924 0.014135 -0.093444
v 0.044476 0.014135 0.098775
v 0.044476 0.014135 -0.093444
v 0.060924 -0.002313 0.098775
v 0.060924 -0.002313 -0.093444
v 0.044476 -0.002313 0.098775
v 0.044476 -0.002313 -0.093444
v -0.045232 0.122139 0.098775
v -0.045232 0.122139 -0.093444
v -0.061679 0.122139 0.098775
v -0.061679 0.122139 -0.093444
v -0.045232 0.105692 0.098775
v -0.045232 0.105692 -0.093444
v -0.061679 0.105692 0.098775
v -0.061679 0.105692 -0.093444
v -0.045232 0.014135 0.098775
v -0.045232 0.014135 -0.093444
v -0.061679 0.014135 0.098775
v -0.061679 0.014135 -0.093444
v -0.045232 -0.002313 0.098775
v -0.045232 -0.002313 -0.093444
v -0.061679 -0.002313 0.098775
v -0.061679 -0.002313 -0.093444
v -0.008775 0.122139 0.098775
v -0.008774 0.122139 -0.093444
v -0.025222 0.122139 0.098775
v -0.025222 0.122139 -0.093444
v -0.008775 0.105692 0.098775
v -0.008775 0.105692 -0.093444
v -0.025222 0.105692 0.098775
v -0.025222 0.105692 -0.093444
v 0.008254 0.105692 -0.093444
v 0.008254 0.105692 0.098775
v 0.024701 0.105692 -0.093444
v 0.024701 0.105692 0.098775
v 0.008254 0.122139 -0.093444
v 0.008254 0.122139 0.098775
v 0.024701 0.122139 -0.093444
v 0.024701 0.122139 0.098775
v -0.045355 0.036304 0.098775
v -0.045355 0.036304 -0.093444
v -0.045355 0.052752 0.098775
v -0.045355 0.052752 -0.093444
v -0.045355 0.086228 -0.093444
v -0.045355 0.086228 0.098775
v -0.045355 0.069780 -0.093444
v -0.045355 0.069780 0.098775
v -0.061182 0.015160 0.009043
v 0.058683 0.015160 0.009043
v -0.061182 0.015160 -0.007405
v 0.058683 0.015160 -0.007405
v -0.061182 -0.001288 0.009043
v 0.058683 -0.001288 0.009043
v -0.061182 -0.001288 -0.007405
v 0.058683 -0.001288 -0.007405
v -0.061182 0.122139 0.009043
v 0.058683 0.122139 0.009043
v -0.061182 0.122139 -0.007405
v 0.058683 0.122139 -0.007405
v -0.061182 0.105692 0.009043
v 0.058683 0.105692 0.009043
v -0.061182 0.105692 -0.007405
v 0.058683 0.105692 -0.007405
v -0.062063 -0.002396 0.008905
v -0.062063 0.122048 0.008905
v -0.062063 -0.002396 -0.007542
v -0.062063 0.122048 -0.007542
v -0.045615 -0.002396 0.008905
v -0.045615 0.122048 0.008905
v -0.045615 -0.002396 -0.007542
v -0.045615 0.122048 -0.007542
v 0.044917 -0.002396 0.008905
v 0.044917 0.122048 0.008905
v 0.044917 -0.002396 -0.007542
v 0.044917 0.122048 -0.007542
v 0.061364 -0.002396 0.008905
v 0.061364 0.122048 0.008905
v 0.061364 -0.002396 -0.007542
v 0.061364 0.122048 -0.007542
vn -0.0000 1.0000 0.0000
vn -0.0000 0.0000 -1.0000
vn 0.0000 -1.0000 0.0000
vn 0.0000 0.0000 1.0000
vn -1.0000 0.0000 0.0000
vn 1.0000 0.0000 0.0000
usemtl Iron
s off
f 9//1 10//1 12//1 11//1
f 11//2 12//2 16//2 15//2
f 15//3 16//3 14//3 13//3
f 13//4 14//4 10//4 9//4
f 11//5 15//5 13//5 9//5
f 16//6 12//6 10//6 14//6
f 17//1 18//1 20//1 19//1
f 19//2 20//2 24//2 23//2
f 23//3 24//3 22//3 21//3
f 21//4 22//4 18//4 17//4
f 19//5 23//5 21//5 17//5
f 24//6 20//6 18//6 22//6
f 25//1 26//1 28//1 27//1
f 27//2 28//2 32//2 31//2
f 31//3 32//3 30//3 29//3
f 29//4 30//4 26//4 25//4
f 27//5 31//5 29//5 25//5
f 32//6 28//6 26//6 30//6
f 33//1 34//1 36//1 35//1
f 35//2 36//2 40//2 39//2
f 39//3 40//3 38//3 37//3
f 37//4 38//4 34//4 33//4
f 35//5 39//5 37//5 33//5
f 40//6 36//6 34//6 38//6
f 41//5 42//5 44//5 43//5
f 43//2 44//2 48//2 47//2
f 47//6 48//6 46//6 45//6
f 45//4 46//4 42//4 41//4
f 43//3 47//3 45//3 41//3
f 48//1 44//1 42//1 46//1
f 49//5 50//5 52//5 51//5
f 51//2 52//2 56//2 55//2
f 55//6 56//6 54//6 53//6
f 53//4 54//4 50//4 49//4
f 51//3 55//3 53//3 49//3
f 56//1 52//1 50//1 54//1
f 57//5 58//5 60//5 59//5
f 59//2 60//2 64//2 63//2
f 63//6 64//6 62//6 61//6
f 61//4 62//4 58//4 57//4
f 59//3 63//3 61//3 57//3
f 64//1 60//1 58//1 62//1
f 65//5 66//5 68//5 67//5
f 67//2 68//2 72//2 71//2
f 71//6 72//6 70//6 69//6
f 69//4 70//4 66//4 65//4
f 67//3 71//3 69//3 65//3
f 72//1 68//1 66//1 70//1
f 73//1 74//1 76//1 75//1
f 75//5 76//5 80//5 79//5
f 79//3 80//3 78//3 77//3
f 77//6 78//6 74//6 73//6
f 81//1 82//1 84//1 83//1
f 83//5 84//5 88//5 87//5
f 87//3 88//3 86//3 85//3
f 85//6 86//6 82//6 81//6
f 89//1 90//1 92//1 91//1
f 91//5 92//5 96//5 95//5
f 95//3 96//3 94//3 93//3
f 93//6 94//6 90//6 89//6
f 97//1 98//1 100//1 99//1
f 99//5 100//5 104//5 103//5
f 103//3 104//3 102//3 101//3
f 101//6 102//6 98//6 97//6
f 105//1 106//1 108//1 107//1
f 107//5 108//5 112//5 111//5
f 111//3 112//3 110//3 109//3
f 109//6 110//6 106//6 105//6
f 116//6 115//6 119//6 120//6
f 114//3 113//3 115//3 116//3
f 118//5 117//5 113//5 114//5
f 120//1 119//1 117//1 118//1
f 121//6 122//6 124//6 123//6
f 128//6 127//6 125//6 126//6
f 129//1 130//1 132//1 131//1
f 131//2 132//2 136//2 135//2
f 135//3 136//3 134//3 133//3
f 133//4 134//4 130//4 129//4
f 137//1 138//1 140//1 139//1
f 139//2 140//2 144//2 143//2
f 143//3 144//3 142//3 141//3
f 141//4 142//4 138//4 137//4
f 145//5 146//5 148//5 147//5
f 147//2 148//2 152//2 151//2
f 151//6 152//6 150//6 149//6
f 149//4 150//4 146//4 145//4
f 153//5 154//5 156//5 155//5
f 155//2 156//2 160//2 159//2
f 159//6 160//6 158//6 157//6
f 157//4 158//4 154//4 153//4
usemtl Wood
f 1//5 2//5 4//5 3//5
f 3//2 4//2 8//2 7//2
f 7//6 8//6 6//6 5//6
f 5//4 6//4 2//4 1//4
f 3//3 7//3 5//3 1//3
f 8//1 4//1 2//1 6//1
