# Blender v2.79 (sub 0) OBJ File: 'temp.blend'
# www.blender.org
mtllib rounded_chest_open.mtl
o Cube_Cube.000_Cube_Cube.003
v -0.062059 0.114773 0.107507
v -0.056497 0.140397 -0.103631
v -0.056497 0.140397 0.103631
v -0.051487 0.127373 0.107507
v 0.006706 0.196725 0.107507
v 0.017278 0.209324 0.091059
v 0.017278 0.209324 0.107507
v -0.037489 0.116224 0.091059
v -0.062059 0.114773 0.091059
v -0.062059 0.114773 -0.089765
v -0.051487 0.127373 0.091059
v -0.057216 0.114749 0.103631
v -0.057216 0.114749 -0.103631
v 0.018593 0.205094 -0.103631
v 0.018593 0.205094 0.103631
v -0.012004 0.203999 -0.103631
v -0.012004 0.203999 0.103631
v -0.061450 0.145071 0.103631
v -0.061450 0.145071 -0.103631
v -0.039324 0.191960 -0.103631
v -0.039324 0.191960 0.103631
v -0.054339 0.174066 0.103631
v -0.054339 0.174066 -0.103631
v -0.052307 0.137781 -0.106213
v -0.052307 0.137781 -0.089765
v -0.064907 0.148353 0.107507
v -0.052307 0.137781 0.107507
v -0.064907 0.148353 0.091059
v -0.052307 0.137781 0.091059
v -0.064907 0.148353 -0.089765
v -0.064906 0.148353 -0.106213
v -0.045066 0.167127 -0.106213
v -0.045066 0.167127 -0.089765
v -0.057666 0.177699 0.107507
v -0.045066 0.167127 0.107507
v -0.057666 0.177699 0.091059
v -0.045066 0.167127 0.091059
v -0.057666 0.177700 -0.089765
v -0.057666 0.177700 -0.106213
v -0.031329 0.183498 -0.089765
v -0.031329 0.183498 0.107507
v -0.043929 0.194071 0.091059
v -0.031329 0.183498 0.091059
v -0.043929 0.194071 -0.089765
v 0.017278 0.209324 -0.106213
v -0.057878 0.112542 0.095075
v 0.006705 0.196724 -0.089765
v 0.006705 0.196724 -0.106213
v 0.006705 0.196724 0.091059
v -0.003686 0.195724 0.107507
v -0.003686 0.195724 0.091059
v -0.016286 0.206297 -0.106213
v -0.003686 0.195724 -0.106213
v -0.016286 0.206297 -0.089765
v -0.003686 0.195724 -0.089765
v -0.016286 0.206297 0.091059
v -0.016286 0.206297 0.107507
v -0.043929 0.194071 -0.106213
v -0.031329 0.183498 -0.106213
v -0.043929 0.194071 0.107507
v -0.059042 0.112542 0.103631
v -0.059042 0.112542 -0.103631
v 0.016767 0.202888 -0.103631
v 0.016767 0.202888 0.103631
v -0.013830 0.201792 -0.103631
v -0.013830 0.201792 0.103631
v -0.063276 0.142864 0.103631
v -0.063276 0.142864 -0.103631
v -0.041150 0.189754 -0.103631
v -0.041150 0.189754 0.103631
v -0.056165 0.171859 0.103631
v -0.056165 0.171859 -0.103631
v -0.048062 0.103624 0.107507
v -0.007051 0.199325 0.103631
v -0.007051 0.199325 -0.103631
v -0.037489 0.116224 0.107507
v 0.020703 0.185576 0.107507
v 0.031275 0.198175 0.091059
v 0.031275 0.198175 0.107507
v 0.020703 0.185575 0.091059
v 0.023546 0.200421 0.103631
v -0.062059 0.114773 -0.106213
v -0.051487 0.127373 -0.106213
v 0.023546 0.200421 -0.103631
v 0.012269 0.202888 0.095075
v -0.018328 0.201792 0.095075
v 0.017278 0.209324 -0.089765
v -0.062112 0.142864 0.095075
v -0.052263 0.110075 -0.103631
v -0.048062 0.103624 -0.106213
v -0.037489 0.116224 -0.106213
v -0.037489 0.116224 -0.089765
v -0.063276 0.147869 -0.093360
v 0.031275 0.198175 -0.106213
v 0.031275 0.198175 -0.089765
v 0.020703 0.185575 -0.106213
v -0.013830 0.206797 -0.093360
v 0.016767 0.207893 -0.093360
v 0.020703 0.185575 -0.089765
v -0.059042 0.117547 -0.093360
v -0.048062 0.103624 0.091059
v -0.051487 0.127373 -0.089765
v -0.052263 0.110075 0.103631
v -0.048062 0.103624 -0.089765
v -0.034370 0.187287 -0.103631
v -0.034370 0.187287 0.103631
v -0.049386 0.169393 0.103631
v -0.049386 0.169393 -0.103631
v -0.061182 0.015160 -0.089765
v 0.058683 0.015160 -0.089765
v 0.058683 0.015160 -0.106213
v -0.061182 0.015160 -0.106213
v 0.058683 -0.001288 -0.106213
v -0.061182 -0.001288 -0.106213
v 0.058683 -0.001288 -0.089765
v -0.061182 -0.001288 -0.089765
v -0.061182 0.015160 0.107644
v 0.058683 0.015160 0.107644
v 0.058683 0.015160 0.091196
v -0.061182 0.015160 0.091196
v 0.058683 -0.001288 0.091196
v -0.061182 -0.001288 0.091196
v 0.058683 -0.001288 0.107644
v -0.061182 -0.001288 0.107644
v -0.061182 0.122139 0.107644
v 0.058683 0.122139 0.107644
v 0.058683 0.122139 0.091196
v -0.061182 0.122139 0.091196
v 0.058683 0.105692 0.091196
v -0.061182 0.105692 0.091196
v 0.058683 0.105692 0.107644
v -0.061182 0.105692 0.107644
v -0.061182 0.122139 -0.089765
v 0.058683 0.122139 -0.089765
v 0.058683 0.122139 -0.106213
v -0.061182 0.122139 -0.106213
v 0.058683 0.105692 -0.106213
v -0.061182 0.105692 -0.106213
v 0.058683 0.105692 -0.089765
v -0.061182 0.105692 -0.089765
v -0.062063 -0.002396 0.107507
v -0.062063 0.122048 0.107507
v -0.062063 0.122048 0.091059
v -0.062063 -0.002396 0.091059
v -0.045615 0.122048 0.091059
v -0.045615 -0.002396 0.091059
v -0.045615 0.122048 0.107507
v -0.045615 -0.002396 0.107507
v 0.044917 -0.002396 0.107507
v 0.044917 0.122048 0.107507
v 0.044917 -0.002396 0.091059
v 0.061364 0.122048 0.091059
v 0.061364 -0.002396 0.091059
v 0.061364 0.122048 0.107507
v 0.061364 -0.002396 0.107507
v 0.044917 -0.002396 -0.089765
v 0.044917 -0.002396 -0.106213
v 0.061364 -0.002396 -0.106213
v 0.061364 -0.002396 -0.089765
v -0.062063 -0.002396 -0.089765
v -0.062063 0.122048 -0.089765
v -0.062063 0.122048 -0.106213
v -0.062063 -0.002396 -0.106213
v -0.045615 0.122048 -0.106213
v -0.045615 -0.002396 -0.106213
v -0.045615 0.122048 -0.089765
v -0.045615 -0.002396 -0.089765
v 0.060924 0.122139 0.098775
v 0.060924 0.122139 -0.093444
v 0.044476 0.122139 -0.093444
v 0.044476 0.122139 0.098775
v 0.044476 0.105692 -0.093444
v 0.044476 0.105692 0.098775
v 0.060924 0.105692 -0.093444
v 0.060924 0.105692 0.098775
v 0.060924 0.014135 0.098775
v 0.060924 0.014135 -0.093444
v 0.044476 0.014135 -0.093444
v 0.044476 0.014135 0.098775
v 0.044476 -0.002313 -0.093444
v 0.044476 -0.002313 0.098775
v 0.060924 -0.002313 -0.093444
v 0.060924 -0.002313 0.098775
v -0.045232 0.122139 0.098775
v -0.045232 0.122139 -0.093444
v -0.061679 0.122139 -0.093444
v -0.061679 0.122139 0.098775
v -0.061679 0.105692 -0.093444
v -0.061679 0.105692 0.098775
v -0.045232 0.105692 -0.093444
v -0.045232 0.105692 0.098775
v -0.045232 0.014135 0.098775
v -0.045232 0.014135 -0.093444
v -0.061679 0.014135 -0.093444
v -0.061679 0.014135 0.098775
v -0.061679 -0.002313 -0.093444
v -0.061679 -0.002313 0.098775
v -0.045232 -0.002313 -0.093444
v -0.045232 -0.002313 0.098775
v 0.058969 0.017802 0.103631
v 0.058969 0.017802 -0.103631
v -0.058969 0.017802 -0.103631
v -0.058969 0.017802 0.103631
v 0.044177 0.000384 0.103631
v 0.044177 0.105977 0.103631
v 0.044177 0.105977 -0.103631
v 0.044177 0.000384 -0.103631
v -0.058969 0.000384 -0.089155
v -0.058969 0.105977 -0.089155
v 0.058969 0.105977 -0.089155
v 0.058969 0.000384 -0.089155
v -0.045355 0.036304 0.098775
v -0.045355 0.036304 -0.093444
v -0.045355 0.052752 -0.093444
v -0.045355 0.052752 0.098775
v -0.045355 0.069780 0.098775
v -0.045355 0.069780 -0.093444
v -0.045355 0.086228 -0.093444
v -0.045355 0.086228 0.098775
v -0.061182 0.015160 0.009043
v 0.058683 0.015160 0.009043
v 0.058683 0.015160 -0.007405
v -0.061182 0.015160 -0.007405
v 0.058683 -0.001288 -0.007405
v -0.061182 -0.001288 -0.007405
v 0.058683 -0.001288 0.009043
v -0.061182 -0.001288 0.009043
v -0.043755 0.000384 -0.103631
v -0.043755 0.111153 -0.103631
v -0.043755 0.111153 0.103631
v -0.043755 0.000384 0.103631
v 0.058969 0.000384 0.090990
v 0.058969 0.105977 0.090990
v -0.058969 0.105977 0.090990
v -0.058969 0.000384 0.090990
v -0.062063 -0.002396 0.008905
v -0.062063 0.122048 0.008905
v -0.062063 0.122048 -0.007542
v -0.062063 -0.002396 -0.007542
v -0.045615 0.122048 -0.007542
v -0.045615 -0.002396 -0.007542
v -0.045615 0.122048 0.008905
v -0.045615 -0.002396 0.008905
v 0.044917 -0.002396 0.008905
v 0.044917 0.122048 0.008905
v 0.044917 0.122048 -0.007542
v 0.044917 -0.002396 -0.007542
v 0.061364 0.122048 -0.007542
v 0.061364 -0.002396 -0.007542
v 0.061364 0.122048 0.008905
v 0.061364 -0.002396 0.008905
v -0.058969 0.000384 0.103631
v -0.058969 0.118322 0.103631
v -0.058969 0.118322 -0.103631
v -0.058969 0.000384 -0.103631
v 0.058969 0.118322 -0.103631
v 0.058969 0.000384 -0.103631
v 0.058969 0.118322 0.103631
v 0.058969 0.000384 0.103631
v 0.061364 0.122048 -0.106213
v 0.061364 0.122048 -0.089765
v 0.044916 0.122048 -0.089765
v 0.044916 0.122048 -0.106213
v 0.044916 0.122048 0.091059
vn 0.0000 -0.0000 1.0000
vn -0.9964 -0.0845 -0.0000
vn -0.9709 0.2395 -0.0000
vn 0.0000 0.0000 -1.0000
vn 0.9969 0.0785 0.0000
vn 0.7660 -0.6428 -0.0000
vn 0.9709 -0.2395 0.0000
vn -0.7660 0.6428 -0.0000
vn -0.0898 0.9960 -0.0000
vn -0.4045 0.9145 0.0000
vn 0.0958 -0.9954 0.0000
vn 0.4045 -0.9145 0.0000
vn -0.6230 -0.7822 0.0001
vn 0.6230 0.7822 0.0000
vn -0.6230 -0.7822 -0.0000
vn -0.0000 1.0000 0.0000
vn 0.0000 -1.0000 0.0000
vn -1.0000 -0.0000 -0.0000
vn 1.0000 0.0000 0.0000
vn -0.0358 0.9994 0.0000
vn -0.9904 -0.1383 0.0000
vn -0.4032 0.9151 0.0000
vn -0.9712 0.2382 0.0000
vn 0.0358 -0.9994 0.0000
vn 0.9904 0.1383 -0.0000
vn 0.4032 -0.9151 -0.0000
vn 0.9712 -0.2382 -0.0000
usemtl Iron
s off
f 10//1 102//1 25//1 30//1
f 9//2 1//2 26//2 28//2
f 28//3 26//3 34//3 36//3
f 24//4 31//4 39//4 32//4
f 11//4 9//4 28//4 29//4
f 83//4 82//4 31//4 24//4
f 1//1 4//1 27//1 26//1
f 4//5 11//5 29//5 27//5
f 82//2 10//2 30//2 31//2
f 102//5 83//5 24//5 25//5
f 35//6 37//6 43//6 41//6
f 33//6 32//6 59//6 40//6
f 26//1 27//1 35//1 34//1
f 31//3 30//3 38//3 39//3
f 30//1 25//1 33//1 38//1
f 29//4 28//4 36//4 37//4
f 25//7 24//7 32//7 33//7
f 27//7 29//7 37//7 35//7
f 32//4 39//4 58//4 59//4
f 36//8 34//8 60//8 42//8
f 34//1 35//1 41//1 60//1
f 39//8 38//8 44//8 58//8
f 38//1 33//1 40//1 44//1
f 37//4 36//4 42//4 43//4
f 6//4 49//4 51//4 56//4
f 87//9 45//9 52//9 54//9
f 54//10 52//10 58//10 44//10
f 50//1 57//1 60//1 41//1
f 47//1 87//1 54//1 55//1
f 5//1 7//1 57//1 50//1
f 45//4 48//4 53//4 52//4
f 48//11 47//11 55//11 53//11
f 7//9 6//9 56//9 57//9
f 49//11 5//11 50//11 51//11
f 52//4 53//4 59//4 58//4
f 57//10 56//10 42//10 60//10
f 56//4 51//4 43//4 42//4
f 55//1 54//1 44//1 40//1
f 51//12 50//12 41//12 43//12
f 53//12 55//12 40//12 59//12
f 9//4 11//4 8//4 101//4
f 7//1 5//1 77//1 79//1
f 5//13 49//13 80//13 77//13
f 11//14 4//14 76//14 8//14
f 1//15 9//15 101//15 73//15
f 4//1 1//1 73//1 76//1
f 80//15 49//15 47//15 99//15
f 6//14 7//14 79//14 78//14
f 5//8 49//8 11//8 4//8
f 49//4 80//4 8//4 11//4
f 4//1 76//1 77//1 5//1
f 8//6 80//6 77//6 76//6
f 77//6 80//6 78//6 79//6
f 82//4 83//4 91//4 90//4
f 87//1 47//1 99//1 95//1
f 10//15 82//15 90//15 104//15
f 102//1 10//1 104//1 92//1
f 48//4 45//4 94//4 96//4
f 45//14 87//14 95//14 94//14
f 47//8 48//8 83//8 102//8
f 48//4 96//4 91//4 83//4
f 102//1 92//1 99//1 47//1
f 91//6 96//6 99//6 92//6
f 99//6 96//6 94//6 95//6
f 73//6 101//6 8//6 76//6
f 92//6 104//6 90//6 91//6
f 78//6 80//6 99//6 95//6
f 6//14 78//14 95//14 87//14
f 49//8 6//8 87//8 47//8
f 101//15 9//15 10//15 104//15
f 8//6 101//6 104//6 92//6
f 11//14 8//14 92//14 102//14
f 9//8 11//8 102//8 10//8
f 109//16 110//16 111//16 112//16
f 112//4 111//4 113//4 114//4
f 114//17 113//17 115//17 116//17
f 116//1 115//1 110//1 109//1
f 112//18 114//18 116//18 109//18
f 113//19 111//19 110//19 115//19
f 117//16 118//16 119//16 120//16
f 120//4 119//4 121//4 122//4
f 122//17 121//17 123//17 124//17
f 124//1 123//1 118//1 117//1
f 120//18 122//18 124//18 117//18
f 121//19 119//19 118//19 123//19
f 125//16 126//16 127//16 128//16
f 128//4 127//4 129//4 130//4
f 130//17 129//17 131//17 132//17
f 132//1 131//1 126//1 125//1
f 128//18 130//18 132//18 125//18
f 129//19 127//19 126//19 131//19
f 133//16 134//16 135//16 136//16
f 136//4 135//4 137//4 138//4
f 138//17 137//17 139//17 140//17
f 140//1 139//1 134//1 133//1
f 136//18 138//18 140//18 133//18
f 137//19 135//19 134//19 139//19
f 141//18 142//18 143//18 144//18
f 144//4 143//4 145//4 146//4
f 146//19 145//19 147//19 148//19
f 148//1 147//1 142//1 141//1
f 144//17 146//17 148//17 141//17
f 149//18 150//18 264//18 151//18
f 151//4 264//4 152//4 153//4
f 153//19 152//19 154//19 155//19
f 155//1 154//1 150//1 149//1
f 151//17 153//17 155//17 149//17
f 152//16 264//16 150//16 154//16
f 156//18 262//18 263//18 157//18
f 157//4 263//4 260//4 158//4
f 158//19 260//19 261//19 159//19
f 159//1 261//1 262//1 156//1
f 157//17 158//17 159//17 156//17
f 260//16 263//16 262//16 261//16
f 160//18 161//18 162//18 163//18
f 163//4 162//4 164//4 165//4
f 165//19 164//19 166//19 167//19
f 167//1 166//1 161//1 160//1
f 163//17 165//17 167//17 160//17
f 168//16 169//16 170//16 171//16
f 171//18 170//18 172//18 173//18
f 173//17 172//17 174//17 175//17
f 175//19 174//19 169//19 168//19
f 176//16 177//16 178//16 179//16
f 179//18 178//18 180//18 181//18
f 181//17 180//17 182//17 183//17
f 183//19 182//19 177//19 176//19
f 184//16 185//16 186//16 187//16
f 187//18 186//18 188//18 189//18
f 189//17 188//17 190//17 191//17
f 191//19 190//19 185//19 184//19
f 192//16 193//16 194//16 195//16
f 195//18 194//18 196//18 197//18
f 197//17 196//17 198//17 199//17
f 199//19 198//19 193//19 192//19
f 212//19 213//19 214//19 215//19
f 216//19 217//19 218//19 219//19
f 220//16 221//16 222//16 223//16
f 223//4 222//4 224//4 225//4
f 225//17 224//17 226//17 227//17
f 227//1 226//1 221//1 220//1
f 236//18 237//18 238//18 239//18
f 239//4 238//4 240//4 241//4
f 241//19 240//19 242//19 243//19
f 243//1 242//1 237//1 236//1
f 244//18 245//18 246//18 247//18
f 247//4 246//4 248//4 249//4
f 249//19 248//19 250//19 251//19
f 251//1 250//1 245//1 244//1
usemtl Wood
f 15//20 14//20 16//20 17//20
f 13//21 12//21 18//21 19//21
f 20//8 23//8 22//8 21//8
f 17//22 16//22 20//22 21//22
f 19//23 18//23 22//23 23//23
f 61//1 64//1 66//1 67//1
f 65//4 68//4 72//4 69//4
f 63//4 62//4 68//4 65//4
f 67//1 66//1 70//1 71//1
f 100//1 98//1 97//1 93//1
f 46//4 88//4 86//4 85//4
f 81//24 74//24 75//24 84//24
f 89//25 2//25 3//25 103//25
f 105//6 106//6 107//6 108//6
f 74//26 106//26 105//26 75//26
f 2//27 108//27 107//27 3//27
f 202//16 203//16 200//16 201//16
f 204//19 207//19 206//19 205//19
f 211//1 210//1 209//1 208//1
f 231//19 228//19 229//19 230//19
f 232//4 235//4 234//4 233//4
f 252//18 253//18 254//18 255//18
f 255//4 254//4 256//4 257//4
f 257//19 256//19 258//19 259//19
f 259//1 258//1 253//1 252//1
f 255//17 257//17 259//17 252//17
