# Blender v2.79 (sub 0) OBJ File: ''
# www.blender.org
mtllib floortile5.mtl
o Cube
v -0.054148 0.005005 -0.121358
v -0.054148 0.005005 0.021563
v -0.115524 0.005005 0.076339
v -0.115524 0.005005 -0.121358
v -0.104034 0.010074 0.064849
v -0.104034 0.010074 -0.109868
v -0.065638 0.010074 0.010072
v -0.065638 0.010074 -0.109868
v 0.131562 0.005181 -0.123863
v 0.131562 0.005181 0.126137
v -0.118438 0.005181 0.126137
v -0.118438 0.005181 -0.123863
v 0.010830 0.010074 0.019817
v -0.010636 0.010074 0.111301
v 0.000854 0.005005 0.122792
v 0.010160 0.005005 0.008327
v 0.115919 0.010074 -0.109868
v 0.115919 0.010074 -0.022170
v 0.127409 0.005005 -0.010679
v 0.127409 0.005005 -0.121358
v -0.049026 0.005005 0.024737
v -0.049026 0.005005 0.122792
v -0.115524 0.005005 0.122792
v -0.115524 0.005005 0.084898
v -0.104034 0.010074 0.111301
v -0.104034 0.010074 0.096389
v -0.060516 0.010074 0.111301
v -0.049062 0.010074 0.036227
v -0.002810 0.010074 -0.109868
v -0.002810 0.010074 -0.015204
v 0.060858 0.005005 -0.022302
v 0.060858 0.005005 -0.121358
v 0.049368 0.010074 -0.033793
v 0.049368 0.010074 -0.109868
v 0.008680 0.005005 -0.003714
v 0.008680 0.005005 -0.121358
v 0.056505 0.005005 -0.012792
v 0.056505 0.005005 0.122792
v 0.045015 0.010074 0.111301
v 0.052162 0.010074 -0.001301
v 0.127518 0.005005 0.003991
v 0.127518 0.005005 0.122792
v 0.116027 0.010074 0.111301
v 0.116027 0.010074 0.015481
vn 0.0000 -1.0000 -0.0000
vn -0.4036 0.9149 -0.0000
vn 0.4051 0.8365 0.3690
vn 0.0000 0.9149 -0.4036
vn 0.0000 1.0000 -0.0000
vn 0.4036 0.9149 0.0000
vn 0.1095 0.9452 0.3074
vn -0.1099 0.9105 -0.3986
vn -0.0000 0.9149 0.4036
vn -0.2701 0.9234 -0.2727
vn -0.0820 0.8790 0.4698
vn 0.1198 0.9470 0.2979
vn 0.0874 0.9323 -0.3510
vn -0.2034 0.8834 -0.4222
usemtl Stone
s off
f 1//1 2//1 3//1 4//1
f 3//2 5//2 6//2 4//2
f 1//1 36//1 35//1 2//1
f 2//3 7//3 5//3 3//3
f 4//4 6//4 8//4 1//4
f 8//5 6//5 5//5 7//5
f 33//5 18//5 17//5 34//5
f 20//6 17//6 18//6 19//6
f 35//7 31//7 33//7 30//7
f 36//1 32//1 31//1 35//1
f 30//5 33//5 34//5 29//5
f 23//2 25//2 26//2 24//2
f 28//8 13//8 16//8 21//8
f 22//9 27//9 25//9 23//9
f 24//10 26//10 28//10 21//10
f 28//5 26//5 25//5 27//5
f 31//11 19//11 18//11 33//11
f 2//12 35//12 30//12 7//12
f 8//4 29//4 36//4 1//4
f 29//4 34//4 32//4 36//4
f 7//5 30//5 29//5 8//5
f 34//4 17//4 20//4 32//4
f 32//1 20//1 19//1 31//1
f 14//5 39//5 40//5 13//5
f 22//9 15//9 14//9 27//9
f 21//1 16//1 15//1 22//1
f 27//5 14//5 13//5 28//5
f 40//13 44//13 41//13 37//13
f 15//9 38//9 39//9 14//9
f 13//14 40//14 37//14 16//14
f 16//1 37//1 38//1 15//1
f 41//6 44//6 43//6 42//6
f 37//1 41//1 42//1 38//1
f 39//5 43//5 44//5 40//5
f 38//9 42//9 43//9 39//9
usemtl Dark_Stone
f 9//5 12//5 11//5 10//5
