# Blender v2.79 (sub 0) OBJ File: ''
# www.blender.org
mtllib cracked_big_floor_tile_3.mtl
o Cube.003
v -0.054148 0.005005 -0.013552
v -0.054148 0.005005 0.021563
v -0.115524 0.005005 0.041626
v -0.115524 0.005005 -0.070668
v -0.104034 0.010074 0.013755
v -0.104034 0.010074 -0.049782
v -0.023489 0.005005 -0.003714
v -0.052078 0.005005 -0.019144
v -0.052078 0.005005 -0.121115
v -0.023489 0.005005 -0.121358
v -0.065638 0.010074 0.010072
v -0.065638 0.010074 -0.002062
v 0.071067 0.010074 -0.023918
v 0.115919 0.010074 -0.015560
v 0.115919 0.010074 -0.109868
v 0.049368 0.010074 -0.109868
v 0.127409 0.005005 -0.121358
v 0.127409 0.005005 -0.004070
v 0.008680 0.005005 -0.003714
v 0.082557 0.005005 -0.012428
v 0.018479 0.010074 -0.015204
v 0.008680 0.005005 -0.121358
v 0.060858 0.005005 -0.121358
v 0.018479 0.010074 -0.109868
v -0.115524 0.005005 0.122792
v -0.104034 0.010074 0.111301
v -0.104034 0.010074 0.065198
v -0.115524 0.005005 0.053708
v -0.049062 0.010074 0.036227
v 0.010830 0.010074 0.019817
v 0.010160 0.005005 0.008327
v -0.049026 0.005005 0.024737
v -0.049026 0.005005 0.122792
v -0.060516 0.010074 0.111301
v -0.013690 0.010074 -0.015204
v -0.026273 0.005005 0.006255
v -0.040443 0.010074 0.006255
v -0.010636 0.010074 0.111301
v 0.045015 0.010074 0.111301
v 0.052162 0.010074 0.007518
v 0.000854 0.005005 0.122792
v 0.116027 0.010074 0.015481
v 0.127518 0.005005 0.003991
v 0.056505 0.005005 -0.003973
v 0.056505 0.005005 0.122792
v 0.116027 0.010074 0.111301
v 0.127518 0.005005 0.122792
v -0.013690 0.010074 -0.109868
v -0.042279 0.010074 -0.111609
v -0.105750 0.010074 -0.111609
v -0.098491 0.010074 -0.087868
v -0.042279 0.010074 -0.028651
v -0.115549 0.005005 -0.121115
v -0.108290 0.005005 -0.078362
v 0.131562 0.005181 -0.123863
v -0.118438 0.005181 -0.123863
v -0.118438 0.005181 0.126137
v 0.131562 0.005181 0.126137
vn 0.0000 -1.0000 -0.0000
vn -0.4036 0.9149 0.0000
vn 0.0593 0.9667 0.2490
vn 0.2996 0.9105 -0.2851
vn 0.0000 1.0000 0.0000
vn 0.4036 0.9149 0.0000
vn 0.0551 0.9150 0.3996
vn -0.1099 0.9105 -0.3986
vn 0.0000 0.9149 0.4036
vn -0.1581 0.9301 -0.3315
vn -0.0885 0.8756 0.4748
vn 0.0000 0.9149 -0.4036
vn 0.1563 0.8874 0.4338
vn 0.0446 0.9250 -0.3774
vn -0.1168 0.9016 -0.4164
vn 0.1947 0.9094 -0.3675
vn 0.0116 0.8962 -0.4436
vn -0.1555 0.9386 0.3080
vn -0.4572 0.8838 0.0998
vn -0.2525 0.9375 0.2396
vn 0.0000 0.8824 -0.4705
usemtl Stone
s 1
f 1//1 2//1 3//1 4//1
f 3//2 5//2 6//2 4//2
f 7//1 8//1 9//1 10//1
f 2//3 11//3 5//3 3//3
f 4//4 6//4 12//4 1//4
f 12//5 6//5 5//5 11//5
f 13//5 14//5 15//5 16//5
f 17//6 15//6 14//6 18//6
f 19//7 20//7 13//7 21//7
f 22//1 23//1 20//1 19//1
f 21//5 13//5 16//5 24//5
f 25//2 26//2 27//2 28//2
f 29//8 30//8 31//8 32//8
f 33//9 34//9 26//9 25//9
f 28//10 27//10 29//10 32//10
f 29//5 27//5 26//5 34//5
f 20//11 18//11 14//11 13//11
f 21//9 35//9 7//9 19//9
f 24//12 16//12 23//12 22//12
f 2//13 36//13 37//13 11//13
f 16//12 15//12 17//12 23//12
f 23//1 17//1 18//1 20//1
f 38//5 39//5 40//5 30//5
f 33//9 41//9 38//9 34//9
f 32//1 31//1 41//1 33//1
f 34//5 38//5 30//5 29//5
f 40//14 42//14 43//14 44//14
f 41//9 45//9 39//9 38//9
f 30//15 40//15 44//15 31//15
f 31//1 44//1 45//1 41//1
f 43//6 42//6 46//6 47//6
f 44//1 43//1 47//1 45//1
f 39//5 46//5 42//5 40//5
f 45//9 47//9 46//9 39//9
f 1//1 36//1 2//1
f 11//5 37//5 12//5
f 12//16 37//16 36//16 1//16
f 22//12 10//12 48//12 24//12
f 24//5 48//5 35//5 21//5
f 19//1 7//1 10//1 22//1
f 49//5 50//5 51//5 52//5
f 48//5 49//5 52//5 35//5
f 10//17 9//17 49//17 48//17
f 35//18 52//18 8//18 7//18
f 53//19 54//19 51//19 50//19
f 52//20 51//20 54//20 8//20
f 9//21 53//21 50//21 49//21
f 8//1 54//1 53//1 9//1
usemtl Dark_Stone
f 55//5 56//5 57//5 58//5
