# Blender v2.79 (sub 0) OBJ File: ''
# www.blender.org
mtllib cone_potion_empty.mtl
o Cube_Cube.001
v -0.000427 -0.001255 0.059077
v -0.000427 0.054704 0.015137
v -0.058604 -0.001255 0.000900
v -0.014664 0.054704 0.000900
v 0.057750 -0.001255 0.000900
v 0.013810 0.054704 0.000900
v -0.000427 -0.001255 -0.057277
v -0.000427 0.054704 -0.013337
v -0.000427 0.113813 0.015137
v -0.014664 0.113813 0.000900
v -0.000427 0.113813 -0.013337
v 0.013810 0.113813 0.000900
v -0.000427 0.123162 0.022989
v -0.022516 0.123162 0.000900
v -0.000427 0.123162 -0.021189
v 0.021661 0.123162 0.000900
vn -0.6182 0.4854 0.6182
vn -0.6182 0.4854 -0.6182
vn 0.6182 0.4854 -0.6182
vn 0.6182 0.4854 0.6182
vn 0.0000 -1.0000 0.0000
vn 0.7071 0.0000 -0.7071
vn -0.7071 0.0000 0.7071
vn 0.7071 0.0000 0.7071
vn -0.7071 0.0000 -0.7071
vn -0.6080 -0.5106 0.6080
vn 0.0000 1.0000 0.0000
vn 0.6080 -0.5106 0.6080
vn -0.6080 -0.5106 -0.6080
vn 0.6080 -0.5106 -0.6080
usemtl Glass
s off
f 1//1 2//1 4//1 3//1
f 3//2 4//2 8//2 7//2
f 7//3 8//3 6//3 5//3
f 5//4 6//4 2//4 1//4
f 3//5 7//5 5//5 1//5
f 6//6 8//6 11//6 12//6
f 4//7 2//7 9//7 10//7
f 2//8 6//8 12//8 9//8
f 8//9 4//9 10//9 11//9
usemtl Cork
f 10//10 9//10 13//10 14//10
f 15//11 14//11 13//11 16//11
f 9//12 12//12 16//12 13//12
f 11//13 10//13 14//13 15//13
f 12//14 11//14 15//14 16//14
