# Blender v2.79 (sub 0) OBJ File: ''
# www.blender.org
mtllib potion.mtl
o Icosphere
v 0.000000 -0.001683 0.000000
v 0.039189 0.005980 0.028472
v -0.015815 0.004610 0.048676
v -0.033445 0.013478 0.000000
v -0.010661 0.012951 -0.032810
v 0.032612 0.010045 -0.023694
v 0.015552 0.055364 0.047864
v -0.034793 0.051704 0.025278
v -0.022529 0.044124 -0.016368
v 0.009457 0.045503 -0.029105
v 0.041185 0.050793 0.000000
v 0.007597 0.068431 0.023425
v -0.013680 0.066884 0.013879
v -0.008497 0.063680 -0.003723
v 0.005021 0.064263 -0.009106
v 0.018431 0.066499 0.003195
v 0.007597 0.108176 0.023425
v -0.013680 0.106913 0.013879
v -0.008497 0.105449 -0.003723
v 0.005021 0.105754 -0.009106
v 0.018431 0.107526 0.003195
v 0.012217 0.118598 0.037618
v -0.025941 0.116356 0.020499
v -0.016646 0.116134 -0.011066
v 0.007597 0.115382 -0.020720
v 0.031645 0.115665 0.001340
v 0.000151 0.001624 0.000387
v 0.036148 0.008663 0.026540
v -0.014376 0.007404 0.045098
v -0.030569 0.015550 0.000387
v -0.009641 0.015066 -0.029750
v 0.030106 0.012396 -0.021377
v 0.014436 0.054024 0.044352
v -0.031808 0.050662 0.023606
v -0.020543 0.043700 -0.014648
v 0.008837 0.044966 -0.026347
v 0.037981 0.049825 0.000387
v 0.007129 0.066026 0.021903
v -0.012415 0.064605 0.013135
v -0.007654 0.061663 -0.003033
v 0.004763 0.062198 -0.007977
v 0.017081 0.064252 0.003322
vn 0.0810 -0.9848 0.1536
vn 0.2659 -0.9579 -0.1082
vn -0.4128 -0.9107 -0.0164
vn -0.3984 -0.8788 -0.2625
vn 0.0262 -0.9098 -0.4143
vn 0.9826 -0.1288 -0.1339
vn 0.3424 -0.1969 0.9187
vn -0.9281 -0.2276 0.2947
vn -0.8214 -0.0120 -0.5702
vn 0.2051 -0.0154 -0.9786
vn 0.8649 0.2412 0.4402
vn -0.4105 0.2677 0.8717
vn -0.9365 0.1698 -0.3067
vn -0.3621 0.3233 -0.8743
vn 0.6193 0.2932 -0.7284
vn -0.3020 0.6609 -0.6870
vn -0.2929 0.8003 0.5232
vn -0.6607 0.6799 -0.3183
vn 0.4088 0.7091 -0.5745
vn 0.5744 0.7848 0.2327
vn -0.4093 0.0000 0.9124
vn -0.3700 0.0000 -0.9290
vn 0.8815 0.0000 0.4721
vn -0.9593 0.0000 -0.2825
vn 0.6760 0.0000 -0.7369
vn 0.5524 -0.7593 0.3440
vn -0.6877 -0.7037 -0.1784
vn 0.4624 -0.7588 -0.4587
vn -0.2361 -0.7448 0.6242
vn -0.2730 -0.6953 -0.6648
vn 0.0001 0.9990 -0.0452
vn -0.0459 0.9891 -0.1398
usemtl Glass
s off
f 1//1 2//1 3//1
f 2//2 1//2 6//2
f 1//3 3//3 4//3
f 1//4 4//4 5//4
f 1//5 5//5 6//5
f 2//6 6//6 11//6
f 3//7 2//7 7//7
f 4//8 3//8 8//8
f 5//9 4//9 9//9
f 6//10 5//10 10//10
f 2//11 11//11 7//11
f 3//12 7//12 8//12
f 4//13 8//13 9//13
f 5//14 9//14 10//14
f 6//15 10//15 11//15
f 10//16 9//16 14//16 15//16
f 8//17 7//17 12//17 13//17
f 9//18 8//18 13//18 14//18
f 11//19 10//19 15//19 16//19
f 7//20 11//20 16//20 12//20
f 13//21 12//21 17//21 18//21
f 15//22 14//22 19//22 20//22
f 12//23 16//23 21//23 17//23
f 14//24 13//24 18//24 19//24
f 16//25 15//25 20//25 21//25
usemtl Cork
f 17//26 21//26 26//26 22//26
f 19//27 18//27 23//27 24//27
f 21//28 20//28 25//28 26//28
f 18//29 17//29 22//29 23//29
f 20//30 19//30 24//30 25//30
f 25//31 24//31 23//31 22//31 26//31
usemtl Potion
f 27//1 28//1 29//1
f 28//2 27//2 32//2
f 27//3 29//3 30//3
f 27//4 30//4 31//4
f 27//5 31//5 32//5
f 28//6 32//6 37//6
f 29//7 28//7 33//7
f 30//8 29//8 34//8
f 31//9 30//9 35//9
f 32//10 31//10 36//10
f 28//11 37//11 33//11
f 29//12 33//12 34//12
f 30//13 34//13 35//13
f 31//14 35//14 36//14
f 32//15 36//15 37//15
f 36//16 35//16 40//16 41//16
f 34//17 33//17 38//17 39//17
f 35//18 34//18 39//18 40//18
f 37//19 36//19 41//19 42//19
f 33//20 37//20 42//20 38//20
f 41//32 40//32 39//32 38//32 42//32
