# Blender v2.79 (sub 0) OBJ File: ''
# www.blender.org
mtllib potion_empty.mtl
o Icosphere.001
v 0.000000 -0.001683 -0.000000
v 0.039189 0.005980 0.028472
v -0.015815 0.004610 0.048676
v 0.032612 0.010045 -0.023694
v -0.033445 0.013478 0.000000
v -0.010661 0.012951 -0.032810
v 0.041185 0.050793 0.000000
v 0.015552 0.055364 0.047864
v -0.034793 0.051704 0.025278
v -0.022529 0.044124 -0.016368
v 0.009457 0.045503 -0.029105
v -0.008497 0.063680 -0.003723
v 0.005021 0.064263 -0.009106
v 0.007597 0.068431 0.023425
v -0.013680 0.066884 0.013879
v 0.018431 0.066499 0.003195
v 0.007597 0.108176 0.023425
v -0.013680 0.106913 0.013879
v -0.008497 0.105449 -0.003723
v 0.005021 0.105754 -0.009106
v 0.018431 0.107526 0.003195
v 0.031645 0.115665 0.001340
v 0.012217 0.118598 0.037618
v -0.025941 0.116356 0.020499
v -0.016646 0.116134 -0.011066
v 0.007597 0.115382 -0.020720
vn 0.5523 -0.7593 0.3440
vn -0.6877 -0.7037 -0.1784
vn 0.4624 -0.7588 -0.4587
vn -0.2361 -0.7448 0.6242
vn -0.2730 -0.6953 -0.6648
vn 0.0001 0.9990 -0.0453
vn 0.0810 -0.9848 0.1536
vn 0.2659 -0.9579 -0.1082
vn -0.4128 -0.9107 -0.0164
vn -0.3984 -0.8788 -0.2625
vn 0.0262 -0.9098 -0.4143
vn 0.9826 -0.1289 -0.1339
vn 0.3424 -0.1969 0.9187
vn -0.9281 -0.2276 0.2947
vn -0.8214 -0.0120 -0.5702
vn 0.2051 -0.0154 -0.9786
vn 0.8649 0.2411 0.4402
vn -0.4105 0.2677 0.8717
vn -0.9365 0.1698 -0.3067
vn -0.3621 0.3233 -0.8743
vn 0.6193 0.2932 -0.7284
vn -0.3021 0.6609 -0.6870
vn -0.2929 0.8003 0.5232
vn -0.6607 0.6799 -0.3183
vn 0.4088 0.7091 -0.5745
vn 0.5744 0.7848 0.2327
vn -0.4093 -0.0000 0.9124
vn -0.3700 0.0000 -0.9290
vn 0.8815 -0.0000 0.4721
vn -0.9593 0.0000 -0.2825
vn 0.6760 0.0000 -0.7369
usemtl Cork
s 1
f 17//1 21//1 22//1 23//1
f 19//2 18//2 24//2 25//2
f 21//3 20//3 26//3 22//3
f 18//4 17//4 23//4 24//4
f 20//5 19//5 25//5 26//5
f 26//6 25//6 24//6 23//6 22//6
usemtl Glass
f 1//7 2//7 3//7
f 2//8 1//8 4//8
f 1//9 3//9 5//9
f 1//10 5//10 6//10
f 1//11 6//11 4//11
f 2//12 4//12 7//12
f 3//13 2//13 8//13
f 5//14 3//14 9//14
f 6//15 5//15 10//15
f 4//16 6//16 11//16
f 2//17 7//17 8//17
f 3//18 8//18 9//18
f 5//19 9//19 10//19
f 6//20 10//20 11//20
f 4//21 11//21 7//21
f 11//22 10//22 12//22 13//22
f 9//23 8//23 14//23 15//23
f 10//24 9//24 15//24 12//24
f 7//25 11//25 13//25 16//25
f 8//26 7//26 16//26 14//26
f 15//27 14//27 17//27 18//27
f 13//28 12//28 19//28 20//28
f 14//29 16//29 21//29 17//29
f 12//30 15//30 18//30 19//30
f 16//31 13//31 20//31 21//31
