# Blender v2.79 (sub 0) OBJ File: ''
# www.blender.org
mtllib knife.mtl
o Cube_Cube.010
v -0.002268 0.032085 0.000009
v -0.001934 0.063464 0.000009
v 0.000098 0.063464 -0.004916
v 0.000098 0.032085 -0.005728
v 0.002130 0.063464 0.000009
v 0.002465 0.032085 0.000009
v 0.000098 0.063464 0.004935
v 0.000098 0.032085 0.005747
v 0.000098 0.084613 0.000009
v 0.003672 0.028044 -0.007367
v -0.002544 0.028044 -0.007367
v 0.000564 0.028044 -0.012911
v -0.002544 0.028044 0.007923
v -0.002544 0.036126 0.007923
v -0.002544 0.036126 -0.007367
v 0.003672 0.036126 -0.007367
v 0.003672 0.036126 0.007923
v 0.003672 0.028044 0.007923
v 0.000564 0.028044 0.013482
v 0.000564 0.036126 0.013482
v -0.002710 0.002004 -0.000147
v -0.003296 0.030053 -0.000147
v 0.000499 0.030053 -0.003941
v 0.000499 0.002004 -0.003356
v 0.004294 0.030053 -0.000147
v 0.003708 0.002004 -0.000147
v 0.000499 0.030053 0.003648
v 0.000499 0.002004 0.003062
v 0.000499 -0.000685 -0.000147
v 0.000564 0.036126 -0.012911
vn -0.9244 0.0099 -0.3813
vn 0.9244 0.0099 -0.3814
vn 0.9244 0.0099 0.3813
vn -0.9244 0.0099 0.3812
vn 0.9208 0.0885 0.3798
vn -0.9208 0.0885 -0.3799
vn -0.9208 0.0885 0.3798
vn 0.9208 0.0885 -0.3799
vn 0.0000 -1.0000 -0.0000
vn -1.0000 0.0000 0.0000
vn 1.0000 -0.0000 0.0000
vn -0.8728 -0.0000 0.4880
vn 0.0000 1.0000 0.0000
vn -0.7070 -0.0148 -0.7071
vn 0.7070 -0.0148 -0.7071
vn 0.7070 -0.0148 0.7070
vn -0.7070 -0.0148 0.7070
vn 0.5404 -0.6449 -0.5404
vn 0.8723 0.0000 -0.4890
vn -0.8723 0.0000 -0.4890
vn 0.8728 -0.0000 0.4880
vn -0.5404 -0.6449 -0.5404
vn 0.5404 -0.6449 0.5404
vn -0.5404 -0.6449 0.5404
usemtl Metal
s off
f 1//1 2//1 3//1 4//1
f 4//2 3//2 5//2 6//2
f 6//3 5//3 7//3 8//3
f 8//4 7//4 2//4 1//4
f 7//5 5//5 9//5
f 3//6 2//6 9//6
f 2//7 7//7 9//7
f 5//8 3//8 9//8
usemtl Dark_Wood
f 4//9 6//9 8//9 1//9
f 10//9 11//9 12//9
f 13//10 14//10 15//10 11//10
f 10//11 16//11 17//11 18//11
f 14//12 13//12 19//12 20//12
f 11//9 10//9 18//9 13//9
f 16//13 15//13 14//13 17//13
f 21//14 22//14 23//14 24//14
f 24//15 23//15 25//15 26//15
f 26//16 25//16 27//16 28//16
f 28//17 27//17 22//17 21//17
f 24//18 26//18 29//18
f 25//13 23//13 22//13 27//13
f 16//19 10//19 12//19 30//19
f 11//20 15//20 30//20 12//20
f 15//13 16//13 30//13
f 13//9 18//9 19//9
f 17//13 14//13 20//13
f 18//21 17//21 20//21 19//21
f 21//22 24//22 29//22
f 26//23 28//23 29//23
f 28//24 21//24 29//24
