# Blender v2.79 (sub 0) OBJ File: 'temp.blend'
# www.blender.org
mtllib 2plankwoodenfence.mtl
o Cube_Cube.040
v -0.026093 0.008965 0.408151
v -0.026093 0.378165 0.408151
v -0.026093 0.378165 0.356477
v -0.026093 0.008965 0.356477
v 0.025579 0.378165 0.356477
v 0.025579 0.008965 0.356477
v 0.025579 0.378165 0.408151
v 0.025579 0.008965 0.408151
v -0.007528 0.275502 0.367573
v -0.007528 0.329169 0.367573
v -0.007528 0.329169 -0.399936
v -0.007528 0.275502 -0.399936
v 0.009397 0.329169 -0.399936
v 0.009397 0.275502 -0.399936
v 0.009397 0.329169 0.367573
v 0.009397 0.275502 0.367573
v -0.026093 0.008965 -0.396776
v -0.026093 0.378165 -0.396776
v -0.026093 0.378165 -0.448449
v -0.026093 0.008965 -0.448449
v 0.025579 0.378165 -0.448449
v 0.025579 0.008965 -0.448449
v 0.025579 0.378165 -0.396776
v 0.025579 0.008965 -0.396776
v -0.007528 0.080259 0.367573
v -0.007528 0.133927 0.367573
v -0.007528 0.133927 -0.399936
v -0.007528 0.080259 -0.399936
v 0.009397 0.080259 -0.399936
v 0.009397 0.133927 -0.399936
v 0.009397 0.133927 0.367573
v 0.009397 0.080259 0.367573
vn -1.0000 -0.0000 0.0000
vn 0.0000 0.0000 -1.0000
vn 1.0000 0.0000 0.0000
vn 0.0000 -0.0000 1.0000
vn 0.0000 -1.0000 -0.0000
vn 0.0000 1.0000 0.0000
usemtl Wood
s 1
f 1//1 2//1 3//1 4//1
f 4//2 3//2 5//2 6//2
f 6//3 5//3 7//3 8//3
f 8//4 7//4 2//4 1//4
f 4//5 6//5 8//5 1//5
f 5//6 3//6 2//6 7//6
f 9//1 10//1 11//1 12//1
f 12//2 11//2 13//2 14//2
f 14//3 13//3 15//3 16//3
f 16//4 15//4 10//4 9//4
f 12//5 14//5 16//5 9//5
f 13//6 11//6 10//6 15//6
f 17//1 18//1 19//1 20//1
f 20//2 19//2 21//2 22//2
f 22//3 21//3 23//3 24//3
f 24//4 23//4 18//4 17//4
f 20//5 22//5 24//5 17//5
f 21//6 19//6 18//6 23//6
f 25//1 26//1 27//1 28//1
f 29//3 30//3 31//3 32//3
f 28//5 29//5 32//5 25//5
f 30//6 27//6 26//6 31//6
