# Blender v2.79 (sub 0) OBJ File: 'temp.blend'
# www.blender.org
mtllib farmland.mtl
o Cylinder
v -0.125033 0.013105 0.165825
v 0.124947 0.013097 0.165916
v -0.125545 0.012826 -0.087814
v 0.124947 0.012782 -0.087764
v -0.125505 0.045048 -0.029613
v 0.124947 0.044965 -0.029515
v -0.125469 0.021685 -0.070868
v 0.124947 0.021700 -0.070855
v 0.124947 0.010219 0.079279
v -0.125779 0.010284 0.079440
v -0.125547 0.036166 0.069480
v 0.124947 0.035900 0.069314
v -0.125494 0.051607 0.025099
v 0.124947 0.051667 0.025316
v -0.041719 0.013234 -0.088775
v 0.041614 0.011981 -0.085977
v 0.041614 0.039380 -0.028702
v -0.041719 0.036944 -0.028347
v 0.041614 0.012133 0.167423
v -0.041719 0.013323 0.165020
v 0.041614 0.028920 -0.077180
v -0.041719 0.023989 -0.072860
v 0.041614 0.013751 0.081586
v -0.041719 0.012112 0.080516
v 0.041614 0.026850 0.061384
v -0.041719 0.031106 0.065113
v 0.041614 0.047146 0.024658
v -0.041719 0.042447 0.023974
vn 0.1019 0.9885 -0.1114
vn 0.0208 0.9360 -0.3514
vn -0.0122 0.9996 -0.0235
vn 0.0464 0.7043 -0.7084
vn -0.0469 0.6133 0.7884
vn -0.0949 0.9089 0.4061
vn 0.0904 0.9504 0.2977
vn 0.0044 0.9264 0.3764
vn 0.0265 0.4918 0.8703
vn 0.0223 0.7426 0.6693
vn -0.0229 0.8585 -0.5123
vn -0.0215 0.6657 -0.7459
vn 0.0152 0.9999 -0.0073
vn -0.0027 1.0000 0.0024
vn 0.0302 0.9204 -0.3897
vn -0.0496 0.9685 -0.2439
vn -0.0601 0.9894 -0.1323
vn -0.0422 0.9913 -0.1245
usemtl Brown
s off
f 18//1 5//1 13//1 28//1
f 17//2 6//2 8//2 21//2
f 24//3 10//3 1//3 20//3
f 21//4 8//4 4//4 16//4
f 23//5 9//5 12//5 25//5
f 25//6 12//6 14//6 27//6
f 11//7 26//7 28//7 13//7
f 26//8 25//8 27//8 28//8
f 10//9 24//9 26//9 11//9
f 24//10 23//10 25//10 26//10
f 7//11 22//11 15//11 3//11
f 22//12 21//12 16//12 15//12
f 9//13 23//13 19//13 2//13
f 23//14 24//14 20//14 19//14
f 5//15 18//15 22//15 7//15
f 18//16 17//16 21//16 22//16
f 6//17 17//17 27//17 14//17
f 17//18 18//18 28//18 27//18
