# Blender v2.79 (sub 0) OBJ File: 'temp.blend'
# www.blender.org
mtllib farmland_end.mtl
o Cylinder.017_Cylinder.022
v -0.125095 0.013097 0.165545
v -0.087992 0.010378 0.163620
v -0.125095 0.013097 -0.087850
v -0.087992 0.010378 -0.089774
v -0.125095 0.044965 -0.031525
v -0.125095 0.021700 -0.072865
v -0.125095 0.010219 0.077269
v -0.125095 0.035900 0.067304
v -0.125095 0.051667 0.023306
v -0.101383 0.029366 -0.031525
v -0.101383 0.020734 -0.072865
v -0.101383 0.011050 -0.089774
v -0.101383 0.010099 0.077269
v -0.101383 0.026003 0.067304
v -0.101383 0.031853 0.023306
v -0.087992 0.011572 -0.031525
v -0.087992 0.010709 -0.072865
v -0.087992 0.010283 0.077269
v -0.087992 0.011236 0.067304
v -0.087992 0.011821 0.023306
v -0.088298 0.010219 0.077269
vn 0.3098 0.8871 -0.3422
vn 0.0349 0.8670 -0.4971
vn 0.5970 0.7995 -0.0670
vn 0.0909 0.4304 0.8980
vn 0.5198 0.8296 0.2038
vn 0.8161 0.5778 -0.0144
vn 0.7181 0.6914 -0.0794
vn 0.3839 0.7050 0.5963
vn 0.3576 0.8954 -0.2652
vn 0.7917 0.6093 0.0446
vn 0.0363 0.9992 -0.0174
usemtl Brown
s off
f 6//1 5//1 10//1 11//1
f 3//2 6//2 11//2 12//2
f 5//3 9//3 15//3 10//3
f 8//4 7//4 13//4 14//4
f 9//5 8//5 14//5 15//5
f 10//6 15//6 20//6 16//6
f 11//7 10//7 16//7 17//7
f 14//8 13//8 18//8 19//8
f 12//9 11//9 17//9 4//9
f 15//10 14//10 19//10 20//10
f 7//11 1//11 2//11 21//11
