# Blender v2.79 (sub 0) OBJ File: 'temp.blend'
# www.blender.org
mtllib planted_pumpkin.mtl
o Cube_Cube.041
v 0.014568 0.123819 0.012847
v 0.014568 0.177192 0.012847
v 0.024793 0.177192 0.002622
v 0.024793 0.128511 0.002622
v 0.035017 0.177192 0.012847
v 0.035017 0.128511 0.012847
v 0.024793 0.177192 0.023071
v 0.024793 0.130724 0.023071
v 0.004478 0.176557 0.012400
v 0.056585 0.178163 0.012117
v 0.037074 0.180083 -0.033383
v 0.004478 0.176557 -0.038648
v 0.064651 0.186854 -0.016174
v 0.004478 0.176557 0.055655
v 0.037074 0.184810 0.050673
v 0.066328 0.187117 0.031395
v -0.037467 0.178163 0.042377
v -0.037467 0.178163 -0.025370
v -0.075323 0.186055 0.008503
v 0.004478 0.176557 0.012400
v 0.004478 0.176557 -0.038648
v 0.037074 0.180083 -0.033383
v 0.056585 0.178163 0.012117
v 0.064651 0.186854 -0.016174
v 0.037074 0.184810 0.050673
v 0.004478 0.176557 0.055655
v 0.066328 0.187117 0.031395
v -0.037467 0.178163 0.042377
v -0.037467 0.178163 -0.025370
v -0.075323 0.186055 0.008503
v 0.020193 0.019527 -0.009645
v 0.048651 0.022250 0.011813
v 0.009477 0.020933 0.024076
v 0.068052 0.046770 0.030381
v 0.072940 0.049747 -0.004394
v -0.008662 0.035866 -0.006806
v 0.010182 0.035491 -0.038147
v 0.047646 0.031184 -0.027864
v 0.082191 0.078416 0.021034
v 0.001892 0.043046 0.051611
v 0.037730 0.038070 0.048356
v 0.020193 0.070155 0.068571
v -0.026320 0.058952 -0.002794
v -0.018370 0.048043 0.023748
v -0.029586 0.079096 0.017123
v 0.003469 0.064017 -0.054157
v -0.017461 0.058208 -0.030691
v -0.012212 0.089502 -0.042755
v 0.064609 0.060345 -0.035305
v 0.036874 0.057787 -0.055102
v 0.053834 0.089793 -0.044431
v 0.059568 0.072587 0.054581
v -0.018647 0.072712 0.053857
v -0.024910 0.084374 -0.013251
v 0.020193 0.091600 -0.054829
v 0.081883 0.085297 -0.018560
v 0.038704 0.101621 0.062447
v 0.065240 0.110166 0.039324
v 0.030682 0.130449 0.042396
v -0.024871 0.103700 0.038213
v 0.002416 0.107527 0.061178
v -0.004615 0.127663 0.027440
v -0.017578 0.109564 -0.021853
v -0.025390 0.109622 0.006011
v -0.001164 0.126606 -0.006787
v 0.035450 0.114227 -0.040849
v 0.006251 0.116685 -0.036314
v 0.028557 0.129420 -0.016676
v 0.076147 0.109429 0.005978
v 0.060624 0.117325 -0.022465
v 0.051630 0.131979 0.009896
v 0.020193 0.134168 0.010277
vn 0.2224 -0.9693 0.1049
vn 0.0517 -0.9970 0.0580
vn 0.7635 -0.6437 0.0522
vn -0.4981 -0.8584 -0.1225
vn -0.4933 -0.8213 -0.2867
vn 0.0372 -0.8662 -0.4982
vn 0.9191 -0.3821 0.0965
vn 0.0031 -0.5319 0.8468
vn -0.9392 -0.3061 0.1555
vn -0.7214 -0.1404 -0.6782
vn 0.5829 -0.0383 -0.8117
vn 0.8265 -0.2157 0.5199
vn -0.3545 -0.3121 0.8814
vn -0.9881 -0.0084 -0.1536
vn -0.3535 0.1921 -0.9155
vn 0.6797 0.0215 -0.7332
vn 0.4106 0.5949 0.6910
vn -0.5273 0.6767 0.5138
vn -0.6260 0.7595 -0.1771
vn -0.0119 0.8451 -0.5345
vn 0.6557 0.7394 -0.1526
vn 0.0668 0.9860 -0.1530
vn 0.2803 0.9013 -0.3302
vn 0.2368 0.8516 -0.4677
vn -0.1644 0.9615 -0.2204
vn -0.2053 0.9110 -0.3576
vn -0.4708 0.7938 -0.3850
vn -0.2911 0.9549 -0.0588
vn -0.6017 0.7941 -0.0852
vn -0.7257 0.6745 0.1357
vn -0.1450 0.9763 0.1604
vn -0.2891 0.7943 0.5343
vn 0.0664 0.5821 0.8104
vn 0.0703 0.9933 0.0921
vn 0.4962 0.7914 0.3571
vn 0.6800 0.7034 0.2069
vn 0.8105 0.5010 -0.3033
vn 0.6630 0.3601 -0.6563
vn 0.4818 0.4708 -0.7391
vn -0.0804 0.5626 -0.8228
vn -0.3396 0.4290 -0.8370
vn -0.5504 0.5272 -0.6474
vn -0.9462 0.1847 -0.2657
vn -0.9868 0.0858 -0.1370
vn -0.9875 0.1517 0.0438
vn -0.6448 0.2373 0.7266
vn -0.3532 0.0170 0.9354
vn -0.0030 0.1927 0.9813
vn 0.5990 0.2220 0.7694
vn 0.8155 0.1078 0.5687
vn 0.9037 0.3162 0.2886
vn 0.2937 0.3513 -0.8890
vn 0.2993 0.1553 -0.9414
vn -0.0295 -0.0065 -0.9995
vn -0.9181 0.1406 -0.3707
vn -0.9187 0.0018 -0.3951
vn -0.9513 -0.0707 -0.3002
vn -0.9595 -0.0531 0.2765
vn -0.9304 -0.2876 0.2271
vn -0.7259 -0.5353 0.4319
vn 0.3355 -0.0141 0.9419
vn 0.3315 -0.3665 0.8693
vn 0.5460 -0.4704 0.6933
vn 0.9785 0.2042 0.0279
vn 0.9632 -0.2635 -0.0533
vn 0.8630 -0.3588 -0.3556
vn 0.5365 -0.4878 -0.6886
vn 0.1179 -0.6867 -0.7173
vn -0.1187 -0.5071 -0.8537
vn -0.5824 -0.4978 -0.6427
vn -0.6462 -0.6614 -0.3806
vn -0.7912 -0.5641 -0.2362
vn -0.7952 -0.6063 -0.0110
vn -0.6965 -0.7147 0.0635
vn -0.6540 -0.6675 0.3559
vn 0.7512 -0.5355 -0.3860
vn 0.6837 -0.7081 -0.1768
vn 0.2549 -0.9419 -0.2186
vn -0.0531 -0.7857 0.6163
vn 0.1653 -0.8861 0.4330
vn 0.4878 -0.7385 0.4655
vn -0.7071 0.0000 -0.7071
vn 0.7071 0.0000 -0.7071
vn 0.7071 -0.0000 0.7071
vn -0.7071 -0.0000 0.7071
vn -0.0623 0.9975 0.0324
vn -0.3420 0.9212 0.1855
vn -0.1216 0.9866 -0.1092
vn -0.2653 0.9187 -0.2926
vn 0.0383 0.9993 0.0000
vn 0.2041 0.9790 0.0000
vn 0.0623 -0.9975 -0.0324
vn 0.3420 -0.9212 -0.1855
vn 0.1216 -0.9866 0.1092
vn 0.2653 -0.9187 0.2926
vn -0.0383 -0.9993 0.0000
vn -0.2041 -0.9790 0.0000
usemtl Orange
s off
f 4//1 6//1 8//1 1//1
f 31//2 32//2 33//2
f 34//3 32//3 35//3
f 31//4 33//4 36//4
f 31//5 36//5 37//5
f 31//6 37//6 38//6
f 34//7 35//7 39//7
f 40//8 41//8 42//8
f 43//9 44//9 45//9
f 46//10 47//10 48//10
f 49//11 50//11 51//11
f 34//12 39//12 52//12
f 40//13 42//13 53//13
f 43//14 45//14 54//14
f 46//15 48//15 55//15
f 49//16 51//16 56//16
f 57//17 58//17 59//17
f 60//18 61//18 62//18
f 63//19 64//19 65//19
f 66//20 67//20 68//20
f 69//21 70//21 71//21
f 71//22 68//22 72//22
f 71//23 70//23 68//23
f 70//24 66//24 68//24
f 68//25 65//25 72//25
f 68//26 67//26 65//26
f 67//27 63//27 65//27
f 65//28 62//28 72//28
f 65//29 64//29 62//29
f 64//30 60//30 62//30
f 62//31 59//31 72//31
f 62//32 61//32 59//32
f 61//33 57//33 59//33
f 59//34 71//34 72//34
f 59//35 58//35 71//35
f 58//36 69//36 71//36
f 56//37 70//37 69//37
f 56//38 51//38 70//38
f 51//39 66//39 70//39
f 55//40 67//40 66//40
f 55//41 48//41 67//41
f 48//42 63//42 67//42
f 54//43 64//43 63//43
f 54//44 45//44 64//44
f 45//45 60//45 64//45
f 53//46 61//46 60//46
f 53//47 42//47 61//47
f 42//48 57//48 61//48
f 52//49 58//49 57//49
f 52//50 39//50 58//50
f 39//51 69//51 58//51
f 51//52 55//52 66//52
f 51//53 50//53 55//53
f 50//54 46//54 55//54
f 48//55 54//55 63//55
f 48//56 47//56 54//56
f 47//57 43//57 54//57
f 45//58 53//58 60//58
f 45//59 44//59 53//59
f 44//60 40//60 53//60
f 42//61 52//61 57//61
f 42//62 41//62 52//62
f 41//63 34//63 52//63
f 39//64 56//64 69//64
f 39//65 35//65 56//65
f 35//66 49//66 56//66
f 38//67 50//67 49//67
f 38//68 37//68 50//68
f 37//69 46//69 50//69
f 37//70 47//70 46//70
f 37//71 36//71 47//71
f 36//72 43//72 47//72
f 36//73 44//73 43//73
f 36//74 33//74 44//74
f 33//75 40//75 44//75
f 35//76 38//76 49//76
f 35//77 32//77 38//77
f 32//78 31//78 38//78
f 33//79 41//79 40//79
f 33//80 32//80 41//80
f 32//81 34//81 41//81
usemtl Green
f 1//82 2//82 3//82 4//82
f 4//83 3//83 5//83 6//83
f 6//84 5//84 7//84 8//84
f 8//85 7//85 2//85 1//85
f 9//86 10//86 11//86 12//86
f 11//87 10//87 13//87
f 10//88 9//88 14//88 15//88
f 10//89 15//89 16//89
f 17//90 14//90 12//90 18//90
f 18//91 19//91 17//91
f 20//92 21//92 22//92 23//92
f 22//93 24//93 23//93
f 23//94 25//94 26//94 20//94
f 23//95 27//95 25//95
f 28//96 29//96 21//96 26//96
f 29//97 28//97 30//97
