# Blender v2.79 (sub 0) OBJ File: 'temp.blend'
# www.blender.org
mtllib turnip.mtl
o Icosphere
v 0.000000 0.001314 -0.021956
v 0.018164 -0.004439 -0.005527
v -0.007074 -0.011976 -0.001430
v -0.018275 0.008034 -0.010317
v -0.004888 0.021677 -0.016776
v 0.014940 0.017386 -0.015827
v 0.007227 -0.000812 0.018844
v -0.016693 0.007258 0.012596
v -0.013015 0.024814 -0.000165
v 0.004986 0.029925 -0.003089
v 0.020218 0.017657 0.006351
v 0.000000 0.023070 0.015725
v 0.005609 0.023897 -0.001331
v -0.001764 0.063187 0.003851
v 0.000602 0.023897 0.002974
v -0.005191 0.061236 0.006798
v 0.001303 0.023897 -0.006338
v -0.004924 0.063187 0.000176
v -0.003703 0.023897 -0.002033
v -0.008351 0.061236 0.003123
v -0.019275 0.082417 0.020069
v -0.019914 0.080840 0.020618
v -0.024220 0.080840 0.015611
v -0.023581 0.082417 0.015062
v -0.022528 0.083665 0.028029
v -0.022423 0.081943 0.027939
v -0.031834 0.081943 0.016996
v -0.031939 0.083665 0.017086
v -0.033469 0.082258 0.035404
v -0.033364 0.080536 0.035314
v -0.040764 0.080536 0.026709
v -0.040869 0.082258 0.026799
v -0.043242 0.081460 0.036324
v -0.043137 0.079738 0.036234
v -0.000466 0.023044 -0.007256
v 0.005011 0.066371 -0.002042
v 0.006527 0.023044 -0.003101
v 0.009797 0.063968 0.000801
v -0.004621 0.023044 -0.000263
v 0.001962 0.066371 0.003090
v 0.002372 0.023044 0.003892
v 0.006748 0.063968 0.005934
v 0.019837 0.088481 0.007726
v 0.020729 0.086539 0.008256
v 0.016574 0.086539 0.015249
v 0.015682 0.088481 0.014719
v 0.030408 0.090019 0.008398
v 0.030262 0.087898 0.008311
v 0.021181 0.087898 0.023595
v 0.021327 0.090019 0.023682
v 0.043314 0.088285 0.018275
v 0.043168 0.086164 0.018188
v 0.036027 0.086164 0.030207
v 0.036173 0.088285 0.030293
v 0.048226 0.087303 0.029323
v 0.048080 0.085182 0.029237
v 0.004807 0.023897 0.007357
v -0.002372 0.063187 0.001909
v -0.000817 0.023897 0.003897
v -0.006222 0.061236 -0.000460
v 0.008267 0.023897 0.001733
v 0.000168 0.063187 -0.002219
v 0.002643 0.023897 -0.001728
v -0.003682 0.061236 -0.004588
v -0.005885 0.077424 -0.001600
v -0.006603 0.076525 -0.002041
v -0.003143 0.076525 -0.007666
v -0.002425 0.077424 -0.007224
v -0.012564 0.083317 -0.001559
v -0.013117 0.081595 -0.001741
v -0.005554 0.081595 -0.014035
v -0.005000 0.083317 -0.013852
v -0.019179 0.091468 -0.008322
v -0.019527 0.089746 -0.008426
v -0.013580 0.089746 -0.018093
v -0.013232 0.091468 -0.017988
v -0.021161 0.094896 -0.016645
v -0.021044 0.093174 -0.016572
v -0.003114 0.023512 0.002385
v -0.002032 0.066914 -0.008663
v -0.003114 0.023512 -0.005749
v -0.002032 0.064759 -0.014230
v 0.005020 0.023512 0.002385
v 0.003938 0.066914 -0.008663
v 0.005020 0.023512 -0.005749
v 0.003938 0.064759 -0.014230
v -0.003114 0.088158 -0.038042
v -0.003114 0.086415 -0.039080
v 0.005020 0.086415 -0.039080
v 0.005020 0.088158 -0.038042
v -0.007936 0.089536 -0.047473
v -0.007936 0.087634 -0.047304
v 0.009842 0.087634 -0.047304
v 0.009842 0.089536 -0.047473
v -0.006037 0.087982 -0.063614
v -0.006037 0.086079 -0.063444
v 0.007943 0.086079 -0.063444
v 0.007943 0.087982 -0.063614
v 0.000953 0.087101 -0.073480
v 0.000953 0.085198 -0.073310
vn 0.1748 -0.8529 -0.4920
vn 0.5982 -0.2680 -0.7552
vn -0.5787 -0.5790 -0.5744
vn -0.5096 0.0952 -0.8551
vn 0.1039 0.2686 -0.9576
vn 0.9722 0.0342 -0.2318
vn 0.3159 -0.9075 0.2768
vn -0.8800 -0.4728 0.0448
vn -0.7338 0.5050 -0.4544
vn 0.1958 0.7710 -0.6060
vn 0.8498 -0.3087 0.4273
vn -0.3905 -0.6619 0.6399
vn -0.9636 0.2565 0.0752
vn -0.3065 0.8967 -0.3193
vn 0.6800 0.7131 -0.1706
vn 0.4616 0.2508 0.8509
vn -0.2347 0.0557 0.9705
vn -0.6199 0.5422 0.5673
vn -0.2193 0.9339 0.2822
vn 0.4072 0.8181 0.4060
vn 0.6489 0.0221 0.7605
vn -0.7456 -0.1814 0.6412
vn -0.6548 0.0221 -0.7555
vn 0.7392 0.2226 -0.6357
vn 0.0000 -1.0000 -0.0000
vn -0.5284 -0.7172 0.4544
vn -0.2216 -0.0992 -0.9701
vn -0.6388 -0.0259 -0.7689
vn 0.6646 -0.0259 0.7467
vn 0.4759 0.7785 -0.4092
vn -0.0810 0.9943 0.0696
vn 0.9260 -0.0992 0.3644
vn 0.1220 0.9870 -0.1049
vn -0.1236 -0.9866 0.1063
vn 0.0751 -0.9951 -0.0646
vn 0.0810 -0.9943 -0.0696
vn -0.7355 -0.0093 -0.6775
vn 0.5597 -0.0093 0.8286
vn -0.9684 -0.0460 -0.2451
vn 0.0974 -0.0460 0.9942
vn -0.0751 0.9951 0.0646
vn 0.5162 0.0390 -0.8556
vn 0.8539 -0.1166 0.5073
vn -0.5091 0.0111 0.8607
vn -0.8475 0.1677 -0.5035
vn 0.7420 -0.5050 0.4409
vn -0.8488 -0.0992 0.5193
vn -0.5594 -0.0914 0.8238
vn 0.5249 0.0254 -0.8508
vn -0.6706 0.6257 -0.3984
vn 0.0918 0.9943 0.0545
vn 0.0502 -0.0992 -0.9938
vn -0.1383 0.9870 -0.0822
vn 0.1401 -0.9866 0.0833
vn -0.0852 -0.9951 -0.0506
vn -0.0918 -0.9943 -0.0545
vn -0.4077 -0.0093 0.9131
vn 0.6069 -0.0093 -0.7947
vn 0.0764 -0.0460 0.9960
vn 0.9113 -0.0460 -0.4092
vn 0.0852 0.9951 0.0506
vn -0.5272 0.0221 0.8495
vn -0.8376 -0.1814 -0.5153
vn 0.5206 0.0221 -0.8535
vn 0.8304 0.2226 0.5109
vn -0.8493 -0.0752 -0.5225
vn 0.8049 -0.2640 -0.5315
vn 0.5925 -0.1741 -0.7865
vn -0.5540 0.0699 0.8296
vn 0.8066 0.3213 0.4962
vn 0.5655 0.7477 0.3479
vn -0.1198 -0.1745 0.9773
vn 0.6140 0.6931 0.3777
vn -0.5835 -0.7284 -0.3590
vn -0.4470 -0.8512 -0.2750
vn -0.5730 -0.7398 -0.3526
vn 0.4216 -0.0350 -0.9061
vn -0.6466 0.1065 0.7554
vn -0.1739 0.0208 -0.9845
vn -0.9706 0.0629 0.2324
vn 0.4199 0.8700 0.2583
vn -0.9997 0.0247 -0.0039
vn 0.0000 -0.2014 -0.9795
vn 0.9997 0.0247 -0.0039
vn 0.0000 0.2467 0.9691
vn -0.0000 -0.7539 -0.6570
vn 0.8790 -0.1105 0.4639
vn 0.9994 -0.0289 0.0170
vn -0.9994 -0.0289 0.0170
vn 0.0000 0.8104 0.5859
vn 0.0000 0.9954 -0.0959
vn -0.8790 -0.1105 0.4639
vn -0.0000 0.9895 0.1446
vn -0.0000 -0.9892 -0.1466
vn 0.0000 -0.9960 0.0889
vn 0.0000 -0.9954 0.0959
vn 0.9932 -0.0103 -0.1159
vn -0.9932 -0.0103 -0.1159
vn 0.8171 -0.0513 -0.5743
vn -0.8171 -0.0513 -0.5743
vn 0.0000 0.9960 -0.0889
usemtl Purple
s off
f 1//1 2//1 3//1
f 2//2 1//2 6//2
f 1//3 3//3 4//3
f 1//4 4//4 5//4
f 1//5 5//5 6//5
f 2//6 6//6 11//6
f 3//7 2//7 7//7
f 4//8 3//8 8//8
f 5//9 4//9 9//9
f 6//10 5//10 10//10
f 2//11 11//11 7//11
f 3//12 7//12 8//12
f 4//13 8//13 9//13
f 5//14 9//14 10//14
f 6//15 10//15 11//15
f 7//16 11//16 12//16
f 8//17 7//17 12//17
f 9//18 8//18 12//18
f 10//19 9//19 12//19
f 11//20 10//20 12//20
usemtl Green
f 13//21 14//21 16//21 15//21
f 15//22 16//22 20//22 19//22
f 19//23 20//23 18//23 17//23
f 17//24 18//24 14//24 13//24
f 15//25 19//25 17//25 13//25
f 20//26 16//26 22//26 23//26
f 24//27 23//27 27//27 28//27
f 18//28 20//28 23//28 24//28
f 16//29 14//29 21//29 22//29
f 14//30 18//30 24//30 21//30
f 25//31 28//31 32//31 29//31
f 22//32 21//32 25//32 26//32
f 21//33 24//33 28//33 25//33
f 23//34 22//34 26//34 27//34
f 31//35 30//35 34//35
f 27//36 26//36 30//36 31//36
f 28//37 27//37 31//37 32//37
f 26//38 25//38 29//38 30//38
f 32//39 31//39 34//39 33//39
f 30//40 29//40 33//40 34//40
f 29//41 32//41 33//41
f 35//42 36//42 38//42 37//42
f 37//43 38//43 42//43 41//43
f 41//44 42//44 40//44 39//44
f 39//45 40//45 36//45 35//45
f 37//25 41//25 39//25 35//25
f 42//46 38//46 44//46 45//46
f 46//47 45//47 49//47 50//47
f 40//48 42//48 45//48 46//48
f 38//49 36//49 43//49 44//49
f 36//50 40//50 46//50 43//50
f 47//51 50//51 54//51 51//51
f 44//52 43//52 47//52 48//52
f 43//53 46//53 50//53 47//53
f 45//54 44//54 48//54 49//54
f 53//55 52//55 56//55
f 49//56 48//56 52//56 53//56
f 50//57 49//57 53//57 54//57
f 48//58 47//58 51//58 52//58
f 54//59 53//59 56//59 55//59
f 52//60 51//60 55//60 56//60
f 51//61 54//61 55//61
f 57//62 58//62 60//62 59//62
f 59//63 60//63 64//63 63//63
f 63//64 64//64 62//64 61//64
f 61//65 62//65 58//65 57//65
f 59//25 63//25 61//25 57//25
f 64//66 60//66 66//66 67//66
f 68//67 67//67 71//67 72//67
f 62//68 64//68 67//68 68//68
f 60//69 58//69 65//69 66//69
f 58//70 62//70 68//70 65//70
f 69//71 72//71 76//71 73//71
f 66//72 65//72 69//72 70//72
f 65//73 68//73 72//73 69//73
f 67//74 66//74 70//74 71//74
f 75//75 74//75 78//75
f 71//76 70//76 74//76 75//76
f 72//77 71//77 75//77 76//77
f 70//78 69//78 73//78 74//78
f 76//79 75//79 78//79 77//79
f 74//80 73//80 77//80 78//80
f 73//81 76//81 77//81
f 79//82 80//82 82//82 81//82
f 81//83 82//83 86//83 85//83
f 85//84 86//84 84//84 83//84
f 83//85 84//85 80//85 79//85
f 81//25 85//25 83//25 79//25
f 86//86 82//86 88//86 89//86
f 90//87 89//87 93//87 94//87
f 84//88 86//88 89//88 90//88
f 82//89 80//89 87//89 88//89
f 80//90 84//90 90//90 87//90
f 91//91 94//91 98//91 95//91
f 88//92 87//92 91//92 92//92
f 87//93 90//93 94//93 91//93
f 89//94 88//94 92//94 93//94
f 97//95 96//95 100//95
f 93//96 92//96 96//96 97//96
f 94//97 93//97 97//97 98//97
f 92//98 91//98 95//98 96//98
f 98//99 97//99 100//99 99//99
f 96//100 95//100 99//100 100//100
f 95//101 98//101 99//101
