# Blender v2.79 (sub 0) OBJ File: ''
# www.blender.org
mtllib wheat.mtl
o Cube_Cube.001
v -0.005929 -0.002042 0.000000
v -0.005929 0.069046 -0.001760
v -0.000000 -0.002042 -0.005929
v -0.000000 0.069046 -0.007690
v 0.000000 -0.002042 0.005929
v 0.000000 0.069046 0.004169
v 0.005929 -0.002042 -0.000000
v 0.005929 0.069046 -0.001760
v -0.013170 0.141290 -0.006069
v -0.007241 0.141290 -0.011999
v -0.001312 0.141290 -0.006069
v -0.007241 0.141290 -0.000140
v -0.017482 0.145992 -0.006069
v -0.007241 0.145992 -0.016311
v 0.003001 0.145992 -0.006069
v -0.007241 0.145992 0.004172
v -0.017482 0.193868 -0.006069
v -0.007241 0.193868 -0.016311
v 0.003001 0.193868 -0.006069
v -0.007241 0.193868 0.004172
v -0.007241 0.203942 -0.006069
vn -0.7070 -0.0175 -0.7070
vn 0.7070 -0.0175 -0.7070
vn 0.7070 0.0175 0.7070
vn -0.7070 0.0175 0.7070
vn 0.0000 -1.0000 0.0000
vn -0.7026 -0.1123 -0.7026
vn -0.5933 -0.5440 0.5933
vn -0.7068 -0.0287 0.7068
vn 0.7068 0.0287 -0.7068
vn 0.7026 0.1123 0.7026
vn 0.7071 0.0000 0.7071
vn 0.5933 -0.5440 -0.5933
vn 0.5933 -0.5440 0.5933
vn -0.5933 -0.5440 -0.5933
vn -0.5742 0.5837 0.5741
vn -0.7071 0.0000 -0.7071
vn -0.7071 0.0000 0.7071
vn 0.7071 0.0000 -0.7071
vn 0.5742 0.5837 -0.5741
vn 0.5742 0.5837 0.5741
vn -0.5741 0.5837 -0.5741
usemtl Wheat
s off
f 1//1 2//1 4//1 3//1
f 3//2 4//2 8//2 7//2
f 7//3 8//3 6//3 5//3
f 5//4 6//4 2//4 1//4
f 3//5 7//5 5//5 1//5
f 4//6 2//6 9//6 10//6
f 9//7 12//7 16//7 13//7
f 2//8 6//8 12//8 9//8
f 8//9 4//9 10//9 11//9
f 6//10 8//10 11//10 12//10
f 16//11 15//11 19//11 20//11
f 11//12 10//12 14//12 15//12
f 12//13 11//13 15//13 16//13
f 10//14 9//14 13//14 14//14
f 17//15 20//15 21//15
f 14//16 13//16 17//16 18//16
f 13//17 16//17 20//17 17//17
f 15//18 14//18 18//18 19//18
f 19//19 18//19 21//19
f 20//20 19//20 21//20
f 18//21 17//21 21//21
