999
FBX AutoCAD (*.DXF) exporter
  0
SECTION
  2
HEADER
  9
$ACADVER
  1
AC1008
  9
$UCSORG
 10
0.0
 20
0.0
 30
0.0
  9
$UCSXDIR
 10
1.0
 20
0.0
 30
0.0
  9
$TILEMODE
 70
   1
  9
$UCSYDIR
 10
0.0
 20
1.0
 30
0.0
  0
ENDSEC
  0
SECTION
  2
TABLES
  0
TABLE
  2
LTYPE
 70
   1
  0
LTYPE
  2
CONTINUOUS
 70
   64
  3
Solid line
 72
   65
 73
   0
 40
0.0
  0
ENDTAB
  0
TABLE
  2
LAYER
 70
   2
  0
LAYER
  2
bark
 70
   0
 62
   250
  6
CONTINUOUS
  0
ENDTAB
  0
ENDSEC
  0
SECTION
  2
BLOCKS
  0
ENDSEC
  0
SECTION
  2
ENTITIES
  0
POLYLINE
  8
bark
 66
   1
 10
0.0
 20
0.0
 30
0.0
 70
   64
 71
   12
 72
   20
  0
VERTEX
  8
bark
 10
0.000004
 20
-0.000000
 30
30.678723
 70
   192
  0
VERTEX
  8
bark
 10
-38.954879
 20
0.513720
 30
15.339364
 70
   192
  0
VERTEX
  8
bark
 10
-38.954883
 20
0.513720
 30
-15.339359
 70
   192
  0
VERTEX
  8
bark
 10
-0.000004
 20
0.000000
 30
-30.678723
 70
   192
  0
VERTEX
  8
bark
 10
38.954879
 20
-0.513720
 30
-15.339364
 70
   192
  0
VERTEX
  8
bark
 10
38.954883
 20
-0.513720
 30
15.339359
 70
   192
  0
VERTEX
  8
bark
 10
0.768944
 20
100.687642
 30
19.113829
 70
   192
  0
VERTEX
  8
bark
 10
-33.442855
 20
101.138812
 30
5.642166
 70
   192
  0
VERTEX
  8
bark
 10
-33.442859
 20
101.138812
 30
-21.301165
 70
   192
  0
VERTEX
  8
bark
 10
0.768937
 20
100.687642
 30
-34.772832
 70
   192
  0
VERTEX
  8
bark
 10
34.980736
 20
100.236472
 30
-21.301169
 70
   192
  0
VERTEX
  8
bark
 10
34.980739
 20
100.236472
 30
5.642162
 70
   192
  0
VERTEX
  8
bark
 10
0.0
 20
0.0
 30
0.0
 70
   128
 71
   1
 72
   2
 73
   8
  0
VERTEX
  8
bark
 10
0.0
 20
0.0
 30
0.0
 70
   128
 71
   2
 72
   3
 73
   9
  0
VERTEX
  8
bark
 10
0.0
 20
0.0
 30
0.0
 70
   128
 71
   3
 72
   4
 73
   10
  0
VERTEX
  8
bark
 10
0.0
 20
0.0
 30
0.0
 70
   128
 71
   4
 72
   5
 73
   11
  0
VERTEX
  8
bark
 10
0.0
 20
0.0
 30
0.0
 70
   128
 71
   5
 72
   6
 73
   12
  0
VERTEX
  8
bark
 10
0.0
 20
0.0
 30
0.0
 70
   128
 71
   6
 72
   1
 73
   7
  0
VERTEX
  8
bark
 10
0.0
 20
0.0
 30
0.0
 70
   128
 71
   6
 72
   5
 73
   2
  0
VERTEX
  8
bark
 10
0.0
 20
0.0
 30
0.0
 70
   128
 71
   6
 72
   2
 73
   1
  0
VERTEX
  8
bark
 10
0.0
 20
0.0
 30
0.0
 70
   128
 71
   5
 72
   4
 73
   3
  0
VERTEX
  8
bark
 10
0.0
 20
0.0
 30
0.0
 70
   128
 71
   5
 72
   3
 73
   2
  0
VERTEX
  8
bark
 10
0.0
 20
0.0
 30
0.0
 70
   128
 71
   7
 72
   8
 73
   11
  0
VERTEX
  8
bark
 10
0.0
 20
0.0
 30
0.0
 70
   128
 71
   7
 72
   11
 73
   12
  0
VERTEX
  8
bark
 10
0.0
 20
0.0
 30
0.0
 70
   128
 71
   8
 72
   9
 73
   11
  0
VERTEX
  8
bark
 10
0.0
 20
0.0
 30
0.0
 70
   128
 71
   9
 72
   10
 73
   11
  0
VERTEX
  8
bark
 10
0.0
 20
0.0
 30
0.0
 70
   128
 71
   1
 72
   8
 73
   7
  0
VERTEX
  8
bark
 10
0.0
 20
0.0
 30
0.0
 70
   128
 71
   2
 72
   9
 73
   8
  0
VERTEX
  8
bark
 10
0.0
 20
0.0
 30
0.0
 70
   128
 71
   3
 72
   10
 73
   9
  0
VERTEX
  8
bark
 10
0.0
 20
0.0
 30
0.0
 70
   128
 71
   4
 72
   11
 73
   10
  0
VERTEX
  8
bark
 10
0.0
 20
0.0
 30
0.0
 70
   128
 71
   5
 72
   12
 73
   11
  0
VERTEX
  8
bark
 10
0.0
 20
0.0
 30
0.0
 70
   128
 71
   6
 72
   7
 73
   12
  0
SEQEND
  0
ENDSEC
  0
EOF
