999
FBX AutoCAD (*.DXF) exporter
  0
SECTION
  2
HEADER
  9
$ACADVER
  1
AC1008
  9
$UCSORG
 10
0.0
 20
0.0
 30
0.0
  9
$UCSXDIR
 10
1.0
 20
0.0
 30
0.0
  9
$TILEMODE
 70
   1
  9
$UCSYDIR
 10
0.0
 20
1.0
 30
0.0
  0
ENDSEC
  0
SECTION
  2
TABLES
  0
TABLE
  2
LTYPE
 70
   1
  0
LTYPE
  2
CONTINUOUS
 70
   64
  3
Solid line
 72
   65
 73
   0
 40
0.0
  0
ENDTAB
  0
TABLE
  2
LAYER
 70
   6
  0
LAYER
  2
leaf
 70
   0
 62
   250
  6
CONTINUOUS
  0
LAYER
  2
leaf_2
 70
   0
 62
   250
  6
CONTINUOUS
  0
LAYER
  2
leaf_3
 70
   0
 62
   250
  6
CONTINUOUS
  0
LAYER
  2
leaf_4
 70
   0
 62
   250
  6
CONTINUOUS
  0
LAYER
  2
bark
 70
   0
 62
   250
  6
CONTINUOUS
  0
ENDTAB
  0
ENDSEC
  0
SECTION
  2
BLOCKS
  0
ENDSEC
  0
SECTION
  2
ENTITIES
  0
POLYLINE
  8
leaf
 66
   1
 10
0.0
 20
0.0
 30
0.0
 70
   64
 71
   18
 72
   32
  0
VERTEX
  8
leaf
 10
-412.157048
 20
454.348635
 30
0.000000
 70
   192
  0
VERTEX
  8
leaf
 10
-235.681987
 20
454.348635
 30
176.475061
 70
   192
  0
VERTEX
  8
leaf
 10
-59.206925
 20
454.348635
 30
0.000000
 70
   192
  0
VERTEX
  8
leaf
 10
-235.681987
 20
454.348635
 30
-176.475061
 70
   192
  0
VERTEX
  8
leaf
 10
-235.681987
 20
630.823696
 30
0.000000
 70
   192
  0
VERTEX
  8
leaf
 10
-235.681987
 20
277.873574
 30
0.000000
 70
   192
  0
VERTEX
  8
leaf
 10
-235.681987
 20
579.135348
 30
124.786713
 70
   192
  0
VERTEX
  8
leaf
 10
-360.468699
 20
454.348635
 30
124.786713
 70
   192
  0
VERTEX
  8
leaf
 10
-360.468699
 20
579.135348
 30
0.000000
 70
   192
  0
VERTEX
  8
leaf
 10
-110.895274
 20
579.135348
 30
0.000000
 70
   192
  0
VERTEX
  8
leaf
 10
-110.895274
 20
454.348635
 30
124.786713
 70
   192
  0
VERTEX
  8
leaf
 10
-235.681987
 20
579.135348
 30
-124.786713
 70
   192
  0
VERTEX
  8
leaf
 10
-110.895274
 20
454.348635
 30
-124.786713
 70
   192
  0
VERTEX
  8
leaf
 10
-360.468699
 20
454.348635
 30
-124.786713
 70
   192
  0
VERTEX
  8
leaf
 10
-360.468699
 20
329.561922
 30
0.000000
 70
   192
  0
VERTEX
  8
leaf
 10
-235.681987
 20
329.561922
 30
124.786713
 70
   192
  0
VERTEX
  8
leaf
 10
-110.895274
 20
329.561922
 30
0.000000
 70
   192
  0
VERTEX
  8
leaf
 10
-235.681987
 20
329.561922
 30
-124.786713
 70
   192
  0
VERTEX
  8
leaf
 10
0.0
 20
0.0
 30
0.0
 70
   128
 71
   5
 72
   7
 73
   9
  0
VERTEX
  8
leaf
 10
0.0
 20
0.0
 30
0.0
 70
   128
 71
   7
 72
   2
 73
   8
  0
VERTEX
  8
leaf
 10
0.0
 20
0.0
 30
0.0
 70
   128
 71
   8
 72
   9
 73
   7
  0
VERTEX
  8
leaf
 10
0.0
 20
0.0
 30
0.0
 70
   128
 71
   9
 72
   8
 73
   1
  0
VERTEX
  8
leaf
 10
0.0
 20
0.0
 30
0.0
 70
   128
 71
   5
 72
   10
 73
   7
  0
VERTEX
  8
leaf
 10
0.0
 20
0.0
 30
0.0
 70
   128
 71
   10
 72
   3
 73
   11
  0
VERTEX
  8
leaf
 10
0.0
 20
0.0
 30
0.0
 70
   128
 71
   11
 72
   7
 73
   10
  0
VERTEX
  8
leaf
 10
0.0
 20
0.0
 30
0.0
 70
   128
 71
   7
 72
   11
 73
   2
  0
VERTEX
  8
leaf
 10
0.0
 20
0.0
 30
0.0
 70
   128
 71
   5
 72
   12
 73
   10
  0
VERTEX
  8
leaf
 10
0.0
 20
0.0
 30
0.0
 70
   128
 71
   12
 72
   4
 73
   13
  0
VERTEX
  8
leaf
 10
0.0
 20
0.0
 30
0.0
 70
   128
 71
   13
 72
   10
 73
   12
  0
VERTEX
  8
leaf
 10
0.0
 20
0.0
 30
0.0
 70
   128
 71
   10
 72
   13
 73
   3
  0
VERTEX
  8
leaf
 10
0.0
 20
0.0
 30
0.0
 70
   128
 71
   5
 72
   9
 73
   12
  0
VERTEX
  8
leaf
 10
0.0
 20
0.0
 30
0.0
 70
   128
 71
   9
 72
   1
 73
   14
  0
VERTEX
  8
leaf
 10
0.0
 20
0.0
 30
0.0
 70
   128
 71
   14
 72
   12
 73
   9
  0
VERTEX
  8
leaf
 10
0.0
 20
0.0
 30
0.0
 70
   128
 71
   12
 72
   14
 73
   4
  0
VERTEX
  8
leaf
 10
0.0
 20
0.0
 30
0.0
 70
   128
 71
   6
 72
   15
 73
   16
  0
VERTEX
  8
leaf
 10
0.0
 20
0.0
 30
0.0
 70
   128
 71
   15
 72
   1
 73
   8
  0
VERTEX
  8
leaf
 10
0.0
 20
0.0
 30
0.0
 70
   128
 71
   8
 72
   16
 73
   15
  0
VERTEX
  8
leaf
 10
0.0
 20
0.0
 30
0.0
 70
   128
 71
   16
 72
   8
 73
   2
  0
VERTEX
  8
leaf
 10
0.0
 20
0.0
 30
0.0
 70
   128
 71
   6
 72
   16
 73
   17
  0
VERTEX
  8
leaf
 10
0.0
 20
0.0
 30
0.0
 70
   128
 71
   16
 72
   2
 73
   11
  0
VERTEX
  8
leaf
 10
0.0
 20
0.0
 30
0.0
 70
   128
 71
   11
 72
   17
 73
   16
  0
VERTEX
  8
leaf
 10
0.0
 20
0.0
 30
0.0
 70
   128
 71
   17
 72
   11
 73
   3
  0
VERTEX
  8
leaf
 10
0.0
 20
0.0
 30
0.0
 70
   128
 71
   6
 72
   17
 73
   18
  0
VERTEX
  8
leaf
 10
0.0
 20
0.0
 30
0.0
 70
   128
 71
   17
 72
   3
 73
   13
  0
VERTEX
  8
leaf
 10
0.0
 20
0.0
 30
0.0
 70
   128
 71
   13
 72
   18
 73
   17
  0
VERTEX
  8
leaf
 10
0.0
 20
0.0
 30
0.0
 70
   128
 71
   18
 72
   13
 73
   4
  0
VERTEX
  8
leaf
 10
0.0
 20
0.0
 30
0.0
 70
   128
 71
   6
 72
   18
 73
   15
  0
VERTEX
  8
leaf
 10
0.0
 20
0.0
 30
0.0
 70
   128
 71
   18
 72
   4
 73
   14
  0
VERTEX
  8
leaf
 10
0.0
 20
0.0
 30
0.0
 70
   128
 71
   14
 72
   15
 73
   18
  0
VERTEX
  8
leaf
 10
0.0
 20
0.0
 30
0.0
 70
   128
 71
   15
 72
   14
 73
   1
  0
SEQEND
  0
POLYLINE
  8
leaf_2
 66
   1
 10
0.0
 20
0.0
 30
0.0
 70
   64
 71
   18
 72
   32
  0
VERTEX
  8
leaf_2
 10
-290.331531
 20
548.507843
 30
94.280265
 70
   192
  0
VERTEX
  8
leaf_2
 10
-143.161544
 20
548.507843
 30
241.450252
 70
   192
  0
VERTEX
  8
leaf_2
 10
4.008443
 20
548.507843
 30
94.280265
 70
   192
  0
VERTEX
  8
leaf_2
 10
-143.161544
 20
548.507843
 30
-52.889722
 70
   192
  0
VERTEX
  8
leaf_2
 10
-143.161544
 20
695.677830
 30
94.280265
 70
   192
  0
VERTEX
  8
leaf_2
 10
-143.161544
 20
401.337856
 30
94.280265
 70
   192
  0
VERTEX
  8
leaf_2
 10
-143.161544
 20
652.572739
 30
198.345161
 70
   192
  0
VERTEX
  8
leaf_2
 10
-247.226440
 20
548.507843
 30
198.345161
 70
   192
  0
VERTEX
  8
leaf_2
 10
-247.226440
 20
652.572739
 30
94.280265
 70
   192
  0
VERTEX
  8
leaf_2
 10
-39.096649
 20
652.572739
 30
94.280265
 70
   192
  0
VERTEX
  8
leaf_2
 10
-39.096649
 20
548.507843
 30
198.345161
 70
   192
  0
VERTEX
  8
leaf_2
 10
-143.161544
 20
652.572739
 30
-9.784631
 70
   192
  0
VERTEX
  8
leaf_2
 10
-39.096649
 20
548.507843
 30
-9.784631
 70
   192
  0
VERTEX
  8
leaf_2
 10
-247.226440
 20
548.507843
 30
-9.784631
 70
   192
  0
VERTEX
  8
leaf_2
 10
-247.226440
 20
444.442948
 30
94.280265
 70
   192
  0
VERTEX
  8
leaf_2
 10
-143.161544
 20
444.442948
 30
198.345161
 70
   192
  0
VERTEX
  8
leaf_2
 10
-39.096649
 20
444.442948
 30
94.280265
 70
   192
  0
VERTEX
  8
leaf_2
 10
-143.161544
 20
444.442948
 30
-9.784631
 70
   192
  0
VERTEX
  8
leaf_2
 10
0.0
 20
0.0
 30
0.0
 70
   128
 71
   5
 72
   7
 73
   9
  0
VERTEX
  8
leaf_2
 10
0.0
 20
0.0
 30
0.0
 70
   128
 71
   7
 72
   2
 73
   8
  0
VERTEX
  8
leaf_2
 10
0.0
 20
0.0
 30
0.0
 70
   128
 71
   8
 72
   9
 73
   7
  0
VERTEX
  8
leaf_2
 10
0.0
 20
0.0
 30
0.0
 70
   128
 71
   9
 72
   8
 73
   1
  0
VERTEX
  8
leaf_2
 10
0.0
 20
0.0
 30
0.0
 70
   128
 71
   5
 72
   10
 73
   7
  0
VERTEX
  8
leaf_2
 10
0.0
 20
0.0
 30
0.0
 70
   128
 71
   10
 72
   3
 73
   11
  0
VERTEX
  8
leaf_2
 10
0.0
 20
0.0
 30
0.0
 70
   128
 71
   11
 72
   7
 73
   10
  0
VERTEX
  8
leaf_2
 10
0.0
 20
0.0
 30
0.0
 70
   128
 71
   7
 72
   11
 73
   2
  0
VERTEX
  8
leaf_2
 10
0.0
 20
0.0
 30
0.0
 70
   128
 71
   5
 72
   12
 73
   10
  0
VERTEX
  8
leaf_2
 10
0.0
 20
0.0
 30
0.0
 70
   128
 71
   12
 72
   4
 73
   13
  0
VERTEX
  8
leaf_2
 10
0.0
 20
0.0
 30
0.0
 70
   128
 71
   13
 72
   10
 73
   12
  0
VERTEX
  8
leaf_2
 10
0.0
 20
0.0
 30
0.0
 70
   128
 71
   10
 72
   13
 73
   3
  0
VERTEX
  8
leaf_2
 10
0.0
 20
0.0
 30
0.0
 70
   128
 71
   5
 72
   9
 73
   12
  0
VERTEX
  8
leaf_2
 10
0.0
 20
0.0
 30
0.0
 70
   128
 71
   9
 72
   1
 73
   14
  0
VERTEX
  8
leaf_2
 10
0.0
 20
0.0
 30
0.0
 70
   128
 71
   14
 72
   12
 73
   9
  0
VERTEX
  8
leaf_2
 10
0.0
 20
0.0
 30
0.0
 70
   128
 71
   12
 72
   14
 73
   4
  0
VERTEX
  8
leaf_2
 10
0.0
 20
0.0
 30
0.0
 70
   128
 71
   6
 72
   15
 73
   16
  0
VERTEX
  8
leaf_2
 10
0.0
 20
0.0
 30
0.0
 70
   128
 71
   15
 72
   1
 73
   8
  0
VERTEX
  8
leaf_2
 10
0.0
 20
0.0
 30
0.0
 70
   128
 71
   8
 72
   16
 73
   15
  0
VERTEX
  8
leaf_2
 10
0.0
 20
0.0
 30
0.0
 70
   128
 71
   16
 72
   8
 73
   2
  0
VERTEX
  8
leaf_2
 10
0.0
 20
0.0
 30
0.0
 70
   128
 71
   6
 72
   16
 73
   17
  0
VERTEX
  8
leaf_2
 10
0.0
 20
0.0
 30
0.0
 70
   128
 71
   16
 72
   2
 73
   11
  0
VERTEX
  8
leaf_2
 10
0.0
 20
0.0
 30
0.0
 70
   128
 71
   11
 72
   17
 73
   16
  0
VERTEX
  8
leaf_2
 10
0.0
 20
0.0
 30
0.0
 70
   128
 71
   17
 72
   11
 73
   3
  0
VERTEX
  8
leaf_2
 10
0.0
 20
0.0
 30
0.0
 70
   128
 71
   6
 72
   17
 73
   18
  0
VERTEX
  8
leaf_2
 10
0.0
 20
0.0
 30
0.0
 70
   128
 71
   17
 72
   3
 73
   13
  0
VERTEX
  8
leaf_2
 10
0.0
 20
0.0
 30
0.0
 70
   128
 71
   13
 72
   18
 73
   17
  0
VERTEX
  8
leaf_2
 10
0.0
 20
0.0
 30
0.0
 70
   128
 71
   18
 72
   13
 73
   4
  0
VERTEX
  8
leaf_2
 10
0.0
 20
0.0
 30
0.0
 70
   128
 71
   6
 72
   18
 73
   15
  0
VERTEX
  8
leaf_2
 10
0.0
 20
0.0
 30
0.0
 70
   128
 71
   18
 72
   4
 73
   14
  0
VERTEX
  8
leaf_2
 10
0.0
 20
0.0
 30
0.0
 70
   128
 71
   14
 72
   15
 73
   18
  0
VERTEX
  8
leaf_2
 10
0.0
 20
0.0
 30
0.0
 70
   128
 71
   15
 72
   14
 73
   1
  0
SEQEND
  0
POLYLINE
  8
leaf_3
 66
   1
 10
0.0
 20
0.0
 30
0.0
 70
   64
 71
   18
 72
   32
  0
VERTEX
  8
leaf_3
 10
125.263388
 20
437.333299
 30
0.000000
 70
   192
  0
VERTEX
  8
leaf_3
 10
239.857584
 20
437.333299
 30
114.594196
 70
   192
  0
VERTEX
  8
leaf_3
 10
354.451779
 20
437.333299
 30
0.000000
 70
   192
  0
VERTEX
  8
leaf_3
 10
239.857584
 20
437.333299
 30
-114.594196
 70
   192
  0
VERTEX
  8
leaf_3
 10
239.857584
 20
551.927495
 30
0.000000
 70
   192
  0
VERTEX
  8
leaf_3
 10
239.857584
 20
322.739104
 30
0.000000
 70
   192
  0
VERTEX
  8
leaf_3
 10
239.857584
 20
518.363632
 30
81.030333
 70
   192
  0
VERTEX
  8
leaf_3
 10
158.827251
 20
437.333299
 30
81.030333
 70
   192
  0
VERTEX
  8
leaf_3
 10
158.827251
 20
518.363632
 30
0.000000
 70
   192
  0
VERTEX
  8
leaf_3
 10
320.887916
 20
518.363632
 30
0.000000
 70
   192
  0
VERTEX
  8
leaf_3
 10
320.887916
 20
437.333299
 30
81.030333
 70
   192
  0
VERTEX
  8
leaf_3
 10
239.857584
 20
518.363632
 30
-81.030333
 70
   192
  0
VERTEX
  8
leaf_3
 10
320.887916
 20
437.333299
 30
-81.030333
 70
   192
  0
VERTEX
  8
leaf_3
 10
158.827251
 20
437.333299
 30
-81.030333
 70
   192
  0
VERTEX
  8
leaf_3
 10
158.827251
 20
356.302966
 30
0.000000
 70
   192
  0
VERTEX
  8
leaf_3
 10
239.857584
 20
356.302966
 30
81.030333
 70
   192
  0
VERTEX
  8
leaf_3
 10
320.887916
 20
356.302966
 30
0.000000
 70
   192
  0
VERTEX
  8
leaf_3
 10
239.857584
 20
356.302966
 30
-81.030333
 70
   192
  0
VERTEX
  8
leaf_3
 10
0.0
 20
0.0
 30
0.0
 70
   128
 71
   5
 72
   7
 73
   9
  0
VERTEX
  8
leaf_3
 10
0.0
 20
0.0
 30
0.0
 70
   128
 71
   7
 72
   2
 73
   8
  0
VERTEX
  8
leaf_3
 10
0.0
 20
0.0
 30
0.0
 70
   128
 71
   8
 72
   9
 73
   7
  0
VERTEX
  8
leaf_3
 10
0.0
 20
0.0
 30
0.0
 70
   128
 71
   9
 72
   8
 73
   1
  0
VERTEX
  8
leaf_3
 10
0.0
 20
0.0
 30
0.0
 70
   128
 71
   5
 72
   10
 73
   7
  0
VERTEX
  8
leaf_3
 10
0.0
 20
0.0
 30
0.0
 70
   128
 71
   10
 72
   3
 73
   11
  0
VERTEX
  8
leaf_3
 10
0.0
 20
0.0
 30
0.0
 70
   128
 71
   11
 72
   7
 73
   10
  0
VERTEX
  8
leaf_3
 10
0.0
 20
0.0
 30
0.0
 70
   128
 71
   7
 72
   11
 73
   2
  0
VERTEX
  8
leaf_3
 10
0.0
 20
0.0
 30
0.0
 70
   128
 71
   5
 72
   12
 73
   10
  0
VERTEX
  8
leaf_3
 10
0.0
 20
0.0
 30
0.0
 70
   128
 71
   12
 72
   4
 73
   13
  0
VERTEX
  8
leaf_3
 10
0.0
 20
0.0
 30
0.0
 70
   128
 71
   13
 72
   10
 73
   12
  0
VERTEX
  8
leaf_3
 10
0.0
 20
0.0
 30
0.0
 70
   128
 71
   10
 72
   13
 73
   3
  0
VERTEX
  8
leaf_3
 10
0.0
 20
0.0
 30
0.0
 70
   128
 71
   5
 72
   9
 73
   12
  0
VERTEX
  8
leaf_3
 10
0.0
 20
0.0
 30
0.0
 70
   128
 71
   9
 72
   1
 73
   14
  0
VERTEX
  8
leaf_3
 10
0.0
 20
0.0
 30
0.0
 70
   128
 71
   14
 72
   12
 73
   9
  0
VERTEX
  8
leaf_3
 10
0.0
 20
0.0
 30
0.0
 70
   128
 71
   12
 72
   14
 73
   4
  0
VERTEX
  8
leaf_3
 10
0.0
 20
0.0
 30
0.0
 70
   128
 71
   6
 72
   15
 73
   16
  0
VERTEX
  8
leaf_3
 10
0.0
 20
0.0
 30
0.0
 70
   128
 71
   15
 72
   1
 73
   8
  0
VERTEX
  8
leaf_3
 10
0.0
 20
0.0
 30
0.0
 70
   128
 71
   8
 72
   16
 73
   15
  0
VERTEX
  8
leaf_3
 10
0.0
 20
0.0
 30
0.0
 70
   128
 71
   16
 72
   8
 73
   2
  0
VERTEX
  8
leaf_3
 10
0.0
 20
0.0
 30
0.0
 70
   128
 71
   6
 72
   16
 73
   17
  0
VERTEX
  8
leaf_3
 10
0.0
 20
0.0
 30
0.0
 70
   128
 71
   16
 72
   2
 73
   11
  0
VERTEX
  8
leaf_3
 10
0.0
 20
0.0
 30
0.0
 70
   128
 71
   11
 72
   17
 73
   16
  0
VERTEX
  8
leaf_3
 10
0.0
 20
0.0
 30
0.0
 70
   128
 71
   17
 72
   11
 73
   3
  0
VERTEX
  8
leaf_3
 10
0.0
 20
0.0
 30
0.0
 70
   128
 71
   6
 72
   17
 73
   18
  0
VERTEX
  8
leaf_3
 10
0.0
 20
0.0
 30
0.0
 70
   128
 71
   17
 72
   3
 73
   13
  0
VERTEX
  8
leaf_3
 10
0.0
 20
0.0
 30
0.0
 70
   128
 71
   13
 72
   18
 73
   17
  0
VERTEX
  8
leaf_3
 10
0.0
 20
0.0
 30
0.0
 70
   128
 71
   18
 72
   13
 73
   4
  0
VERTEX
  8
leaf_3
 10
0.0
 20
0.0
 30
0.0
 70
   128
 71
   6
 72
   18
 73
   15
  0
VERTEX
  8
leaf_3
 10
0.0
 20
0.0
 30
0.0
 70
   128
 71
   18
 72
   4
 73
   14
  0
VERTEX
  8
leaf_3
 10
0.0
 20
0.0
 30
0.0
 70
   128
 71
   14
 72
   15
 73
   18
  0
VERTEX
  8
leaf_3
 10
0.0
 20
0.0
 30
0.0
 70
   128
 71
   15
 72
   14
 73
   1
  0
SEQEND
  0
POLYLINE
  8
leaf_4
 66
   1
 10
0.0
 20
0.0
 30
0.0
 70
   64
 71
   18
 72
   32
  0
VERTEX
  8
leaf_4
 10
-202.032560
 20
537.522900
 30
0.000000
 70
   192
  0
VERTEX
  8
leaf_4
 10
-1.034341
 20
537.522900
 30
200.998219
 70
   192
  0
VERTEX
  8
leaf_4
 10
199.963879
 20
537.522900
 30
0.000000
 70
   192
  0
VERTEX
  8
leaf_4
 10
-1.034341
 20
537.522900
 30
-200.998219
 70
   192
  0
VERTEX
  8
leaf_4
 10
-1.034341
 20
738.521119
 30
0.000000
 70
   192
  0
VERTEX
  8
leaf_4
 10
-1.034341
 20
336.524681
 30
0.000000
 70
   192
  0
VERTEX
  8
leaf_4
 10
-1.034341
 20
679.650104
 30
142.127204
 70
   192
  0
VERTEX
  8
leaf_4
 10
-143.161544
 20
537.522900
 30
142.127204
 70
   192
  0
VERTEX
  8
leaf_4
 10
-143.161544
 20
679.650104
 30
0.000000
 70
   192
  0
VERTEX
  8
leaf_4
 10
141.092863
 20
679.650104
 30
0.000000
 70
   192
  0
VERTEX
  8
leaf_4
 10
141.092863
 20
537.522900
 30
142.127204
 70
   192
  0
VERTEX
  8
leaf_4
 10
-1.034341
 20
679.650104
 30
-142.127204
 70
   192
  0
VERTEX
  8
leaf_4
 10
141.092863
 20
537.522900
 30
-142.127204
 70
   192
  0
VERTEX
  8
leaf_4
 10
-143.161544
 20
537.522900
 30
-142.127204
 70
   192
  0
VERTEX
  8
leaf_4
 10
-143.161544
 20
395.395696
 30
0.000000
 70
   192
  0
VERTEX
  8
leaf_4
 10
-1.034341
 20
395.395696
 30
142.127204
 70
   192
  0
VERTEX
  8
leaf_4
 10
141.092863
 20
395.395696
 30
0.000000
 70
   192
  0
VERTEX
  8
leaf_4
 10
-1.034341
 20
395.395696
 30
-142.127204
 70
   192
  0
VERTEX
  8
leaf_4
 10
0.0
 20
0.0
 30
0.0
 70
   128
 71
   5
 72
   7
 73
   9
  0
VERTEX
  8
leaf_4
 10
0.0
 20
0.0
 30
0.0
 70
   128
 71
   7
 72
   2
 73
   8
  0
VERTEX
  8
leaf_4
 10
0.0
 20
0.0
 30
0.0
 70
   128
 71
   8
 72
   9
 73
   7
  0
VERTEX
  8
leaf_4
 10
0.0
 20
0.0
 30
0.0
 70
   128
 71
   9
 72
   8
 73
   1
  0
VERTEX
  8
leaf_4
 10
0.0
 20
0.0
 30
0.0
 70
   128
 71
   5
 72
   10
 73
   7
  0
VERTEX
  8
leaf_4
 10
0.0
 20
0.0
 30
0.0
 70
   128
 71
   10
 72
   3
 73
   11
  0
VERTEX
  8
leaf_4
 10
0.0
 20
0.0
 30
0.0
 70
   128
 71
   11
 72
   7
 73
   10
  0
VERTEX
  8
leaf_4
 10
0.0
 20
0.0
 30
0.0
 70
   128
 71
   7
 72
   11
 73
   2
  0
VERTEX
  8
leaf_4
 10
0.0
 20
0.0
 30
0.0
 70
   128
 71
   5
 72
   12
 73
   10
  0
VERTEX
  8
leaf_4
 10
0.0
 20
0.0
 30
0.0
 70
   128
 71
   12
 72
   4
 73
   13
  0
VERTEX
  8
leaf_4
 10
0.0
 20
0.0
 30
0.0
 70
   128
 71
   13
 72
   10
 73
   12
  0
VERTEX
  8
leaf_4
 10
0.0
 20
0.0
 30
0.0
 70
   128
 71
   10
 72
   13
 73
   3
  0
VERTEX
  8
leaf_4
 10
0.0
 20
0.0
 30
0.0
 70
   128
 71
   5
 72
   9
 73
   12
  0
VERTEX
  8
leaf_4
 10
0.0
 20
0.0
 30
0.0
 70
   128
 71
   9
 72
   1
 73
   14
  0
VERTEX
  8
leaf_4
 10
0.0
 20
0.0
 30
0.0
 70
   128
 71
   14
 72
   12
 73
   9
  0
VERTEX
  8
leaf_4
 10
0.0
 20
0.0
 30
0.0
 70
   128
 71
   12
 72
   14
 73
   4
  0
VERTEX
  8
leaf_4
 10
0.0
 20
0.0
 30
0.0
 70
   128
 71
   6
 72
   15
 73
   16
  0
VERTEX
  8
leaf_4
 10
0.0
 20
0.0
 30
0.0
 70
   128
 71
   15
 72
   1
 73
   8
  0
VERTEX
  8
leaf_4
 10
0.0
 20
0.0
 30
0.0
 70
   128
 71
   8
 72
   16
 73
   15
  0
VERTEX
  8
leaf_4
 10
0.0
 20
0.0
 30
0.0
 70
   128
 71
   16
 72
   8
 73
   2
  0
VERTEX
  8
leaf_4
 10
0.0
 20
0.0
 30
0.0
 70
   128
 71
   6
 72
   16
 73
   17
  0
VERTEX
  8
leaf_4
 10
0.0
 20
0.0
 30
0.0
 70
   128
 71
   16
 72
   2
 73
   11
  0
VERTEX
  8
leaf_4
 10
0.0
 20
0.0
 30
0.0
 70
   128
 71
   11
 72
   17
 73
   16
  0
VERTEX
  8
leaf_4
 10
0.0
 20
0.0
 30
0.0
 70
   128
 71
   17
 72
   11
 73
   3
  0
VERTEX
  8
leaf_4
 10
0.0
 20
0.0
 30
0.0
 70
   128
 71
   6
 72
   17
 73
   18
  0
VERTEX
  8
leaf_4
 10
0.0
 20
0.0
 30
0.0
 70
   128
 71
   17
 72
   3
 73
   13
  0
VERTEX
  8
leaf_4
 10
0.0
 20
0.0
 30
0.0
 70
   128
 71
   13
 72
   18
 73
   17
  0
VERTEX
  8
leaf_4
 10
0.0
 20
0.0
 30
0.0
 70
   128
 71
   18
 72
   13
 73
   4
  0
VERTEX
  8
leaf_4
 10
0.0
 20
0.0
 30
0.0
 70
   128
 71
   6
 72
   18
 73
   15
  0
VERTEX
  8
leaf_4
 10
0.0
 20
0.0
 30
0.0
 70
   128
 71
   18
 72
   4
 73
   14
  0
VERTEX
  8
leaf_4
 10
0.0
 20
0.0
 30
0.0
 70
   128
 71
   14
 72
   15
 73
   18
  0
VERTEX
  8
leaf_4
 10
0.0
 20
0.0
 30
0.0
 70
   128
 71
   15
 72
   14
 73
   1
  0
SEQEND
  0
POLYLINE
  8
bark
 66
   1
 10
0.0
 20
0.0
 30
0.0
 70
   64
 71
   240
 72
   420
  0
VERTEX
  8
bark
 10
-28.753515
 20
156.712048
 30
-25.088977
 70
   192
  0
VERTEX
  8
bark
 10
-28.745336
 20
155.544110
 30
-31.627906
 70
   192
  0
VERTEX
  8
bark
 10
-25.371078
 20
156.544694
 30
-37.261284
 70
   192
  0
VERTEX
  8
bark
 10
-19.919591
 20
159.331610
 30
-39.837352
 70
   192
  0
VERTEX
  8
bark
 10
-14.473159
 20
162.840353
 30
-38.372140
 70
   192
  0
VERTEX
  8
bark
 10
-11.112134
 20
165.730700
 30
-33.425309
 70
   192
  0
VERTEX
  8
bark
 10
-11.120312
 20
166.898638
 30
-26.886380
 70
   192
  0
VERTEX
  8
bark
 10
-14.494571
 20
165.898055
 30
-21.253002
 70
   192
  0
VERTEX
  8
bark
 10
-19.946058
 20
163.111138
 30
-18.676933
 70
   192
  0
VERTEX
  8
bark
 10
-25.392490
 20
159.602396
 30
-20.142146
 70
   192
  0
VERTEX
  8
bark
 10
-103.720472
 20
287.182719
 30
-49.187336
 70
   192
  0
VERTEX
  8
bark
 10
-104.236130
 20
287.040572
 30
-54.302558
 70
   192
  0
VERTEX
  8
bark
 10
-102.557573
 20
289.188727
 30
-58.881796
 70
   192
  0
VERTEX
  8
bark
 10
-99.325955
 20
292.806661
 30
-61.175937
 70
   192
  0
VERTEX
  8
bark
 10
-95.775642
 20
296.512446
 30
-60.308698
 70
   192
  0
VERTEX
  8
bark
 10
-93.262734
 20
298.890599
 30
-56.611334
 70
   192
  0
VERTEX
  8
bark
 10
-92.747076
 20
299.032745
 30
-51.496112
 70
   192
  0
VERTEX
  8
bark
 10
-94.425633
 20
296.884591
 30
-46.916874
 70
   192
  0
VERTEX
  8
bark
 10
-97.657252
 20
293.266657
 30
-44.622733
 70
   192
  0
VERTEX
  8
bark
 10
-101.207564
 20
289.560871
 30
-45.489972
 70
   192
  0
VERTEX
  8
bark
 10
-204.088426
 20
340.155511
 30
-20.096415
 70
   192
  0
VERTEX
  8
bark
 10
-204.295048
 20
339.962430
 30
-24.061793
 70
   192
  0
VERTEX
  8
bark
 10
-202.604520
 20
341.407103
 30
-27.676398
 70
   192
  0
VERTEX
  8
bark
 10
-199.662566
 20
343.937715
 30
-29.559574
 70
   192
  0
VERTEX
  8
bark
 10
-196.592913
 20
346.587656
 30
-28.992013
 70
   192
  0
VERTEX
  8
bark
 10
-194.568063
 20
348.344741
 30
-26.190503
 70
   192
  0
VERTEX
  8
bark
 10
-194.361440
 20
348.537822
 30
-22.225125
 70
   192
  0
VERTEX
  8
bark
 10
-196.051968
 20
347.093149
 30
-18.610520
 70
   192
  0
VERTEX
  8
bark
 10
-198.993922
 20
344.562538
 30
-16.727344
 70
   192
  0
VERTEX
  8
bark
 10
-202.063576
 20
341.912596
 30
-17.294905
 70
   192
  0
VERTEX
  8
bark
 10
-239.571018
 20
452.336119
 30
-52.387840
 70
   192
  0
VERTEX
  8
bark
 10
-239.567525
 20
451.613014
 30
-54.944515
 70
   192
  0
VERTEX
  8
bark
 10
-238.077731
 20
451.487919
 30
-57.140953
 70
   192
  0
VERTEX
  8
bark
 10
-235.670685
 20
452.008617
 30
-58.138191
 70
   192
  0
VERTEX
  8
bark
 10
-233.265798
 20
452.976218
 30
-57.555317
 70
   192
  0
VERTEX
  8
bark
 10
-231.781654
 20
454.021132
 30
-55.614969
 70
   192
  0
VERTEX
  8
bark
 10
-231.785146
 20
454.744238
 30
-53.058294
 70
   192
  0
VERTEX
  8
bark
 10
-233.274941
 20
454.869333
 30
-50.861856
 70
   192
  0
VERTEX
  8
bark
 10
-235.681987
 20
454.348635
 30
-49.864618
 70
   192
  0
VERTEX
  8
bark
 10
-238.086874
 20
453.381034
 30
-50.447492
 70
   192
  0
VERTEX
  8
bark
 10
11.154515
 20
268.472505
 30
-13.425981
 70
   192
  0
VERTEX
  8
bark
 10
8.525826
 20
274.569893
 30
-13.609261
 70
   192
  0
VERTEX
  8
bark
 10
8.462773
 20
280.295704
 30
-16.975691
 70
   192
  0
VERTEX
  8
bark
 10
10.989439
 20
283.462873
 30
-22.239410
 70
   192
  0
VERTEX
  8
bark
 10
15.140726
 20
282.861649
 30
-27.389856
 70
   192
  0
VERTEX
  8
bark
 10
19.330981
 20
278.721679
 30
-30.459733
 70
   192
  0
VERTEX
  8
bark
 10
21.959670
 20
272.624291
 30
-30.276453
 70
   192
  0
VERTEX
  8
bark
 10
22.022724
 20
266.898480
 30
-26.910023
 70
   192
  0
VERTEX
  8
bark
 10
19.496057
 20
263.731311
 30
-21.646304
 70
   192
  0
VERTEX
  8
bark
 10
15.344771
 20
264.332535
 30
-16.495858
 70
   192
  0
VERTEX
  8
bark
 10
93.247151
 20
306.368000
 30
46.089693
 70
   192
  0
VERTEX
  8
bark
 10
91.025194
 20
311.203182
 30
45.858461
 70
   192
  0
VERTEX
  8
bark
 10
90.787272
 20
315.708846
 30
43.021148
 70
   192
  0
VERTEX
  8
bark
 10
92.624265
 20
318.163981
 30
38.661512
 70
   192
  0
VERTEX
  8
bark
 10
95.834503
 20
317.630810
 30
34.444784
 70
   192
  0
VERTEX
  8
bark
 10
99.191784
 20
314.312985
 30
31.981612
 70
   192
  0
VERTEX
  8
bark
 10
101.413741
 20
309.477802
 30
32.212844
 70
   192
  0
VERTEX
  8
bark
 10
101.651662
 20
304.972138
 30
35.050157
 70
   192
  0
VERTEX
  8
bark
 10
99.814670
 20
302.517003
 30
39.409793
 70
   192
  0
VERTEX
  8
bark
 10
96.604432
 20
303.050175
 30
43.626521
 70
   192
  0
VERTEX
  8
bark
 10
94.497273
 20
307.019762
 30
46.874111
 70
   192
  0
VERTEX
  8
bark
 10
92.014047
 20
311.707015
 30
46.482919
 70
   192
  0
VERTEX
  8
bark
 10
91.344655
 20
315.982564
 30
43.381184
 70
   192
  0
VERTEX
  8
bark
 10
92.744783
 20
318.213295
 30
38.753663
 70
   192
  0
VERTEX
  8
bark
 10
95.679630
 20
317.547144
 30
34.367912
 70
   192
  0
VERTEX
  8
bark
 10
99.028184
 20
314.238559
 30
31.899139
 70
   192
  0
VERTEX
  8
bark
 10
101.511410
 20
309.551306
 30
32.290331
 70
   192
  0
VERTEX
  8
bark
 10
102.180802
 20
305.275757
 30
35.392066
 70
   192
  0
VERTEX
  8
bark
 10
100.780673
 20
303.045026
 30
40.019587
 70
   192
  0
VERTEX
  8
bark
 10
97.845827
 20
303.711177
 30
44.405338
 70
   192
  0
VERTEX
  8
bark
 10
96.195885
 20
308.006970
 30
47.704553
 70
   192
  0
VERTEX
  8
bark
 10
93.018615
 20
312.254918
 30
46.999081
 70
   192
  0
VERTEX
  8
bark
 10
91.483977
 20
316.014627
 30
43.495868
 70
   192
  0
VERTEX
  8
bark
 10
92.178152
 20
317.850017
 30
38.533023
 70
   192
  0
VERTEX
  8
bark
 10
94.835988
 20
317.060030
 30
34.006184
 70
   192
  0
VERTEX
  8
bark
 10
98.442283
 20
313.946416
 30
31.644450
 70
   192
  0
VERTEX
  8
bark
 10
101.619553
 20
309.698468
 30
32.349922
 70
   192
  0
VERTEX
  8
bark
 10
103.154191
 20
305.938759
 30
35.853134
 70
   192
  0
VERTEX
  8
bark
 10
102.460016
 20
304.103369
 30
40.815979
 70
   192
  0
VERTEX
  8
bark
 10
99.802180
 20
304.893355
 30
45.342818
 70
   192
  0
VERTEX
  8
bark
 10
96.412999
 20
308.293859
 30
47.794254
 70
   192
  0
VERTEX
  8
bark
 10
92.806224
 20
312.080655
 30
46.908254
 70
   192
  0
VERTEX
  8
bark
 10
90.980248
 20
315.505676
 30
43.279641
 70
   192
  0
VERTEX
  8
bark
 10
91.632532
 20
317.260681
 30
38.294422
 70
   192
  0
VERTEX
  8
bark
 10
94.513925
 20
316.675318
 30
33.856781
 70
   192
  0
VERTEX
  8
bark
 10
98.523833
 20
313.973175
 30
31.661746
 70
   192
  0
VERTEX
  8
bark
 10
102.130608
 20
310.186379
 30
32.547746
 70
   192
  0
VERTEX
  8
bark
 10
103.956584
 20
306.761358
 30
36.176359
 70
   192
  0
VERTEX
  8
bark
 10
103.304300
 20
305.006353
 30
41.161578
 70
   192
  0
VERTEX
  8
bark
 10
100.422907
 20
305.591716
 30
45.599219
 70
   192
  0
VERTEX
  8
bark
 10
96.293239
 20
308.197643
 30
47.706900
 70
   192
  0
VERTEX
  8
bark
 10
92.716751
 20
311.996144
 30
46.822453
 70
   192
  0
VERTEX
  8
bark
 10
91.191423
 20
315.723620
 30
43.386673
 70
   192
  0
VERTEX
  8
bark
 10
92.299878
 20
317.956302
 30
38.711912
 70
   192
  0
VERTEX
  8
bark
 10
95.618723
 20
317.841382
 30
34.583770
 70
   192
  0
VERTEX
  8
bark
 10
99.880273
 20
315.422754
 30
32.579056
 70
   192
  0
VERTEX
  8
bark
 10
103.456760
 20
311.624253
 30
33.463503
 70
   192
  0
VERTEX
  8
bark
 10
104.982088
 20
307.896777
 30
36.899282
 70
   192
  0
VERTEX
  8
bark
 10
103.873634
 20
305.664095
 30
41.574043
 70
   192
  0
VERTEX
  8
bark
 10
100.554788
 20
305.779015
 30
45.702186
 70
   192
  0
VERTEX
  8
bark
 10
147.287691
 20
367.169681
 30
90.828150
 70
   192
  0
VERTEX
  8
bark
 10
144.276315
 20
369.998226
 30
89.992827
 70
   192
  0
VERTEX
  8
bark
 10
142.879465
 20
372.763128
 30
87.116057
 70
   192
  0
VERTEX
  8
bark
 10
143.630691
 20
374.408288
 30
83.296667
 70
   192
  0
VERTEX
  8
bark
 10
146.243051
 20
374.305312
 30
79.993534
 70
   192
  0
VERTEX
  8
bark
 10
149.718710
 20
372.493532
 30
78.468343
 70
   192
  0
VERTEX
  8
bark
 10
152.730086
 20
369.664987
 30
79.303665
 70
   192
  0
VERTEX
  8
bark
 10
154.126935
 20
366.900085
 30
82.180436
 70
   192
  0
VERTEX
  8
bark
 10
153.375709
 20
365.254924
 30
85.999826
 70
   192
  0
VERTEX
  8
bark
 10
150.763350
 20
365.357901
 30
89.302959
 70
   192
  0
VERTEX
  8
bark
 10
148.236356
 20
368.455011
 30
91.375482
 70
   192
  0
VERTEX
  8
bark
 10
144.951398
 20
370.893068
 30
90.400260
 70
   192
  0
VERTEX
  8
bark
 10
143.121423
 20
373.066126
 30
87.288164
 70
   192
  0
VERTEX
  8
bark
 10
143.445419
 20
374.144152
 30
83.227909
 70
   192
  0
VERTEX
  8
bark
 10
145.799629
 20
373.715376
 30
79.770374
 70
   192
  0
VERTEX
  8
bark
 10
149.284827
 20
371.943575
 30
78.236220
 70
   192
  0
VERTEX
  8
bark
 10
152.569785
 20
369.505518
 30
79.211442
 70
   192
  0
VERTEX
  8
bark
 10
154.399760
 20
367.332459
 30
82.323538
 70
   192
  0
VERTEX
  8
bark
 10
154.075765
 20
366.254434
 30
86.383793
 70
   192
  0
VERTEX
  8
bark
 10
151.721554
 20
366.683210
 30
89.841328
 70
   192
  0
VERTEX
  8
bark
 10
149.326114
 20
370.273472
 30
91.760561
 70
   192
  0
VERTEX
  8
bark
 10
145.949536
 20
372.551747
 30
90.751513
 70
   192
  0
VERTEX
  8
bark
 10
143.703726
 20
374.026478
 30
87.491860
 70
   192
  0
VERTEX
  8
bark
 10
143.446506
 20
374.134369
 30
83.226677
 70
   192
  0
VERTEX
  8
bark
 10
145.276127
 20
372.834208
 30
79.585119
 70
   192
  0
VERTEX
  8
bark
 10
148.493734
 20
370.622613
 30
77.958139
 70
   192
  0
VERTEX
  8
bark
 10
151.870311
 20
368.344338
 30
78.967186
 70
   192
  0
VERTEX
  8
bark
 10
154.116121
 20
366.869607
 30
82.226840
 70
   192
  0
VERTEX
  8
bark
 10
154.373341
 20
366.761716
 30
86.492023
 70
   192
  0
VERTEX
  8
bark
 10
152.543721
 20
368.061877
 30
90.133581
 70
   192
  0
VERTEX
  8
bark
 10
150.503434
 20
371.964556
 30
91.324414
 70
   192
  0
VERTEX
  8
bark
 10
147.264913
 20
374.392980
 30
90.216968
 70
   192
  0
VERTEX
  8
bark
 10
144.729269
 20
375.411979
 30
87.037177
 70
   192
  0
VERTEX
  8
bark
 10
143.865032
 20
374.632329
 30
82.999613
 70
   192
  0
VERTEX
  8
bark
 10
145.002310
 20
372.351832
 30
79.646488
 70
   192
  0
VERTEX
  8
bark
 10
147.706703
 20
369.441558
 30
78.258582
 70
   192
  0
VERTEX
  8
bark
 10
150.945224
 20
367.013134
 30
79.366028
 70
   192
  0
VERTEX
  8
bark
 10
153.480868
 20
365.994135
 30
82.545819
 70
   192
  0
VERTEX
  8
bark
 10
154.345105
 20
366.773784
 30
86.583383
 70
   192
  0
VERTEX
  8
bark
 10
153.207827
 20
369.054282
 30
89.936508
 70
   192
  0
VERTEX
  8
bark
 10
151.348196
 20
372.851089
 30
90.868079
 70
   192
  0
VERTEX
  8
bark
 10
148.312457
 20
375.459341
 30
89.640113
 70
   192
  0
VERTEX
  8
bark
 10
145.729334
 20
376.398367
 30
86.483790
 70
   192
  0
VERTEX
  8
bark
 10
144.585493
 20
375.309491
 30
82.604719
 70
   192
  0
VERTEX
  8
bark
 10
145.317841
 20
372.608626
 30
79.484571
 70
   192
  0
VERTEX
  8
bark
 10
147.646647
 20
369.327411
 30
78.315139
 70
   192
  0
VERTEX
  8
bark
 10
150.682386
 20
366.719158
 30
79.543105
 70
   192
  0
VERTEX
  8
bark
 10
153.265509
 20
365.780132
 30
82.699427
 70
   192
  0
VERTEX
  8
bark
 10
154.409350
 20
366.869009
 30
86.578499
 70
   192
  0
VERTEX
  8
bark
 10
153.677002
 20
369.569874
 30
89.698646
 70
   192
  0
VERTEX
  8
bark
 10
153.909357
 20
374.990551
 30
89.287607
 70
   192
  0
VERTEX
  8
bark
 10
151.027142
 20
377.672254
 30
87.989169
 70
   192
  0
VERTEX
  8
bark
 10
148.430798
 20
378.561768
 30
84.882339
 70
   192
  0
VERTEX
  8
bark
 10
147.112039
 20
377.319329
 30
81.153820
 70
   192
  0
VERTEX
  8
bark
 10
147.574587
 20
374.419506
 30
78.227780
 70
   192
  0
VERTEX
  8
bark
 10
149.641764
 20
370.969934
 30
77.221866
 70
   192
  0
VERTEX
  8
bark
 10
152.523979
 20
368.288231
 30
78.520304
 70
   192
  0
VERTEX
  8
bark
 10
155.120323
 20
367.398717
 30
81.627135
 70
   192
  0
VERTEX
  8
bark
 10
156.439082
 20
368.641156
 30
85.355654
 70
   192
  0
VERTEX
  8
bark
 10
155.976534
 20
371.540978
 30
88.281694
 70
   192
  0
VERTEX
  8
bark
 10
239.857584
 20
437.333299
 30
31.780114
 70
   192
  0
VERTEX
  8
bark
 10
237.953934
 20
439.023995
 30
30.974016
 70
   192
  0
VERTEX
  8
bark
 10
236.299502
 20
439.606285
 30
28.962992
 70
   192
  0
VERTEX
  8
bark
 10
235.526226
 20
438.857755
 30
26.515184
 70
   192
  0
VERTEX
  8
bark
 10
235.929469
 20
437.064317
 30
24.565573
 70
   192
  0
VERTEX
  8
bark
 10
237.355207
 20
434.911004
 30
23.858842
 70
   192
  0
VERTEX
  8
bark
 10
239.258857
 20
433.220308
 30
24.664940
 70
   192
  0
VERTEX
  8
bark
 10
240.913288
 20
432.638018
 30
26.675965
 70
   192
  0
VERTEX
  8
bark
 10
241.686565
 20
433.386548
 30
29.123772
 70
   192
  0
VERTEX
  8
bark
 10
241.283322
 20
435.179986
 30
31.073384
 70
   192
  0
VERTEX
  8
bark
 10
239.828917
 20
437.360375
 30
31.768258
 70
   192
  0
VERTEX
  8
bark
 10
237.775290
 20
438.883293
 30
31.021424
 70
   192
  0
VERTEX
  8
bark
 10
236.188982
 20
439.499061
 30
28.975205
 70
   192
  0
VERTEX
  8
bark
 10
235.675910
 20
438.972477
 30
26.411186
 70
   192
  0
VERTEX
  8
bark
 10
236.432049
 20
437.504678
 30
24.308736
 70
   192
  0
VERTEX
  8
bark
 10
238.168580
 20
435.656314
 30
23.470920
 70
   192
  0
VERTEX
  8
bark
 10
240.222207
 20
434.133396
 30
24.217754
 70
   192
  0
VERTEX
  8
bark
 10
241.808515
 20
433.517628
 30
26.263974
 70
   192
  0
VERTEX
  8
bark
 10
242.321587
 20
434.044212
 30
28.827992
 70
   192
  0
VERTEX
  8
bark
 10
241.565448
 20
435.512011
 30
30.930442
 70
   192
  0
VERTEX
  8
bark
 10
239.837906
 20
437.389170
 30
31.755968
 70
   192
  0
VERTEX
  8
bark
 10
237.718752
 20
438.817237
 30
31.028445
 70
   192
  0
VERTEX
  8
bark
 10
236.163052
 20
439.460792
 30
28.972937
 70
   192
  0
VERTEX
  8
bark
 10
235.765031
 20
439.074020
 30
26.374579
 70
   192
  0
VERTEX
  8
bark
 10
236.676718
 20
437.804653
 30
24.225855
 70
   192
  0
VERTEX
  8
bark
 10
238.549881
 20
436.137548
 30
23.347506
 70
   192
  0
VERTEX
  8
bark
 10
240.669034
 20
434.709481
 30
24.075029
 70
   192
  0
VERTEX
  8
bark
 10
242.224734
 20
434.065925
 30
26.130537
 70
   192
  0
VERTEX
  8
bark
 10
242.622756
 20
434.452698
 30
28.728895
 70
   192
  0
VERTEX
  8
bark
 10
241.711068
 20
435.722064
 30
30.877619
 70
   192
  0
VERTEX
  8
bark
 10
-6.809269
 20
-0.000000
 30
-35.252304
 70
   192
  0
VERTEX
  8
bark
 10
15.673014
 20
-0.000000
 30
-33.597016
 70
   192
  0
VERTEX
  8
bark
 10
32.616601
 20
-0.000000
 30
-19.108810
 70
   192
  0
VERTEX
  8
bark
 10
37.549617
 20
-0.000000
 30
2.678312
 70
   192
  0
VERTEX
  8
bark
 10
28.587818
 20
-0.000000
 30
23.442410
 70
   192
  0
VERTEX
  8
bark
 10
9.154307
 20
-0.000000
 30
35.252304
 70
   192
  0
VERTEX
  8
bark
 10
-13.327976
 20
-0.000000
 30
33.597016
 70
   192
  0
VERTEX
  8
bark
 10
-30.271562
 20
-0.000000
 30
19.108810
 70
   192
  0
VERTEX
  8
bark
 10
-35.204579
 20
-0.000000
 30
-2.678312
 70
   192
  0
VERTEX
  8
bark
 10
-26.242780
 20
-0.000000
 30
-23.442410
 70
   192
  0
VERTEX
  8
bark
 10
-26.885057
 20
160.411385
 30
-56.515053
 70
   192
  0
VERTEX
  8
bark
 10
-9.437394
 20
158.881348
 30
-54.874862
 70
   192
  0
VERTEX
  8
bark
 10
4.001372
 20
158.245122
 30
-43.449573
 70
   192
  0
VERTEX
  8
bark
 10
8.298088
 20
158.745723
 30
-26.603258
 70
   192
  0
VERTEX
  8
bark
 10
1.811555
 20
160.191938
 30
-10.770637
 70
   192
  0
VERTEX
  8
bark
 10
-12.980592
 20
162.031363
 30
-1.999232
 70
   192
  0
VERTEX
  8
bark
 10
-30.428255
 20
163.561400
 30
-3.639423
 70
   192
  0
VERTEX
  8
bark
 10
-43.867021
 20
164.197626
 30
-15.064712
 70
   192
  0
VERTEX
  8
bark
 10
-48.163737
 20
163.697025
 30
-31.911028
 70
   192
  0
VERTEX
  8
bark
 10
-41.677204
 20
162.250810
 30
-47.743649
 70
   192
  0
VERTEX
  8
bark
 10
11.479588
 20
279.803030
 30
-42.760167
 70
   192
  0
VERTEX
  8
bark
 10
25.181159
 20
278.626629
 30
-41.749764
 70
   192
  0
VERTEX
  8
bark
 10
35.086596
 20
275.529117
 30
-33.173796
 70
   192
  0
VERTEX
  8
bark
 10
37.412357
 20
271.693636
 30
-20.307991
 70
   192
  0
VERTEX
  8
bark
 10
31.270081
 20
268.585211
 30
-8.066649
 70
   192
  0
VERTEX
  8
bark
 10
19.005909
 20
267.391154
 30
-1.125547
 70
   192
  0
VERTEX
  8
bark
 10
5.304337
 20
268.567555
 30
-2.135950
 70
   192
  0
VERTEX
  8
bark
 10
-4.601100
 20
271.665067
 30
-10.711918
 70
   192
  0
VERTEX
  8
bark
 10
-6.926861
 20
275.500548
 30
-23.577724
 70
   192
  0
VERTEX
  8
bark
 10
-0.784585
 20
278.608973
 30
-35.819066
 70
   192
  0
VERTEX
  8
bark
 10
-13.198563
 20
401.393403
 30
29.688953
 70
   192
  0
VERTEX
  8
bark
 10
-4.277831
 20
401.716515
 30
30.733058
 70
   192
  0
VERTEX
  8
bark
 10
2.246125
 20
400.646870
 30
36.801031
 70
   192
  0
VERTEX
  8
bark
 10
3.881376
 20
398.593036
 30
45.575112
 70
   192
  0
VERTEX
  8
bark
 10
0.003311
 20
396.339507
 30
53.703901
 70
   192
  0
VERTEX
  8
bark
 10
-7.906780
 20
394.747055
 30
58.082475
 70
   192
  0
VERTEX
  8
bark
 10
-16.827512
 20
394.423943
 30
57.038370
 70
   192
  0
VERTEX
  8
bark
 10
-23.351468
 20
395.493588
 30
50.970397
 70
   192
  0
VERTEX
  8
bark
 10
-24.986719
 20
397.547422
 30
42.196316
 70
   192
  0
VERTEX
  8
bark
 10
-21.108655
 20
399.800951
 30
34.067528
 70
   192
  0
VERTEX
  8
bark
 10
-3.655736
 20
537.677100
 30
36.643772
 70
   192
  0
VERTEX
  8
bark
 10
0.843947
 20
537.412413
 30
37.255119
 70
   192
  0
VERTEX
  8
bark
 10
4.125545
 20
537.219377
 30
40.399129
 70
   192
  0
VERTEX
  8
bark
 10
4.935601
 20
537.171727
 30
44.874895
 70
   192
  0
VERTEX
  8
bark
 10
2.964700
 20
537.287662
 30
48.972828
 70
   192
  0
VERTEX
  8
bark
 10
-1.034341
 20
537.522900
 30
51.127657
 70
   192
  0
VERTEX
  8
bark
 10
-5.534023
 20
537.787587
 30
50.516309
 70
   192
  0
VERTEX
  8
bark
 10
-8.815621
 20
537.980623
 30
47.372300
 70
   192
  0
VERTEX
  8
bark
 10
-9.625677
 20
538.028273
 30
42.896533
 70
   192
  0
VERTEX
  8
bark
 10
-7.654776
 20
537.912338
 30
38.798600
 70
   192
  0
VERTEX
  8
bark
 10
0.0
 20
0.0
 30
0.0
 70
   128
 71
   1
 72
   2
 73
   12
  0
VERTEX
  8
bark
 10
0.0
 20
0.0
 30
0.0
 70
   128
 71
   2
 72
   3
 73
   13
  0
VERTEX
  8
bark
 10
0.0
 20
0.0
 30
0.0
 70
   128
 71
   3
 72
   4
 73
   14
  0
VERTEX
  8
bark
 10
0.0
 20
0.0
 30
0.0
 70
   128
 71
   4
 72
   5
 73
   15
  0
VERTEX
  8
bark
 10
0.0
 20
0.0
 30
0.0
 70
   128
 71
   5
 72
   6
 73
   16
  0
VERTEX
  8
bark
 10
0.0
 20
0.0
 30
0.0
 70
   128
 71
   6
 72
   7
 73
   17
  0
VERTEX
  8
bark
 10
0.0
 20
0.0
 30
0.0
 70
   128
 71
   7
 72
   8
 73
   18
  0
VERTEX
  8
bark
 10
0.0
 20
0.0
 30
0.0
 70
   128
 71
   8
 72
   9
 73
   19
  0
VERTEX
  8
bark
 10
0.0
 20
0.0
 30
0.0
 70
   128
 71
   9
 72
   10
 73
   20
  0
VERTEX
  8
bark
 10
0.0
 20
0.0
 30
0.0
 70
   128
 71
   10
 72
   1
 73
   11
  0
VERTEX
  8
bark
 10
0.0
 20
0.0
 30
0.0
 70
   128
 71
   11
 72
   12
 73
   22
  0
VERTEX
  8
bark
 10
0.0
 20
0.0
 30
0.0
 70
   128
 71
   12
 72
   13
 73
   23
  0
VERTEX
  8
bark
 10
0.0
 20
0.0
 30
0.0
 70
   128
 71
   13
 72
   14
 73
   24
  0
VERTEX
  8
bark
 10
0.0
 20
0.0
 30
0.0
 70
   128
 71
   14
 72
   15
 73
   25
  0
VERTEX
  8
bark
 10
0.0
 20
0.0
 30
0.0
 70
   128
 71
   15
 72
   16
 73
   26
  0
VERTEX
  8
bark
 10
0.0
 20
0.0
 30
0.0
 70
   128
 71
   16
 72
   17
 73
   27
  0
VERTEX
  8
bark
 10
0.0
 20
0.0
 30
0.0
 70
   128
 71
   17
 72
   18
 73
   28
  0
VERTEX
  8
bark
 10
0.0
 20
0.0
 30
0.0
 70
   128
 71
   18
 72
   19
 73
   29
  0
VERTEX
  8
bark
 10
0.0
 20
0.0
 30
0.0
 70
   128
 71
   19
 72
   20
 73
   30
  0
VERTEX
  8
bark
 10
0.0
 20
0.0
 30
0.0
 70
   128
 71
   20
 72
   11
 73
   21
  0
VERTEX
  8
bark
 10
0.0
 20
0.0
 30
0.0
 70
   128
 71
   21
 72
   22
 73
   32
  0
VERTEX
  8
bark
 10
0.0
 20
0.0
 30
0.0
 70
   128
 71
   22
 72
   23
 73
   33
  0
VERTEX
  8
bark
 10
0.0
 20
0.0
 30
0.0
 70
   128
 71
   23
 72
   24
 73
   34
  0
VERTEX
  8
bark
 10
0.0
 20
0.0
 30
0.0
 70
   128
 71
   24
 72
   25
 73
   35
  0
VERTEX
  8
bark
 10
0.0
 20
0.0
 30
0.0
 70
   128
 71
   25
 72
   26
 73
   36
  0
VERTEX
  8
bark
 10
0.0
 20
0.0
 30
0.0
 70
   128
 71
   26
 72
   27
 73
   37
  0
VERTEX
  8
bark
 10
0.0
 20
0.0
 30
0.0
 70
   128
 71
   27
 72
   28
 73
   38
  0
VERTEX
  8
bark
 10
0.0
 20
0.0
 30
0.0
 70
   128
 71
   28
 72
   29
 73
   39
  0
VERTEX
  8
bark
 10
0.0
 20
0.0
 30
0.0
 70
   128
 71
   29
 72
   30
 73
   40
  0
VERTEX
  8
bark
 10
0.0
 20
0.0
 30
0.0
 70
   128
 71
   30
 72
   21
 73
   31
  0
VERTEX
  8
bark
 10
0.0
 20
0.0
 30
0.0
 70
   128
 71
   41
 72
   42
 73
   52
  0
VERTEX
  8
bark
 10
0.0
 20
0.0
 30
0.0
 70
   128
 71
   42
 72
   43
 73
   53
  0
VERTEX
  8
bark
 10
0.0
 20
0.0
 30
0.0
 70
   128
 71
   43
 72
   44
 73
   54
  0
VERTEX
  8
bark
 10
0.0
 20
0.0
 30
0.0
 70
   128
 71
   44
 72
   45
 73
   55
  0
VERTEX
  8
bark
 10
0.0
 20
0.0
 30
0.0
 70
   128
 71
   45
 72
   46
 73
   56
  0
VERTEX
  8
bark
 10
0.0
 20
0.0
 30
0.0
 70
   128
 71
   46
 72
   47
 73
   57
  0
VERTEX
  8
bark
 10
0.0
 20
0.0
 30
0.0
 70
   128
 71
   47
 72
   48
 73
   58
  0
VERTEX
  8
bark
 10
0.0
 20
0.0
 30
0.0
 70
   128
 71
   48
 72
   49
 73
   59
  0
VERTEX
  8
bark
 10
0.0
 20
0.0
 30
0.0
 70
   128
 71
   49
 72
   50
 73
   60
  0
VERTEX
  8
bark
 10
0.0
 20
0.0
 30
0.0
 70
   128
 71
   50
 72
   41
 73
   51
  0
VERTEX
  8
bark
 10
0.0
 20
0.0
 30
0.0
 70
   128
 71
   51
 72
   52
 73
   62
  0
VERTEX
  8
bark
 10
0.0
 20
0.0
 30
0.0
 70
   128
 71
   52
 72
   53
 73
   63
  0
VERTEX
  8
bark
 10
0.0
 20
0.0
 30
0.0
 70
   128
 71
   53
 72
   54
 73
   64
  0
VERTEX
  8
bark
 10
0.0
 20
0.0
 30
0.0
 70
   128
 71
   54
 72
   55
 73
   64
  0
VERTEX
  8
bark
 10
0.0
 20
0.0
 30
0.0
 70
   128
 71
   55
 72
   56
 73
   66
  0
VERTEX
  8
bark
 10
0.0
 20
0.0
 30
0.0
 70
   128
 71
   56
 72
   57
 73
   67
  0
VERTEX
  8
bark
 10
0.0
 20
0.0
 30
0.0
 70
   128
 71
   57
 72
   58
 73
   68
  0
VERTEX
  8
bark
 10
0.0
 20
0.0
 30
0.0
 70
   128
 71
   58
 72
   59
 73
   69
  0
VERTEX
  8
bark
 10
0.0
 20
0.0
 30
0.0
 70
   128
 71
   59
 72
   60
 73
   70
  0
VERTEX
  8
bark
 10
0.0
 20
0.0
 30
0.0
 70
   128
 71
   60
 72
   51
 73
   61
  0
VERTEX
  8
bark
 10
0.0
 20
0.0
 30
0.0
 70
   128
 71
   61
 72
   62
 73
   72
  0
VERTEX
  8
bark
 10
0.0
 20
0.0
 30
0.0
 70
   128
 71
   62
 72
   63
 73
   73
  0
VERTEX
  8
bark
 10
0.0
 20
0.0
 30
0.0
 70
   128
 71
   63
 72
   64
 73
   73
  0
VERTEX
  8
bark
 10
0.0
 20
0.0
 30
0.0
 70
   128
 71
   64
 72
   65
 73
   75
  0
VERTEX
  8
bark
 10
0.0
 20
0.0
 30
0.0
 70
   128
 71
   65
 72
   66
 73
   76
  0
VERTEX
  8
bark
 10
0.0
 20
0.0
 30
0.0
 70
   128
 71
   66
 72
   67
 73
   77
  0
VERTEX
  8
bark
 10
0.0
 20
0.0
 30
0.0
 70
   128
 71
   67
 72
   68
 73
   78
  0
VERTEX
  8
bark
 10
0.0
 20
0.0
 30
0.0
 70
   128
 71
   68
 72
   69
 73
   79
  0
VERTEX
  8
bark
 10
0.0
 20
0.0
 30
0.0
 70
   128
 71
   69
 72
   70
 73
   80
  0
VERTEX
  8
bark
 10
0.0
 20
0.0
 30
0.0
 70
   128
 71
   70
 72
   61
 73
   71
  0
VERTEX
  8
bark
 10
0.0
 20
0.0
 30
0.0
 70
   128
 71
   71
 72
   72
 73
   82
  0
VERTEX
  8
bark
 10
0.0
 20
0.0
 30
0.0
 70
   128
 71
   72
 72
   73
 73
   83
  0
VERTEX
  8
bark
 10
0.0
 20
0.0
 30
0.0
 70
   128
 71
   73
 72
   74
 73
   84
  0
VERTEX
  8
bark
 10
0.0
 20
0.0
 30
0.0
 70
   128
 71
   74
 72
   75
 73
   85
  0
VERTEX
  8
bark
 10
0.0
 20
0.0
 30
0.0
 70
   128
 71
   75
 72
   76
 73
   86
  0
VERTEX
  8
bark
 10
0.0
 20
0.0
 30
0.0
 70
   128
 71
   76
 72
   77
 73
   87
  0
VERTEX
  8
bark
 10
0.0
 20
0.0
 30
0.0
 70
   128
 71
   77
 72
   78
 73
   88
  0
VERTEX
  8
bark
 10
0.0
 20
0.0
 30
0.0
 70
   128
 71
   78
 72
   79
 73
   89
  0
VERTEX
  8
bark
 10
0.0
 20
0.0
 30
0.0
 70
   128
 71
   79
 72
   80
 73
   90
  0
VERTEX
  8
bark
 10
0.0
 20
0.0
 30
0.0
 70
   128
 71
   80
 72
   71
 73
   81
  0
VERTEX
  8
bark
 10
0.0
 20
0.0
 30
0.0
 70
   128
 71
   81
 72
   82
 73
   92
  0
VERTEX
  8
bark
 10
0.0
 20
0.0
 30
0.0
 70
   128
 71
   82
 72
   83
 73
   92
  0
VERTEX
  8
bark
 10
0.0
 20
0.0
 30
0.0
 70
   128
 71
   83
 72
   84
 73
   94
  0
VERTEX
  8
bark
 10
0.0
 20
0.0
 30
0.0
 70
   128
 71
   84
 72
   85
 73
   95
  0
VERTEX
  8
bark
 10
0.0
 20
0.0
 30
0.0
 70
   128
 71
   85
 72
   86
 73
   96
  0
VERTEX
  8
bark
 10
0.0
 20
0.0
 30
0.0
 70
   128
 71
   86
 72
   87
 73
   97
  0
VERTEX
  8
bark
 10
0.0
 20
0.0
 30
0.0
 70
   128
 71
   87
 72
   88
 73
   98
  0
VERTEX
  8
bark
 10
0.0
 20
0.0
 30
0.0
 70
   128
 71
   88
 72
   89
 73
   99
  0
VERTEX
  8
bark
 10
0.0
 20
0.0
 30
0.0
 70
   128
 71
   89
 72
   90
 73
   100
  0
VERTEX
  8
bark
 10
0.0
 20
0.0
 30
0.0
 70
   128
 71
   90
 72
   81
 73
   91
  0
VERTEX
  8
bark
 10
0.0
 20
0.0
 30
0.0
 70
   128
 71
   91
 72
   92
 73
   102
  0
VERTEX
  8
bark
 10
0.0
 20
0.0
 30
0.0
 70
   128
 71
   92
 72
   93
 73
   103
  0
VERTEX
  8
bark
 10
0.0
 20
0.0
 30
0.0
 70
   128
 71
   93
 72
   94
 73
   104
  0
VERTEX
  8
bark
 10
0.0
 20
0.0
 30
0.0
 70
   128
 71
   94
 72
   95
 73
   105
  0
VERTEX
  8
bark
 10
0.0
 20
0.0
 30
0.0
 70
   128
 71
   95
 72
   96
 73
   106
  0
VERTEX
  8
bark
 10
0.0
 20
0.0
 30
0.0
 70
   128
 71
   96
 72
   97
 73
   107
  0
VERTEX
  8
bark
 10
0.0
 20
0.0
 30
0.0
 70
   128
 71
   97
 72
   98
 73
   108
  0
VERTEX
  8
bark
 10
0.0
 20
0.0
 30
0.0
 70
   128
 71
   98
 72
   99
 73
   109
  0
VERTEX
  8
bark
 10
0.0
 20
0.0
 30
0.0
 70
   128
 71
   99
 72
   100
 73
   110
  0
VERTEX
  8
bark
 10
0.0
 20
0.0
 30
0.0
 70
   128
 71
   100
 72
   91
 73
   101
  0
VERTEX
  8
bark
 10
0.0
 20
0.0
 30
0.0
 70
   128
 71
   101
 72
   102
 73
   112
  0
VERTEX
  8
bark
 10
0.0
 20
0.0
 30
0.0
 70
   128
 71
   102
 72
   103
 73
   113
  0
VERTEX
  8
bark
 10
0.0
 20
0.0
 30
0.0
 70
   128
 71
   103
 72
   104
 73
   114
  0
VERTEX
  8
bark
 10
0.0
 20
0.0
 30
0.0
 70
   128
 71
   104
 72
   105
 73
   115
  0
VERTEX
  8
bark
 10
0.0
 20
0.0
 30
0.0
 70
   128
 71
   105
 72
   106
 73
   116
  0
VERTEX
  8
bark
 10
0.0
 20
0.0
 30
0.0
 70
   128
 71
   106
 72
   107
 73
   117
  0
VERTEX
  8
bark
 10
0.0
 20
0.0
 30
0.0
 70
   128
 71
   107
 72
   108
 73
   117
  0
VERTEX
  8
bark
 10
0.0
 20
0.0
 30
0.0
 70
   128
 71
   108
 72
   109
 73
   119
  0
VERTEX
  8
bark
 10
0.0
 20
0.0
 30
0.0
 70
   128
 71
   109
 72
   110
 73
   120
  0
VERTEX
  8
bark
 10
0.0
 20
0.0
 30
0.0
 70
   128
 71
   110
 72
   101
 73
   111
  0
VERTEX
  8
bark
 10
0.0
 20
0.0
 30
0.0
 70
   128
 71
   111
 72
   112
 73
   122
  0
VERTEX
  8
bark
 10
0.0
 20
0.0
 30
0.0
 70
   128
 71
   112
 72
   113
 73
   123
  0
VERTEX
  8
bark
 10
0.0
 20
0.0
 30
0.0
 70
   128
 71
   113
 72
   114
 73
   124
  0
VERTEX
  8
bark
 10
0.0
 20
0.0
 30
0.0
 70
   128
 71
   114
 72
   115
 73
   125
  0
VERTEX
  8
bark
 10
0.0
 20
0.0
 30
0.0
 70
   128
 71
   115
 72
   116
 73
   126
  0
VERTEX
  8
bark
 10
0.0
 20
0.0
 30
0.0
 70
   128
 71
   116
 72
   117
 73
   127
  0
VERTEX
  8
bark
 10
0.0
 20
0.0
 30
0.0
 70
   128
 71
   117
 72
   118
 73
   128
  0
VERTEX
  8
bark
 10
0.0
 20
0.0
 30
0.0
 70
   128
 71
   118
 72
   119
 73
   128
  0
VERTEX
  8
bark
 10
0.0
 20
0.0
 30
0.0
 70
   128
 71
   119
 72
   120
 73
   130
  0
VERTEX
  8
bark
 10
0.0
 20
0.0
 30
0.0
 70
   128
 71
   120
 72
   111
 73
   121
  0
VERTEX
  8
bark
 10
0.0
 20
0.0
 30
0.0
 70
   128
 71
   121
 72
   122
 73
   132
  0
VERTEX
  8
bark
 10
0.0
 20
0.0
 30
0.0
 70
   128
 71
   122
 72
   123
 73
   133
  0
VERTEX
  8
bark
 10
0.0
 20
0.0
 30
0.0
 70
   128
 71
   123
 72
   124
 73
   134
  0
VERTEX
  8
bark
 10
0.0
 20
0.0
 30
0.0
 70
   128
 71
   124
 72
   125
 73
   135
  0
VERTEX
  8
bark
 10
0.0
 20
0.0
 30
0.0
 70
   128
 71
   125
 72
   126
 73
   136
  0
VERTEX
  8
bark
 10
0.0
 20
0.0
 30
0.0
 70
   128
 71
   126
 72
   127
 73
   137
  0
VERTEX
  8
bark
 10
0.0
 20
0.0
 30
0.0
 70
   128
 71
   127
 72
   128
 73
   138
  0
VERTEX
  8
bark
 10
0.0
 20
0.0
 30
0.0
 70
   128
 71
   128
 72
   129
 73
   139
  0
VERTEX
  8
bark
 10
0.0
 20
0.0
 30
0.0
 70
   128
 71
   129
 72
   130
 73
   139
  0
VERTEX
  8
bark
 10
0.0
 20
0.0
 30
0.0
 70
   128
 71
   130
 72
   121
 73
   131
  0
VERTEX
  8
bark
 10
0.0
 20
0.0
 30
0.0
 70
   128
 71
   131
 72
   132
 73
   142
  0
VERTEX
  8
bark
 10
0.0
 20
0.0
 30
0.0
 70
   128
 71
   132
 72
   133
 73
   143
  0
VERTEX
  8
bark
 10
0.0
 20
0.0
 30
0.0
 70
   128
 71
   133
 72
   134
 73
   144
  0
VERTEX
  8
bark
 10
0.0
 20
0.0
 30
0.0
 70
   128
 71
   134
 72
   135
 73
   145
  0
VERTEX
  8
bark
 10
0.0
 20
0.0
 30
0.0
 70
   128
 71
   135
 72
   136
 73
   146
  0
VERTEX
  8
bark
 10
0.0
 20
0.0
 30
0.0
 70
   128
 71
   136
 72
   137
 73
   147
  0
VERTEX
  8
bark
 10
0.0
 20
0.0
 30
0.0
 70
   128
 71
   137
 72
   138
 73
   148
  0
VERTEX
  8
bark
 10
0.0
 20
0.0
 30
0.0
 70
   128
 71
   138
 72
   139
 73
   149
  0
VERTEX
  8
bark
 10
0.0
 20
0.0
 30
0.0
 70
   128
 71
   139
 72
   140
 73
   150
  0
VERTEX
  8
bark
 10
0.0
 20
0.0
 30
0.0
 70
   128
 71
   140
 72
   131
 73
   141
  0
VERTEX
  8
bark
 10
0.0
 20
0.0
 30
0.0
 70
   128
 71
   141
 72
   142
 73
   152
  0
VERTEX
  8
bark
 10
0.0
 20
0.0
 30
0.0
 70
   128
 71
   142
 72
   143
 73
   153
  0
VERTEX
  8
bark
 10
0.0
 20
0.0
 30
0.0
 70
   128
 71
   143
 72
   144
 73
   154
  0
VERTEX
  8
bark
 10
0.0
 20
0.0
 30
0.0
 70
   128
 71
   144
 72
   145
 73
   155
  0
VERTEX
  8
bark
 10
0.0
 20
0.0
 30
0.0
 70
   128
 71
   145
 72
   146
 73
   156
  0
VERTEX
  8
bark
 10
0.0
 20
0.0
 30
0.0
 70
   128
 71
   146
 72
   147
 73
   157
  0
VERTEX
  8
bark
 10
0.0
 20
0.0
 30
0.0
 70
   128
 71
   147
 72
   148
 73
   158
  0
VERTEX
  8
bark
 10
0.0
 20
0.0
 30
0.0
 70
   128
 71
   148
 72
   149
 73
   159
  0
VERTEX
  8
bark
 10
0.0
 20
0.0
 30
0.0
 70
   128
 71
   149
 72
   150
 73
   160
  0
VERTEX
  8
bark
 10
0.0
 20
0.0
 30
0.0
 70
   128
 71
   150
 72
   141
 73
   151
  0
VERTEX
  8
bark
 10
0.0
 20
0.0
 30
0.0
 70
   128
 71
   151
 72
   152
 73
   162
  0
VERTEX
  8
bark
 10
0.0
 20
0.0
 30
0.0
 70
   128
 71
   152
 72
   153
 73
   163
  0
VERTEX
  8
bark
 10
0.0
 20
0.0
 30
0.0
 70
   128
 71
   153
 72
   154
 73
   164
  0
VERTEX
  8
bark
 10
0.0
 20
0.0
 30
0.0
 70
   128
 71
   154
 72
   155
 73
   165
  0
VERTEX
  8
bark
 10
0.0
 20
0.0
 30
0.0
 70
   128
 71
   155
 72
   156
 73
   166
  0
VERTEX
  8
bark
 10
0.0
 20
0.0
 30
0.0
 70
   128
 71
   156
 72
   157
 73
   167
  0
VERTEX
  8
bark
 10
0.0
 20
0.0
 30
0.0
 70
   128
 71
   157
 72
   158
 73
   168
  0
VERTEX
  8
bark
 10
0.0
 20
0.0
 30
0.0
 70
   128
 71
   158
 72
   159
 73
   169
  0
VERTEX
  8
bark
 10
0.0
 20
0.0
 30
0.0
 70
   128
 71
   159
 72
   160
 73
   170
  0
VERTEX
  8
bark
 10
0.0
 20
0.0
 30
0.0
 70
   128
 71
   160
 72
   151
 73
   161
  0
VERTEX
  8
bark
 10
0.0
 20
0.0
 30
0.0
 70
   128
 71
   161
 72
   162
 73
   171
  0
VERTEX
  8
bark
 10
0.0
 20
0.0
 30
0.0
 70
   128
 71
   162
 72
   163
 73
   173
  0
VERTEX
  8
bark
 10
0.0
 20
0.0
 30
0.0
 70
   128
 71
   163
 72
   164
 73
   173
  0
VERTEX
  8
bark
 10
0.0
 20
0.0
 30
0.0
 70
   128
 71
   164
 72
   165
 73
   175
  0
VERTEX
  8
bark
 10
0.0
 20
0.0
 30
0.0
 70
   128
 71
   165
 72
   166
 73
   176
  0
VERTEX
  8
bark
 10
0.0
 20
0.0
 30
0.0
 70
   128
 71
   166
 72
   167
 73
   177
  0
VERTEX
  8
bark
 10
0.0
 20
0.0
 30
0.0
 70
   128
 71
   167
 72
   168
 73
   178
  0
VERTEX
  8
bark
 10
0.0
 20
0.0
 30
0.0
 70
   128
 71
   168
 72
   169
 73
   179
  0
VERTEX
  8
bark
 10
0.0
 20
0.0
 30
0.0
 70
   128
 71
   169
 72
   170
 73
   180
  0
VERTEX
  8
bark
 10
0.0
 20
0.0
 30
0.0
 70
   128
 71
   170
 72
   161
 73
   171
  0
VERTEX
  8
bark
 10
0.0
 20
0.0
 30
0.0
 70
   128
 71
   171
 72
   172
 73
   181
  0
VERTEX
  8
bark
 10
0.0
 20
0.0
 30
0.0
 70
   128
 71
   172
 72
   173
 73
   183
  0
VERTEX
  8
bark
 10
0.0
 20
0.0
 30
0.0
 70
   128
 71
   173
 72
   174
 73
   183
  0
VERTEX
  8
bark
 10
0.0
 20
0.0
 30
0.0
 70
   128
 71
   174
 72
   175
 73
   185
  0
VERTEX
  8
bark
 10
0.0
 20
0.0
 30
0.0
 70
   128
 71
   175
 72
   176
 73
   186
  0
VERTEX
  8
bark
 10
0.0
 20
0.0
 30
0.0
 70
   128
 71
   176
 72
   177
 73
   187
  0
VERTEX
  8
bark
 10
0.0
 20
0.0
 30
0.0
 70
   128
 71
   177
 72
   178
 73
   188
  0
VERTEX
  8
bark
 10
0.0
 20
0.0
 30
0.0
 70
   128
 71
   178
 72
   179
 73
   189
  0
VERTEX
  8
bark
 10
0.0
 20
0.0
 30
0.0
 70
   128
 71
   179
 72
   180
 73
   190
  0
VERTEX
  8
bark
 10
0.0
 20
0.0
 30
0.0
 70
   128
 71
   180
 72
   171
 73
   181
  0
VERTEX
  8
bark
 10
0.0
 20
0.0
 30
0.0
 70
   128
 71
   191
 72
   192
 73
   202
  0
VERTEX
  8
bark
 10
0.0
 20
0.0
 30
0.0
 70
   128
 71
   192
 72
   193
 73
   203
  0
VERTEX
  8
bark
 10
0.0
 20
0.0
 30
0.0
 70
   128
 71
   193
 72
   194
 73
   204
  0
VERTEX
  8
bark
 10
0.0
 20
0.0
 30
0.0
 70
   128
 71
   194
 72
   195
 73
   205
  0
VERTEX
  8
bark
 10
0.0
 20
0.0
 30
0.0
 70
   128
 71
   195
 72
   196
 73
   206
  0
VERTEX
  8
bark
 10
0.0
 20
0.0
 30
0.0
 70
   128
 71
   196
 72
   197
 73
   207
  0
VERTEX
  8
bark
 10
0.0
 20
0.0
 30
0.0
 70
   128
 71
   197
 72
   198
 73
   208
  0
VERTEX
  8
bark
 10
0.0
 20
0.0
 30
0.0
 70
   128
 71
   198
 72
   199
 73
   209
  0
VERTEX
  8
bark
 10
0.0
 20
0.0
 30
0.0
 70
   128
 71
   199
 72
   200
 73
   210
  0
VERTEX
  8
bark
 10
0.0
 20
0.0
 30
0.0
 70
   128
 71
   200
 72
   191
 73
   201
  0
VERTEX
  8
bark
 10
0.0
 20
0.0
 30
0.0
 70
   128
 71
   201
 72
   202
 73
   212
  0
VERTEX
  8
bark
 10
0.0
 20
0.0
 30
0.0
 70
   128
 71
   202
 72
   203
 73
   213
  0
VERTEX
  8
bark
 10
0.0
 20
0.0
 30
0.0
 70
   128
 71
   203
 72
   204
 73
   214
  0
VERTEX
  8
bark
 10
0.0
 20
0.0
 30
0.0
 70
   128
 71
   204
 72
   205
 73
   215
  0
VERTEX
  8
bark
 10
0.0
 20
0.0
 30
0.0
 70
   128
 71
   205
 72
   206
 73
   216
  0
VERTEX
  8
bark
 10
0.0
 20
0.0
 30
0.0
 70
   128
 71
   206
 72
   207
 73
   217
  0
VERTEX
  8
bark
 10
0.0
 20
0.0
 30
0.0
 70
   128
 71
   207
 72
   208
 73
   218
  0
VERTEX
  8
bark
 10
0.0
 20
0.0
 30
0.0
 70
   128
 71
   208
 72
   209
 73
   219
  0
VERTEX
  8
bark
 10
0.0
 20
0.0
 30
0.0
 70
   128
 71
   209
 72
   210
 73
   220
  0
VERTEX
  8
bark
 10
0.0
 20
0.0
 30
0.0
 70
   128
 71
   210
 72
   201
 73
   211
  0
VERTEX
  8
bark
 10
0.0
 20
0.0
 30
0.0
 70
   128
 71
   211
 72
   212
 73
   222
  0
VERTEX
  8
bark
 10
0.0
 20
0.0
 30
0.0
 70
   128
 71
   212
 72
   213
 73
   223
  0
VERTEX
  8
bark
 10
0.0
 20
0.0
 30
0.0
 70
   128
 71
   213
 72
   214
 73
   224
  0
VERTEX
  8
bark
 10
0.0
 20
0.0
 30
0.0
 70
   128
 71
   214
 72
   215
 73
   225
  0
VERTEX
  8
bark
 10
0.0
 20
0.0
 30
0.0
 70
   128
 71
   215
 72
   216
 73
   226
  0
VERTEX
  8
bark
 10
0.0
 20
0.0
 30
0.0
 70
   128
 71
   216
 72
   217
 73
   227
  0
VERTEX
  8
bark
 10
0.0
 20
0.0
 30
0.0
 70
   128
 71
   217
 72
   218
 73
   228
  0
VERTEX
  8
bark
 10
0.0
 20
0.0
 30
0.0
 70
   128
 71
   218
 72
   219
 73
   229
  0
VERTEX
  8
bark
 10
0.0
 20
0.0
 30
0.0
 70
   128
 71
   219
 72
   220
 73
   230
  0
VERTEX
  8
bark
 10
0.0
 20
0.0
 30
0.0
 70
   128
 71
   220
 72
   211
 73
   221
  0
VERTEX
  8
bark
 10
0.0
 20
0.0
 30
0.0
 70
   128
 71
   221
 72
   222
 73
   232
  0
VERTEX
  8
bark
 10
0.0
 20
0.0
 30
0.0
 70
   128
 71
   222
 72
   223
 73
   233
  0
VERTEX
  8
bark
 10
0.0
 20
0.0
 30
0.0
 70
   128
 71
   223
 72
   224
 73
   234
  0
VERTEX
  8
bark
 10
0.0
 20
0.0
 30
0.0
 70
   128
 71
   224
 72
   225
 73
   235
  0
VERTEX
  8
bark
 10
0.0
 20
0.0
 30
0.0
 70
   128
 71
   225
 72
   226
 73
   236
  0
VERTEX
  8
bark
 10
0.0
 20
0.0
 30
0.0
 70
   128
 71
   226
 72
   227
 73
   237
  0
VERTEX
  8
bark
 10
0.0
 20
0.0
 30
0.0
 70
   128
 71
   227
 72
   228
 73
   238
  0
VERTEX
  8
bark
 10
0.0
 20
0.0
 30
0.0
 70
   128
 71
   228
 72
   229
 73
   239
  0
VERTEX
  8
bark
 10
0.0
 20
0.0
 30
0.0
 70
   128
 71
   229
 72
   230
 73
   240
  0
VERTEX
  8
bark
 10
0.0
 20
0.0
 30
0.0
 70
   128
 71
   230
 72
   221
 73
   231
  0
VERTEX
  8
bark
 10
0.0
 20
0.0
 30
0.0
 70
   128
 71
   1
 72
   12
 73
   11
  0
VERTEX
  8
bark
 10
0.0
 20
0.0
 30
0.0
 70
   128
 71
   2
 72
   13
 73
   12
  0
VERTEX
  8
bark
 10
0.0
 20
0.0
 30
0.0
 70
   128
 71
   3
 72
   14
 73
   13
  0
VERTEX
  8
bark
 10
0.0
 20
0.0
 30
0.0
 70
   128
 71
   4
 72
   15
 73
   14
  0
VERTEX
  8
bark
 10
0.0
 20
0.0
 30
0.0
 70
   128
 71
   5
 72
   16
 73
   15
  0
VERTEX
  8
bark
 10
0.0
 20
0.0
 30
0.0
 70
   128
 71
   6
 72
   17
 73
   16
  0
VERTEX
  8
bark
 10
0.0
 20
0.0
 30
0.0
 70
   128
 71
   7
 72
   18
 73
   17
  0
VERTEX
  8
bark
 10
0.0
 20
0.0
 30
0.0
 70
   128
 71
   8
 72
   19
 73
   18
  0
VERTEX
  8
bark
 10
0.0
 20
0.0
 30
0.0
 70
   128
 71
   9
 72
   20
 73
   19
  0
VERTEX
  8
bark
 10
0.0
 20
0.0
 30
0.0
 70
   128
 71
   10
 72
   11
 73
   20
  0
VERTEX
  8
bark
 10
0.0
 20
0.0
 30
0.0
 70
   128
 71
   11
 72
   22
 73
   21
  0
VERTEX
  8
bark
 10
0.0
 20
0.0
 30
0.0
 70
   128
 71
   12
 72
   23
 73
   22
  0
VERTEX
  8
bark
 10
0.0
 20
0.0
 30
0.0
 70
   128
 71
   13
 72
   24
 73
   23
  0
VERTEX
  8
bark
 10
0.0
 20
0.0
 30
0.0
 70
   128
 71
   14
 72
   25
 73
   24
  0
VERTEX
  8
bark
 10
0.0
 20
0.0
 30
0.0
 70
   128
 71
   15
 72
   26
 73
   25
  0
VERTEX
  8
bark
 10
0.0
 20
0.0
 30
0.0
 70
   128
 71
   16
 72
   27
 73
   26
  0
VERTEX
  8
bark
 10
0.0
 20
0.0
 30
0.0
 70
   128
 71
   17
 72
   28
 73
   27
  0
VERTEX
  8
bark
 10
0.0
 20
0.0
 30
0.0
 70
   128
 71
   18
 72
   29
 73
   28
  0
VERTEX
  8
bark
 10
0.0
 20
0.0
 30
0.0
 70
   128
 71
   19
 72
   30
 73
   29
  0
VERTEX
  8
bark
 10
0.0
 20
0.0
 30
0.0
 70
   128
 71
   20
 72
   21
 73
   30
  0
VERTEX
  8
bark
 10
0.0
 20
0.0
 30
0.0
 70
   128
 71
   21
 72
   32
 73
   31
  0
VERTEX
  8
bark
 10
0.0
 20
0.0
 30
0.0
 70
   128
 71
   22
 72
   33
 73
   32
  0
VERTEX
  8
bark
 10
0.0
 20
0.0
 30
0.0
 70
   128
 71
   23
 72
   34
 73
   33
  0
VERTEX
  8
bark
 10
0.0
 20
0.0
 30
0.0
 70
   128
 71
   24
 72
   35
 73
   34
  0
VERTEX
  8
bark
 10
0.0
 20
0.0
 30
0.0
 70
   128
 71
   25
 72
   36
 73
   35
  0
VERTEX
  8
bark
 10
0.0
 20
0.0
 30
0.0
 70
   128
 71
   26
 72
   37
 73
   36
  0
VERTEX
  8
bark
 10
0.0
 20
0.0
 30
0.0
 70
   128
 71
   27
 72
   38
 73
   37
  0
VERTEX
  8
bark
 10
0.0
 20
0.0
 30
0.0
 70
   128
 71
   28
 72
   39
 73
   38
  0
VERTEX
  8
bark
 10
0.0
 20
0.0
 30
0.0
 70
   128
 71
   29
 72
   40
 73
   39
  0
VERTEX
  8
bark
 10
0.0
 20
0.0
 30
0.0
 70
   128
 71
   30
 72
   31
 73
   40
  0
VERTEX
  8
bark
 10
0.0
 20
0.0
 30
0.0
 70
   128
 71
   41
 72
   52
 73
   51
  0
VERTEX
  8
bark
 10
0.0
 20
0.0
 30
0.0
 70
   128
 71
   42
 72
   53
 73
   52
  0
VERTEX
  8
bark
 10
0.0
 20
0.0
 30
0.0
 70
   128
 71
   43
 72
   54
 73
   53
  0
VERTEX
  8
bark
 10
0.0
 20
0.0
 30
0.0
 70
   128
 71
   44
 72
   55
 73
   54
  0
VERTEX
  8
bark
 10
0.0
 20
0.0
 30
0.0
 70
   128
 71
   45
 72
   56
 73
   55
  0
VERTEX
  8
bark
 10
0.0
 20
0.0
 30
0.0
 70
   128
 71
   46
 72
   57
 73
   56
  0
VERTEX
  8
bark
 10
0.0
 20
0.0
 30
0.0
 70
   128
 71
   47
 72
   58
 73
   57
  0
VERTEX
  8
bark
 10
0.0
 20
0.0
 30
0.0
 70
   128
 71
   48
 72
   59
 73
   58
  0
VERTEX
  8
bark
 10
0.0
 20
0.0
 30
0.0
 70
   128
 71
   49
 72
   60
 73
   59
  0
VERTEX
  8
bark
 10
0.0
 20
0.0
 30
0.0
 70
   128
 71
   50
 72
   51
 73
   60
  0
VERTEX
  8
bark
 10
0.0
 20
0.0
 30
0.0
 70
   128
 71
   51
 72
   62
 73
   61
  0
VERTEX
  8
bark
 10
0.0
 20
0.0
 30
0.0
 70
   128
 71
   52
 72
   63
 73
   62
  0
VERTEX
  8
bark
 10
0.0
 20
0.0
 30
0.0
 70
   128
 71
   53
 72
   64
 73
   63
  0
VERTEX
  8
bark
 10
0.0
 20
0.0
 30
0.0
 70
   128
 71
   55
 72
   65
 73
   64
  0
VERTEX
  8
bark
 10
0.0
 20
0.0
 30
0.0
 70
   128
 71
   55
 72
   66
 73
   65
  0
VERTEX
  8
bark
 10
0.0
 20
0.0
 30
0.0
 70
   128
 71
   56
 72
   67
 73
   66
  0
VERTEX
  8
bark
 10
0.0
 20
0.0
 30
0.0
 70
   128
 71
   57
 72
   68
 73
   67
  0
VERTEX
  8
bark
 10
0.0
 20
0.0
 30
0.0
 70
   128
 71
   58
 72
   69
 73
   68
  0
VERTEX
  8
bark
 10
0.0
 20
0.0
 30
0.0
 70
   128
 71
   59
 72
   70
 73
   69
  0
VERTEX
  8
bark
 10
0.0
 20
0.0
 30
0.0
 70
   128
 71
   60
 72
   61
 73
   70
  0
VERTEX
  8
bark
 10
0.0
 20
0.0
 30
0.0
 70
   128
 71
   61
 72
   72
 73
   71
  0
VERTEX
  8
bark
 10
0.0
 20
0.0
 30
0.0
 70
   128
 71
   62
 72
   73
 73
   72
  0
VERTEX
  8
bark
 10
0.0
 20
0.0
 30
0.0
 70
   128
 71
   64
 72
   74
 73
   73
  0
VERTEX
  8
bark
 10
0.0
 20
0.0
 30
0.0
 70
   128
 71
   64
 72
   75
 73
   74
  0
VERTEX
  8
bark
 10
0.0
 20
0.0
 30
0.0
 70
   128
 71
   65
 72
   76
 73
   75
  0
VERTEX
  8
bark
 10
0.0
 20
0.0
 30
0.0
 70
   128
 71
   66
 72
   77
 73
   76
  0
VERTEX
  8
bark
 10
0.0
 20
0.0
 30
0.0
 70
   128
 71
   67
 72
   78
 73
   77
  0
VERTEX
  8
bark
 10
0.0
 20
0.0
 30
0.0
 70
   128
 71
   68
 72
   79
 73
   78
  0
VERTEX
  8
bark
 10
0.0
 20
0.0
 30
0.0
 70
   128
 71
   69
 72
   80
 73
   79
  0
VERTEX
  8
bark
 10
0.0
 20
0.0
 30
0.0
 70
   128
 71
   70
 72
   71
 73
   80
  0
VERTEX
  8
bark
 10
0.0
 20
0.0
 30
0.0
 70
   128
 71
   71
 72
   82
 73
   81
  0
VERTEX
  8
bark
 10
0.0
 20
0.0
 30
0.0
 70
   128
 71
   72
 72
   83
 73
   82
  0
VERTEX
  8
bark
 10
0.0
 20
0.0
 30
0.0
 70
   128
 71
   73
 72
   84
 73
   83
  0
VERTEX
  8
bark
 10
0.0
 20
0.0
 30
0.0
 70
   128
 71
   74
 72
   85
 73
   84
  0
VERTEX
  8
bark
 10
0.0
 20
0.0
 30
0.0
 70
   128
 71
   75
 72
   86
 73
   85
  0
VERTEX
  8
bark
 10
0.0
 20
0.0
 30
0.0
 70
   128
 71
   76
 72
   87
 73
   86
  0
VERTEX
  8
bark
 10
0.0
 20
0.0
 30
0.0
 70
   128
 71
   77
 72
   88
 73
   87
  0
VERTEX
  8
bark
 10
0.0
 20
0.0
 30
0.0
 70
   128
 71
   78
 72
   89
 73
   88
  0
VERTEX
  8
bark
 10
0.0
 20
0.0
 30
0.0
 70
   128
 71
   79
 72
   90
 73
   89
  0
VERTEX
  8
bark
 10
0.0
 20
0.0
 30
0.0
 70
   128
 71
   80
 72
   81
 73
   90
  0
VERTEX
  8
bark
 10
0.0
 20
0.0
 30
0.0
 70
   128
 71
   81
 72
   92
 73
   91
  0
VERTEX
  8
bark
 10
0.0
 20
0.0
 30
0.0
 70
   128
 71
   83
 72
   93
 73
   92
  0
VERTEX
  8
bark
 10
0.0
 20
0.0
 30
0.0
 70
   128
 71
   83
 72
   94
 73
   93
  0
VERTEX
  8
bark
 10
0.0
 20
0.0
 30
0.0
 70
   128
 71
   84
 72
   95
 73
   94
  0
VERTEX
  8
bark
 10
0.0
 20
0.0
 30
0.0
 70
   128
 71
   85
 72
   96
 73
   95
  0
VERTEX
  8
bark
 10
0.0
 20
0.0
 30
0.0
 70
   128
 71
   86
 72
   97
 73
   96
  0
VERTEX
  8
bark
 10
0.0
 20
0.0
 30
0.0
 70
   128
 71
   87
 72
   98
 73
   97
  0
VERTEX
  8
bark
 10
0.0
 20
0.0
 30
0.0
 70
   128
 71
   88
 72
   99
 73
   98
  0
VERTEX
  8
bark
 10
0.0
 20
0.0
 30
0.0
 70
   128
 71
   89
 72
   100
 73
   99
  0
VERTEX
  8
bark
 10
0.0
 20
0.0
 30
0.0
 70
   128
 71
   90
 72
   91
 73
   100
  0
VERTEX
  8
bark
 10
0.0
 20
0.0
 30
0.0
 70
   128
 71
   91
 72
   102
 73
   101
  0
VERTEX
  8
bark
 10
0.0
 20
0.0
 30
0.0
 70
   128
 71
   92
 72
   103
 73
   102
  0
VERTEX
  8
bark
 10
0.0
 20
0.0
 30
0.0
 70
   128
 71
   93
 72
   104
 73
   103
  0
VERTEX
  8
bark
 10
0.0
 20
0.0
 30
0.0
 70
   128
 71
   94
 72
   105
 73
   104
  0
VERTEX
  8
bark
 10
0.0
 20
0.0
 30
0.0
 70
   128
 71
   95
 72
   106
 73
   105
  0
VERTEX
  8
bark
 10
0.0
 20
0.0
 30
0.0
 70
   128
 71
   96
 72
   107
 73
   106
  0
VERTEX
  8
bark
 10
0.0
 20
0.0
 30
0.0
 70
   128
 71
   97
 72
   108
 73
   107
  0
VERTEX
  8
bark
 10
0.0
 20
0.0
 30
0.0
 70
   128
 71
   98
 72
   109
 73
   108
  0
VERTEX
  8
bark
 10
0.0
 20
0.0
 30
0.0
 70
   128
 71
   99
 72
   110
 73
   109
  0
VERTEX
  8
bark
 10
0.0
 20
0.0
 30
0.0
 70
   128
 71
   100
 72
   101
 73
   110
  0
VERTEX
  8
bark
 10
0.0
 20
0.0
 30
0.0
 70
   128
 71
   101
 72
   112
 73
   111
  0
VERTEX
  8
bark
 10
0.0
 20
0.0
 30
0.0
 70
   128
 71
   102
 72
   113
 73
   112
  0
VERTEX
  8
bark
 10
0.0
 20
0.0
 30
0.0
 70
   128
 71
   103
 72
   114
 73
   113
  0
VERTEX
  8
bark
 10
0.0
 20
0.0
 30
0.0
 70
   128
 71
   104
 72
   115
 73
   114
  0
VERTEX
  8
bark
 10
0.0
 20
0.0
 30
0.0
 70
   128
 71
   105
 72
   116
 73
   115
  0
VERTEX
  8
bark
 10
0.0
 20
0.0
 30
0.0
 70
   128
 71
   106
 72
   117
 73
   116
  0
VERTEX
  8
bark
 10
0.0
 20
0.0
 30
0.0
 70
   128
 71
   108
 72
   118
 73
   117
  0
VERTEX
  8
bark
 10
0.0
 20
0.0
 30
0.0
 70
   128
 71
   108
 72
   119
 73
   118
  0
VERTEX
  8
bark
 10
0.0
 20
0.0
 30
0.0
 70
   128
 71
   109
 72
   120
 73
   119
  0
VERTEX
  8
bark
 10
0.0
 20
0.0
 30
0.0
 70
   128
 71
   110
 72
   111
 73
   120
  0
VERTEX
  8
bark
 10
0.0
 20
0.0
 30
0.0
 70
   128
 71
   111
 72
   122
 73
   121
  0
VERTEX
  8
bark
 10
0.0
 20
0.0
 30
0.0
 70
   128
 71
   112
 72
   123
 73
   122
  0
VERTEX
  8
bark
 10
0.0
 20
0.0
 30
0.0
 70
   128
 71
   113
 72
   124
 73
   123
  0
VERTEX
  8
bark
 10
0.0
 20
0.0
 30
0.0
 70
   128
 71
   114
 72
   125
 73
   124
  0
VERTEX
  8
bark
 10
0.0
 20
0.0
 30
0.0
 70
   128
 71
   115
 72
   126
 73
   125
  0
VERTEX
  8
bark
 10
0.0
 20
0.0
 30
0.0
 70
   128
 71
   116
 72
   127
 73
   126
  0
VERTEX
  8
bark
 10
0.0
 20
0.0
 30
0.0
 70
   128
 71
   117
 72
   128
 73
   127
  0
VERTEX
  8
bark
 10
0.0
 20
0.0
 30
0.0
 70
   128
 71
   119
 72
   129
 73
   128
  0
VERTEX
  8
bark
 10
0.0
 20
0.0
 30
0.0
 70
   128
 71
   119
 72
   130
 73
   129
  0
VERTEX
  8
bark
 10
0.0
 20
0.0
 30
0.0
 70
   128
 71
   120
 72
   121
 73
   130
  0
VERTEX
  8
bark
 10
0.0
 20
0.0
 30
0.0
 70
   128
 71
   121
 72
   132
 73
   131
  0
VERTEX
  8
bark
 10
0.0
 20
0.0
 30
0.0
 70
   128
 71
   122
 72
   133
 73
   132
  0
VERTEX
  8
bark
 10
0.0
 20
0.0
 30
0.0
 70
   128
 71
   123
 72
   134
 73
   133
  0
VERTEX
  8
bark
 10
0.0
 20
0.0
 30
0.0
 70
   128
 71
   124
 72
   135
 73
   134
  0
VERTEX
  8
bark
 10
0.0
 20
0.0
 30
0.0
 70
   128
 71
   125
 72
   136
 73
   135
  0
VERTEX
  8
bark
 10
0.0
 20
0.0
 30
0.0
 70
   128
 71
   126
 72
   137
 73
   136
  0
VERTEX
  8
bark
 10
0.0
 20
0.0
 30
0.0
 70
   128
 71
   127
 72
   138
 73
   137
  0
VERTEX
  8
bark
 10
0.0
 20
0.0
 30
0.0
 70
   128
 71
   128
 72
   139
 73
   138
  0
VERTEX
  8
bark
 10
0.0
 20
0.0
 30
0.0
 70
   128
 71
   130
 72
   140
 73
   139
  0
VERTEX
  8
bark
 10
0.0
 20
0.0
 30
0.0
 70
   128
 71
   130
 72
   131
 73
   140
  0
VERTEX
  8
bark
 10
0.0
 20
0.0
 30
0.0
 70
   128
 71
   131
 72
   142
 73
   141
  0
VERTEX
  8
bark
 10
0.0
 20
0.0
 30
0.0
 70
   128
 71
   132
 72
   143
 73
   142
  0
VERTEX
  8
bark
 10
0.0
 20
0.0
 30
0.0
 70
   128
 71
   133
 72
   144
 73
   143
  0
VERTEX
  8
bark
 10
0.0
 20
0.0
 30
0.0
 70
   128
 71
   134
 72
   145
 73
   144
  0
VERTEX
  8
bark
 10
0.0
 20
0.0
 30
0.0
 70
   128
 71
   135
 72
   146
 73
   145
  0
VERTEX
  8
bark
 10
0.0
 20
0.0
 30
0.0
 70
   128
 71
   136
 72
   147
 73
   146
  0
VERTEX
  8
bark
 10
0.0
 20
0.0
 30
0.0
 70
   128
 71
   137
 72
   148
 73
   147
  0
VERTEX
  8
bark
 10
0.0
 20
0.0
 30
0.0
 70
   128
 71
   138
 72
   149
 73
   148
  0
VERTEX
  8
bark
 10
0.0
 20
0.0
 30
0.0
 70
   128
 71
   139
 72
   150
 73
   149
  0
VERTEX
  8
bark
 10
0.0
 20
0.0
 30
0.0
 70
   128
 71
   140
 72
   141
 73
   150
  0
VERTEX
  8
bark
 10
0.0
 20
0.0
 30
0.0
 70
   128
 71
   141
 72
   152
 73
   151
  0
VERTEX
  8
bark
 10
0.0
 20
0.0
 30
0.0
 70
   128
 71
   142
 72
   153
 73
   152
  0
VERTEX
  8
bark
 10
0.0
 20
0.0
 30
0.0
 70
   128
 71
   143
 72
   154
 73
   153
  0
VERTEX
  8
bark
 10
0.0
 20
0.0
 30
0.0
 70
   128
 71
   144
 72
   155
 73
   154
  0
VERTEX
  8
bark
 10
0.0
 20
0.0
 30
0.0
 70
   128
 71
   145
 72
   156
 73
   155
  0
VERTEX
  8
bark
 10
0.0
 20
0.0
 30
0.0
 70
   128
 71
   146
 72
   157
 73
   156
  0
VERTEX
  8
bark
 10
0.0
 20
0.0
 30
0.0
 70
   128
 71
   147
 72
   158
 73
   157
  0
VERTEX
  8
bark
 10
0.0
 20
0.0
 30
0.0
 70
   128
 71
   148
 72
   159
 73
   158
  0
VERTEX
  8
bark
 10
0.0
 20
0.0
 30
0.0
 70
   128
 71
   149
 72
   160
 73
   159
  0
VERTEX
  8
bark
 10
0.0
 20
0.0
 30
0.0
 70
   128
 71
   150
 72
   151
 73
   160
  0
VERTEX
  8
bark
 10
0.0
 20
0.0
 30
0.0
 70
   128
 71
   151
 72
   162
 73
   161
  0
VERTEX
  8
bark
 10
0.0
 20
0.0
 30
0.0
 70
   128
 71
   152
 72
   163
 73
   162
  0
VERTEX
  8
bark
 10
0.0
 20
0.0
 30
0.0
 70
   128
 71
   153
 72
   164
 73
   163
  0
VERTEX
  8
bark
 10
0.0
 20
0.0
 30
0.0
 70
   128
 71
   154
 72
   165
 73
   164
  0
VERTEX
  8
bark
 10
0.0
 20
0.0
 30
0.0
 70
   128
 71
   155
 72
   166
 73
   165
  0
VERTEX
  8
bark
 10
0.0
 20
0.0
 30
0.0
 70
   128
 71
   156
 72
   167
 73
   166
  0
VERTEX
  8
bark
 10
0.0
 20
0.0
 30
0.0
 70
   128
 71
   157
 72
   168
 73
   167
  0
VERTEX
  8
bark
 10
0.0
 20
0.0
 30
0.0
 70
   128
 71
   158
 72
   169
 73
   168
  0
VERTEX
  8
bark
 10
0.0
 20
0.0
 30
0.0
 70
   128
 71
   159
 72
   170
 73
   169
  0
VERTEX
  8
bark
 10
0.0
 20
0.0
 30
0.0
 70
   128
 71
   160
 72
   161
 73
   170
  0
VERTEX
  8
bark
 10
0.0
 20
0.0
 30
0.0
 70
   128
 71
   162
 72
   172
 73
   171
  0
VERTEX
  8
bark
 10
0.0
 20
0.0
 30
0.0
 70
   128
 71
   162
 72
   173
 73
   172
  0
VERTEX
  8
bark
 10
0.0
 20
0.0
 30
0.0
 70
   128
 71
   164
 72
   174
 73
   173
  0
VERTEX
  8
bark
 10
0.0
 20
0.0
 30
0.0
 70
   128
 71
   164
 72
   175
 73
   174
  0
VERTEX
  8
bark
 10
0.0
 20
0.0
 30
0.0
 70
   128
 71
   165
 72
   176
 73
   175
  0
VERTEX
  8
bark
 10
0.0
 20
0.0
 30
0.0
 70
   128
 71
   166
 72
   177
 73
   176
  0
VERTEX
  8
bark
 10
0.0
 20
0.0
 30
0.0
 70
   128
 71
   167
 72
   178
 73
   177
  0
VERTEX
  8
bark
 10
0.0
 20
0.0
 30
0.0
 70
   128
 71
   168
 72
   179
 73
   178
  0
VERTEX
  8
bark
 10
0.0
 20
0.0
 30
0.0
 70
   128
 71
   169
 72
   180
 73
   179
  0
VERTEX
  8
bark
 10
0.0
 20
0.0
 30
0.0
 70
   128
 71
   170
 72
   171
 73
   180
  0
VERTEX
  8
bark
 10
0.0
 20
0.0
 30
0.0
 70
   128
 71
   172
 72
   182
 73
   181
  0
VERTEX
  8
bark
 10
0.0
 20
0.0
 30
0.0
 70
   128
 71
   172
 72
   183
 73
   182
  0
VERTEX
  8
bark
 10
0.0
 20
0.0
 30
0.0
 70
   128
 71
   174
 72
   184
 73
   183
  0
VERTEX
  8
bark
 10
0.0
 20
0.0
 30
0.0
 70
   128
 71
   174
 72
   185
 73
   184
  0
VERTEX
  8
bark
 10
0.0
 20
0.0
 30
0.0
 70
   128
 71
   175
 72
   186
 73
   185
  0
VERTEX
  8
bark
 10
0.0
 20
0.0
 30
0.0
 70
   128
 71
   176
 72
   187
 73
   186
  0
VERTEX
  8
bark
 10
0.0
 20
0.0
 30
0.0
 70
   128
 71
   177
 72
   188
 73
   187
  0
VERTEX
  8
bark
 10
0.0
 20
0.0
 30
0.0
 70
   128
 71
   178
 72
   189
 73
   188
  0
VERTEX
  8
bark
 10
0.0
 20
0.0
 30
0.0
 70
   128
 71
   179
 72
   190
 73
   189
  0
VERTEX
  8
bark
 10
0.0
 20
0.0
 30
0.0
 70
   128
 71
   180
 72
   181
 73
   190
  0
VERTEX
  8
bark
 10
0.0
 20
0.0
 30
0.0
 70
   128
 71
   191
 72
   202
 73
   201
  0
VERTEX
  8
bark
 10
0.0
 20
0.0
 30
0.0
 70
   128
 71
   192
 72
   203
 73
   202
  0
VERTEX
  8
bark
 10
0.0
 20
0.0
 30
0.0
 70
   128
 71
   193
 72
   204
 73
   203
  0
VERTEX
  8
bark
 10
0.0
 20
0.0
 30
0.0
 70
   128
 71
   194
 72
   205
 73
   204
  0
VERTEX
  8
bark
 10
0.0
 20
0.0
 30
0.0
 70
   128
 71
   195
 72
   206
 73
   205
  0
VERTEX
  8
bark
 10
0.0
 20
0.0
 30
0.0
 70
   128
 71
   196
 72
   207
 73
   206
  0
VERTEX
  8
bark
 10
0.0
 20
0.0
 30
0.0
 70
   128
 71
   197
 72
   208
 73
   207
  0
VERTEX
  8
bark
 10
0.0
 20
0.0
 30
0.0
 70
   128
 71
   198
 72
   209
 73
   208
  0
VERTEX
  8
bark
 10
0.0
 20
0.0
 30
0.0
 70
   128
 71
   199
 72
   210
 73
   209
  0
VERTEX
  8
bark
 10
0.0
 20
0.0
 30
0.0
 70
   128
 71
   200
 72
   201
 73
   210
  0
VERTEX
  8
bark
 10
0.0
 20
0.0
 30
0.0
 70
   128
 71
   201
 72
   212
 73
   211
  0
VERTEX
  8
bark
 10
0.0
 20
0.0
 30
0.0
 70
   128
 71
   202
 72
   213
 73
   212
  0
VERTEX
  8
bark
 10
0.0
 20
0.0
 30
0.0
 70
   128
 71
   203
 72
   214
 73
   213
  0
VERTEX
  8
bark
 10
0.0
 20
0.0
 30
0.0
 70
   128
 71
   204
 72
   215
 73
   214
  0
VERTEX
  8
bark
 10
0.0
 20
0.0
 30
0.0
 70
   128
 71
   205
 72
   216
 73
   215
  0
VERTEX
  8
bark
 10
0.0
 20
0.0
 30
0.0
 70
   128
 71
   206
 72
   217
 73
   216
  0
VERTEX
  8
bark
 10
0.0
 20
0.0
 30
0.0
 70
   128
 71
   207
 72
   218
 73
   217
  0
VERTEX
  8
bark
 10
0.0
 20
0.0
 30
0.0
 70
   128
 71
   208
 72
   219
 73
   218
  0
VERTEX
  8
bark
 10
0.0
 20
0.0
 30
0.0
 70
   128
 71
   209
 72
   220
 73
   219
  0
VERTEX
  8
bark
 10
0.0
 20
0.0
 30
0.0
 70
   128
 71
   210
 72
   211
 73
   220
  0
VERTEX
  8
bark
 10
0.0
 20
0.0
 30
0.0
 70
   128
 71
   211
 72
   222
 73
   221
  0
VERTEX
  8
bark
 10
0.0
 20
0.0
 30
0.0
 70
   128
 71
   212
 72
   223
 73
   222
  0
VERTEX
  8
bark
 10
0.0
 20
0.0
 30
0.0
 70
   128
 71
   213
 72
   224
 73
   223
  0
VERTEX
  8
bark
 10
0.0
 20
0.0
 30
0.0
 70
   128
 71
   214
 72
   225
 73
   224
  0
VERTEX
  8
bark
 10
0.0
 20
0.0
 30
0.0
 70
   128
 71
   215
 72
   226
 73
   225
  0
VERTEX
  8
bark
 10
0.0
 20
0.0
 30
0.0
 70
   128
 71
   216
 72
   227
 73
   226
  0
VERTEX
  8
bark
 10
0.0
 20
0.0
 30
0.0
 70
   128
 71
   217
 72
   228
 73
   227
  0
VERTEX
  8
bark
 10
0.0
 20
0.0
 30
0.0
 70
   128
 71
   218
 72
   229
 73
   228
  0
VERTEX
  8
bark
 10
0.0
 20
0.0
 30
0.0
 70
   128
 71
   219
 72
   230
 73
   229
  0
VERTEX
  8
bark
 10
0.0
 20
0.0
 30
0.0
 70
   128
 71
   220
 72
   221
 73
   230
  0
VERTEX
  8
bark
 10
0.0
 20
0.0
 30
0.0
 70
   128
 71
   221
 72
   232
 73
   231
  0
VERTEX
  8
bark
 10
0.0
 20
0.0
 30
0.0
 70
   128
 71
   222
 72
   233
 73
   232
  0
VERTEX
  8
bark
 10
0.0
 20
0.0
 30
0.0
 70
   128
 71
   223
 72
   234
 73
   233
  0
VERTEX
  8
bark
 10
0.0
 20
0.0
 30
0.0
 70
   128
 71
   224
 72
   235
 73
   234
  0
VERTEX
  8
bark
 10
0.0
 20
0.0
 30
0.0
 70
   128
 71
   225
 72
   236
 73
   235
  0
VERTEX
  8
bark
 10
0.0
 20
0.0
 30
0.0
 70
   128
 71
   226
 72
   237
 73
   236
  0
VERTEX
  8
bark
 10
0.0
 20
0.0
 30
0.0
 70
   128
 71
   227
 72
   238
 73
   237
  0
VERTEX
  8
bark
 10
0.0
 20
0.0
 30
0.0
 70
   128
 71
   228
 72
   239
 73
   238
  0
VERTEX
  8
bark
 10
0.0
 20
0.0
 30
0.0
 70
   128
 71
   229
 72
   240
 73
   239
  0
VERTEX
  8
bark
 10
0.0
 20
0.0
 30
0.0
 70
   128
 71
   230
 72
   231
 73
   240
  0
SEQEND
  0
ENDSEC
  0
EOF
