999
FBX AutoCAD (*.DXF) exporter
  0
SECTION
  2
HEADER
  9
$ACADVER
  1
AC1008
  9
$UCSORG
 10
0.0
 20
0.0
 30
0.0
  9
$UCSXDIR
 10
1.0
 20
0.0
 30
0.0
  9
$TILEMODE
 70
   1
  9
$UCSYDIR
 10
0.0
 20
1.0
 30
0.0
  0
ENDSEC
  0
SECTION
  2
TABLES
  0
TABLE
  2
LTYPE
 70
   1
  0
LTYPE
  2
CONTINUOUS
 70
   64
  3
Solid line
 72
   65
 73
   0
 40
0.0
  0
ENDTAB
  0
TABLE
  2
LAYER
 70
   1
  0
LAYER
  2
fence11
 70
   0
 62
   250
  6
CONTINUOUS
  0
ENDTAB
  0
ENDSEC
  0
SECTION
  2
BLOCKS
  0
ENDSEC
  0
SECTION
  2
ENTITIES
  0
POLYLINE
  8
fence11
 66
   1
 10
0.0
 20
0.0
 30
0.0
 70
   64
 71
   32
 72
   48
  0
VERTEX
  8
fence11
 10
-64.276618
 20
7.697941
 30
11.468802
 70
   192
  0
VERTEX
  8
fence11
 10
61.854644
 20
7.697941
 30
11.468802
 70
   192
  0
VERTEX
  8
fence11
 10
-64.276618
 20
25.807046
 30
11.468802
 70
   192
  0
VERTEX
  8
fence11
 10
61.854644
 20
25.807046
 30
11.468802
 70
   192
  0
VERTEX
  8
fence11
 10
-64.276618
 20
25.807046
 30
6.489611
 70
   192
  0
VERTEX
  8
fence11
 10
61.854644
 20
25.807046
 30
6.489611
 70
   192
  0
VERTEX
  8
fence11
 10
-64.276618
 20
7.697941
 30
6.489611
 70
   192
  0
VERTEX
  8
fence11
 10
61.854644
 20
7.697941
 30
6.489611
 70
   192
  0
VERTEX
  8
fence11
 10
-66.354841
 20
55.778910
 30
11.468802
 70
   192
  0
VERTEX
  8
fence11
 10
59.039677
 20
42.166033
 30
11.468802
 70
   192
  0
VERTEX
  8
fence11
 10
-64.400392
 20
73.782238
 30
11.468802
 70
   192
  0
VERTEX
  8
fence11
 10
60.994125
 20
60.169361
 30
11.468802
 70
   192
  0
VERTEX
  8
fence11
 10
-64.400392
 20
73.782238
 30
6.489611
 70
   192
  0
VERTEX
  8
fence11
 10
60.994125
 20
60.169361
 30
6.489611
 70
   192
  0
VERTEX
  8
fence11
 10
-66.354841
 20
55.778910
 30
6.489611
 70
   192
  0
VERTEX
  8
fence11
 10
59.039677
 20
42.166033
 30
6.489611
 70
   192
  0
VERTEX
  8
fence11
 10
-49.056294
 20
-17.193525
 30
6.037753
 70
   192
  0
VERTEX
  8
fence11
 10
-49.056294
 20
91.925225
 30
6.037753
 70
   192
  0
VERTEX
  8
fence11
 10
-70.785084
 20
-17.193525
 30
6.037753
 70
   192
  0
VERTEX
  8
fence11
 10
-70.785084
 20
91.925225
 30
6.037753
 70
   192
  0
VERTEX
  8
fence11
 10
-70.785084
 20
-17.193525
 30
-6.037753
 70
   192
  0
VERTEX
  8
fence11
 10
-70.785084
 20
91.925225
 30
-6.037753
 70
   192
  0
VERTEX
  8
fence11
 10
-49.056294
 20
-17.193525
 30
-6.037753
 70
   192
  0
VERTEX
  8
fence11
 10
-49.056294
 20
91.925225
 30
-6.037753
 70
   192
  0
VERTEX
  8
fence11
 10
70.943706
 20
-17.193525
 30
6.037753
 70
   192
  0
VERTEX
  8
fence11
 10
70.943706
 20
91.925225
 30
6.037753
 70
   192
  0
VERTEX
  8
fence11
 10
49.214916
 20
-17.193525
 30
6.037753
 70
   192
  0
VERTEX
  8
fence11
 10
49.214916
 20
91.925225
 30
6.037753
 70
   192
  0
VERTEX
  8
fence11
 10
49.214916
 20
-17.193525
 30
-6.037753
 70
   192
  0
VERTEX
  8
fence11
 10
49.214916
 20
91.925225
 30
-6.037753
 70
   192
  0
VERTEX
  8
fence11
 10
70.943706
 20
-17.193525
 30
-6.037753
 70
   192
  0
VERTEX
  8
fence11
 10
70.943706
 20
91.925225
 30
-6.037753
 70
   192
  0
VERTEX
  8
fence11
 10
0.0
 20
0.0
 30
0.0
 70
   128
 71
   7
 72
   1
 73
   2
  0
VERTEX
  8
fence11
 10
0.0
 20
0.0
 30
0.0
 70
   128
 71
   3
 72
   5
 73
   6
  0
VERTEX
  8
fence11
 10
0.0
 20
0.0
 30
0.0
 70
   128
 71
   4
 72
   1
 73
   3
  0
VERTEX
  8
fence11
 10
0.0
 20
0.0
 30
0.0
 70
   128
 71
   4
 72
   2
 73
   1
  0
VERTEX
  8
fence11
 10
0.0
 20
0.0
 30
0.0
 70
   128
 71
   7
 72
   6
 73
   5
  0
VERTEX
  8
fence11
 10
0.0
 20
0.0
 30
0.0
 70
   128
 71
   5
 72
   3
 73
   1
  0
VERTEX
  8
fence11
 10
0.0
 20
0.0
 30
0.0
 70
   128
 71
   7
 72
   8
 73
   6
  0
VERTEX
  8
fence11
 10
0.0
 20
0.0
 30
0.0
 70
   128
 71
   6
 72
   8
 73
   2
  0
VERTEX
  8
fence11
 10
0.0
 20
0.0
 30
0.0
 70
   128
 71
   15
 72
   9
 73
   10
  0
VERTEX
  8
fence11
 10
0.0
 20
0.0
 30
0.0
 70
   128
 71
   11
 72
   13
 73
   14
  0
VERTEX
  8
fence11
 10
0.0
 20
0.0
 30
0.0
 70
   128
 71
   12
 72
   9
 73
   11
  0
VERTEX
  8
fence11
 10
0.0
 20
0.0
 30
0.0
 70
   128
 71
   12
 72
   10
 73
   9
  0
VERTEX
  8
fence11
 10
0.0
 20
0.0
 30
0.0
 70
   128
 71
   15
 72
   14
 73
   13
  0
VERTEX
  8
fence11
 10
0.0
 20
0.0
 30
0.0
 70
   128
 71
   13
 72
   11
 73
   9
  0
VERTEX
  8
fence11
 10
0.0
 20
0.0
 30
0.0
 70
   128
 71
   15
 72
   16
 73
   14
  0
VERTEX
  8
fence11
 10
0.0
 20
0.0
 30
0.0
 70
   128
 71
   14
 72
   16
 73
   10
  0
VERTEX
  8
fence11
 10
0.0
 20
0.0
 30
0.0
 70
   128
 71
   23
 72
   17
 73
   18
  0
VERTEX
  8
fence11
 10
0.0
 20
0.0
 30
0.0
 70
   128
 71
   19
 72
   21
 73
   22
  0
VERTEX
  8
fence11
 10
0.0
 20
0.0
 30
0.0
 70
   128
 71
   20
 72
   17
 73
   19
  0
VERTEX
  8
fence11
 10
0.0
 20
0.0
 30
0.0
 70
   128
 71
   20
 72
   18
 73
   17
  0
VERTEX
  8
fence11
 10
0.0
 20
0.0
 30
0.0
 70
   128
 71
   23
 72
   22
 73
   21
  0
VERTEX
  8
fence11
 10
0.0
 20
0.0
 30
0.0
 70
   128
 71
   21
 72
   19
 73
   17
  0
VERTEX
  8
fence11
 10
0.0
 20
0.0
 30
0.0
 70
   128
 71
   23
 72
   24
 73
   22
  0
VERTEX
  8
fence11
 10
0.0
 20
0.0
 30
0.0
 70
   128
 71
   22
 72
   24
 73
   18
  0
VERTEX
  8
fence11
 10
0.0
 20
0.0
 30
0.0
 70
   128
 71
   31
 72
   25
 73
   26
  0
VERTEX
  8
fence11
 10
0.0
 20
0.0
 30
0.0
 70
   128
 71
   27
 72
   29
 73
   30
  0
VERTEX
  8
fence11
 10
0.0
 20
0.0
 30
0.0
 70
   128
 71
   28
 72
   25
 73
   27
  0
VERTEX
  8
fence11
 10
0.0
 20
0.0
 30
0.0
 70
   128
 71
   28
 72
   26
 73
   25
  0
VERTEX
  8
fence11
 10
0.0
 20
0.0
 30
0.0
 70
   128
 71
   31
 72
   30
 73
   29
  0
VERTEX
  8
fence11
 10
0.0
 20
0.0
 30
0.0
 70
   128
 71
   29
 72
   27
 73
   25
  0
VERTEX
  8
fence11
 10
0.0
 20
0.0
 30
0.0
 70
   128
 71
   31
 72
   32
 73
   30
  0
VERTEX
  8
fence11
 10
0.0
 20
0.0
 30
0.0
 70
   128
 71
   30
 72
   32
 73
   26
  0
VERTEX
  8
fence11
 10
0.0
 20
0.0
 30
0.0
 70
   128
 71
   7
 72
   2
 73
   8
  0
VERTEX
  8
fence11
 10
0.0
 20
0.0
 30
0.0
 70
   128
 71
   3
 72
   6
 73
   4
  0
VERTEX
  8
fence11
 10
0.0
 20
0.0
 30
0.0
 70
   128
 71
   5
 72
   1
 73
   7
  0
VERTEX
  8
fence11
 10
0.0
 20
0.0
 30
0.0
 70
   128
 71
   6
 72
   2
 73
   4
  0
VERTEX
  8
fence11
 10
0.0
 20
0.0
 30
0.0
 70
   128
 71
   15
 72
   10
 73
   16
  0
VERTEX
  8
fence11
 10
0.0
 20
0.0
 30
0.0
 70
   128
 71
   11
 72
   14
 73
   12
  0
VERTEX
  8
fence11
 10
0.0
 20
0.0
 30
0.0
 70
   128
 71
   13
 72
   9
 73
   15
  0
VERTEX
  8
fence11
 10
0.0
 20
0.0
 30
0.0
 70
   128
 71
   14
 72
   10
 73
   12
  0
VERTEX
  8
fence11
 10
0.0
 20
0.0
 30
0.0
 70
   128
 71
   23
 72
   18
 73
   24
  0
VERTEX
  8
fence11
 10
0.0
 20
0.0
 30
0.0
 70
   128
 71
   19
 72
   22
 73
   20
  0
VERTEX
  8
fence11
 10
0.0
 20
0.0
 30
0.0
 70
   128
 71
   21
 72
   17
 73
   23
  0
VERTEX
  8
fence11
 10
0.0
 20
0.0
 30
0.0
 70
   128
 71
   22
 72
   18
 73
   20
  0
VERTEX
  8
fence11
 10
0.0
 20
0.0
 30
0.0
 70
   128
 71
   31
 72
   26
 73
   32
  0
VERTEX
  8
fence11
 10
0.0
 20
0.0
 30
0.0
 70
   128
 71
   27
 72
   30
 73
   28
  0
VERTEX
  8
fence11
 10
0.0
 20
0.0
 30
0.0
 70
   128
 71
   29
 72
   25
 73
   31
  0
VERTEX
  8
fence11
 10
0.0
 20
0.0
 30
0.0
 70
   128
 71
   30
 72
   26
 73
   28
  0
SEQEND
  0
ENDSEC
  0
EOF
