999
FBX AutoCAD (*.DXF) exporter
  0
SECTION
  2
HEADER
  9
$ACADVER
  1
AC1008
  9
$UCSORG
 10
0.0
 20
0.0
 30
0.0
  9
$UCSXDIR
 10
1.0
 20
0.0
 30
0.0
  9
$TILEMODE
 70
   1
  9
$UCSYDIR
 10
0.0
 20
1.0
 30
0.0
  0
ENDSEC
  0
SECTION
  2
TABLES
  0
TABLE
  2
LTYPE
 70
   1
  0
LTYPE
  2
CONTINUOUS
 70
   64
  3
Solid line
 72
   65
 73
   0
 40
0.0
  0
ENDTAB
  0
TABLE
  2
LAYER
 70
   7
  0
LAYER
  2
leaf
 70
   0
 62
   250
  6
CONTINUOUS
  0
LAYER
  2
leaf_2
 70
   0
 62
   250
  6
CONTINUOUS
  0
LAYER
  2
leaf_3
 70
   0
 62
   250
  6
CONTINUOUS
  0
LAYER
  2
leaf_4
 70
   0
 62
   250
  6
CONTINUOUS
  0
LAYER
  2
leaf_5
 70
   0
 62
   250
  6
CONTINUOUS
  0
LAYER
  2
bark
 70
   0
 62
   250
  6
CONTINUOUS
  0
ENDTAB
  0
ENDSEC
  0
SECTION
  2
BLOCKS
  0
ENDSEC
  0
SECTION
  2
ENTITIES
  0
POLYLINE
  8
leaf
 66
   1
 10
0.0
 20
0.0
 30
0.0
 70
   64
 71
   13
 72
   22
  0
VERTEX
  8
leaf
 10
-36.871552
 20
640.560958
 30
58.589829
 70
   192
  0
VERTEX
  8
leaf
 10
-73.917934
 20
630.726483
 30
23.673586
 70
   192
  0
VERTEX
  8
leaf
 10
-87.821537
 20
619.067555
 30
-24.878864
 70
   192
  0
VERTEX
  8
leaf
 10
-74.856900
 20
608.708176
 30
-74.057932
 70
   192
  0
VERTEX
  8
leaf
 10
-38.497888
 20
602.424131
 30
-110.686126
 70
   192
  0
VERTEX
  8
leaf
 10
61.775745
 20
607.274109
 30
-113.024694
 70
   192
  0
VERTEX
  8
leaf
 10
98.822127
 20
617.108584
 30
-78.108450
 70
   192
  0
VERTEX
  8
leaf
 10
112.725730
 20
628.767512
 30
-29.556000
 70
   192
  0
VERTEX
  8
leaf
 10
99.761093
 20
639.126892
 30
19.623068
 70
   192
  0
VERTEX
  8
leaf
 10
63.402082
 20
645.410936
 30
56.251262
 70
   192
  0
VERTEX
  8
leaf
 10
-2.051319
 20
831.279472
 30
-87.950638
 70
   192
  0
VERTEX
  8
leaf
 10
13.391063
 20
645.935841
 30
70.514086
 70
   192
  0
VERTEX
  8
leaf
 10
11.513131
 20
601.899227
 30
-124.948951
 70
   192
  0
VERTEX
  8
leaf
 10
0.0
 20
0.0
 30
0.0
 70
   128
 71
   12
 72
   1
 73
   11
  0
VERTEX
  8
leaf
 10
0.0
 20
0.0
 30
0.0
 70
   128
 71
   1
 72
   2
 73
   11
  0
VERTEX
  8
leaf
 10
0.0
 20
0.0
 30
0.0
 70
   128
 71
   2
 72
   3
 73
   11
  0
VERTEX
  8
leaf
 10
0.0
 20
0.0
 30
0.0
 70
   128
 71
   3
 72
   4
 73
   11
  0
VERTEX
  8
leaf
 10
0.0
 20
0.0
 30
0.0
 70
   128
 71
   4
 72
   5
 73
   11
  0
VERTEX
  8
leaf
 10
0.0
 20
0.0
 30
0.0
 70
   128
 71
   5
 72
   13
 73
   11
  0
VERTEX
  8
leaf
 10
0.0
 20
0.0
 30
0.0
 70
   128
 71
   13
 72
   6
 73
   11
  0
VERTEX
  8
leaf
 10
0.0
 20
0.0
 30
0.0
 70
   128
 71
   6
 72
   7
 73
   11
  0
VERTEX
  8
leaf
 10
0.0
 20
0.0
 30
0.0
 70
   128
 71
   7
 72
   8
 73
   11
  0
VERTEX
  8
leaf
 10
0.0
 20
0.0
 30
0.0
 70
   128
 71
   8
 72
   9
 73
   11
  0
VERTEX
  8
leaf
 10
0.0
 20
0.0
 30
0.0
 70
   128
 71
   9
 72
   10
 73
   11
  0
VERTEX
  8
leaf
 10
0.0
 20
0.0
 30
0.0
 70
   128
 71
   10
 72
   12
 73
   11
  0
VERTEX
  8
leaf
 10
0.0
 20
0.0
 30
0.0
 70
   128
 71
   10
 72
   9
 73
   7
  0
VERTEX
  8
leaf
 10
0.0
 20
0.0
 30
0.0
 70
   128
 71
   10
 72
   7
 73
   2
  0
VERTEX
  8
leaf
 10
0.0
 20
0.0
 30
0.0
 70
   128
 71
   10
 72
   2
 73
   1
  0
VERTEX
  8
leaf
 10
0.0
 20
0.0
 30
0.0
 70
   128
 71
   10
 72
   1
 73
   12
  0
VERTEX
  8
leaf
 10
0.0
 20
0.0
 30
0.0
 70
   128
 71
   9
 72
   8
 73
   7
  0
VERTEX
  8
leaf
 10
0.0
 20
0.0
 30
0.0
 70
   128
 71
   7
 72
   6
 73
   5
  0
VERTEX
  8
leaf
 10
0.0
 20
0.0
 30
0.0
 70
   128
 71
   7
 72
   5
 73
   4
  0
VERTEX
  8
leaf
 10
0.0
 20
0.0
 30
0.0
 70
   128
 71
   7
 72
   4
 73
   2
  0
VERTEX
  8
leaf
 10
0.0
 20
0.0
 30
0.0
 70
   128
 71
   6
 72
   13
 73
   5
  0
VERTEX
  8
leaf
 10
0.0
 20
0.0
 30
0.0
 70
   128
 71
   4
 72
   3
 73
   2
  0
SEQEND
  0
POLYLINE
  8
leaf_2
 66
   1
 10
0.0
 20
0.0
 30
0.0
 70
   64
 71
   13
 72
   22
  0
VERTEX
  8
leaf_2
 10
-54.917504
 20
518.750444
 30
108.972826
 70
   192
  0
VERTEX
  8
leaf_2
 10
-105.903107
 20
509.348571
 30
58.929828
 70
   192
  0
VERTEX
  8
leaf_2
 10
-124.565129
 20
497.807474
 30
-9.696204
 70
   192
  0
VERTEX
  8
leaf_2
 10
-105.903095
 20
487.219581
 30
-78.516981
 70
   192
  0
VERTEX
  8
leaf_2
 10
14.730155
 20
479.235889
 30
-147.869810
 70
   192
  0
VERTEX
  8
leaf_2
 10
84.377789
 20
483.979314
 30
-129.818828
 70
   192
  0
VERTEX
  8
leaf_2
 10
135.363392
 20
493.381187
 30
-79.775830
 70
   192
  0
VERTEX
  8
leaf_2
 10
135.363380
 20
515.510177
 30
57.670980
 70
   192
  0
VERTEX
  8
leaf_2
 10
84.377767
 20
522.307849
 30
108.246030
 70
   192
  0
VERTEX
  8
leaf_2
 10
0.060485
 20
815.404001
 30
-74.583949
 70
   192
  0
VERTEX
  8
leaf_2
 10
14.730130
 20
523.493869
 30
127.023809
 70
   192
  0
VERTEX
  8
leaf_2
 10
-54.917482
 20
480.421909
 30
-129.092031
 70
   192
  0
VERTEX
  8
leaf_2
 10
154.025413
 20
504.922284
 30
-11.149797
 70
   192
  0
VERTEX
  8
leaf_2
 10
0.0
 20
0.0
 30
0.0
 70
   128
 71
   11
 72
   1
 73
   10
  0
VERTEX
  8
leaf_2
 10
0.0
 20
0.0
 30
0.0
 70
   128
 71
   1
 72
   2
 73
   10
  0
VERTEX
  8
leaf_2
 10
0.0
 20
0.0
 30
0.0
 70
   128
 71
   2
 72
   3
 73
   10
  0
VERTEX
  8
leaf_2
 10
0.0
 20
0.0
 30
0.0
 70
   128
 71
   3
 72
   4
 73
   10
  0
VERTEX
  8
leaf_2
 10
0.0
 20
0.0
 30
0.0
 70
   128
 71
   4
 72
   12
 73
   10
  0
VERTEX
  8
leaf_2
 10
0.0
 20
0.0
 30
0.0
 70
   128
 71
   12
 72
   5
 73
   10
  0
VERTEX
  8
leaf_2
 10
0.0
 20
0.0
 30
0.0
 70
   128
 71
   5
 72
   6
 73
   10
  0
VERTEX
  8
leaf_2
 10
0.0
 20
0.0
 30
0.0
 70
   128
 71
   6
 72
   7
 73
   10
  0
VERTEX
  8
leaf_2
 10
0.0
 20
0.0
 30
0.0
 70
   128
 71
   7
 72
   13
 73
   10
  0
VERTEX
  8
leaf_2
 10
0.0
 20
0.0
 30
0.0
 70
   128
 71
   13
 72
   8
 73
   10
  0
VERTEX
  8
leaf_2
 10
0.0
 20
0.0
 30
0.0
 70
   128
 71
   8
 72
   9
 73
   10
  0
VERTEX
  8
leaf_2
 10
0.0
 20
0.0
 30
0.0
 70
   128
 71
   9
 72
   11
 73
   10
  0
VERTEX
  8
leaf_2
 10
0.0
 20
0.0
 30
0.0
 70
   128
 71
   9
 72
   8
 73
   6
  0
VERTEX
  8
leaf_2
 10
0.0
 20
0.0
 30
0.0
 70
   128
 71
   9
 72
   6
 73
   4
  0
VERTEX
  8
leaf_2
 10
0.0
 20
0.0
 30
0.0
 70
   128
 71
   9
 72
   4
 73
   1
  0
VERTEX
  8
leaf_2
 10
0.0
 20
0.0
 30
0.0
 70
   128
 71
   9
 72
   1
 73
   11
  0
VERTEX
  8
leaf_2
 10
0.0
 20
0.0
 30
0.0
 70
   128
 71
   8
 72
   13
 73
   7
  0
VERTEX
  8
leaf_2
 10
0.0
 20
0.0
 30
0.0
 70
   128
 71
   8
 72
   7
 73
   6
  0
VERTEX
  8
leaf_2
 10
0.0
 20
0.0
 30
0.0
 70
   128
 71
   6
 72
   5
 73
   4
  0
VERTEX
  8
leaf_2
 10
0.0
 20
0.0
 30
0.0
 70
   128
 71
   5
 72
   12
 73
   4
  0
VERTEX
  8
leaf_2
 10
0.0
 20
0.0
 30
0.0
 70
   128
 71
   4
 72
   3
 73
   2
  0
VERTEX
  8
leaf_2
 10
0.0
 20
0.0
 30
0.0
 70
   128
 71
   4
 72
   2
 73
   1
  0
SEQEND
  0
POLYLINE
  8
leaf_3
 66
   1
 10
0.0
 20
0.0
 30
0.0
 70
   64
 71
   13
 72
   22
  0
VERTEX
  8
leaf_3
 10
21.270681
 20
384.035108
 30
170.296320
 70
   192
  0
VERTEX
  8
leaf_3
 10
-67.017379
 20
379.737547
 30
146.852377
 70
   192
  0
VERTEX
  8
leaf_3
 10
-131.648725
 20
373.673562
 30
82.424223
 70
   192
  0
VERTEX
  8
leaf_3
 10
-155.305439
 20
367.467993
 30
-5.724672
 70
   192
  0
VERTEX
  8
leaf_3
 10
-131.648725
 20
362.783616
 30
-93.974881
 70
   192
  0
VERTEX
  8
leaf_3
 10
21.270681
 20
362.255217
 30
-182.501887
 70
   192
  0
VERTEX
  8
leaf_3
 10
109.558741
 20
366.552777
 30
-159.057945
 70
   192
  0
VERTEX
  8
leaf_3
 10
174.190087
 20
372.616762
 30
-94.629790
 70
   192
  0
VERTEX
  8
leaf_3
 10
197.846802
 20
378.822331
 30
-6.480896
 70
   192
  0
VERTEX
  8
leaf_3
 10
174.190087
 20
383.506708
 30
81.769314
 70
   192
  0
VERTEX
  8
leaf_3
 10
109.558741
 20
385.414716
 30
146.474265
 70
   192
  0
VERTEX
  8
leaf_3
 10
0.087342
 20
745.233912
 30
-30.884718
 70
   192
  0
VERTEX
  8
leaf_3
 10
-67.017379
 20
360.875608
 30
-158.679833
 70
   192
  0
VERTEX
  8
leaf_3
 10
0.0
 20
0.0
 30
0.0
 70
   128
 71
   1
 72
   2
 73
   12
  0
VERTEX
  8
leaf_3
 10
0.0
 20
0.0
 30
0.0
 70
   128
 71
   2
 72
   3
 73
   12
  0
VERTEX
  8
leaf_3
 10
0.0
 20
0.0
 30
0.0
 70
   128
 71
   3
 72
   4
 73
   12
  0
VERTEX
  8
leaf_3
 10
0.0
 20
0.0
 30
0.0
 70
   128
 71
   4
 72
   5
 73
   12
  0
VERTEX
  8
leaf_3
 10
0.0
 20
0.0
 30
0.0
 70
   128
 71
   5
 72
   13
 73
   12
  0
VERTEX
  8
leaf_3
 10
0.0
 20
0.0
 30
0.0
 70
   128
 71
   13
 72
   6
 73
   12
  0
VERTEX
  8
leaf_3
 10
0.0
 20
0.0
 30
0.0
 70
   128
 71
   6
 72
   7
 73
   12
  0
VERTEX
  8
leaf_3
 10
0.0
 20
0.0
 30
0.0
 70
   128
 71
   7
 72
   8
 73
   12
  0
VERTEX
  8
leaf_3
 10
0.0
 20
0.0
 30
0.0
 70
   128
 71
   8
 72
   9
 73
   12
  0
VERTEX
  8
leaf_3
 10
0.0
 20
0.0
 30
0.0
 70
   128
 71
   9
 72
   10
 73
   12
  0
VERTEX
  8
leaf_3
 10
0.0
 20
0.0
 30
0.0
 70
   128
 71
   10
 72
   11
 73
   12
  0
VERTEX
  8
leaf_3
 10
0.0
 20
0.0
 30
0.0
 70
   128
 71
   11
 72
   1
 73
   12
  0
VERTEX
  8
leaf_3
 10
0.0
 20
0.0
 30
0.0
 70
   128
 71
   11
 72
   10
 73
   9
  0
VERTEX
  8
leaf_3
 10
0.0
 20
0.0
 30
0.0
 70
   128
 71
   11
 72
   9
 73
   8
  0
VERTEX
  8
leaf_3
 10
0.0
 20
0.0
 30
0.0
 70
   128
 71
   11
 72
   8
 73
   6
  0
VERTEX
  8
leaf_3
 10
0.0
 20
0.0
 30
0.0
 70
   128
 71
   11
 72
   6
 73
   2
  0
VERTEX
  8
leaf_3
 10
0.0
 20
0.0
 30
0.0
 70
   128
 71
   11
 72
   2
 73
   1
  0
VERTEX
  8
leaf_3
 10
0.0
 20
0.0
 30
0.0
 70
   128
 71
   8
 72
   7
 73
   6
  0
VERTEX
  8
leaf_3
 10
0.0
 20
0.0
 30
0.0
 70
   128
 71
   6
 72
   13
 73
   2
  0
VERTEX
  8
leaf_3
 10
0.0
 20
0.0
 30
0.0
 70
   128
 71
   13
 72
   5
 73
   4
  0
VERTEX
  8
leaf_3
 10
0.0
 20
0.0
 30
0.0
 70
   128
 71
   13
 72
   4
 73
   2
  0
VERTEX
  8
leaf_3
 10
0.0
 20
0.0
 30
0.0
 70
   128
 71
   4
 72
   3
 73
   2
  0
SEQEND
  0
POLYLINE
  8
leaf_4
 66
   1
 10
0.0
 20
0.0
 30
0.0
 70
   64
 71
   13
 72
   22
  0
VERTEX
  8
leaf_4
 10
-79.316086
 20
271.741398
 30
179.263595
 70
   192
  0
VERTEX
  8
leaf_4
 10
-155.809183
 20
266.621036
 30
102.827511
 70
   192
  0
VERTEX
  8
leaf_4
 10
-183.807593
 20
262.141508
 30
-1.671744
 70
   192
  0
VERTEX
  8
leaf_4
 10
-155.809165
 20
259.503100
 30
-106.233679
 70
   192
  0
VERTEX
  8
leaf_4
 10
25.175473
 20
261.894725
 30
-210.966859
 70
   192
  0
VERTEX
  8
leaf_4
 10
129.666994
 20
266.283925
 30
-183.074933
 70
   192
  0
VERTEX
  8
leaf_4
 10
206.160092
 20
271.404287
 30
-106.638849
 70
   192
  0
VERTEX
  8
leaf_4
 10
206.160073
 20
278.522223
 30
102.422341
 70
   192
  0
VERTEX
  8
leaf_4
 10
129.666962
 20
278.612552
 30
179.029670
 70
   192
  0
VERTEX
  8
leaf_4
 10
0.103376
 20
701.047985
 30
-16.615238
 70
   192
  0
VERTEX
  8
leaf_4
 10
25.175436
 20
276.130597
 30
207.155521
 70
   192
  0
VERTEX
  8
leaf_4
 10
-79.316054
 20
259.412771
 30
-182.841008
 70
   192
  0
VERTEX
  8
leaf_4
 10
234.158502
 20
275.883815
 30
-2.139594
 70
   192
  0
VERTEX
  8
leaf_4
 10
0.0
 20
0.0
 30
0.0
 70
   128
 71
   11
 72
   1
 73
   10
  0
VERTEX
  8
leaf_4
 10
0.0
 20
0.0
 30
0.0
 70
   128
 71
   1
 72
   2
 73
   10
  0
VERTEX
  8
leaf_4
 10
0.0
 20
0.0
 30
0.0
 70
   128
 71
   2
 72
   3
 73
   10
  0
VERTEX
  8
leaf_4
 10
0.0
 20
0.0
 30
0.0
 70
   128
 71
   3
 72
   4
 73
   10
  0
VERTEX
  8
leaf_4
 10
0.0
 20
0.0
 30
0.0
 70
   128
 71
   4
 72
   12
 73
   10
  0
VERTEX
  8
leaf_4
 10
0.0
 20
0.0
 30
0.0
 70
   128
 71
   12
 72
   5
 73
   10
  0
VERTEX
  8
leaf_4
 10
0.0
 20
0.0
 30
0.0
 70
   128
 71
   5
 72
   6
 73
   10
  0
VERTEX
  8
leaf_4
 10
0.0
 20
0.0
 30
0.0
 70
   128
 71
   6
 72
   7
 73
   10
  0
VERTEX
  8
leaf_4
 10
0.0
 20
0.0
 30
0.0
 70
   128
 71
   7
 72
   13
 73
   10
  0
VERTEX
  8
leaf_4
 10
0.0
 20
0.0
 30
0.0
 70
   128
 71
   13
 72
   8
 73
   10
  0
VERTEX
  8
leaf_4
 10
0.0
 20
0.0
 30
0.0
 70
   128
 71
   8
 72
   9
 73
   10
  0
VERTEX
  8
leaf_4
 10
0.0
 20
0.0
 30
0.0
 70
   128
 71
   9
 72
   11
 73
   10
  0
VERTEX
  8
leaf_4
 10
0.0
 20
0.0
 30
0.0
 70
   128
 71
   9
 72
   8
 73
   13
  0
VERTEX
  8
leaf_4
 10
0.0
 20
0.0
 30
0.0
 70
   128
 71
   9
 72
   13
 73
   6
  0
VERTEX
  8
leaf_4
 10
0.0
 20
0.0
 30
0.0
 70
   128
 71
   9
 72
   6
 73
   4
  0
VERTEX
  8
leaf_4
 10
0.0
 20
0.0
 30
0.0
 70
   128
 71
   9
 72
   4
 73
   3
  0
VERTEX
  8
leaf_4
 10
0.0
 20
0.0
 30
0.0
 70
   128
 71
   9
 72
   3
 73
   1
  0
VERTEX
  8
leaf_4
 10
0.0
 20
0.0
 30
0.0
 70
   128
 71
   9
 72
   1
 73
   11
  0
VERTEX
  8
leaf_4
 10
0.0
 20
0.0
 30
0.0
 70
   128
 71
   13
 72
   7
 73
   6
  0
VERTEX
  8
leaf_4
 10
0.0
 20
0.0
 30
0.0
 70
   128
 71
   6
 72
   5
 73
   4
  0
VERTEX
  8
leaf_4
 10
0.0
 20
0.0
 30
0.0
 70
   128
 71
   5
 72
   12
 73
   4
  0
VERTEX
  8
leaf_4
 10
0.0
 20
0.0
 30
0.0
 70
   128
 71
   3
 72
   2
 73
   1
  0
SEQEND
  0
POLYLINE
  8
leaf_5
 66
   1
 10
0.0
 20
0.0
 30
0.0
 70
   64
 71
   24
 72
   34
  0
VERTEX
  8
leaf_5
 10
-192.045221
 20
156.620031
 30
0.050534
 70
   192
  0
VERTEX
  8
leaf_5
 10
-83.919027
 20
155.308968
 30
-187.268819
 70
   192
  0
VERTEX
  8
leaf_5
 10
24.207168
 20
156.472564
 30
-216.268582
 70
   192
  0
VERTEX
  8
leaf_5
 10
132.333362
 20
158.541947
 30
-187.319353
 70
   192
  0
VERTEX
  8
leaf_5
 10
211.487230
 20
160.962628
 30
-108.178055
 70
   192
  0
VERTEX
  8
leaf_5
 10
240.459556
 20
163.085988
 30
-0.050534
 70
   192
  0
VERTEX
  8
leaf_5
 10
211.487230
 20
164.343074
 30
108.090527
 70
   192
  0
VERTEX
  8
leaf_5
 10
132.333362
 20
164.397050
 30
187.268819
 70
   192
  0
VERTEX
  8
leaf_5
 10
-83.919027
 20
161.164072
 30
187.319353
 70
   192
  0
VERTEX
  8
leaf_5
 10
-132.958437
 20
351.074805
 30
-2.988945
 70
   192
  0
VERTEX
  8
leaf_5
 10
-112.620674
 20
350.431958
 30
-78.937633
 70
   192
  0
VERTEX
  8
leaf_5
 10
-57.056872
 20
351.049677
 30
-134.552943
 70
   192
  0
VERTEX
  8
leaf_5
 10
18.844694
 20
352.762443
 30
-154.932798
 70
   192
  0
VERTEX
  8
leaf_5
 10
94.746259
 20
355.111323
 30
-134.616430
 70
   192
  0
VERTEX
  8
leaf_5
 10
150.310061
 20
357.466936
 30
-79.047596
 70
   192
  0
VERTEX
  8
leaf_5
 10
170.647825
 20
359.198097
 30
-3.115918
 70
   192
  0
VERTEX
  8
leaf_5
 10
150.310061
 20
359.840944
 30
72.832771
 70
   192
  0
VERTEX
  8
leaf_5
 10
94.746259
 20
359.223225
 30
128.448081
 70
   192
  0
VERTEX
  8
leaf_5
 10
18.844694
 20
357.510459
 30
148.827935
 70
   192
  0
VERTEX
  8
leaf_5
 10
-57.056872
 20
355.161579
 30
128.511568
 70
   192
  0
VERTEX
  8
leaf_5
 10
-112.620674
 20
352.805966
 30
72.942733
 70
   192
  0
VERTEX
  8
leaf_5
 10
-163.072894
 20
155.362945
 30
-108.090527
 70
   192
  0
VERTEX
  8
leaf_5
 10
24.207168
 20
163.233455
 30
216.268582
 70
   192
  0
VERTEX
  8
leaf_5
 10
-163.072894
 20
158.743390
 30
108.178055
 70
   192
  0
VERTEX
  8
leaf_5
 10
0.0
 20
0.0
 30
0.0
 70
   128
 71
   1
 72
   22
 73
   11
  0
VERTEX
  8
leaf_5
 10
0.0
 20
0.0
 30
0.0
 70
   128
 71
   22
 72
   2
 73
   12
  0
VERTEX
  8
leaf_5
 10
0.0
 20
0.0
 30
0.0
 70
   128
 71
   2
 72
   3
 73
   13
  0
VERTEX
  8
leaf_5
 10
0.0
 20
0.0
 30
0.0
 70
   128
 71
   3
 72
   4
 73
   14
  0
VERTEX
  8
leaf_5
 10
0.0
 20
0.0
 30
0.0
 70
   128
 71
   4
 72
   5
 73
   15
  0
VERTEX
  8
leaf_5
 10
0.0
 20
0.0
 30
0.0
 70
   128
 71
   5
 72
   6
 73
   16
  0
VERTEX
  8
leaf_5
 10
0.0
 20
0.0
 30
0.0
 70
   128
 71
   6
 72
   7
 73
   17
  0
VERTEX
  8
leaf_5
 10
0.0
 20
0.0
 30
0.0
 70
   128
 71
   7
 72
   8
 73
   18
  0
VERTEX
  8
leaf_5
 10
0.0
 20
0.0
 30
0.0
 70
   128
 71
   8
 72
   23
 73
   19
  0
VERTEX
  8
leaf_5
 10
0.0
 20
0.0
 30
0.0
 70
   128
 71
   23
 72
   9
 73
   20
  0
VERTEX
  8
leaf_5
 10
0.0
 20
0.0
 30
0.0
 70
   128
 71
   9
 72
   24
 73
   21
  0
VERTEX
  8
leaf_5
 10
0.0
 20
0.0
 30
0.0
 70
   128
 71
   24
 72
   1
 73
   10
  0
VERTEX
  8
leaf_5
 10
0.0
 20
0.0
 30
0.0
 70
   128
 71
   24
 72
   2
 73
   22
  0
VERTEX
  8
leaf_5
 10
0.0
 20
0.0
 30
0.0
 70
   128
 71
   24
 72
   22
 73
   1
  0
VERTEX
  8
leaf_5
 10
0.0
 20
0.0
 30
0.0
 70
   128
 71
   24
 72
   9
 73
   2
  0
VERTEX
  8
leaf_5
 10
0.0
 20
0.0
 30
0.0
 70
   128
 71
   9
 72
   8
 73
   2
  0
VERTEX
  8
leaf_5
 10
0.0
 20
0.0
 30
0.0
 70
   128
 71
   9
 72
   23
 73
   8
  0
VERTEX
  8
leaf_5
 10
0.0
 20
0.0
 30
0.0
 70
   128
 71
   8
 72
   7
 73
   4
  0
VERTEX
  8
leaf_5
 10
0.0
 20
0.0
 30
0.0
 70
   128
 71
   8
 72
   4
 73
   2
  0
VERTEX
  8
leaf_5
 10
0.0
 20
0.0
 30
0.0
 70
   128
 71
   7
 72
   6
 73
   4
  0
VERTEX
  8
leaf_5
 10
0.0
 20
0.0
 30
0.0
 70
   128
 71
   6
 72
   5
 73
   4
  0
VERTEX
  8
leaf_5
 10
0.0
 20
0.0
 30
0.0
 70
   128
 71
   4
 72
   3
 73
   2
  0
VERTEX
  8
leaf_5
 10
0.0
 20
0.0
 30
0.0
 70
   128
 71
   1
 72
   11
 73
   10
  0
VERTEX
  8
leaf_5
 10
0.0
 20
0.0
 30
0.0
 70
   128
 71
   22
 72
   12
 73
   11
  0
VERTEX
  8
leaf_5
 10
0.0
 20
0.0
 30
0.0
 70
   128
 71
   2
 72
   13
 73
   12
  0
VERTEX
  8
leaf_5
 10
0.0
 20
0.0
 30
0.0
 70
   128
 71
   3
 72
   14
 73
   13
  0
VERTEX
  8
leaf_5
 10
0.0
 20
0.0
 30
0.0
 70
   128
 71
   4
 72
   15
 73
   14
  0
VERTEX
  8
leaf_5
 10
0.0
 20
0.0
 30
0.0
 70
   128
 71
   5
 72
   16
 73
   15
  0
VERTEX
  8
leaf_5
 10
0.0
 20
0.0
 30
0.0
 70
   128
 71
   6
 72
   17
 73
   16
  0
VERTEX
  8
leaf_5
 10
0.0
 20
0.0
 30
0.0
 70
   128
 71
   7
 72
   18
 73
   17
  0
VERTEX
  8
leaf_5
 10
0.0
 20
0.0
 30
0.0
 70
   128
 71
   8
 72
   19
 73
   18
  0
VERTEX
  8
leaf_5
 10
0.0
 20
0.0
 30
0.0
 70
   128
 71
   23
 72
   20
 73
   19
  0
VERTEX
  8
leaf_5
 10
0.0
 20
0.0
 30
0.0
 70
   128
 71
   9
 72
   21
 73
   20
  0
VERTEX
  8
leaf_5
 10
0.0
 20
0.0
 30
0.0
 70
   128
 71
   24
 72
   10
 73
   21
  0
SEQEND
  0
POLYLINE
  8
bark
 66
   1
 10
0.0
 20
0.0
 30
0.0
 70
   64
 71
   12
 72
   20
  0
VERTEX
  8
bark
 10
36.133127
 20
-0.000000
 30
13.147726
 70
   192
  0
VERTEX
  8
bark
 10
6.680866
 20
0.332506
 30
37.864509
 70
   192
  0
VERTEX
  8
bark
 10
-29.452261
 20
0.332506
 30
24.716782
 70
   192
  0
VERTEX
  8
bark
 10
-36.133127
 20
0.000000
 30
-13.147726
 70
   192
  0
VERTEX
  8
bark
 10
-6.680866
 20
-0.332506
 30
-37.864509
 70
   192
  0
VERTEX
  8
bark
 10
29.452261
 20
-0.332506
 30
-24.716782
 70
   192
  0
VERTEX
  8
bark
 10
17.096102
 20
244.893960
 30
3.618412
 70
   192
  0
VERTEX
  8
bark
 10
3.842585
 20
245.043587
 30
14.740964
 70
   192
  0
VERTEX
  8
bark
 10
-12.417322
 20
245.043587
 30
8.824487
 70
   192
  0
VERTEX
  8
bark
 10
-15.423712
 20
244.893960
 30
-8.214542
 70
   192
  0
VERTEX
  8
bark
 10
-2.170195
 20
244.744332
 30
-19.337094
 70
   192
  0
VERTEX
  8
bark
 10
14.089712
 20
244.744332
 30
-13.420617
 70
   192
  0
VERTEX
  8
bark
 10
0.0
 20
0.0
 30
0.0
 70
   128
 71
   1
 72
   2
 73
   8
  0
VERTEX
  8
bark
 10
0.0
 20
0.0
 30
0.0
 70
   128
 71
   2
 72
   3
 73
   9
  0
VERTEX
  8
bark
 10
0.0
 20
0.0
 30
0.0
 70
   128
 71
   3
 72
   4
 73
   10
  0
VERTEX
  8
bark
 10
0.0
 20
0.0
 30
0.0
 70
   128
 71
   4
 72
   5
 73
   11
  0
VERTEX
  8
bark
 10
0.0
 20
0.0
 30
0.0
 70
   128
 71
   5
 72
   6
 73
   12
  0
VERTEX
  8
bark
 10
0.0
 20
0.0
 30
0.0
 70
   128
 71
   6
 72
   1
 73
   7
  0
VERTEX
  8
bark
 10
0.0
 20
0.0
 30
0.0
 70
   128
 71
   6
 72
   5
 73
   2
  0
VERTEX
  8
bark
 10
0.0
 20
0.0
 30
0.0
 70
   128
 71
   6
 72
   2
 73
   1
  0
VERTEX
  8
bark
 10
0.0
 20
0.0
 30
0.0
 70
   128
 71
   5
 72
   4
 73
   3
  0
VERTEX
  8
bark
 10
0.0
 20
0.0
 30
0.0
 70
   128
 71
   5
 72
   3
 73
   2
  0
VERTEX
  8
bark
 10
0.0
 20
0.0
 30
0.0
 70
   128
 71
   7
 72
   8
 73
   11
  0
VERTEX
  8
bark
 10
0.0
 20
0.0
 30
0.0
 70
   128
 71
   7
 72
   11
 73
   12
  0
VERTEX
  8
bark
 10
0.0
 20
0.0
 30
0.0
 70
   128
 71
   8
 72
   9
 73
   11
  0
VERTEX
  8
bark
 10
0.0
 20
0.0
 30
0.0
 70
   128
 71
   9
 72
   10
 73
   11
  0
VERTEX
  8
bark
 10
0.0
 20
0.0
 30
0.0
 70
   128
 71
   1
 72
   8
 73
   7
  0
VERTEX
  8
bark
 10
0.0
 20
0.0
 30
0.0
 70
   128
 71
   2
 72
   9
 73
   8
  0
VERTEX
  8
bark
 10
0.0
 20
0.0
 30
0.0
 70
   128
 71
   3
 72
   10
 73
   9
  0
VERTEX
  8
bark
 10
0.0
 20
0.0
 30
0.0
 70
   128
 71
   4
 72
   11
 73
   10
  0
VERTEX
  8
bark
 10
0.0
 20
0.0
 30
0.0
 70
   128
 71
   5
 72
   12
 73
   11
  0
VERTEX
  8
bark
 10
0.0
 20
0.0
 30
0.0
 70
   128
 71
   6
 72
   7
 73
   12
  0
SEQEND
  0
ENDSEC
  0
EOF
