999
FBX AutoCAD (*.DXF) exporter
  0
SECTION
  2
HEADER
  9
$ACADVER
  1
AC1008
  9
$UCSORG
 10
0.0
 20
0.0
 30
0.0
  9
$UCSXDIR
 10
1.0
 20
0.0
 30
0.0
  9
$TILEMODE
 70
   1
  9
$UCSYDIR
 10
0.0
 20
1.0
 30
0.0
  0
ENDSEC
  0
SECTION
  2
TABLES
  0
TABLE
  2
LTYPE
 70
   1
  0
LTYPE
  2
CONTINUOUS
 70
   64
  3
Solid line
 72
   65
 73
   0
 40
0.0
  0
ENDTAB
  0
TABLE
  2
LAYER
 70
   7
  0
LAYER
  2
leaf
 70
   0
 62
   250
  6
CONTINUOUS
  0
LAYER
  2
leaf_2
 70
   0
 62
   250
  6
CONTINUOUS
  0
LAYER
  2
leaf_3
 70
   0
 62
   250
  6
CONTINUOUS
  0
LAYER
  2
leaf_4
 70
   0
 62
   250
  6
CONTINUOUS
  0
LAYER
  2
leaf_5
 70
   0
 62
   250
  6
CONTINUOUS
  0
LAYER
  2
bark
 70
   0
 62
   250
  6
CONTINUOUS
  0
ENDTAB
  0
ENDSEC
  0
SECTION
  2
BLOCKS
  0
ENDSEC
  0
SECTION
  2
ENTITIES
  0
POLYLINE
  8
leaf
 66
   1
 10
0.0
 20
0.0
 30
0.0
 70
   64
 71
   13
 72
   22
  0
VERTEX
  8
leaf
 10
-40.290083
 20
813.168884
 30
-2.825546
 70
   192
  0
VERTEX
  8
leaf
 10
-78.316618
 20
797.517227
 30
-37.013588
 70
   192
  0
VERTEX
  8
leaf
 10
-92.604206
 20
778.102205
 30
-84.848807
 70
   192
  0
VERTEX
  8
leaf
 10
-79.324498
 20
760.126057
 30
-133.513795
 70
   192
  0
VERTEX
  8
leaf
 10
-42.035783
 20
748.405477
 30
-169.968806
 70
   192
  0
VERTEX
  8
leaf
 10
60.846762
 20
753.775429
 30
-173.065544
 70
   192
  0
VERTEX
  8
leaf
 10
98.873297
 20
769.427085
 30
-138.877501
 70
   192
  0
VERTEX
  8
leaf
 10
113.160884
 20
788.842107
 30
-91.042282
 70
   192
  0
VERTEX
  8
leaf
 10
99.881177
 20
806.818255
 30
-42.377295
 70
   192
  0
VERTEX
  8
leaf
 10
62.592462
 20
818.538835
 30
-5.922284
 70
   192
  0
VERTEX
  8
leaf
 10
-4.511496
 20
1019.853194
 30
-179.139520
 70
   192
  0
VERTEX
  8
leaf
 10
11.286220
 20
820.863326
 30
8.554661
 70
   192
  0
VERTEX
  8
leaf
 10
9.270459
 20
746.080986
 30
-184.445751
 70
   192
  0
VERTEX
  8
leaf
 10
0.0
 20
0.0
 30
0.0
 70
   128
 71
   12
 72
   1
 73
   11
  0
VERTEX
  8
leaf
 10
0.0
 20
0.0
 30
0.0
 70
   128
 71
   1
 72
   2
 73
   11
  0
VERTEX
  8
leaf
 10
0.0
 20
0.0
 30
0.0
 70
   128
 71
   2
 72
   3
 73
   11
  0
VERTEX
  8
leaf
 10
0.0
 20
0.0
 30
0.0
 70
   128
 71
   3
 72
   4
 73
   11
  0
VERTEX
  8
leaf
 10
0.0
 20
0.0
 30
0.0
 70
   128
 71
   4
 72
   5
 73
   11
  0
VERTEX
  8
leaf
 10
0.0
 20
0.0
 30
0.0
 70
   128
 71
   5
 72
   13
 73
   11
  0
VERTEX
  8
leaf
 10
0.0
 20
0.0
 30
0.0
 70
   128
 71
   13
 72
   6
 73
   11
  0
VERTEX
  8
leaf
 10
0.0
 20
0.0
 30
0.0
 70
   128
 71
   6
 72
   7
 73
   11
  0
VERTEX
  8
leaf
 10
0.0
 20
0.0
 30
0.0
 70
   128
 71
   7
 72
   8
 73
   11
  0
VERTEX
  8
leaf
 10
0.0
 20
0.0
 30
0.0
 70
   128
 71
   8
 72
   9
 73
   11
  0
VERTEX
  8
leaf
 10
0.0
 20
0.0
 30
0.0
 70
   128
 71
   9
 72
   10
 73
   11
  0
VERTEX
  8
leaf
 10
0.0
 20
0.0
 30
0.0
 70
   128
 71
   10
 72
   12
 73
   11
  0
VERTEX
  8
leaf
 10
0.0
 20
0.0
 30
0.0
 70
   128
 71
   10
 72
   9
 73
   7
  0
VERTEX
  8
leaf
 10
0.0
 20
0.0
 30
0.0
 70
   128
 71
   10
 72
   7
 73
   2
  0
VERTEX
  8
leaf
 10
0.0
 20
0.0
 30
0.0
 70
   128
 71
   10
 72
   2
 73
   1
  0
VERTEX
  8
leaf
 10
0.0
 20
0.0
 30
0.0
 70
   128
 71
   10
 72
   1
 73
   12
  0
VERTEX
  8
leaf
 10
0.0
 20
0.0
 30
0.0
 70
   128
 71
   9
 72
   8
 73
   7
  0
VERTEX
  8
leaf
 10
0.0
 20
0.0
 30
0.0
 70
   128
 71
   7
 72
   6
 73
   5
  0
VERTEX
  8
leaf
 10
0.0
 20
0.0
 30
0.0
 70
   128
 71
   7
 72
   5
 73
   4
  0
VERTEX
  8
leaf
 10
0.0
 20
0.0
 30
0.0
 70
   128
 71
   7
 72
   4
 73
   2
  0
VERTEX
  8
leaf
 10
0.0
 20
0.0
 30
0.0
 70
   128
 71
   6
 72
   13
 73
   5
  0
VERTEX
  8
leaf
 10
0.0
 20
0.0
 30
0.0
 70
   128
 71
   4
 72
   3
 73
   2
  0
SEQEND
  0
POLYLINE
  8
leaf_2
 66
   1
 10
0.0
 20
0.0
 30
0.0
 70
   64
 71
   13
 72
   22
  0
VERTEX
  8
leaf_2
 10
-56.345359
 20
682.856621
 30
71.596610
 70
   192
  0
VERTEX
  8
leaf_2
 10
-108.656588
 20
664.003903
 30
22.610886
 70
   192
  0
VERTEX
  8
leaf_2
 10
-127.803822
 20
639.729805
 30
-44.817467
 70
   192
  0
VERTEX
  8
leaf_2
 10
-108.656575
 20
616.538553
 30
-112.621076
 70
   192
  0
VERTEX
  8
leaf_2
 10
15.113139
 20
596.305690
 30
-181.449905
 70
   192
  0
VERTEX
  8
leaf_2
 10
86.571611
 20
604.685458
 30
-164.032495
 70
   192
  0
VERTEX
  8
leaf_2
 10
138.882840
 20
623.538177
 30
-115.046771
 70
   192
  0
VERTEX
  8
leaf_2
 10
138.882827
 20
671.003526
 30
20.185191
 70
   192
  0
VERTEX
  8
leaf_2
 10
86.571589
 20
686.897856
 30
70.196135
 70
   192
  0
VERTEX
  8
leaf_2
 10
0.062058
 20
1000.521293
 30
-169.849672
 70
   192
  0
VERTEX
  8
leaf_2
 10
15.113114
 20
691.236389
 30
89.014020
 70
   192
  0
VERTEX
  8
leaf_2
 10
-56.345337
 20
600.644224
 30
-162.632020
 70
   192
  0
VERTEX
  8
leaf_2
 10
158.030074
 20
647.812274
 30
-47.618418
 70
   192
  0
VERTEX
  8
leaf_2
 10
0.0
 20
0.0
 30
0.0
 70
   128
 71
   11
 72
   1
 73
   10
  0
VERTEX
  8
leaf_2
 10
0.0
 20
0.0
 30
0.0
 70
   128
 71
   1
 72
   2
 73
   10
  0
VERTEX
  8
leaf_2
 10
0.0
 20
0.0
 30
0.0
 70
   128
 71
   2
 72
   3
 73
   10
  0
VERTEX
  8
leaf_2
 10
0.0
 20
0.0
 30
0.0
 70
   128
 71
   3
 72
   4
 73
   10
  0
VERTEX
  8
leaf_2
 10
0.0
 20
0.0
 30
0.0
 70
   128
 71
   4
 72
   12
 73
   10
  0
VERTEX
  8
leaf_2
 10
0.0
 20
0.0
 30
0.0
 70
   128
 71
   12
 72
   5
 73
   10
  0
VERTEX
  8
leaf_2
 10
0.0
 20
0.0
 30
0.0
 70
   128
 71
   5
 72
   6
 73
   10
  0
VERTEX
  8
leaf_2
 10
0.0
 20
0.0
 30
0.0
 70
   128
 71
   6
 72
   7
 73
   10
  0
VERTEX
  8
leaf_2
 10
0.0
 20
0.0
 30
0.0
 70
   128
 71
   7
 72
   13
 73
   10
  0
VERTEX
  8
leaf_2
 10
0.0
 20
0.0
 30
0.0
 70
   128
 71
   13
 72
   8
 73
   10
  0
VERTEX
  8
leaf_2
 10
0.0
 20
0.0
 30
0.0
 70
   128
 71
   8
 72
   9
 73
   10
  0
VERTEX
  8
leaf_2
 10
0.0
 20
0.0
 30
0.0
 70
   128
 71
   9
 72
   11
 73
   10
  0
VERTEX
  8
leaf_2
 10
0.0
 20
0.0
 30
0.0
 70
   128
 71
   9
 72
   8
 73
   6
  0
VERTEX
  8
leaf_2
 10
0.0
 20
0.0
 30
0.0
 70
   128
 71
   9
 72
   6
 73
   4
  0
VERTEX
  8
leaf_2
 10
0.0
 20
0.0
 30
0.0
 70
   128
 71
   9
 72
   4
 73
   1
  0
VERTEX
  8
leaf_2
 10
0.0
 20
0.0
 30
0.0
 70
   128
 71
   9
 72
   1
 73
   11
  0
VERTEX
  8
leaf_2
 10
0.0
 20
0.0
 30
0.0
 70
   128
 71
   8
 72
   13
 73
   7
  0
VERTEX
  8
leaf_2
 10
0.0
 20
0.0
 30
0.0
 70
   128
 71
   8
 72
   7
 73
   6
  0
VERTEX
  8
leaf_2
 10
0.0
 20
0.0
 30
0.0
 70
   128
 71
   6
 72
   5
 73
   4
  0
VERTEX
  8
leaf_2
 10
0.0
 20
0.0
 30
0.0
 70
   128
 71
   5
 72
   12
 73
   4
  0
VERTEX
  8
leaf_2
 10
0.0
 20
0.0
 30
0.0
 70
   128
 71
   4
 72
   3
 73
   2
  0
VERTEX
  8
leaf_2
 10
0.0
 20
0.0
 30
0.0
 70
   128
 71
   4
 72
   2
 73
   1
  0
SEQEND
  0
POLYLINE
  8
leaf_3
 66
   1
 10
0.0
 20
0.0
 30
0.0
 70
   64
 71
   13
 72
   22
  0
VERTEX
  8
leaf_3
 10
21.823719
 20
522.198336
 30
151.937489
 70
   192
  0
VERTEX
  8
leaf_3
 10
-68.759831
 20
515.002370
 30
128.451593
 70
   192
  0
VERTEX
  8
leaf_3
 10
-135.071591
 20
501.994711
 30
63.274763
 70
   192
  0
VERTEX
  8
leaf_3
 10
-159.343380
 20
486.660751
 30
-26.128922
 70
   192
  0
VERTEX
  8
leaf_3
 10
-135.071591
 20
473.109212
 30
-115.803818
 70
   192
  0
VERTEX
  8
leaf_3
 10
21.823719
 20
464.427339
 30
-206.219673
 70
   192
  0
VERTEX
  8
leaf_3
 10
112.407269
 20
471.623305
 30
-182.733778
 70
   192
  0
VERTEX
  8
leaf_3
 10
178.719029
 20
484.630964
 30
-117.556948
 70
   192
  0
VERTEX
  8
leaf_3
 10
202.990818
 20
499.964924
 30
-28.153262
 70
   192
  0
VERTEX
  8
leaf_3
 10
178.719029
 20
513.516463
 30
61.521633
 70
   192
  0
VERTEX
  8
leaf_3
 10
112.407269
 20
521.654456
 30
127.439423
 70
   192
  0
VERTEX
  8
leaf_3
 10
0.089613
 20
929.298876
 30
-93.479973
 70
   192
  0
VERTEX
  8
leaf_3
 10
-68.759831
 20
464.971219
 30
-181.721608
 70
   192
  0
VERTEX
  8
leaf_3
 10
0.0
 20
0.0
 30
0.0
 70
   128
 71
   1
 72
   2
 73
   12
  0
VERTEX
  8
leaf_3
 10
0.0
 20
0.0
 30
0.0
 70
   128
 71
   2
 72
   3
 73
   12
  0
VERTEX
  8
leaf_3
 10
0.0
 20
0.0
 30
0.0
 70
   128
 71
   3
 72
   4
 73
   12
  0
VERTEX
  8
leaf_3
 10
0.0
 20
0.0
 30
0.0
 70
   128
 71
   4
 72
   5
 73
   12
  0
VERTEX
  8
leaf_3
 10
0.0
 20
0.0
 30
0.0
 70
   128
 71
   5
 72
   13
 73
   12
  0
VERTEX
  8
leaf_3
 10
0.0
 20
0.0
 30
0.0
 70
   128
 71
   13
 72
   6
 73
   12
  0
VERTEX
  8
leaf_3
 10
0.0
 20
0.0
 30
0.0
 70
   128
 71
   6
 72
   7
 73
   12
  0
VERTEX
  8
leaf_3
 10
0.0
 20
0.0
 30
0.0
 70
   128
 71
   7
 72
   8
 73
   12
  0
VERTEX
  8
leaf_3
 10
0.0
 20
0.0
 30
0.0
 70
   128
 71
   8
 72
   9
 73
   12
  0
VERTEX
  8
leaf_3
 10
0.0
 20
0.0
 30
0.0
 70
   128
 71
   9
 72
   10
 73
   12
  0
VERTEX
  8
leaf_3
 10
0.0
 20
0.0
 30
0.0
 70
   128
 71
   10
 72
   11
 73
   12
  0
VERTEX
  8
leaf_3
 10
0.0
 20
0.0
 30
0.0
 70
   128
 71
   11
 72
   1
 73
   12
  0
VERTEX
  8
leaf_3
 10
0.0
 20
0.0
 30
0.0
 70
   128
 71
   11
 72
   10
 73
   9
  0
VERTEX
  8
leaf_3
 10
0.0
 20
0.0
 30
0.0
 70
   128
 71
   11
 72
   9
 73
   8
  0
VERTEX
  8
leaf_3
 10
0.0
 20
0.0
 30
0.0
 70
   128
 71
   11
 72
   8
 73
   6
  0
VERTEX
  8
leaf_3
 10
0.0
 20
0.0
 30
0.0
 70
   128
 71
   11
 72
   6
 73
   2
  0
VERTEX
  8
leaf_3
 10
0.0
 20
0.0
 30
0.0
 70
   128
 71
   11
 72
   2
 73
   1
  0
VERTEX
  8
leaf_3
 10
0.0
 20
0.0
 30
0.0
 70
   128
 71
   8
 72
   7
 73
   6
  0
VERTEX
  8
leaf_3
 10
0.0
 20
0.0
 30
0.0
 70
   128
 71
   6
 72
   13
 73
   2
  0
VERTEX
  8
leaf_3
 10
0.0
 20
0.0
 30
0.0
 70
   128
 71
   13
 72
   5
 73
   4
  0
VERTEX
  8
leaf_3
 10
0.0
 20
0.0
 30
0.0
 70
   128
 71
   13
 72
   4
 73
   2
  0
VERTEX
  8
leaf_3
 10
0.0
 20
0.0
 30
0.0
 70
   128
 71
   4
 72
   3
 73
   2
  0
SEQEND
  0
POLYLINE
  8
leaf_4
 66
   1
 10
0.0
 20
0.0
 30
0.0
 70
   64
 71
   13
 72
   22
  0
VERTEX
  8
leaf_4
 10
-81.378304
 20
310.636223
 30
181.847494
 70
   192
  0
VERTEX
  8
leaf_4
 10
-159.860222
 20
301.587124
 30
103.736750
 70
   192
  0
VERTEX
  8
leaf_4
 10
-188.586591
 20
292.194859
 30
-3.179282
 70
   192
  0
VERTEX
  8
leaf_4
 10
-159.860203
 20
284.976077
 30
-110.252537
 70
   192
  0
VERTEX
  8
leaf_4
 10
25.830035
 20
283.695363
 30
-217.755334
 70
   192
  0
VERTEX
  8
leaf_4
 10
133.038336
 20
289.976597
 30
-189.379588
 70
   192
  0
VERTEX
  8
leaf_4
 10
211.520254
 20
299.025696
 30
-111.268844
 70
   192
  0
VERTEX
  8
leaf_4
 10
211.520235
 20
315.636743
 30
102.720443
 70
   192
  0
VERTEX
  8
leaf_4
 10
133.038303
 20
318.747774
 30
181.260729
 70
   192
  0
VERTEX
  8
leaf_4
 10
0.106064
 20
810.333765
 30
-40.661101
 70
   192
  0
VERTEX
  8
leaf_4
 10
25.829997
 20
316.917457
 30
210.223240
 70
   192
  0
VERTEX
  8
leaf_4
 10
-81.378271
 20
281.865046
 30
-188.792823
 70
   192
  0
VERTEX
  8
leaf_4
 10
240.246623
 20
308.417961
 30
-4.352812
 70
   192
  0
VERTEX
  8
leaf_4
 10
0.0
 20
0.0
 30
0.0
 70
   128
 71
   11
 72
   1
 73
   10
  0
VERTEX
  8
leaf_4
 10
0.0
 20
0.0
 30
0.0
 70
   128
 71
   1
 72
   2
 73
   10
  0
VERTEX
  8
leaf_4
 10
0.0
 20
0.0
 30
0.0
 70
   128
 71
   2
 72
   3
 73
   10
  0
VERTEX
  8
leaf_4
 10
0.0
 20
0.0
 30
0.0
 70
   128
 71
   3
 72
   4
 73
   10
  0
VERTEX
  8
leaf_4
 10
0.0
 20
0.0
 30
0.0
 70
   128
 71
   4
 72
   12
 73
   10
  0
VERTEX
  8
leaf_4
 10
0.0
 20
0.0
 30
0.0
 70
   128
 71
   12
 72
   5
 73
   10
  0
VERTEX
  8
leaf_4
 10
0.0
 20
0.0
 30
0.0
 70
   128
 71
   5
 72
   6
 73
   10
  0
VERTEX
  8
leaf_4
 10
0.0
 20
0.0
 30
0.0
 70
   128
 71
   6
 72
   7
 73
   10
  0
VERTEX
  8
leaf_4
 10
0.0
 20
0.0
 30
0.0
 70
   128
 71
   7
 72
   13
 73
   10
  0
VERTEX
  8
leaf_4
 10
0.0
 20
0.0
 30
0.0
 70
   128
 71
   13
 72
   8
 73
   10
  0
VERTEX
  8
leaf_4
 10
0.0
 20
0.0
 30
0.0
 70
   128
 71
   8
 72
   9
 73
   10
  0
VERTEX
  8
leaf_4
 10
0.0
 20
0.0
 30
0.0
 70
   128
 71
   9
 72
   11
 73
   10
  0
VERTEX
  8
leaf_4
 10
0.0
 20
0.0
 30
0.0
 70
   128
 71
   9
 72
   8
 73
   13
  0
VERTEX
  8
leaf_4
 10
0.0
 20
0.0
 30
0.0
 70
   128
 71
   9
 72
   13
 73
   6
  0
VERTEX
  8
leaf_4
 10
0.0
 20
0.0
 30
0.0
 70
   128
 71
   9
 72
   6
 73
   4
  0
VERTEX
  8
leaf_4
 10
0.0
 20
0.0
 30
0.0
 70
   128
 71
   9
 72
   4
 73
   3
  0
VERTEX
  8
leaf_4
 10
0.0
 20
0.0
 30
0.0
 70
   128
 71
   9
 72
   3
 73
   1
  0
VERTEX
  8
leaf_4
 10
0.0
 20
0.0
 30
0.0
 70
   128
 71
   9
 72
   1
 73
   11
  0
VERTEX
  8
leaf_4
 10
0.0
 20
0.0
 30
0.0
 70
   128
 71
   13
 72
   7
 73
   6
  0
VERTEX
  8
leaf_4
 10
0.0
 20
0.0
 30
0.0
 70
   128
 71
   6
 72
   5
 73
   4
  0
VERTEX
  8
leaf_4
 10
0.0
 20
0.0
 30
0.0
 70
   128
 71
   5
 72
   12
 73
   4
  0
VERTEX
  8
leaf_4
 10
0.0
 20
0.0
 30
0.0
 70
   128
 71
   3
 72
   2
 73
   1
  0
SEQEND
  0
POLYLINE
  8
leaf_5
 66
   1
 10
0.0
 20
0.0
 30
0.0
 70
   64
 71
   24
 72
   34
  0
VERTEX
  8
leaf_5
 10
-192.045221
 20
156.125406
 30
0.058265
 70
   192
  0
VERTEX
  8
leaf_5
 10
-83.919027
 20
155.061656
 30
-187.264953
 70
   192
  0
VERTEX
  8
leaf_5
 10
24.207168
 20
156.472564
 30
-216.268582
 70
   192
  0
VERTEX
  8
leaf_5
 10
132.333362
 20
158.789259
 30
-187.323219
 70
   192
  0
VERTEX
  8
leaf_5
 10
211.487230
 20
161.390986
 30
-108.184750
 70
   192
  0
VERTEX
  8
leaf_5
 10
240.459556
 20
163.580613
 30
-0.058265
 70
   192
  0
VERTEX
  8
leaf_5
 10
211.487230
 20
164.771431
 30
108.083832
 70
   192
  0
VERTEX
  8
leaf_5
 10
132.333362
 20
164.644363
 30
187.264953
 70
   192
  0
VERTEX
  8
leaf_5
 10
-83.919027
 20
160.916759
 30
187.323219
 70
   192
  0
VERTEX
  8
leaf_5
 10
-132.958437
 20
380.330501
 30
-3.446234
 70
   192
  0
VERTEX
  8
leaf_5
 10
-112.620674
 20
379.770907
 30
-79.396224
 70
   192
  0
VERTEX
  8
leaf_5
 10
-57.056872
 20
380.616076
 30
-135.015089
 70
   192
  0
VERTEX
  8
leaf_5
 10
18.844694
 20
382.639545
 30
-155.399800
 70
   192
  0
VERTEX
  8
leaf_5
 10
94.746259
 20
385.299128
 30
-135.088289
 70
   192
  0
VERTEX
  8
leaf_5
 10
150.310061
 20
387.882191
 30
-79.523009
 70
   192
  0
VERTEX
  8
leaf_5
 10
170.647825
 20
389.696605
 30
-3.592633
 70
   192
  0
VERTEX
  8
leaf_5
 10
150.310061
 20
390.256199
 30
72.357357
 70
   192
  0
VERTEX
  8
leaf_5
 10
94.746259
 20
389.411030
 30
127.976222
 70
   192
  0
VERTEX
  8
leaf_5
 10
18.844694
 20
387.387561
 30
148.360933
 70
   192
  0
VERTEX
  8
leaf_5
 10
-57.056872
 20
384.727978
 30
128.049422
 70
   192
  0
VERTEX
  8
leaf_5
 10
-112.620674
 20
382.144915
 30
72.484142
 70
   192
  0
VERTEX
  8
leaf_5
 10
-163.072894
 20
154.934587
 30
-108.083832
 70
   192
  0
VERTEX
  8
leaf_5
 10
24.207168
 20
163.233455
 30
216.268582
 70
   192
  0
VERTEX
  8
leaf_5
 10
-163.072894
 20
158.315033
 30
108.184750
 70
   192
  0
VERTEX
  8
leaf_5
 10
0.0
 20
0.0
 30
0.0
 70
   128
 71
   1
 72
   22
 73
   11
  0
VERTEX
  8
leaf_5
 10
0.0
 20
0.0
 30
0.0
 70
   128
 71
   22
 72
   2
 73
   12
  0
VERTEX
  8
leaf_5
 10
0.0
 20
0.0
 30
0.0
 70
   128
 71
   2
 72
   3
 73
   13
  0
VERTEX
  8
leaf_5
 10
0.0
 20
0.0
 30
0.0
 70
   128
 71
   3
 72
   4
 73
   14
  0
VERTEX
  8
leaf_5
 10
0.0
 20
0.0
 30
0.0
 70
   128
 71
   4
 72
   5
 73
   15
  0
VERTEX
  8
leaf_5
 10
0.0
 20
0.0
 30
0.0
 70
   128
 71
   5
 72
   6
 73
   16
  0
VERTEX
  8
leaf_5
 10
0.0
 20
0.0
 30
0.0
 70
   128
 71
   6
 72
   7
 73
   17
  0
VERTEX
  8
leaf_5
 10
0.0
 20
0.0
 30
0.0
 70
   128
 71
   7
 72
   8
 73
   18
  0
VERTEX
  8
leaf_5
 10
0.0
 20
0.0
 30
0.0
 70
   128
 71
   8
 72
   23
 73
   19
  0
VERTEX
  8
leaf_5
 10
0.0
 20
0.0
 30
0.0
 70
   128
 71
   23
 72
   9
 73
   20
  0
VERTEX
  8
leaf_5
 10
0.0
 20
0.0
 30
0.0
 70
   128
 71
   9
 72
   24
 73
   21
  0
VERTEX
  8
leaf_5
 10
0.0
 20
0.0
 30
0.0
 70
   128
 71
   24
 72
   1
 73
   10
  0
VERTEX
  8
leaf_5
 10
0.0
 20
0.0
 30
0.0
 70
   128
 71
   24
 72
   2
 73
   22
  0
VERTEX
  8
leaf_5
 10
0.0
 20
0.0
 30
0.0
 70
   128
 71
   24
 72
   22
 73
   1
  0
VERTEX
  8
leaf_5
 10
0.0
 20
0.0
 30
0.0
 70
   128
 71
   24
 72
   9
 73
   2
  0
VERTEX
  8
leaf_5
 10
0.0
 20
0.0
 30
0.0
 70
   128
 71
   9
 72
   8
 73
   2
  0
VERTEX
  8
leaf_5
 10
0.0
 20
0.0
 30
0.0
 70
   128
 71
   9
 72
   23
 73
   8
  0
VERTEX
  8
leaf_5
 10
0.0
 20
0.0
 30
0.0
 70
   128
 71
   8
 72
   7
 73
   4
  0
VERTEX
  8
leaf_5
 10
0.0
 20
0.0
 30
0.0
 70
   128
 71
   8
 72
   4
 73
   2
  0
VERTEX
  8
leaf_5
 10
0.0
 20
0.0
 30
0.0
 70
   128
 71
   7
 72
   6
 73
   4
  0
VERTEX
  8
leaf_5
 10
0.0
 20
0.0
 30
0.0
 70
   128
 71
   6
 72
   5
 73
   4
  0
VERTEX
  8
leaf_5
 10
0.0
 20
0.0
 30
0.0
 70
   128
 71
   4
 72
   3
 73
   2
  0
VERTEX
  8
leaf_5
 10
0.0
 20
0.0
 30
0.0
 70
   128
 71
   1
 72
   11
 73
   10
  0
VERTEX
  8
leaf_5
 10
0.0
 20
0.0
 30
0.0
 70
   128
 71
   22
 72
   12
 73
   11
  0
VERTEX
  8
leaf_5
 10
0.0
 20
0.0
 30
0.0
 70
   128
 71
   2
 72
   13
 73
   12
  0
VERTEX
  8
leaf_5
 10
0.0
 20
0.0
 30
0.0
 70
   128
 71
   3
 72
   14
 73
   13
  0
VERTEX
  8
leaf_5
 10
0.0
 20
0.0
 30
0.0
 70
   128
 71
   4
 72
   15
 73
   14
  0
VERTEX
  8
leaf_5
 10
0.0
 20
0.0
 30
0.0
 70
   128
 71
   5
 72
   16
 73
   15
  0
VERTEX
  8
leaf_5
 10
0.0
 20
0.0
 30
0.0
 70
   128
 71
   6
 72
   17
 73
   16
  0
VERTEX
  8
leaf_5
 10
0.0
 20
0.0
 30
0.0
 70
   128
 71
   7
 72
   18
 73
   17
  0
VERTEX
  8
leaf_5
 10
0.0
 20
0.0
 30
0.0
 70
   128
 71
   8
 72
   19
 73
   18
  0
VERTEX
  8
leaf_5
 10
0.0
 20
0.0
 30
0.0
 70
   128
 71
   23
 72
   20
 73
   19
  0
VERTEX
  8
leaf_5
 10
0.0
 20
0.0
 30
0.0
 70
   128
 71
   9
 72
   21
 73
   20
  0
VERTEX
  8
leaf_5
 10
0.0
 20
0.0
 30
0.0
 70
   128
 71
   24
 72
   10
 73
   21
  0
SEQEND
  0
POLYLINE
  8
bark
 66
   1
 10
0.0
 20
0.0
 30
0.0
 70
   64
 71
   12
 72
   20
  0
VERTEX
  8
bark
 10
35.468727
 20
-0.000000
 30
12.905972
 70
   192
  0
VERTEX
  8
bark
 10
6.558021
 20
0.326392
 30
37.168273
 70
   192
  0
VERTEX
  8
bark
 10
-28.910706
 20
0.326392
 30
24.262301
 70
   192
  0
VERTEX
  8
bark
 10
-35.468727
 20
0.000000
 30
-12.905972
 70
   192
  0
VERTEX
  8
bark
 10
-6.558021
 20
-0.326392
 30
-37.168273
 70
   192
  0
VERTEX
  8
bark
 10
28.910706
 20
-0.326392
 30
-24.262301
 70
   192
  0
VERTEX
  8
bark
 10
16.781746
 20
240.390959
 30
3.551878
 70
   192
  0
VERTEX
  8
bark
 10
3.771929
 20
240.537835
 30
14.469914
 70
   192
  0
VERTEX
  8
bark
 10
-12.188998
 20
240.537835
 30
8.662227
 70
   192
  0
VERTEX
  8
bark
 10
-15.140108
 20
240.390959
 30
-8.063496
 70
   192
  0
VERTEX
  8
bark
 10
-2.130290
 20
240.244083
 30
-18.981532
 70
   192
  0
VERTEX
  8
bark
 10
13.830637
 20
240.244083
 30
-13.173845
 70
   192
  0
VERTEX
  8
bark
 10
0.0
 20
0.0
 30
0.0
 70
   128
 71
   1
 72
   2
 73
   8
  0
VERTEX
  8
bark
 10
0.0
 20
0.0
 30
0.0
 70
   128
 71
   2
 72
   3
 73
   9
  0
VERTEX
  8
bark
 10
0.0
 20
0.0
 30
0.0
 70
   128
 71
   3
 72
   4
 73
   10
  0
VERTEX
  8
bark
 10
0.0
 20
0.0
 30
0.0
 70
   128
 71
   4
 72
   5
 73
   11
  0
VERTEX
  8
bark
 10
0.0
 20
0.0
 30
0.0
 70
   128
 71
   5
 72
   6
 73
   12
  0
VERTEX
  8
bark
 10
0.0
 20
0.0
 30
0.0
 70
   128
 71
   6
 72
   1
 73
   7
  0
VERTEX
  8
bark
 10
0.0
 20
0.0
 30
0.0
 70
   128
 71
   6
 72
   5
 73
   2
  0
VERTEX
  8
bark
 10
0.0
 20
0.0
 30
0.0
 70
   128
 71
   6
 72
   2
 73
   1
  0
VERTEX
  8
bark
 10
0.0
 20
0.0
 30
0.0
 70
   128
 71
   5
 72
   4
 73
   3
  0
VERTEX
  8
bark
 10
0.0
 20
0.0
 30
0.0
 70
   128
 71
   5
 72
   3
 73
   2
  0
VERTEX
  8
bark
 10
0.0
 20
0.0
 30
0.0
 70
   128
 71
   7
 72
   8
 73
   11
  0
VERTEX
  8
bark
 10
0.0
 20
0.0
 30
0.0
 70
   128
 71
   7
 72
   11
 73
   12
  0
VERTEX
  8
bark
 10
0.0
 20
0.0
 30
0.0
 70
   128
 71
   8
 72
   9
 73
   11
  0
VERTEX
  8
bark
 10
0.0
 20
0.0
 30
0.0
 70
   128
 71
   9
 72
   10
 73
   11
  0
VERTEX
  8
bark
 10
0.0
 20
0.0
 30
0.0
 70
   128
 71
   1
 72
   8
 73
   7
  0
VERTEX
  8
bark
 10
0.0
 20
0.0
 30
0.0
 70
   128
 71
   2
 72
   9
 73
   8
  0
VERTEX
  8
bark
 10
0.0
 20
0.0
 30
0.0
 70
   128
 71
   3
 72
   10
 73
   9
  0
VERTEX
  8
bark
 10
0.0
 20
0.0
 30
0.0
 70
   128
 71
   4
 72
   11
 73
   10
  0
VERTEX
  8
bark
 10
0.0
 20
0.0
 30
0.0
 70
   128
 71
   5
 72
   12
 73
   11
  0
VERTEX
  8
bark
 10
0.0
 20
0.0
 30
0.0
 70
   128
 71
   6
 72
   7
 73
   12
  0
SEQEND
  0
ENDSEC
  0
EOF
