999
FBX AutoCAD (*.DXF) exporter
  0
SECTION
  2
HEADER
  9
$ACADVER
  1
AC1008
  9
$UCSORG
 10
0.0
 20
0.0
 30
0.0
  9
$UCSXDIR
 10
1.0
 20
0.0
 30
0.0
  9
$TILEMODE
 70
   1
  9
$UCSYDIR
 10
0.0
 20
1.0
 30
0.0
  0
ENDSEC
  0
SECTION
  2
TABLES
  0
TABLE
  2
LTYPE
 70
   1
  0
LTYPE
  2
CONTINUOUS
 70
   64
  3
Solid line
 72
   65
 73
   0
 40
0.0
  0
ENDTAB
  0
TABLE
  2
LAYER
 70
   3
  0
LAYER
  2
leaf
 70
   0
 62
   250
  6
CONTINUOUS
  0
LAYER
  2
bark
 70
   0
 62
   250
  6
CONTINUOUS
  0
ENDTAB
  0
ENDSEC
  0
SECTION
  2
BLOCKS
  0
ENDSEC
  0
SECTION
  2
ENTITIES
  0
POLYLINE
  8
leaf
 66
   1
 10
0.0
 20
0.0
 30
0.0
 70
   64
 71
   42
 72
   80
  0
VERTEX
  8
leaf
 10
-85.916231
 20
818.987020
 30
120.217116
 70
   192
  0
VERTEX
  8
leaf
 10
-85.916231
 20
614.140669
 30
120.217116
 70
   192
  0
VERTEX
  8
leaf
 10
92.481498
 20
676.431007
 30
218.429681
 70
   192
  0
VERTEX
  8
leaf
 10
262.760085
 20
676.431007
 30
69.833154
 70
   192
  0
VERTEX
  8
leaf
 10
189.600311
 20
818.987020
 30
-120.217116
 70
   192
  0
VERTEX
  8
leaf
 10
189.600311
 20
614.140669
 30
-120.217116
 70
   192
  0
VERTEX
  8
leaf
 10
11.202581
 20
676.431007
 30
-218.429681
 70
   192
  0
VERTEX
  8
leaf
 10
-159.076006
 20
676.431007
 30
-69.833154
 70
   192
  0
VERTEX
  8
leaf
 10
129.577583
 20
874.831463
 30
89.078115
 70
   192
  0
VERTEX
  8
leaf
 10
-25.893504
 20
874.831463
 30
-89.078115
 70
   192
  0
VERTEX
  8
leaf
 10
-25.893504
 20
575.643123
 30
-89.078115
 70
   192
  0
VERTEX
  8
leaf
 10
129.577583
 20
575.643123
 30
89.078115
 70
   192
  0
VERTEX
  8
leaf
 10
51.842040
 20
900.500337
 30
0.000000
 70
   192
  0
VERTEX
  8
leaf
 10
16.561566
 20
867.675796
 30
123.020650
 70
   192
  0
VERTEX
  8
leaf
 10
-74.822046
 20
867.675796
 30
18.303046
 70
   192
  0
VERTEX
  8
leaf
 10
121.421120
 20
814.564574
 30
180.748548
 70
   192
  0
VERTEX
  8
leaf
 10
-5.242966
 20
713.044348
 30
199.051593
 70
   192
  0
VERTEX
  8
leaf
 10
221.508362
 20
814.564574
 30
93.405700
 70
   192
  0
VERTEX
  8
leaf
 10
199.703831
 20
676.431007
 30
169.436643
 70
   192
  0
VERTEX
  8
leaf
 10
178.506126
 20
867.675796
 30
-18.303046
 70
   192
  0
VERTEX
  8
leaf
 10
256.788836
 20
713.044348
 30
-29.614950
 70
   192
  0
VERTEX
  8
leaf
 10
87.122514
 20
867.675796
 30
-123.020650
 70
   192
  0
VERTEX
  8
leaf
 10
-17.737041
 20
814.564574
 30
-180.748548
 70
   192
  0
VERTEX
  8
leaf
 10
108.927045
 20
713.044348
 30
-199.051593
 70
   192
  0
VERTEX
  8
leaf
 10
-117.824283
 20
814.564574
 30
-93.405700
 70
   192
  0
VERTEX
  8
leaf
 10
-96.019751
 20
676.431007
 30
-169.436643
 70
   192
  0
VERTEX
  8
leaf
 10
-153.104757
 20
713.044348
 30
29.614950
 70
   192
  0
VERTEX
  8
leaf
 10
51.842040
 20
557.947743
 30
0.000000
 70
   192
  0
VERTEX
  8
leaf
 10
-74.822046
 20
580.576033
 30
18.303046
 70
   192
  0
VERTEX
  8
leaf
 10
16.561566
 20
580.576033
 30
123.020650
 70
   192
  0
VERTEX
  8
leaf
 10
121.421120
 20
617.189375
 30
180.748548
 70
   192
  0
VERTEX
  8
leaf
 10
-5.242966
 20
639.817665
 30
199.051593
 70
   192
  0
VERTEX
  8
leaf
 10
221.508362
 20
617.189375
 30
93.405700
 70
   192
  0
VERTEX
  8
leaf
 10
256.788836
 20
639.817665
 30
-29.614950
 70
   192
  0
VERTEX
  8
leaf
 10
178.506126
 20
580.576033
 30
-18.303046
 70
   192
  0
VERTEX
  8
leaf
 10
87.122514
 20
580.576033
 30
-123.020650
 70
   192
  0
VERTEX
  8
leaf
 10
108.927045
 20
639.817665
 30
-199.051593
 70
   192
  0
VERTEX
  8
leaf
 10
-17.737041
 20
617.189375
 30
-180.748548
 70
   192
  0
VERTEX
  8
leaf
 10
-117.824283
 20
617.189375
 30
-93.405700
 70
   192
  0
VERTEX
  8
leaf
 10
-153.104757
 20
639.817665
 30
29.614950
 70
   192
  0
VERTEX
  8
leaf
 10
-110.102520
 20
676.431007
 30
141.323696
 70
   192
  0
VERTEX
  8
leaf
 10
213.786600
 20
676.431007
 30
-141.323696
 70
   192
  0
VERTEX
  8
leaf
 10
0.0
 20
0.0
 30
0.0
 70
   128
 71
   10
 72
   13
 73
   15
  0
VERTEX
  8
leaf
 10
0.0
 20
0.0
 30
0.0
 70
   128
 71
   13
 72
   9
 73
   14
  0
VERTEX
  8
leaf
 10
0.0
 20
0.0
 30
0.0
 70
   128
 71
   14
 72
   15
 73
   13
  0
VERTEX
  8
leaf
 10
0.0
 20
0.0
 30
0.0
 70
   128
 71
   15
 72
   14
 73
   1
  0
VERTEX
  8
leaf
 10
0.0
 20
0.0
 30
0.0
 70
   128
 71
   9
 72
   16
 73
   14
  0
VERTEX
  8
leaf
 10
0.0
 20
0.0
 30
0.0
 70
   128
 71
   16
 72
   3
 73
   17
  0
VERTEX
  8
leaf
 10
0.0
 20
0.0
 30
0.0
 70
   128
 71
   17
 72
   14
 73
   16
  0
VERTEX
  8
leaf
 10
0.0
 20
0.0
 30
0.0
 70
   128
 71
   14
 72
   17
 73
   1
  0
VERTEX
  8
leaf
 10
0.0
 20
0.0
 30
0.0
 70
   128
 71
   9
 72
   18
 73
   16
  0
VERTEX
  8
leaf
 10
0.0
 20
0.0
 30
0.0
 70
   128
 71
   18
 72
   4
 73
   19
  0
VERTEX
  8
leaf
 10
0.0
 20
0.0
 30
0.0
 70
   128
 71
   19
 72
   16
 73
   18
  0
VERTEX
  8
leaf
 10
0.0
 20
0.0
 30
0.0
 70
   128
 71
   16
 72
   19
 73
   3
  0
VERTEX
  8
leaf
 10
0.0
 20
0.0
 30
0.0
 70
   128
 71
   9
 72
   20
 73
   18
  0
VERTEX
  8
leaf
 10
0.0
 20
0.0
 30
0.0
 70
   128
 71
   20
 72
   5
 73
   21
  0
VERTEX
  8
leaf
 10
0.0
 20
0.0
 30
0.0
 70
   128
 71
   21
 72
   18
 73
   20
  0
VERTEX
  8
leaf
 10
0.0
 20
0.0
 30
0.0
 70
   128
 71
   18
 72
   21
 73
   4
  0
VERTEX
  8
leaf
 10
0.0
 20
0.0
 30
0.0
 70
   128
 71
   9
 72
   13
 73
   20
  0
VERTEX
  8
leaf
 10
0.0
 20
0.0
 30
0.0
 70
   128
 71
   13
 72
   10
 73
   22
  0
VERTEX
  8
leaf
 10
0.0
 20
0.0
 30
0.0
 70
   128
 71
   22
 72
   20
 73
   13
  0
VERTEX
  8
leaf
 10
0.0
 20
0.0
 30
0.0
 70
   128
 71
   20
 72
   22
 73
   5
  0
VERTEX
  8
leaf
 10
0.0
 20
0.0
 30
0.0
 70
   128
 71
   5
 72
   22
 73
   24
  0
VERTEX
  8
leaf
 10
0.0
 20
0.0
 30
0.0
 70
   128
 71
   22
 72
   10
 73
   23
  0
VERTEX
  8
leaf
 10
0.0
 20
0.0
 30
0.0
 70
   128
 71
   23
 72
   24
 73
   22
  0
VERTEX
  8
leaf
 10
0.0
 20
0.0
 30
0.0
 70
   128
 71
   24
 72
   23
 73
   7
  0
VERTEX
  8
leaf
 10
0.0
 20
0.0
 30
0.0
 70
   128
 71
   7
 72
   23
 73
   26
  0
VERTEX
  8
leaf
 10
0.0
 20
0.0
 30
0.0
 70
   128
 71
   23
 72
   10
 73
   25
  0
VERTEX
  8
leaf
 10
0.0
 20
0.0
 30
0.0
 70
   128
 71
   25
 72
   26
 73
   23
  0
VERTEX
  8
leaf
 10
0.0
 20
0.0
 30
0.0
 70
   128
 71
   26
 72
   25
 73
   8
  0
VERTEX
  8
leaf
 10
0.0
 20
0.0
 30
0.0
 70
   128
 71
   10
 72
   15
 73
   25
  0
VERTEX
  8
leaf
 10
0.0
 20
0.0
 30
0.0
 70
   128
 71
   15
 72
   1
 73
   27
  0
VERTEX
  8
leaf
 10
0.0
 20
0.0
 30
0.0
 70
   128
 71
   27
 72
   25
 73
   15
  0
VERTEX
  8
leaf
 10
0.0
 20
0.0
 30
0.0
 70
   128
 71
   25
 72
   27
 73
   8
  0
VERTEX
  8
leaf
 10
0.0
 20
0.0
 30
0.0
 70
   128
 71
   12
 72
   28
 73
   30
  0
VERTEX
  8
leaf
 10
0.0
 20
0.0
 30
0.0
 70
   128
 71
   28
 72
   11
 73
   29
  0
VERTEX
  8
leaf
 10
0.0
 20
0.0
 30
0.0
 70
   128
 71
   29
 72
   30
 73
   28
  0
VERTEX
  8
leaf
 10
0.0
 20
0.0
 30
0.0
 70
   128
 71
   30
 72
   29
 73
   2
  0
VERTEX
  8
leaf
 10
0.0
 20
0.0
 30
0.0
 70
   128
 71
   3
 72
   31
 73
   32
  0
VERTEX
  8
leaf
 10
0.0
 20
0.0
 30
0.0
 70
   128
 71
   31
 72
   12
 73
   30
  0
VERTEX
  8
leaf
 10
0.0
 20
0.0
 30
0.0
 70
   128
 71
   30
 72
   32
 73
   31
  0
VERTEX
  8
leaf
 10
0.0
 20
0.0
 30
0.0
 70
   128
 71
   32
 72
   30
 73
   2
  0
VERTEX
  8
leaf
 10
0.0
 20
0.0
 30
0.0
 70
   128
 71
   3
 72
   19
 73
   31
  0
VERTEX
  8
leaf
 10
0.0
 20
0.0
 30
0.0
 70
   128
 71
   19
 72
   4
 73
   33
  0
VERTEX
  8
leaf
 10
0.0
 20
0.0
 30
0.0
 70
   128
 71
   33
 72
   31
 73
   19
  0
VERTEX
  8
leaf
 10
0.0
 20
0.0
 30
0.0
 70
   128
 71
   31
 72
   33
 73
   12
  0
VERTEX
  8
leaf
 10
0.0
 20
0.0
 30
0.0
 70
   128
 71
   4
 72
   34
 73
   33
  0
VERTEX
  8
leaf
 10
0.0
 20
0.0
 30
0.0
 70
   128
 71
   34
 72
   6
 73
   35
  0
VERTEX
  8
leaf
 10
0.0
 20
0.0
 30
0.0
 70
   128
 71
   35
 72
   33
 73
   34
  0
VERTEX
  8
leaf
 10
0.0
 20
0.0
 30
0.0
 70
   128
 71
   33
 72
   35
 73
   12
  0
VERTEX
  8
leaf
 10
0.0
 20
0.0
 30
0.0
 70
   128
 71
   6
 72
   36
 73
   35
  0
VERTEX
  8
leaf
 10
0.0
 20
0.0
 30
0.0
 70
   128
 71
   36
 72
   11
 73
   28
  0
VERTEX
  8
leaf
 10
0.0
 20
0.0
 30
0.0
 70
   128
 71
   28
 72
   35
 73
   36
  0
VERTEX
  8
leaf
 10
0.0
 20
0.0
 30
0.0
 70
   128
 71
   35
 72
   28
 73
   12
  0
VERTEX
  8
leaf
 10
0.0
 20
0.0
 30
0.0
 70
   128
 71
   6
 72
   37
 73
   36
  0
VERTEX
  8
leaf
 10
0.0
 20
0.0
 30
0.0
 70
   128
 71
   37
 72
   7
 73
   38
  0
VERTEX
  8
leaf
 10
0.0
 20
0.0
 30
0.0
 70
   128
 71
   38
 72
   36
 73
   37
  0
VERTEX
  8
leaf
 10
0.0
 20
0.0
 30
0.0
 70
   128
 71
   36
 72
   38
 73
   11
  0
VERTEX
  8
leaf
 10
0.0
 20
0.0
 30
0.0
 70
   128
 71
   7
 72
   26
 73
   38
  0
VERTEX
  8
leaf
 10
0.0
 20
0.0
 30
0.0
 70
   128
 71
   26
 72
   8
 73
   39
  0
VERTEX
  8
leaf
 10
0.0
 20
0.0
 30
0.0
 70
   128
 71
   39
 72
   38
 73
   26
  0
VERTEX
  8
leaf
 10
0.0
 20
0.0
 30
0.0
 70
   128
 71
   38
 72
   39
 73
   11
  0
VERTEX
  8
leaf
 10
0.0
 20
0.0
 30
0.0
 70
   128
 71
   8
 72
   40
 73
   39
  0
VERTEX
  8
leaf
 10
0.0
 20
0.0
 30
0.0
 70
   128
 71
   40
 72
   2
 73
   29
  0
VERTEX
  8
leaf
 10
0.0
 20
0.0
 30
0.0
 70
   128
 71
   29
 72
   39
 73
   40
  0
VERTEX
  8
leaf
 10
0.0
 20
0.0
 30
0.0
 70
   128
 71
   39
 72
   29
 73
   11
  0
VERTEX
  8
leaf
 10
0.0
 20
0.0
 30
0.0
 70
   128
 71
   2
 72
   40
 73
   41
  0
VERTEX
  8
leaf
 10
0.0
 20
0.0
 30
0.0
 70
   128
 71
   40
 72
   8
 73
   27
  0
VERTEX
  8
leaf
 10
0.0
 20
0.0
 30
0.0
 70
   128
 71
   27
 72
   41
 73
   40
  0
VERTEX
  8
leaf
 10
0.0
 20
0.0
 30
0.0
 70
   128
 71
   41
 72
   27
 73
   1
  0
VERTEX
  8
leaf
 10
0.0
 20
0.0
 30
0.0
 70
   128
 71
   3
 72
   32
 73
   17
  0
VERTEX
  8
leaf
 10
0.0
 20
0.0
 30
0.0
 70
   128
 71
   32
 72
   2
 73
   41
  0
VERTEX
  8
leaf
 10
0.0
 20
0.0
 30
0.0
 70
   128
 71
   41
 72
   17
 73
   32
  0
VERTEX
  8
leaf
 10
0.0
 20
0.0
 30
0.0
 70
   128
 71
   17
 72
   41
 73
   1
  0
VERTEX
  8
leaf
 10
0.0
 20
0.0
 30
0.0
 70
   128
 71
   5
 72
   42
 73
   21
  0
VERTEX
  8
leaf
 10
0.0
 20
0.0
 30
0.0
 70
   128
 71
   42
 72
   6
 73
   34
  0
VERTEX
  8
leaf
 10
0.0
 20
0.0
 30
0.0
 70
   128
 71
   34
 72
   21
 73
   42
  0
VERTEX
  8
leaf
 10
0.0
 20
0.0
 30
0.0
 70
   128
 71
   21
 72
   34
 73
   4
  0
VERTEX
  8
leaf
 10
0.0
 20
0.0
 30
0.0
 70
   128
 71
   5
 72
   24
 73
   42
  0
VERTEX
  8
leaf
 10
0.0
 20
0.0
 30
0.0
 70
   128
 71
   24
 72
   7
 73
   37
  0
VERTEX
  8
leaf
 10
0.0
 20
0.0
 30
0.0
 70
   128
 71
   37
 72
   42
 73
   24
  0
VERTEX
  8
leaf
 10
0.0
 20
0.0
 30
0.0
 70
   128
 71
   42
 72
   37
 73
   6
  0
SEQEND
  0
POLYLINE
  8
bark
 66
   1
 10
0.0
 20
0.0
 30
0.0
 70
   64
 71
   60
 72
   72
  0
VERTEX
  8
bark
 10
43.158687
 20
421.705254
 30
-6.535242
 70
   192
  0
VERTEX
  8
bark
 10
44.650866
 20
419.176657
 30
1.498404
 70
   192
  0
VERTEX
  8
bark
 10
41.015378
 20
423.328006
 30
8.033646
 70
   192
  0
VERTEX
  8
bark
 10
35.887712
 20
430.007953
 30
6.535242
 70
   192
  0
VERTEX
  8
bark
 10
34.395534
 20
432.536550
 30
-1.498404
 70
   192
  0
VERTEX
  8
bark
 10
38.031021
 20
428.385201
 30
-8.033646
 70
   192
  0
VERTEX
  8
bark
 10
117.321496
 20
479.634178
 30
-2.077148
 70
   192
  0
VERTEX
  8
bark
 10
117.467392
 20
476.053993
 30
5.875570
 70
   192
  0
VERTEX
  8
bark
 10
111.139339
 20
478.102167
 30
12.248956
 70
   192
  0
VERTEX
  8
bark
 10
104.665391
 20
483.730527
 30
10.669624
 70
   192
  0
VERTEX
  8
bark
 10
104.519495
 20
487.310711
 30
2.716907
 70
   192
  0
VERTEX
  8
bark
 10
110.847547
 20
485.262537
 30
-3.656479
 70
   192
  0
VERTEX
  8
bark
 10
158.913700
 20
596.725285
 30
82.154969
 70
   192
  0
VERTEX
  8
bark
 10
158.585754
 20
591.811133
 30
89.148067
 70
   192
  0
VERTEX
  8
bark
 10
151.310018
 20
591.191373
 30
93.602215
 70
   192
  0
VERTEX
  8
bark
 10
144.362228
 20
595.485765
 30
91.063264
 70
   192
  0
VERTEX
  8
bark
 10
144.690174
 20
600.399917
 30
84.070165
 70
   192
  0
VERTEX
  8
bark
 10
151.965909
 20
601.019677
 30
79.616018
 70
   192
  0
VERTEX
  8
bark
 10
43.158687
 20
421.705254
 30
-6.535242
 70
   192
  0
VERTEX
  8
bark
 10
44.650866
 20
419.176657
 30
1.498404
 70
   192
  0
VERTEX
  8
bark
 10
41.015378
 20
423.328006
 30
8.033646
 70
   192
  0
VERTEX
  8
bark
 10
35.887712
 20
430.007953
 30
6.535242
 70
   192
  0
VERTEX
  8
bark
 10
34.395534
 20
432.536550
 30
-1.498404
 70
   192
  0
VERTEX
  8
bark
 10
38.031021
 20
428.385201
 30
-8.033646
 70
   192
  0
VERTEX
  8
bark
 10
158.913700
 20
596.725285
 30
82.154969
 70
   192
  0
VERTEX
  8
bark
 10
158.585754
 20
591.811133
 30
89.148067
 70
   192
  0
VERTEX
  8
bark
 10
151.310018
 20
591.191373
 30
93.602215
 70
   192
  0
VERTEX
  8
bark
 10
144.362228
 20
595.485765
 30
91.063264
 70
   192
  0
VERTEX
  8
bark
 10
144.690174
 20
600.399917
 30
84.070165
 70
   192
  0
VERTEX
  8
bark
 10
151.965909
 20
601.019677
 30
79.616018
 70
   192
  0
VERTEX
  8
bark
 10
20.081801
 20
-3.523387
 30
7.437259
 70
   192
  0
VERTEX
  8
bark
 10
3.621338
 20
-4.063326
 30
20.478363
 70
   192
  0
VERTEX
  8
bark
 10
-15.778033
 20
-0.955220
 30
13.041104
 70
   192
  0
VERTEX
  8
bark
 10
-18.716942
 20
2.692826
 30
-7.437259
 70
   192
  0
VERTEX
  8
bark
 10
-2.256480
 20
3.232765
 30
-20.478363
 70
   192
  0
VERTEX
  8
bark
 10
17.142892
 20
0.124658
 30
-13.041104
 70
   192
  0
VERTEX
  8
bark
 10
34.833771
 20
195.022162
 30
38.267671
 70
   192
  0
VERTEX
  8
bark
 10
22.263009
 20
196.061263
 30
48.490828
 70
   192
  0
VERTEX
  8
bark
 10
7.262743
 20
197.502281
 30
42.546948
 70
   192
  0
VERTEX
  8
bark
 10
4.833238
 20
197.904198
 30
26.379910
 70
   192
  0
VERTEX
  8
bark
 10
17.404000
 20
196.865097
 30
16.156753
 70
   192
  0
VERTEX
  8
bark
 10
32.404266
 20
195.424079
 30
22.100634
 70
   192
  0
VERTEX
  8
bark
 10
49.509279
 20
427.028825
 30
3.658550
 70
   192
  0
VERTEX
  8
bark
 10
41.042253
 20
426.157101
 30
10.422064
 70
   192
  0
VERTEX
  8
bark
 10
31.056174
 20
424.277826
 30
6.763513
 70
   192
  0
VERTEX
  8
bark
 10
29.537121
 20
423.270274
 30
-3.658550
 70
   192
  0
VERTEX
  8
bark
 10
38.004147
 20
424.141998
 30
-10.422064
 70
   192
  0
VERTEX
  8
bark
 10
47.990226
 20
426.021273
 30
-6.763513
 70
   192
  0
VERTEX
  8
bark
 10
-24.511682
 20
590.305070
 30
2.088096
 70
   192
  0
VERTEX
  8
bark
 10
-28.909238
 20
588.427877
 30
6.193634
 70
   192
  0
VERTEX
  8
bark
 10
-34.378046
 20
586.093399
 30
4.105537
 70
   192
  0
VERTEX
  8
bark
 10
-35.449297
 20
585.636112
 30
-2.088096
 70
   192
  0
VERTEX
  8
bark
 10
-31.051740
 20
587.513304
 30
-6.193634
 70
   192
  0
VERTEX
  8
bark
 10
-25.582933
 20
589.847783
 30
-4.105537
 70
   192
  0
VERTEX
  8
bark
 10
-24.511682
 20
590.305070
 30
2.088096
 70
   192
  0
VERTEX
  8
bark
 10
-28.909238
 20
588.427878
 30
6.193634
 70
   192
  0
VERTEX
  8
bark
 10
-34.378046
 20
586.093399
 30
4.105537
 70
   192
  0
VERTEX
  8
bark
 10
-35.449297
 20
585.636112
 30
-2.088096
 70
   192
  0
VERTEX
  8
bark
 10
-31.051740
 20
587.513304
 30
-6.193634
 70
   192
  0
VERTEX
  8
bark
 10
-25.582933
 20
589.847783
 30
-4.105537
 70
   192
  0
VERTEX
  8
bark
 10
0.0
 20
0.0
 30
0.0
 70
   128
 71
   1
 72
   2
 73
   8
  0
VERTEX
  8
bark
 10
0.0
 20
0.0
 30
0.0
 70
   128
 71
   2
 72
   3
 73
   9
  0
VERTEX
  8
bark
 10
0.0
 20
0.0
 30
0.0
 70
   128
 71
   3
 72
   4
 73
   10
  0
VERTEX
  8
bark
 10
0.0
 20
0.0
 30
0.0
 70
   128
 71
   4
 72
   5
 73
   11
  0
VERTEX
  8
bark
 10
0.0
 20
0.0
 30
0.0
 70
   128
 71
   5
 72
   6
 73
   12
  0
VERTEX
  8
bark
 10
0.0
 20
0.0
 30
0.0
 70
   128
 71
   6
 72
   1
 73
   7
  0
VERTEX
  8
bark
 10
0.0
 20
0.0
 30
0.0
 70
   128
 71
   7
 72
   8
 73
   14
  0
VERTEX
  8
bark
 10
0.0
 20
0.0
 30
0.0
 70
   128
 71
   8
 72
   9
 73
   15
  0
VERTEX
  8
bark
 10
0.0
 20
0.0
 30
0.0
 70
   128
 71
   9
 72
   10
 73
   16
  0
VERTEX
  8
bark
 10
0.0
 20
0.0
 30
0.0
 70
   128
 71
   10
 72
   11
 73
   17
  0
VERTEX
  8
bark
 10
0.0
 20
0.0
 30
0.0
 70
   128
 71
   11
 72
   12
 73
   18
  0
VERTEX
  8
bark
 10
0.0
 20
0.0
 30
0.0
 70
   128
 71
   12
 72
   7
 73
   13
  0
VERTEX
  8
bark
 10
0.0
 20
0.0
 30
0.0
 70
   128
 71
   24
 72
   23
 73
   20
  0
VERTEX
  8
bark
 10
0.0
 20
0.0
 30
0.0
 70
   128
 71
   24
 72
   20
 73
   19
  0
VERTEX
  8
bark
 10
0.0
 20
0.0
 30
0.0
 70
   128
 71
   23
 72
   22
 73
   20
  0
VERTEX
  8
bark
 10
0.0
 20
0.0
 30
0.0
 70
   128
 71
   22
 72
   21
 73
   20
  0
VERTEX
  8
bark
 10
0.0
 20
0.0
 30
0.0
 70
   128
 71
   25
 72
   26
 73
   29
  0
VERTEX
  8
bark
 10
0.0
 20
0.0
 30
0.0
 70
   128
 71
   25
 72
   29
 73
   30
  0
VERTEX
  8
bark
 10
0.0
 20
0.0
 30
0.0
 70
   128
 71
   26
 72
   27
 73
   29
  0
VERTEX
  8
bark
 10
0.0
 20
0.0
 30
0.0
 70
   128
 71
   27
 72
   28
 73
   29
  0
VERTEX
  8
bark
 10
0.0
 20
0.0
 30
0.0
 70
   128
 71
   31
 72
   32
 73
   38
  0
VERTEX
  8
bark
 10
0.0
 20
0.0
 30
0.0
 70
   128
 71
   32
 72
   33
 73
   39
  0
VERTEX
  8
bark
 10
0.0
 20
0.0
 30
0.0
 70
   128
 71
   33
 72
   34
 73
   40
  0
VERTEX
  8
bark
 10
0.0
 20
0.0
 30
0.0
 70
   128
 71
   34
 72
   35
 73
   41
  0
VERTEX
  8
bark
 10
0.0
 20
0.0
 30
0.0
 70
   128
 71
   35
 72
   36
 73
   42
  0
VERTEX
  8
bark
 10
0.0
 20
0.0
 30
0.0
 70
   128
 71
   36
 72
   31
 73
   37
  0
VERTEX
  8
bark
 10
0.0
 20
0.0
 30
0.0
 70
   128
 71
   37
 72
   38
 73
   44
  0
VERTEX
  8
bark
 10
0.0
 20
0.0
 30
0.0
 70
   128
 71
   38
 72
   39
 73
   45
  0
VERTEX
  8
bark
 10
0.0
 20
0.0
 30
0.0
 70
   128
 71
   39
 72
   40
 73
   46
  0
VERTEX
  8
bark
 10
0.0
 20
0.0
 30
0.0
 70
   128
 71
   40
 72
   41
 73
   47
  0
VERTEX
  8
bark
 10
0.0
 20
0.0
 30
0.0
 70
   128
 71
   41
 72
   42
 73
   48
  0
VERTEX
  8
bark
 10
0.0
 20
0.0
 30
0.0
 70
   128
 71
   42
 72
   37
 73
   43
  0
VERTEX
  8
bark
 10
0.0
 20
0.0
 30
0.0
 70
   128
 71
   43
 72
   44
 73
   50
  0
VERTEX
  8
bark
 10
0.0
 20
0.0
 30
0.0
 70
   128
 71
   44
 72
   45
 73
   51
  0
VERTEX
  8
bark
 10
0.0
 20
0.0
 30
0.0
 70
   128
 71
   45
 72
   46
 73
   52
  0
VERTEX
  8
bark
 10
0.0
 20
0.0
 30
0.0
 70
   128
 71
   46
 72
   47
 73
   53
  0
VERTEX
  8
bark
 10
0.0
 20
0.0
 30
0.0
 70
   128
 71
   47
 72
   48
 73
   54
  0
VERTEX
  8
bark
 10
0.0
 20
0.0
 30
0.0
 70
   128
 71
   48
 72
   43
 73
   49
  0
VERTEX
  8
bark
 10
0.0
 20
0.0
 30
0.0
 70
   128
 71
   55
 72
   58
 73
   60
  0
VERTEX
  8
bark
 10
0.0
 20
0.0
 30
0.0
 70
   128
 71
   55
 72
   56
 73
   58
  0
VERTEX
  8
bark
 10
0.0
 20
0.0
 30
0.0
 70
   128
 71
   56
 72
   57
 73
   58
  0
VERTEX
  8
bark
 10
0.0
 20
0.0
 30
0.0
 70
   128
 71
   58
 72
   59
 73
   60
  0
VERTEX
  8
bark
 10
0.0
 20
0.0
 30
0.0
 70
   128
 71
   1
 72
   8
 73
   7
  0
VERTEX
  8
bark
 10
0.0
 20
0.0
 30
0.0
 70
   128
 71
   2
 72
   9
 73
   8
  0
VERTEX
  8
bark
 10
0.0
 20
0.0
 30
0.0
 70
   128
 71
   3
 72
   10
 73
   9
  0
VERTEX
  8
bark
 10
0.0
 20
0.0
 30
0.0
 70
   128
 71
   4
 72
   11
 73
   10
  0
VERTEX
  8
bark
 10
0.0
 20
0.0
 30
0.0
 70
   128
 71
   5
 72
   12
 73
   11
  0
VERTEX
  8
bark
 10
0.0
 20
0.0
 30
0.0
 70
   128
 71
   6
 72
   7
 73
   12
  0
VERTEX
  8
bark
 10
0.0
 20
0.0
 30
0.0
 70
   128
 71
   7
 72
   14
 73
   13
  0
VERTEX
  8
bark
 10
0.0
 20
0.0
 30
0.0
 70
   128
 71
   8
 72
   15
 73
   14
  0
VERTEX
  8
bark
 10
0.0
 20
0.0
 30
0.0
 70
   128
 71
   9
 72
   16
 73
   15
  0
VERTEX
  8
bark
 10
0.0
 20
0.0
 30
0.0
 70
   128
 71
   10
 72
   17
 73
   16
  0
VERTEX
  8
bark
 10
0.0
 20
0.0
 30
0.0
 70
   128
 71
   11
 72
   18
 73
   17
  0
VERTEX
  8
bark
 10
0.0
 20
0.0
 30
0.0
 70
   128
 71
   12
 72
   13
 73
   18
  0
VERTEX
  8
bark
 10
0.0
 20
0.0
 30
0.0
 70
   128
 71
   31
 72
   38
 73
   37
  0
VERTEX
  8
bark
 10
0.0
 20
0.0
 30
0.0
 70
   128
 71
   32
 72
   39
 73
   38
  0
VERTEX
  8
bark
 10
0.0
 20
0.0
 30
0.0
 70
   128
 71
   33
 72
   40
 73
   39
  0
VERTEX
  8
bark
 10
0.0
 20
0.0
 30
0.0
 70
   128
 71
   34
 72
   41
 73
   40
  0
VERTEX
  8
bark
 10
0.0
 20
0.0
 30
0.0
 70
   128
 71
   35
 72
   42
 73
   41
  0
VERTEX
  8
bark
 10
0.0
 20
0.0
 30
0.0
 70
   128
 71
   36
 72
   37
 73
   42
  0
VERTEX
  8
bark
 10
0.0
 20
0.0
 30
0.0
 70
   128
 71
   37
 72
   44
 73
   43
  0
VERTEX
  8
bark
 10
0.0
 20
0.0
 30
0.0
 70
   128
 71
   38
 72
   45
 73
   44
  0
VERTEX
  8
bark
 10
0.0
 20
0.0
 30
0.0
 70
   128
 71
   39
 72
   46
 73
   45
  0
VERTEX
  8
bark
 10
0.0
 20
0.0
 30
0.0
 70
   128
 71
   40
 72
   47
 73
   46
  0
VERTEX
  8
bark
 10
0.0
 20
0.0
 30
0.0
 70
   128
 71
   41
 72
   48
 73
   47
  0
VERTEX
  8
bark
 10
0.0
 20
0.0
 30
0.0
 70
   128
 71
   42
 72
   43
 73
   48
  0
VERTEX
  8
bark
 10
0.0
 20
0.0
 30
0.0
 70
   128
 71
   43
 72
   50
 73
   49
  0
VERTEX
  8
bark
 10
0.0
 20
0.0
 30
0.0
 70
   128
 71
   44
 72
   51
 73
   50
  0
VERTEX
  8
bark
 10
0.0
 20
0.0
 30
0.0
 70
   128
 71
   45
 72
   52
 73
   51
  0
VERTEX
  8
bark
 10
0.0
 20
0.0
 30
0.0
 70
   128
 71
   46
 72
   53
 73
   52
  0
VERTEX
  8
bark
 10
0.0
 20
0.0
 30
0.0
 70
   128
 71
   47
 72
   54
 73
   53
  0
VERTEX
  8
bark
 10
0.0
 20
0.0
 30
0.0
 70
   128
 71
   48
 72
   49
 73
   54
  0
SEQEND
  0
ENDSEC
  0
EOF
