999
FBX AutoCAD (*.DXF) exporter
  0
SECTION
  2
HEADER
  9
$ACADVER
  1
AC1008
  9
$UCSORG
 10
0.0
 20
0.0
 30
0.0
  9
$UCSXDIR
 10
1.0
 20
0.0
 30
0.0
  9
$TILEMODE
 70
   1
  9
$UCSYDIR
 10
0.0
 20
1.0
 30
0.0
  0
ENDSEC
  0
SECTION
  2
TABLES
  0
TABLE
  2
LTYPE
 70
   1
  0
LTYPE
  2
CONTINUOUS
 70
   64
  3
Solid line
 72
   65
 73
   0
 40
0.0
  0
ENDTAB
  0
TABLE
  2
LAYER
 70
   2
  0
LAYER
  2
bark
 70
   0
 62
   250
  6
CONTINUOUS
  0
ENDTAB
  0
ENDSEC
  0
SECTION
  2
BLOCKS
  0
ENDSEC
  0
SECTION
  2
ENTITIES
  0
POLYLINE
  8
bark
 66
   1
 10
0.0
 20
0.0
 30
0.0
 70
   64
 71
   60
 72
   96
  0
VERTEX
  8
bark
 10
-20.293910
 20
78.296914
 30
1.644662
 70
   192
  0
VERTEX
  8
bark
 10
-14.374144
 20
79.730572
 30
-1.005382
 70
   192
  0
VERTEX
  8
bark
 10
-9.751255
 20
84.464726
 30
-1.587130
 70
   192
  0
VERTEX
  8
bark
 10
-8.191030
 20
90.691089
 30
0.121626
 70
   192
  0
VERTEX
  8
bark
 10
-10.289422
 20
96.031401
 30
3.468199
 70
   192
  0
VERTEX
  8
bark
 10
-15.244917
 20
98.445846
 30
7.174312
 70
   192
  0
VERTEX
  8
bark
 10
-21.164683
 20
97.012188
 30
9.824355
 70
   192
  0
VERTEX
  8
bark
 10
-25.787571
 20
92.278034
 30
10.406103
 70
   192
  0
VERTEX
  8
bark
 10
-27.347796
 20
86.051671
 30
8.697347
 70
   192
  0
VERTEX
  8
bark
 10
-25.249404
 20
80.711359
 30
5.350775
 70
   192
  0
VERTEX
  8
bark
 10
-45.219405
 20
121.779117
 30
-36.640557
 70
   192
  0
VERTEX
  8
bark
 10
-40.148652
 20
122.915775
 30
-38.666195
 70
   192
  0
VERTEX
  8
bark
 10
-35.886557
 20
126.601551
 30
-38.430796
 70
   192
  0
VERTEX
  8
bark
 10
-34.061095
 20
131.428605
 30
-36.024273
 70
   192
  0
VERTEX
  8
bark
 10
-35.369531
 20
135.553166
 30
-32.365836
 70
   192
  0
VERTEX
  8
bark
 10
-39.312086
 20
137.399792
 30
-28.852885
 70
   192
  0
VERTEX
  8
bark
 10
-44.382839
 20
136.263134
 30
-26.827246
 70
   192
  0
VERTEX
  8
bark
 10
-48.644934
 20
132.577357
 30
-27.062646
 70
   192
  0
VERTEX
  8
bark
 10
-50.470395
 20
127.750303
 30
-29.469169
 70
   192
  0
VERTEX
  8
bark
 10
-49.161960
 20
123.625742
 30
-33.127605
 70
   192
  0
VERTEX
  8
bark
 10
-71.282802
 20
179.945922
 30
-52.091514
 70
   192
  0
VERTEX
  8
bark
 10
-67.188977
 20
180.407796
 30
-53.236748
 70
   192
  0
VERTEX
  8
bark
 10
-63.365660
 20
182.116350
 30
-52.025359
 70
   192
  0
VERTEX
  8
bark
 10
-61.273229
 20
184.418973
 30
-48.920058
 70
   192
  0
VERTEX
  8
bark
 10
-61.710922
 20
186.436143
 30
-45.106963
 70
   192
  0
VERTEX
  8
bark
 10
-64.511553
 20
187.397368
 30
-42.042547
 70
   192
  0
VERTEX
  8
bark
 10
-68.605379
 20
186.935494
 30
-40.897313
 70
   192
  0
VERTEX
  8
bark
 10
-72.428695
 20
185.226940
 30
-42.108701
 70
   192
  0
VERTEX
  8
bark
 10
-74.521126
 20
182.924317
 30
-45.214003
 70
   192
  0
VERTEX
  8
bark
 10
-74.083434
 20
180.907147
 30
-49.027098
 70
   192
  0
VERTEX
  8
bark
 10
-22.197064
 20
81.588155
 30
31.057177
 70
   192
  0
VERTEX
  8
bark
 10
-39.034846
 20
91.174963
 30
22.745629
 70
   192
  0
VERTEX
  8
bark
 10
-47.749955
 20
99.690897
 30
7.430298
 70
   192
  0
VERTEX
  8
bark
 10
-45.013517
 20
103.883161
 30
-9.038880
 70
   192
  0
VERTEX
  8
bark
 10
-31.870756
 20
102.150451
 30
-20.371239
 70
   192
  0
VERTEX
  8
bark
 10
-13.341762
 20
95.154605
 30
-22.238204
 70
   192
  0
VERTEX
  8
bark
 10
3.496020
 20
85.567797
 30
-13.926656
 70
   192
  0
VERTEX
  8
bark
 10
12.211129
 20
77.051863
 30
1.388675
 70
   192
  0
VERTEX
  8
bark
 10
9.474690
 20
72.859599
 30
17.857853
 70
   192
  0
VERTEX
  8
bark
 10
-3.668070
 20
74.592309
 30
29.190213
 70
   192
  0
VERTEX
  8
bark
 10
-17.518659
 20
135.774533
 30
42.434201
 70
   192
  0
VERTEX
  8
bark
 10
-30.081966
 20
143.817778
 30
35.833840
 70
   192
  0
VERTEX
  8
bark
 10
-36.755391
 20
150.423677
 30
23.384377
 70
   192
  0
VERTEX
  8
bark
 10
-34.989911
 20
153.068998
 30
9.841083
 70
   192
  0
VERTEX
  8
bark
 10
-25.459880
 20
150.743321
 30
0.377037
 70
   192
  0
VERTEX
  8
bark
 10
-11.805447
 20
144.334974
 30
-1.392818
 70
   192
  0
VERTEX
  8
bark
 10
0.757860
 20
136.291729
 30
5.207542
 70
   192
  0
VERTEX
  8
bark
 10
7.431284
 20
129.685831
 30
17.657005
 70
   192
  0
VERTEX
  8
bark
 10
5.665805
 20
127.040509
 30
31.200299
 70
   192
  0
VERTEX
  8
bark
 10
-3.864226
 20
129.366186
 30
40.664345
 70
   192
  0
VERTEX
  8
bark
 10
-11.044996
 20
-0.294285
 30
46.807973
 70
   192
  0
VERTEX
  8
bark
 10
-35.698296
 20
-0.774464
 30
30.487340
 70
   192
  0
VERTEX
  8
bark
 10
-46.268197
 20
-0.958825
 30
2.521579
 70
   192
  0
VERTEX
  8
bark
 10
-38.717358
 20
-0.776946
 30
-26.407339
 70
   192
  0
VERTEX
  8
bark
 10
-15.929941
 20
-0.298301
 30
-45.249551
 70
   192
  0
VERTEX
  8
bark
 10
13.390034
 20
0.294285
 30
-46.807973
 70
   192
  0
VERTEX
  8
bark
 10
38.043334
 20
0.774464
 30
-30.487340
 70
   192
  0
VERTEX
  8
bark
 10
48.613235
 20
0.958825
 30
-2.521579
 70
   192
  0
VERTEX
  8
bark
 10
41.062396
 20
0.776946
 30
26.407339
 70
   192
  0
VERTEX
  8
bark
 10
18.274979
 20
0.298301
 30
45.249551
 70
   192
  0
VERTEX
  8
bark
 10
0.0
 20
0.0
 30
0.0
 70
   128
 71
   1
 72
   2
 73
   12
  0
VERTEX
  8
bark
 10
0.0
 20
0.0
 30
0.0
 70
   128
 71
   2
 72
   3
 73
   13
  0
VERTEX
  8
bark
 10
0.0
 20
0.0
 30
0.0
 70
   128
 71
   3
 72
   4
 73
   14
  0
VERTEX
  8
bark
 10
0.0
 20
0.0
 30
0.0
 70
   128
 71
   4
 72
   5
 73
   15
  0
VERTEX
  8
bark
 10
0.0
 20
0.0
 30
0.0
 70
   128
 71
   5
 72
   6
 73
   16
  0
VERTEX
  8
bark
 10
0.0
 20
0.0
 30
0.0
 70
   128
 71
   6
 72
   7
 73
   17
  0
VERTEX
  8
bark
 10
0.0
 20
0.0
 30
0.0
 70
   128
 71
   7
 72
   8
 73
   18
  0
VERTEX
  8
bark
 10
0.0
 20
0.0
 30
0.0
 70
   128
 71
   8
 72
   9
 73
   19
  0
VERTEX
  8
bark
 10
0.0
 20
0.0
 30
0.0
 70
   128
 71
   9
 72
   10
 73
   20
  0
VERTEX
  8
bark
 10
0.0
 20
0.0
 30
0.0
 70
   128
 71
   10
 72
   1
 73
   11
  0
VERTEX
  8
bark
 10
0.0
 20
0.0
 30
0.0
 70
   128
 71
   11
 72
   12
 73
   22
  0
VERTEX
  8
bark
 10
0.0
 20
0.0
 30
0.0
 70
   128
 71
   12
 72
   13
 73
   23
  0
VERTEX
  8
bark
 10
0.0
 20
0.0
 30
0.0
 70
   128
 71
   13
 72
   14
 73
   24
  0
VERTEX
  8
bark
 10
0.0
 20
0.0
 30
0.0
 70
   128
 71
   14
 72
   15
 73
   25
  0
VERTEX
  8
bark
 10
0.0
 20
0.0
 30
0.0
 70
   128
 71
   15
 72
   16
 73
   26
  0
VERTEX
  8
bark
 10
0.0
 20
0.0
 30
0.0
 70
   128
 71
   16
 72
   17
 73
   27
  0
VERTEX
  8
bark
 10
0.0
 20
0.0
 30
0.0
 70
   128
 71
   17
 72
   18
 73
   28
  0
VERTEX
  8
bark
 10
0.0
 20
0.0
 30
0.0
 70
   128
 71
   18
 72
   19
 73
   29
  0
VERTEX
  8
bark
 10
0.0
 20
0.0
 30
0.0
 70
   128
 71
   19
 72
   20
 73
   30
  0
VERTEX
  8
bark
 10
0.0
 20
0.0
 30
0.0
 70
   128
 71
   20
 72
   11
 73
   21
  0
VERTEX
  8
bark
 10
0.0
 20
0.0
 30
0.0
 70
   128
 71
   56
 72
   57
 73
   37
  0
VERTEX
  8
bark
 10
0.0
 20
0.0
 30
0.0
 70
   128
 71
   57
 72
   58
 73
   38
  0
VERTEX
  8
bark
 10
0.0
 20
0.0
 30
0.0
 70
   128
 71
   58
 72
   59
 73
   39
  0
VERTEX
  8
bark
 10
0.0
 20
0.0
 30
0.0
 70
   128
 71
   59
 72
   60
 73
   40
  0
VERTEX
  8
bark
 10
0.0
 20
0.0
 30
0.0
 70
   128
 71
   60
 72
   51
 73
   31
  0
VERTEX
  8
bark
 10
0.0
 20
0.0
 30
0.0
 70
   128
 71
   31
 72
   32
 73
   42
  0
VERTEX
  8
bark
 10
0.0
 20
0.0
 30
0.0
 70
   128
 71
   32
 72
   33
 73
   43
  0
VERTEX
  8
bark
 10
0.0
 20
0.0
 30
0.0
 70
   128
 71
   33
 72
   34
 73
   44
  0
VERTEX
  8
bark
 10
0.0
 20
0.0
 30
0.0
 70
   128
 71
   34
 72
   35
 73
   45
  0
VERTEX
  8
bark
 10
0.0
 20
0.0
 30
0.0
 70
   128
 71
   35
 72
   36
 73
   46
  0
VERTEX
  8
bark
 10
0.0
 20
0.0
 30
0.0
 70
   128
 71
   36
 72
   37
 73
   47
  0
VERTEX
  8
bark
 10
0.0
 20
0.0
 30
0.0
 70
   128
 71
   37
 72
   38
 73
   48
  0
VERTEX
  8
bark
 10
0.0
 20
0.0
 30
0.0
 70
   128
 71
   38
 72
   39
 73
   49
  0
VERTEX
  8
bark
 10
0.0
 20
0.0
 30
0.0
 70
   128
 71
   39
 72
   40
 73
   50
  0
VERTEX
  8
bark
 10
0.0
 20
0.0
 30
0.0
 70
   128
 71
   40
 72
   31
 73
   41
  0
VERTEX
  8
bark
 10
0.0
 20
0.0
 30
0.0
 70
   128
 71
   48
 72
   49
 73
   50
  0
VERTEX
  8
bark
 10
0.0
 20
0.0
 30
0.0
 70
   128
 71
   48
 72
   50
 73
   41
  0
VERTEX
  8
bark
 10
0.0
 20
0.0
 30
0.0
 70
   128
 71
   47
 72
   41
 73
   42
  0
VERTEX
  8
bark
 10
0.0
 20
0.0
 30
0.0
 70
   128
 71
   46
 72
   42
 73
   43
  0
VERTEX
  8
bark
 10
0.0
 20
0.0
 30
0.0
 70
   128
 71
   43
 72
   44
 73
   45
  0
VERTEX
  8
bark
 10
0.0
 20
0.0
 30
0.0
 70
   128
 71
   51
 72
   52
 73
   32
  0
VERTEX
  8
bark
 10
0.0
 20
0.0
 30
0.0
 70
   128
 71
   52
 72
   53
 73
   33
  0
VERTEX
  8
bark
 10
0.0
 20
0.0
 30
0.0
 70
   128
 71
   53
 72
   54
 73
   34
  0
VERTEX
  8
bark
 10
0.0
 20
0.0
 30
0.0
 70
   128
 71
   54
 72
   55
 73
   35
  0
VERTEX
  8
bark
 10
0.0
 20
0.0
 30
0.0
 70
   128
 71
   55
 72
   56
 73
   36
  0
VERTEX
  8
bark
 10
0.0
 20
0.0
 30
0.0
 70
   128
 71
   24
 72
   25
 73
   27
  0
VERTEX
  8
bark
 10
0.0
 20
0.0
 30
0.0
 70
   128
 71
   23
 72
   24
 73
   28
  0
VERTEX
  8
bark
 10
0.0
 20
0.0
 30
0.0
 70
   128
 71
   25
 72
   26
 73
   27
  0
VERTEX
  8
bark
 10
0.0
 20
0.0
 30
0.0
 70
   128
 71
   29
 72
   30
 73
   22
  0
VERTEX
  8
bark
 10
0.0
 20
0.0
 30
0.0
 70
   128
 71
   30
 72
   21
 73
   22
  0
VERTEX
  8
bark
 10
0.0
 20
0.0
 30
0.0
 70
   128
 71
   1
 72
   12
 73
   11
  0
VERTEX
  8
bark
 10
0.0
 20
0.0
 30
0.0
 70
   128
 71
   2
 72
   13
 73
   12
  0
VERTEX
  8
bark
 10
0.0
 20
0.0
 30
0.0
 70
   128
 71
   3
 72
   14
 73
   13
  0
VERTEX
  8
bark
 10
0.0
 20
0.0
 30
0.0
 70
   128
 71
   4
 72
   15
 73
   14
  0
VERTEX
  8
bark
 10
0.0
 20
0.0
 30
0.0
 70
   128
 71
   5
 72
   16
 73
   15
  0
VERTEX
  8
bark
 10
0.0
 20
0.0
 30
0.0
 70
   128
 71
   6
 72
   17
 73
   16
  0
VERTEX
  8
bark
 10
0.0
 20
0.0
 30
0.0
 70
   128
 71
   7
 72
   18
 73
   17
  0
VERTEX
  8
bark
 10
0.0
 20
0.0
 30
0.0
 70
   128
 71
   8
 72
   19
 73
   18
  0
VERTEX
  8
bark
 10
0.0
 20
0.0
 30
0.0
 70
   128
 71
   9
 72
   20
 73
   19
  0
VERTEX
  8
bark
 10
0.0
 20
0.0
 30
0.0
 70
   128
 71
   10
 72
   11
 73
   20
  0
VERTEX
  8
bark
 10
0.0
 20
0.0
 30
0.0
 70
   128
 71
   11
 72
   22
 73
   21
  0
VERTEX
  8
bark
 10
0.0
 20
0.0
 30
0.0
 70
   128
 71
   12
 72
   23
 73
   22
  0
VERTEX
  8
bark
 10
0.0
 20
0.0
 30
0.0
 70
   128
 71
   13
 72
   24
 73
   23
  0
VERTEX
  8
bark
 10
0.0
 20
0.0
 30
0.0
 70
   128
 71
   14
 72
   25
 73
   24
  0
VERTEX
  8
bark
 10
0.0
 20
0.0
 30
0.0
 70
   128
 71
   15
 72
   26
 73
   25
  0
VERTEX
  8
bark
 10
0.0
 20
0.0
 30
0.0
 70
   128
 71
   16
 72
   27
 73
   26
  0
VERTEX
  8
bark
 10
0.0
 20
0.0
 30
0.0
 70
   128
 71
   17
 72
   28
 73
   27
  0
VERTEX
  8
bark
 10
0.0
 20
0.0
 30
0.0
 70
   128
 71
   18
 72
   29
 73
   28
  0
VERTEX
  8
bark
 10
0.0
 20
0.0
 30
0.0
 70
   128
 71
   19
 72
   30
 73
   29
  0
VERTEX
  8
bark
 10
0.0
 20
0.0
 30
0.0
 70
   128
 71
   20
 72
   21
 73
   30
  0
VERTEX
  8
bark
 10
0.0
 20
0.0
 30
0.0
 70
   128
 71
   56
 72
   37
 73
   36
  0
VERTEX
  8
bark
 10
0.0
 20
0.0
 30
0.0
 70
   128
 71
   57
 72
   38
 73
   37
  0
VERTEX
  8
bark
 10
0.0
 20
0.0
 30
0.0
 70
   128
 71
   58
 72
   39
 73
   38
  0
VERTEX
  8
bark
 10
0.0
 20
0.0
 30
0.0
 70
   128
 71
   59
 72
   40
 73
   39
  0
VERTEX
  8
bark
 10
0.0
 20
0.0
 30
0.0
 70
   128
 71
   60
 72
   31
 73
   40
  0
VERTEX
  8
bark
 10
0.0
 20
0.0
 30
0.0
 70
   128
 71
   31
 72
   42
 73
   41
  0
VERTEX
  8
bark
 10
0.0
 20
0.0
 30
0.0
 70
   128
 71
   32
 72
   43
 73
   42
  0
VERTEX
  8
bark
 10
0.0
 20
0.0
 30
0.0
 70
   128
 71
   33
 72
   44
 73
   43
  0
VERTEX
  8
bark
 10
0.0
 20
0.0
 30
0.0
 70
   128
 71
   34
 72
   45
 73
   44
  0
VERTEX
  8
bark
 10
0.0
 20
0.0
 30
0.0
 70
   128
 71
   35
 72
   46
 73
   45
  0
VERTEX
  8
bark
 10
0.0
 20
0.0
 30
0.0
 70
   128
 71
   36
 72
   47
 73
   46
  0
VERTEX
  8
bark
 10
0.0
 20
0.0
 30
0.0
 70
   128
 71
   37
 72
   48
 73
   47
  0
VERTEX
  8
bark
 10
0.0
 20
0.0
 30
0.0
 70
   128
 71
   38
 72
   49
 73
   48
  0
VERTEX
  8
bark
 10
0.0
 20
0.0
 30
0.0
 70
   128
 71
   39
 72
   50
 73
   49
  0
VERTEX
  8
bark
 10
0.0
 20
0.0
 30
0.0
 70
   128
 71
   40
 72
   41
 73
   50
  0
VERTEX
  8
bark
 10
0.0
 20
0.0
 30
0.0
 70
   128
 71
   48
 72
   41
 73
   47
  0
VERTEX
  8
bark
 10
0.0
 20
0.0
 30
0.0
 70
   128
 71
   47
 72
   42
 73
   46
  0
VERTEX
  8
bark
 10
0.0
 20
0.0
 30
0.0
 70
   128
 71
   46
 72
   43
 73
   45
  0
VERTEX
  8
bark
 10
0.0
 20
0.0
 30
0.0
 70
   128
 71
   51
 72
   32
 73
   31
  0
VERTEX
  8
bark
 10
0.0
 20
0.0
 30
0.0
 70
   128
 71
   52
 72
   33
 73
   32
  0
VERTEX
  8
bark
 10
0.0
 20
0.0
 30
0.0
 70
   128
 71
   53
 72
   34
 73
   33
  0
VERTEX
  8
bark
 10
0.0
 20
0.0
 30
0.0
 70
   128
 71
   54
 72
   35
 73
   34
  0
VERTEX
  8
bark
 10
0.0
 20
0.0
 30
0.0
 70
   128
 71
   55
 72
   36
 73
   35
  0
VERTEX
  8
bark
 10
0.0
 20
0.0
 30
0.0
 70
   128
 71
   24
 72
   27
 73
   28
  0
VERTEX
  8
bark
 10
0.0
 20
0.0
 30
0.0
 70
   128
 71
   23
 72
   28
 73
   29
  0
VERTEX
  8
bark
 10
0.0
 20
0.0
 30
0.0
 70
   128
 71
   29
 72
   22
 73
   23
  0
SEQEND
  0
ENDSEC
  0
EOF
