999
FBX AutoCAD (*.DXF) exporter
  0
SECTION
  2
HEADER
  9
$ACADVER
  1
AC1008
  9
$UCSORG
 10
0.0
 20
0.0
 30
0.0
  9
$UCSXDIR
 10
1.0
 20
0.0
 30
0.0
  9
$TILEMODE
 70
   1
  9
$UCSYDIR
 10
0.0
 20
1.0
 30
0.0
  0
ENDSEC
  0
SECTION
  2
TABLES
  0
TABLE
  2
LTYPE
 70
   1
  0
LTYPE
  2
CONTINUOUS
 70
   64
  3
Solid line
 72
   65
 73
   0
 40
0.0
  0
ENDTAB
  0
TABLE
  2
LAYER
 70
   5
  0
LAYER
  2
snow
 70
   0
 62
   250
  6
CONTINUOUS
  0
LAYER
  2
leaf
 70
   0
 62
   250
  6
CONTINUOUS
  0
LAYER
  2
leaf_2
 70
   0
 62
   250
  6
CONTINUOUS
  0
LAYER
  2
bark
 70
   0
 62
   250
  6
CONTINUOUS
  0
ENDTAB
  0
ENDSEC
  0
SECTION
  2
BLOCKS
  0
ENDSEC
  0
SECTION
  2
ENTITIES
  0
POLYLINE
  8
snow
 66
   1
 10
0.0
 20
0.0
 30
0.0
 70
   64
 71
   15
 72
   26
  0
VERTEX
  8
snow
 10
-88.741749
 20
396.894295
 30
-2.130230
 70
   192
  0
VERTEX
  8
snow
 10
-67.878243
 20
389.204552
 30
9.378050
 70
   192
  0
VERTEX
  8
snow
 10
-36.337078
 20
365.616037
 30
1.664705
 70
   192
  0
VERTEX
  8
snow
 10
-55.735215
 20
380.262651
 30
-8.187037
 70
   192
  0
VERTEX
  8
snow
 10
-47.453223
 20
370.697542
 30
-5.544282
 70
   192
  0
VERTEX
  8
snow
 10
-68.471808
 20
365.146857
 30
5.284041
 70
   192
  0
VERTEX
  8
snow
 10
-60.344302
 20
385.478185
 30
10.866403
 70
   192
  0
VERTEX
  8
snow
 10
-81.630816
 20
397.043427
 30
6.132191
 70
   192
  0
VERTEX
  8
snow
 10
-67.392374
 20
381.866154
 30
8.832204
 70
   192
  0
VERTEX
  8
snow
 10
-33.052124
 20
378.185097
 30
-0.287538
 70
   192
  0
VERTEX
  8
snow
 10
-44.722612
 20
374.783009
 30
6.460088
 70
   192
  0
VERTEX
  8
snow
 10
-60.152605
 20
350.726018
 30
2.412159
 70
   192
  0
VERTEX
  8
snow
 10
-47.453222
 20
370.697542
 30
-5.544282
 70
   192
  0
VERTEX
  8
snow
 10
-77.018095
 20
388.605737
 30
-7.135828
 70
   192
  0
VERTEX
  8
snow
 10
-79.631818
 20
381.960178
 30
3.257657
 70
   192
  0
VERTEX
  8
snow
 10
0.0
 20
0.0
 30
0.0
 70
   128
 71
   4
 72
   10
 73
   7
  0
VERTEX
  8
snow
 10
0.0
 20
0.0
 30
0.0
 70
   128
 71
   7
 72
   2
 73
   8
  0
VERTEX
  8
snow
 10
0.0
 20
0.0
 30
0.0
 70
   128
 71
   7
 72
   8
 73
   14
  0
VERTEX
  8
snow
 10
0.0
 20
0.0
 30
0.0
 70
   128
 71
   14
 72
   8
 73
   1
  0
VERTEX
  8
snow
 10
0.0
 20
0.0
 30
0.0
 70
   128
 71
   5
 72
   13
 73
   4
  0
VERTEX
  8
snow
 10
0.0
 20
0.0
 30
0.0
 70
   128
 71
   10
 72
   3
 73
   11
  0
VERTEX
  8
snow
 10
0.0
 20
0.0
 30
0.0
 70
   128
 71
   11
 72
   7
 73
   10
  0
VERTEX
  8
snow
 10
0.0
 20
0.0
 30
0.0
 70
   128
 71
   7
 72
   11
 73
   2
  0
VERTEX
  8
snow
 10
0.0
 20
0.0
 30
0.0
 70
   128
 71
   5
 72
   6
 73
   12
  0
VERTEX
  8
snow
 10
0.0
 20
0.0
 30
0.0
 70
   128
 71
   12
 72
   3
 73
   13
  0
VERTEX
  8
snow
 10
0.0
 20
0.0
 30
0.0
 70
   128
 71
   13
 72
   10
 73
   4
  0
VERTEX
  8
snow
 10
0.0
 20
0.0
 30
0.0
 70
   128
 71
   10
 72
   13
 73
   3
  0
VERTEX
  8
snow
 10
0.0
 20
0.0
 30
0.0
 70
   128
 71
   6
 72
   5
 73
   4
  0
VERTEX
  8
snow
 10
0.0
 20
0.0
 30
0.0
 70
   128
 71
   15
 72
   14
 73
   1
  0
VERTEX
  8
snow
 10
0.0
 20
0.0
 30
0.0
 70
   128
 71
   4
 72
   14
 73
   15
  0
VERTEX
  8
snow
 10
0.0
 20
0.0
 30
0.0
 70
   128
 71
   13
 72
   5
 73
   12
  0
VERTEX
  8
snow
 10
0.0
 20
0.0
 30
0.0
 70
   128
 71
   6
 72
   15
 73
   9
  0
VERTEX
  8
snow
 10
0.0
 20
0.0
 30
0.0
 70
   128
 71
   15
 72
   1
 73
   8
  0
VERTEX
  8
snow
 10
0.0
 20
0.0
 30
0.0
 70
   128
 71
   8
 72
   9
 73
   15
  0
VERTEX
  8
snow
 10
0.0
 20
0.0
 30
0.0
 70
   128
 71
   9
 72
   8
 73
   2
  0
VERTEX
  8
snow
 10
0.0
 20
0.0
 30
0.0
 70
   128
 71
   6
 72
   11
 73
   3
  0
VERTEX
  8
snow
 10
0.0
 20
0.0
 30
0.0
 70
   128
 71
   9
 72
   2
 73
   11
  0
VERTEX
  8
snow
 10
0.0
 20
0.0
 30
0.0
 70
   128
 71
   6
 72
   9
 73
   11
  0
VERTEX
  8
snow
 10
0.0
 20
0.0
 30
0.0
 70
   128
 71
   4
 72
   7
 73
   14
  0
VERTEX
  8
snow
 10
0.0
 20
0.0
 30
0.0
 70
   128
 71
   6
 72
   4
 73
   15
  0
VERTEX
  8
snow
 10
0.0
 20
0.0
 30
0.0
 70
   128
 71
   6
 72
   3
 73
   12
  0
SEQEND
  0
POLYLINE
  8
leaf
 66
   1
 10
0.0
 20
0.0
 30
0.0
 70
   64
 71
   42
 72
   80
  0
VERTEX
  8
leaf
 10
-185.010592
 20
649.242358
 30
89.379175
 70
   192
  0
VERTEX
  8
leaf
 10
-185.010592
 20
528.879434
 30
89.379175
 70
   192
  0
VERTEX
  8
leaf
 10
-79.380301
 20
565.479779
 30
55.239368
 70
   192
  0
VERTEX
  8
leaf
 10
-79.380301
 20
565.479779
 30
-55.239368
 70
   192
  0
VERTEX
  8
leaf
 10
-185.010592
 20
649.242358
 30
-89.379175
 70
   192
  0
VERTEX
  8
leaf
 10
-185.010592
 20
528.879434
 30
-89.379175
 70
   192
  0
VERTEX
  8
leaf
 10
-290.640883
 20
565.479779
 30
-55.239368
 70
   192
  0
VERTEX
  8
leaf
 10
-290.640883
 20
565.479779
 30
55.239368
 70
   192
  0
VERTEX
  8
leaf
 10
-119.727482
 20
682.055246
 30
0.000000
 70
   192
  0
VERTEX
  8
leaf
 10
-250.293702
 20
682.055246
 30
0.000000
 70
   192
  0
VERTEX
  8
leaf
 10
-250.293702
 20
506.259177
 30
0.000000
 70
   192
  0
VERTEX
  8
leaf
 10
-119.727482
 20
506.259177
 30
0.000000
 70
   192
  0
VERTEX
  8
leaf
 10
-185.010592
 20
697.137676
 30
0.000000
 70
   192
  0
VERTEX
  8
leaf
 10
-146.638143
 20
677.850744
 30
52.535761
 70
   192
  0
VERTEX
  8
leaf
 10
-223.383042
 20
677.850744
 30
52.535761
 70
   192
  0
VERTEX
  8
leaf
 10
-84.550216
 20
646.643832
 30
32.468886
 70
   192
  0
VERTEX
  8
leaf
 10
-122.922665
 20
586.992923
 30
85.004647
 70
   192
  0
VERTEX
  8
leaf
 10
-84.550216
 20
646.643832
 30
-32.468886
 70
   192
  0
VERTEX
  8
leaf
 10
-60.834738
 20
565.479779
 30
0.000000
 70
   192
  0
VERTEX
  8
leaf
 10
-146.638143
 20
677.850744
 30
-52.535761
 70
   192
  0
VERTEX
  8
leaf
 10
-122.922665
 20
586.992923
 30
-85.004647
 70
   192
  0
VERTEX
  8
leaf
 10
-223.383042
 20
677.850744
 30
-52.535761
 70
   192
  0
VERTEX
  8
leaf
 10
-285.470969
 20
646.643832
 30
-32.468886
 70
   192
  0
VERTEX
  8
leaf
 10
-247.098519
 20
586.992923
 30
-85.004647
 70
   192
  0
VERTEX
  8
leaf
 10
-285.470969
 20
646.643832
 30
32.468886
 70
   192
  0
VERTEX
  8
leaf
 10
-309.186447
 20
565.479779
 30
0.000000
 70
   192
  0
VERTEX
  8
leaf
 10
-247.098519
 20
586.992923
 30
85.004647
 70
   192
  0
VERTEX
  8
leaf
 10
-185.010592
 20
495.861786
 30
0.000000
 70
   192
  0
VERTEX
  8
leaf
 10
-223.383042
 20
509.157639
 30
52.535761
 70
   192
  0
VERTEX
  8
leaf
 10
-146.638143
 20
509.157639
 30
52.535761
 70
   192
  0
VERTEX
  8
leaf
 10
-84.550216
 20
530.670783
 30
32.468886
 70
   192
  0
VERTEX
  8
leaf
 10
-122.922665
 20
543.966636
 30
85.004647
 70
   192
  0
VERTEX
  8
leaf
 10
-84.550216
 20
530.670783
 30
-32.468886
 70
   192
  0
VERTEX
  8
leaf
 10
-122.922665
 20
543.966636
 30
-85.004647
 70
   192
  0
VERTEX
  8
leaf
 10
-146.638143
 20
509.157639
 30
-52.535761
 70
   192
  0
VERTEX
  8
leaf
 10
-223.383042
 20
509.157639
 30
-52.535761
 70
   192
  0
VERTEX
  8
leaf
 10
-247.098519
 20
543.966636
 30
-85.004647
 70
   192
  0
VERTEX
  8
leaf
 10
-285.470969
 20
530.670783
 30
-32.468886
 70
   192
  0
VERTEX
  8
leaf
 10
-285.470969
 20
530.670783
 30
32.468886
 70
   192
  0
VERTEX
  8
leaf
 10
-247.098519
 20
543.966636
 30
85.004647
 70
   192
  0
VERTEX
  8
leaf
 10
-185.010592
 20
565.479779
 30
105.071522
 70
   192
  0
VERTEX
  8
leaf
 10
-185.010592
 20
565.479779
 30
-105.071522
 70
   192
  0
VERTEX
  8
leaf
 10
0.0
 20
0.0
 30
0.0
 70
   128
 71
   10
 72
   13
 73
   15
  0
VERTEX
  8
leaf
 10
0.0
 20
0.0
 30
0.0
 70
   128
 71
   13
 72
   9
 73
   14
  0
VERTEX
  8
leaf
 10
0.0
 20
0.0
 30
0.0
 70
   128
 71
   14
 72
   15
 73
   13
  0
VERTEX
  8
leaf
 10
0.0
 20
0.0
 30
0.0
 70
   128
 71
   15
 72
   14
 73
   1
  0
VERTEX
  8
leaf
 10
0.0
 20
0.0
 30
0.0
 70
   128
 71
   9
 72
   16
 73
   14
  0
VERTEX
  8
leaf
 10
0.0
 20
0.0
 30
0.0
 70
   128
 71
   16
 72
   3
 73
   17
  0
VERTEX
  8
leaf
 10
0.0
 20
0.0
 30
0.0
 70
   128
 71
   17
 72
   14
 73
   16
  0
VERTEX
  8
leaf
 10
0.0
 20
0.0
 30
0.0
 70
   128
 71
   14
 72
   17
 73
   1
  0
VERTEX
  8
leaf
 10
0.0
 20
0.0
 30
0.0
 70
   128
 71
   9
 72
   18
 73
   16
  0
VERTEX
  8
leaf
 10
0.0
 20
0.0
 30
0.0
 70
   128
 71
   18
 72
   4
 73
   19
  0
VERTEX
  8
leaf
 10
0.0
 20
0.0
 30
0.0
 70
   128
 71
   19
 72
   16
 73
   18
  0
VERTEX
  8
leaf
 10
0.0
 20
0.0
 30
0.0
 70
   128
 71
   16
 72
   19
 73
   3
  0
VERTEX
  8
leaf
 10
0.0
 20
0.0
 30
0.0
 70
   128
 71
   9
 72
   20
 73
   18
  0
VERTEX
  8
leaf
 10
0.0
 20
0.0
 30
0.0
 70
   128
 71
   20
 72
   5
 73
   21
  0
VERTEX
  8
leaf
 10
0.0
 20
0.0
 30
0.0
 70
   128
 71
   21
 72
   18
 73
   20
  0
VERTEX
  8
leaf
 10
0.0
 20
0.0
 30
0.0
 70
   128
 71
   18
 72
   21
 73
   4
  0
VERTEX
  8
leaf
 10
0.0
 20
0.0
 30
0.0
 70
   128
 71
   9
 72
   13
 73
   20
  0
VERTEX
  8
leaf
 10
0.0
 20
0.0
 30
0.0
 70
   128
 71
   13
 72
   10
 73
   22
  0
VERTEX
  8
leaf
 10
0.0
 20
0.0
 30
0.0
 70
   128
 71
   22
 72
   20
 73
   13
  0
VERTEX
  8
leaf
 10
0.0
 20
0.0
 30
0.0
 70
   128
 71
   20
 72
   22
 73
   5
  0
VERTEX
  8
leaf
 10
0.0
 20
0.0
 30
0.0
 70
   128
 71
   5
 72
   22
 73
   24
  0
VERTEX
  8
leaf
 10
0.0
 20
0.0
 30
0.0
 70
   128
 71
   22
 72
   10
 73
   23
  0
VERTEX
  8
leaf
 10
0.0
 20
0.0
 30
0.0
 70
   128
 71
   23
 72
   24
 73
   22
  0
VERTEX
  8
leaf
 10
0.0
 20
0.0
 30
0.0
 70
   128
 71
   24
 72
   23
 73
   7
  0
VERTEX
  8
leaf
 10
0.0
 20
0.0
 30
0.0
 70
   128
 71
   7
 72
   23
 73
   26
  0
VERTEX
  8
leaf
 10
0.0
 20
0.0
 30
0.0
 70
   128
 71
   23
 72
   10
 73
   25
  0
VERTEX
  8
leaf
 10
0.0
 20
0.0
 30
0.0
 70
   128
 71
   25
 72
   26
 73
   23
  0
VERTEX
  8
leaf
 10
0.0
 20
0.0
 30
0.0
 70
   128
 71
   26
 72
   25
 73
   8
  0
VERTEX
  8
leaf
 10
0.0
 20
0.0
 30
0.0
 70
   128
 71
   10
 72
   15
 73
   25
  0
VERTEX
  8
leaf
 10
0.0
 20
0.0
 30
0.0
 70
   128
 71
   15
 72
   1
 73
   27
  0
VERTEX
  8
leaf
 10
0.0
 20
0.0
 30
0.0
 70
   128
 71
   27
 72
   25
 73
   15
  0
VERTEX
  8
leaf
 10
0.0
 20
0.0
 30
0.0
 70
   128
 71
   25
 72
   27
 73
   8
  0
VERTEX
  8
leaf
 10
0.0
 20
0.0
 30
0.0
 70
   128
 71
   12
 72
   28
 73
   30
  0
VERTEX
  8
leaf
 10
0.0
 20
0.0
 30
0.0
 70
   128
 71
   28
 72
   11
 73
   29
  0
VERTEX
  8
leaf
 10
0.0
 20
0.0
 30
0.0
 70
   128
 71
   29
 72
   30
 73
   28
  0
VERTEX
  8
leaf
 10
0.0
 20
0.0
 30
0.0
 70
   128
 71
   30
 72
   29
 73
   2
  0
VERTEX
  8
leaf
 10
0.0
 20
0.0
 30
0.0
 70
   128
 71
   3
 72
   31
 73
   32
  0
VERTEX
  8
leaf
 10
0.0
 20
0.0
 30
0.0
 70
   128
 71
   31
 72
   12
 73
   30
  0
VERTEX
  8
leaf
 10
0.0
 20
0.0
 30
0.0
 70
   128
 71
   30
 72
   32
 73
   31
  0
VERTEX
  8
leaf
 10
0.0
 20
0.0
 30
0.0
 70
   128
 71
   32
 72
   30
 73
   2
  0
VERTEX
  8
leaf
 10
0.0
 20
0.0
 30
0.0
 70
   128
 71
   3
 72
   19
 73
   31
  0
VERTEX
  8
leaf
 10
0.0
 20
0.0
 30
0.0
 70
   128
 71
   19
 72
   4
 73
   33
  0
VERTEX
  8
leaf
 10
0.0
 20
0.0
 30
0.0
 70
   128
 71
   33
 72
   31
 73
   19
  0
VERTEX
  8
leaf
 10
0.0
 20
0.0
 30
0.0
 70
   128
 71
   31
 72
   33
 73
   12
  0
VERTEX
  8
leaf
 10
0.0
 20
0.0
 30
0.0
 70
   128
 71
   4
 72
   34
 73
   33
  0
VERTEX
  8
leaf
 10
0.0
 20
0.0
 30
0.0
 70
   128
 71
   34
 72
   6
 73
   35
  0
VERTEX
  8
leaf
 10
0.0
 20
0.0
 30
0.0
 70
   128
 71
   35
 72
   33
 73
   34
  0
VERTEX
  8
leaf
 10
0.0
 20
0.0
 30
0.0
 70
   128
 71
   33
 72
   35
 73
   12
  0
VERTEX
  8
leaf
 10
0.0
 20
0.0
 30
0.0
 70
   128
 71
   6
 72
   36
 73
   35
  0
VERTEX
  8
leaf
 10
0.0
 20
0.0
 30
0.0
 70
   128
 71
   36
 72
   11
 73
   28
  0
VERTEX
  8
leaf
 10
0.0
 20
0.0
 30
0.0
 70
   128
 71
   28
 72
   35
 73
   36
  0
VERTEX
  8
leaf
 10
0.0
 20
0.0
 30
0.0
 70
   128
 71
   35
 72
   28
 73
   12
  0
VERTEX
  8
leaf
 10
0.0
 20
0.0
 30
0.0
 70
   128
 71
   6
 72
   37
 73
   36
  0
VERTEX
  8
leaf
 10
0.0
 20
0.0
 30
0.0
 70
   128
 71
   37
 72
   7
 73
   38
  0
VERTEX
  8
leaf
 10
0.0
 20
0.0
 30
0.0
 70
   128
 71
   38
 72
   36
 73
   37
  0
VERTEX
  8
leaf
 10
0.0
 20
0.0
 30
0.0
 70
   128
 71
   36
 72
   38
 73
   11
  0
VERTEX
  8
leaf
 10
0.0
 20
0.0
 30
0.0
 70
   128
 71
   7
 72
   26
 73
   38
  0
VERTEX
  8
leaf
 10
0.0
 20
0.0
 30
0.0
 70
   128
 71
   26
 72
   8
 73
   39
  0
VERTEX
  8
leaf
 10
0.0
 20
0.0
 30
0.0
 70
   128
 71
   39
 72
   38
 73
   26
  0
VERTEX
  8
leaf
 10
0.0
 20
0.0
 30
0.0
 70
   128
 71
   38
 72
   39
 73
   11
  0
VERTEX
  8
leaf
 10
0.0
 20
0.0
 30
0.0
 70
   128
 71
   8
 72
   40
 73
   39
  0
VERTEX
  8
leaf
 10
0.0
 20
0.0
 30
0.0
 70
   128
 71
   40
 72
   2
 73
   29
  0
VERTEX
  8
leaf
 10
0.0
 20
0.0
 30
0.0
 70
   128
 71
   29
 72
   39
 73
   40
  0
VERTEX
  8
leaf
 10
0.0
 20
0.0
 30
0.0
 70
   128
 71
   39
 72
   29
 73
   11
  0
VERTEX
  8
leaf
 10
0.0
 20
0.0
 30
0.0
 70
   128
 71
   2
 72
   40
 73
   41
  0
VERTEX
  8
leaf
 10
0.0
 20
0.0
 30
0.0
 70
   128
 71
   40
 72
   8
 73
   27
  0
VERTEX
  8
leaf
 10
0.0
 20
0.0
 30
0.0
 70
   128
 71
   27
 72
   41
 73
   40
  0
VERTEX
  8
leaf
 10
0.0
 20
0.0
 30
0.0
 70
   128
 71
   41
 72
   27
 73
   1
  0
VERTEX
  8
leaf
 10
0.0
 20
0.0
 30
0.0
 70
   128
 71
   3
 72
   32
 73
   17
  0
VERTEX
  8
leaf
 10
0.0
 20
0.0
 30
0.0
 70
   128
 71
   32
 72
   2
 73
   41
  0
VERTEX
  8
leaf
 10
0.0
 20
0.0
 30
0.0
 70
   128
 71
   41
 72
   17
 73
   32
  0
VERTEX
  8
leaf
 10
0.0
 20
0.0
 30
0.0
 70
   128
 71
   17
 72
   41
 73
   1
  0
VERTEX
  8
leaf
 10
0.0
 20
0.0
 30
0.0
 70
   128
 71
   5
 72
   42
 73
   21
  0
VERTEX
  8
leaf
 10
0.0
 20
0.0
 30
0.0
 70
   128
 71
   42
 72
   6
 73
   34
  0
VERTEX
  8
leaf
 10
0.0
 20
0.0
 30
0.0
 70
   128
 71
   34
 72
   21
 73
   42
  0
VERTEX
  8
leaf
 10
0.0
 20
0.0
 30
0.0
 70
   128
 71
   21
 72
   34
 73
   4
  0
VERTEX
  8
leaf
 10
0.0
 20
0.0
 30
0.0
 70
   128
 71
   5
 72
   24
 73
   42
  0
VERTEX
  8
leaf
 10
0.0
 20
0.0
 30
0.0
 70
   128
 71
   24
 72
   7
 73
   37
  0
VERTEX
  8
leaf
 10
0.0
 20
0.0
 30
0.0
 70
   128
 71
   37
 72
   42
 73
   24
  0
VERTEX
  8
leaf
 10
0.0
 20
0.0
 30
0.0
 70
   128
 71
   42
 72
   37
 73
   6
  0
SEQEND
  0
POLYLINE
  8
leaf_2
 66
   1
 10
0.0
 20
0.0
 30
0.0
 70
   64
 71
   42
 72
   80
  0
VERTEX
  8
leaf_2
 10
51.842040
 20
645.591529
 30
108.866231
 70
   192
  0
VERTEX
  8
leaf_2
 10
51.842040
 20
498.986263
 30
108.866231
 70
   192
  0
VERTEX
  8
leaf_2
 10
180.502565
 20
543.566464
 30
67.283031
 70
   192
  0
VERTEX
  8
leaf_2
 10
180.502565
 20
543.566464
 30
-67.283031
 70
   192
  0
VERTEX
  8
leaf_2
 10
51.842040
 20
645.591529
 30
-108.866231
 70
   192
  0
VERTEX
  8
leaf_2
 10
51.842040
 20
498.986263
 30
-108.866231
 70
   192
  0
VERTEX
  8
leaf_2
 10
-76.818485
 20
543.566464
 30
-67.283031
 70
   192
  0
VERTEX
  8
leaf_2
 10
-76.818485
 20
543.566464
 30
67.283031
 70
   192
  0
VERTEX
  8
leaf_2
 10
131.358617
 20
685.558507
 30
0.000000
 70
   192
  0
VERTEX
  8
leaf_2
 10
-27.674538
 20
685.558507
 30
0.000000
 70
   192
  0
VERTEX
  8
leaf_2
 10
-27.674538
 20
471.434183
 30
0.000000
 70
   192
  0
VERTEX
  8
leaf_2
 10
131.358617
 20
471.434183
 30
0.000000
 70
   192
  0
VERTEX
  8
leaf_2
 10
51.842040
 20
703.929310
 30
0.000000
 70
   192
  0
VERTEX
  8
leaf_2
 10
98.580711
 20
680.437310
 30
63.989965
 70
   192
  0
VERTEX
  8
leaf_2
 10
5.103368
 20
680.437310
 30
63.989965
 70
   192
  0
VERTEX
  8
leaf_2
 10
174.205470
 20
642.426456
 30
39.547973
 70
   192
  0
VERTEX
  8
leaf_2
 10
127.466799
 20
569.770049
 30
103.537938
 70
   192
  0
VERTEX
  8
leaf_2
 10
174.205470
 20
642.426456
 30
-39.547973
 70
   192
  0
VERTEX
  8
leaf_2
 10
203.091558
 20
543.566464
 30
0.000000
 70
   192
  0
VERTEX
  8
leaf_2
 10
98.580711
 20
680.437310
 30
-63.989965
 70
   192
  0
VERTEX
  8
leaf_2
 10
127.466799
 20
569.770049
 30
-103.537938
 70
   192
  0
VERTEX
  8
leaf_2
 10
5.103368
 20
680.437310
 30
-63.989965
 70
   192
  0
VERTEX
  8
leaf_2
 10
-70.521391
 20
642.426456
 30
-39.547973
 70
   192
  0
VERTEX
  8
leaf_2
 10
-23.782719
 20
569.770049
 30
-103.537938
 70
   192
  0
VERTEX
  8
leaf_2
 10
-70.521391
 20
642.426456
 30
39.547973
 70
   192
  0
VERTEX
  8
leaf_2
 10
-99.407478
 20
543.566464
 30
0.000000
 70
   192
  0
VERTEX
  8
leaf_2
 10
-23.782719
 20
569.770049
 30
103.537938
 70
   192
  0
VERTEX
  8
leaf_2
 10
51.842040
 20
458.769882
 30
0.000000
 70
   192
  0
VERTEX
  8
leaf_2
 10
5.103368
 20
474.964589
 30
63.989965
 70
   192
  0
VERTEX
  8
leaf_2
 10
98.580711
 20
474.964589
 30
63.989965
 70
   192
  0
VERTEX
  8
leaf_2
 10
174.205470
 20
501.168173
 30
39.547973
 70
   192
  0
VERTEX
  8
leaf_2
 10
127.466799
 20
517.362879
 30
103.537938
 70
   192
  0
VERTEX
  8
leaf_2
 10
174.205470
 20
501.168173
 30
-39.547973
 70
   192
  0
VERTEX
  8
leaf_2
 10
127.466799
 20
517.362879
 30
-103.537938
 70
   192
  0
VERTEX
  8
leaf_2
 10
98.580711
 20
474.964589
 30
-63.989965
 70
   192
  0
VERTEX
  8
leaf_2
 10
5.103368
 20
474.964589
 30
-63.989965
 70
   192
  0
VERTEX
  8
leaf_2
 10
-23.782719
 20
517.362879
 30
-103.537938
 70
   192
  0
VERTEX
  8
leaf_2
 10
-70.521391
 20
501.168173
 30
-39.547973
 70
   192
  0
VERTEX
  8
leaf_2
 10
-70.521391
 20
501.168173
 30
39.547973
 70
   192
  0
VERTEX
  8
leaf_2
 10
-23.782719
 20
517.362879
 30
103.537938
 70
   192
  0
VERTEX
  8
leaf_2
 10
51.842040
 20
543.566464
 30
127.979930
 70
   192
  0
VERTEX
  8
leaf_2
 10
51.842040
 20
543.566464
 30
-127.979930
 70
   192
  0
VERTEX
  8
leaf_2
 10
0.0
 20
0.0
 30
0.0
 70
   128
 71
   10
 72
   13
 73
   15
  0
VERTEX
  8
leaf_2
 10
0.0
 20
0.0
 30
0.0
 70
   128
 71
   13
 72
   9
 73
   14
  0
VERTEX
  8
leaf_2
 10
0.0
 20
0.0
 30
0.0
 70
   128
 71
   14
 72
   15
 73
   13
  0
VERTEX
  8
leaf_2
 10
0.0
 20
0.0
 30
0.0
 70
   128
 71
   15
 72
   14
 73
   1
  0
VERTEX
  8
leaf_2
 10
0.0
 20
0.0
 30
0.0
 70
   128
 71
   9
 72
   16
 73
   14
  0
VERTEX
  8
leaf_2
 10
0.0
 20
0.0
 30
0.0
 70
   128
 71
   16
 72
   3
 73
   17
  0
VERTEX
  8
leaf_2
 10
0.0
 20
0.0
 30
0.0
 70
   128
 71
   17
 72
   14
 73
   16
  0
VERTEX
  8
leaf_2
 10
0.0
 20
0.0
 30
0.0
 70
   128
 71
   14
 72
   17
 73
   1
  0
VERTEX
  8
leaf_2
 10
0.0
 20
0.0
 30
0.0
 70
   128
 71
   9
 72
   18
 73
   16
  0
VERTEX
  8
leaf_2
 10
0.0
 20
0.0
 30
0.0
 70
   128
 71
   18
 72
   4
 73
   19
  0
VERTEX
  8
leaf_2
 10
0.0
 20
0.0
 30
0.0
 70
   128
 71
   19
 72
   16
 73
   18
  0
VERTEX
  8
leaf_2
 10
0.0
 20
0.0
 30
0.0
 70
   128
 71
   16
 72
   19
 73
   3
  0
VERTEX
  8
leaf_2
 10
0.0
 20
0.0
 30
0.0
 70
   128
 71
   9
 72
   20
 73
   18
  0
VERTEX
  8
leaf_2
 10
0.0
 20
0.0
 30
0.0
 70
   128
 71
   20
 72
   5
 73
   21
  0
VERTEX
  8
leaf_2
 10
0.0
 20
0.0
 30
0.0
 70
   128
 71
   21
 72
   18
 73
   20
  0
VERTEX
  8
leaf_2
 10
0.0
 20
0.0
 30
0.0
 70
   128
 71
   18
 72
   21
 73
   4
  0
VERTEX
  8
leaf_2
 10
0.0
 20
0.0
 30
0.0
 70
   128
 71
   9
 72
   13
 73
   20
  0
VERTEX
  8
leaf_2
 10
0.0
 20
0.0
 30
0.0
 70
   128
 71
   13
 72
   10
 73
   22
  0
VERTEX
  8
leaf_2
 10
0.0
 20
0.0
 30
0.0
 70
   128
 71
   22
 72
   20
 73
   13
  0
VERTEX
  8
leaf_2
 10
0.0
 20
0.0
 30
0.0
 70
   128
 71
   20
 72
   22
 73
   5
  0
VERTEX
  8
leaf_2
 10
0.0
 20
0.0
 30
0.0
 70
   128
 71
   5
 72
   22
 73
   24
  0
VERTEX
  8
leaf_2
 10
0.0
 20
0.0
 30
0.0
 70
   128
 71
   22
 72
   10
 73
   23
  0
VERTEX
  8
leaf_2
 10
0.0
 20
0.0
 30
0.0
 70
   128
 71
   23
 72
   24
 73
   22
  0
VERTEX
  8
leaf_2
 10
0.0
 20
0.0
 30
0.0
 70
   128
 71
   24
 72
   23
 73
   7
  0
VERTEX
  8
leaf_2
 10
0.0
 20
0.0
 30
0.0
 70
   128
 71
   7
 72
   23
 73
   26
  0
VERTEX
  8
leaf_2
 10
0.0
 20
0.0
 30
0.0
 70
   128
 71
   23
 72
   10
 73
   25
  0
VERTEX
  8
leaf_2
 10
0.0
 20
0.0
 30
0.0
 70
   128
 71
   25
 72
   26
 73
   23
  0
VERTEX
  8
leaf_2
 10
0.0
 20
0.0
 30
0.0
 70
   128
 71
   26
 72
   25
 73
   8
  0
VERTEX
  8
leaf_2
 10
0.0
 20
0.0
 30
0.0
 70
   128
 71
   10
 72
   15
 73
   25
  0
VERTEX
  8
leaf_2
 10
0.0
 20
0.0
 30
0.0
 70
   128
 71
   15
 72
   1
 73
   27
  0
VERTEX
  8
leaf_2
 10
0.0
 20
0.0
 30
0.0
 70
   128
 71
   27
 72
   25
 73
   15
  0
VERTEX
  8
leaf_2
 10
0.0
 20
0.0
 30
0.0
 70
   128
 71
   25
 72
   27
 73
   8
  0
VERTEX
  8
leaf_2
 10
0.0
 20
0.0
 30
0.0
 70
   128
 71
   12
 72
   28
 73
   30
  0
VERTEX
  8
leaf_2
 10
0.0
 20
0.0
 30
0.0
 70
   128
 71
   28
 72
   11
 73
   29
  0
VERTEX
  8
leaf_2
 10
0.0
 20
0.0
 30
0.0
 70
   128
 71
   29
 72
   30
 73
   28
  0
VERTEX
  8
leaf_2
 10
0.0
 20
0.0
 30
0.0
 70
   128
 71
   30
 72
   29
 73
   2
  0
VERTEX
  8
leaf_2
 10
0.0
 20
0.0
 30
0.0
 70
   128
 71
   3
 72
   31
 73
   32
  0
VERTEX
  8
leaf_2
 10
0.0
 20
0.0
 30
0.0
 70
   128
 71
   31
 72
   12
 73
   30
  0
VERTEX
  8
leaf_2
 10
0.0
 20
0.0
 30
0.0
 70
   128
 71
   30
 72
   32
 73
   31
  0
VERTEX
  8
leaf_2
 10
0.0
 20
0.0
 30
0.0
 70
   128
 71
   32
 72
   30
 73
   2
  0
VERTEX
  8
leaf_2
 10
0.0
 20
0.0
 30
0.0
 70
   128
 71
   3
 72
   19
 73
   31
  0
VERTEX
  8
leaf_2
 10
0.0
 20
0.0
 30
0.0
 70
   128
 71
   19
 72
   4
 73
   33
  0
VERTEX
  8
leaf_2
 10
0.0
 20
0.0
 30
0.0
 70
   128
 71
   33
 72
   31
 73
   19
  0
VERTEX
  8
leaf_2
 10
0.0
 20
0.0
 30
0.0
 70
   128
 71
   31
 72
   33
 73
   12
  0
VERTEX
  8
leaf_2
 10
0.0
 20
0.0
 30
0.0
 70
   128
 71
   4
 72
   34
 73
   33
  0
VERTEX
  8
leaf_2
 10
0.0
 20
0.0
 30
0.0
 70
   128
 71
   34
 72
   6
 73
   35
  0
VERTEX
  8
leaf_2
 10
0.0
 20
0.0
 30
0.0
 70
   128
 71
   35
 72
   33
 73
   34
  0
VERTEX
  8
leaf_2
 10
0.0
 20
0.0
 30
0.0
 70
   128
 71
   33
 72
   35
 73
   12
  0
VERTEX
  8
leaf_2
 10
0.0
 20
0.0
 30
0.0
 70
   128
 71
   6
 72
   36
 73
   35
  0
VERTEX
  8
leaf_2
 10
0.0
 20
0.0
 30
0.0
 70
   128
 71
   36
 72
   11
 73
   28
  0
VERTEX
  8
leaf_2
 10
0.0
 20
0.0
 30
0.0
 70
   128
 71
   28
 72
   35
 73
   36
  0
VERTEX
  8
leaf_2
 10
0.0
 20
0.0
 30
0.0
 70
   128
 71
   35
 72
   28
 73
   12
  0
VERTEX
  8
leaf_2
 10
0.0
 20
0.0
 30
0.0
 70
   128
 71
   6
 72
   37
 73
   36
  0
VERTEX
  8
leaf_2
 10
0.0
 20
0.0
 30
0.0
 70
   128
 71
   37
 72
   7
 73
   38
  0
VERTEX
  8
leaf_2
 10
0.0
 20
0.0
 30
0.0
 70
   128
 71
   38
 72
   36
 73
   37
  0
VERTEX
  8
leaf_2
 10
0.0
 20
0.0
 30
0.0
 70
   128
 71
   36
 72
   38
 73
   11
  0
VERTEX
  8
leaf_2
 10
0.0
 20
0.0
 30
0.0
 70
   128
 71
   7
 72
   26
 73
   38
  0
VERTEX
  8
leaf_2
 10
0.0
 20
0.0
 30
0.0
 70
   128
 71
   26
 72
   8
 73
   39
  0
VERTEX
  8
leaf_2
 10
0.0
 20
0.0
 30
0.0
 70
   128
 71
   39
 72
   38
 73
   26
  0
VERTEX
  8
leaf_2
 10
0.0
 20
0.0
 30
0.0
 70
   128
 71
   38
 72
   39
 73
   11
  0
VERTEX
  8
leaf_2
 10
0.0
 20
0.0
 30
0.0
 70
   128
 71
   8
 72
   40
 73
   39
  0
VERTEX
  8
leaf_2
 10
0.0
 20
0.0
 30
0.0
 70
   128
 71
   40
 72
   2
 73
   29
  0
VERTEX
  8
leaf_2
 10
0.0
 20
0.0
 30
0.0
 70
   128
 71
   29
 72
   39
 73
   40
  0
VERTEX
  8
leaf_2
 10
0.0
 20
0.0
 30
0.0
 70
   128
 71
   39
 72
   29
 73
   11
  0
VERTEX
  8
leaf_2
 10
0.0
 20
0.0
 30
0.0
 70
   128
 71
   2
 72
   40
 73
   41
  0
VERTEX
  8
leaf_2
 10
0.0
 20
0.0
 30
0.0
 70
   128
 71
   40
 72
   8
 73
   27
  0
VERTEX
  8
leaf_2
 10
0.0
 20
0.0
 30
0.0
 70
   128
 71
   27
 72
   41
 73
   40
  0
VERTEX
  8
leaf_2
 10
0.0
 20
0.0
 30
0.0
 70
   128
 71
   41
 72
   27
 73
   1
  0
VERTEX
  8
leaf_2
 10
0.0
 20
0.0
 30
0.0
 70
   128
 71
   3
 72
   32
 73
   17
  0
VERTEX
  8
leaf_2
 10
0.0
 20
0.0
 30
0.0
 70
   128
 71
   32
 72
   2
 73
   41
  0
VERTEX
  8
leaf_2
 10
0.0
 20
0.0
 30
0.0
 70
   128
 71
   41
 72
   17
 73
   32
  0
VERTEX
  8
leaf_2
 10
0.0
 20
0.0
 30
0.0
 70
   128
 71
   17
 72
   41
 73
   1
  0
VERTEX
  8
leaf_2
 10
0.0
 20
0.0
 30
0.0
 70
   128
 71
   5
 72
   42
 73
   21
  0
VERTEX
  8
leaf_2
 10
0.0
 20
0.0
 30
0.0
 70
   128
 71
   42
 72
   6
 73
   34
  0
VERTEX
  8
leaf_2
 10
0.0
 20
0.0
 30
0.0
 70
   128
 71
   34
 72
   21
 73
   42
  0
VERTEX
  8
leaf_2
 10
0.0
 20
0.0
 30
0.0
 70
   128
 71
   21
 72
   34
 73
   4
  0
VERTEX
  8
leaf_2
 10
0.0
 20
0.0
 30
0.0
 70
   128
 71
   5
 72
   24
 73
   42
  0
VERTEX
  8
leaf_2
 10
0.0
 20
0.0
 30
0.0
 70
   128
 71
   24
 72
   7
 73
   37
  0
VERTEX
  8
leaf_2
 10
0.0
 20
0.0
 30
0.0
 70
   128
 71
   37
 72
   42
 73
   24
  0
VERTEX
  8
leaf_2
 10
0.0
 20
0.0
 30
0.0
 70
   128
 71
   42
 72
   37
 73
   6
  0
SEQEND
  0
POLYLINE
  8
bark
 66
   1
 10
0.0
 20
0.0
 30
0.0
 70
   64
 71
   42
 72
   76
  0
VERTEX
  8
bark
 10
-42.793371
 20
334.067531
 30
-5.522375
 70
   192
  0
VERTEX
  8
bark
 10
-143.918274
 20
430.378770
 30
6.256989
 70
   192
  0
VERTEX
  8
bark
 10
-143.954574
 20
429.871331
 30
-1.048156
 70
   192
  0
VERTEX
  8
bark
 10
-139.032705
 20
433.635624
 30
-5.068056
 70
   192
  0
VERTEX
  8
bark
 10
-134.074537
 20
437.907355
 30
-1.782810
 70
   192
  0
VERTEX
  8
bark
 10
-134.038237
 20
438.414794
 30
5.522336
 70
   192
  0
VERTEX
  8
bark
 10
-138.960106
 20
434.650501
 30
9.542235
 70
   192
  0
VERTEX
  8
bark
 10
-207.271191
 20
531.911196
 30
-9.684501
 70
   192
  0
VERTEX
  8
bark
 10
-207.015280
 20
530.935448
 30
-16.916118
 70
   192
  0
VERTEX
  8
bark
 10
-201.508992
 20
533.763122
 30
-20.788960
 70
   192
  0
VERTEX
  8
bark
 10
-196.258614
 20
537.566543
 30
-17.430185
 70
   192
  0
VERTEX
  8
bark
 10
-196.514524
 20
538.542292
 30
-10.198568
 70
   192
  0
VERTEX
  8
bark
 10
-202.020812
 20
535.714618
 30
-6.325726
 70
   192
  0
VERTEX
  8
bark
 10
-42.352950
 20
334.192251
 30
1.764897
 70
   192
  0
VERTEX
  8
bark
 10
-38.679744
 20
338.597262
 30
-9.506527
 70
   192
  0
VERTEX
  8
bark
 10
-34.125697
 20
343.251712
 30
-6.203407
 70
   192
  0
VERTEX
  8
bark
 10
-37.757027
 20
343.376432
 30
-3.119379
 70
   192
  0
VERTEX
  8
bark
 10
-41.870654
 20
338.846701
 30
0.864773
 70
   192
  0
VERTEX
  8
bark
 10
-19.005076
 20
-5.299755
 30
-6.408751
 70
   192
  0
VERTEX
  8
bark
 10
4.658059
 20
2.788180
 30
20.650914
 70
   192
  0
VERTEX
  8
bark
 10
-61.735444
 20
224.922740
 30
-30.953856
 70
   192
  0
VERTEX
  8
bark
 10
-50.348522
 20
226.301748
 30
-41.158901
 70
   192
  0
VERTEX
  8
bark
 10
-35.684364
 20
227.483257
 30
-36.150404
 70
   192
  0
VERTEX
  8
bark
 10
-32.407128
 20
227.285758
 30
-20.936862
 70
   192
  0
VERTEX
  8
bark
 10
-43.794050
 20
225.906751
 30
-10.731817
 70
   192
  0
VERTEX
  8
bark
 10
-58.458208
 20
224.725242
 30
-15.740314
 70
   192
  0
VERTEX
  8
bark
 10
-54.281913
 20
373.104683
 30
-3.474282
 70
   192
  0
VERTEX
  8
bark
 10
-45.637240
 20
372.894382
 30
-11.316038
 70
   192
  0
VERTEX
  8
bark
 10
-34.659996
 20
371.429572
 30
-7.841757
 70
   192
  0
VERTEX
  8
bark
 10
-32.327425
 20
370.175063
 30
3.474282
 70
   192
  0
VERTEX
  8
bark
 10
-40.972098
 20
370.385364
 30
11.316038
 70
   192
  0
VERTEX
  8
bark
 10
-51.949342
 20
371.850174
 30
7.841757
 70
   192
  0
VERTEX
  8
bark
 10
-7.457444
 20
573.544325
 30
-6.225456
 70
   192
  0
VERTEX
  8
bark
 10
-1.465301
 20
572.438075
 30
-4.328629
 70
   192
  0
VERTEX
  8
bark
 10
-0.084631
 20
572.183180
 30
1.896826
 70
   192
  0
VERTEX
  8
bark
 10
-4.696104
 20
573.034535
 30
6.225456
 70
   192
  0
VERTEX
  8
bark
 10
-3.293200
 20
-3.618742
 30
-20.650914
 70
   192
  0
VERTEX
  8
bark
 10
16.394304
 20
1.265733
 30
-14.242162
 70
   192
  0
VERTEX
  8
bark
 10
20.369934
 20
4.469194
 30
6.408751
 70
   192
  0
VERTEX
  8
bark
 10
-15.029446
 20
-2.096294
 30
14.242162
 70
   192
  0
VERTEX
  8
bark
 10
-12.068917
 20
574.395681
 30
-1.896826
 70
   192
  0
VERTEX
  8
bark
 10
-10.688247
 20
574.140786
 30
4.328629
 70
   192
  0
VERTEX
  8
bark
 10
0.0
 20
0.0
 30
0.0
 70
   128
 71
   14
 72
   1
 73
   3
  0
VERTEX
  8
bark
 10
0.0
 20
0.0
 30
0.0
 70
   128
 71
   1
 72
   15
 73
   4
  0
VERTEX
  8
bark
 10
0.0
 20
0.0
 30
0.0
 70
   128
 71
   15
 72
   16
 73
   5
  0
VERTEX
  8
bark
 10
0.0
 20
0.0
 30
0.0
 70
   128
 71
   16
 72
   17
 73
   6
  0
VERTEX
  8
bark
 10
0.0
 20
0.0
 30
0.0
 70
   128
 71
   17
 72
   18
 73
   7
  0
VERTEX
  8
bark
 10
0.0
 20
0.0
 30
0.0
 70
   128
 71
   18
 72
   14
 73
   2
  0
VERTEX
  8
bark
 10
0.0
 20
0.0
 30
0.0
 70
   128
 71
   2
 72
   3
 73
   9
  0
VERTEX
  8
bark
 10
0.0
 20
0.0
 30
0.0
 70
   128
 71
   3
 72
   4
 73
   10
  0
VERTEX
  8
bark
 10
0.0
 20
0.0
 30
0.0
 70
   128
 71
   4
 72
   5
 73
   11
  0
VERTEX
  8
bark
 10
0.0
 20
0.0
 30
0.0
 70
   128
 71
   5
 72
   6
 73
   12
  0
VERTEX
  8
bark
 10
0.0
 20
0.0
 30
0.0
 70
   128
 71
   6
 72
   7
 73
   13
  0
VERTEX
  8
bark
 10
0.0
 20
0.0
 30
0.0
 70
   128
 71
   7
 72
   2
 73
   8
  0
VERTEX
  8
bark
 10
0.0
 20
0.0
 30
0.0
 70
   128
 71
   18
 72
   17
 73
   16
  0
VERTEX
  8
bark
 10
0.0
 20
0.0
 30
0.0
 70
   128
 71
   18
 72
   16
 73
   1
  0
VERTEX
  8
bark
 10
0.0
 20
0.0
 30
0.0
 70
   128
 71
   18
 72
   1
 73
   14
  0
VERTEX
  8
bark
 10
0.0
 20
0.0
 30
0.0
 70
   128
 71
   16
 72
   15
 73
   1
  0
VERTEX
  8
bark
 10
0.0
 20
0.0
 30
0.0
 70
   128
 71
   8
 72
   9
 73
   10
  0
VERTEX
  8
bark
 10
0.0
 20
0.0
 30
0.0
 70
   128
 71
   8
 72
   10
 73
   11
  0
VERTEX
  8
bark
 10
0.0
 20
0.0
 30
0.0
 70
   128
 71
   8
 72
   11
 73
   13
  0
VERTEX
  8
bark
 10
0.0
 20
0.0
 30
0.0
 70
   128
 71
   11
 72
   12
 73
   13
  0
VERTEX
  8
bark
 10
0.0
 20
0.0
 30
0.0
 70
   128
 71
   19
 72
   37
 73
   22
  0
VERTEX
  8
bark
 10
0.0
 20
0.0
 30
0.0
 70
   128
 71
   37
 72
   38
 73
   23
  0
VERTEX
  8
bark
 10
0.0
 20
0.0
 30
0.0
 70
   128
 71
   38
 72
   39
 73
   24
  0
VERTEX
  8
bark
 10
0.0
 20
0.0
 30
0.0
 70
   128
 71
   39
 72
   20
 73
   25
  0
VERTEX
  8
bark
 10
0.0
 20
0.0
 30
0.0
 70
   128
 71
   20
 72
   40
 73
   26
  0
VERTEX
  8
bark
 10
0.0
 20
0.0
 30
0.0
 70
   128
 71
   40
 72
   19
 73
   21
  0
VERTEX
  8
bark
 10
0.0
 20
0.0
 30
0.0
 70
   128
 71
   21
 72
   22
 73
   28
  0
VERTEX
  8
bark
 10
0.0
 20
0.0
 30
0.0
 70
   128
 71
   22
 72
   23
 73
   29
  0
VERTEX
  8
bark
 10
0.0
 20
0.0
 30
0.0
 70
   128
 71
   23
 72
   24
 73
   30
  0
VERTEX
  8
bark
 10
0.0
 20
0.0
 30
0.0
 70
   128
 71
   24
 72
   25
 73
   31
  0
VERTEX
  8
bark
 10
0.0
 20
0.0
 30
0.0
 70
   128
 71
   25
 72
   26
 73
   32
  0
VERTEX
  8
bark
 10
0.0
 20
0.0
 30
0.0
 70
   128
 71
   26
 72
   21
 73
   27
  0
VERTEX
  8
bark
 10
0.0
 20
0.0
 30
0.0
 70
   128
 71
   27
 72
   28
 73
   33
  0
VERTEX
  8
bark
 10
0.0
 20
0.0
 30
0.0
 70
   128
 71
   28
 72
   29
 73
   34
  0
VERTEX
  8
bark
 10
0.0
 20
0.0
 30
0.0
 70
   128
 71
   29
 72
   30
 73
   35
  0
VERTEX
  8
bark
 10
0.0
 20
0.0
 30
0.0
 70
   128
 71
   30
 72
   31
 73
   36
  0
VERTEX
  8
bark
 10
0.0
 20
0.0
 30
0.0
 70
   128
 71
   31
 72
   32
 73
   42
  0
VERTEX
  8
bark
 10
0.0
 20
0.0
 30
0.0
 70
   128
 71
   32
 72
   27
 73
   41
  0
VERTEX
  8
bark
 10
0.0
 20
0.0
 30
0.0
 70
   128
 71
   40
 72
   20
 73
   19
  0
VERTEX
  8
bark
 10
0.0
 20
0.0
 30
0.0
 70
   128
 71
   20
 72
   39
 73
   19
  0
VERTEX
  8
bark
 10
0.0
 20
0.0
 30
0.0
 70
   128
 71
   39
 72
   38
 73
   37
  0
VERTEX
  8
bark
 10
0.0
 20
0.0
 30
0.0
 70
   128
 71
   39
 72
   37
 73
   19
  0
VERTEX
  8
bark
 10
0.0
 20
0.0
 30
0.0
 70
   128
 71
   41
 72
   33
 73
   34
  0
VERTEX
  8
bark
 10
0.0
 20
0.0
 30
0.0
 70
   128
 71
   41
 72
   34
 73
   35
  0
VERTEX
  8
bark
 10
0.0
 20
0.0
 30
0.0
 70
   128
 71
   41
 72
   35
 73
   36
  0
VERTEX
  8
bark
 10
0.0
 20
0.0
 30
0.0
 70
   128
 71
   41
 72
   36
 73
   42
  0
VERTEX
  8
bark
 10
0.0
 20
0.0
 30
0.0
 70
   128
 71
   14
 72
   3
 73
   2
  0
VERTEX
  8
bark
 10
0.0
 20
0.0
 30
0.0
 70
   128
 71
   1
 72
   4
 73
   3
  0
VERTEX
  8
bark
 10
0.0
 20
0.0
 30
0.0
 70
   128
 71
   15
 72
   5
 73
   4
  0
VERTEX
  8
bark
 10
0.0
 20
0.0
 30
0.0
 70
   128
 71
   16
 72
   6
 73
   5
  0
VERTEX
  8
bark
 10
0.0
 20
0.0
 30
0.0
 70
   128
 71
   17
 72
   7
 73
   6
  0
VERTEX
  8
bark
 10
0.0
 20
0.0
 30
0.0
 70
   128
 71
   18
 72
   2
 73
   7
  0
VERTEX
  8
bark
 10
0.0
 20
0.0
 30
0.0
 70
   128
 71
   2
 72
   9
 73
   8
  0
VERTEX
  8
bark
 10
0.0
 20
0.0
 30
0.0
 70
   128
 71
   3
 72
   10
 73
   9
  0
VERTEX
  8
bark
 10
0.0
 20
0.0
 30
0.0
 70
   128
 71
   4
 72
   11
 73
   10
  0
VERTEX
  8
bark
 10
0.0
 20
0.0
 30
0.0
 70
   128
 71
   5
 72
   12
 73
   11
  0
VERTEX
  8
bark
 10
0.0
 20
0.0
 30
0.0
 70
   128
 71
   6
 72
   13
 73
   12
  0
VERTEX
  8
bark
 10
0.0
 20
0.0
 30
0.0
 70
   128
 71
   7
 72
   8
 73
   13
  0
VERTEX
  8
bark
 10
0.0
 20
0.0
 30
0.0
 70
   128
 71
   19
 72
   22
 73
   21
  0
VERTEX
  8
bark
 10
0.0
 20
0.0
 30
0.0
 70
   128
 71
   37
 72
   23
 73
   22
  0
VERTEX
  8
bark
 10
0.0
 20
0.0
 30
0.0
 70
   128
 71
   38
 72
   24
 73
   23
  0
VERTEX
  8
bark
 10
0.0
 20
0.0
 30
0.0
 70
   128
 71
   39
 72
   25
 73
   24
  0
VERTEX
  8
bark
 10
0.0
 20
0.0
 30
0.0
 70
   128
 71
   20
 72
   26
 73
   25
  0
VERTEX
  8
bark
 10
0.0
 20
0.0
 30
0.0
 70
   128
 71
   40
 72
   21
 73
   26
  0
VERTEX
  8
bark
 10
0.0
 20
0.0
 30
0.0
 70
   128
 71
   21
 72
   28
 73
   27
  0
VERTEX
  8
bark
 10
0.0
 20
0.0
 30
0.0
 70
   128
 71
   22
 72
   29
 73
   28
  0
VERTEX
  8
bark
 10
0.0
 20
0.0
 30
0.0
 70
   128
 71
   23
 72
   30
 73
   29
  0
VERTEX
  8
bark
 10
0.0
 20
0.0
 30
0.0
 70
   128
 71
   24
 72
   31
 73
   30
  0
VERTEX
  8
bark
 10
0.0
 20
0.0
 30
0.0
 70
   128
 71
   25
 72
   32
 73
   31
  0
VERTEX
  8
bark
 10
0.0
 20
0.0
 30
0.0
 70
   128
 71
   26
 72
   27
 73
   32
  0
VERTEX
  8
bark
 10
0.0
 20
0.0
 30
0.0
 70
   128
 71
   27
 72
   33
 73
   41
  0
VERTEX
  8
bark
 10
0.0
 20
0.0
 30
0.0
 70
   128
 71
   28
 72
   34
 73
   33
  0
VERTEX
  8
bark
 10
0.0
 20
0.0
 30
0.0
 70
   128
 71
   29
 72
   35
 73
   34
  0
VERTEX
  8
bark
 10
0.0
 20
0.0
 30
0.0
 70
   128
 71
   30
 72
   36
 73
   35
  0
VERTEX
  8
bark
 10
0.0
 20
0.0
 30
0.0
 70
   128
 71
   31
 72
   42
 73
   36
  0
VERTEX
  8
bark
 10
0.0
 20
0.0
 30
0.0
 70
   128
 71
   32
 72
   41
 73
   42
  0
SEQEND
  0
ENDSEC
  0
EOF
