999
FBX AutoCAD (*.DXF) exporter
  0
SECTION
  2
HEADER
  9
$ACADVER
  1
AC1008
  9
$UCSORG
 10
0.0
 20
0.0
 30
0.0
  9
$UCSXDIR
 10
1.0
 20
0.0
 30
0.0
  9
$TILEMODE
 70
   1
  9
$UCSYDIR
 10
0.0
 20
1.0
 30
0.0
  0
ENDSEC
  0
SECTION
  2
TABLES
  0
TABLE
  2
LTYPE
 70
   1
  0
LTYPE
  2
CONTINUOUS
 70
   64
  3
Solid line
 72
   65
 73
   0
 40
0.0
  0
ENDTAB
  0
TABLE
  2
LAYER
 70
   1
  0
LAYER
  2
fence22
 70
   0
 62
   250
  6
CONTINUOUS
  0
ENDTAB
  0
ENDSEC
  0
SECTION
  2
BLOCKS
  0
ENDSEC
  0
SECTION
  2
ENTITIES
  0
POLYLINE
  8
fence22
 66
   1
 10
0.0
 20
0.0
 30
0.0
 70
   64
 71
   150
 72
   276
  0
VERTEX
  8
fence22
 10
75.747747
 20
-18.929796
 30
-2.589637
 70
   192
  0
VERTEX
  8
fence22
 10
76.119161
 20
94.041617
 30
-2.580900
 70
   192
  0
VERTEX
  8
fence22
 10
89.560104
 20
-18.929796
 30
-2.589637
 70
   192
  0
VERTEX
  8
fence22
 10
93.108360
 20
94.041617
 30
-2.580900
 70
   192
  0
VERTEX
  8
fence22
 10
87.709599
 20
-18.929796
 30
-9.495816
 70
   192
  0
VERTEX
  8
fence22
 10
90.832239
 20
94.041617
 30
-11.075500
 70
   192
  0
VERTEX
  8
fence22
 10
82.653925
 20
-18.929796
 30
-14.551489
 70
   192
  0
VERTEX
  8
fence22
 10
84.613760
 20
94.041617
 30
-17.293979
 70
   192
  0
VERTEX
  8
fence22
 10
75.747747
 20
-18.929796
 30
-16.401994
 70
   192
  0
VERTEX
  8
fence22
 10
76.119161
 20
94.041617
 30
-19.570100
 70
   192
  0
VERTEX
  8
fence22
 10
68.841568
 20
-18.929796
 30
-14.551489
 70
   192
  0
VERTEX
  8
fence22
 10
67.624561
 20
94.041617
 30
-17.293979
 70
   192
  0
VERTEX
  8
fence22
 10
63.785894
 20
-18.929796
 30
-9.495816
 70
   192
  0
VERTEX
  8
fence22
 10
61.406082
 20
94.041617
 30
-11.075500
 70
   192
  0
VERTEX
  8
fence22
 10
61.935389
 20
-18.929796
 30
-2.589637
 70
   192
  0
VERTEX
  8
fence22
 10
59.129961
 20
94.041617
 30
-2.580900
 70
   192
  0
VERTEX
  8
fence22
 10
63.785894
 20
-18.929796
 30
4.316542
 70
   192
  0
VERTEX
  8
fence22
 10
61.406082
 20
94.041617
 30
5.913699
 70
   192
  0
VERTEX
  8
fence22
 10
68.841568
 20
-18.929796
 30
9.372215
 70
   192
  0
VERTEX
  8
fence22
 10
67.624561
 20
94.041617
 30
12.132178
 70
   192
  0
VERTEX
  8
fence22
 10
75.747747
 20
-18.929796
 30
11.222720
 70
   192
  0
VERTEX
  8
fence22
 10
76.119161
 20
94.041617
 30
14.408299
 70
   192
  0
VERTEX
  8
fence22
 10
82.653925
 20
-18.929796
 30
9.372215
 70
   192
  0
VERTEX
  8
fence22
 10
84.613760
 20
94.041617
 30
12.132178
 70
   192
  0
VERTEX
  8
fence22
 10
87.709599
 20
-18.929796
 30
4.316542
 70
   192
  0
VERTEX
  8
fence22
 10
90.832239
 20
94.041617
 30
5.913699
 70
   192
  0
VERTEX
  8
fence22
 10
86.449710
 20
4.365990
 30
-0.657415
 70
   192
  0
VERTEX
  8
fence22
 10
84.581107
 20
4.365990
 30
-7.631137
 70
   192
  0
VERTEX
  8
fence22
 10
79.475988
 20
4.365990
 30
-12.736256
 70
   192
  0
VERTEX
  8
fence22
 10
72.502266
 20
4.365990
 30
-14.604859
 70
   192
  0
VERTEX
  8
fence22
 10
65.528544
 20
4.365990
 30
-12.736256
 70
   192
  0
VERTEX
  8
fence22
 10
60.423425
 20
4.365990
 30
-7.631137
 70
   192
  0
VERTEX
  8
fence22
 10
58.554822
 20
4.365990
 30
-0.657415
 70
   192
  0
VERTEX
  8
fence22
 10
60.423425
 20
4.365990
 30
6.316307
 70
   192
  0
VERTEX
  8
fence22
 10
65.528544
 20
4.365990
 30
11.421426
 70
   192
  0
VERTEX
  8
fence22
 10
72.502266
 20
4.365990
 30
13.290029
 70
   192
  0
VERTEX
  8
fence22
 10
79.475988
 20
4.365990
 30
11.421426
 70
   192
  0
VERTEX
  8
fence22
 10
84.581107
 20
4.365990
 30
6.316307
 70
   192
  0
VERTEX
  8
fence22
 10
89.252447
 20
61.630496
 30
-4.806949
 70
   192
  0
VERTEX
  8
fence22
 10
87.178243
 20
61.416065
 30
-12.515358
 70
   192
  0
VERTEX
  8
fence22
 10
81.523201
 20
60.830230
 30
-18.135676
 70
   192
  0
VERTEX
  8
fence22
 10
73.825884
 20
60.029964
 30
-20.162251
 70
   192
  0
VERTEX
  8
fence22
 10
66.160018
 20
59.229698
 30
-18.072302
 70
   192
  0
VERTEX
  8
fence22
 10
60.567878
 20
58.643863
 30
-12.445478
 70
   192
  0
VERTEX
  8
fence22
 10
58.525126
 20
58.429433
 30
-4.789174
 70
   192
  0
VERTEX
  8
fence22
 10
60.567878
 20
58.643863
 30
2.864794
 70
   192
  0
VERTEX
  8
fence22
 10
66.160018
 20
59.229698
 30
8.485202
 70
   192
  0
VERTEX
  8
fence22
 10
73.825884
 20
60.029964
 30
10.566309
 70
   192
  0
VERTEX
  8
fence22
 10
81.523201
 20
60.830230
 30
8.530801
 70
   192
  0
VERTEX
  8
fence22
 10
87.178243
 20
61.416065
 30
2.903887
 70
   192
  0
VERTEX
  8
fence22
 10
99.730322
 20
48.751472
 30
-2.961596
 70
   192
  0
VERTEX
  8
fence22
 10
-96.315764
 20
48.751472
 30
-2.961596
 70
   192
  0
VERTEX
  8
fence22
 10
99.730322
 20
55.743441
 30
-2.961596
 70
   192
  0
VERTEX
  8
fence22
 10
-96.315764
 20
55.743441
 30
-2.961596
 70
   192
  0
VERTEX
  8
fence22
 10
99.730322
 20
54.806695
 30
-6.457581
 70
   192
  0
VERTEX
  8
fence22
 10
-96.315764
 20
54.806695
 30
-6.457581
 70
   192
  0
VERTEX
  8
fence22
 10
99.730322
 20
52.247456
 30
-9.016819
 70
   192
  0
VERTEX
  8
fence22
 10
-96.315764
 20
52.247456
 30
-9.016819
 70
   192
  0
VERTEX
  8
fence22
 10
99.730322
 20
48.751472
 30
-9.953565
 70
   192
  0
VERTEX
  8
fence22
 10
-96.315764
 20
48.751472
 30
-9.953565
 70
   192
  0
VERTEX
  8
fence22
 10
99.730322
 20
45.255487
 30
-9.016819
 70
   192
  0
VERTEX
  8
fence22
 10
-96.315764
 20
45.255487
 30
-9.016819
 70
   192
  0
VERTEX
  8
fence22
 10
99.730322
 20
42.696249
 30
-6.457581
 70
   192
  0
VERTEX
  8
fence22
 10
-96.315764
 20
42.696249
 30
-6.457581
 70
   192
  0
VERTEX
  8
fence22
 10
99.730322
 20
41.759503
 30
-2.961596
 70
   192
  0
VERTEX
  8
fence22
 10
-96.315764
 20
41.759503
 30
-2.961596
 70
   192
  0
VERTEX
  8
fence22
 10
99.730322
 20
42.696249
 30
0.534388
 70
   192
  0
VERTEX
  8
fence22
 10
-96.315764
 20
42.696249
 30
0.534388
 70
   192
  0
VERTEX
  8
fence22
 10
99.730322
 20
45.255487
 30
3.093627
 70
   192
  0
VERTEX
  8
fence22
 10
-96.315764
 20
45.255487
 30
3.093627
 70
   192
  0
VERTEX
  8
fence22
 10
99.730322
 20
48.751472
 30
4.030373
 70
   192
  0
VERTEX
  8
fence22
 10
-96.315764
 20
48.751472
 30
4.030373
 70
   192
  0
VERTEX
  8
fence22
 10
99.730322
 20
52.247456
 30
3.093627
 70
   192
  0
VERTEX
  8
fence22
 10
-96.315764
 20
52.247456
 30
3.093627
 70
   192
  0
VERTEX
  8
fence22
 10
99.730322
 20
54.806695
 30
0.534388
 70
   192
  0
VERTEX
  8
fence22
 10
-96.315764
 20
54.806695
 30
0.534388
 70
   192
  0
VERTEX
  8
fence22
 10
25.912216
 20
58.147825
 30
-3.450577
 70
   192
  0
VERTEX
  8
fence22
 10
25.912216
 20
57.211079
 30
-6.946562
 70
   192
  0
VERTEX
  8
fence22
 10
25.912216
 20
54.651840
 30
-9.505800
 70
   192
  0
VERTEX
  8
fence22
 10
25.912216
 20
51.155856
 30
-10.442547
 70
   192
  0
VERTEX
  8
fence22
 10
25.912216
 20
47.659871
 30
-9.505800
 70
   192
  0
VERTEX
  8
fence22
 10
25.912216
 20
45.100633
 30
-6.946562
 70
   192
  0
VERTEX
  8
fence22
 10
25.912216
 20
44.163887
 30
-3.450577
 70
   192
  0
VERTEX
  8
fence22
 10
25.912216
 20
45.100633
 30
0.045407
 70
   192
  0
VERTEX
  8
fence22
 10
25.912216
 20
47.659871
 30
2.604646
 70
   192
  0
VERTEX
  8
fence22
 10
25.912216
 20
51.155856
 30
3.541392
 70
   192
  0
VERTEX
  8
fence22
 10
25.912216
 20
54.651840
 30
2.604646
 70
   192
  0
VERTEX
  8
fence22
 10
25.912216
 20
57.211079
 30
0.045407
 70
   192
  0
VERTEX
  8
fence22
 10
-38.899164
 20
56.522847
 30
-2.961596
 70
   192
  0
VERTEX
  8
fence22
 10
-38.527050
 20
55.586101
 30
-6.457581
 70
   192
  0
VERTEX
  8
fence22
 10
-37.510415
 20
53.026863
 30
-9.016819
 70
   192
  0
VERTEX
  8
fence22
 10
-36.121665
 20
49.530878
 30
-9.953565
 70
   192
  0
VERTEX
  8
fence22
 10
-34.732916
 20
46.034893
 30
-9.016819
 70
   192
  0
VERTEX
  8
fence22
 10
-33.716281
 20
43.475655
 30
-6.457581
 70
   192
  0
VERTEX
  8
fence22
 10
-33.344166
 20
42.538909
 30
-2.961596
 70
   192
  0
VERTEX
  8
fence22
 10
-33.716281
 20
43.475655
 30
0.534388
 70
   192
  0
VERTEX
  8
fence22
 10
-34.732916
 20
46.034893
 30
3.093627
 70
   192
  0
VERTEX
  8
fence22
 10
-36.121665
 20
49.530878
 30
4.030373
 70
   192
  0
VERTEX
  8
fence22
 10
-37.510415
 20
53.026863
 30
3.093627
 70
   192
  0
VERTEX
  8
fence22
 10
-38.527050
 20
55.586101
 30
0.534388
 70
   192
  0
VERTEX
  8
fence22
 10
-67.457317
 20
-18.929796
 30
-2.725185
 70
   192
  0
VERTEX
  8
fence22
 10
-67.543168
 20
94.041617
 30
-2.590533
 70
   192
  0
VERTEX
  8
fence22
 10
-53.704435
 20
-18.929796
 30
-2.725185
 70
   192
  0
VERTEX
  8
fence22
 10
-49.939479
 20
94.041617
 30
-2.590533
 70
   192
  0
VERTEX
  8
fence22
 10
-55.546972
 20
-18.929796
 30
-9.601626
 70
   192
  0
VERTEX
  8
fence22
 10
-52.297926
 20
94.041617
 30
-11.392377
 70
   192
  0
VERTEX
  8
fence22
 10
-60.580876
 20
-18.929796
 30
-14.635530
 70
   192
  0
VERTEX
  8
fence22
 10
-58.741324
 20
94.041617
 30
-17.835775
 70
   192
  0
VERTEX
  8
fence22
 10
-67.457317
 20
-18.929796
 30
-16.478067
 70
   192
  0
VERTEX
  8
fence22
 10
-67.543168
 20
94.041617
 30
-20.194222
 70
   192
  0
VERTEX
  8
fence22
 10
-74.333758
 20
-18.929796
 30
-14.635530
 70
   192
  0
VERTEX
  8
fence22
 10
-76.345013
 20
94.041617
 30
-17.835775
 70
   192
  0
VERTEX
  8
fence22
 10
-79.367663
 20
-18.929796
 30
-9.601626
 70
   192
  0
VERTEX
  8
fence22
 10
-82.788410
 20
94.041617
 30
-11.392377
 70
   192
  0
VERTEX
  8
fence22
 10
-81.210199
 20
-18.929796
 30
-2.725185
 70
   192
  0
VERTEX
  8
fence22
 10
-85.146858
 20
94.041617
 30
-2.590533
 70
   192
  0
VERTEX
  8
fence22
 10
-79.367663
 20
-18.929796
 30
4.151256
 70
   192
  0
VERTEX
  8
fence22
 10
-82.788410
 20
94.041617
 30
6.211312
 70
   192
  0
VERTEX
  8
fence22
 10
-74.333758
 20
-18.929796
 30
9.185160
 70
   192
  0
VERTEX
  8
fence22
 10
-76.345013
 20
94.041617
 30
12.654710
 70
   192
  0
VERTEX
  8
fence22
 10
-67.457317
 20
-18.929796
 30
11.027697
 70
   192
  0
VERTEX
  8
fence22
 10
-67.543168
 20
94.041617
 30
15.013157
 70
   192
  0
VERTEX
  8
fence22
 10
-60.580876
 20
-18.929796
 30
9.185160
 70
   192
  0
VERTEX
  8
fence22
 10
-58.741324
 20
94.041617
 30
12.654710
 70
   192
  0
VERTEX
  8
fence22
 10
-55.546972
 20
-18.929796
 30
4.151256
 70
   192
  0
VERTEX
  8
fence22
 10
-52.297926
 20
94.041617
 30
6.211312
 70
   192
  0
VERTEX
  8
fence22
 10
-54.126995
 20
23.607834
 30
-3.706079
 70
   192
  0
VERTEX
  8
fence22
 10
-56.042677
 20
23.607834
 30
-10.855501
 70
   192
  0
VERTEX
  8
fence22
 10
-61.276417
 20
23.607834
 30
-16.089240
 70
   192
  0
VERTEX
  8
fence22
 10
-68.425838
 20
23.607834
 30
-18.004922
 70
   192
  0
VERTEX
  8
fence22
 10
-75.575259
 20
23.607834
 30
-16.089240
 70
   192
  0
VERTEX
  8
fence22
 10
-80.808999
 20
23.607834
 30
-10.855501
 70
   192
  0
VERTEX
  8
fence22
 10
-82.724681
 20
23.607834
 30
-3.706079
 70
   192
  0
VERTEX
  8
fence22
 10
-80.808999
 20
23.607834
 30
3.443342
 70
   192
  0
VERTEX
  8
fence22
 10
-75.575259
 20
23.607834
 30
8.677082
 70
   192
  0
VERTEX
  8
fence22
 10
-68.425838
 20
23.607834
 30
10.592763
 70
   192
  0
VERTEX
  8
fence22
 10
-61.276417
 20
23.607834
 30
8.677082
 70
   192
  0
VERTEX
  8
fence22
 10
-56.042677
 20
23.607834
 30
3.443342
 70
   192
  0
VERTEX
  8
fence22
 10
-50.074153
 20
60.955343
 30
-2.657855
 70
   192
  0
VERTEX
  8
fence22
 10
-52.184521
 20
60.740913
 30
-10.492252
 70
   192
  0
VERTEX
  8
fence22
 10
-57.935967
 20
60.155078
 30
-16.203844
 70
   192
  0
VERTEX
  8
fence22
 10
-65.759361
 20
59.354812
 30
-18.262538
 70
   192
  0
VERTEX
  8
fence22
 10
-73.544915
 20
58.554546
 30
-16.141007
 70
   192
  0
VERTEX
  8
fence22
 10
-79.220681
 20
57.968711
 30
-10.431351
 70
   192
  0
VERTEX
  8
fence22
 10
-81.293209
 20
57.754280
 30
-2.663143
 70
   192
  0
VERTEX
  8
fence22
 10
-79.220681
 20
57.968711
 30
5.105760
 70
   192
  0
VERTEX
  8
fence22
 10
-73.544915
 20
58.554546
 30
10.817324
 70
   192
  0
VERTEX
  8
fence22
 10
-65.759361
 20
59.354812
 30
12.941486
 70
   192
  0
VERTEX
  8
fence22
 10
-57.935967
 20
60.155078
 30
10.885449
 70
   192
  0
VERTEX
  8
fence22
 10
-52.184521
 20
60.740913
 30
5.175820
 70
   192
  0
VERTEX
  8
fence22
 10
0.0
 20
0.0
 30
0.0
 70
   128
 71
   27
 72
   39
 73
   40
  0
VERTEX
  8
fence22
 10
0.0
 20
0.0
 30
0.0
 70
   128
 71
   3
 72
   27
 73
   28
  0
VERTEX
  8
fence22
 10
0.0
 20
0.0
 30
0.0
 70
   128
 71
   29
 72
   7
 73
   5
  0
VERTEX
  8
fence22
 10
0.0
 20
0.0
 30
0.0
 70
   128
 71
   29
 72
   41
 73
   42
  0
VERTEX
  8
fence22
 10
0.0
 20
0.0
 30
0.0
 70
   128
 71
   40
 72
   6
 73
   8
  0
VERTEX
  8
fence22
 10
0.0
 20
0.0
 30
0.0
 70
   128
 71
   31
 72
   11
 73
   9
  0
VERTEX
  8
fence22
 10
0.0
 20
0.0
 30
0.0
 70
   128
 71
   31
 72
   43
 73
   44
  0
VERTEX
  8
fence22
 10
0.0
 20
0.0
 30
0.0
 70
   128
 71
   7
 72
   29
 73
   30
  0
VERTEX
  8
fence22
 10
0.0
 20
0.0
 30
0.0
 70
   128
 71
   33
 72
   15
 73
   13
  0
VERTEX
  8
fence22
 10
0.0
 20
0.0
 30
0.0
 70
   128
 71
   33
 72
   45
 73
   46
  0
VERTEX
  8
fence22
 10
0.0
 20
0.0
 30
0.0
 70
   128
 71
   30
 72
   42
 73
   43
  0
VERTEX
  8
fence22
 10
0.0
 20
0.0
 30
0.0
 70
   128
 71
   35
 72
   19
 73
   17
  0
VERTEX
  8
fence22
 10
0.0
 20
0.0
 30
0.0
 70
   128
 71
   35
 72
   47
 73
   48
  0
VERTEX
  8
fence22
 10
0.0
 20
0.0
 30
0.0
 70
   128
 71
   11
 72
   31
 73
   32
  0
VERTEX
  8
fence22
 10
0.0
 20
0.0
 30
0.0
 70
   128
 71
   37
 72
   23
 73
   21
  0
VERTEX
  8
fence22
 10
0.0
 20
0.0
 30
0.0
 70
   128
 71
   37
 72
   49
 73
   50
  0
VERTEX
  8
fence22
 10
0.0
 20
0.0
 30
0.0
 70
   128
 71
   32
 72
   44
 73
   45
  0
VERTEX
  8
fence22
 10
0.0
 20
0.0
 30
0.0
 70
   128
 71
   27
 72
   3
 73
   25
  0
VERTEX
  8
fence22
 10
0.0
 20
0.0
 30
0.0
 70
   128
 71
   41
 72
   29
 73
   28
  0
VERTEX
  8
fence22
 10
0.0
 20
0.0
 30
0.0
 70
   128
 71
   15
 72
   33
 73
   34
  0
VERTEX
  8
fence22
 10
0.0
 20
0.0
 30
0.0
 70
   128
 71
   42
 72
   10
 73
   12
  0
VERTEX
  8
fence22
 10
0.0
 20
0.0
 30
0.0
 70
   128
 71
   44
 72
   14
 73
   16
  0
VERTEX
  8
fence22
 10
0.0
 20
0.0
 30
0.0
 70
   128
 71
   34
 72
   46
 73
   47
  0
VERTEX
  8
fence22
 10
0.0
 20
0.0
 30
0.0
 70
   128
 71
   46
 72
   18
 73
   20
  0
VERTEX
  8
fence22
 10
0.0
 20
0.0
 30
0.0
 70
   128
 71
   48
 72
   22
 73
   24
  0
VERTEX
  8
fence22
 10
0.0
 20
0.0
 30
0.0
 70
   128
 71
   19
 72
   35
 73
   36
  0
VERTEX
  8
fence22
 10
0.0
 20
0.0
 30
0.0
 70
   128
 71
   50
 72
   26
 73
   4
  0
VERTEX
  8
fence22
 10
0.0
 20
0.0
 30
0.0
 70
   128
 71
   39
 72
   4
 73
   6
  0
VERTEX
  8
fence22
 10
0.0
 20
0.0
 30
0.0
 70
   128
 71
   36
 72
   48
 73
   49
  0
VERTEX
  8
fence22
 10
0.0
 20
0.0
 30
0.0
 70
   128
 71
   41
 72
   8
 73
   10
  0
VERTEX
  8
fence22
 10
0.0
 20
0.0
 30
0.0
 70
   128
 71
   43
 72
   12
 73
   14
  0
VERTEX
  8
fence22
 10
0.0
 20
0.0
 30
0.0
 70
   128
 71
   23
 72
   37
 73
   38
  0
VERTEX
  8
fence22
 10
0.0
 20
0.0
 30
0.0
 70
   128
 71
   45
 72
   16
 73
   18
  0
VERTEX
  8
fence22
 10
0.0
 20
0.0
 30
0.0
 70
   128
 71
   47
 72
   20
 73
   22
  0
VERTEX
  8
fence22
 10
0.0
 20
0.0
 30
0.0
 70
   128
 71
   38
 72
   50
 73
   39
  0
VERTEX
  8
fence22
 10
0.0
 20
0.0
 30
0.0
 70
   128
 71
   49
 72
   24
 73
   26
  0
VERTEX
  8
fence22
 10
0.0
 20
0.0
 30
0.0
 70
   128
 71
   7
 72
   25
 73
   3
  0
VERTEX
  8
fence22
 10
0.0
 20
0.0
 30
0.0
 70
   128
 71
   19
 72
   25
 73
   7
  0
VERTEX
  8
fence22
 10
0.0
 20
0.0
 30
0.0
 70
   128
 71
   25
 72
   19
 73
   21
  0
VERTEX
  8
fence22
 10
0.0
 20
0.0
 30
0.0
 70
   128
 71
   9
 72
   11
 73
   13
  0
VERTEX
  8
fence22
 10
0.0
 20
0.0
 30
0.0
 70
   128
 71
   9
 72
   13
 73
   15
  0
VERTEX
  8
fence22
 10
0.0
 20
0.0
 30
0.0
 70
   128
 71
   15
 72
   17
 73
   19
  0
VERTEX
  8
fence22
 10
0.0
 20
0.0
 30
0.0
 70
   128
 71
   24
 72
   20
 73
   18
  0
VERTEX
  8
fence22
 10
0.0
 20
0.0
 30
0.0
 70
   128
 71
   24
 72
   22
 73
   20
  0
VERTEX
  8
fence22
 10
0.0
 20
0.0
 30
0.0
 70
   128
 71
   12
 72
   18
 73
   16
  0
VERTEX
  8
fence22
 10
0.0
 20
0.0
 30
0.0
 70
   128
 71
   26
 72
   18
 73
   12
  0
VERTEX
  8
fence22
 10
0.0
 20
0.0
 30
0.0
 70
   128
 71
   12
 72
   10
 73
   8
  0
VERTEX
  8
fence22
 10
0.0
 20
0.0
 30
0.0
 70
   128
 71
   6
 72
   4
 73
   26
  0
VERTEX
  8
fence22
 10
0.0
 20
0.0
 30
0.0
 70
   128
 71
   77
 72
   89
 73
   90
  0
VERTEX
  8
fence22
 10
0.0
 20
0.0
 30
0.0
 70
   128
 71
   53
 72
   77
 73
   78
  0
VERTEX
  8
fence22
 10
0.0
 20
0.0
 30
0.0
 70
   128
 71
   79
 72
   57
 73
   55
  0
VERTEX
  8
fence22
 10
0.0
 20
0.0
 30
0.0
 70
   128
 71
   79
 72
   91
 73
   92
  0
VERTEX
  8
fence22
 10
0.0
 20
0.0
 30
0.0
 70
   128
 71
   90
 72
   56
 73
   58
  0
VERTEX
  8
fence22
 10
0.0
 20
0.0
 30
0.0
 70
   128
 71
   81
 72
   61
 73
   59
  0
VERTEX
  8
fence22
 10
0.0
 20
0.0
 30
0.0
 70
   128
 71
   81
 72
   93
 73
   94
  0
VERTEX
  8
fence22
 10
0.0
 20
0.0
 30
0.0
 70
   128
 71
   57
 72
   79
 73
   80
  0
VERTEX
  8
fence22
 10
0.0
 20
0.0
 30
0.0
 70
   128
 71
   83
 72
   65
 73
   63
  0
VERTEX
  8
fence22
 10
0.0
 20
0.0
 30
0.0
 70
   128
 71
   83
 72
   95
 73
   96
  0
VERTEX
  8
fence22
 10
0.0
 20
0.0
 30
0.0
 70
   128
 71
   80
 72
   92
 73
   93
  0
VERTEX
  8
fence22
 10
0.0
 20
0.0
 30
0.0
 70
   128
 71
   85
 72
   69
 73
   67
  0
VERTEX
  8
fence22
 10
0.0
 20
0.0
 30
0.0
 70
   128
 71
   85
 72
   97
 73
   98
  0
VERTEX
  8
fence22
 10
0.0
 20
0.0
 30
0.0
 70
   128
 71
   61
 72
   81
 73
   82
  0
VERTEX
  8
fence22
 10
0.0
 20
0.0
 30
0.0
 70
   128
 71
   87
 72
   73
 73
   71
  0
VERTEX
  8
fence22
 10
0.0
 20
0.0
 30
0.0
 70
   128
 71
   87
 72
   99
 73
   100
  0
VERTEX
  8
fence22
 10
0.0
 20
0.0
 30
0.0
 70
   128
 71
   82
 72
   94
 73
   95
  0
VERTEX
  8
fence22
 10
0.0
 20
0.0
 30
0.0
 70
   128
 71
   77
 72
   53
 73
   75
  0
VERTEX
  8
fence22
 10
0.0
 20
0.0
 30
0.0
 70
   128
 71
   91
 72
   79
 73
   78
  0
VERTEX
  8
fence22
 10
0.0
 20
0.0
 30
0.0
 70
   128
 71
   65
 72
   83
 73
   84
  0
VERTEX
  8
fence22
 10
0.0
 20
0.0
 30
0.0
 70
   128
 71
   92
 72
   60
 73
   62
  0
VERTEX
  8
fence22
 10
0.0
 20
0.0
 30
0.0
 70
   128
 71
   94
 72
   64
 73
   66
  0
VERTEX
  8
fence22
 10
0.0
 20
0.0
 30
0.0
 70
   128
 71
   84
 72
   96
 73
   97
  0
VERTEX
  8
fence22
 10
0.0
 20
0.0
 30
0.0
 70
   128
 71
   96
 72
   68
 73
   70
  0
VERTEX
  8
fence22
 10
0.0
 20
0.0
 30
0.0
 70
   128
 71
   98
 72
   72
 73
   74
  0
VERTEX
  8
fence22
 10
0.0
 20
0.0
 30
0.0
 70
   128
 71
   69
 72
   85
 73
   86
  0
VERTEX
  8
fence22
 10
0.0
 20
0.0
 30
0.0
 70
   128
 71
   100
 72
   76
 73
   54
  0
VERTEX
  8
fence22
 10
0.0
 20
0.0
 30
0.0
 70
   128
 71
   89
 72
   54
 73
   56
  0
VERTEX
  8
fence22
 10
0.0
 20
0.0
 30
0.0
 70
   128
 71
   86
 72
   98
 73
   99
  0
VERTEX
  8
fence22
 10
0.0
 20
0.0
 30
0.0
 70
   128
 71
   91
 72
   58
 73
   60
  0
VERTEX
  8
fence22
 10
0.0
 20
0.0
 30
0.0
 70
   128
 71
   93
 72
   62
 73
   64
  0
VERTEX
  8
fence22
 10
0.0
 20
0.0
 30
0.0
 70
   128
 71
   73
 72
   87
 73
   88
  0
VERTEX
  8
fence22
 10
0.0
 20
0.0
 30
0.0
 70
   128
 71
   95
 72
   66
 73
   68
  0
VERTEX
  8
fence22
 10
0.0
 20
0.0
 30
0.0
 70
   128
 71
   97
 72
   70
 73
   72
  0
VERTEX
  8
fence22
 10
0.0
 20
0.0
 30
0.0
 70
   128
 71
   88
 72
   100
 73
   89
  0
VERTEX
  8
fence22
 10
0.0
 20
0.0
 30
0.0
 70
   128
 71
   99
 72
   74
 73
   76
  0
VERTEX
  8
fence22
 10
0.0
 20
0.0
 30
0.0
 70
   128
 71
   57
 72
   75
 73
   53
  0
VERTEX
  8
fence22
 10
0.0
 20
0.0
 30
0.0
 70
   128
 71
   69
 72
   75
 73
   57
  0
VERTEX
  8
fence22
 10
0.0
 20
0.0
 30
0.0
 70
   128
 71
   75
 72
   69
 73
   71
  0
VERTEX
  8
fence22
 10
0.0
 20
0.0
 30
0.0
 70
   128
 71
   59
 72
   61
 73
   63
  0
VERTEX
  8
fence22
 10
0.0
 20
0.0
 30
0.0
 70
   128
 71
   59
 72
   63
 73
   65
  0
VERTEX
  8
fence22
 10
0.0
 20
0.0
 30
0.0
 70
   128
 71
   65
 72
   67
 73
   69
  0
VERTEX
  8
fence22
 10
0.0
 20
0.0
 30
0.0
 70
   128
 71
   74
 72
   70
 73
   68
  0
VERTEX
  8
fence22
 10
0.0
 20
0.0
 30
0.0
 70
   128
 71
   74
 72
   72
 73
   70
  0
VERTEX
  8
fence22
 10
0.0
 20
0.0
 30
0.0
 70
   128
 71
   62
 72
   68
 73
   66
  0
VERTEX
  8
fence22
 10
0.0
 20
0.0
 30
0.0
 70
   128
 71
   76
 72
   68
 73
   62
  0
VERTEX
  8
fence22
 10
0.0
 20
0.0
 30
0.0
 70
   128
 71
   62
 72
   60
 73
   58
  0
VERTEX
  8
fence22
 10
0.0
 20
0.0
 30
0.0
 70
   128
 71
   56
 72
   54
 73
   76
  0
VERTEX
  8
fence22
 10
0.0
 20
0.0
 30
0.0
 70
   128
 71
   127
 72
   139
 73
   140
  0
VERTEX
  8
fence22
 10
0.0
 20
0.0
 30
0.0
 70
   128
 71
   103
 72
   127
 73
   128
  0
VERTEX
  8
fence22
 10
0.0
 20
0.0
 30
0.0
 70
   128
 71
   129
 72
   107
 73
   105
  0
VERTEX
  8
fence22
 10
0.0
 20
0.0
 30
0.0
 70
   128
 71
   129
 72
   141
 73
   142
  0
VERTEX
  8
fence22
 10
0.0
 20
0.0
 30
0.0
 70
   128
 71
   140
 72
   106
 73
   108
  0
VERTEX
  8
fence22
 10
0.0
 20
0.0
 30
0.0
 70
   128
 71
   131
 72
   111
 73
   109
  0
VERTEX
  8
fence22
 10
0.0
 20
0.0
 30
0.0
 70
   128
 71
   131
 72
   143
 73
   144
  0
VERTEX
  8
fence22
 10
0.0
 20
0.0
 30
0.0
 70
   128
 71
   107
 72
   129
 73
   130
  0
VERTEX
  8
fence22
 10
0.0
 20
0.0
 30
0.0
 70
   128
 71
   133
 72
   115
 73
   113
  0
VERTEX
  8
fence22
 10
0.0
 20
0.0
 30
0.0
 70
   128
 71
   133
 72
   145
 73
   146
  0
VERTEX
  8
fence22
 10
0.0
 20
0.0
 30
0.0
 70
   128
 71
   130
 72
   142
 73
   143
  0
VERTEX
  8
fence22
 10
0.0
 20
0.0
 30
0.0
 70
   128
 71
   135
 72
   119
 73
   117
  0
VERTEX
  8
fence22
 10
0.0
 20
0.0
 30
0.0
 70
   128
 71
   135
 72
   147
 73
   148
  0
VERTEX
  8
fence22
 10
0.0
 20
0.0
 30
0.0
 70
   128
 71
   111
 72
   131
 73
   132
  0
VERTEX
  8
fence22
 10
0.0
 20
0.0
 30
0.0
 70
   128
 71
   137
 72
   123
 73
   121
  0
VERTEX
  8
fence22
 10
0.0
 20
0.0
 30
0.0
 70
   128
 71
   137
 72
   149
 73
   150
  0
VERTEX
  8
fence22
 10
0.0
 20
0.0
 30
0.0
 70
   128
 71
   132
 72
   144
 73
   145
  0
VERTEX
  8
fence22
 10
0.0
 20
0.0
 30
0.0
 70
   128
 71
   127
 72
   103
 73
   125
  0
VERTEX
  8
fence22
 10
0.0
 20
0.0
 30
0.0
 70
   128
 71
   141
 72
   129
 73
   128
  0
VERTEX
  8
fence22
 10
0.0
 20
0.0
 30
0.0
 70
   128
 71
   115
 72
   133
 73
   134
  0
VERTEX
  8
fence22
 10
0.0
 20
0.0
 30
0.0
 70
   128
 71
   142
 72
   110
 73
   112
  0
VERTEX
  8
fence22
 10
0.0
 20
0.0
 30
0.0
 70
   128
 71
   144
 72
   114
 73
   116
  0
VERTEX
  8
fence22
 10
0.0
 20
0.0
 30
0.0
 70
   128
 71
   134
 72
   146
 73
   147
  0
VERTEX
  8
fence22
 10
0.0
 20
0.0
 30
0.0
 70
   128
 71
   146
 72
   118
 73
   120
  0
VERTEX
  8
fence22
 10
0.0
 20
0.0
 30
0.0
 70
   128
 71
   148
 72
   122
 73
   124
  0
VERTEX
  8
fence22
 10
0.0
 20
0.0
 30
0.0
 70
   128
 71
   119
 72
   135
 73
   136
  0
VERTEX
  8
fence22
 10
0.0
 20
0.0
 30
0.0
 70
   128
 71
   150
 72
   126
 73
   104
  0
VERTEX
  8
fence22
 10
0.0
 20
0.0
 30
0.0
 70
   128
 71
   139
 72
   104
 73
   106
  0
VERTEX
  8
fence22
 10
0.0
 20
0.0
 30
0.0
 70
   128
 71
   136
 72
   148
 73
   149
  0
VERTEX
  8
fence22
 10
0.0
 20
0.0
 30
0.0
 70
   128
 71
   141
 72
   108
 73
   110
  0
VERTEX
  8
fence22
 10
0.0
 20
0.0
 30
0.0
 70
   128
 71
   143
 72
   112
 73
   114
  0
VERTEX
  8
fence22
 10
0.0
 20
0.0
 30
0.0
 70
   128
 71
   123
 72
   137
 73
   138
  0
VERTEX
  8
fence22
 10
0.0
 20
0.0
 30
0.0
 70
   128
 71
   145
 72
   116
 73
   118
  0
VERTEX
  8
fence22
 10
0.0
 20
0.0
 30
0.0
 70
   128
 71
   147
 72
   120
 73
   122
  0
VERTEX
  8
fence22
 10
0.0
 20
0.0
 30
0.0
 70
   128
 71
   138
 72
   150
 73
   139
  0
VERTEX
  8
fence22
 10
0.0
 20
0.0
 30
0.0
 70
   128
 71
   149
 72
   124
 73
   126
  0
VERTEX
  8
fence22
 10
0.0
 20
0.0
 30
0.0
 70
   128
 71
   107
 72
   125
 73
   103
  0
VERTEX
  8
fence22
 10
0.0
 20
0.0
 30
0.0
 70
   128
 71
   119
 72
   125
 73
   107
  0
VERTEX
  8
fence22
 10
0.0
 20
0.0
 30
0.0
 70
   128
 71
   125
 72
   119
 73
   121
  0
VERTEX
  8
fence22
 10
0.0
 20
0.0
 30
0.0
 70
   128
 71
   109
 72
   111
 73
   113
  0
VERTEX
  8
fence22
 10
0.0
 20
0.0
 30
0.0
 70
   128
 71
   109
 72
   113
 73
   115
  0
VERTEX
  8
fence22
 10
0.0
 20
0.0
 30
0.0
 70
   128
 71
   115
 72
   117
 73
   119
  0
VERTEX
  8
fence22
 10
0.0
 20
0.0
 30
0.0
 70
   128
 71
   124
 72
   120
 73
   118
  0
VERTEX
  8
fence22
 10
0.0
 20
0.0
 30
0.0
 70
   128
 71
   124
 72
   122
 73
   120
  0
VERTEX
  8
fence22
 10
0.0
 20
0.0
 30
0.0
 70
   128
 71
   112
 72
   118
 73
   116
  0
VERTEX
  8
fence22
 10
0.0
 20
0.0
 30
0.0
 70
   128
 71
   126
 72
   118
 73
   112
  0
VERTEX
  8
fence22
 10
0.0
 20
0.0
 30
0.0
 70
   128
 71
   112
 72
   110
 73
   108
  0
VERTEX
  8
fence22
 10
0.0
 20
0.0
 30
0.0
 70
   128
 71
   106
 72
   104
 73
   126
  0
VERTEX
  8
fence22
 10
0.0
 20
0.0
 30
0.0
 70
   128
 71
   27
 72
   40
 73
   28
  0
VERTEX
  8
fence22
 10
0.0
 20
0.0
 30
0.0
 70
   128
 71
   3
 72
   28
 73
   5
  0
VERTEX
  8
fence22
 10
0.0
 20
0.0
 30
0.0
 70
   128
 71
   29
 72
   5
 73
   28
  0
VERTEX
  8
fence22
 10
0.0
 20
0.0
 30
0.0
 70
   128
 71
   29
 72
   42
 73
   30
  0
VERTEX
  8
fence22
 10
0.0
 20
0.0
 30
0.0
 70
   128
 71
   40
 72
   8
 73
   41
  0
VERTEX
  8
fence22
 10
0.0
 20
0.0
 30
0.0
 70
   128
 71
   31
 72
   9
 73
   30
  0
VERTEX
  8
fence22
 10
0.0
 20
0.0
 30
0.0
 70
   128
 71
   31
 72
   44
 73
   32
  0
VERTEX
  8
fence22
 10
0.0
 20
0.0
 30
0.0
 70
   128
 71
   7
 72
   30
 73
   9
  0
VERTEX
  8
fence22
 10
0.0
 20
0.0
 30
0.0
 70
   128
 71
   33
 72
   13
 73
   32
  0
VERTEX
  8
fence22
 10
0.0
 20
0.0
 30
0.0
 70
   128
 71
   33
 72
   46
 73
   34
  0
VERTEX
  8
fence22
 10
0.0
 20
0.0
 30
0.0
 70
   128
 71
   30
 72
   43
 73
   31
  0
VERTEX
  8
fence22
 10
0.0
 20
0.0
 30
0.0
 70
   128
 71
   35
 72
   17
 73
   34
  0
VERTEX
  8
fence22
 10
0.0
 20
0.0
 30
0.0
 70
   128
 71
   35
 72
   48
 73
   36
  0
VERTEX
  8
fence22
 10
0.0
 20
0.0
 30
0.0
 70
   128
 71
   11
 72
   32
 73
   13
  0
VERTEX
  8
fence22
 10
0.0
 20
0.0
 30
0.0
 70
   128
 71
   37
 72
   21
 73
   36
  0
VERTEX
  8
fence22
 10
0.0
 20
0.0
 30
0.0
 70
   128
 71
   37
 72
   50
 73
   38
  0
VERTEX
  8
fence22
 10
0.0
 20
0.0
 30
0.0
 70
   128
 71
   32
 72
   45
 73
   33
  0
VERTEX
  8
fence22
 10
0.0
 20
0.0
 30
0.0
 70
   128
 71
   27
 72
   25
 73
   38
  0
VERTEX
  8
fence22
 10
0.0
 20
0.0
 30
0.0
 70
   128
 71
   41
 72
   28
 73
   40
  0
VERTEX
  8
fence22
 10
0.0
 20
0.0
 30
0.0
 70
   128
 71
   15
 72
   34
 73
   17
  0
VERTEX
  8
fence22
 10
0.0
 20
0.0
 30
0.0
 70
   128
 71
   42
 72
   12
 73
   43
  0
VERTEX
  8
fence22
 10
0.0
 20
0.0
 30
0.0
 70
   128
 71
   44
 72
   16
 73
   45
  0
VERTEX
  8
fence22
 10
0.0
 20
0.0
 30
0.0
 70
   128
 71
   34
 72
   47
 73
   35
  0
VERTEX
  8
fence22
 10
0.0
 20
0.0
 30
0.0
 70
   128
 71
   46
 72
   20
 73
   47
  0
VERTEX
  8
fence22
 10
0.0
 20
0.0
 30
0.0
 70
   128
 71
   48
 72
   24
 73
   49
  0
VERTEX
  8
fence22
 10
0.0
 20
0.0
 30
0.0
 70
   128
 71
   19
 72
   36
 73
   21
  0
VERTEX
  8
fence22
 10
0.0
 20
0.0
 30
0.0
 70
   128
 71
   50
 72
   4
 73
   39
  0
VERTEX
  8
fence22
 10
0.0
 20
0.0
 30
0.0
 70
   128
 71
   39
 72
   6
 73
   40
  0
VERTEX
  8
fence22
 10
0.0
 20
0.0
 30
0.0
 70
   128
 71
   36
 72
   49
 73
   37
  0
VERTEX
  8
fence22
 10
0.0
 20
0.0
 30
0.0
 70
   128
 71
   41
 72
   10
 73
   42
  0
VERTEX
  8
fence22
 10
0.0
 20
0.0
 30
0.0
 70
   128
 71
   43
 72
   14
 73
   44
  0
VERTEX
  8
fence22
 10
0.0
 20
0.0
 30
0.0
 70
   128
 71
   23
 72
   38
 73
   25
  0
VERTEX
  8
fence22
 10
0.0
 20
0.0
 30
0.0
 70
   128
 71
   45
 72
   18
 73
   46
  0
VERTEX
  8
fence22
 10
0.0
 20
0.0
 30
0.0
 70
   128
 71
   47
 72
   22
 73
   48
  0
VERTEX
  8
fence22
 10
0.0
 20
0.0
 30
0.0
 70
   128
 71
   38
 72
   39
 73
   27
  0
VERTEX
  8
fence22
 10
0.0
 20
0.0
 30
0.0
 70
   128
 71
   49
 72
   26
 73
   50
  0
VERTEX
  8
fence22
 10
0.0
 20
0.0
 30
0.0
 70
   128
 71
   7
 72
   3
 73
   5
  0
VERTEX
  8
fence22
 10
0.0
 20
0.0
 30
0.0
 70
   128
 71
   19
 72
   7
 73
   9
  0
VERTEX
  8
fence22
 10
0.0
 20
0.0
 30
0.0
 70
   128
 71
   25
 72
   21
 73
   23
  0
VERTEX
  8
fence22
 10
0.0
 20
0.0
 30
0.0
 70
   128
 71
   9
 72
   15
 73
   19
  0
VERTEX
  8
fence22
 10
0.0
 20
0.0
 30
0.0
 70
   128
 71
   24
 72
   18
 73
   26
  0
VERTEX
  8
fence22
 10
0.0
 20
0.0
 30
0.0
 70
   128
 71
   12
 72
   16
 73
   14
  0
VERTEX
  8
fence22
 10
0.0
 20
0.0
 30
0.0
 70
   128
 71
   26
 72
   12
 73
   6
  0
VERTEX
  8
fence22
 10
0.0
 20
0.0
 30
0.0
 70
   128
 71
   12
 72
   8
 73
   6
  0
VERTEX
  8
fence22
 10
0.0
 20
0.0
 30
0.0
 70
   128
 71
   77
 72
   90
 73
   78
  0
VERTEX
  8
fence22
 10
0.0
 20
0.0
 30
0.0
 70
   128
 71
   53
 72
   78
 73
   55
  0
VERTEX
  8
fence22
 10
0.0
 20
0.0
 30
0.0
 70
   128
 71
   79
 72
   55
 73
   78
  0
VERTEX
  8
fence22
 10
0.0
 20
0.0
 30
0.0
 70
   128
 71
   79
 72
   92
 73
   80
  0
VERTEX
  8
fence22
 10
0.0
 20
0.0
 30
0.0
 70
   128
 71
   90
 72
   58
 73
   91
  0
VERTEX
  8
fence22
 10
0.0
 20
0.0
 30
0.0
 70
   128
 71
   81
 72
   59
 73
   80
  0
VERTEX
  8
fence22
 10
0.0
 20
0.0
 30
0.0
 70
   128
 71
   81
 72
   94
 73
   82
  0
VERTEX
  8
fence22
 10
0.0
 20
0.0
 30
0.0
 70
   128
 71
   57
 72
   80
 73
   59
  0
VERTEX
  8
fence22
 10
0.0
 20
0.0
 30
0.0
 70
   128
 71
   83
 72
   63
 73
   82
  0
VERTEX
  8
fence22
 10
0.0
 20
0.0
 30
0.0
 70
   128
 71
   83
 72
   96
 73
   84
  0
VERTEX
  8
fence22
 10
0.0
 20
0.0
 30
0.0
 70
   128
 71
   80
 72
   93
 73
   81
  0
VERTEX
  8
fence22
 10
0.0
 20
0.0
 30
0.0
 70
   128
 71
   85
 72
   67
 73
   84
  0
VERTEX
  8
fence22
 10
0.0
 20
0.0
 30
0.0
 70
   128
 71
   85
 72
   98
 73
   86
  0
VERTEX
  8
fence22
 10
0.0
 20
0.0
 30
0.0
 70
   128
 71
   61
 72
   82
 73
   63
  0
VERTEX
  8
fence22
 10
0.0
 20
0.0
 30
0.0
 70
   128
 71
   87
 72
   71
 73
   86
  0
VERTEX
  8
fence22
 10
0.0
 20
0.0
 30
0.0
 70
   128
 71
   87
 72
   100
 73
   88
  0
VERTEX
  8
fence22
 10
0.0
 20
0.0
 30
0.0
 70
   128
 71
   82
 72
   95
 73
   83
  0
VERTEX
  8
fence22
 10
0.0
 20
0.0
 30
0.0
 70
   128
 71
   77
 72
   75
 73
   88
  0
VERTEX
  8
fence22
 10
0.0
 20
0.0
 30
0.0
 70
   128
 71
   91
 72
   78
 73
   90
  0
VERTEX
  8
fence22
 10
0.0
 20
0.0
 30
0.0
 70
   128
 71
   65
 72
   84
 73
   67
  0
VERTEX
  8
fence22
 10
0.0
 20
0.0
 30
0.0
 70
   128
 71
   92
 72
   62
 73
   93
  0
VERTEX
  8
fence22
 10
0.0
 20
0.0
 30
0.0
 70
   128
 71
   94
 72
   66
 73
   95
  0
VERTEX
  8
fence22
 10
0.0
 20
0.0
 30
0.0
 70
   128
 71
   84
 72
   97
 73
   85
  0
VERTEX
  8
fence22
 10
0.0
 20
0.0
 30
0.0
 70
   128
 71
   96
 72
   70
 73
   97
  0
VERTEX
  8
fence22
 10
0.0
 20
0.0
 30
0.0
 70
   128
 71
   98
 72
   74
 73
   99
  0
VERTEX
  8
fence22
 10
0.0
 20
0.0
 30
0.0
 70
   128
 71
   69
 72
   86
 73
   71
  0
VERTEX
  8
fence22
 10
0.0
 20
0.0
 30
0.0
 70
   128
 71
   100
 72
   54
 73
   89
  0
VERTEX
  8
fence22
 10
0.0
 20
0.0
 30
0.0
 70
   128
 71
   89
 72
   56
 73
   90
  0
VERTEX
  8
fence22
 10
0.0
 20
0.0
 30
0.0
 70
   128
 71
   86
 72
   99
 73
   87
  0
VERTEX
  8
fence22
 10
0.0
 20
0.0
 30
0.0
 70
   128
 71
   91
 72
   60
 73
   92
  0
VERTEX
  8
fence22
 10
0.0
 20
0.0
 30
0.0
 70
   128
 71
   93
 72
   64
 73
   94
  0
VERTEX
  8
fence22
 10
0.0
 20
0.0
 30
0.0
 70
   128
 71
   73
 72
   88
 73
   75
  0
VERTEX
  8
fence22
 10
0.0
 20
0.0
 30
0.0
 70
   128
 71
   95
 72
   68
 73
   96
  0
VERTEX
  8
fence22
 10
0.0
 20
0.0
 30
0.0
 70
   128
 71
   97
 72
   72
 73
   98
  0
VERTEX
  8
fence22
 10
0.0
 20
0.0
 30
0.0
 70
   128
 71
   88
 72
   89
 73
   77
  0
VERTEX
  8
fence22
 10
0.0
 20
0.0
 30
0.0
 70
   128
 71
   99
 72
   76
 73
   100
  0
VERTEX
  8
fence22
 10
0.0
 20
0.0
 30
0.0
 70
   128
 71
   57
 72
   53
 73
   55
  0
VERTEX
  8
fence22
 10
0.0
 20
0.0
 30
0.0
 70
   128
 71
   69
 72
   57
 73
   59
  0
VERTEX
  8
fence22
 10
0.0
 20
0.0
 30
0.0
 70
   128
 71
   75
 72
   71
 73
   73
  0
VERTEX
  8
fence22
 10
0.0
 20
0.0
 30
0.0
 70
   128
 71
   59
 72
   65
 73
   69
  0
VERTEX
  8
fence22
 10
0.0
 20
0.0
 30
0.0
 70
   128
 71
   74
 72
   68
 73
   76
  0
VERTEX
  8
fence22
 10
0.0
 20
0.0
 30
0.0
 70
   128
 71
   62
 72
   66
 73
   64
  0
VERTEX
  8
fence22
 10
0.0
 20
0.0
 30
0.0
 70
   128
 71
   76
 72
   62
 73
   56
  0
VERTEX
  8
fence22
 10
0.0
 20
0.0
 30
0.0
 70
   128
 71
   62
 72
   58
 73
   56
  0
VERTEX
  8
fence22
 10
0.0
 20
0.0
 30
0.0
 70
   128
 71
   127
 72
   140
 73
   128
  0
VERTEX
  8
fence22
 10
0.0
 20
0.0
 30
0.0
 70
   128
 71
   103
 72
   128
 73
   105
  0
VERTEX
  8
fence22
 10
0.0
 20
0.0
 30
0.0
 70
   128
 71
   129
 72
   105
 73
   128
  0
VERTEX
  8
fence22
 10
0.0
 20
0.0
 30
0.0
 70
   128
 71
   129
 72
   142
 73
   130
  0
VERTEX
  8
fence22
 10
0.0
 20
0.0
 30
0.0
 70
   128
 71
   140
 72
   108
 73
   141
  0
VERTEX
  8
fence22
 10
0.0
 20
0.0
 30
0.0
 70
   128
 71
   131
 72
   109
 73
   130
  0
VERTEX
  8
fence22
 10
0.0
 20
0.0
 30
0.0
 70
   128
 71
   131
 72
   144
 73
   132
  0
VERTEX
  8
fence22
 10
0.0
 20
0.0
 30
0.0
 70
   128
 71
   107
 72
   130
 73
   109
  0
VERTEX
  8
fence22
 10
0.0
 20
0.0
 30
0.0
 70
   128
 71
   133
 72
   113
 73
   132
  0
VERTEX
  8
fence22
 10
0.0
 20
0.0
 30
0.0
 70
   128
 71
   133
 72
   146
 73
   134
  0
VERTEX
  8
fence22
 10
0.0
 20
0.0
 30
0.0
 70
   128
 71
   130
 72
   143
 73
   131
  0
VERTEX
  8
fence22
 10
0.0
 20
0.0
 30
0.0
 70
   128
 71
   135
 72
   117
 73
   134
  0
VERTEX
  8
fence22
 10
0.0
 20
0.0
 30
0.0
 70
   128
 71
   135
 72
   148
 73
   136
  0
VERTEX
  8
fence22
 10
0.0
 20
0.0
 30
0.0
 70
   128
 71
   111
 72
   132
 73
   113
  0
VERTEX
  8
fence22
 10
0.0
 20
0.0
 30
0.0
 70
   128
 71
   137
 72
   121
 73
   136
  0
VERTEX
  8
fence22
 10
0.0
 20
0.0
 30
0.0
 70
   128
 71
   137
 72
   150
 73
   138
  0
VERTEX
  8
fence22
 10
0.0
 20
0.0
 30
0.0
 70
   128
 71
   132
 72
   145
 73
   133
  0
VERTEX
  8
fence22
 10
0.0
 20
0.0
 30
0.0
 70
   128
 71
   127
 72
   125
 73
   138
  0
VERTEX
  8
fence22
 10
0.0
 20
0.0
 30
0.0
 70
   128
 71
   141
 72
   128
 73
   140
  0
VERTEX
  8
fence22
 10
0.0
 20
0.0
 30
0.0
 70
   128
 71
   115
 72
   134
 73
   117
  0
VERTEX
  8
fence22
 10
0.0
 20
0.0
 30
0.0
 70
   128
 71
   142
 72
   112
 73
   143
  0
VERTEX
  8
fence22
 10
0.0
 20
0.0
 30
0.0
 70
   128
 71
   144
 72
   116
 73
   145
  0
VERTEX
  8
fence22
 10
0.0
 20
0.0
 30
0.0
 70
   128
 71
   134
 72
   147
 73
   135
  0
VERTEX
  8
fence22
 10
0.0
 20
0.0
 30
0.0
 70
   128
 71
   146
 72
   120
 73
   147
  0
VERTEX
  8
fence22
 10
0.0
 20
0.0
 30
0.0
 70
   128
 71
   148
 72
   124
 73
   149
  0
VERTEX
  8
fence22
 10
0.0
 20
0.0
 30
0.0
 70
   128
 71
   119
 72
   136
 73
   121
  0
VERTEX
  8
fence22
 10
0.0
 20
0.0
 30
0.0
 70
   128
 71
   150
 72
   104
 73
   139
  0
VERTEX
  8
fence22
 10
0.0
 20
0.0
 30
0.0
 70
   128
 71
   139
 72
   106
 73
   140
  0
VERTEX
  8
fence22
 10
0.0
 20
0.0
 30
0.0
 70
   128
 71
   136
 72
   149
 73
   137
  0
VERTEX
  8
fence22
 10
0.0
 20
0.0
 30
0.0
 70
   128
 71
   141
 72
   110
 73
   142
  0
VERTEX
  8
fence22
 10
0.0
 20
0.0
 30
0.0
 70
   128
 71
   143
 72
   114
 73
   144
  0
VERTEX
  8
fence22
 10
0.0
 20
0.0
 30
0.0
 70
   128
 71
   123
 72
   138
 73
   125
  0
VERTEX
  8
fence22
 10
0.0
 20
0.0
 30
0.0
 70
   128
 71
   145
 72
   118
 73
   146
  0
VERTEX
  8
fence22
 10
0.0
 20
0.0
 30
0.0
 70
   128
 71
   147
 72
   122
 73
   148
  0
VERTEX
  8
fence22
 10
0.0
 20
0.0
 30
0.0
 70
   128
 71
   138
 72
   139
 73
   127
  0
VERTEX
  8
fence22
 10
0.0
 20
0.0
 30
0.0
 70
   128
 71
   149
 72
   126
 73
   150
  0
VERTEX
  8
fence22
 10
0.0
 20
0.0
 30
0.0
 70
   128
 71
   107
 72
   103
 73
   105
  0
VERTEX
  8
fence22
 10
0.0
 20
0.0
 30
0.0
 70
   128
 71
   119
 72
   107
 73
   109
  0
VERTEX
  8
fence22
 10
0.0
 20
0.0
 30
0.0
 70
   128
 71
   125
 72
   121
 73
   123
  0
VERTEX
  8
fence22
 10
0.0
 20
0.0
 30
0.0
 70
   128
 71
   109
 72
   115
 73
   119
  0
VERTEX
  8
fence22
 10
0.0
 20
0.0
 30
0.0
 70
   128
 71
   124
 72
   118
 73
   126
  0
VERTEX
  8
fence22
 10
0.0
 20
0.0
 30
0.0
 70
   128
 71
   112
 72
   116
 73
   114
  0
VERTEX
  8
fence22
 10
0.0
 20
0.0
 30
0.0
 70
   128
 71
   126
 72
   112
 73
   106
  0
VERTEX
  8
fence22
 10
0.0
 20
0.0
 30
0.0
 70
   128
 71
   112
 72
   108
 73
   106
  0
SEQEND
  0
ENDSEC
  0
EOF
