999
FBX AutoCAD (*.DXF) exporter
  0
SECTION
  2
HEADER
  9
$ACADVER
  1
AC1008
  9
$UCSORG
 10
0.0
 20
0.0
 30
0.0
  9
$UCSXDIR
 10
1.0
 20
0.0
 30
0.0
  9
$TILEMODE
 70
   1
  9
$UCSYDIR
 10
0.0
 20
1.0
 30
0.0
  0
ENDSEC
  0
SECTION
  2
TABLES
  0
TABLE
  2
LTYPE
 70
   1
  0
LTYPE
  2
CONTINUOUS
 70
   64
  3
Solid line
 72
   65
 73
   0
 40
0.0
  0
ENDTAB
  0
TABLE
  2
LAYER
 70
   1
  0
LAYER
  2
fence23
 70
   0
 62
   250
  6
CONTINUOUS
  0
ENDTAB
  0
ENDSEC
  0
SECTION
  2
BLOCKS
  0
ENDSEC
  0
SECTION
  2
ENTITIES
  0
POLYLINE
  8
fence23
 66
   1
 10
0.0
 20
0.0
 30
0.0
 70
   64
 71
   200
 72
   368
  0
VERTEX
  8
fence23
 10
76.351516
 20
-18.929796
 30
-2.885597
 70
   192
  0
VERTEX
  8
fence23
 10
76.130918
 20
94.041617
 30
-2.586664
 70
   192
  0
VERTEX
  8
fence23
 10
68.413682
 20
-18.929796
 30
8.418030
 70
   192
  0
VERTEX
  8
fence23
 10
66.367382
 20
94.041617
 30
11.316798
 70
   192
  0
VERTEX
  8
fence23
 10
75.128964
 20
-18.929796
 30
10.872549
 70
   192
  0
VERTEX
  8
fence23
 10
74.627179
 20
94.041617
 30
14.335856
 70
   192
  0
VERTEX
  8
fence23
 10
82.171828
 20
-18.929796
 30
9.640583
 70
   192
  0
VERTEX
  8
fence23
 10
83.289902
 20
94.041617
 30
12.820538
 70
   192
  0
VERTEX
  8
fence23
 10
87.655144
 20
-18.929796
 30
5.052237
 70
   192
  0
VERTEX
  8
fence23
 10
90.034380
 20
94.041617
 30
7.176872
 70
   192
  0
VERTEX
  8
fence23
 10
90.109662
 20
-18.929796
 30
-1.663045
 70
   192
  0
VERTEX
  8
fence23
 10
93.053438
 20
94.041617
 30
-1.082925
 70
   192
  0
VERTEX
  8
fence23
 10
88.877696
 20
-18.929796
 30
-8.705909
 70
   192
  0
VERTEX
  8
fence23
 10
91.538120
 20
94.041617
 30
-9.745647
 70
   192
  0
VERTEX
  8
fence23
 10
84.289351
 20
-18.929796
 30
-14.189225
 70
   192
  0
VERTEX
  8
fence23
 10
85.894454
 20
94.041617
 30
-16.490126
 70
   192
  0
VERTEX
  8
fence23
 10
77.574068
 20
-18.929796
 30
-16.643743
 70
   192
  0
VERTEX
  8
fence23
 10
77.634657
 20
94.041617
 30
-19.509183
 70
   192
  0
VERTEX
  8
fence23
 10
70.531205
 20
-18.929796
 30
-15.411777
 70
   192
  0
VERTEX
  8
fence23
 10
68.971935
 20
94.041617
 30
-17.993865
 70
   192
  0
VERTEX
  8
fence23
 10
65.047888
 20
-18.929796
 30
-10.823432
 70
   192
  0
VERTEX
  8
fence23
 10
62.227456
 20
94.041617
 30
-12.350200
 70
   192
  0
VERTEX
  8
fence23
 10
62.593370
 20
-18.929796
 30
-4.108150
 70
   192
  0
VERTEX
  8
fence23
 10
59.208399
 20
94.041617
 30
-4.090403
 70
   192
  0
VERTEX
  8
fence23
 10
63.825336
 20
-18.929796
 30
2.934714
 70
   192
  0
VERTEX
  8
fence23
 10
60.723717
 20
94.041617
 30
4.572319
 70
   192
  0
VERTEX
  8
fence23
 10
68.619923
 20
4.365990
 30
4.762145
 70
   192
  0
VERTEX
  8
fence23
 10
75.400881
 20
4.365990
 30
7.240669
 70
   192
  0
VERTEX
  8
fence23
 10
82.512625
 20
4.365990
 30
5.996654
 70
   192
  0
VERTEX
  8
fence23
 10
88.049569
 20
4.365990
 30
1.363434
 70
   192
  0
VERTEX
  8
fence23
 10
90.528093
 20
4.365990
 30
-5.417525
 70
   192
  0
VERTEX
  8
fence23
 10
89.284078
 20
4.365990
 30
-12.529269
 70
   192
  0
VERTEX
  8
fence23
 10
84.650857
 20
4.365990
 30
-18.066213
 70
   192
  0
VERTEX
  8
fence23
 10
77.869899
 20
4.365990
 30
-20.544736
 70
   192
  0
VERTEX
  8
fence23
 10
70.758155
 20
4.365990
 30
-19.300722
 70
   192
  0
VERTEX
  8
fence23
 10
65.221211
 20
4.365990
 30
-14.667501
 70
   192
  0
VERTEX
  8
fence23
 10
62.742687
 20
4.365990
 30
-7.886543
 70
   192
  0
VERTEX
  8
fence23
 10
63.986702
 20
4.365990
 30
-0.774798
 70
   192
  0
VERTEX
  8
fence23
 10
70.405072
 20
61.630496
 30
9.440522
 70
   192
  0
VERTEX
  8
fence23
 10
77.905434
 20
61.416065
 30
12.173006
 70
   192
  0
VERTEX
  8
fence23
 10
85.754838
 20
60.830230
 30
10.775029
 70
   192
  0
VERTEX
  8
fence23
 10
91.836905
 20
60.029964
 30
5.640425
 70
   192
  0
VERTEX
  8
fence23
 10
94.532054
 20
59.229698
 30
-1.834169
 70
   192
  0
VERTEX
  8
fence23
 10
93.140977
 20
58.643863
 30
-9.644295
 70
   192
  0
VERTEX
  8
fence23
 10
88.049234
 20
58.429433
 30
-15.716031
 70
   192
  0
VERTEX
  8
fence23
 10
80.611500
 20
58.643863
 30
-18.442967
 70
   192
  0
VERTEX
  8
fence23
 10
72.798172
 20
59.229698
 30
-17.096521
 70
   192
  0
VERTEX
  8
fence23
 10
66.689553
 20
60.029964
 30
-12.018995
 70
   192
  0
VERTEX
  8
fence23
 10
63.931776
 20
60.830230
 30
-4.549949
 70
   192
  0
VERTEX
  8
fence23
 10
65.286776
 20
61.416065
 30
3.311708
 70
   192
  0
VERTEX
  8
fence23
 10
99.730322
 20
63.696329
 30
-16.671722
 70
   192
  0
VERTEX
  8
fence23
 10
-96.315764
 20
63.696329
 30
-16.671722
 70
   192
  0
VERTEX
  8
fence23
 10
99.730322
 20
58.009956
 30
-12.603211
 70
   192
  0
VERTEX
  8
fence23
 10
-96.315764
 20
58.009956
 30
-12.603211
 70
   192
  0
VERTEX
  8
fence23
 10
99.730322
 20
60.806041
 30
-10.305101
 70
   192
  0
VERTEX
  8
fence23
 10
-96.315764
 20
60.806041
 30
-10.305101
 70
   192
  0
VERTEX
  8
fence23
 10
99.730322
 20
64.376577
 30
-9.712922
 70
   192
  0
VERTEX
  8
fence23
 10
-96.315764
 20
64.376577
 30
-9.712922
 70
   192
  0
VERTEX
  8
fence23
 10
99.730322
 20
67.764841
 30
-10.985348
 70
   192
  0
VERTEX
  8
fence23
 10
-96.315764
 20
67.764841
 30
-10.985348
 70
   192
  0
VERTEX
  8
fence23
 10
99.730322
 20
70.062951
 30
-13.781434
 70
   192
  0
VERTEX
  8
fence23
 10
-96.315764
 20
70.062951
 30
-13.781434
 70
   192
  0
VERTEX
  8
fence23
 10
99.730322
 20
70.655129
 30
-17.351970
 70
   192
  0
VERTEX
  8
fence23
 10
-96.315764
 20
70.655129
 30
-17.351970
 70
   192
  0
VERTEX
  8
fence23
 10
99.730322
 20
69.382703
 30
-20.740234
 70
   192
  0
VERTEX
  8
fence23
 10
-96.315764
 20
69.382703
 30
-20.740234
 70
   192
  0
VERTEX
  8
fence23
 10
99.730322
 20
66.586618
 30
-23.038343
 70
   192
  0
VERTEX
  8
fence23
 10
-96.315764
 20
66.586618
 30
-23.038343
 70
   192
  0
VERTEX
  8
fence23
 10
99.730322
 20
63.016082
 30
-23.630522
 70
   192
  0
VERTEX
  8
fence23
 10
-96.315764
 20
63.016082
 30
-23.630522
 70
   192
  0
VERTEX
  8
fence23
 10
99.730322
 20
59.627818
 30
-22.358096
 70
   192
  0
VERTEX
  8
fence23
 10
-96.315764
 20
59.627818
 30
-22.358096
 70
   192
  0
VERTEX
  8
fence23
 10
99.730322
 20
57.329708
 30
-19.562010
 70
   192
  0
VERTEX
  8
fence23
 10
-96.315764
 20
57.329708
 30
-19.562010
 70
   192
  0
VERTEX
  8
fence23
 10
99.730322
 20
56.737529
 30
-15.991475
 70
   192
  0
VERTEX
  8
fence23
 10
-96.315764
 20
56.737529
 30
-15.991475
 70
   192
  0
VERTEX
  8
fence23
 10
25.912216
 20
56.339067
 30
-10.806464
 70
   192
  0
VERTEX
  8
fence23
 10
25.912216
 20
59.135153
 30
-8.508355
 70
   192
  0
VERTEX
  8
fence23
 10
25.912216
 20
62.705688
 30
-7.916176
 70
   192
  0
VERTEX
  8
fence23
 10
25.912216
 20
66.093953
 30
-9.188602
 70
   192
  0
VERTEX
  8
fence23
 10
25.912216
 20
68.392062
 30
-11.984688
 70
   192
  0
VERTEX
  8
fence23
 10
25.912216
 20
68.984241
 30
-15.555224
 70
   192
  0
VERTEX
  8
fence23
 10
25.912216
 20
67.711815
 30
-18.943488
 70
   192
  0
VERTEX
  8
fence23
 10
25.912216
 20
64.915729
 30
-21.241597
 70
   192
  0
VERTEX
  8
fence23
 10
25.912216
 20
61.345193
 30
-21.833776
 70
   192
  0
VERTEX
  8
fence23
 10
25.912216
 20
57.956929
 30
-20.561350
 70
   192
  0
VERTEX
  8
fence23
 10
25.912216
 20
55.658820
 30
-17.765264
 70
   192
  0
VERTEX
  8
fence23
 10
25.912216
 20
55.066641
 30
-14.194729
 70
   192
  0
VERTEX
  8
fence23
 10
-38.899164
 20
57.376086
 30
-12.149687
 70
   192
  0
VERTEX
  8
fence23
 10
-38.527050
 20
60.172172
 30
-9.851577
 70
   192
  0
VERTEX
  8
fence23
 10
-37.510415
 20
63.742708
 30
-9.259399
 70
   192
  0
VERTEX
  8
fence23
 10
-36.121665
 20
67.130972
 30
-10.531825
 70
   192
  0
VERTEX
  8
fence23
 10
-34.732916
 20
69.429081
 30
-13.327910
 70
   192
  0
VERTEX
  8
fence23
 10
-33.716281
 20
70.021260
 30
-16.898446
 70
   192
  0
VERTEX
  8
fence23
 10
-33.344166
 20
68.748834
 30
-20.286710
 70
   192
  0
VERTEX
  8
fence23
 10
-33.716281
 20
65.952748
 30
-22.584820
 70
   192
  0
VERTEX
  8
fence23
 10
-34.732916
 20
62.382213
 30
-23.176999
 70
   192
  0
VERTEX
  8
fence23
 10
-36.121665
 20
58.993949
 30
-21.904572
 70
   192
  0
VERTEX
  8
fence23
 10
-37.510415
 20
56.695839
 30
-19.108487
 70
   192
  0
VERTEX
  8
fence23
 10
-38.527050
 20
56.103660
 30
-15.537951
 70
   192
  0
VERTEX
  8
fence23
 10
99.730322
 20
56.937477
 30
11.267987
 70
   192
  0
VERTEX
  8
fence23
 10
-96.315764
 20
56.937477
 30
11.267987
 70
   192
  0
VERTEX
  8
fence23
 10
99.730322
 20
56.388771
 30
18.399060
 70
   192
  0
VERTEX
  8
fence23
 10
-96.315764
 20
56.388771
 30
18.399060
 70
   192
  0
VERTEX
  8
fence23
 10
99.730322
 20
60.027820
 30
17.718031
 70
   192
  0
VERTEX
  8
fence23
 10
-96.315764
 20
60.027820
 30
17.718031
 70
   192
  0
VERTEX
  8
fence23
 10
99.730322
 20
62.838814
 30
15.308717
 70
   192
  0
VERTEX
  8
fence23
 10
-96.315764
 20
62.838814
 30
15.308717
 70
   192
  0
VERTEX
  8
fence23
 10
99.730322
 20
64.068550
 30
11.816694
 70
   192
  0
VERTEX
  8
fence23
 10
-96.315764
 20
64.068550
 30
11.816694
 70
   192
  0
VERTEX
  8
fence23
 10
99.730322
 20
63.387520
 30
8.177645
 70
   192
  0
VERTEX
  8
fence23
 10
-96.315764
 20
63.387520
 30
8.177645
 70
   192
  0
VERTEX
  8
fence23
 10
99.730322
 20
60.978207
 30
5.366650
 70
   192
  0
VERTEX
  8
fence23
 10
-96.315764
 20
60.978207
 30
5.366650
 70
   192
  0
VERTEX
  8
fence23
 10
99.730322
 20
57.486183
 30
4.136915
 70
   192
  0
VERTEX
  8
fence23
 10
-96.315764
 20
57.486183
 30
4.136915
 70
   192
  0
VERTEX
  8
fence23
 10
99.730322
 20
53.847134
 30
4.817944
 70
   192
  0
VERTEX
  8
fence23
 10
-96.315764
 20
53.847134
 30
4.817944
 70
   192
  0
VERTEX
  8
fence23
 10
99.730322
 20
51.036140
 30
7.227258
 70
   192
  0
VERTEX
  8
fence23
 10
-96.315764
 20
51.036140
 30
7.227258
 70
   192
  0
VERTEX
  8
fence23
 10
99.730322
 20
49.806405
 30
10.719281
 70
   192
  0
VERTEX
  8
fence23
 10
-96.315764
 20
49.806405
 30
10.719281
 70
   192
  0
VERTEX
  8
fence23
 10
99.730322
 20
50.487434
 30
14.358330
 70
   192
  0
VERTEX
  8
fence23
 10
-96.315764
 20
50.487434
 30
14.358330
 70
   192
  0
VERTEX
  8
fence23
 10
99.730322
 20
52.896747
 30
17.169324
 70
   192
  0
VERTEX
  8
fence23
 10
-96.315764
 20
52.896747
 30
17.169324
 70
   192
  0
VERTEX
  8
fence23
 10
25.912216
 20
55.455267
 30
17.847460
 70
   192
  0
VERTEX
  8
fence23
 10
25.912216
 20
59.094316
 30
17.166430
 70
   192
  0
VERTEX
  8
fence23
 10
25.912216
 20
61.905310
 30
14.757117
 70
   192
  0
VERTEX
  8
fence23
 10
25.912216
 20
63.135046
 30
11.265093
 70
   192
  0
VERTEX
  8
fence23
 10
25.912216
 20
62.454017
 30
7.626044
 70
   192
  0
VERTEX
  8
fence23
 10
25.912216
 20
60.044703
 30
4.815050
 70
   192
  0
VERTEX
  8
fence23
 10
25.912216
 20
56.552680
 30
3.585315
 70
   192
  0
VERTEX
  8
fence23
 10
25.912216
 20
52.913631
 30
4.266344
 70
   192
  0
VERTEX
  8
fence23
 10
25.912216
 20
50.102636
 30
6.675657
 70
   192
  0
VERTEX
  8
fence23
 10
25.912216
 20
48.872901
 30
10.167681
 70
   192
  0
VERTEX
  8
fence23
 10
25.912216
 20
49.553930
 30
13.806730
 70
   192
  0
VERTEX
  8
fence23
 10
25.912216
 20
51.963244
 30
16.617724
 70
   192
  0
VERTEX
  8
fence23
 10
-38.899164
 20
57.502736
 30
19.284393
 70
   192
  0
VERTEX
  8
fence23
 10
-38.527050
 20
61.141785
 30
18.603364
 70
   192
  0
VERTEX
  8
fence23
 10
-37.510415
 20
63.952779
 30
16.194051
 70
   192
  0
VERTEX
  8
fence23
 10
-36.121665
 20
65.182514
 30
12.702027
 70
   192
  0
VERTEX
  8
fence23
 10
-34.732916
 20
64.501485
 30
9.062978
 70
   192
  0
VERTEX
  8
fence23
 10
-33.716281
 20
62.092172
 30
6.251984
 70
   192
  0
VERTEX
  8
fence23
 10
-33.344166
 20
58.600148
 30
5.022248
 70
   192
  0
VERTEX
  8
fence23
 10
-33.716281
 20
54.961099
 30
5.703278
 70
   192
  0
VERTEX
  8
fence23
 10
-34.732916
 20
52.150105
 30
8.112591
 70
   192
  0
VERTEX
  8
fence23
 10
-36.121665
 20
50.920369
 30
11.604615
 70
   192
  0
VERTEX
  8
fence23
 10
-37.510415
 20
51.601399
 30
15.243664
 70
   192
  0
VERTEX
  8
fence23
 10
-38.527050
 20
54.010712
 30
18.054658
 70
   192
  0
VERTEX
  8
fence23
 10
-67.457317
 20
-18.929796
 30
-2.725185
 70
   192
  0
VERTEX
  8
fence23
 10
-67.543168
 20
94.041617
 30
-2.590533
 70
   192
  0
VERTEX
  8
fence23
 10
-53.704435
 20
-18.929796
 30
-2.725185
 70
   192
  0
VERTEX
  8
fence23
 10
-49.939479
 20
94.041617
 30
-2.590533
 70
   192
  0
VERTEX
  8
fence23
 10
-55.546972
 20
-18.929796
 30
-9.601626
 70
   192
  0
VERTEX
  8
fence23
 10
-52.297926
 20
94.041617
 30
-11.392377
 70
   192
  0
VERTEX
  8
fence23
 10
-60.580876
 20
-18.929796
 30
-14.635530
 70
   192
  0
VERTEX
  8
fence23
 10
-58.741324
 20
94.041617
 30
-17.835775
 70
   192
  0
VERTEX
  8
fence23
 10
-67.457317
 20
-18.929796
 30
-16.478067
 70
   192
  0
VERTEX
  8
fence23
 10
-67.543168
 20
94.041617
 30
-20.194222
 70
   192
  0
VERTEX
  8
fence23
 10
-74.333758
 20
-18.929796
 30
-14.635530
 70
   192
  0
VERTEX
  8
fence23
 10
-76.345013
 20
94.041617
 30
-17.835775
 70
   192
  0
VERTEX
  8
fence23
 10
-79.367663
 20
-18.929796
 30
-9.601626
 70
   192
  0
VERTEX
  8
fence23
 10
-82.788410
 20
94.041617
 30
-11.392377
 70
   192
  0
VERTEX
  8
fence23
 10
-81.210199
 20
-18.929796
 30
-2.725185
 70
   192
  0
VERTEX
  8
fence23
 10
-85.146858
 20
94.041617
 30
-2.590533
 70
   192
  0
VERTEX
  8
fence23
 10
-79.367663
 20
-18.929796
 30
4.151256
 70
   192
  0
VERTEX
  8
fence23
 10
-82.788410
 20
94.041617
 30
6.211312
 70
   192
  0
VERTEX
  8
fence23
 10
-74.333758
 20
-18.929796
 30
9.185160
 70
   192
  0
VERTEX
  8
fence23
 10
-76.345013
 20
94.041617
 30
12.654710
 70
   192
  0
VERTEX
  8
fence23
 10
-67.457317
 20
-18.929796
 30
11.027697
 70
   192
  0
VERTEX
  8
fence23
 10
-67.543168
 20
94.041617
 30
15.013157
 70
   192
  0
VERTEX
  8
fence23
 10
-60.580876
 20
-18.929796
 30
9.185160
 70
   192
  0
VERTEX
  8
fence23
 10
-58.741324
 20
94.041617
 30
12.654710
 70
   192
  0
VERTEX
  8
fence23
 10
-55.546972
 20
-18.929796
 30
4.151256
 70
   192
  0
VERTEX
  8
fence23
 10
-52.297926
 20
94.041617
 30
6.211312
 70
   192
  0
VERTEX
  8
fence23
 10
-54.126995
 20
23.607834
 30
-3.706079
 70
   192
  0
VERTEX
  8
fence23
 10
-56.042677
 20
23.607834
 30
-10.855501
 70
   192
  0
VERTEX
  8
fence23
 10
-61.276417
 20
23.607834
 30
-16.089240
 70
   192
  0
VERTEX
  8
fence23
 10
-68.425838
 20
23.607834
 30
-18.004922
 70
   192
  0
VERTEX
  8
fence23
 10
-75.575259
 20
23.607834
 30
-16.089240
 70
   192
  0
VERTEX
  8
fence23
 10
-80.808999
 20
23.607834
 30
-10.855501
 70
   192
  0
VERTEX
  8
fence23
 10
-82.724681
 20
23.607834
 30
-3.706079
 70
   192
  0
VERTEX
  8
fence23
 10
-80.808999
 20
23.607834
 30
3.443342
 70
   192
  0
VERTEX
  8
fence23
 10
-75.575259
 20
23.607834
 30
8.677082
 70
   192
  0
VERTEX
  8
fence23
 10
-68.425838
 20
23.607834
 30
10.592763
 70
   192
  0
VERTEX
  8
fence23
 10
-61.276417
 20
23.607834
 30
8.677082
 70
   192
  0
VERTEX
  8
fence23
 10
-56.042677
 20
23.607834
 30
3.443342
 70
   192
  0
VERTEX
  8
fence23
 10
-50.074153
 20
60.955343
 30
-2.657855
 70
   192
  0
VERTEX
  8
fence23
 10
-52.184521
 20
60.740913
 30
-10.492252
 70
   192
  0
VERTEX
  8
fence23
 10
-57.935967
 20
60.155078
 30
-16.203844
 70
   192
  0
VERTEX
  8
fence23
 10
-65.759361
 20
59.354812
 30
-18.262538
 70
   192
  0
VERTEX
  8
fence23
 10
-73.544915
 20
58.554546
 30
-16.141007
 70
   192
  0
VERTEX
  8
fence23
 10
-79.220681
 20
57.968711
 30
-10.431351
 70
   192
  0
VERTEX
  8
fence23
 10
-81.293209
 20
57.754280
 30
-2.663143
 70
   192
  0
VERTEX
  8
fence23
 10
-79.220681
 20
57.968711
 30
5.105760
 70
   192
  0
VERTEX
  8
fence23
 10
-73.544915
 20
58.554546
 30
10.817324
 70
   192
  0
VERTEX
  8
fence23
 10
-65.759361
 20
59.354812
 30
12.941486
 70
   192
  0
VERTEX
  8
fence23
 10
-57.935967
 20
60.155078
 30
10.885449
 70
   192
  0
VERTEX
  8
fence23
 10
-52.184521
 20
60.740913
 30
5.175820
 70
   192
  0
VERTEX
  8
fence23
 10
0.0
 20
0.0
 30
0.0
 70
   128
 71
   27
 72
   39
 73
   40
  0
VERTEX
  8
fence23
 10
0.0
 20
0.0
 30
0.0
 70
   128
 71
   3
 72
   27
 73
   28
  0
VERTEX
  8
fence23
 10
0.0
 20
0.0
 30
0.0
 70
   128
 71
   29
 72
   7
 73
   5
  0
VERTEX
  8
fence23
 10
0.0
 20
0.0
 30
0.0
 70
   128
 71
   29
 72
   41
 73
   42
  0
VERTEX
  8
fence23
 10
0.0
 20
0.0
 30
0.0
 70
   128
 71
   40
 72
   6
 73
   8
  0
VERTEX
  8
fence23
 10
0.0
 20
0.0
 30
0.0
 70
   128
 71
   31
 72
   11
 73
   9
  0
VERTEX
  8
fence23
 10
0.0
 20
0.0
 30
0.0
 70
   128
 71
   31
 72
   43
 73
   44
  0
VERTEX
  8
fence23
 10
0.0
 20
0.0
 30
0.0
 70
   128
 71
   7
 72
   29
 73
   30
  0
VERTEX
  8
fence23
 10
0.0
 20
0.0
 30
0.0
 70
   128
 71
   33
 72
   15
 73
   13
  0
VERTEX
  8
fence23
 10
0.0
 20
0.0
 30
0.0
 70
   128
 71
   33
 72
   45
 73
   46
  0
VERTEX
  8
fence23
 10
0.0
 20
0.0
 30
0.0
 70
   128
 71
   30
 72
   42
 73
   43
  0
VERTEX
  8
fence23
 10
0.0
 20
0.0
 30
0.0
 70
   128
 71
   35
 72
   19
 73
   17
  0
VERTEX
  8
fence23
 10
0.0
 20
0.0
 30
0.0
 70
   128
 71
   35
 72
   47
 73
   48
  0
VERTEX
  8
fence23
 10
0.0
 20
0.0
 30
0.0
 70
   128
 71
   11
 72
   31
 73
   32
  0
VERTEX
  8
fence23
 10
0.0
 20
0.0
 30
0.0
 70
   128
 71
   37
 72
   23
 73
   21
  0
VERTEX
  8
fence23
 10
0.0
 20
0.0
 30
0.0
 70
   128
 71
   37
 72
   49
 73
   50
  0
VERTEX
  8
fence23
 10
0.0
 20
0.0
 30
0.0
 70
   128
 71
   32
 72
   44
 73
   45
  0
VERTEX
  8
fence23
 10
0.0
 20
0.0
 30
0.0
 70
   128
 71
   27
 72
   3
 73
   25
  0
VERTEX
  8
fence23
 10
0.0
 20
0.0
 30
0.0
 70
   128
 71
   41
 72
   29
 73
   28
  0
VERTEX
  8
fence23
 10
0.0
 20
0.0
 30
0.0
 70
   128
 71
   15
 72
   33
 73
   34
  0
VERTEX
  8
fence23
 10
0.0
 20
0.0
 30
0.0
 70
   128
 71
   42
 72
   10
 73
   12
  0
VERTEX
  8
fence23
 10
0.0
 20
0.0
 30
0.0
 70
   128
 71
   44
 72
   14
 73
   16
  0
VERTEX
  8
fence23
 10
0.0
 20
0.0
 30
0.0
 70
   128
 71
   34
 72
   46
 73
   47
  0
VERTEX
  8
fence23
 10
0.0
 20
0.0
 30
0.0
 70
   128
 71
   46
 72
   18
 73
   20
  0
VERTEX
  8
fence23
 10
0.0
 20
0.0
 30
0.0
 70
   128
 71
   48
 72
   22
 73
   24
  0
VERTEX
  8
fence23
 10
0.0
 20
0.0
 30
0.0
 70
   128
 71
   19
 72
   35
 73
   36
  0
VERTEX
  8
fence23
 10
0.0
 20
0.0
 30
0.0
 70
   128
 71
   50
 72
   26
 73
   4
  0
VERTEX
  8
fence23
 10
0.0
 20
0.0
 30
0.0
 70
   128
 71
   39
 72
   4
 73
   6
  0
VERTEX
  8
fence23
 10
0.0
 20
0.0
 30
0.0
 70
   128
 71
   36
 72
   48
 73
   49
  0
VERTEX
  8
fence23
 10
0.0
 20
0.0
 30
0.0
 70
   128
 71
   41
 72
   8
 73
   10
  0
VERTEX
  8
fence23
 10
0.0
 20
0.0
 30
0.0
 70
   128
 71
   43
 72
   12
 73
   14
  0
VERTEX
  8
fence23
 10
0.0
 20
0.0
 30
0.0
 70
   128
 71
   23
 72
   37
 73
   38
  0
VERTEX
  8
fence23
 10
0.0
 20
0.0
 30
0.0
 70
   128
 71
   45
 72
   16
 73
   18
  0
VERTEX
  8
fence23
 10
0.0
 20
0.0
 30
0.0
 70
   128
 71
   47
 72
   20
 73
   22
  0
VERTEX
  8
fence23
 10
0.0
 20
0.0
 30
0.0
 70
   128
 71
   38
 72
   50
 73
   39
  0
VERTEX
  8
fence23
 10
0.0
 20
0.0
 30
0.0
 70
   128
 71
   49
 72
   24
 73
   26
  0
VERTEX
  8
fence23
 10
0.0
 20
0.0
 30
0.0
 70
   128
 71
   7
 72
   25
 73
   3
  0
VERTEX
  8
fence23
 10
0.0
 20
0.0
 30
0.0
 70
   128
 71
   19
 72
   25
 73
   7
  0
VERTEX
  8
fence23
 10
0.0
 20
0.0
 30
0.0
 70
   128
 71
   25
 72
   19
 73
   21
  0
VERTEX
  8
fence23
 10
0.0
 20
0.0
 30
0.0
 70
   128
 71
   9
 72
   11
 73
   13
  0
VERTEX
  8
fence23
 10
0.0
 20
0.0
 30
0.0
 70
   128
 71
   9
 72
   13
 73
   15
  0
VERTEX
  8
fence23
 10
0.0
 20
0.0
 30
0.0
 70
   128
 71
   15
 72
   17
 73
   19
  0
VERTEX
  8
fence23
 10
0.0
 20
0.0
 30
0.0
 70
   128
 71
   24
 72
   20
 73
   18
  0
VERTEX
  8
fence23
 10
0.0
 20
0.0
 30
0.0
 70
   128
 71
   24
 72
   22
 73
   20
  0
VERTEX
  8
fence23
 10
0.0
 20
0.0
 30
0.0
 70
   128
 71
   12
 72
   18
 73
   16
  0
VERTEX
  8
fence23
 10
0.0
 20
0.0
 30
0.0
 70
   128
 71
   26
 72
   18
 73
   12
  0
VERTEX
  8
fence23
 10
0.0
 20
0.0
 30
0.0
 70
   128
 71
   12
 72
   10
 73
   8
  0
VERTEX
  8
fence23
 10
0.0
 20
0.0
 30
0.0
 70
   128
 71
   6
 72
   4
 73
   26
  0
VERTEX
  8
fence23
 10
0.0
 20
0.0
 30
0.0
 70
   128
 71
   77
 72
   89
 73
   90
  0
VERTEX
  8
fence23
 10
0.0
 20
0.0
 30
0.0
 70
   128
 71
   53
 72
   77
 73
   78
  0
VERTEX
  8
fence23
 10
0.0
 20
0.0
 30
0.0
 70
   128
 71
   79
 72
   57
 73
   55
  0
VERTEX
  8
fence23
 10
0.0
 20
0.0
 30
0.0
 70
   128
 71
   79
 72
   91
 73
   92
  0
VERTEX
  8
fence23
 10
0.0
 20
0.0
 30
0.0
 70
   128
 71
   90
 72
   56
 73
   58
  0
VERTEX
  8
fence23
 10
0.0
 20
0.0
 30
0.0
 70
   128
 71
   81
 72
   61
 73
   59
  0
VERTEX
  8
fence23
 10
0.0
 20
0.0
 30
0.0
 70
   128
 71
   81
 72
   93
 73
   94
  0
VERTEX
  8
fence23
 10
0.0
 20
0.0
 30
0.0
 70
   128
 71
   57
 72
   79
 73
   80
  0
VERTEX
  8
fence23
 10
0.0
 20
0.0
 30
0.0
 70
   128
 71
   83
 72
   65
 73
   63
  0
VERTEX
  8
fence23
 10
0.0
 20
0.0
 30
0.0
 70
   128
 71
   83
 72
   95
 73
   96
  0
VERTEX
  8
fence23
 10
0.0
 20
0.0
 30
0.0
 70
   128
 71
   80
 72
   92
 73
   93
  0
VERTEX
  8
fence23
 10
0.0
 20
0.0
 30
0.0
 70
   128
 71
   85
 72
   69
 73
   67
  0
VERTEX
  8
fence23
 10
0.0
 20
0.0
 30
0.0
 70
   128
 71
   85
 72
   97
 73
   98
  0
VERTEX
  8
fence23
 10
0.0
 20
0.0
 30
0.0
 70
   128
 71
   61
 72
   81
 73
   82
  0
VERTEX
  8
fence23
 10
0.0
 20
0.0
 30
0.0
 70
   128
 71
   87
 72
   73
 73
   71
  0
VERTEX
  8
fence23
 10
0.0
 20
0.0
 30
0.0
 70
   128
 71
   87
 72
   99
 73
   100
  0
VERTEX
  8
fence23
 10
0.0
 20
0.0
 30
0.0
 70
   128
 71
   82
 72
   94
 73
   95
  0
VERTEX
  8
fence23
 10
0.0
 20
0.0
 30
0.0
 70
   128
 71
   77
 72
   53
 73
   75
  0
VERTEX
  8
fence23
 10
0.0
 20
0.0
 30
0.0
 70
   128
 71
   91
 72
   79
 73
   78
  0
VERTEX
  8
fence23
 10
0.0
 20
0.0
 30
0.0
 70
   128
 71
   65
 72
   83
 73
   84
  0
VERTEX
  8
fence23
 10
0.0
 20
0.0
 30
0.0
 70
   128
 71
   92
 72
   60
 73
   62
  0
VERTEX
  8
fence23
 10
0.0
 20
0.0
 30
0.0
 70
   128
 71
   94
 72
   64
 73
   66
  0
VERTEX
  8
fence23
 10
0.0
 20
0.0
 30
0.0
 70
   128
 71
   84
 72
   96
 73
   97
  0
VERTEX
  8
fence23
 10
0.0
 20
0.0
 30
0.0
 70
   128
 71
   96
 72
   68
 73
   70
  0
VERTEX
  8
fence23
 10
0.0
 20
0.0
 30
0.0
 70
   128
 71
   98
 72
   72
 73
   74
  0
VERTEX
  8
fence23
 10
0.0
 20
0.0
 30
0.0
 70
   128
 71
   69
 72
   85
 73
   86
  0
VERTEX
  8
fence23
 10
0.0
 20
0.0
 30
0.0
 70
   128
 71
   100
 72
   76
 73
   54
  0
VERTEX
  8
fence23
 10
0.0
 20
0.0
 30
0.0
 70
   128
 71
   89
 72
   54
 73
   56
  0
VERTEX
  8
fence23
 10
0.0
 20
0.0
 30
0.0
 70
   128
 71
   86
 72
   98
 73
   99
  0
VERTEX
  8
fence23
 10
0.0
 20
0.0
 30
0.0
 70
   128
 71
   91
 72
   58
 73
   60
  0
VERTEX
  8
fence23
 10
0.0
 20
0.0
 30
0.0
 70
   128
 71
   93
 72
   62
 73
   64
  0
VERTEX
  8
fence23
 10
0.0
 20
0.0
 30
0.0
 70
   128
 71
   73
 72
   87
 73
   88
  0
VERTEX
  8
fence23
 10
0.0
 20
0.0
 30
0.0
 70
   128
 71
   95
 72
   66
 73
   68
  0
VERTEX
  8
fence23
 10
0.0
 20
0.0
 30
0.0
 70
   128
 71
   97
 72
   70
 73
   72
  0
VERTEX
  8
fence23
 10
0.0
 20
0.0
 30
0.0
 70
   128
 71
   88
 72
   100
 73
   89
  0
VERTEX
  8
fence23
 10
0.0
 20
0.0
 30
0.0
 70
   128
 71
   99
 72
   74
 73
   76
  0
VERTEX
  8
fence23
 10
0.0
 20
0.0
 30
0.0
 70
   128
 71
   57
 72
   75
 73
   53
  0
VERTEX
  8
fence23
 10
0.0
 20
0.0
 30
0.0
 70
   128
 71
   69
 72
   75
 73
   57
  0
VERTEX
  8
fence23
 10
0.0
 20
0.0
 30
0.0
 70
   128
 71
   75
 72
   69
 73
   71
  0
VERTEX
  8
fence23
 10
0.0
 20
0.0
 30
0.0
 70
   128
 71
   59
 72
   61
 73
   63
  0
VERTEX
  8
fence23
 10
0.0
 20
0.0
 30
0.0
 70
   128
 71
   59
 72
   63
 73
   65
  0
VERTEX
  8
fence23
 10
0.0
 20
0.0
 30
0.0
 70
   128
 71
   65
 72
   67
 73
   69
  0
VERTEX
  8
fence23
 10
0.0
 20
0.0
 30
0.0
 70
   128
 71
   74
 72
   70
 73
   68
  0
VERTEX
  8
fence23
 10
0.0
 20
0.0
 30
0.0
 70
   128
 71
   74
 72
   72
 73
   70
  0
VERTEX
  8
fence23
 10
0.0
 20
0.0
 30
0.0
 70
   128
 71
   62
 72
   68
 73
   66
  0
VERTEX
  8
fence23
 10
0.0
 20
0.0
 30
0.0
 70
   128
 71
   76
 72
   68
 73
   62
  0
VERTEX
  8
fence23
 10
0.0
 20
0.0
 30
0.0
 70
   128
 71
   62
 72
   60
 73
   58
  0
VERTEX
  8
fence23
 10
0.0
 20
0.0
 30
0.0
 70
   128
 71
   56
 72
   54
 73
   76
  0
VERTEX
  8
fence23
 10
0.0
 20
0.0
 30
0.0
 70
   128
 71
   127
 72
   139
 73
   140
  0
VERTEX
  8
fence23
 10
0.0
 20
0.0
 30
0.0
 70
   128
 71
   103
 72
   127
 73
   128
  0
VERTEX
  8
fence23
 10
0.0
 20
0.0
 30
0.0
 70
   128
 71
   129
 72
   107
 73
   105
  0
VERTEX
  8
fence23
 10
0.0
 20
0.0
 30
0.0
 70
   128
 71
   129
 72
   141
 73
   142
  0
VERTEX
  8
fence23
 10
0.0
 20
0.0
 30
0.0
 70
   128
 71
   140
 72
   106
 73
   108
  0
VERTEX
  8
fence23
 10
0.0
 20
0.0
 30
0.0
 70
   128
 71
   131
 72
   111
 73
   109
  0
VERTEX
  8
fence23
 10
0.0
 20
0.0
 30
0.0
 70
   128
 71
   131
 72
   143
 73
   144
  0
VERTEX
  8
fence23
 10
0.0
 20
0.0
 30
0.0
 70
   128
 71
   107
 72
   129
 73
   130
  0
VERTEX
  8
fence23
 10
0.0
 20
0.0
 30
0.0
 70
   128
 71
   133
 72
   115
 73
   113
  0
VERTEX
  8
fence23
 10
0.0
 20
0.0
 30
0.0
 70
   128
 71
   133
 72
   145
 73
   146
  0
VERTEX
  8
fence23
 10
0.0
 20
0.0
 30
0.0
 70
   128
 71
   130
 72
   142
 73
   143
  0
VERTEX
  8
fence23
 10
0.0
 20
0.0
 30
0.0
 70
   128
 71
   135
 72
   119
 73
   117
  0
VERTEX
  8
fence23
 10
0.0
 20
0.0
 30
0.0
 70
   128
 71
   135
 72
   147
 73
   148
  0
VERTEX
  8
fence23
 10
0.0
 20
0.0
 30
0.0
 70
   128
 71
   111
 72
   131
 73
   132
  0
VERTEX
  8
fence23
 10
0.0
 20
0.0
 30
0.0
 70
   128
 71
   137
 72
   123
 73
   121
  0
VERTEX
  8
fence23
 10
0.0
 20
0.0
 30
0.0
 70
   128
 71
   137
 72
   149
 73
   150
  0
VERTEX
  8
fence23
 10
0.0
 20
0.0
 30
0.0
 70
   128
 71
   132
 72
   144
 73
   145
  0
VERTEX
  8
fence23
 10
0.0
 20
0.0
 30
0.0
 70
   128
 71
   127
 72
   103
 73
   125
  0
VERTEX
  8
fence23
 10
0.0
 20
0.0
 30
0.0
 70
   128
 71
   141
 72
   129
 73
   128
  0
VERTEX
  8
fence23
 10
0.0
 20
0.0
 30
0.0
 70
   128
 71
   115
 72
   133
 73
   134
  0
VERTEX
  8
fence23
 10
0.0
 20
0.0
 30
0.0
 70
   128
 71
   142
 72
   110
 73
   112
  0
VERTEX
  8
fence23
 10
0.0
 20
0.0
 30
0.0
 70
   128
 71
   144
 72
   114
 73
   116
  0
VERTEX
  8
fence23
 10
0.0
 20
0.0
 30
0.0
 70
   128
 71
   134
 72
   146
 73
   147
  0
VERTEX
  8
fence23
 10
0.0
 20
0.0
 30
0.0
 70
   128
 71
   146
 72
   118
 73
   120
  0
VERTEX
  8
fence23
 10
0.0
 20
0.0
 30
0.0
 70
   128
 71
   148
 72
   122
 73
   124
  0
VERTEX
  8
fence23
 10
0.0
 20
0.0
 30
0.0
 70
   128
 71
   119
 72
   135
 73
   136
  0
VERTEX
  8
fence23
 10
0.0
 20
0.0
 30
0.0
 70
   128
 71
   150
 72
   126
 73
   104
  0
VERTEX
  8
fence23
 10
0.0
 20
0.0
 30
0.0
 70
   128
 71
   139
 72
   104
 73
   106
  0
VERTEX
  8
fence23
 10
0.0
 20
0.0
 30
0.0
 70
   128
 71
   136
 72
   148
 73
   149
  0
VERTEX
  8
fence23
 10
0.0
 20
0.0
 30
0.0
 70
   128
 71
   141
 72
   108
 73
   110
  0
VERTEX
  8
fence23
 10
0.0
 20
0.0
 30
0.0
 70
   128
 71
   143
 72
   112
 73
   114
  0
VERTEX
  8
fence23
 10
0.0
 20
0.0
 30
0.0
 70
   128
 71
   123
 72
   137
 73
   138
  0
VERTEX
  8
fence23
 10
0.0
 20
0.0
 30
0.0
 70
   128
 71
   145
 72
   116
 73
   118
  0
VERTEX
  8
fence23
 10
0.0
 20
0.0
 30
0.0
 70
   128
 71
   147
 72
   120
 73
   122
  0
VERTEX
  8
fence23
 10
0.0
 20
0.0
 30
0.0
 70
   128
 71
   138
 72
   150
 73
   139
  0
VERTEX
  8
fence23
 10
0.0
 20
0.0
 30
0.0
 70
   128
 71
   149
 72
   124
 73
   126
  0
VERTEX
  8
fence23
 10
0.0
 20
0.0
 30
0.0
 70
   128
 71
   107
 72
   125
 73
   103
  0
VERTEX
  8
fence23
 10
0.0
 20
0.0
 30
0.0
 70
   128
 71
   119
 72
   125
 73
   107
  0
VERTEX
  8
fence23
 10
0.0
 20
0.0
 30
0.0
 70
   128
 71
   125
 72
   119
 73
   121
  0
VERTEX
  8
fence23
 10
0.0
 20
0.0
 30
0.0
 70
   128
 71
   109
 72
   111
 73
   113
  0
VERTEX
  8
fence23
 10
0.0
 20
0.0
 30
0.0
 70
   128
 71
   109
 72
   113
 73
   115
  0
VERTEX
  8
fence23
 10
0.0
 20
0.0
 30
0.0
 70
   128
 71
   115
 72
   117
 73
   119
  0
VERTEX
  8
fence23
 10
0.0
 20
0.0
 30
0.0
 70
   128
 71
   124
 72
   120
 73
   118
  0
VERTEX
  8
fence23
 10
0.0
 20
0.0
 30
0.0
 70
   128
 71
   124
 72
   122
 73
   120
  0
VERTEX
  8
fence23
 10
0.0
 20
0.0
 30
0.0
 70
   128
 71
   112
 72
   118
 73
   116
  0
VERTEX
  8
fence23
 10
0.0
 20
0.0
 30
0.0
 70
   128
 71
   126
 72
   118
 73
   112
  0
VERTEX
  8
fence23
 10
0.0
 20
0.0
 30
0.0
 70
   128
 71
   112
 72
   110
 73
   108
  0
VERTEX
  8
fence23
 10
0.0
 20
0.0
 30
0.0
 70
   128
 71
   106
 72
   104
 73
   126
  0
VERTEX
  8
fence23
 10
0.0
 20
0.0
 30
0.0
 70
   128
 71
   177
 72
   189
 73
   190
  0
VERTEX
  8
fence23
 10
0.0
 20
0.0
 30
0.0
 70
   128
 71
   153
 72
   177
 73
   178
  0
VERTEX
  8
fence23
 10
0.0
 20
0.0
 30
0.0
 70
   128
 71
   179
 72
   157
 73
   155
  0
VERTEX
  8
fence23
 10
0.0
 20
0.0
 30
0.0
 70
   128
 71
   179
 72
   191
 73
   192
  0
VERTEX
  8
fence23
 10
0.0
 20
0.0
 30
0.0
 70
   128
 71
   190
 72
   156
 73
   158
  0
VERTEX
  8
fence23
 10
0.0
 20
0.0
 30
0.0
 70
   128
 71
   181
 72
   161
 73
   159
  0
VERTEX
  8
fence23
 10
0.0
 20
0.0
 30
0.0
 70
   128
 71
   181
 72
   193
 73
   194
  0
VERTEX
  8
fence23
 10
0.0
 20
0.0
 30
0.0
 70
   128
 71
   157
 72
   179
 73
   180
  0
VERTEX
  8
fence23
 10
0.0
 20
0.0
 30
0.0
 70
   128
 71
   183
 72
   165
 73
   163
  0
VERTEX
  8
fence23
 10
0.0
 20
0.0
 30
0.0
 70
   128
 71
   183
 72
   195
 73
   196
  0
VERTEX
  8
fence23
 10
0.0
 20
0.0
 30
0.0
 70
   128
 71
   180
 72
   192
 73
   193
  0
VERTEX
  8
fence23
 10
0.0
 20
0.0
 30
0.0
 70
   128
 71
   185
 72
   169
 73
   167
  0
VERTEX
  8
fence23
 10
0.0
 20
0.0
 30
0.0
 70
   128
 71
   185
 72
   197
 73
   198
  0
VERTEX
  8
fence23
 10
0.0
 20
0.0
 30
0.0
 70
   128
 71
   161
 72
   181
 73
   182
  0
VERTEX
  8
fence23
 10
0.0
 20
0.0
 30
0.0
 70
   128
 71
   187
 72
   173
 73
   171
  0
VERTEX
  8
fence23
 10
0.0
 20
0.0
 30
0.0
 70
   128
 71
   187
 72
   199
 73
   200
  0
VERTEX
  8
fence23
 10
0.0
 20
0.0
 30
0.0
 70
   128
 71
   182
 72
   194
 73
   195
  0
VERTEX
  8
fence23
 10
0.0
 20
0.0
 30
0.0
 70
   128
 71
   177
 72
   153
 73
   175
  0
VERTEX
  8
fence23
 10
0.0
 20
0.0
 30
0.0
 70
   128
 71
   191
 72
   179
 73
   178
  0
VERTEX
  8
fence23
 10
0.0
 20
0.0
 30
0.0
 70
   128
 71
   165
 72
   183
 73
   184
  0
VERTEX
  8
fence23
 10
0.0
 20
0.0
 30
0.0
 70
   128
 71
   192
 72
   160
 73
   162
  0
VERTEX
  8
fence23
 10
0.0
 20
0.0
 30
0.0
 70
   128
 71
   194
 72
   164
 73
   166
  0
VERTEX
  8
fence23
 10
0.0
 20
0.0
 30
0.0
 70
   128
 71
   184
 72
   196
 73
   197
  0
VERTEX
  8
fence23
 10
0.0
 20
0.0
 30
0.0
 70
   128
 71
   196
 72
   168
 73
   170
  0
VERTEX
  8
fence23
 10
0.0
 20
0.0
 30
0.0
 70
   128
 71
   198
 72
   172
 73
   174
  0
VERTEX
  8
fence23
 10
0.0
 20
0.0
 30
0.0
 70
   128
 71
   169
 72
   185
 73
   186
  0
VERTEX
  8
fence23
 10
0.0
 20
0.0
 30
0.0
 70
   128
 71
   200
 72
   176
 73
   154
  0
VERTEX
  8
fence23
 10
0.0
 20
0.0
 30
0.0
 70
   128
 71
   189
 72
   154
 73
   156
  0
VERTEX
  8
fence23
 10
0.0
 20
0.0
 30
0.0
 70
   128
 71
   186
 72
   198
 73
   199
  0
VERTEX
  8
fence23
 10
0.0
 20
0.0
 30
0.0
 70
   128
 71
   191
 72
   158
 73
   160
  0
VERTEX
  8
fence23
 10
0.0
 20
0.0
 30
0.0
 70
   128
 71
   193
 72
   162
 73
   164
  0
VERTEX
  8
fence23
 10
0.0
 20
0.0
 30
0.0
 70
   128
 71
   173
 72
   187
 73
   188
  0
VERTEX
  8
fence23
 10
0.0
 20
0.0
 30
0.0
 70
   128
 71
   195
 72
   166
 73
   168
  0
VERTEX
  8
fence23
 10
0.0
 20
0.0
 30
0.0
 70
   128
 71
   197
 72
   170
 73
   172
  0
VERTEX
  8
fence23
 10
0.0
 20
0.0
 30
0.0
 70
   128
 71
   188
 72
   200
 73
   189
  0
VERTEX
  8
fence23
 10
0.0
 20
0.0
 30
0.0
 70
   128
 71
   199
 72
   174
 73
   176
  0
VERTEX
  8
fence23
 10
0.0
 20
0.0
 30
0.0
 70
   128
 71
   157
 72
   175
 73
   153
  0
VERTEX
  8
fence23
 10
0.0
 20
0.0
 30
0.0
 70
   128
 71
   169
 72
   175
 73
   157
  0
VERTEX
  8
fence23
 10
0.0
 20
0.0
 30
0.0
 70
   128
 71
   175
 72
   169
 73
   171
  0
VERTEX
  8
fence23
 10
0.0
 20
0.0
 30
0.0
 70
   128
 71
   159
 72
   161
 73
   163
  0
VERTEX
  8
fence23
 10
0.0
 20
0.0
 30
0.0
 70
   128
 71
   159
 72
   163
 73
   165
  0
VERTEX
  8
fence23
 10
0.0
 20
0.0
 30
0.0
 70
   128
 71
   165
 72
   167
 73
   169
  0
VERTEX
  8
fence23
 10
0.0
 20
0.0
 30
0.0
 70
   128
 71
   174
 72
   170
 73
   168
  0
VERTEX
  8
fence23
 10
0.0
 20
0.0
 30
0.0
 70
   128
 71
   174
 72
   172
 73
   170
  0
VERTEX
  8
fence23
 10
0.0
 20
0.0
 30
0.0
 70
   128
 71
   162
 72
   168
 73
   166
  0
VERTEX
  8
fence23
 10
0.0
 20
0.0
 30
0.0
 70
   128
 71
   176
 72
   168
 73
   162
  0
VERTEX
  8
fence23
 10
0.0
 20
0.0
 30
0.0
 70
   128
 71
   162
 72
   160
 73
   158
  0
VERTEX
  8
fence23
 10
0.0
 20
0.0
 30
0.0
 70
   128
 71
   156
 72
   154
 73
   176
  0
VERTEX
  8
fence23
 10
0.0
 20
0.0
 30
0.0
 70
   128
 71
   27
 72
   40
 73
   28
  0
VERTEX
  8
fence23
 10
0.0
 20
0.0
 30
0.0
 70
   128
 71
   3
 72
   28
 73
   5
  0
VERTEX
  8
fence23
 10
0.0
 20
0.0
 30
0.0
 70
   128
 71
   29
 72
   5
 73
   28
  0
VERTEX
  8
fence23
 10
0.0
 20
0.0
 30
0.0
 70
   128
 71
   29
 72
   42
 73
   30
  0
VERTEX
  8
fence23
 10
0.0
 20
0.0
 30
0.0
 70
   128
 71
   40
 72
   8
 73
   41
  0
VERTEX
  8
fence23
 10
0.0
 20
0.0
 30
0.0
 70
   128
 71
   31
 72
   9
 73
   30
  0
VERTEX
  8
fence23
 10
0.0
 20
0.0
 30
0.0
 70
   128
 71
   31
 72
   44
 73
   32
  0
VERTEX
  8
fence23
 10
0.0
 20
0.0
 30
0.0
 70
   128
 71
   7
 72
   30
 73
   9
  0
VERTEX
  8
fence23
 10
0.0
 20
0.0
 30
0.0
 70
   128
 71
   33
 72
   13
 73
   32
  0
VERTEX
  8
fence23
 10
0.0
 20
0.0
 30
0.0
 70
   128
 71
   33
 72
   46
 73
   34
  0
VERTEX
  8
fence23
 10
0.0
 20
0.0
 30
0.0
 70
   128
 71
   30
 72
   43
 73
   31
  0
VERTEX
  8
fence23
 10
0.0
 20
0.0
 30
0.0
 70
   128
 71
   35
 72
   17
 73
   34
  0
VERTEX
  8
fence23
 10
0.0
 20
0.0
 30
0.0
 70
   128
 71
   35
 72
   48
 73
   36
  0
VERTEX
  8
fence23
 10
0.0
 20
0.0
 30
0.0
 70
   128
 71
   11
 72
   32
 73
   13
  0
VERTEX
  8
fence23
 10
0.0
 20
0.0
 30
0.0
 70
   128
 71
   37
 72
   21
 73
   36
  0
VERTEX
  8
fence23
 10
0.0
 20
0.0
 30
0.0
 70
   128
 71
   37
 72
   50
 73
   38
  0
VERTEX
  8
fence23
 10
0.0
 20
0.0
 30
0.0
 70
   128
 71
   32
 72
   45
 73
   33
  0
VERTEX
  8
fence23
 10
0.0
 20
0.0
 30
0.0
 70
   128
 71
   27
 72
   25
 73
   38
  0
VERTEX
  8
fence23
 10
0.0
 20
0.0
 30
0.0
 70
   128
 71
   41
 72
   28
 73
   40
  0
VERTEX
  8
fence23
 10
0.0
 20
0.0
 30
0.0
 70
   128
 71
   15
 72
   34
 73
   17
  0
VERTEX
  8
fence23
 10
0.0
 20
0.0
 30
0.0
 70
   128
 71
   42
 72
   12
 73
   43
  0
VERTEX
  8
fence23
 10
0.0
 20
0.0
 30
0.0
 70
   128
 71
   44
 72
   16
 73
   45
  0
VERTEX
  8
fence23
 10
0.0
 20
0.0
 30
0.0
 70
   128
 71
   34
 72
   47
 73
   35
  0
VERTEX
  8
fence23
 10
0.0
 20
0.0
 30
0.0
 70
   128
 71
   46
 72
   20
 73
   47
  0
VERTEX
  8
fence23
 10
0.0
 20
0.0
 30
0.0
 70
   128
 71
   48
 72
   24
 73
   49
  0
VERTEX
  8
fence23
 10
0.0
 20
0.0
 30
0.0
 70
   128
 71
   19
 72
   36
 73
   21
  0
VERTEX
  8
fence23
 10
0.0
 20
0.0
 30
0.0
 70
   128
 71
   50
 72
   4
 73
   39
  0
VERTEX
  8
fence23
 10
0.0
 20
0.0
 30
0.0
 70
   128
 71
   39
 72
   6
 73
   40
  0
VERTEX
  8
fence23
 10
0.0
 20
0.0
 30
0.0
 70
   128
 71
   36
 72
   49
 73
   37
  0
VERTEX
  8
fence23
 10
0.0
 20
0.0
 30
0.0
 70
   128
 71
   41
 72
   10
 73
   42
  0
VERTEX
  8
fence23
 10
0.0
 20
0.0
 30
0.0
 70
   128
 71
   43
 72
   14
 73
   44
  0
VERTEX
  8
fence23
 10
0.0
 20
0.0
 30
0.0
 70
   128
 71
   23
 72
   38
 73
   25
  0
VERTEX
  8
fence23
 10
0.0
 20
0.0
 30
0.0
 70
   128
 71
   45
 72
   18
 73
   46
  0
VERTEX
  8
fence23
 10
0.0
 20
0.0
 30
0.0
 70
   128
 71
   47
 72
   22
 73
   48
  0
VERTEX
  8
fence23
 10
0.0
 20
0.0
 30
0.0
 70
   128
 71
   38
 72
   39
 73
   27
  0
VERTEX
  8
fence23
 10
0.0
 20
0.0
 30
0.0
 70
   128
 71
   49
 72
   26
 73
   50
  0
VERTEX
  8
fence23
 10
0.0
 20
0.0
 30
0.0
 70
   128
 71
   7
 72
   3
 73
   5
  0
VERTEX
  8
fence23
 10
0.0
 20
0.0
 30
0.0
 70
   128
 71
   19
 72
   7
 73
   9
  0
VERTEX
  8
fence23
 10
0.0
 20
0.0
 30
0.0
 70
   128
 71
   25
 72
   21
 73
   23
  0
VERTEX
  8
fence23
 10
0.0
 20
0.0
 30
0.0
 70
   128
 71
   9
 72
   15
 73
   19
  0
VERTEX
  8
fence23
 10
0.0
 20
0.0
 30
0.0
 70
   128
 71
   24
 72
   18
 73
   26
  0
VERTEX
  8
fence23
 10
0.0
 20
0.0
 30
0.0
 70
   128
 71
   12
 72
   16
 73
   14
  0
VERTEX
  8
fence23
 10
0.0
 20
0.0
 30
0.0
 70
   128
 71
   26
 72
   12
 73
   6
  0
VERTEX
  8
fence23
 10
0.0
 20
0.0
 30
0.0
 70
   128
 71
   12
 72
   8
 73
   6
  0
VERTEX
  8
fence23
 10
0.0
 20
0.0
 30
0.0
 70
   128
 71
   77
 72
   90
 73
   78
  0
VERTEX
  8
fence23
 10
0.0
 20
0.0
 30
0.0
 70
   128
 71
   53
 72
   78
 73
   55
  0
VERTEX
  8
fence23
 10
0.0
 20
0.0
 30
0.0
 70
   128
 71
   79
 72
   55
 73
   78
  0
VERTEX
  8
fence23
 10
0.0
 20
0.0
 30
0.0
 70
   128
 71
   79
 72
   92
 73
   80
  0
VERTEX
  8
fence23
 10
0.0
 20
0.0
 30
0.0
 70
   128
 71
   90
 72
   58
 73
   91
  0
VERTEX
  8
fence23
 10
0.0
 20
0.0
 30
0.0
 70
   128
 71
   81
 72
   59
 73
   80
  0
VERTEX
  8
fence23
 10
0.0
 20
0.0
 30
0.0
 70
   128
 71
   81
 72
   94
 73
   82
  0
VERTEX
  8
fence23
 10
0.0
 20
0.0
 30
0.0
 70
   128
 71
   57
 72
   80
 73
   59
  0
VERTEX
  8
fence23
 10
0.0
 20
0.0
 30
0.0
 70
   128
 71
   83
 72
   63
 73
   82
  0
VERTEX
  8
fence23
 10
0.0
 20
0.0
 30
0.0
 70
   128
 71
   83
 72
   96
 73
   84
  0
VERTEX
  8
fence23
 10
0.0
 20
0.0
 30
0.0
 70
   128
 71
   80
 72
   93
 73
   81
  0
VERTEX
  8
fence23
 10
0.0
 20
0.0
 30
0.0
 70
   128
 71
   85
 72
   67
 73
   84
  0
VERTEX
  8
fence23
 10
0.0
 20
0.0
 30
0.0
 70
   128
 71
   85
 72
   98
 73
   86
  0
VERTEX
  8
fence23
 10
0.0
 20
0.0
 30
0.0
 70
   128
 71
   61
 72
   82
 73
   63
  0
VERTEX
  8
fence23
 10
0.0
 20
0.0
 30
0.0
 70
   128
 71
   87
 72
   71
 73
   86
  0
VERTEX
  8
fence23
 10
0.0
 20
0.0
 30
0.0
 70
   128
 71
   87
 72
   100
 73
   88
  0
VERTEX
  8
fence23
 10
0.0
 20
0.0
 30
0.0
 70
   128
 71
   82
 72
   95
 73
   83
  0
VERTEX
  8
fence23
 10
0.0
 20
0.0
 30
0.0
 70
   128
 71
   77
 72
   75
 73
   88
  0
VERTEX
  8
fence23
 10
0.0
 20
0.0
 30
0.0
 70
   128
 71
   91
 72
   78
 73
   90
  0
VERTEX
  8
fence23
 10
0.0
 20
0.0
 30
0.0
 70
   128
 71
   65
 72
   84
 73
   67
  0
VERTEX
  8
fence23
 10
0.0
 20
0.0
 30
0.0
 70
   128
 71
   92
 72
   62
 73
   93
  0
VERTEX
  8
fence23
 10
0.0
 20
0.0
 30
0.0
 70
   128
 71
   94
 72
   66
 73
   95
  0
VERTEX
  8
fence23
 10
0.0
 20
0.0
 30
0.0
 70
   128
 71
   84
 72
   97
 73
   85
  0
VERTEX
  8
fence23
 10
0.0
 20
0.0
 30
0.0
 70
   128
 71
   96
 72
   70
 73
   97
  0
VERTEX
  8
fence23
 10
0.0
 20
0.0
 30
0.0
 70
   128
 71
   98
 72
   74
 73
   99
  0
VERTEX
  8
fence23
 10
0.0
 20
0.0
 30
0.0
 70
   128
 71
   69
 72
   86
 73
   71
  0
VERTEX
  8
fence23
 10
0.0
 20
0.0
 30
0.0
 70
   128
 71
   100
 72
   54
 73
   89
  0
VERTEX
  8
fence23
 10
0.0
 20
0.0
 30
0.0
 70
   128
 71
   89
 72
   56
 73
   90
  0
VERTEX
  8
fence23
 10
0.0
 20
0.0
 30
0.0
 70
   128
 71
   86
 72
   99
 73
   87
  0
VERTEX
  8
fence23
 10
0.0
 20
0.0
 30
0.0
 70
   128
 71
   91
 72
   60
 73
   92
  0
VERTEX
  8
fence23
 10
0.0
 20
0.0
 30
0.0
 70
   128
 71
   93
 72
   64
 73
   94
  0
VERTEX
  8
fence23
 10
0.0
 20
0.0
 30
0.0
 70
   128
 71
   73
 72
   88
 73
   75
  0
VERTEX
  8
fence23
 10
0.0
 20
0.0
 30
0.0
 70
   128
 71
   95
 72
   68
 73
   96
  0
VERTEX
  8
fence23
 10
0.0
 20
0.0
 30
0.0
 70
   128
 71
   97
 72
   72
 73
   98
  0
VERTEX
  8
fence23
 10
0.0
 20
0.0
 30
0.0
 70
   128
 71
   88
 72
   89
 73
   77
  0
VERTEX
  8
fence23
 10
0.0
 20
0.0
 30
0.0
 70
   128
 71
   99
 72
   76
 73
   100
  0
VERTEX
  8
fence23
 10
0.0
 20
0.0
 30
0.0
 70
   128
 71
   57
 72
   53
 73
   55
  0
VERTEX
  8
fence23
 10
0.0
 20
0.0
 30
0.0
 70
   128
 71
   69
 72
   57
 73
   59
  0
VERTEX
  8
fence23
 10
0.0
 20
0.0
 30
0.0
 70
   128
 71
   75
 72
   71
 73
   73
  0
VERTEX
  8
fence23
 10
0.0
 20
0.0
 30
0.0
 70
   128
 71
   59
 72
   65
 73
   69
  0
VERTEX
  8
fence23
 10
0.0
 20
0.0
 30
0.0
 70
   128
 71
   74
 72
   68
 73
   76
  0
VERTEX
  8
fence23
 10
0.0
 20
0.0
 30
0.0
 70
   128
 71
   62
 72
   66
 73
   64
  0
VERTEX
  8
fence23
 10
0.0
 20
0.0
 30
0.0
 70
   128
 71
   76
 72
   62
 73
   56
  0
VERTEX
  8
fence23
 10
0.0
 20
0.0
 30
0.0
 70
   128
 71
   62
 72
   58
 73
   56
  0
VERTEX
  8
fence23
 10
0.0
 20
0.0
 30
0.0
 70
   128
 71
   127
 72
   140
 73
   128
  0
VERTEX
  8
fence23
 10
0.0
 20
0.0
 30
0.0
 70
   128
 71
   103
 72
   128
 73
   105
  0
VERTEX
  8
fence23
 10
0.0
 20
0.0
 30
0.0
 70
   128
 71
   129
 72
   105
 73
   128
  0
VERTEX
  8
fence23
 10
0.0
 20
0.0
 30
0.0
 70
   128
 71
   129
 72
   142
 73
   130
  0
VERTEX
  8
fence23
 10
0.0
 20
0.0
 30
0.0
 70
   128
 71
   140
 72
   108
 73
   141
  0
VERTEX
  8
fence23
 10
0.0
 20
0.0
 30
0.0
 70
   128
 71
   131
 72
   109
 73
   130
  0
VERTEX
  8
fence23
 10
0.0
 20
0.0
 30
0.0
 70
   128
 71
   131
 72
   144
 73
   132
  0
VERTEX
  8
fence23
 10
0.0
 20
0.0
 30
0.0
 70
   128
 71
   107
 72
   130
 73
   109
  0
VERTEX
  8
fence23
 10
0.0
 20
0.0
 30
0.0
 70
   128
 71
   133
 72
   113
 73
   132
  0
VERTEX
  8
fence23
 10
0.0
 20
0.0
 30
0.0
 70
   128
 71
   133
 72
   146
 73
   134
  0
VERTEX
  8
fence23
 10
0.0
 20
0.0
 30
0.0
 70
   128
 71
   130
 72
   143
 73
   131
  0
VERTEX
  8
fence23
 10
0.0
 20
0.0
 30
0.0
 70
   128
 71
   135
 72
   117
 73
   134
  0
VERTEX
  8
fence23
 10
0.0
 20
0.0
 30
0.0
 70
   128
 71
   135
 72
   148
 73
   136
  0
VERTEX
  8
fence23
 10
0.0
 20
0.0
 30
0.0
 70
   128
 71
   111
 72
   132
 73
   113
  0
VERTEX
  8
fence23
 10
0.0
 20
0.0
 30
0.0
 70
   128
 71
   137
 72
   121
 73
   136
  0
VERTEX
  8
fence23
 10
0.0
 20
0.0
 30
0.0
 70
   128
 71
   137
 72
   150
 73
   138
  0
VERTEX
  8
fence23
 10
0.0
 20
0.0
 30
0.0
 70
   128
 71
   132
 72
   145
 73
   133
  0
VERTEX
  8
fence23
 10
0.0
 20
0.0
 30
0.0
 70
   128
 71
   127
 72
   125
 73
   138
  0
VERTEX
  8
fence23
 10
0.0
 20
0.0
 30
0.0
 70
   128
 71
   141
 72
   128
 73
   140
  0
VERTEX
  8
fence23
 10
0.0
 20
0.0
 30
0.0
 70
   128
 71
   115
 72
   134
 73
   117
  0
VERTEX
  8
fence23
 10
0.0
 20
0.0
 30
0.0
 70
   128
 71
   142
 72
   112
 73
   143
  0
VERTEX
  8
fence23
 10
0.0
 20
0.0
 30
0.0
 70
   128
 71
   144
 72
   116
 73
   145
  0
VERTEX
  8
fence23
 10
0.0
 20
0.0
 30
0.0
 70
   128
 71
   134
 72
   147
 73
   135
  0
VERTEX
  8
fence23
 10
0.0
 20
0.0
 30
0.0
 70
   128
 71
   146
 72
   120
 73
   147
  0
VERTEX
  8
fence23
 10
0.0
 20
0.0
 30
0.0
 70
   128
 71
   148
 72
   124
 73
   149
  0
VERTEX
  8
fence23
 10
0.0
 20
0.0
 30
0.0
 70
   128
 71
   119
 72
   136
 73
   121
  0
VERTEX
  8
fence23
 10
0.0
 20
0.0
 30
0.0
 70
   128
 71
   150
 72
   104
 73
   139
  0
VERTEX
  8
fence23
 10
0.0
 20
0.0
 30
0.0
 70
   128
 71
   139
 72
   106
 73
   140
  0
VERTEX
  8
fence23
 10
0.0
 20
0.0
 30
0.0
 70
   128
 71
   136
 72
   149
 73
   137
  0
VERTEX
  8
fence23
 10
0.0
 20
0.0
 30
0.0
 70
   128
 71
   141
 72
   110
 73
   142
  0
VERTEX
  8
fence23
 10
0.0
 20
0.0
 30
0.0
 70
   128
 71
   143
 72
   114
 73
   144
  0
VERTEX
  8
fence23
 10
0.0
 20
0.0
 30
0.0
 70
   128
 71
   123
 72
   138
 73
   125
  0
VERTEX
  8
fence23
 10
0.0
 20
0.0
 30
0.0
 70
   128
 71
   145
 72
   118
 73
   146
  0
VERTEX
  8
fence23
 10
0.0
 20
0.0
 30
0.0
 70
   128
 71
   147
 72
   122
 73
   148
  0
VERTEX
  8
fence23
 10
0.0
 20
0.0
 30
0.0
 70
   128
 71
   138
 72
   139
 73
   127
  0
VERTEX
  8
fence23
 10
0.0
 20
0.0
 30
0.0
 70
   128
 71
   149
 72
   126
 73
   150
  0
VERTEX
  8
fence23
 10
0.0
 20
0.0
 30
0.0
 70
   128
 71
   107
 72
   103
 73
   105
  0
VERTEX
  8
fence23
 10
0.0
 20
0.0
 30
0.0
 70
   128
 71
   119
 72
   107
 73
   109
  0
VERTEX
  8
fence23
 10
0.0
 20
0.0
 30
0.0
 70
   128
 71
   125
 72
   121
 73
   123
  0
VERTEX
  8
fence23
 10
0.0
 20
0.0
 30
0.0
 70
   128
 71
   109
 72
   115
 73
   119
  0
VERTEX
  8
fence23
 10
0.0
 20
0.0
 30
0.0
 70
   128
 71
   124
 72
   118
 73
   126
  0
VERTEX
  8
fence23
 10
0.0
 20
0.0
 30
0.0
 70
   128
 71
   112
 72
   116
 73
   114
  0
VERTEX
  8
fence23
 10
0.0
 20
0.0
 30
0.0
 70
   128
 71
   126
 72
   112
 73
   106
  0
VERTEX
  8
fence23
 10
0.0
 20
0.0
 30
0.0
 70
   128
 71
   112
 72
   108
 73
   106
  0
VERTEX
  8
fence23
 10
0.0
 20
0.0
 30
0.0
 70
   128
 71
   177
 72
   190
 73
   178
  0
VERTEX
  8
fence23
 10
0.0
 20
0.0
 30
0.0
 70
   128
 71
   153
 72
   178
 73
   155
  0
VERTEX
  8
fence23
 10
0.0
 20
0.0
 30
0.0
 70
   128
 71
   179
 72
   155
 73
   178
  0
VERTEX
  8
fence23
 10
0.0
 20
0.0
 30
0.0
 70
   128
 71
   179
 72
   192
 73
   180
  0
VERTEX
  8
fence23
 10
0.0
 20
0.0
 30
0.0
 70
   128
 71
   190
 72
   158
 73
   191
  0
VERTEX
  8
fence23
 10
0.0
 20
0.0
 30
0.0
 70
   128
 71
   181
 72
   159
 73
   180
  0
VERTEX
  8
fence23
 10
0.0
 20
0.0
 30
0.0
 70
   128
 71
   181
 72
   194
 73
   182
  0
VERTEX
  8
fence23
 10
0.0
 20
0.0
 30
0.0
 70
   128
 71
   157
 72
   180
 73
   159
  0
VERTEX
  8
fence23
 10
0.0
 20
0.0
 30
0.0
 70
   128
 71
   183
 72
   163
 73
   182
  0
VERTEX
  8
fence23
 10
0.0
 20
0.0
 30
0.0
 70
   128
 71
   183
 72
   196
 73
   184
  0
VERTEX
  8
fence23
 10
0.0
 20
0.0
 30
0.0
 70
   128
 71
   180
 72
   193
 73
   181
  0
VERTEX
  8
fence23
 10
0.0
 20
0.0
 30
0.0
 70
   128
 71
   185
 72
   167
 73
   184
  0
VERTEX
  8
fence23
 10
0.0
 20
0.0
 30
0.0
 70
   128
 71
   185
 72
   198
 73
   186
  0
VERTEX
  8
fence23
 10
0.0
 20
0.0
 30
0.0
 70
   128
 71
   161
 72
   182
 73
   163
  0
VERTEX
  8
fence23
 10
0.0
 20
0.0
 30
0.0
 70
   128
 71
   187
 72
   171
 73
   186
  0
VERTEX
  8
fence23
 10
0.0
 20
0.0
 30
0.0
 70
   128
 71
   187
 72
   200
 73
   188
  0
VERTEX
  8
fence23
 10
0.0
 20
0.0
 30
0.0
 70
   128
 71
   182
 72
   195
 73
   183
  0
VERTEX
  8
fence23
 10
0.0
 20
0.0
 30
0.0
 70
   128
 71
   177
 72
   175
 73
   188
  0
VERTEX
  8
fence23
 10
0.0
 20
0.0
 30
0.0
 70
   128
 71
   191
 72
   178
 73
   190
  0
VERTEX
  8
fence23
 10
0.0
 20
0.0
 30
0.0
 70
   128
 71
   165
 72
   184
 73
   167
  0
VERTEX
  8
fence23
 10
0.0
 20
0.0
 30
0.0
 70
   128
 71
   192
 72
   162
 73
   193
  0
VERTEX
  8
fence23
 10
0.0
 20
0.0
 30
0.0
 70
   128
 71
   194
 72
   166
 73
   195
  0
VERTEX
  8
fence23
 10
0.0
 20
0.0
 30
0.0
 70
   128
 71
   184
 72
   197
 73
   185
  0
VERTEX
  8
fence23
 10
0.0
 20
0.0
 30
0.0
 70
   128
 71
   196
 72
   170
 73
   197
  0
VERTEX
  8
fence23
 10
0.0
 20
0.0
 30
0.0
 70
   128
 71
   198
 72
   174
 73
   199
  0
VERTEX
  8
fence23
 10
0.0
 20
0.0
 30
0.0
 70
   128
 71
   169
 72
   186
 73
   171
  0
VERTEX
  8
fence23
 10
0.0
 20
0.0
 30
0.0
 70
   128
 71
   200
 72
   154
 73
   189
  0
VERTEX
  8
fence23
 10
0.0
 20
0.0
 30
0.0
 70
   128
 71
   189
 72
   156
 73
   190
  0
VERTEX
  8
fence23
 10
0.0
 20
0.0
 30
0.0
 70
   128
 71
   186
 72
   199
 73
   187
  0
VERTEX
  8
fence23
 10
0.0
 20
0.0
 30
0.0
 70
   128
 71
   191
 72
   160
 73
   192
  0
VERTEX
  8
fence23
 10
0.0
 20
0.0
 30
0.0
 70
   128
 71
   193
 72
   164
 73
   194
  0
VERTEX
  8
fence23
 10
0.0
 20
0.0
 30
0.0
 70
   128
 71
   173
 72
   188
 73
   175
  0
VERTEX
  8
fence23
 10
0.0
 20
0.0
 30
0.0
 70
   128
 71
   195
 72
   168
 73
   196
  0
VERTEX
  8
fence23
 10
0.0
 20
0.0
 30
0.0
 70
   128
 71
   197
 72
   172
 73
   198
  0
VERTEX
  8
fence23
 10
0.0
 20
0.0
 30
0.0
 70
   128
 71
   188
 72
   189
 73
   177
  0
VERTEX
  8
fence23
 10
0.0
 20
0.0
 30
0.0
 70
   128
 71
   199
 72
   176
 73
   200
  0
VERTEX
  8
fence23
 10
0.0
 20
0.0
 30
0.0
 70
   128
 71
   157
 72
   153
 73
   155
  0
VERTEX
  8
fence23
 10
0.0
 20
0.0
 30
0.0
 70
   128
 71
   169
 72
   157
 73
   159
  0
VERTEX
  8
fence23
 10
0.0
 20
0.0
 30
0.0
 70
   128
 71
   175
 72
   171
 73
   173
  0
VERTEX
  8
fence23
 10
0.0
 20
0.0
 30
0.0
 70
   128
 71
   159
 72
   165
 73
   169
  0
VERTEX
  8
fence23
 10
0.0
 20
0.0
 30
0.0
 70
   128
 71
   174
 72
   168
 73
   176
  0
VERTEX
  8
fence23
 10
0.0
 20
0.0
 30
0.0
 70
   128
 71
   162
 72
   166
 73
   164
  0
VERTEX
  8
fence23
 10
0.0
 20
0.0
 30
0.0
 70
   128
 71
   176
 72
   162
 73
   156
  0
VERTEX
  8
fence23
 10
0.0
 20
0.0
 30
0.0
 70
   128
 71
   162
 72
   158
 73
   156
  0
SEQEND
  0
ENDSEC
  0
EOF
