999
FBX AutoCAD (*.DXF) exporter
  0
SECTION
  2
HEADER
  9
$ACADVER
  1
AC1008
  9
$UCSORG
 10
0.0
 20
0.0
 30
0.0
  9
$UCSXDIR
 10
1.0
 20
0.0
 30
0.0
  9
$TILEMODE
 70
   1
  9
$UCSYDIR
 10
0.0
 20
1.0
 30
0.0
  0
ENDSEC
  0
SECTION
  2
TABLES
  0
TABLE
  2
LTYPE
 70
   1
  0
LTYPE
  2
CONTINUOUS
 70
   64
  3
Solid line
 72
   65
 73
   0
 40
0.0
  0
ENDTAB
  0
TABLE
  2
LAYER
 70
   6
  0
LAYER
  2
leaf
 70
   0
 62
   250
  6
CONTINUOUS
  0
LAYER
  2
leaf_2
 70
   0
 62
   250
  6
CONTINUOUS
  0
LAYER
  2
leaf_3
 70
   0
 62
   250
  6
CONTINUOUS
  0
LAYER
  2
leaf_4
 70
   0
 62
   250
  6
CONTINUOUS
  0
LAYER
  2
bark
 70
   0
 62
   250
  6
CONTINUOUS
  0
ENDTAB
  0
ENDSEC
  0
SECTION
  2
BLOCKS
  0
ENDSEC
  0
SECTION
  2
ENTITIES
  0
POLYLINE
  8
leaf
 66
   1
 10
0.0
 20
0.0
 30
0.0
 70
   64
 71
   18
 72
   32
  0
VERTEX
  8
leaf
 10
-362.977792
 20
301.899002
 30
-84.632654
 70
   192
  0
VERTEX
  8
leaf
 10
-225.131102
 20
301.899002
 30
53.214036
 70
   192
  0
VERTEX
  8
leaf
 10
-87.284411
 20
301.899002
 30
-84.632654
 70
   192
  0
VERTEX
  8
leaf
 10
-225.131102
 20
301.899002
 30
-222.479345
 70
   192
  0
VERTEX
  8
leaf
 10
-211.423445
 20
576.148652
 30
-108.029663
 70
   192
  0
VERTEX
  8
leaf
 10
-225.131102
 20
301.899002
 30
-84.632654
 70
   192
  0
VERTEX
  8
leaf
 10
-211.423445
 20
531.037635
 30
0.877968
 70
   192
  0
VERTEX
  8
leaf
 10
-322.603431
 20
301.899002
 30
12.839675
 70
   192
  0
VERTEX
  8
leaf
 10
-320.331076
 20
531.037635
 30
-108.029663
 70
   192
  0
VERTEX
  8
leaf
 10
-102.515814
 20
531.037635
 30
-108.029663
 70
   192
  0
VERTEX
  8
leaf
 10
-127.658772
 20
301.899002
 30
12.839675
 70
   192
  0
VERTEX
  8
leaf
 10
-211.423445
 20
531.037635
 30
-216.937294
 70
   192
  0
VERTEX
  8
leaf
 10
-127.658772
 20
301.899002
 30
-182.104984
 70
   192
  0
VERTEX
  8
leaf
 10
-322.603431
 20
301.899002
 30
-182.104984
 70
   192
  0
VERTEX
  8
leaf
 10
-322.603431
 20
301.899002
 30
-84.632654
 70
   192
  0
VERTEX
  8
leaf
 10
-225.131102
 20
301.899002
 30
12.839675
 70
   192
  0
VERTEX
  8
leaf
 10
-127.658772
 20
301.899002
 30
-84.632654
 70
   192
  0
VERTEX
  8
leaf
 10
-225.131102
 20
301.899002
 30
-182.104984
 70
   192
  0
VERTEX
  8
leaf
 10
0.0
 20
0.0
 30
0.0
 70
   128
 71
   5
 72
   7
 73
   9
  0
VERTEX
  8
leaf
 10
0.0
 20
0.0
 30
0.0
 70
   128
 71
   7
 72
   2
 73
   8
  0
VERTEX
  8
leaf
 10
0.0
 20
0.0
 30
0.0
 70
   128
 71
   8
 72
   9
 73
   7
  0
VERTEX
  8
leaf
 10
0.0
 20
0.0
 30
0.0
 70
   128
 71
   9
 72
   8
 73
   1
  0
VERTEX
  8
leaf
 10
0.0
 20
0.0
 30
0.0
 70
   128
 71
   5
 72
   10
 73
   7
  0
VERTEX
  8
leaf
 10
0.0
 20
0.0
 30
0.0
 70
   128
 71
   10
 72
   3
 73
   11
  0
VERTEX
  8
leaf
 10
0.0
 20
0.0
 30
0.0
 70
   128
 71
   11
 72
   7
 73
   10
  0
VERTEX
  8
leaf
 10
0.0
 20
0.0
 30
0.0
 70
   128
 71
   7
 72
   11
 73
   2
  0
VERTEX
  8
leaf
 10
0.0
 20
0.0
 30
0.0
 70
   128
 71
   5
 72
   12
 73
   10
  0
VERTEX
  8
leaf
 10
0.0
 20
0.0
 30
0.0
 70
   128
 71
   12
 72
   4
 73
   13
  0
VERTEX
  8
leaf
 10
0.0
 20
0.0
 30
0.0
 70
   128
 71
   13
 72
   10
 73
   12
  0
VERTEX
  8
leaf
 10
0.0
 20
0.0
 30
0.0
 70
   128
 71
   10
 72
   13
 73
   3
  0
VERTEX
  8
leaf
 10
0.0
 20
0.0
 30
0.0
 70
   128
 71
   5
 72
   9
 73
   12
  0
VERTEX
  8
leaf
 10
0.0
 20
0.0
 30
0.0
 70
   128
 71
   9
 72
   1
 73
   14
  0
VERTEX
  8
leaf
 10
0.0
 20
0.0
 30
0.0
 70
   128
 71
   14
 72
   12
 73
   9
  0
VERTEX
  8
leaf
 10
0.0
 20
0.0
 30
0.0
 70
   128
 71
   12
 72
   14
 73
   4
  0
VERTEX
  8
leaf
 10
0.0
 20
0.0
 30
0.0
 70
   128
 71
   6
 72
   15
 73
   16
  0
VERTEX
  8
leaf
 10
0.0
 20
0.0
 30
0.0
 70
   128
 71
   15
 72
   1
 73
   8
  0
VERTEX
  8
leaf
 10
0.0
 20
0.0
 30
0.0
 70
   128
 71
   8
 72
   16
 73
   15
  0
VERTEX
  8
leaf
 10
0.0
 20
0.0
 30
0.0
 70
   128
 71
   16
 72
   8
 73
   2
  0
VERTEX
  8
leaf
 10
0.0
 20
0.0
 30
0.0
 70
   128
 71
   6
 72
   16
 73
   17
  0
VERTEX
  8
leaf
 10
0.0
 20
0.0
 30
0.0
 70
   128
 71
   16
 72
   2
 73
   11
  0
VERTEX
  8
leaf
 10
0.0
 20
0.0
 30
0.0
 70
   128
 71
   11
 72
   17
 73
   16
  0
VERTEX
  8
leaf
 10
0.0
 20
0.0
 30
0.0
 70
   128
 71
   17
 72
   11
 73
   3
  0
VERTEX
  8
leaf
 10
0.0
 20
0.0
 30
0.0
 70
   128
 71
   6
 72
   17
 73
   18
  0
VERTEX
  8
leaf
 10
0.0
 20
0.0
 30
0.0
 70
   128
 71
   17
 72
   3
 73
   13
  0
VERTEX
  8
leaf
 10
0.0
 20
0.0
 30
0.0
 70
   128
 71
   13
 72
   18
 73
   17
  0
VERTEX
  8
leaf
 10
0.0
 20
0.0
 30
0.0
 70
   128
 71
   18
 72
   13
 73
   4
  0
VERTEX
  8
leaf
 10
0.0
 20
0.0
 30
0.0
 70
   128
 71
   6
 72
   18
 73
   15
  0
VERTEX
  8
leaf
 10
0.0
 20
0.0
 30
0.0
 70
   128
 71
   18
 72
   4
 73
   14
  0
VERTEX
  8
leaf
 10
0.0
 20
0.0
 30
0.0
 70
   128
 71
   14
 72
   15
 73
   18
  0
VERTEX
  8
leaf
 10
0.0
 20
0.0
 30
0.0
 70
   128
 71
   15
 72
   14
 73
   1
  0
SEQEND
  0
POLYLINE
  8
leaf_2
 66
   1
 10
0.0
 20
0.0
 30
0.0
 70
   64
 71
   18
 72
   32
  0
VERTEX
  8
leaf_2
 10
58.054834
 20
280.330979
 30
30.410887
 70
   192
  0
VERTEX
  8
leaf_2
 10
150.266262
 20
280.330979
 30
122.622315
 70
   192
  0
VERTEX
  8
leaf_2
 10
242.477690
 20
280.330979
 30
30.410887
 70
   192
  0
VERTEX
  8
leaf_2
 10
150.266262
 20
280.330979
 30
-61.800541
 70
   192
  0
VERTEX
  8
leaf_2
 10
160.644990
 20
416.878232
 30
16.798323
 70
   192
  0
VERTEX
  8
leaf_2
 10
150.266262
 20
280.330979
 30
30.410887
 70
   192
  0
VERTEX
  8
leaf_2
 10
160.644990
 20
389.870130
 30
82.001649
 70
   192
  0
VERTEX
  8
leaf_2
 10
85.062936
 20
280.330979
 30
95.614213
 70
   192
  0
VERTEX
  8
leaf_2
 10
95.441664
 20
389.870130
 30
16.798323
 70
   192
  0
VERTEX
  8
leaf_2
 10
225.848316
 20
389.870130
 30
16.798323
 70
   192
  0
VERTEX
  8
leaf_2
 10
215.469588
 20
280.330979
 30
95.614213
 70
   192
  0
VERTEX
  8
leaf_2
 10
160.644990
 20
389.870130
 30
-48.405003
 70
   192
  0
VERTEX
  8
leaf_2
 10
215.469588
 20
280.330979
 30
-34.792439
 70
   192
  0
VERTEX
  8
leaf_2
 10
85.062936
 20
280.330979
 30
-34.792439
 70
   192
  0
VERTEX
  8
leaf_2
 10
85.062936
 20
280.330979
 30
30.410887
 70
   192
  0
VERTEX
  8
leaf_2
 10
150.266262
 20
280.330979
 30
95.614213
 70
   192
  0
VERTEX
  8
leaf_2
 10
215.469588
 20
280.330979
 30
30.410887
 70
   192
  0
VERTEX
  8
leaf_2
 10
150.266262
 20
280.330979
 30
-34.792439
 70
   192
  0
VERTEX
  8
leaf_2
 10
0.0
 20
0.0
 30
0.0
 70
   128
 71
   5
 72
   7
 73
   9
  0
VERTEX
  8
leaf_2
 10
0.0
 20
0.0
 30
0.0
 70
   128
 71
   7
 72
   2
 73
   8
  0
VERTEX
  8
leaf_2
 10
0.0
 20
0.0
 30
0.0
 70
   128
 71
   8
 72
   9
 73
   7
  0
VERTEX
  8
leaf_2
 10
0.0
 20
0.0
 30
0.0
 70
   128
 71
   9
 72
   8
 73
   1
  0
VERTEX
  8
leaf_2
 10
0.0
 20
0.0
 30
0.0
 70
   128
 71
   5
 72
   10
 73
   7
  0
VERTEX
  8
leaf_2
 10
0.0
 20
0.0
 30
0.0
 70
   128
 71
   10
 72
   3
 73
   11
  0
VERTEX
  8
leaf_2
 10
0.0
 20
0.0
 30
0.0
 70
   128
 71
   11
 72
   7
 73
   10
  0
VERTEX
  8
leaf_2
 10
0.0
 20
0.0
 30
0.0
 70
   128
 71
   7
 72
   11
 73
   2
  0
VERTEX
  8
leaf_2
 10
0.0
 20
0.0
 30
0.0
 70
   128
 71
   5
 72
   12
 73
   10
  0
VERTEX
  8
leaf_2
 10
0.0
 20
0.0
 30
0.0
 70
   128
 71
   12
 72
   4
 73
   13
  0
VERTEX
  8
leaf_2
 10
0.0
 20
0.0
 30
0.0
 70
   128
 71
   13
 72
   10
 73
   12
  0
VERTEX
  8
leaf_2
 10
0.0
 20
0.0
 30
0.0
 70
   128
 71
   10
 72
   13
 73
   3
  0
VERTEX
  8
leaf_2
 10
0.0
 20
0.0
 30
0.0
 70
   128
 71
   5
 72
   9
 73
   12
  0
VERTEX
  8
leaf_2
 10
0.0
 20
0.0
 30
0.0
 70
   128
 71
   9
 72
   1
 73
   14
  0
VERTEX
  8
leaf_2
 10
0.0
 20
0.0
 30
0.0
 70
   128
 71
   14
 72
   12
 73
   9
  0
VERTEX
  8
leaf_2
 10
0.0
 20
0.0
 30
0.0
 70
   128
 71
   12
 72
   14
 73
   4
  0
VERTEX
  8
leaf_2
 10
0.0
 20
0.0
 30
0.0
 70
   128
 71
   6
 72
   15
 73
   16
  0
VERTEX
  8
leaf_2
 10
0.0
 20
0.0
 30
0.0
 70
   128
 71
   15
 72
   1
 73
   8
  0
VERTEX
  8
leaf_2
 10
0.0
 20
0.0
 30
0.0
 70
   128
 71
   8
 72
   16
 73
   15
  0
VERTEX
  8
leaf_2
 10
0.0
 20
0.0
 30
0.0
 70
   128
 71
   16
 72
   8
 73
   2
  0
VERTEX
  8
leaf_2
 10
0.0
 20
0.0
 30
0.0
 70
   128
 71
   6
 72
   16
 73
   17
  0
VERTEX
  8
leaf_2
 10
0.0
 20
0.0
 30
0.0
 70
   128
 71
   16
 72
   2
 73
   11
  0
VERTEX
  8
leaf_2
 10
0.0
 20
0.0
 30
0.0
 70
   128
 71
   11
 72
   17
 73
   16
  0
VERTEX
  8
leaf_2
 10
0.0
 20
0.0
 30
0.0
 70
   128
 71
   17
 72
   11
 73
   3
  0
VERTEX
  8
leaf_2
 10
0.0
 20
0.0
 30
0.0
 70
   128
 71
   6
 72
   17
 73
   18
  0
VERTEX
  8
leaf_2
 10
0.0
 20
0.0
 30
0.0
 70
   128
 71
   17
 72
   3
 73
   13
  0
VERTEX
  8
leaf_2
 10
0.0
 20
0.0
 30
0.0
 70
   128
 71
   13
 72
   18
 73
   17
  0
VERTEX
  8
leaf_2
 10
0.0
 20
0.0
 30
0.0
 70
   128
 71
   18
 72
   13
 73
   4
  0
VERTEX
  8
leaf_2
 10
0.0
 20
0.0
 30
0.0
 70
   128
 71
   6
 72
   18
 73
   15
  0
VERTEX
  8
leaf_2
 10
0.0
 20
0.0
 30
0.0
 70
   128
 71
   18
 72
   4
 73
   14
  0
VERTEX
  8
leaf_2
 10
0.0
 20
0.0
 30
0.0
 70
   128
 71
   14
 72
   15
 73
   18
  0
VERTEX
  8
leaf_2
 10
0.0
 20
0.0
 30
0.0
 70
   128
 71
   15
 72
   14
 73
   1
  0
SEQEND
  0
POLYLINE
  8
leaf_3
 66
   1
 10
0.0
 20
0.0
 30
0.0
 70
   64
 71
   18
 72
   32
  0
VERTEX
  8
leaf_3
 10
53.997465
 20
365.098089
 30
138.422095
 70
   192
  0
VERTEX
  8
leaf_3
 10
168.591661
 20
365.098089
 30
253.016291
 70
   192
  0
VERTEX
  8
leaf_3
 10
283.185857
 20
365.098089
 30
138.422095
 70
   192
  0
VERTEX
  8
leaf_3
 10
168.591661
 20
365.098089
 30
23.827899
 70
   192
  0
VERTEX
  8
leaf_3
 10
175.421780
 20
536.989383
 30
123.119520
 70
   192
  0
VERTEX
  8
leaf_3
 10
168.591661
 20
365.098089
 30
138.422095
 70
   192
  0
VERTEX
  8
leaf_3
 10
175.421780
 20
503.425520
 30
204.149853
 70
   192
  0
VERTEX
  8
leaf_3
 10
87.561328
 20
365.098089
 30
219.452428
 70
   192
  0
VERTEX
  8
leaf_3
 10
94.391448
 20
503.425520
 30
123.119520
 70
   192
  0
VERTEX
  8
leaf_3
 10
256.452113
 20
503.425520
 30
123.119520
 70
   192
  0
VERTEX
  8
leaf_3
 10
249.621994
 20
365.098089
 30
219.452428
 70
   192
  0
VERTEX
  8
leaf_3
 10
175.421780
 20
503.425520
 30
42.089188
 70
   192
  0
VERTEX
  8
leaf_3
 10
249.621994
 20
365.098089
 30
57.391762
 70
   192
  0
VERTEX
  8
leaf_3
 10
87.561328
 20
365.098089
 30
57.391762
 70
   192
  0
VERTEX
  8
leaf_3
 10
87.561328
 20
365.098089
 30
138.422095
 70
   192
  0
VERTEX
  8
leaf_3
 10
168.591661
 20
365.098089
 30
219.452428
 70
   192
  0
VERTEX
  8
leaf_3
 10
249.621994
 20
365.098089
 30
138.422095
 70
   192
  0
VERTEX
  8
leaf_3
 10
168.591661
 20
365.098089
 30
57.391762
 70
   192
  0
VERTEX
  8
leaf_3
 10
0.0
 20
0.0
 30
0.0
 70
   128
 71
   5
 72
   7
 73
   9
  0
VERTEX
  8
leaf_3
 10
0.0
 20
0.0
 30
0.0
 70
   128
 71
   7
 72
   2
 73
   8
  0
VERTEX
  8
leaf_3
 10
0.0
 20
0.0
 30
0.0
 70
   128
 71
   8
 72
   9
 73
   7
  0
VERTEX
  8
leaf_3
 10
0.0
 20
0.0
 30
0.0
 70
   128
 71
   9
 72
   8
 73
   1
  0
VERTEX
  8
leaf_3
 10
0.0
 20
0.0
 30
0.0
 70
   128
 71
   5
 72
   10
 73
   7
  0
VERTEX
  8
leaf_3
 10
0.0
 20
0.0
 30
0.0
 70
   128
 71
   10
 72
   3
 73
   11
  0
VERTEX
  8
leaf_3
 10
0.0
 20
0.0
 30
0.0
 70
   128
 71
   11
 72
   7
 73
   10
  0
VERTEX
  8
leaf_3
 10
0.0
 20
0.0
 30
0.0
 70
   128
 71
   7
 72
   11
 73
   2
  0
VERTEX
  8
leaf_3
 10
0.0
 20
0.0
 30
0.0
 70
   128
 71
   5
 72
   12
 73
   10
  0
VERTEX
  8
leaf_3
 10
0.0
 20
0.0
 30
0.0
 70
   128
 71
   12
 72
   4
 73
   13
  0
VERTEX
  8
leaf_3
 10
0.0
 20
0.0
 30
0.0
 70
   128
 71
   13
 72
   10
 73
   12
  0
VERTEX
  8
leaf_3
 10
0.0
 20
0.0
 30
0.0
 70
   128
 71
   10
 72
   13
 73
   3
  0
VERTEX
  8
leaf_3
 10
0.0
 20
0.0
 30
0.0
 70
   128
 71
   5
 72
   9
 73
   12
  0
VERTEX
  8
leaf_3
 10
0.0
 20
0.0
 30
0.0
 70
   128
 71
   9
 72
   1
 73
   14
  0
VERTEX
  8
leaf_3
 10
0.0
 20
0.0
 30
0.0
 70
   128
 71
   14
 72
   12
 73
   9
  0
VERTEX
  8
leaf_3
 10
0.0
 20
0.0
 30
0.0
 70
   128
 71
   12
 72
   14
 73
   4
  0
VERTEX
  8
leaf_3
 10
0.0
 20
0.0
 30
0.0
 70
   128
 71
   6
 72
   15
 73
   16
  0
VERTEX
  8
leaf_3
 10
0.0
 20
0.0
 30
0.0
 70
   128
 71
   15
 72
   1
 73
   8
  0
VERTEX
  8
leaf_3
 10
0.0
 20
0.0
 30
0.0
 70
   128
 71
   8
 72
   16
 73
   15
  0
VERTEX
  8
leaf_3
 10
0.0
 20
0.0
 30
0.0
 70
   128
 71
   16
 72
   8
 73
   2
  0
VERTEX
  8
leaf_3
 10
0.0
 20
0.0
 30
0.0
 70
   128
 71
   6
 72
   16
 73
   17
  0
VERTEX
  8
leaf_3
 10
0.0
 20
0.0
 30
0.0
 70
   128
 71
   16
 72
   2
 73
   11
  0
VERTEX
  8
leaf_3
 10
0.0
 20
0.0
 30
0.0
 70
   128
 71
   11
 72
   17
 73
   16
  0
VERTEX
  8
leaf_3
 10
0.0
 20
0.0
 30
0.0
 70
   128
 71
   17
 72
   11
 73
   3
  0
VERTEX
  8
leaf_3
 10
0.0
 20
0.0
 30
0.0
 70
   128
 71
   6
 72
   17
 73
   18
  0
VERTEX
  8
leaf_3
 10
0.0
 20
0.0
 30
0.0
 70
   128
 71
   17
 72
   3
 73
   13
  0
VERTEX
  8
leaf_3
 10
0.0
 20
0.0
 30
0.0
 70
   128
 71
   13
 72
   18
 73
   17
  0
VERTEX
  8
leaf_3
 10
0.0
 20
0.0
 30
0.0
 70
   128
 71
   18
 72
   13
 73
   4
  0
VERTEX
  8
leaf_3
 10
0.0
 20
0.0
 30
0.0
 70
   128
 71
   6
 72
   18
 73
   15
  0
VERTEX
  8
leaf_3
 10
0.0
 20
0.0
 30
0.0
 70
   128
 71
   18
 72
   4
 73
   14
  0
VERTEX
  8
leaf_3
 10
0.0
 20
0.0
 30
0.0
 70
   128
 71
   14
 72
   15
 73
   18
  0
VERTEX
  8
leaf_3
 10
0.0
 20
0.0
 30
0.0
 70
   128
 71
   15
 72
   14
 73
   1
  0
SEQEND
  0
POLYLINE
  8
leaf_4
 66
   1
 10
0.0
 20
0.0
 30
0.0
 70
   64
 71
   18
 72
   32
  0
VERTEX
  8
leaf_4
 10
-198.165549
 20
276.676636
 30
24.508786
 70
   192
  0
VERTEX
  8
leaf_4
 10
-4.115739
 20
276.676636
 30
218.558596
 70
   192
  0
VERTEX
  8
leaf_4
 10
189.934072
 20
276.676636
 30
24.508786
 70
   192
  0
VERTEX
  8
leaf_4
 10
-4.115739
 20
276.676636
 30
-169.541025
 70
   192
  0
VERTEX
  8
leaf_4
 10
-5.440875
 20
731.014406
 30
0.000000
 70
   192
  0
VERTEX
  8
leaf_4
 10
-4.115739
 20
276.676636
 30
24.508786
 70
   192
  0
VERTEX
  8
leaf_4
 10
-5.440875
 20
661.277138
 30
168.360659
 70
   192
  0
VERTEX
  8
leaf_4
 10
-141.329675
 20
276.676636
 30
161.722723
 70
   192
  0
VERTEX
  8
leaf_4
 10
-173.801534
 20
661.277138
 30
0.000000
 70
   192
  0
VERTEX
  8
leaf_4
 10
162.919783
 20
661.277138
 30
0.000000
 70
   192
  0
VERTEX
  8
leaf_4
 10
133.098198
 20
276.676636
 30
161.722723
 70
   192
  0
VERTEX
  8
leaf_4
 10
-5.440875
 20
661.277138
 30
-168.360659
 70
   192
  0
VERTEX
  8
leaf_4
 10
133.098198
 20
276.676636
 30
-112.705151
 70
   192
  0
VERTEX
  8
leaf_4
 10
-141.329675
 20
276.676636
 30
-112.705151
 70
   192
  0
VERTEX
  8
leaf_4
 10
-141.329675
 20
276.676636
 30
24.508786
 70
   192
  0
VERTEX
  8
leaf_4
 10
-4.115739
 20
276.676636
 30
161.722723
 70
   192
  0
VERTEX
  8
leaf_4
 10
133.098198
 20
276.676636
 30
24.508786
 70
   192
  0
VERTEX
  8
leaf_4
 10
-4.115739
 20
276.676636
 30
-112.705151
 70
   192
  0
VERTEX
  8
leaf_4
 10
0.0
 20
0.0
 30
0.0
 70
   128
 71
   5
 72
   7
 73
   9
  0
VERTEX
  8
leaf_4
 10
0.0
 20
0.0
 30
0.0
 70
   128
 71
   7
 72
   2
 73
   8
  0
VERTEX
  8
leaf_4
 10
0.0
 20
0.0
 30
0.0
 70
   128
 71
   8
 72
   9
 73
   7
  0
VERTEX
  8
leaf_4
 10
0.0
 20
0.0
 30
0.0
 70
   128
 71
   9
 72
   8
 73
   1
  0
VERTEX
  8
leaf_4
 10
0.0
 20
0.0
 30
0.0
 70
   128
 71
   5
 72
   10
 73
   7
  0
VERTEX
  8
leaf_4
 10
0.0
 20
0.0
 30
0.0
 70
   128
 71
   10
 72
   3
 73
   11
  0
VERTEX
  8
leaf_4
 10
0.0
 20
0.0
 30
0.0
 70
   128
 71
   11
 72
   7
 73
   10
  0
VERTEX
  8
leaf_4
 10
0.0
 20
0.0
 30
0.0
 70
   128
 71
   7
 72
   11
 73
   2
  0
VERTEX
  8
leaf_4
 10
0.0
 20
0.0
 30
0.0
 70
   128
 71
   5
 72
   12
 73
   10
  0
VERTEX
  8
leaf_4
 10
0.0
 20
0.0
 30
0.0
 70
   128
 71
   12
 72
   4
 73
   13
  0
VERTEX
  8
leaf_4
 10
0.0
 20
0.0
 30
0.0
 70
   128
 71
   13
 72
   10
 73
   12
  0
VERTEX
  8
leaf_4
 10
0.0
 20
0.0
 30
0.0
 70
   128
 71
   10
 72
   13
 73
   3
  0
VERTEX
  8
leaf_4
 10
0.0
 20
0.0
 30
0.0
 70
   128
 71
   5
 72
   9
 73
   12
  0
VERTEX
  8
leaf_4
 10
0.0
 20
0.0
 30
0.0
 70
   128
 71
   9
 72
   1
 73
   14
  0
VERTEX
  8
leaf_4
 10
0.0
 20
0.0
 30
0.0
 70
   128
 71
   14
 72
   12
 73
   9
  0
VERTEX
  8
leaf_4
 10
0.0
 20
0.0
 30
0.0
 70
   128
 71
   12
 72
   14
 73
   4
  0
VERTEX
  8
leaf_4
 10
0.0
 20
0.0
 30
0.0
 70
   128
 71
   6
 72
   15
 73
   16
  0
VERTEX
  8
leaf_4
 10
0.0
 20
0.0
 30
0.0
 70
   128
 71
   15
 72
   1
 73
   8
  0
VERTEX
  8
leaf_4
 10
0.0
 20
0.0
 30
0.0
 70
   128
 71
   8
 72
   16
 73
   15
  0
VERTEX
  8
leaf_4
 10
0.0
 20
0.0
 30
0.0
 70
   128
 71
   16
 72
   8
 73
   2
  0
VERTEX
  8
leaf_4
 10
0.0
 20
0.0
 30
0.0
 70
   128
 71
   6
 72
   16
 73
   17
  0
VERTEX
  8
leaf_4
 10
0.0
 20
0.0
 30
0.0
 70
   128
 71
   16
 72
   2
 73
   11
  0
VERTEX
  8
leaf_4
 10
0.0
 20
0.0
 30
0.0
 70
   128
 71
   11
 72
   17
 73
   16
  0
VERTEX
  8
leaf_4
 10
0.0
 20
0.0
 30
0.0
 70
   128
 71
   17
 72
   11
 73
   3
  0
VERTEX
  8
leaf_4
 10
0.0
 20
0.0
 30
0.0
 70
   128
 71
   6
 72
   17
 73
   18
  0
VERTEX
  8
leaf_4
 10
0.0
 20
0.0
 30
0.0
 70
   128
 71
   17
 72
   3
 73
   13
  0
VERTEX
  8
leaf_4
 10
0.0
 20
0.0
 30
0.0
 70
   128
 71
   13
 72
   18
 73
   17
  0
VERTEX
  8
leaf_4
 10
0.0
 20
0.0
 30
0.0
 70
   128
 71
   18
 72
   13
 73
   4
  0
VERTEX
  8
leaf_4
 10
0.0
 20
0.0
 30
0.0
 70
   128
 71
   6
 72
   18
 73
   15
  0
VERTEX
  8
leaf_4
 10
0.0
 20
0.0
 30
0.0
 70
   128
 71
   18
 72
   4
 73
   14
  0
VERTEX
  8
leaf_4
 10
0.0
 20
0.0
 30
0.0
 70
   128
 71
   14
 72
   15
 73
   18
  0
VERTEX
  8
leaf_4
 10
0.0
 20
0.0
 30
0.0
 70
   128
 71
   15
 72
   14
 73
   1
  0
SEQEND
  0
POLYLINE
  8
bark
 66
   1
 10
0.0
 20
0.0
 30
0.0
 70
   64
 71
   230
 72
   400
  0
VERTEX
  8
bark
 10
9.838871
 20
159.299883
 30
-0.293704
 70
   192
  0
VERTEX
  8
bark
 10
8.168128
 20
161.472721
 30
9.795793
 70
   192
  0
VERTEX
  8
bark
 10
1.247723
 20
160.657753
 30
17.590302
 70
   192
  0
VERTEX
  8
bark
 10
-8.278987
 20
157.166271
 30
20.112584
 70
   192
  0
VERTEX
  8
bark
 10
-16.773120
 20
152.331901
 30
16.399215
 70
   192
  0
VERTEX
  8
bark
 10
-20.990208
 20
148.001209
 30
7.868574
 70
   192
  0
VERTEX
  8
bark
 10
-19.319466
 20
145.828372
 30
-2.220923
 70
   192
  0
VERTEX
  8
bark
 10
-12.399060
 20
146.643340
 30
-10.015431
 70
   192
  0
VERTEX
  8
bark
 10
-2.872351
 20
150.134822
 30
-12.537714
 70
   192
  0
VERTEX
  8
bark
 10
5.621783
 20
154.969192
 30
-8.824344
 70
   192
  0
VERTEX
  8
bark
 10
-46.461982
 20
279.501461
 30
-34.098163
 70
   192
  0
VERTEX
  8
bark
 10
-48.487829
 20
282.076161
 30
-26.078391
 70
   192
  0
VERTEX
  8
bark
 10
-53.968488
 20
280.402304
 30
-19.586383
 70
   192
  0
VERTEX
  8
bark
 10
-60.810532
 20
275.119244
 30
-17.101864
 70
   192
  0
VERTEX
  8
bark
 10
-66.400534
 20
268.244933
 30
-19.573836
 70
   192
  0
VERTEX
  8
bark
 10
-68.603303
 20
262.405122
 30
-26.058091
 70
   192
  0
VERTEX
  8
bark
 10
-66.577456
 20
259.830422
 30
-34.077862
 70
   192
  0
VERTEX
  8
bark
 10
-61.096797
 20
261.504279
 30
-40.569871
 70
   192
  0
VERTEX
  8
bark
 10
-54.254753
 20
266.787339
 30
-43.054390
 70
   192
  0
VERTEX
  8
bark
 10
-48.664751
 20
273.661650
 30
-40.582417
 70
   192
  0
VERTEX
  8
bark
 10
-133.293695
 20
314.861084
 30
-79.811783
 70
   192
  0
VERTEX
  8
bark
 10
-134.882205
 20
316.898575
 30
-73.047693
 70
   192
  0
VERTEX
  8
bark
 10
-139.076182
 20
315.282069
 30
-67.449923
 70
   192
  0
VERTEX
  8
bark
 10
-144.273669
 20
310.629014
 30
-65.156632
 70
   192
  0
VERTEX
  8
bark
 10
-148.489403
 20
304.716721
 30
-67.043779
 70
   192
  0
VERTEX
  8
bark
 10
-150.113117
 20
299.803483
 30
-72.390538
 70
   192
  0
VERTEX
  8
bark
 10
-148.524607
 20
297.765992
 30
-79.154629
 70
   192
  0
VERTEX
  8
bark
 10
-144.330630
 20
299.382498
 30
-84.752398
 70
   192
  0
VERTEX
  8
bark
 10
-139.133143
 20
304.035552
 30
-87.045689
 70
   192
  0
VERTEX
  8
bark
 10
-134.917409
 20
309.947846
 30
-85.158542
 70
   192
  0
VERTEX
  8
bark
 10
-207.913082
 20
425.477470
 30
-109.065427
 70
   192
  0
VERTEX
  8
bark
 10
-208.784739
 20
426.293356
 30
-103.976009
 70
   192
  0
VERTEX
  8
bark
 10
-212.050173
 20
425.262696
 30
-100.026032
 70
   192
  0
VERTEX
  8
bark
 10
-216.462099
 20
422.779166
 30
-98.724254
 70
   192
  0
VERTEX
  8
bark
 10
-220.335311
 20
419.791391
 30
-100.567909
 70
   192
  0
VERTEX
  8
bark
 10
-222.190374
 20
417.440600
 30
-104.852785
 70
   192
  0
VERTEX
  8
bark
 10
-221.318717
 20
416.624714
 30
-109.942203
 70
   192
  0
VERTEX
  8
bark
 10
-218.053283
 20
417.655374
 30
-113.892180
 70
   192
  0
VERTEX
  8
bark
 10
-213.641357
 20
420.138904
 30
-115.193958
 70
   192
  0
VERTEX
  8
bark
 10
-209.768145
 20
423.126679
 30
-113.350303
 70
   192
  0
VERTEX
  8
bark
 10
6.918960
 20
196.900793
 30
-9.971530
 70
   192
  0
VERTEX
  8
bark
 10
1.753983
 20
199.473920
 30
-2.712936
 70
   192
  0
VERTEX
  8
bark
 10
-2.431263
 20
206.691309
 30
1.334058
 70
   192
  0
VERTEX
  8
bark
 10
-4.038158
 20
215.796162
 30
0.623638
 70
   192
  0
VERTEX
  8
bark
 10
-2.452921
 20
223.310735
 30
-4.572839
 70
   192
  0
VERTEX
  8
bark
 10
1.718941
 20
226.364716
 30
-12.270496
 70
   192
  0
VERTEX
  8
bark
 10
6.883918
 20
223.791588
 30
-19.529089
 70
   192
  0
VERTEX
  8
bark
 10
11.069165
 20
216.574200
 30
-23.576083
 70
   192
  0
VERTEX
  8
bark
 10
12.676059
 20
207.469347
 30
-22.865664
 70
   192
  0
VERTEX
  8
bark
 10
11.090822
 20
199.954774
 30
-17.669187
 70
   192
  0
VERTEX
  8
bark
 10
102.274058
 20
221.420819
 30
50.353428
 70
   192
  0
VERTEX
  8
bark
 10
98.207639
 20
223.516022
 30
56.249779
 70
   192
  0
VERTEX
  8
bark
 10
94.735611
 20
229.302832
 30
59.436453
 70
   192
  0
VERTEX
  8
bark
 10
93.184170
 20
236.570884
 30
58.696248
 70
   192
  0
VERTEX
  8
bark
 10
94.145914
 20
242.544029
 30
54.311897
 70
   192
  0
VERTEX
  8
bark
 10
97.253489
 20
244.940729
 30
47.958074
 70
   192
  0
VERTEX
  8
bark
 10
101.319907
 20
242.845525
 30
42.061722
 70
   192
  0
VERTEX
  8
bark
 10
104.791935
 20
237.058715
 30
38.875048
 70
   192
  0
VERTEX
  8
bark
 10
106.343376
 20
229.790663
 30
39.615254
 70
   192
  0
VERTEX
  8
bark
 10
105.381632
 20
223.817518
 30
43.999604
 70
   192
  0
VERTEX
  8
bark
 10
103.855663
 20
221.953945
 30
51.273250
 70
   192
  0
VERTEX
  8
bark
 10
100.000490
 20
224.134004
 30
57.265741
 70
   192
  0
VERTEX
  8
bark
 10
96.294214
 20
229.846477
 30
60.293008
 70
   192
  0
VERTEX
  8
bark
 10
94.152506
 20
236.909393
 30
59.198738
 70
   192
  0
VERTEX
  8
bark
 10
94.393427
 20
242.624958
 30
54.400905
 70
   192
  0
VERTEX
  8
bark
 10
96.924953
 20
244.810020
 30
47.732118
 70
   192
  0
VERTEX
  8
bark
 10
100.780126
 20
242.629960
 30
41.739627
 70
   192
  0
VERTEX
  8
bark
 10
104.486402
 20
236.917488
 30
38.712360
 70
   192
  0
VERTEX
  8
bark
 10
106.628109
 20
229.854572
 30
39.806630
 70
   192
  0
VERTEX
  8
bark
 10
106.387188
 20
224.139007
 30
44.604463
 70
   192
  0
VERTEX
  8
bark
 10
106.749040
 20
223.266440
 30
52.671317
 70
   192
  0
VERTEX
  8
bark
 10
102.581318
 20
225.345758
 30
58.493142
 70
   192
  0
VERTEX
  8
bark
 10
97.815303
 20
230.599985
 30
60.989611
 70
   192
  0
VERTEX
  8
bark
 10
94.271451
 20
237.022186
 30
59.207158
 70
   192
  0
VERTEX
  8
bark
 10
93.303393
 20
242.159297
 30
53.826620
 70
   192
  0
VERTEX
  8
bark
 10
95.280894
 20
244.049117
 30
46.903179
 70
   192
  0
VERTEX
  8
bark
 10
99.448615
 20
241.969799
 30
41.081354
 70
   192
  0
VERTEX
  8
bark
 10
104.214630
 20
236.715571
 30
38.584884
 70
   192
  0
VERTEX
  8
bark
 10
107.758482
 20
230.293371
 30
40.367337
 70
   192
  0
VERTEX
  8
bark
 10
108.726540
 20
225.156260
 30
45.747875
 70
   192
  0
VERTEX
  8
bark
 10
108.030480
 20
224.541449
 30
53.311638
 70
   192
  0
VERTEX
  8
bark
 10
103.139906
 20
225.910603
 30
58.771728
 70
   192
  0
VERTEX
  8
bark
 10
97.496933
 20
230.297345
 30
60.829247
 70
   192
  0
VERTEX
  8
bark
 10
93.256983
 20
236.026087
 30
58.698291
 70
   192
  0
VERTEX
  8
bark
 10
92.039574
 20
240.908645
 30
53.192813
 70
   192
  0
VERTEX
  8
bark
 10
94.309715
 20
243.080048
 30
46.415719
 70
   192
  0
VERTEX
  8
bark
 10
99.200289
 20
241.710893
 30
40.955628
 70
   192
  0
VERTEX
  8
bark
 10
104.843262
 20
237.324152
 30
38.898110
 70
   192
  0
VERTEX
  8
bark
 10
109.083212
 20
231.595410
 30
41.029066
 70
   192
  0
VERTEX
  8
bark
 10
110.300621
 20
226.712852
 30
46.534543
 70
   192
  0
VERTEX
  8
bark
 10
107.900547
 20
224.448443
 30
53.262025
 70
   192
  0
VERTEX
  8
bark
 10
102.458912
 20
225.303252
 30
58.255151
 70
   192
  0
VERTEX
  8
bark
 10
96.629834
 20
229.510063
 30
60.129024
 70
   192
  0
VERTEX
  8
bark
 10
92.639822
 20
235.462018
 30
58.167887
 70
   192
  0
VERTEX
  8
bark
 10
92.012926
 20
240.885672
 30
53.120828
 70
   192
  0
VERTEX
  8
bark
 10
94.988598
 20
243.709373
 30
46.915653
 70
   192
  0
VERTEX
  8
bark
 10
100.430233
 20
242.854564
 30
41.922527
 70
   192
  0
VERTEX
  8
bark
 10
106.259311
 20
238.647753
 30
40.048655
 70
   192
  0
VERTEX
  8
bark
 10
110.249323
 20
232.695799
 30
42.009791
 70
   192
  0
VERTEX
  8
bark
 10
110.876219
 20
227.272145
 30
47.056850
 70
   192
  0
VERTEX
  8
bark
 10
109.883308
 20
226.507263
 30
55.349376
 70
   192
  0
VERTEX
  8
bark
 10
104.210232
 20
227.093050
 30
60.014192
 70
   192
  0
VERTEX
  8
bark
 10
98.317994
 20
231.160826
 30
61.752633
 70
   192
  0
VERTEX
  8
bark
 10
94.457229
 20
237.156839
 30
59.900672
 70
   192
  0
VERTEX
  8
bark
 10
94.102617
 20
242.790816
 30
55.165696
 70
   192
  0
VERTEX
  8
bark
 10
97.389608
 20
245.910769
 30
49.356304
 70
   192
  0
VERTEX
  8
bark
 10
103.062684
 20
245.324982
 30
44.691488
 70
   192
  0
VERTEX
  8
bark
 10
108.954922
 20
241.257206
 30
42.953048
 70
   192
  0
VERTEX
  8
bark
 10
112.815687
 20
235.261193
 30
44.805009
 70
   192
  0
VERTEX
  8
bark
 10
113.170299
 20
229.627216
 30
49.539985
 70
   192
  0
VERTEX
  8
bark
 10
161.926457
 20
281.397370
 30
116.381117
 70
   192
  0
VERTEX
  8
bark
 10
157.456697
 20
281.893957
 30
120.119493
 70
   192
  0
VERTEX
  8
bark
 10
152.692236
 20
285.032189
 30
121.394733
 70
   192
  0
VERTEX
  8
bark
 10
149.452936
 20
289.613369
 30
119.719737
 70
   192
  0
VERTEX
  8
bark
 10
148.976100
 20
293.887641
 30
115.734299
 70
   192
  0
VERTEX
  8
bark
 10
151.443862
 20
296.222379
 30
110.960718
 70
   192
  0
VERTEX
  8
bark
 10
155.913622
 20
295.725793
 30
107.222342
 70
   192
  0
VERTEX
  8
bark
 10
160.678083
 20
292.587561
 30
105.947103
 70
   192
  0
VERTEX
  8
bark
 10
163.917383
 20
288.006381
 30
107.622098
 70
   192
  0
VERTEX
  8
bark
 10
164.394220
 20
283.732109
 30
111.607537
 70
   192
  0
VERTEX
  8
bark
 10
162.904574
 20
282.625731
 30
117.397712
 70
   192
  0
VERTEX
  8
bark
 10
158.650022
 20
283.414926
 30
121.316521
 70
   192
  0
VERTEX
  8
bark
 10
153.793486
 20
286.441677
 30
122.455416
 70
   192
  0
VERTEX
  8
bark
 10
150.189997
 20
290.549868
 30
120.379378
 70
   192
  0
VERTEX
  8
bark
 10
149.215965
 20
294.170310
 30
115.881382
 70
   192
  0
VERTEX
  8
bark
 10
151.243438
 20
295.920117
 30
110.679511
 70
   192
  0
VERTEX
  8
bark
 10
155.497989
 20
295.130922
 30
106.760702
 70
   192
  0
VERTEX
  8
bark
 10
160.354526
 20
292.104171
 30
105.621807
 70
   192
  0
VERTEX
  8
bark
 10
163.958015
 20
287.995980
 30
107.697845
 70
   192
  0
VERTEX
  8
bark
 10
164.932046
 20
284.375538
 30
112.195841
 70
   192
  0
VERTEX
  8
bark
 10
164.647617
 20
285.271620
 30
118.916534
 70
   192
  0
VERTEX
  8
bark
 10
160.518980
 20
286.409694
 30
122.861575
 70
   192
  0
VERTEX
  8
bark
 10
155.238575
 20
288.871073
 30
123.551741
 70
   192
  0
VERTEX
  8
bark
 10
150.823337
 20
291.715595
 30
120.723413
 70
   192
  0
VERTEX
  8
bark
 10
148.959736
 20
293.856748
 30
115.456915
 70
   192
  0
VERTEX
  8
bark
 10
150.359606
 20
294.476686
 30
109.763871
 70
   192
  0
VERTEX
  8
bark
 10
154.488244
 20
293.338612
 30
105.818831
 70
   192
  0
VERTEX
  8
bark
 10
159.768649
 20
290.877233
 30
105.128665
 70
   192
  0
VERTEX
  8
bark
 10
164.183887
 20
288.032711
 30
107.956993
 70
   192
  0
VERTEX
  8
bark
 10
166.047487
 20
285.891558
 30
113.223491
 70
   192
  0
VERTEX
  8
bark
 10
165.489361
 20
288.114426
 30
119.075237
 70
   192
  0
VERTEX
  8
bark
 10
161.253976
 20
289.090221
 30
122.952349
 70
   192
  0
VERTEX
  8
bark
 10
155.627336
 20
290.492978
 30
123.542030
 70
   192
  0
VERTEX
  8
bark
 10
150.758627
 20
291.786890
 30
120.619041
 70
   192
  0
VERTEX
  8
bark
 10
148.507528
 20
292.477728
 30
115.299865
 70
   192
  0
VERTEX
  8
bark
 10
149.733885
 20
292.301614
 30
109.616246
 70
   192
  0
VERTEX
  8
bark
 10
153.969270
 20
291.325819
 30
105.739134
 70
   192
  0
VERTEX
  8
bark
 10
159.595909
 20
289.923062
 30
105.149453
 70
   192
  0
VERTEX
  8
bark
 10
164.464619
 20
288.629150
 30
108.072442
 70
   192
  0
VERTEX
  8
bark
 10
166.715717
 20
287.938312
 30
113.391618
 70
   192
  0
VERTEX
  8
bark
 10
166.054719
 20
291.508101
 30
119.123928
 70
   192
  0
VERTEX
  8
bark
 10
161.779918
 20
292.031201
 30
122.968686
 70
   192
  0
VERTEX
  8
bark
 10
156.098349
 20
292.874660
 30
123.550133
 70
   192
  0
VERTEX
  8
bark
 10
151.180179
 20
293.716306
 30
120.646175
 70
   192
  0
VERTEX
  8
bark
 10
148.903982
 20
294.234658
 30
115.366027
 70
   192
  0
VERTEX
  8
bark
 10
150.139188
 20
294.231723
 30
109.726525
 70
   192
  0
VERTEX
  8
bark
 10
154.413989
 20
293.708623
 30
105.881766
 70
   192
  0
VERTEX
  8
bark
 10
160.095558
 20
292.865164
 30
105.300320
 70
   192
  0
VERTEX
  8
bark
 10
165.013728
 20
292.023518
 30
108.204277
 70
   192
  0
VERTEX
  8
bark
 10
167.289925
 20
291.505166
 30
113.484425
 70
   192
  0
VERTEX
  8
bark
 10
173.177004
 20
363.171512
 30
120.741482
 70
   192
  0
VERTEX
  8
bark
 10
169.726523
 20
363.490817
 30
123.829941
 70
   192
  0
VERTEX
  8
bark
 10
165.141188
 20
364.043740
 30
124.293993
 70
   192
  0
VERTEX
  8
bark
 10
161.172443
 20
364.619082
 30
121.956387
 70
   192
  0
VERTEX
  8
bark
 10
159.336213
 20
364.997083
 30
117.710009
 70
   192
  0
VERTEX
  8
bark
 10
160.333875
 20
365.033359
 30
113.176829
 70
   192
  0
VERTEX
  8
bark
 10
163.784357
 20
364.714054
 30
110.088370
 70
   192
  0
VERTEX
  8
bark
 10
168.369691
 20
364.161131
 30
109.624318
 70
   192
  0
VERTEX
  8
bark
 10
172.338436
 20
363.585789
 30
111.961924
 70
   192
  0
VERTEX
  8
bark
 10
174.174666
 20
363.207788
 30
116.208302
 70
   192
  0
VERTEX
  8
bark
 10
179.324703
 20
422.031591
 30
122.039870
 70
   192
  0
VERTEX
  8
bark
 10
176.568493
 20
422.294406
 30
124.508039
 70
   192
  0
VERTEX
  8
bark
 10
172.905681
 20
422.745719
 30
124.879190
 70
   192
  0
VERTEX
  8
bark
 10
169.735337
 20
423.213143
 30
123.011555
 70
   192
  0
VERTEX
  8
bark
 10
168.268425
 20
423.518139
 30
119.618507
 70
   192
  0
VERTEX
  8
bark
 10
169.065255
 20
423.544208
 30
115.996076
 70
   192
  0
VERTEX
  8
bark
 10
171.821465
 20
423.281393
 30
113.527907
 70
   192
  0
VERTEX
  8
bark
 10
175.484277
 20
422.830080
 30
113.156757
 70
   192
  0
VERTEX
  8
bark
 10
178.654621
 20
422.362656
 30
115.024392
 70
   192
  0
VERTEX
  8
bark
 10
180.121533
 20
422.057660
 30
118.417439
 70
   192
  0
VERTEX
  8
bark
 10
-8.524328
 20
-0.826484
 30
34.523957
 70
   192
  0
VERTEX
  8
bark
 10
-27.237718
 20
-0.893715
 30
21.615406
 70
   192
  0
VERTEX
  8
bark
 10
-35.099363
 20
-0.619577
 30
0.450505
 70
   192
  0
VERTEX
  8
bark
 10
-29.106382
 20
-0.108782
 30
-20.886474
 70
   192
  0
VERTEX
  8
bark
 10
-11.547890
 20
0.443564
 30
-34.245530
 70
   192
  0
VERTEX
  8
bark
 10
10.869366
 20
0.826484
 30
-34.523957
 70
   192
  0
VERTEX
  8
bark
 10
29.582756
 20
0.893715
 30
-21.615406
 70
   192
  0
VERTEX
  8
bark
 10
37.444401
 20
0.619577
 30
-0.450505
 70
   192
  0
VERTEX
  8
bark
 10
31.451420
 20
0.108782
 30
20.886474
 70
   192
  0
VERTEX
  8
bark
 10
13.892928
 20
-0.443564
 30
34.245530
 70
   192
  0
VERTEX
  8
bark
 10
-26.169417
 20
92.062971
 30
50.525741
 70
   192
  0
VERTEX
  8
bark
 10
-41.915845
 20
91.718603
 30
39.435897
 70
   192
  0
VERTEX
  8
bark
 10
-47.857802
 20
91.143467
 30
20.871318
 70
   192
  0
VERTEX
  8
bark
 10
-41.725662
 20
90.557246
 30
1.923041
 70
   192
  0
VERTEX
  8
bark
 10
-25.861695
 20
90.183856
 30
-10.171336
 70
   192
  0
VERTEX
  8
bark
 10
-6.325396
 20
90.165920
 30
-10.792171
 70
   192
  0
VERTEX
  8
bark
 10
9.421032
 20
90.510288
 30
0.297673
 70
   192
  0
VERTEX
  8
bark
 10
15.362989
 20
91.085424
 30
18.862253
 70
   192
  0
VERTEX
  8
bark
 10
9.230850
 20
91.671645
 30
37.810529
 70
   192
  0
VERTEX
  8
bark
 10
-6.633118
 20
92.045035
 30
49.904906
 70
   192
  0
VERTEX
  8
bark
 10
-3.292865
 20
212.964386
 30
12.866718
 70
   192
  0
VERTEX
  8
bark
 10
-15.627680
 20
213.186016
 30
4.068800
 70
   192
  0
VERTEX
  8
bark
 10
-20.343560
 20
212.814352
 30
-10.531110
 70
   192
  0
VERTEX
  8
bark
 10
-15.639200
 20
211.991358
 30
-25.356343
 70
   192
  0
VERTEX
  8
bark
 10
-3.311504
 20
211.031390
 30
-34.744164
 70
   192
  0
VERTEX
  8
bark
 10
11.930766
 20
210.301122
 30
-35.108744
 70
   192
  0
VERTEX
  8
bark
 10
24.265581
 20
210.079493
 30
-26.310826
 70
   192
  0
VERTEX
  8
bark
 10
28.981461
 20
210.451157
 30
-11.710916
 70
   192
  0
VERTEX
  8
bark
 10
24.277101
 20
211.274151
 30
3.114318
 70
   192
  0
VERTEX
  8
bark
 10
11.949405
 20
212.234119
 30
12.502138
 70
   192
  0
VERTEX
  8
bark
 10
-13.740874
 20
398.940566
 30
34.773150
 70
   192
  0
VERTEX
  8
bark
 10
-21.040079
 20
398.493930
 30
29.528788
 70
   192
  0
VERTEX
  8
bark
 10
-23.871044
 20
397.885454
 30
20.846994
 70
   192
  0
VERTEX
  8
bark
 10
-21.152437
 20
397.347556
 30
12.043918
 70
   192
  0
VERTEX
  8
bark
 10
-13.922673
 20
397.085695
 30
6.482035
 70
   192
  0
VERTEX
  8
bark
 10
-4.943276
 20
397.199892
 30
6.285797
 70
   192
  0
VERTEX
  8
bark
 10
2.355929
 20
397.646528
 30
11.530159
 70
   192
  0
VERTEX
  8
bark
 10
5.186894
 20
398.255004
 30
20.211953
 70
   192
  0
VERTEX
  8
bark
 10
2.468287
 20
398.792902
 30
29.015029
 70
   192
  0
VERTEX
  8
bark
 10
-4.761478
 20
399.054763
 30
34.576911
 70
   192
  0
VERTEX
  8
bark
 10
-5.440875
 20
529.496759
 30
-12.548257
 70
   192
  0
VERTEX
  8
bark
 10
-9.166503
 20
528.889821
 30
-15.086420
 70
   192
  0
VERTEX
  8
bark
 10
-10.651292
 20
527.688763
 30
-19.214835
 70
   192
  0
VERTEX
  8
bark
 10
-9.328102
 20
526.352347
 30
-23.356587
 70
   192
  0
VERTEX
  8
bark
 10
-5.702349
 20
525.391040
 30
-25.929668
 70
   192
  0
VERTEX
  8
bark
 10
-1.158946
 20
525.172028
 30
-25.951248
 70
   192
  0
VERTEX
  8
bark
 10
2.566682
 20
525.778966
 30
-23.413085
 70
   192
  0
VERTEX
  8
bark
 10
4.051470
 20
526.980024
 30
-19.284670
 70
   192
  0
VERTEX
  8
bark
 10
2.728281
 20
528.316439
 30
-15.142918
 70
   192
  0
VERTEX
  8
bark
 10
-0.897472
 20
529.277747
 30
-12.569837
 70
   192
  0
VERTEX
  8
bark
 10
0.0
 20
0.0
 30
0.0
 70
   128
 71
   1
 72
   2
 73
   12
  0
VERTEX
  8
bark
 10
0.0
 20
0.0
 30
0.0
 70
   128
 71
   2
 72
   3
 73
   13
  0
VERTEX
  8
bark
 10
0.0
 20
0.0
 30
0.0
 70
   128
 71
   3
 72
   4
 73
   14
  0
VERTEX
  8
bark
 10
0.0
 20
0.0
 30
0.0
 70
   128
 71
   4
 72
   5
 73
   15
  0
VERTEX
  8
bark
 10
0.0
 20
0.0
 30
0.0
 70
   128
 71
   5
 72
   6
 73
   16
  0
VERTEX
  8
bark
 10
0.0
 20
0.0
 30
0.0
 70
   128
 71
   6
 72
   7
 73
   17
  0
VERTEX
  8
bark
 10
0.0
 20
0.0
 30
0.0
 70
   128
 71
   7
 72
   8
 73
   18
  0
VERTEX
  8
bark
 10
0.0
 20
0.0
 30
0.0
 70
   128
 71
   8
 72
   9
 73
   19
  0
VERTEX
  8
bark
 10
0.0
 20
0.0
 30
0.0
 70
   128
 71
   9
 72
   10
 73
   20
  0
VERTEX
  8
bark
 10
0.0
 20
0.0
 30
0.0
 70
   128
 71
   10
 72
   1
 73
   11
  0
VERTEX
  8
bark
 10
0.0
 20
0.0
 30
0.0
 70
   128
 71
   11
 72
   12
 73
   22
  0
VERTEX
  8
bark
 10
0.0
 20
0.0
 30
0.0
 70
   128
 71
   12
 72
   13
 73
   23
  0
VERTEX
  8
bark
 10
0.0
 20
0.0
 30
0.0
 70
   128
 71
   13
 72
   14
 73
   24
  0
VERTEX
  8
bark
 10
0.0
 20
0.0
 30
0.0
 70
   128
 71
   14
 72
   15
 73
   25
  0
VERTEX
  8
bark
 10
0.0
 20
0.0
 30
0.0
 70
   128
 71
   15
 72
   16
 73
   26
  0
VERTEX
  8
bark
 10
0.0
 20
0.0
 30
0.0
 70
   128
 71
   16
 72
   17
 73
   27
  0
VERTEX
  8
bark
 10
0.0
 20
0.0
 30
0.0
 70
   128
 71
   17
 72
   18
 73
   28
  0
VERTEX
  8
bark
 10
0.0
 20
0.0
 30
0.0
 70
   128
 71
   18
 72
   19
 73
   29
  0
VERTEX
  8
bark
 10
0.0
 20
0.0
 30
0.0
 70
   128
 71
   19
 72
   20
 73
   30
  0
VERTEX
  8
bark
 10
0.0
 20
0.0
 30
0.0
 70
   128
 71
   20
 72
   11
 73
   21
  0
VERTEX
  8
bark
 10
0.0
 20
0.0
 30
0.0
 70
   128
 71
   21
 72
   22
 73
   32
  0
VERTEX
  8
bark
 10
0.0
 20
0.0
 30
0.0
 70
   128
 71
   22
 72
   23
 73
   33
  0
VERTEX
  8
bark
 10
0.0
 20
0.0
 30
0.0
 70
   128
 71
   23
 72
   24
 73
   34
  0
VERTEX
  8
bark
 10
0.0
 20
0.0
 30
0.0
 70
   128
 71
   24
 72
   25
 73
   35
  0
VERTEX
  8
bark
 10
0.0
 20
0.0
 30
0.0
 70
   128
 71
   25
 72
   26
 73
   36
  0
VERTEX
  8
bark
 10
0.0
 20
0.0
 30
0.0
 70
   128
 71
   26
 72
   27
 73
   37
  0
VERTEX
  8
bark
 10
0.0
 20
0.0
 30
0.0
 70
   128
 71
   27
 72
   28
 73
   38
  0
VERTEX
  8
bark
 10
0.0
 20
0.0
 30
0.0
 70
   128
 71
   28
 72
   29
 73
   39
  0
VERTEX
  8
bark
 10
0.0
 20
0.0
 30
0.0
 70
   128
 71
   29
 72
   30
 73
   40
  0
VERTEX
  8
bark
 10
0.0
 20
0.0
 30
0.0
 70
   128
 71
   30
 72
   21
 73
   31
  0
VERTEX
  8
bark
 10
0.0
 20
0.0
 30
0.0
 70
   128
 71
   41
 72
   42
 73
   52
  0
VERTEX
  8
bark
 10
0.0
 20
0.0
 30
0.0
 70
   128
 71
   42
 72
   43
 73
   53
  0
VERTEX
  8
bark
 10
0.0
 20
0.0
 30
0.0
 70
   128
 71
   43
 72
   44
 73
   54
  0
VERTEX
  8
bark
 10
0.0
 20
0.0
 30
0.0
 70
   128
 71
   44
 72
   45
 73
   55
  0
VERTEX
  8
bark
 10
0.0
 20
0.0
 30
0.0
 70
   128
 71
   45
 72
   46
 73
   56
  0
VERTEX
  8
bark
 10
0.0
 20
0.0
 30
0.0
 70
   128
 71
   46
 72
   47
 73
   57
  0
VERTEX
  8
bark
 10
0.0
 20
0.0
 30
0.0
 70
   128
 71
   47
 72
   48
 73
   58
  0
VERTEX
  8
bark
 10
0.0
 20
0.0
 30
0.0
 70
   128
 71
   48
 72
   49
 73
   59
  0
VERTEX
  8
bark
 10
0.0
 20
0.0
 30
0.0
 70
   128
 71
   49
 72
   50
 73
   60
  0
VERTEX
  8
bark
 10
0.0
 20
0.0
 30
0.0
 70
   128
 71
   50
 72
   41
 73
   51
  0
VERTEX
  8
bark
 10
0.0
 20
0.0
 30
0.0
 70
   128
 71
   51
 72
   52
 73
   62
  0
VERTEX
  8
bark
 10
0.0
 20
0.0
 30
0.0
 70
   128
 71
   52
 72
   53
 73
   63
  0
VERTEX
  8
bark
 10
0.0
 20
0.0
 30
0.0
 70
   128
 71
   53
 72
   54
 73
   64
  0
VERTEX
  8
bark
 10
0.0
 20
0.0
 30
0.0
 70
   128
 71
   54
 72
   55
 73
   65
  0
VERTEX
  8
bark
 10
0.0
 20
0.0
 30
0.0
 70
   128
 71
   55
 72
   56
 73
   65
  0
VERTEX
  8
bark
 10
0.0
 20
0.0
 30
0.0
 70
   128
 71
   56
 72
   57
 73
   67
  0
VERTEX
  8
bark
 10
0.0
 20
0.0
 30
0.0
 70
   128
 71
   57
 72
   58
 73
   68
  0
VERTEX
  8
bark
 10
0.0
 20
0.0
 30
0.0
 70
   128
 71
   58
 72
   59
 73
   69
  0
VERTEX
  8
bark
 10
0.0
 20
0.0
 30
0.0
 70
   128
 71
   59
 72
   60
 73
   70
  0
VERTEX
  8
bark
 10
0.0
 20
0.0
 30
0.0
 70
   128
 71
   60
 72
   51
 73
   61
  0
VERTEX
  8
bark
 10
0.0
 20
0.0
 30
0.0
 70
   128
 71
   61
 72
   62
 73
   72
  0
VERTEX
  8
bark
 10
0.0
 20
0.0
 30
0.0
 70
   128
 71
   62
 72
   63
 73
   73
  0
VERTEX
  8
bark
 10
0.0
 20
0.0
 30
0.0
 70
   128
 71
   63
 72
   64
 73
   74
  0
VERTEX
  8
bark
 10
0.0
 20
0.0
 30
0.0
 70
   128
 71
   64
 72
   65
 73
   74
  0
VERTEX
  8
bark
 10
0.0
 20
0.0
 30
0.0
 70
   128
 71
   65
 72
   66
 73
   76
  0
VERTEX
  8
bark
 10
0.0
 20
0.0
 30
0.0
 70
   128
 71
   66
 72
   67
 73
   77
  0
VERTEX
  8
bark
 10
0.0
 20
0.0
 30
0.0
 70
   128
 71
   67
 72
   68
 73
   78
  0
VERTEX
  8
bark
 10
0.0
 20
0.0
 30
0.0
 70
   128
 71
   68
 72
   69
 73
   78
  0
VERTEX
  8
bark
 10
0.0
 20
0.0
 30
0.0
 70
   128
 71
   69
 72
   70
 73
   80
  0
VERTEX
  8
bark
 10
0.0
 20
0.0
 30
0.0
 70
   128
 71
   70
 72
   61
 73
   71
  0
VERTEX
  8
bark
 10
0.0
 20
0.0
 30
0.0
 70
   128
 71
   71
 72
   72
 73
   82
  0
VERTEX
  8
bark
 10
0.0
 20
0.0
 30
0.0
 70
   128
 71
   72
 72
   73
 73
   83
  0
VERTEX
  8
bark
 10
0.0
 20
0.0
 30
0.0
 70
   128
 71
   73
 72
   74
 73
   84
  0
VERTEX
  8
bark
 10
0.0
 20
0.0
 30
0.0
 70
   128
 71
   74
 72
   75
 73
   85
  0
VERTEX
  8
bark
 10
0.0
 20
0.0
 30
0.0
 70
   128
 71
   75
 72
   76
 73
   86
  0
VERTEX
  8
bark
 10
0.0
 20
0.0
 30
0.0
 70
   128
 71
   76
 72
   77
 73
   87
  0
VERTEX
  8
bark
 10
0.0
 20
0.0
 30
0.0
 70
   128
 71
   77
 72
   78
 73
   87
  0
VERTEX
  8
bark
 10
0.0
 20
0.0
 30
0.0
 70
   128
 71
   78
 72
   79
 73
   89
  0
VERTEX
  8
bark
 10
0.0
 20
0.0
 30
0.0
 70
   128
 71
   79
 72
   80
 73
   90
  0
VERTEX
  8
bark
 10
0.0
 20
0.0
 30
0.0
 70
   128
 71
   80
 72
   71
 73
   81
  0
VERTEX
  8
bark
 10
0.0
 20
0.0
 30
0.0
 70
   128
 71
   81
 72
   82
 73
   92
  0
VERTEX
  8
bark
 10
0.0
 20
0.0
 30
0.0
 70
   128
 71
   82
 72
   83
 73
   93
  0
VERTEX
  8
bark
 10
0.0
 20
0.0
 30
0.0
 70
   128
 71
   83
 72
   84
 73
   94
  0
VERTEX
  8
bark
 10
0.0
 20
0.0
 30
0.0
 70
   128
 71
   84
 72
   85
 73
   95
  0
VERTEX
  8
bark
 10
0.0
 20
0.0
 30
0.0
 70
   128
 71
   85
 72
   86
 73
   95
  0
VERTEX
  8
bark
 10
0.0
 20
0.0
 30
0.0
 70
   128
 71
   86
 72
   87
 73
   97
  0
VERTEX
  8
bark
 10
0.0
 20
0.0
 30
0.0
 70
   128
 71
   87
 72
   88
 73
   98
  0
VERTEX
  8
bark
 10
0.0
 20
0.0
 30
0.0
 70
   128
 71
   88
 72
   89
 73
   99
  0
VERTEX
  8
bark
 10
0.0
 20
0.0
 30
0.0
 70
   128
 71
   89
 72
   90
 73
   100
  0
VERTEX
  8
bark
 10
0.0
 20
0.0
 30
0.0
 70
   128
 71
   90
 72
   81
 73
   91
  0
VERTEX
  8
bark
 10
0.0
 20
0.0
 30
0.0
 70
   128
 71
   91
 72
   92
 73
   102
  0
VERTEX
  8
bark
 10
0.0
 20
0.0
 30
0.0
 70
   128
 71
   92
 72
   93
 73
   103
  0
VERTEX
  8
bark
 10
0.0
 20
0.0
 30
0.0
 70
   128
 71
   93
 72
   94
 73
   104
  0
VERTEX
  8
bark
 10
0.0
 20
0.0
 30
0.0
 70
   128
 71
   94
 72
   95
 73
   105
  0
VERTEX
  8
bark
 10
0.0
 20
0.0
 30
0.0
 70
   128
 71
   95
 72
   96
 73
   106
  0
VERTEX
  8
bark
 10
0.0
 20
0.0
 30
0.0
 70
   128
 71
   96
 72
   97
 73
   107
  0
VERTEX
  8
bark
 10
0.0
 20
0.0
 30
0.0
 70
   128
 71
   97
 72
   98
 73
   108
  0
VERTEX
  8
bark
 10
0.0
 20
0.0
 30
0.0
 70
   128
 71
   98
 72
   99
 73
   109
  0
VERTEX
  8
bark
 10
0.0
 20
0.0
 30
0.0
 70
   128
 71
   99
 72
   100
 73
   110
  0
VERTEX
  8
bark
 10
0.0
 20
0.0
 30
0.0
 70
   128
 71
   100
 72
   91
 73
   101
  0
VERTEX
  8
bark
 10
0.0
 20
0.0
 30
0.0
 70
   128
 71
   101
 72
   102
 73
   112
  0
VERTEX
  8
bark
 10
0.0
 20
0.0
 30
0.0
 70
   128
 71
   102
 72
   103
 73
   113
  0
VERTEX
  8
bark
 10
0.0
 20
0.0
 30
0.0
 70
   128
 71
   103
 72
   104
 73
   114
  0
VERTEX
  8
bark
 10
0.0
 20
0.0
 30
0.0
 70
   128
 71
   104
 72
   105
 73
   115
  0
VERTEX
  8
bark
 10
0.0
 20
0.0
 30
0.0
 70
   128
 71
   105
 72
   106
 73
   116
  0
VERTEX
  8
bark
 10
0.0
 20
0.0
 30
0.0
 70
   128
 71
   106
 72
   107
 73
   117
  0
VERTEX
  8
bark
 10
0.0
 20
0.0
 30
0.0
 70
   128
 71
   107
 72
   108
 73
   118
  0
VERTEX
  8
bark
 10
0.0
 20
0.0
 30
0.0
 70
   128
 71
   108
 72
   109
 73
   119
  0
VERTEX
  8
bark
 10
0.0
 20
0.0
 30
0.0
 70
   128
 71
   109
 72
   110
 73
   120
  0
VERTEX
  8
bark
 10
0.0
 20
0.0
 30
0.0
 70
   128
 71
   110
 72
   101
 73
   111
  0
VERTEX
  8
bark
 10
0.0
 20
0.0
 30
0.0
 70
   128
 71
   111
 72
   112
 73
   122
  0
VERTEX
  8
bark
 10
0.0
 20
0.0
 30
0.0
 70
   128
 71
   112
 72
   113
 73
   123
  0
VERTEX
  8
bark
 10
0.0
 20
0.0
 30
0.0
 70
   128
 71
   113
 72
   114
 73
   124
  0
VERTEX
  8
bark
 10
0.0
 20
0.0
 30
0.0
 70
   128
 71
   114
 72
   115
 73
   125
  0
VERTEX
  8
bark
 10
0.0
 20
0.0
 30
0.0
 70
   128
 71
   115
 72
   116
 73
   125
  0
VERTEX
  8
bark
 10
0.0
 20
0.0
 30
0.0
 70
   128
 71
   116
 72
   117
 73
   127
  0
VERTEX
  8
bark
 10
0.0
 20
0.0
 30
0.0
 70
   128
 71
   117
 72
   118
 73
   128
  0
VERTEX
  8
bark
 10
0.0
 20
0.0
 30
0.0
 70
   128
 71
   118
 72
   119
 73
   129
  0
VERTEX
  8
bark
 10
0.0
 20
0.0
 30
0.0
 70
   128
 71
   119
 72
   120
 73
   130
  0
VERTEX
  8
bark
 10
0.0
 20
0.0
 30
0.0
 70
   128
 71
   120
 72
   111
 73
   121
  0
VERTEX
  8
bark
 10
0.0
 20
0.0
 30
0.0
 70
   128
 71
   121
 72
   122
 73
   132
  0
VERTEX
  8
bark
 10
0.0
 20
0.0
 30
0.0
 70
   128
 71
   122
 72
   123
 73
   133
  0
VERTEX
  8
bark
 10
0.0
 20
0.0
 30
0.0
 70
   128
 71
   123
 72
   124
 73
   134
  0
VERTEX
  8
bark
 10
0.0
 20
0.0
 30
0.0
 70
   128
 71
   124
 72
   125
 73
   135
  0
VERTEX
  8
bark
 10
0.0
 20
0.0
 30
0.0
 70
   128
 71
   125
 72
   126
 73
   136
  0
VERTEX
  8
bark
 10
0.0
 20
0.0
 30
0.0
 70
   128
 71
   126
 72
   127
 73
   137
  0
VERTEX
  8
bark
 10
0.0
 20
0.0
 30
0.0
 70
   128
 71
   127
 72
   128
 73
   138
  0
VERTEX
  8
bark
 10
0.0
 20
0.0
 30
0.0
 70
   128
 71
   128
 72
   129
 73
   139
  0
VERTEX
  8
bark
 10
0.0
 20
0.0
 30
0.0
 70
   128
 71
   129
 72
   130
 73
   140
  0
VERTEX
  8
bark
 10
0.0
 20
0.0
 30
0.0
 70
   128
 71
   130
 72
   121
 73
   131
  0
VERTEX
  8
bark
 10
0.0
 20
0.0
 30
0.0
 70
   128
 71
   131
 72
   132
 73
   142
  0
VERTEX
  8
bark
 10
0.0
 20
0.0
 30
0.0
 70
   128
 71
   132
 72
   133
 73
   143
  0
VERTEX
  8
bark
 10
0.0
 20
0.0
 30
0.0
 70
   128
 71
   133
 72
   134
 73
   144
  0
VERTEX
  8
bark
 10
0.0
 20
0.0
 30
0.0
 70
   128
 71
   134
 72
   135
 73
   144
  0
VERTEX
  8
bark
 10
0.0
 20
0.0
 30
0.0
 70
   128
 71
   135
 72
   136
 73
   146
  0
VERTEX
  8
bark
 10
0.0
 20
0.0
 30
0.0
 70
   128
 71
   136
 72
   137
 73
   147
  0
VERTEX
  8
bark
 10
0.0
 20
0.0
 30
0.0
 70
   128
 71
   137
 72
   138
 73
   148
  0
VERTEX
  8
bark
 10
0.0
 20
0.0
 30
0.0
 70
   128
 71
   138
 72
   139
 73
   149
  0
VERTEX
  8
bark
 10
0.0
 20
0.0
 30
0.0
 70
   128
 71
   139
 72
   140
 73
   150
  0
VERTEX
  8
bark
 10
0.0
 20
0.0
 30
0.0
 70
   128
 71
   140
 72
   131
 73
   141
  0
VERTEX
  8
bark
 10
0.0
 20
0.0
 30
0.0
 70
   128
 71
   141
 72
   142
 73
   152
  0
VERTEX
  8
bark
 10
0.0
 20
0.0
 30
0.0
 70
   128
 71
   142
 72
   143
 73
   153
  0
VERTEX
  8
bark
 10
0.0
 20
0.0
 30
0.0
 70
   128
 71
   143
 72
   144
 73
   154
  0
VERTEX
  8
bark
 10
0.0
 20
0.0
 30
0.0
 70
   128
 71
   144
 72
   145
 73
   155
  0
VERTEX
  8
bark
 10
0.0
 20
0.0
 30
0.0
 70
   128
 71
   145
 72
   146
 73
   156
  0
VERTEX
  8
bark
 10
0.0
 20
0.0
 30
0.0
 70
   128
 71
   146
 72
   147
 73
   157
  0
VERTEX
  8
bark
 10
0.0
 20
0.0
 30
0.0
 70
   128
 71
   147
 72
   148
 73
   158
  0
VERTEX
  8
bark
 10
0.0
 20
0.0
 30
0.0
 70
   128
 71
   148
 72
   149
 73
   159
  0
VERTEX
  8
bark
 10
0.0
 20
0.0
 30
0.0
 70
   128
 71
   149
 72
   150
 73
   160
  0
VERTEX
  8
bark
 10
0.0
 20
0.0
 30
0.0
 70
   128
 71
   150
 72
   141
 73
   151
  0
VERTEX
  8
bark
 10
0.0
 20
0.0
 30
0.0
 70
   128
 71
   151
 72
   152
 73
   162
  0
VERTEX
  8
bark
 10
0.0
 20
0.0
 30
0.0
 70
   128
 71
   152
 72
   153
 73
   163
  0
VERTEX
  8
bark
 10
0.0
 20
0.0
 30
0.0
 70
   128
 71
   153
 72
   154
 73
   164
  0
VERTEX
  8
bark
 10
0.0
 20
0.0
 30
0.0
 70
   128
 71
   154
 72
   155
 73
   165
  0
VERTEX
  8
bark
 10
0.0
 20
0.0
 30
0.0
 70
   128
 71
   155
 72
   156
 73
   166
  0
VERTEX
  8
bark
 10
0.0
 20
0.0
 30
0.0
 70
   128
 71
   156
 72
   157
 73
   167
  0
VERTEX
  8
bark
 10
0.0
 20
0.0
 30
0.0
 70
   128
 71
   157
 72
   158
 73
   168
  0
VERTEX
  8
bark
 10
0.0
 20
0.0
 30
0.0
 70
   128
 71
   158
 72
   159
 73
   169
  0
VERTEX
  8
bark
 10
0.0
 20
0.0
 30
0.0
 70
   128
 71
   159
 72
   160
 73
   170
  0
VERTEX
  8
bark
 10
0.0
 20
0.0
 30
0.0
 70
   128
 71
   160
 72
   151
 73
   161
  0
VERTEX
  8
bark
 10
0.0
 20
0.0
 30
0.0
 70
   128
 71
   161
 72
   162
 73
   172
  0
VERTEX
  8
bark
 10
0.0
 20
0.0
 30
0.0
 70
   128
 71
   162
 72
   163
 73
   173
  0
VERTEX
  8
bark
 10
0.0
 20
0.0
 30
0.0
 70
   128
 71
   163
 72
   164
 73
   174
  0
VERTEX
  8
bark
 10
0.0
 20
0.0
 30
0.0
 70
   128
 71
   164
 72
   165
 73
   175
  0
VERTEX
  8
bark
 10
0.0
 20
0.0
 30
0.0
 70
   128
 71
   165
 72
   166
 73
   176
  0
VERTEX
  8
bark
 10
0.0
 20
0.0
 30
0.0
 70
   128
 71
   166
 72
   167
 73
   177
  0
VERTEX
  8
bark
 10
0.0
 20
0.0
 30
0.0
 70
   128
 71
   167
 72
   168
 73
   178
  0
VERTEX
  8
bark
 10
0.0
 20
0.0
 30
0.0
 70
   128
 71
   168
 72
   169
 73
   179
  0
VERTEX
  8
bark
 10
0.0
 20
0.0
 30
0.0
 70
   128
 71
   169
 72
   170
 73
   180
  0
VERTEX
  8
bark
 10
0.0
 20
0.0
 30
0.0
 70
   128
 71
   170
 72
   161
 73
   171
  0
VERTEX
  8
bark
 10
0.0
 20
0.0
 30
0.0
 70
   128
 71
   181
 72
   182
 73
   192
  0
VERTEX
  8
bark
 10
0.0
 20
0.0
 30
0.0
 70
   128
 71
   182
 72
   183
 73
   193
  0
VERTEX
  8
bark
 10
0.0
 20
0.0
 30
0.0
 70
   128
 71
   183
 72
   184
 73
   194
  0
VERTEX
  8
bark
 10
0.0
 20
0.0
 30
0.0
 70
   128
 71
   184
 72
   185
 73
   195
  0
VERTEX
  8
bark
 10
0.0
 20
0.0
 30
0.0
 70
   128
 71
   185
 72
   186
 73
   196
  0
VERTEX
  8
bark
 10
0.0
 20
0.0
 30
0.0
 70
   128
 71
   186
 72
   187
 73
   197
  0
VERTEX
  8
bark
 10
0.0
 20
0.0
 30
0.0
 70
   128
 71
   187
 72
   188
 73
   198
  0
VERTEX
  8
bark
 10
0.0
 20
0.0
 30
0.0
 70
   128
 71
   188
 72
   189
 73
   199
  0
VERTEX
  8
bark
 10
0.0
 20
0.0
 30
0.0
 70
   128
 71
   189
 72
   190
 73
   200
  0
VERTEX
  8
bark
 10
0.0
 20
0.0
 30
0.0
 70
   128
 71
   190
 72
   181
 73
   191
  0
VERTEX
  8
bark
 10
0.0
 20
0.0
 30
0.0
 70
   128
 71
   191
 72
   192
 73
   202
  0
VERTEX
  8
bark
 10
0.0
 20
0.0
 30
0.0
 70
   128
 71
   192
 72
   193
 73
   203
  0
VERTEX
  8
bark
 10
0.0
 20
0.0
 30
0.0
 70
   128
 71
   193
 72
   194
 73
   204
  0
VERTEX
  8
bark
 10
0.0
 20
0.0
 30
0.0
 70
   128
 71
   194
 72
   195
 73
   205
  0
VERTEX
  8
bark
 10
0.0
 20
0.0
 30
0.0
 70
   128
 71
   195
 72
   196
 73
   206
  0
VERTEX
  8
bark
 10
0.0
 20
0.0
 30
0.0
 70
   128
 71
   196
 72
   197
 73
   207
  0
VERTEX
  8
bark
 10
0.0
 20
0.0
 30
0.0
 70
   128
 71
   197
 72
   198
 73
   208
  0
VERTEX
  8
bark
 10
0.0
 20
0.0
 30
0.0
 70
   128
 71
   198
 72
   199
 73
   209
  0
VERTEX
  8
bark
 10
0.0
 20
0.0
 30
0.0
 70
   128
 71
   199
 72
   200
 73
   210
  0
VERTEX
  8
bark
 10
0.0
 20
0.0
 30
0.0
 70
   128
 71
   200
 72
   191
 73
   201
  0
VERTEX
  8
bark
 10
0.0
 20
0.0
 30
0.0
 70
   128
 71
   201
 72
   202
 73
   212
  0
VERTEX
  8
bark
 10
0.0
 20
0.0
 30
0.0
 70
   128
 71
   202
 72
   203
 73
   213
  0
VERTEX
  8
bark
 10
0.0
 20
0.0
 30
0.0
 70
   128
 71
   203
 72
   204
 73
   214
  0
VERTEX
  8
bark
 10
0.0
 20
0.0
 30
0.0
 70
   128
 71
   204
 72
   205
 73
   215
  0
VERTEX
  8
bark
 10
0.0
 20
0.0
 30
0.0
 70
   128
 71
   205
 72
   206
 73
   216
  0
VERTEX
  8
bark
 10
0.0
 20
0.0
 30
0.0
 70
   128
 71
   206
 72
   207
 73
   217
  0
VERTEX
  8
bark
 10
0.0
 20
0.0
 30
0.0
 70
   128
 71
   207
 72
   208
 73
   218
  0
VERTEX
  8
bark
 10
0.0
 20
0.0
 30
0.0
 70
   128
 71
   208
 72
   209
 73
   219
  0
VERTEX
  8
bark
 10
0.0
 20
0.0
 30
0.0
 70
   128
 71
   209
 72
   210
 73
   220
  0
VERTEX
  8
bark
 10
0.0
 20
0.0
 30
0.0
 70
   128
 71
   210
 72
   201
 73
   211
  0
VERTEX
  8
bark
 10
0.0
 20
0.0
 30
0.0
 70
   128
 71
   211
 72
   212
 73
   222
  0
VERTEX
  8
bark
 10
0.0
 20
0.0
 30
0.0
 70
   128
 71
   212
 72
   213
 73
   223
  0
VERTEX
  8
bark
 10
0.0
 20
0.0
 30
0.0
 70
   128
 71
   213
 72
   214
 73
   224
  0
VERTEX
  8
bark
 10
0.0
 20
0.0
 30
0.0
 70
   128
 71
   214
 72
   215
 73
   225
  0
VERTEX
  8
bark
 10
0.0
 20
0.0
 30
0.0
 70
   128
 71
   215
 72
   216
 73
   226
  0
VERTEX
  8
bark
 10
0.0
 20
0.0
 30
0.0
 70
   128
 71
   216
 72
   217
 73
   227
  0
VERTEX
  8
bark
 10
0.0
 20
0.0
 30
0.0
 70
   128
 71
   217
 72
   218
 73
   228
  0
VERTEX
  8
bark
 10
0.0
 20
0.0
 30
0.0
 70
   128
 71
   218
 72
   219
 73
   229
  0
VERTEX
  8
bark
 10
0.0
 20
0.0
 30
0.0
 70
   128
 71
   219
 72
   220
 73
   230
  0
VERTEX
  8
bark
 10
0.0
 20
0.0
 30
0.0
 70
   128
 71
   220
 72
   211
 73
   221
  0
VERTEX
  8
bark
 10
0.0
 20
0.0
 30
0.0
 70
   128
 71
   1
 72
   12
 73
   11
  0
VERTEX
  8
bark
 10
0.0
 20
0.0
 30
0.0
 70
   128
 71
   2
 72
   13
 73
   12
  0
VERTEX
  8
bark
 10
0.0
 20
0.0
 30
0.0
 70
   128
 71
   3
 72
   14
 73
   13
  0
VERTEX
  8
bark
 10
0.0
 20
0.0
 30
0.0
 70
   128
 71
   4
 72
   15
 73
   14
  0
VERTEX
  8
bark
 10
0.0
 20
0.0
 30
0.0
 70
   128
 71
   5
 72
   16
 73
   15
  0
VERTEX
  8
bark
 10
0.0
 20
0.0
 30
0.0
 70
   128
 71
   6
 72
   17
 73
   16
  0
VERTEX
  8
bark
 10
0.0
 20
0.0
 30
0.0
 70
   128
 71
   7
 72
   18
 73
   17
  0
VERTEX
  8
bark
 10
0.0
 20
0.0
 30
0.0
 70
   128
 71
   8
 72
   19
 73
   18
  0
VERTEX
  8
bark
 10
0.0
 20
0.0
 30
0.0
 70
   128
 71
   9
 72
   20
 73
   19
  0
VERTEX
  8
bark
 10
0.0
 20
0.0
 30
0.0
 70
   128
 71
   10
 72
   11
 73
   20
  0
VERTEX
  8
bark
 10
0.0
 20
0.0
 30
0.0
 70
   128
 71
   11
 72
   22
 73
   21
  0
VERTEX
  8
bark
 10
0.0
 20
0.0
 30
0.0
 70
   128
 71
   12
 72
   23
 73
   22
  0
VERTEX
  8
bark
 10
0.0
 20
0.0
 30
0.0
 70
   128
 71
   13
 72
   24
 73
   23
  0
VERTEX
  8
bark
 10
0.0
 20
0.0
 30
0.0
 70
   128
 71
   14
 72
   25
 73
   24
  0
VERTEX
  8
bark
 10
0.0
 20
0.0
 30
0.0
 70
   128
 71
   15
 72
   26
 73
   25
  0
VERTEX
  8
bark
 10
0.0
 20
0.0
 30
0.0
 70
   128
 71
   16
 72
   27
 73
   26
  0
VERTEX
  8
bark
 10
0.0
 20
0.0
 30
0.0
 70
   128
 71
   17
 72
   28
 73
   27
  0
VERTEX
  8
bark
 10
0.0
 20
0.0
 30
0.0
 70
   128
 71
   18
 72
   29
 73
   28
  0
VERTEX
  8
bark
 10
0.0
 20
0.0
 30
0.0
 70
   128
 71
   19
 72
   30
 73
   29
  0
VERTEX
  8
bark
 10
0.0
 20
0.0
 30
0.0
 70
   128
 71
   20
 72
   21
 73
   30
  0
VERTEX
  8
bark
 10
0.0
 20
0.0
 30
0.0
 70
   128
 71
   21
 72
   32
 73
   31
  0
VERTEX
  8
bark
 10
0.0
 20
0.0
 30
0.0
 70
   128
 71
   22
 72
   33
 73
   32
  0
VERTEX
  8
bark
 10
0.0
 20
0.0
 30
0.0
 70
   128
 71
   23
 72
   34
 73
   33
  0
VERTEX
  8
bark
 10
0.0
 20
0.0
 30
0.0
 70
   128
 71
   24
 72
   35
 73
   34
  0
VERTEX
  8
bark
 10
0.0
 20
0.0
 30
0.0
 70
   128
 71
   25
 72
   36
 73
   35
  0
VERTEX
  8
bark
 10
0.0
 20
0.0
 30
0.0
 70
   128
 71
   26
 72
   37
 73
   36
  0
VERTEX
  8
bark
 10
0.0
 20
0.0
 30
0.0
 70
   128
 71
   27
 72
   38
 73
   37
  0
VERTEX
  8
bark
 10
0.0
 20
0.0
 30
0.0
 70
   128
 71
   28
 72
   39
 73
   38
  0
VERTEX
  8
bark
 10
0.0
 20
0.0
 30
0.0
 70
   128
 71
   29
 72
   40
 73
   39
  0
VERTEX
  8
bark
 10
0.0
 20
0.0
 30
0.0
 70
   128
 71
   30
 72
   31
 73
   40
  0
VERTEX
  8
bark
 10
0.0
 20
0.0
 30
0.0
 70
   128
 71
   41
 72
   52
 73
   51
  0
VERTEX
  8
bark
 10
0.0
 20
0.0
 30
0.0
 70
   128
 71
   42
 72
   53
 73
   52
  0
VERTEX
  8
bark
 10
0.0
 20
0.0
 30
0.0
 70
   128
 71
   43
 72
   54
 73
   53
  0
VERTEX
  8
bark
 10
0.0
 20
0.0
 30
0.0
 70
   128
 71
   44
 72
   55
 73
   54
  0
VERTEX
  8
bark
 10
0.0
 20
0.0
 30
0.0
 70
   128
 71
   45
 72
   56
 73
   55
  0
VERTEX
  8
bark
 10
0.0
 20
0.0
 30
0.0
 70
   128
 71
   46
 72
   57
 73
   56
  0
VERTEX
  8
bark
 10
0.0
 20
0.0
 30
0.0
 70
   128
 71
   47
 72
   58
 73
   57
  0
VERTEX
  8
bark
 10
0.0
 20
0.0
 30
0.0
 70
   128
 71
   48
 72
   59
 73
   58
  0
VERTEX
  8
bark
 10
0.0
 20
0.0
 30
0.0
 70
   128
 71
   49
 72
   60
 73
   59
  0
VERTEX
  8
bark
 10
0.0
 20
0.0
 30
0.0
 70
   128
 71
   50
 72
   51
 73
   60
  0
VERTEX
  8
bark
 10
0.0
 20
0.0
 30
0.0
 70
   128
 71
   51
 72
   62
 73
   61
  0
VERTEX
  8
bark
 10
0.0
 20
0.0
 30
0.0
 70
   128
 71
   52
 72
   63
 73
   62
  0
VERTEX
  8
bark
 10
0.0
 20
0.0
 30
0.0
 70
   128
 71
   53
 72
   64
 73
   63
  0
VERTEX
  8
bark
 10
0.0
 20
0.0
 30
0.0
 70
   128
 71
   54
 72
   65
 73
   64
  0
VERTEX
  8
bark
 10
0.0
 20
0.0
 30
0.0
 70
   128
 71
   56
 72
   66
 73
   65
  0
VERTEX
  8
bark
 10
0.0
 20
0.0
 30
0.0
 70
   128
 71
   56
 72
   67
 73
   66
  0
VERTEX
  8
bark
 10
0.0
 20
0.0
 30
0.0
 70
   128
 71
   57
 72
   68
 73
   67
  0
VERTEX
  8
bark
 10
0.0
 20
0.0
 30
0.0
 70
   128
 71
   58
 72
   69
 73
   68
  0
VERTEX
  8
bark
 10
0.0
 20
0.0
 30
0.0
 70
   128
 71
   59
 72
   70
 73
   69
  0
VERTEX
  8
bark
 10
0.0
 20
0.0
 30
0.0
 70
   128
 71
   60
 72
   61
 73
   70
  0
VERTEX
  8
bark
 10
0.0
 20
0.0
 30
0.0
 70
   128
 71
   61
 72
   72
 73
   71
  0
VERTEX
  8
bark
 10
0.0
 20
0.0
 30
0.0
 70
   128
 71
   62
 72
   73
 73
   72
  0
VERTEX
  8
bark
 10
0.0
 20
0.0
 30
0.0
 70
   128
 71
   63
 72
   74
 73
   73
  0
VERTEX
  8
bark
 10
0.0
 20
0.0
 30
0.0
 70
   128
 71
   65
 72
   75
 73
   74
  0
VERTEX
  8
bark
 10
0.0
 20
0.0
 30
0.0
 70
   128
 71
   65
 72
   76
 73
   75
  0
VERTEX
  8
bark
 10
0.0
 20
0.0
 30
0.0
 70
   128
 71
   66
 72
   77
 73
   76
  0
VERTEX
  8
bark
 10
0.0
 20
0.0
 30
0.0
 70
   128
 71
   67
 72
   78
 73
   77
  0
VERTEX
  8
bark
 10
0.0
 20
0.0
 30
0.0
 70
   128
 71
   69
 72
   79
 73
   78
  0
VERTEX
  8
bark
 10
0.0
 20
0.0
 30
0.0
 70
   128
 71
   69
 72
   80
 73
   79
  0
VERTEX
  8
bark
 10
0.0
 20
0.0
 30
0.0
 70
   128
 71
   70
 72
   71
 73
   80
  0
VERTEX
  8
bark
 10
0.0
 20
0.0
 30
0.0
 70
   128
 71
   71
 72
   82
 73
   81
  0
VERTEX
  8
bark
 10
0.0
 20
0.0
 30
0.0
 70
   128
 71
   72
 72
   83
 73
   82
  0
VERTEX
  8
bark
 10
0.0
 20
0.0
 30
0.0
 70
   128
 71
   73
 72
   84
 73
   83
  0
VERTEX
  8
bark
 10
0.0
 20
0.0
 30
0.0
 70
   128
 71
   74
 72
   85
 73
   84
  0
VERTEX
  8
bark
 10
0.0
 20
0.0
 30
0.0
 70
   128
 71
   75
 72
   86
 73
   85
  0
VERTEX
  8
bark
 10
0.0
 20
0.0
 30
0.0
 70
   128
 71
   76
 72
   87
 73
   86
  0
VERTEX
  8
bark
 10
0.0
 20
0.0
 30
0.0
 70
   128
 71
   78
 72
   88
 73
   87
  0
VERTEX
  8
bark
 10
0.0
 20
0.0
 30
0.0
 70
   128
 71
   78
 72
   89
 73
   88
  0
VERTEX
  8
bark
 10
0.0
 20
0.0
 30
0.0
 70
   128
 71
   79
 72
   90
 73
   89
  0
VERTEX
  8
bark
 10
0.0
 20
0.0
 30
0.0
 70
   128
 71
   80
 72
   81
 73
   90
  0
VERTEX
  8
bark
 10
0.0
 20
0.0
 30
0.0
 70
   128
 71
   81
 72
   92
 73
   91
  0
VERTEX
  8
bark
 10
0.0
 20
0.0
 30
0.0
 70
   128
 71
   82
 72
   93
 73
   92
  0
VERTEX
  8
bark
 10
0.0
 20
0.0
 30
0.0
 70
   128
 71
   83
 72
   94
 73
   93
  0
VERTEX
  8
bark
 10
0.0
 20
0.0
 30
0.0
 70
   128
 71
   84
 72
   95
 73
   94
  0
VERTEX
  8
bark
 10
0.0
 20
0.0
 30
0.0
 70
   128
 71
   86
 72
   96
 73
   95
  0
VERTEX
  8
bark
 10
0.0
 20
0.0
 30
0.0
 70
   128
 71
   86
 72
   97
 73
   96
  0
VERTEX
  8
bark
 10
0.0
 20
0.0
 30
0.0
 70
   128
 71
   87
 72
   98
 73
   97
  0
VERTEX
  8
bark
 10
0.0
 20
0.0
 30
0.0
 70
   128
 71
   88
 72
   99
 73
   98
  0
VERTEX
  8
bark
 10
0.0
 20
0.0
 30
0.0
 70
   128
 71
   89
 72
   100
 73
   99
  0
VERTEX
  8
bark
 10
0.0
 20
0.0
 30
0.0
 70
   128
 71
   90
 72
   91
 73
   100
  0
VERTEX
  8
bark
 10
0.0
 20
0.0
 30
0.0
 70
   128
 71
   91
 72
   102
 73
   101
  0
VERTEX
  8
bark
 10
0.0
 20
0.0
 30
0.0
 70
   128
 71
   92
 72
   103
 73
   102
  0
VERTEX
  8
bark
 10
0.0
 20
0.0
 30
0.0
 70
   128
 71
   93
 72
   104
 73
   103
  0
VERTEX
  8
bark
 10
0.0
 20
0.0
 30
0.0
 70
   128
 71
   94
 72
   105
 73
   104
  0
VERTEX
  8
bark
 10
0.0
 20
0.0
 30
0.0
 70
   128
 71
   95
 72
   106
 73
   105
  0
VERTEX
  8
bark
 10
0.0
 20
0.0
 30
0.0
 70
   128
 71
   96
 72
   107
 73
   106
  0
VERTEX
  8
bark
 10
0.0
 20
0.0
 30
0.0
 70
   128
 71
   97
 72
   108
 73
   107
  0
VERTEX
  8
bark
 10
0.0
 20
0.0
 30
0.0
 70
   128
 71
   98
 72
   109
 73
   108
  0
VERTEX
  8
bark
 10
0.0
 20
0.0
 30
0.0
 70
   128
 71
   99
 72
   110
 73
   109
  0
VERTEX
  8
bark
 10
0.0
 20
0.0
 30
0.0
 70
   128
 71
   100
 72
   101
 73
   110
  0
VERTEX
  8
bark
 10
0.0
 20
0.0
 30
0.0
 70
   128
 71
   101
 72
   112
 73
   111
  0
VERTEX
  8
bark
 10
0.0
 20
0.0
 30
0.0
 70
   128
 71
   102
 72
   113
 73
   112
  0
VERTEX
  8
bark
 10
0.0
 20
0.0
 30
0.0
 70
   128
 71
   103
 72
   114
 73
   113
  0
VERTEX
  8
bark
 10
0.0
 20
0.0
 30
0.0
 70
   128
 71
   104
 72
   115
 73
   114
  0
VERTEX
  8
bark
 10
0.0
 20
0.0
 30
0.0
 70
   128
 71
   105
 72
   116
 73
   115
  0
VERTEX
  8
bark
 10
0.0
 20
0.0
 30
0.0
 70
   128
 71
   106
 72
   117
 73
   116
  0
VERTEX
  8
bark
 10
0.0
 20
0.0
 30
0.0
 70
   128
 71
   107
 72
   118
 73
   117
  0
VERTEX
  8
bark
 10
0.0
 20
0.0
 30
0.0
 70
   128
 71
   108
 72
   119
 73
   118
  0
VERTEX
  8
bark
 10
0.0
 20
0.0
 30
0.0
 70
   128
 71
   109
 72
   120
 73
   119
  0
VERTEX
  8
bark
 10
0.0
 20
0.0
 30
0.0
 70
   128
 71
   110
 72
   111
 73
   120
  0
VERTEX
  8
bark
 10
0.0
 20
0.0
 30
0.0
 70
   128
 71
   111
 72
   122
 73
   121
  0
VERTEX
  8
bark
 10
0.0
 20
0.0
 30
0.0
 70
   128
 71
   112
 72
   123
 73
   122
  0
VERTEX
  8
bark
 10
0.0
 20
0.0
 30
0.0
 70
   128
 71
   113
 72
   124
 73
   123
  0
VERTEX
  8
bark
 10
0.0
 20
0.0
 30
0.0
 70
   128
 71
   114
 72
   125
 73
   124
  0
VERTEX
  8
bark
 10
0.0
 20
0.0
 30
0.0
 70
   128
 71
   116
 72
   126
 73
   125
  0
VERTEX
  8
bark
 10
0.0
 20
0.0
 30
0.0
 70
   128
 71
   116
 72
   127
 73
   126
  0
VERTEX
  8
bark
 10
0.0
 20
0.0
 30
0.0
 70
   128
 71
   117
 72
   128
 73
   127
  0
VERTEX
  8
bark
 10
0.0
 20
0.0
 30
0.0
 70
   128
 71
   118
 72
   129
 73
   128
  0
VERTEX
  8
bark
 10
0.0
 20
0.0
 30
0.0
 70
   128
 71
   119
 72
   130
 73
   129
  0
VERTEX
  8
bark
 10
0.0
 20
0.0
 30
0.0
 70
   128
 71
   120
 72
   121
 73
   130
  0
VERTEX
  8
bark
 10
0.0
 20
0.0
 30
0.0
 70
   128
 71
   121
 72
   132
 73
   131
  0
VERTEX
  8
bark
 10
0.0
 20
0.0
 30
0.0
 70
   128
 71
   122
 72
   133
 73
   132
  0
VERTEX
  8
bark
 10
0.0
 20
0.0
 30
0.0
 70
   128
 71
   123
 72
   134
 73
   133
  0
VERTEX
  8
bark
 10
0.0
 20
0.0
 30
0.0
 70
   128
 71
   124
 72
   135
 73
   134
  0
VERTEX
  8
bark
 10
0.0
 20
0.0
 30
0.0
 70
   128
 71
   125
 72
   136
 73
   135
  0
VERTEX
  8
bark
 10
0.0
 20
0.0
 30
0.0
 70
   128
 71
   126
 72
   137
 73
   136
  0
VERTEX
  8
bark
 10
0.0
 20
0.0
 30
0.0
 70
   128
 71
   127
 72
   138
 73
   137
  0
VERTEX
  8
bark
 10
0.0
 20
0.0
 30
0.0
 70
   128
 71
   128
 72
   139
 73
   138
  0
VERTEX
  8
bark
 10
0.0
 20
0.0
 30
0.0
 70
   128
 71
   129
 72
   140
 73
   139
  0
VERTEX
  8
bark
 10
0.0
 20
0.0
 30
0.0
 70
   128
 71
   130
 72
   131
 73
   140
  0
VERTEX
  8
bark
 10
0.0
 20
0.0
 30
0.0
 70
   128
 71
   131
 72
   142
 73
   141
  0
VERTEX
  8
bark
 10
0.0
 20
0.0
 30
0.0
 70
   128
 71
   132
 72
   143
 73
   142
  0
VERTEX
  8
bark
 10
0.0
 20
0.0
 30
0.0
 70
   128
 71
   133
 72
   144
 73
   143
  0
VERTEX
  8
bark
 10
0.0
 20
0.0
 30
0.0
 70
   128
 71
   135
 72
   145
 73
   144
  0
VERTEX
  8
bark
 10
0.0
 20
0.0
 30
0.0
 70
   128
 71
   135
 72
   146
 73
   145
  0
VERTEX
  8
bark
 10
0.0
 20
0.0
 30
0.0
 70
   128
 71
   136
 72
   147
 73
   146
  0
VERTEX
  8
bark
 10
0.0
 20
0.0
 30
0.0
 70
   128
 71
   137
 72
   148
 73
   147
  0
VERTEX
  8
bark
 10
0.0
 20
0.0
 30
0.0
 70
   128
 71
   138
 72
   149
 73
   148
  0
VERTEX
  8
bark
 10
0.0
 20
0.0
 30
0.0
 70
   128
 71
   139
 72
   150
 73
   149
  0
VERTEX
  8
bark
 10
0.0
 20
0.0
 30
0.0
 70
   128
 71
   140
 72
   141
 73
   150
  0
VERTEX
  8
bark
 10
0.0
 20
0.0
 30
0.0
 70
   128
 71
   141
 72
   152
 73
   151
  0
VERTEX
  8
bark
 10
0.0
 20
0.0
 30
0.0
 70
   128
 71
   142
 72
   153
 73
   152
  0
VERTEX
  8
bark
 10
0.0
 20
0.0
 30
0.0
 70
   128
 71
   143
 72
   154
 73
   153
  0
VERTEX
  8
bark
 10
0.0
 20
0.0
 30
0.0
 70
   128
 71
   144
 72
   155
 73
   154
  0
VERTEX
  8
bark
 10
0.0
 20
0.0
 30
0.0
 70
   128
 71
   145
 72
   156
 73
   155
  0
VERTEX
  8
bark
 10
0.0
 20
0.0
 30
0.0
 70
   128
 71
   146
 72
   157
 73
   156
  0
VERTEX
  8
bark
 10
0.0
 20
0.0
 30
0.0
 70
   128
 71
   147
 72
   158
 73
   157
  0
VERTEX
  8
bark
 10
0.0
 20
0.0
 30
0.0
 70
   128
 71
   148
 72
   159
 73
   158
  0
VERTEX
  8
bark
 10
0.0
 20
0.0
 30
0.0
 70
   128
 71
   149
 72
   160
 73
   159
  0
VERTEX
  8
bark
 10
0.0
 20
0.0
 30
0.0
 70
   128
 71
   150
 72
   151
 73
   160
  0
VERTEX
  8
bark
 10
0.0
 20
0.0
 30
0.0
 70
   128
 71
   151
 72
   162
 73
   161
  0
VERTEX
  8
bark
 10
0.0
 20
0.0
 30
0.0
 70
   128
 71
   152
 72
   163
 73
   162
  0
VERTEX
  8
bark
 10
0.0
 20
0.0
 30
0.0
 70
   128
 71
   153
 72
   164
 73
   163
  0
VERTEX
  8
bark
 10
0.0
 20
0.0
 30
0.0
 70
   128
 71
   154
 72
   165
 73
   164
  0
VERTEX
  8
bark
 10
0.0
 20
0.0
 30
0.0
 70
   128
 71
   155
 72
   166
 73
   165
  0
VERTEX
  8
bark
 10
0.0
 20
0.0
 30
0.0
 70
   128
 71
   156
 72
   167
 73
   166
  0
VERTEX
  8
bark
 10
0.0
 20
0.0
 30
0.0
 70
   128
 71
   157
 72
   168
 73
   167
  0
VERTEX
  8
bark
 10
0.0
 20
0.0
 30
0.0
 70
   128
 71
   158
 72
   169
 73
   168
  0
VERTEX
  8
bark
 10
0.0
 20
0.0
 30
0.0
 70
   128
 71
   159
 72
   170
 73
   169
  0
VERTEX
  8
bark
 10
0.0
 20
0.0
 30
0.0
 70
   128
 71
   160
 72
   161
 73
   170
  0
VERTEX
  8
bark
 10
0.0
 20
0.0
 30
0.0
 70
   128
 71
   161
 72
   172
 73
   171
  0
VERTEX
  8
bark
 10
0.0
 20
0.0
 30
0.0
 70
   128
 71
   162
 72
   173
 73
   172
  0
VERTEX
  8
bark
 10
0.0
 20
0.0
 30
0.0
 70
   128
 71
   163
 72
   174
 73
   173
  0
VERTEX
  8
bark
 10
0.0
 20
0.0
 30
0.0
 70
   128
 71
   164
 72
   175
 73
   174
  0
VERTEX
  8
bark
 10
0.0
 20
0.0
 30
0.0
 70
   128
 71
   165
 72
   176
 73
   175
  0
VERTEX
  8
bark
 10
0.0
 20
0.0
 30
0.0
 70
   128
 71
   166
 72
   177
 73
   176
  0
VERTEX
  8
bark
 10
0.0
 20
0.0
 30
0.0
 70
   128
 71
   167
 72
   178
 73
   177
  0
VERTEX
  8
bark
 10
0.0
 20
0.0
 30
0.0
 70
   128
 71
   168
 72
   179
 73
   178
  0
VERTEX
  8
bark
 10
0.0
 20
0.0
 30
0.0
 70
   128
 71
   169
 72
   180
 73
   179
  0
VERTEX
  8
bark
 10
0.0
 20
0.0
 30
0.0
 70
   128
 71
   170
 72
   171
 73
   180
  0
VERTEX
  8
bark
 10
0.0
 20
0.0
 30
0.0
 70
   128
 71
   181
 72
   192
 73
   191
  0
VERTEX
  8
bark
 10
0.0
 20
0.0
 30
0.0
 70
   128
 71
   182
 72
   193
 73
   192
  0
VERTEX
  8
bark
 10
0.0
 20
0.0
 30
0.0
 70
   128
 71
   183
 72
   194
 73
   193
  0
VERTEX
  8
bark
 10
0.0
 20
0.0
 30
0.0
 70
   128
 71
   184
 72
   195
 73
   194
  0
VERTEX
  8
bark
 10
0.0
 20
0.0
 30
0.0
 70
   128
 71
   185
 72
   196
 73
   195
  0
VERTEX
  8
bark
 10
0.0
 20
0.0
 30
0.0
 70
   128
 71
   186
 72
   197
 73
   196
  0
VERTEX
  8
bark
 10
0.0
 20
0.0
 30
0.0
 70
   128
 71
   187
 72
   198
 73
   197
  0
VERTEX
  8
bark
 10
0.0
 20
0.0
 30
0.0
 70
   128
 71
   188
 72
   199
 73
   198
  0
VERTEX
  8
bark
 10
0.0
 20
0.0
 30
0.0
 70
   128
 71
   189
 72
   200
 73
   199
  0
VERTEX
  8
bark
 10
0.0
 20
0.0
 30
0.0
 70
   128
 71
   190
 72
   191
 73
   200
  0
VERTEX
  8
bark
 10
0.0
 20
0.0
 30
0.0
 70
   128
 71
   191
 72
   202
 73
   201
  0
VERTEX
  8
bark
 10
0.0
 20
0.0
 30
0.0
 70
   128
 71
   192
 72
   203
 73
   202
  0
VERTEX
  8
bark
 10
0.0
 20
0.0
 30
0.0
 70
   128
 71
   193
 72
   204
 73
   203
  0
VERTEX
  8
bark
 10
0.0
 20
0.0
 30
0.0
 70
   128
 71
   194
 72
   205
 73
   204
  0
VERTEX
  8
bark
 10
0.0
 20
0.0
 30
0.0
 70
   128
 71
   195
 72
   206
 73
   205
  0
VERTEX
  8
bark
 10
0.0
 20
0.0
 30
0.0
 70
   128
 71
   196
 72
   207
 73
   206
  0
VERTEX
  8
bark
 10
0.0
 20
0.0
 30
0.0
 70
   128
 71
   197
 72
   208
 73
   207
  0
VERTEX
  8
bark
 10
0.0
 20
0.0
 30
0.0
 70
   128
 71
   198
 72
   209
 73
   208
  0
VERTEX
  8
bark
 10
0.0
 20
0.0
 30
0.0
 70
   128
 71
   199
 72
   210
 73
   209
  0
VERTEX
  8
bark
 10
0.0
 20
0.0
 30
0.0
 70
   128
 71
   200
 72
   201
 73
   210
  0
VERTEX
  8
bark
 10
0.0
 20
0.0
 30
0.0
 70
   128
 71
   201
 72
   212
 73
   211
  0
VERTEX
  8
bark
 10
0.0
 20
0.0
 30
0.0
 70
   128
 71
   202
 72
   213
 73
   212
  0
VERTEX
  8
bark
 10
0.0
 20
0.0
 30
0.0
 70
   128
 71
   203
 72
   214
 73
   213
  0
VERTEX
  8
bark
 10
0.0
 20
0.0
 30
0.0
 70
   128
 71
   204
 72
   215
 73
   214
  0
VERTEX
  8
bark
 10
0.0
 20
0.0
 30
0.0
 70
   128
 71
   205
 72
   216
 73
   215
  0
VERTEX
  8
bark
 10
0.0
 20
0.0
 30
0.0
 70
   128
 71
   206
 72
   217
 73
   216
  0
VERTEX
  8
bark
 10
0.0
 20
0.0
 30
0.0
 70
   128
 71
   207
 72
   218
 73
   217
  0
VERTEX
  8
bark
 10
0.0
 20
0.0
 30
0.0
 70
   128
 71
   208
 72
   219
 73
   218
  0
VERTEX
  8
bark
 10
0.0
 20
0.0
 30
0.0
 70
   128
 71
   209
 72
   220
 73
   219
  0
VERTEX
  8
bark
 10
0.0
 20
0.0
 30
0.0
 70
   128
 71
   210
 72
   211
 73
   220
  0
VERTEX
  8
bark
 10
0.0
 20
0.0
 30
0.0
 70
   128
 71
   211
 72
   222
 73
   221
  0
VERTEX
  8
bark
 10
0.0
 20
0.0
 30
0.0
 70
   128
 71
   212
 72
   223
 73
   222
  0
VERTEX
  8
bark
 10
0.0
 20
0.0
 30
0.0
 70
   128
 71
   213
 72
   224
 73
   223
  0
VERTEX
  8
bark
 10
0.0
 20
0.0
 30
0.0
 70
   128
 71
   214
 72
   225
 73
   224
  0
VERTEX
  8
bark
 10
0.0
 20
0.0
 30
0.0
 70
   128
 71
   215
 72
   226
 73
   225
  0
VERTEX
  8
bark
 10
0.0
 20
0.0
 30
0.0
 70
   128
 71
   216
 72
   227
 73
   226
  0
VERTEX
  8
bark
 10
0.0
 20
0.0
 30
0.0
 70
   128
 71
   217
 72
   228
 73
   227
  0
VERTEX
  8
bark
 10
0.0
 20
0.0
 30
0.0
 70
   128
 71
   218
 72
   229
 73
   228
  0
VERTEX
  8
bark
 10
0.0
 20
0.0
 30
0.0
 70
   128
 71
   219
 72
   230
 73
   229
  0
VERTEX
  8
bark
 10
0.0
 20
0.0
 30
0.0
 70
   128
 71
   220
 72
   221
 73
   230
  0
SEQEND
  0
ENDSEC
  0
EOF
