999
FBX AutoCAD (*.DXF) exporter
  0
SECTION
  2
HEADER
  9
$ACADVER
  1
AC1008
  9
$UCSORG
 10
0.0
 20
0.0
 30
0.0
  9
$UCSXDIR
 10
1.0
 20
0.0
 30
0.0
  9
$TILEMODE
 70
   1
  9
$UCSYDIR
 10
0.0
 20
1.0
 30
0.0
  0
ENDSEC
  0
SECTION
  2
TABLES
  0
TABLE
  2
LTYPE
 70
   1
  0
LTYPE
  2
CONTINUOUS
 70
   64
  3
Solid line
 72
   65
 73
   0
 40
0.0
  0
ENDTAB
  0
TABLE
  2
LAYER
 70
   4
  0
LAYER
  2
leaf
 70
   0
 62
   250
  6
CONTINUOUS
  0
LAYER
  2
leaf_2
 70
   0
 62
   250
  6
CONTINUOUS
  0
LAYER
  2
bark
 70
   0
 62
   250
  6
CONTINUOUS
  0
ENDTAB
  0
ENDSEC
  0
SECTION
  2
BLOCKS
  0
ENDSEC
  0
SECTION
  2
ENTITIES
  0
POLYLINE
  8
leaf
 66
   1
 10
0.0
 20
0.0
 30
0.0
 70
   64
 71
   42
 72
   80
  0
VERTEX
  8
leaf
 10
-174.309600
 20
618.211282
 30
22.722169
 70
   192
  0
VERTEX
  8
leaf
 10
-174.309600
 20
534.561083
 30
22.722169
 70
   192
  0
VERTEX
  8
leaf
 10
-119.999022
 20
559.997705
 30
92.548146
 70
   192
  0
VERTEX
  8
leaf
 10
-12.255941
 20
559.997705
 30
63.781884
 70
   192
  0
VERTEX
  8
leaf
 10
0.022366
 20
618.211282
 30
-23.822620
 70
   192
  0
VERTEX
  8
leaf
 10
0.022366
 20
534.561083
 30
-23.822620
 70
   192
  0
VERTEX
  8
leaf
 10
-54.288212
 20
559.997705
 30
-93.648596
 70
   192
  0
VERTEX
  8
leaf
 10
-162.031293
 20
559.997705
 30
-64.882335
 70
   192
  0
VERTEX
  8
leaf
 10
-74.154931
 20
641.015685
 30
48.098469
 70
   192
  0
VERTEX
  8
leaf
 10
-100.132303
 20
641.015685
 30
-49.198919
 70
   192
  0
VERTEX
  8
leaf
 10
-100.132303
 20
518.840386
 30
-49.198919
 70
   192
  0
VERTEX
  8
leaf
 10
-74.154931
 20
518.840386
 30
48.098469
 70
   192
  0
VERTEX
  8
leaf
 10
-87.143617
 20
651.497719
 30
-0.550225
 70
   192
  0
VERTEX
  8
leaf
 10
-130.743938
 20
638.093627
 30
41.723930
 70
   192
  0
VERTEX
  8
leaf
 10
-146.013055
 20
638.093627
 30
-15.466040
 70
   192
  0
VERTEX
  8
leaf
 10
-98.820981
 20
616.405351
 30
82.766609
 70
   192
  0
VERTEX
  8
leaf
 10
-157.690419
 20
574.948976
 30
67.850794
 70
   192
  0
VERTEX
  8
leaf
 10
-35.491188
 20
616.405351
 30
65.858225
 70
   192
  0
VERTEX
  8
leaf
 10
-62.437668
 20
559.997705
 30
91.985089
 70
   192
  0
VERTEX
  8
leaf
 10
-28.274180
 20
638.093627
 30
14.365589
 70
   192
  0
VERTEX
  8
leaf
 10
8.109134
 20
574.948976
 30
23.584070
 70
   192
  0
VERTEX
  8
leaf
 10
-43.543296
 20
638.093627
 30
-42.824380
 70
   192
  0
VERTEX
  8
leaf
 10
-75.466253
 20
616.405351
 30
-83.867060
 70
   192
  0
VERTEX
  8
leaf
 10
-16.596815
 20
574.948976
 30
-68.951245
 70
   192
  0
VERTEX
  8
leaf
 10
-138.796047
 20
616.405351
 30
-66.958675
 70
   192
  0
VERTEX
  8
leaf
 10
-111.849566
 20
559.997705
 30
-93.085540
 70
   192
  0
VERTEX
  8
leaf
 10
-182.396368
 20
574.948976
 30
-24.684520
 70
   192
  0
VERTEX
  8
leaf
 10
-87.143617
 20
511.614375
 30
-0.550225
 70
   192
  0
VERTEX
  8
leaf
 10
-146.013055
 20
520.854769
 30
-15.466040
 70
   192
  0
VERTEX
  8
leaf
 10
-130.743938
 20
520.854769
 30
41.723930
 70
   192
  0
VERTEX
  8
leaf
 10
-98.820981
 20
535.806040
 30
82.766609
 70
   192
  0
VERTEX
  8
leaf
 10
-157.690419
 20
545.046434
 30
67.850794
 70
   192
  0
VERTEX
  8
leaf
 10
-35.491188
 20
535.806040
 30
65.858225
 70
   192
  0
VERTEX
  8
leaf
 10
8.109134
 20
545.046434
 30
23.584070
 70
   192
  0
VERTEX
  8
leaf
 10
-28.274180
 20
520.854769
 30
14.365589
 70
   192
  0
VERTEX
  8
leaf
 10
-43.543296
 20
520.854769
 30
-42.824380
 70
   192
  0
VERTEX
  8
leaf
 10
-16.596815
 20
545.046434
 30
-68.951245
 70
   192
  0
VERTEX
  8
leaf
 10
-75.466253
 20
535.806040
 30
-83.867060
 70
   192
  0
VERTEX
  8
leaf
 10
-138.796047
 20
535.806040
 30
-66.958675
 70
   192
  0
VERTEX
  8
leaf
 10
-182.396368
 20
545.046434
 30
-24.684520
 70
   192
  0
VERTEX
  8
leaf
 10
-189.613376
 20
559.997705
 30
26.808115
 70
   192
  0
VERTEX
  8
leaf
 10
15.326142
 20
559.997705
 30
-27.908566
 70
   192
  0
VERTEX
  8
leaf
 10
0.0
 20
0.0
 30
0.0
 70
   128
 71
   10
 72
   13
 73
   15
  0
VERTEX
  8
leaf
 10
0.0
 20
0.0
 30
0.0
 70
   128
 71
   13
 72
   9
 73
   14
  0
VERTEX
  8
leaf
 10
0.0
 20
0.0
 30
0.0
 70
   128
 71
   14
 72
   15
 73
   13
  0
VERTEX
  8
leaf
 10
0.0
 20
0.0
 30
0.0
 70
   128
 71
   15
 72
   14
 73
   1
  0
VERTEX
  8
leaf
 10
0.0
 20
0.0
 30
0.0
 70
   128
 71
   9
 72
   16
 73
   14
  0
VERTEX
  8
leaf
 10
0.0
 20
0.0
 30
0.0
 70
   128
 71
   16
 72
   3
 73
   17
  0
VERTEX
  8
leaf
 10
0.0
 20
0.0
 30
0.0
 70
   128
 71
   17
 72
   14
 73
   16
  0
VERTEX
  8
leaf
 10
0.0
 20
0.0
 30
0.0
 70
   128
 71
   14
 72
   17
 73
   1
  0
VERTEX
  8
leaf
 10
0.0
 20
0.0
 30
0.0
 70
   128
 71
   9
 72
   18
 73
   16
  0
VERTEX
  8
leaf
 10
0.0
 20
0.0
 30
0.0
 70
   128
 71
   18
 72
   4
 73
   19
  0
VERTEX
  8
leaf
 10
0.0
 20
0.0
 30
0.0
 70
   128
 71
   19
 72
   16
 73
   18
  0
VERTEX
  8
leaf
 10
0.0
 20
0.0
 30
0.0
 70
   128
 71
   16
 72
   19
 73
   3
  0
VERTEX
  8
leaf
 10
0.0
 20
0.0
 30
0.0
 70
   128
 71
   9
 72
   20
 73
   18
  0
VERTEX
  8
leaf
 10
0.0
 20
0.0
 30
0.0
 70
   128
 71
   20
 72
   5
 73
   21
  0
VERTEX
  8
leaf
 10
0.0
 20
0.0
 30
0.0
 70
   128
 71
   21
 72
   18
 73
   20
  0
VERTEX
  8
leaf
 10
0.0
 20
0.0
 30
0.0
 70
   128
 71
   18
 72
   21
 73
   4
  0
VERTEX
  8
leaf
 10
0.0
 20
0.0
 30
0.0
 70
   128
 71
   9
 72
   13
 73
   20
  0
VERTEX
  8
leaf
 10
0.0
 20
0.0
 30
0.0
 70
   128
 71
   13
 72
   10
 73
   22
  0
VERTEX
  8
leaf
 10
0.0
 20
0.0
 30
0.0
 70
   128
 71
   22
 72
   20
 73
   13
  0
VERTEX
  8
leaf
 10
0.0
 20
0.0
 30
0.0
 70
   128
 71
   20
 72
   22
 73
   5
  0
VERTEX
  8
leaf
 10
0.0
 20
0.0
 30
0.0
 70
   128
 71
   5
 72
   22
 73
   24
  0
VERTEX
  8
leaf
 10
0.0
 20
0.0
 30
0.0
 70
   128
 71
   22
 72
   10
 73
   23
  0
VERTEX
  8
leaf
 10
0.0
 20
0.0
 30
0.0
 70
   128
 71
   23
 72
   24
 73
   22
  0
VERTEX
  8
leaf
 10
0.0
 20
0.0
 30
0.0
 70
   128
 71
   24
 72
   23
 73
   7
  0
VERTEX
  8
leaf
 10
0.0
 20
0.0
 30
0.0
 70
   128
 71
   7
 72
   23
 73
   26
  0
VERTEX
  8
leaf
 10
0.0
 20
0.0
 30
0.0
 70
   128
 71
   23
 72
   10
 73
   25
  0
VERTEX
  8
leaf
 10
0.0
 20
0.0
 30
0.0
 70
   128
 71
   25
 72
   26
 73
   23
  0
VERTEX
  8
leaf
 10
0.0
 20
0.0
 30
0.0
 70
   128
 71
   26
 72
   25
 73
   8
  0
VERTEX
  8
leaf
 10
0.0
 20
0.0
 30
0.0
 70
   128
 71
   10
 72
   15
 73
   25
  0
VERTEX
  8
leaf
 10
0.0
 20
0.0
 30
0.0
 70
   128
 71
   15
 72
   1
 73
   27
  0
VERTEX
  8
leaf
 10
0.0
 20
0.0
 30
0.0
 70
   128
 71
   27
 72
   25
 73
   15
  0
VERTEX
  8
leaf
 10
0.0
 20
0.0
 30
0.0
 70
   128
 71
   25
 72
   27
 73
   8
  0
VERTEX
  8
leaf
 10
0.0
 20
0.0
 30
0.0
 70
   128
 71
   12
 72
   28
 73
   30
  0
VERTEX
  8
leaf
 10
0.0
 20
0.0
 30
0.0
 70
   128
 71
   28
 72
   11
 73
   29
  0
VERTEX
  8
leaf
 10
0.0
 20
0.0
 30
0.0
 70
   128
 71
   29
 72
   30
 73
   28
  0
VERTEX
  8
leaf
 10
0.0
 20
0.0
 30
0.0
 70
   128
 71
   30
 72
   29
 73
   2
  0
VERTEX
  8
leaf
 10
0.0
 20
0.0
 30
0.0
 70
   128
 71
   3
 72
   31
 73
   32
  0
VERTEX
  8
leaf
 10
0.0
 20
0.0
 30
0.0
 70
   128
 71
   31
 72
   12
 73
   30
  0
VERTEX
  8
leaf
 10
0.0
 20
0.0
 30
0.0
 70
   128
 71
   30
 72
   32
 73
   31
  0
VERTEX
  8
leaf
 10
0.0
 20
0.0
 30
0.0
 70
   128
 71
   32
 72
   30
 73
   2
  0
VERTEX
  8
leaf
 10
0.0
 20
0.0
 30
0.0
 70
   128
 71
   3
 72
   19
 73
   31
  0
VERTEX
  8
leaf
 10
0.0
 20
0.0
 30
0.0
 70
   128
 71
   19
 72
   4
 73
   33
  0
VERTEX
  8
leaf
 10
0.0
 20
0.0
 30
0.0
 70
   128
 71
   33
 72
   31
 73
   19
  0
VERTEX
  8
leaf
 10
0.0
 20
0.0
 30
0.0
 70
   128
 71
   31
 72
   33
 73
   12
  0
VERTEX
  8
leaf
 10
0.0
 20
0.0
 30
0.0
 70
   128
 71
   4
 72
   34
 73
   33
  0
VERTEX
  8
leaf
 10
0.0
 20
0.0
 30
0.0
 70
   128
 71
   34
 72
   6
 73
   35
  0
VERTEX
  8
leaf
 10
0.0
 20
0.0
 30
0.0
 70
   128
 71
   35
 72
   33
 73
   34
  0
VERTEX
  8
leaf
 10
0.0
 20
0.0
 30
0.0
 70
   128
 71
   33
 72
   35
 73
   12
  0
VERTEX
  8
leaf
 10
0.0
 20
0.0
 30
0.0
 70
   128
 71
   6
 72
   36
 73
   35
  0
VERTEX
  8
leaf
 10
0.0
 20
0.0
 30
0.0
 70
   128
 71
   36
 72
   11
 73
   28
  0
VERTEX
  8
leaf
 10
0.0
 20
0.0
 30
0.0
 70
   128
 71
   28
 72
   35
 73
   36
  0
VERTEX
  8
leaf
 10
0.0
 20
0.0
 30
0.0
 70
   128
 71
   35
 72
   28
 73
   12
  0
VERTEX
  8
leaf
 10
0.0
 20
0.0
 30
0.0
 70
   128
 71
   6
 72
   37
 73
   36
  0
VERTEX
  8
leaf
 10
0.0
 20
0.0
 30
0.0
 70
   128
 71
   37
 72
   7
 73
   38
  0
VERTEX
  8
leaf
 10
0.0
 20
0.0
 30
0.0
 70
   128
 71
   38
 72
   36
 73
   37
  0
VERTEX
  8
leaf
 10
0.0
 20
0.0
 30
0.0
 70
   128
 71
   36
 72
   38
 73
   11
  0
VERTEX
  8
leaf
 10
0.0
 20
0.0
 30
0.0
 70
   128
 71
   7
 72
   26
 73
   38
  0
VERTEX
  8
leaf
 10
0.0
 20
0.0
 30
0.0
 70
   128
 71
   26
 72
   8
 73
   39
  0
VERTEX
  8
leaf
 10
0.0
 20
0.0
 30
0.0
 70
   128
 71
   39
 72
   38
 73
   26
  0
VERTEX
  8
leaf
 10
0.0
 20
0.0
 30
0.0
 70
   128
 71
   38
 72
   39
 73
   11
  0
VERTEX
  8
leaf
 10
0.0
 20
0.0
 30
0.0
 70
   128
 71
   8
 72
   40
 73
   39
  0
VERTEX
  8
leaf
 10
0.0
 20
0.0
 30
0.0
 70
   128
 71
   40
 72
   2
 73
   29
  0
VERTEX
  8
leaf
 10
0.0
 20
0.0
 30
0.0
 70
   128
 71
   29
 72
   39
 73
   40
  0
VERTEX
  8
leaf
 10
0.0
 20
0.0
 30
0.0
 70
   128
 71
   39
 72
   29
 73
   11
  0
VERTEX
  8
leaf
 10
0.0
 20
0.0
 30
0.0
 70
   128
 71
   2
 72
   40
 73
   41
  0
VERTEX
  8
leaf
 10
0.0
 20
0.0
 30
0.0
 70
   128
 71
   40
 72
   8
 73
   27
  0
VERTEX
  8
leaf
 10
0.0
 20
0.0
 30
0.0
 70
   128
 71
   27
 72
   41
 73
   40
  0
VERTEX
  8
leaf
 10
0.0
 20
0.0
 30
0.0
 70
   128
 71
   41
 72
   27
 73
   1
  0
VERTEX
  8
leaf
 10
0.0
 20
0.0
 30
0.0
 70
   128
 71
   3
 72
   32
 73
   17
  0
VERTEX
  8
leaf
 10
0.0
 20
0.0
 30
0.0
 70
   128
 71
   32
 72
   2
 73
   41
  0
VERTEX
  8
leaf
 10
0.0
 20
0.0
 30
0.0
 70
   128
 71
   41
 72
   17
 73
   32
  0
VERTEX
  8
leaf
 10
0.0
 20
0.0
 30
0.0
 70
   128
 71
   17
 72
   41
 73
   1
  0
VERTEX
  8
leaf
 10
0.0
 20
0.0
 30
0.0
 70
   128
 71
   5
 72
   42
 73
   21
  0
VERTEX
  8
leaf
 10
0.0
 20
0.0
 30
0.0
 70
   128
 71
   42
 72
   6
 73
   34
  0
VERTEX
  8
leaf
 10
0.0
 20
0.0
 30
0.0
 70
   128
 71
   34
 72
   21
 73
   42
  0
VERTEX
  8
leaf
 10
0.0
 20
0.0
 30
0.0
 70
   128
 71
   21
 72
   34
 73
   4
  0
VERTEX
  8
leaf
 10
0.0
 20
0.0
 30
0.0
 70
   128
 71
   5
 72
   24
 73
   42
  0
VERTEX
  8
leaf
 10
0.0
 20
0.0
 30
0.0
 70
   128
 71
   24
 72
   7
 73
   37
  0
VERTEX
  8
leaf
 10
0.0
 20
0.0
 30
0.0
 70
   128
 71
   37
 72
   42
 73
   24
  0
VERTEX
  8
leaf
 10
0.0
 20
0.0
 30
0.0
 70
   128
 71
   42
 72
   37
 73
   6
  0
SEQEND
  0
POLYLINE
  8
leaf_2
 66
   1
 10
0.0
 20
0.0
 30
0.0
 70
   64
 71
   42
 72
   80
  0
VERTEX
  8
leaf_2
 10
51.842040
 20
946.553859
 30
158.703614
 70
   192
  0
VERTEX
  8
leaf_2
 10
51.842040
 20
745.953862
 30
158.703614
 70
   192
  0
VERTEX
  8
leaf_2
 10
247.219719
 20
806.952955
 30
98.084228
 70
   192
  0
VERTEX
  8
leaf_2
 10
247.219719
 20
806.952955
 30
-98.084228
 70
   192
  0
VERTEX
  8
leaf_2
 10
51.842040
 20
946.553859
 30
-158.703614
 70
   192
  0
VERTEX
  8
leaf_2
 10
51.842040
 20
745.953862
 30
-158.703614
 70
   192
  0
VERTEX
  8
leaf_2
 10
-143.535640
 20
806.952955
 30
-98.084228
 70
   192
  0
VERTEX
  8
leaf_2
 10
-143.535640
 20
806.952955
 30
98.084228
 70
   192
  0
VERTEX
  8
leaf_2
 10
172.592086
 20
1001.240678
 30
0.000000
 70
   192
  0
VERTEX
  8
leaf_2
 10
-68.908007
 20
1001.240678
 30
0.000000
 70
   192
  0
VERTEX
  8
leaf_2
 10
-68.908007
 20
708.254350
 30
0.000000
 70
   192
  0
VERTEX
  8
leaf_2
 10
172.592086
 20
708.254350
 30
0.000000
 70
   192
  0
VERTEX
  8
leaf_2
 10
51.842040
 20
1026.377449
 30
0.000000
 70
   192
  0
VERTEX
  8
leaf_2
 10
122.817136
 20
994.233344
 30
93.283644
 70
   192
  0
VERTEX
  8
leaf_2
 10
-19.133057
 20
994.233344
 30
93.283644
 70
   192
  0
VERTEX
  8
leaf_2
 10
237.657255
 20
942.223089
 30
57.652462
 70
   192
  0
VERTEX
  8
leaf_2
 10
166.682158
 20
842.807322
 30
150.936106
 70
   192
  0
VERTEX
  8
leaf_2
 10
237.657255
 20
942.223089
 30
-57.652462
 70
   192
  0
VERTEX
  8
leaf_2
 10
281.522277
 20
806.952955
 30
0.000000
 70
   192
  0
VERTEX
  8
leaf_2
 10
122.817136
 20
994.233344
 30
-93.283644
 70
   192
  0
VERTEX
  8
leaf_2
 10
166.682158
 20
842.807322
 30
-150.936106
 70
   192
  0
VERTEX
  8
leaf_2
 10
-19.133057
 20
994.233344
 30
-93.283644
 70
   192
  0
VERTEX
  8
leaf_2
 10
-133.973175
 20
942.223089
 30
-57.652462
 70
   192
  0
VERTEX
  8
leaf_2
 10
-62.998079
 20
842.807322
 30
-150.936106
 70
   192
  0
VERTEX
  8
leaf_2
 10
-133.973175
 20
942.223089
 30
57.652462
 70
   192
  0
VERTEX
  8
leaf_2
 10
-177.838197
 20
806.952955
 30
0.000000
 70
   192
  0
VERTEX
  8
leaf_2
 10
-62.998079
 20
842.807322
 30
150.936106
 70
   192
  0
VERTEX
  8
leaf_2
 10
51.842040
 20
690.925786
 30
0.000000
 70
   192
  0
VERTEX
  8
leaf_2
 10
-19.133057
 20
713.085003
 30
93.283644
 70
   192
  0
VERTEX
  8
leaf_2
 10
122.817136
 20
713.085003
 30
93.283644
 70
   192
  0
VERTEX
  8
leaf_2
 10
237.657255
 20
748.939370
 30
57.652462
 70
   192
  0
VERTEX
  8
leaf_2
 10
166.682158
 20
771.098588
 30
150.936106
 70
   192
  0
VERTEX
  8
leaf_2
 10
237.657255
 20
748.939370
 30
-57.652462
 70
   192
  0
VERTEX
  8
leaf_2
 10
166.682158
 20
771.098588
 30
-150.936106
 70
   192
  0
VERTEX
  8
leaf_2
 10
122.817136
 20
713.085003
 30
-93.283644
 70
   192
  0
VERTEX
  8
leaf_2
 10
-19.133057
 20
713.085003
 30
-93.283644
 70
   192
  0
VERTEX
  8
leaf_2
 10
-62.998079
 20
771.098588
 30
-150.936106
 70
   192
  0
VERTEX
  8
leaf_2
 10
-133.973175
 20
748.939370
 30
-57.652462
 70
   192
  0
VERTEX
  8
leaf_2
 10
-133.973175
 20
748.939370
 30
57.652462
 70
   192
  0
VERTEX
  8
leaf_2
 10
-62.998079
 20
771.098588
 30
150.936106
 70
   192
  0
VERTEX
  8
leaf_2
 10
51.842040
 20
806.952955
 30
186.567287
 70
   192
  0
VERTEX
  8
leaf_2
 10
51.842040
 20
806.952955
 30
-186.567287
 70
   192
  0
VERTEX
  8
leaf_2
 10
0.0
 20
0.0
 30
0.0
 70
   128
 71
   10
 72
   13
 73
   15
  0
VERTEX
  8
leaf_2
 10
0.0
 20
0.0
 30
0.0
 70
   128
 71
   13
 72
   9
 73
   14
  0
VERTEX
  8
leaf_2
 10
0.0
 20
0.0
 30
0.0
 70
   128
 71
   14
 72
   15
 73
   13
  0
VERTEX
  8
leaf_2
 10
0.0
 20
0.0
 30
0.0
 70
   128
 71
   15
 72
   14
 73
   1
  0
VERTEX
  8
leaf_2
 10
0.0
 20
0.0
 30
0.0
 70
   128
 71
   9
 72
   16
 73
   14
  0
VERTEX
  8
leaf_2
 10
0.0
 20
0.0
 30
0.0
 70
   128
 71
   16
 72
   3
 73
   17
  0
VERTEX
  8
leaf_2
 10
0.0
 20
0.0
 30
0.0
 70
   128
 71
   17
 72
   14
 73
   16
  0
VERTEX
  8
leaf_2
 10
0.0
 20
0.0
 30
0.0
 70
   128
 71
   14
 72
   17
 73
   1
  0
VERTEX
  8
leaf_2
 10
0.0
 20
0.0
 30
0.0
 70
   128
 71
   9
 72
   18
 73
   16
  0
VERTEX
  8
leaf_2
 10
0.0
 20
0.0
 30
0.0
 70
   128
 71
   18
 72
   4
 73
   19
  0
VERTEX
  8
leaf_2
 10
0.0
 20
0.0
 30
0.0
 70
   128
 71
   19
 72
   16
 73
   18
  0
VERTEX
  8
leaf_2
 10
0.0
 20
0.0
 30
0.0
 70
   128
 71
   16
 72
   19
 73
   3
  0
VERTEX
  8
leaf_2
 10
0.0
 20
0.0
 30
0.0
 70
   128
 71
   9
 72
   20
 73
   18
  0
VERTEX
  8
leaf_2
 10
0.0
 20
0.0
 30
0.0
 70
   128
 71
   20
 72
   5
 73
   21
  0
VERTEX
  8
leaf_2
 10
0.0
 20
0.0
 30
0.0
 70
   128
 71
   21
 72
   18
 73
   20
  0
VERTEX
  8
leaf_2
 10
0.0
 20
0.0
 30
0.0
 70
   128
 71
   18
 72
   21
 73
   4
  0
VERTEX
  8
leaf_2
 10
0.0
 20
0.0
 30
0.0
 70
   128
 71
   9
 72
   13
 73
   20
  0
VERTEX
  8
leaf_2
 10
0.0
 20
0.0
 30
0.0
 70
   128
 71
   13
 72
   10
 73
   22
  0
VERTEX
  8
leaf_2
 10
0.0
 20
0.0
 30
0.0
 70
   128
 71
   22
 72
   20
 73
   13
  0
VERTEX
  8
leaf_2
 10
0.0
 20
0.0
 30
0.0
 70
   128
 71
   20
 72
   22
 73
   5
  0
VERTEX
  8
leaf_2
 10
0.0
 20
0.0
 30
0.0
 70
   128
 71
   5
 72
   22
 73
   24
  0
VERTEX
  8
leaf_2
 10
0.0
 20
0.0
 30
0.0
 70
   128
 71
   22
 72
   10
 73
   23
  0
VERTEX
  8
leaf_2
 10
0.0
 20
0.0
 30
0.0
 70
   128
 71
   23
 72
   24
 73
   22
  0
VERTEX
  8
leaf_2
 10
0.0
 20
0.0
 30
0.0
 70
   128
 71
   24
 72
   23
 73
   7
  0
VERTEX
  8
leaf_2
 10
0.0
 20
0.0
 30
0.0
 70
   128
 71
   7
 72
   23
 73
   26
  0
VERTEX
  8
leaf_2
 10
0.0
 20
0.0
 30
0.0
 70
   128
 71
   23
 72
   10
 73
   25
  0
VERTEX
  8
leaf_2
 10
0.0
 20
0.0
 30
0.0
 70
   128
 71
   25
 72
   26
 73
   23
  0
VERTEX
  8
leaf_2
 10
0.0
 20
0.0
 30
0.0
 70
   128
 71
   26
 72
   25
 73
   8
  0
VERTEX
  8
leaf_2
 10
0.0
 20
0.0
 30
0.0
 70
   128
 71
   10
 72
   15
 73
   25
  0
VERTEX
  8
leaf_2
 10
0.0
 20
0.0
 30
0.0
 70
   128
 71
   15
 72
   1
 73
   27
  0
VERTEX
  8
leaf_2
 10
0.0
 20
0.0
 30
0.0
 70
   128
 71
   27
 72
   25
 73
   15
  0
VERTEX
  8
leaf_2
 10
0.0
 20
0.0
 30
0.0
 70
   128
 71
   25
 72
   27
 73
   8
  0
VERTEX
  8
leaf_2
 10
0.0
 20
0.0
 30
0.0
 70
   128
 71
   12
 72
   28
 73
   30
  0
VERTEX
  8
leaf_2
 10
0.0
 20
0.0
 30
0.0
 70
   128
 71
   28
 72
   11
 73
   29
  0
VERTEX
  8
leaf_2
 10
0.0
 20
0.0
 30
0.0
 70
   128
 71
   29
 72
   30
 73
   28
  0
VERTEX
  8
leaf_2
 10
0.0
 20
0.0
 30
0.0
 70
   128
 71
   30
 72
   29
 73
   2
  0
VERTEX
  8
leaf_2
 10
0.0
 20
0.0
 30
0.0
 70
   128
 71
   3
 72
   31
 73
   32
  0
VERTEX
  8
leaf_2
 10
0.0
 20
0.0
 30
0.0
 70
   128
 71
   31
 72
   12
 73
   30
  0
VERTEX
  8
leaf_2
 10
0.0
 20
0.0
 30
0.0
 70
   128
 71
   30
 72
   32
 73
   31
  0
VERTEX
  8
leaf_2
 10
0.0
 20
0.0
 30
0.0
 70
   128
 71
   32
 72
   30
 73
   2
  0
VERTEX
  8
leaf_2
 10
0.0
 20
0.0
 30
0.0
 70
   128
 71
   3
 72
   19
 73
   31
  0
VERTEX
  8
leaf_2
 10
0.0
 20
0.0
 30
0.0
 70
   128
 71
   19
 72
   4
 73
   33
  0
VERTEX
  8
leaf_2
 10
0.0
 20
0.0
 30
0.0
 70
   128
 71
   33
 72
   31
 73
   19
  0
VERTEX
  8
leaf_2
 10
0.0
 20
0.0
 30
0.0
 70
   128
 71
   31
 72
   33
 73
   12
  0
VERTEX
  8
leaf_2
 10
0.0
 20
0.0
 30
0.0
 70
   128
 71
   4
 72
   34
 73
   33
  0
VERTEX
  8
leaf_2
 10
0.0
 20
0.0
 30
0.0
 70
   128
 71
   34
 72
   6
 73
   35
  0
VERTEX
  8
leaf_2
 10
0.0
 20
0.0
 30
0.0
 70
   128
 71
   35
 72
   33
 73
   34
  0
VERTEX
  8
leaf_2
 10
0.0
 20
0.0
 30
0.0
 70
   128
 71
   33
 72
   35
 73
   12
  0
VERTEX
  8
leaf_2
 10
0.0
 20
0.0
 30
0.0
 70
   128
 71
   6
 72
   36
 73
   35
  0
VERTEX
  8
leaf_2
 10
0.0
 20
0.0
 30
0.0
 70
   128
 71
   36
 72
   11
 73
   28
  0
VERTEX
  8
leaf_2
 10
0.0
 20
0.0
 30
0.0
 70
   128
 71
   28
 72
   35
 73
   36
  0
VERTEX
  8
leaf_2
 10
0.0
 20
0.0
 30
0.0
 70
   128
 71
   35
 72
   28
 73
   12
  0
VERTEX
  8
leaf_2
 10
0.0
 20
0.0
 30
0.0
 70
   128
 71
   6
 72
   37
 73
   36
  0
VERTEX
  8
leaf_2
 10
0.0
 20
0.0
 30
0.0
 70
   128
 71
   37
 72
   7
 73
   38
  0
VERTEX
  8
leaf_2
 10
0.0
 20
0.0
 30
0.0
 70
   128
 71
   38
 72
   36
 73
   37
  0
VERTEX
  8
leaf_2
 10
0.0
 20
0.0
 30
0.0
 70
   128
 71
   36
 72
   38
 73
   11
  0
VERTEX
  8
leaf_2
 10
0.0
 20
0.0
 30
0.0
 70
   128
 71
   7
 72
   26
 73
   38
  0
VERTEX
  8
leaf_2
 10
0.0
 20
0.0
 30
0.0
 70
   128
 71
   26
 72
   8
 73
   39
  0
VERTEX
  8
leaf_2
 10
0.0
 20
0.0
 30
0.0
 70
   128
 71
   39
 72
   38
 73
   26
  0
VERTEX
  8
leaf_2
 10
0.0
 20
0.0
 30
0.0
 70
   128
 71
   38
 72
   39
 73
   11
  0
VERTEX
  8
leaf_2
 10
0.0
 20
0.0
 30
0.0
 70
   128
 71
   8
 72
   40
 73
   39
  0
VERTEX
  8
leaf_2
 10
0.0
 20
0.0
 30
0.0
 70
   128
 71
   40
 72
   2
 73
   29
  0
VERTEX
  8
leaf_2
 10
0.0
 20
0.0
 30
0.0
 70
   128
 71
   29
 72
   39
 73
   40
  0
VERTEX
  8
leaf_2
 10
0.0
 20
0.0
 30
0.0
 70
   128
 71
   39
 72
   29
 73
   11
  0
VERTEX
  8
leaf_2
 10
0.0
 20
0.0
 30
0.0
 70
   128
 71
   2
 72
   40
 73
   41
  0
VERTEX
  8
leaf_2
 10
0.0
 20
0.0
 30
0.0
 70
   128
 71
   40
 72
   8
 73
   27
  0
VERTEX
  8
leaf_2
 10
0.0
 20
0.0
 30
0.0
 70
   128
 71
   27
 72
   41
 73
   40
  0
VERTEX
  8
leaf_2
 10
0.0
 20
0.0
 30
0.0
 70
   128
 71
   41
 72
   27
 73
   1
  0
VERTEX
  8
leaf_2
 10
0.0
 20
0.0
 30
0.0
 70
   128
 71
   3
 72
   32
 73
   17
  0
VERTEX
  8
leaf_2
 10
0.0
 20
0.0
 30
0.0
 70
   128
 71
   32
 72
   2
 73
   41
  0
VERTEX
  8
leaf_2
 10
0.0
 20
0.0
 30
0.0
 70
   128
 71
   41
 72
   17
 73
   32
  0
VERTEX
  8
leaf_2
 10
0.0
 20
0.0
 30
0.0
 70
   128
 71
   17
 72
   41
 73
   1
  0
VERTEX
  8
leaf_2
 10
0.0
 20
0.0
 30
0.0
 70
   128
 71
   5
 72
   42
 73
   21
  0
VERTEX
  8
leaf_2
 10
0.0
 20
0.0
 30
0.0
 70
   128
 71
   42
 72
   6
 73
   34
  0
VERTEX
  8
leaf_2
 10
0.0
 20
0.0
 30
0.0
 70
   128
 71
   34
 72
   21
 73
   42
  0
VERTEX
  8
leaf_2
 10
0.0
 20
0.0
 30
0.0
 70
   128
 71
   21
 72
   34
 73
   4
  0
VERTEX
  8
leaf_2
 10
0.0
 20
0.0
 30
0.0
 70
   128
 71
   5
 72
   24
 73
   42
  0
VERTEX
  8
leaf_2
 10
0.0
 20
0.0
 30
0.0
 70
   128
 71
   24
 72
   7
 73
   37
  0
VERTEX
  8
leaf_2
 10
0.0
 20
0.0
 30
0.0
 70
   128
 71
   37
 72
   42
 73
   24
  0
VERTEX
  8
leaf_2
 10
0.0
 20
0.0
 30
0.0
 70
   128
 71
   42
 72
   37
 73
   6
  0
SEQEND
  0
POLYLINE
  8
bark
 66
   1
 10
0.0
 20
0.0
 30
0.0
 70
   64
 71
   42
 72
   76
  0
VERTEX
  8
bark
 10
-28.546148
 20
596.083880
 30
4.758086
 70
   192
  0
VERTEX
  8
bark
 10
-31.929291
 20
601.423427
 30
3.564969
 70
   192
  0
VERTEX
  8
bark
 10
-30.143136
 20
605.366803
 30
-1.193117
 70
   192
  0
VERTEX
  8
bark
 10
-24.973837
 20
603.970633
 30
-4.758086
 70
   192
  0
VERTEX
  8
bark
 10
-21.590694
 20
598.631086
 30
-3.564969
 70
   192
  0
VERTEX
  8
bark
 10
-23.376849
 20
594.687710
 30
1.193117
 70
   192
  0
VERTEX
  8
bark
 10
61.272402
 20
675.173670
 30
104.022940
 70
   192
  0
VERTEX
  8
bark
 10
57.117608
 20
679.833739
 30
101.977018
 70
   192
  0
VERTEX
  8
bark
 10
57.360463
 20
682.418161
 30
95.513321
 70
   192
  0
VERTEX
  8
bark
 10
61.758111
 20
680.342513
 30
91.095547
 70
   192
  0
VERTEX
  8
bark
 10
65.912905
 20
675.682444
 30
93.141469
 70
   192
  0
VERTEX
  8
bark
 10
65.670050
 20
673.098022
 30
99.605166
 70
   192
  0
VERTEX
  8
bark
 10
156.600136
 20
792.443759
 30
88.556940
 70
   192
  0
VERTEX
  8
bark
 10
153.009865
 20
795.579090
 30
92.876616
 70
   192
  0
VERTEX
  8
bark
 10
148.047693
 20
799.179476
 30
90.928792
 70
   192
  0
VERTEX
  8
bark
 10
146.675792
 20
799.644530
 30
84.661292
 70
   192
  0
VERTEX
  8
bark
 10
150.266063
 20
796.509200
 30
80.341616
 70
   192
  0
VERTEX
  8
bark
 10
155.228234
 20
792.908814
 30
82.289440
 70
   192
  0
VERTEX
  8
bark
 10
16.536521
 20
0.055676
 30
-14.809648
 70
   192
  0
VERTEX
  8
bark
 10
21.405288
 20
-2.024925
 30
6.234732
 70
   192
  0
VERTEX
  8
bark
 10
23.330247
 20
371.963005
 30
46.740498
 70
   192
  0
VERTEX
  8
bark
 10
9.145212
 20
370.839667
 30
42.413962
 70
   192
  0
VERTEX
  8
bark
 10
5.648469
 20
370.217548
 30
27.997254
 70
   192
  0
VERTEX
  8
bark
 10
16.336762
 20
370.718768
 30
17.907083
 70
   192
  0
VERTEX
  8
bark
 10
30.521797
 20
371.842107
 30
22.233620
 70
   192
  0
VERTEX
  8
bark
 10
34.018540
 20
372.464225
 30
36.650327
 70
   192
  0
VERTEX
  8
bark
 10
-22.820071
 20
600.846711
 30
10.037024
 70
   192
  0
VERTEX
  8
bark
 10
-32.783064
 20
600.145606
 30
7.027272
 70
   192
  0
VERTEX
  8
bark
 10
-35.190842
 20
599.326151
 30
-3.009752
 70
   192
  0
VERTEX
  8
bark
 10
-27.635628
 20
599.207802
 30
-10.037024
 70
   192
  0
VERTEX
  8
bark
 10
-17.672635
 20
599.908907
 30
-7.027272
 70
   192
  0
VERTEX
  8
bark
 10
-15.264856
 20
600.728361
 30
3.009752
 70
   192
  0
VERTEX
  8
bark
 10
5.551196
 20
-2.495882
 30
21.044380
 70
   192
  0
VERTEX
  8
bark
 10
-15.171663
 20
-0.886238
 30
14.809648
 70
   192
  0
VERTEX
  8
bark
 10
-20.040430
 20
1.194363
 30
-6.234732
 70
   192
  0
VERTEX
  8
bark
 10
-4.186338
 20
1.665320
 30
-21.044380
 70
   192
  0
VERTEX
  8
bark
 10
-4.577927
 20
801.534465
 30
6.333575
 70
   192
  0
VERTEX
  8
bark
 10
-10.787817
 20
802.124231
 30
4.470668
 70
   192
  0
VERTEX
  8
bark
 10
-12.286663
 20
802.266580
 30
-1.862907
 70
   192
  0
VERTEX
  8
bark
 10
-7.575621
 20
801.819162
 30
-6.333575
 70
   192
  0
VERTEX
  8
bark
 10
-1.365731
 20
801.229396
 30
-4.470668
 70
   192
  0
VERTEX
  8
bark
 10
0.133116
 20
801.087048
 30
1.862907
 70
   192
  0
VERTEX
  8
bark
 10
0.0
 20
0.0
 30
0.0
 70
   128
 71
   1
 72
   2
 73
   8
  0
VERTEX
  8
bark
 10
0.0
 20
0.0
 30
0.0
 70
   128
 71
   2
 72
   3
 73
   9
  0
VERTEX
  8
bark
 10
0.0
 20
0.0
 30
0.0
 70
   128
 71
   3
 72
   4
 73
   10
  0
VERTEX
  8
bark
 10
0.0
 20
0.0
 30
0.0
 70
   128
 71
   4
 72
   5
 73
   11
  0
VERTEX
  8
bark
 10
0.0
 20
0.0
 30
0.0
 70
   128
 71
   5
 72
   6
 73
   12
  0
VERTEX
  8
bark
 10
0.0
 20
0.0
 30
0.0
 70
   128
 71
   6
 72
   1
 73
   7
  0
VERTEX
  8
bark
 10
0.0
 20
0.0
 30
0.0
 70
   128
 71
   7
 72
   8
 73
   15
  0
VERTEX
  8
bark
 10
0.0
 20
0.0
 30
0.0
 70
   128
 71
   8
 72
   9
 73
   16
  0
VERTEX
  8
bark
 10
0.0
 20
0.0
 30
0.0
 70
   128
 71
   9
 72
   10
 73
   17
  0
VERTEX
  8
bark
 10
0.0
 20
0.0
 30
0.0
 70
   128
 71
   10
 72
   11
 73
   18
  0
VERTEX
  8
bark
 10
0.0
 20
0.0
 30
0.0
 70
   128
 71
   11
 72
   12
 73
   13
  0
VERTEX
  8
bark
 10
0.0
 20
0.0
 30
0.0
 70
   128
 71
   12
 72
   7
 73
   14
  0
VERTEX
  8
bark
 10
0.0
 20
0.0
 30
0.0
 70
   128
 71
   6
 72
   5
 73
   1
  0
VERTEX
  8
bark
 10
0.0
 20
0.0
 30
0.0
 70
   128
 71
   5
 72
   4
 73
   3
  0
VERTEX
  8
bark
 10
0.0
 20
0.0
 30
0.0
 70
   128
 71
   5
 72
   3
 73
   1
  0
VERTEX
  8
bark
 10
0.0
 20
0.0
 30
0.0
 70
   128
 71
   3
 72
   2
 73
   1
  0
VERTEX
  8
bark
 10
0.0
 20
0.0
 30
0.0
 70
   128
 71
   14
 72
   15
 73
   16
  0
VERTEX
  8
bark
 10
0.0
 20
0.0
 30
0.0
 70
   128
 71
   14
 72
   16
 73
   13
  0
VERTEX
  8
bark
 10
0.0
 20
0.0
 30
0.0
 70
   128
 71
   16
 72
   17
 73
   18
  0
VERTEX
  8
bark
 10
0.0
 20
0.0
 30
0.0
 70
   128
 71
   16
 72
   18
 73
   13
  0
VERTEX
  8
bark
 10
0.0
 20
0.0
 30
0.0
 70
   128
 71
   33
 72
   34
 73
   22
  0
VERTEX
  8
bark
 10
0.0
 20
0.0
 30
0.0
 70
   128
 71
   34
 72
   35
 73
   23
  0
VERTEX
  8
bark
 10
0.0
 20
0.0
 30
0.0
 70
   128
 71
   35
 72
   36
 73
   24
  0
VERTEX
  8
bark
 10
0.0
 20
0.0
 30
0.0
 70
   128
 71
   36
 72
   19
 73
   25
  0
VERTEX
  8
bark
 10
0.0
 20
0.0
 30
0.0
 70
   128
 71
   19
 72
   20
 73
   26
  0
VERTEX
  8
bark
 10
0.0
 20
0.0
 30
0.0
 70
   128
 71
   20
 72
   33
 73
   21
  0
VERTEX
  8
bark
 10
0.0
 20
0.0
 30
0.0
 70
   128
 71
   21
 72
   22
 73
   28
  0
VERTEX
  8
bark
 10
0.0
 20
0.0
 30
0.0
 70
   128
 71
   22
 72
   23
 73
   29
  0
VERTEX
  8
bark
 10
0.0
 20
0.0
 30
0.0
 70
   128
 71
   23
 72
   24
 73
   30
  0
VERTEX
  8
bark
 10
0.0
 20
0.0
 30
0.0
 70
   128
 71
   24
 72
   25
 73
   31
  0
VERTEX
  8
bark
 10
0.0
 20
0.0
 30
0.0
 70
   128
 71
   25
 72
   26
 73
   32
  0
VERTEX
  8
bark
 10
0.0
 20
0.0
 30
0.0
 70
   128
 71
   26
 72
   21
 73
   27
  0
VERTEX
  8
bark
 10
0.0
 20
0.0
 30
0.0
 70
   128
 71
   27
 72
   28
 73
   38
  0
VERTEX
  8
bark
 10
0.0
 20
0.0
 30
0.0
 70
   128
 71
   28
 72
   29
 73
   39
  0
VERTEX
  8
bark
 10
0.0
 20
0.0
 30
0.0
 70
   128
 71
   29
 72
   30
 73
   40
  0
VERTEX
  8
bark
 10
0.0
 20
0.0
 30
0.0
 70
   128
 71
   30
 72
   31
 73
   41
  0
VERTEX
  8
bark
 10
0.0
 20
0.0
 30
0.0
 70
   128
 71
   31
 72
   32
 73
   42
  0
VERTEX
  8
bark
 10
0.0
 20
0.0
 30
0.0
 70
   128
 71
   32
 72
   27
 73
   37
  0
VERTEX
  8
bark
 10
0.0
 20
0.0
 30
0.0
 70
   128
 71
   20
 72
   19
 73
   33
  0
VERTEX
  8
bark
 10
0.0
 20
0.0
 30
0.0
 70
   128
 71
   19
 72
   36
 73
   35
  0
VERTEX
  8
bark
 10
0.0
 20
0.0
 30
0.0
 70
   128
 71
   19
 72
   35
 73
   33
  0
VERTEX
  8
bark
 10
0.0
 20
0.0
 30
0.0
 70
   128
 71
   35
 72
   34
 73
   33
  0
VERTEX
  8
bark
 10
0.0
 20
0.0
 30
0.0
 70
   128
 71
   37
 72
   38
 73
   39
  0
VERTEX
  8
bark
 10
0.0
 20
0.0
 30
0.0
 70
   128
 71
   37
 72
   39
 73
   42
  0
VERTEX
  8
bark
 10
0.0
 20
0.0
 30
0.0
 70
   128
 71
   39
 72
   40
 73
   41
  0
VERTEX
  8
bark
 10
0.0
 20
0.0
 30
0.0
 70
   128
 71
   39
 72
   41
 73
   42
  0
VERTEX
  8
bark
 10
0.0
 20
0.0
 30
0.0
 70
   128
 71
   1
 72
   8
 73
   7
  0
VERTEX
  8
bark
 10
0.0
 20
0.0
 30
0.0
 70
   128
 71
   2
 72
   9
 73
   8
  0
VERTEX
  8
bark
 10
0.0
 20
0.0
 30
0.0
 70
   128
 71
   3
 72
   10
 73
   9
  0
VERTEX
  8
bark
 10
0.0
 20
0.0
 30
0.0
 70
   128
 71
   4
 72
   11
 73
   10
  0
VERTEX
  8
bark
 10
0.0
 20
0.0
 30
0.0
 70
   128
 71
   5
 72
   12
 73
   11
  0
VERTEX
  8
bark
 10
0.0
 20
0.0
 30
0.0
 70
   128
 71
   6
 72
   7
 73
   12
  0
VERTEX
  8
bark
 10
0.0
 20
0.0
 30
0.0
 70
   128
 71
   7
 72
   15
 73
   14
  0
VERTEX
  8
bark
 10
0.0
 20
0.0
 30
0.0
 70
   128
 71
   8
 72
   16
 73
   15
  0
VERTEX
  8
bark
 10
0.0
 20
0.0
 30
0.0
 70
   128
 71
   9
 72
   17
 73
   16
  0
VERTEX
  8
bark
 10
0.0
 20
0.0
 30
0.0
 70
   128
 71
   10
 72
   18
 73
   17
  0
VERTEX
  8
bark
 10
0.0
 20
0.0
 30
0.0
 70
   128
 71
   11
 72
   13
 73
   18
  0
VERTEX
  8
bark
 10
0.0
 20
0.0
 30
0.0
 70
   128
 71
   12
 72
   14
 73
   13
  0
VERTEX
  8
bark
 10
0.0
 20
0.0
 30
0.0
 70
   128
 71
   33
 72
   22
 73
   21
  0
VERTEX
  8
bark
 10
0.0
 20
0.0
 30
0.0
 70
   128
 71
   34
 72
   23
 73
   22
  0
VERTEX
  8
bark
 10
0.0
 20
0.0
 30
0.0
 70
   128
 71
   35
 72
   24
 73
   23
  0
VERTEX
  8
bark
 10
0.0
 20
0.0
 30
0.0
 70
   128
 71
   36
 72
   25
 73
   24
  0
VERTEX
  8
bark
 10
0.0
 20
0.0
 30
0.0
 70
   128
 71
   19
 72
   26
 73
   25
  0
VERTEX
  8
bark
 10
0.0
 20
0.0
 30
0.0
 70
   128
 71
   20
 72
   21
 73
   26
  0
VERTEX
  8
bark
 10
0.0
 20
0.0
 30
0.0
 70
   128
 71
   21
 72
   28
 73
   27
  0
VERTEX
  8
bark
 10
0.0
 20
0.0
 30
0.0
 70
   128
 71
   22
 72
   29
 73
   28
  0
VERTEX
  8
bark
 10
0.0
 20
0.0
 30
0.0
 70
   128
 71
   23
 72
   30
 73
   29
  0
VERTEX
  8
bark
 10
0.0
 20
0.0
 30
0.0
 70
   128
 71
   24
 72
   31
 73
   30
  0
VERTEX
  8
bark
 10
0.0
 20
0.0
 30
0.0
 70
   128
 71
   25
 72
   32
 73
   31
  0
VERTEX
  8
bark
 10
0.0
 20
0.0
 30
0.0
 70
   128
 71
   26
 72
   27
 73
   32
  0
VERTEX
  8
bark
 10
0.0
 20
0.0
 30
0.0
 70
   128
 71
   27
 72
   38
 73
   37
  0
VERTEX
  8
bark
 10
0.0
 20
0.0
 30
0.0
 70
   128
 71
   28
 72
   39
 73
   38
  0
VERTEX
  8
bark
 10
0.0
 20
0.0
 30
0.0
 70
   128
 71
   29
 72
   40
 73
   39
  0
VERTEX
  8
bark
 10
0.0
 20
0.0
 30
0.0
 70
   128
 71
   30
 72
   41
 73
   40
  0
VERTEX
  8
bark
 10
0.0
 20
0.0
 30
0.0
 70
   128
 71
   31
 72
   42
 73
   41
  0
VERTEX
  8
bark
 10
0.0
 20
0.0
 30
0.0
 70
   128
 71
   32
 72
   37
 73
   42
  0
SEQEND
  0
ENDSEC
  0
EOF
