999
FBX AutoCAD (*.DXF) exporter
  0
SECTION
  2
HEADER
  9
$ACADVER
  1
AC1008
  9
$UCSORG
 10
0.0
 20
0.0
 30
0.0
  9
$UCSXDIR
 10
1.0
 20
0.0
 30
0.0
  9
$TILEMODE
 70
   1
  9
$UCSYDIR
 10
0.0
 20
1.0
 30
0.0
  0
ENDSEC
  0
SECTION
  2
TABLES
  0
TABLE
  2
LTYPE
 70
   1
  0
LTYPE
  2
CONTINUOUS
 70
   64
  3
Solid line
 72
   65
 73
   0
 40
0.0
  0
ENDTAB
  0
TABLE
  2
LAYER
 70
   1
  0
LAYER
  2
fence19
 70
   0
 62
   250
  6
CONTINUOUS
  0
ENDTAB
  0
ENDSEC
  0
SECTION
  2
BLOCKS
  0
ENDSEC
  0
SECTION
  2
ENTITIES
  0
POLYLINE
  8
fence19
 66
   1
 10
0.0
 20
0.0
 30
0.0
 70
   64
 71
   74
 72
   132
  0
VERTEX
  8
fence19
 10
-83.334836
 20
7.697941
 30
11.468802
 70
   192
  0
VERTEX
  8
fence19
 10
86.399373
 20
7.697941
 30
11.468802
 70
   192
  0
VERTEX
  8
fence19
 10
-83.334836
 20
25.807046
 30
11.468802
 70
   192
  0
VERTEX
  8
fence19
 10
86.399373
 20
25.807046
 30
11.468802
 70
   192
  0
VERTEX
  8
fence19
 10
-83.334836
 20
25.807046
 30
6.489611
 70
   192
  0
VERTEX
  8
fence19
 10
86.399373
 20
25.807046
 30
6.489611
 70
   192
  0
VERTEX
  8
fence19
 10
-83.334836
 20
7.697941
 30
6.489611
 70
   192
  0
VERTEX
  8
fence19
 10
86.399373
 20
7.697941
 30
6.489611
 70
   192
  0
VERTEX
  8
fence19
 10
-66.126120
 20
7.697941
 30
11.468802
 70
   192
  0
VERTEX
  8
fence19
 10
-66.126120
 20
25.807046
 30
11.468802
 70
   192
  0
VERTEX
  8
fence19
 10
68.217479
 20
7.697941
 30
11.468802
 70
   192
  0
VERTEX
  8
fence19
 10
68.217479
 20
25.807046
 30
11.468802
 70
   192
  0
VERTEX
  8
fence19
 10
-67.549420
 20
-18.929796
 30
-2.580727
 70
   192
  0
VERTEX
  8
fence19
 10
-67.549420
 20
94.041617
 30
-2.580727
 70
   192
  0
VERTEX
  8
fence19
 10
-65.442208
 20
-18.929796
 30
-14.630499
 70
   192
  0
VERTEX
  8
fence19
 10
-65.442208
 20
94.041617
 30
-14.630499
 70
   192
  0
VERTEX
  8
fence19
 10
-71.749407
 20
-18.929796
 30
-14.069742
 70
   192
  0
VERTEX
  8
fence19
 10
-71.749407
 20
94.041617
 30
-14.069742
 70
   192
  0
VERTEX
  8
fence19
 10
-76.931223
 20
-18.929796
 30
-10.430512
 70
   192
  0
VERTEX
  8
fence19
 10
-76.931223
 20
94.041617
 30
-10.430512
 70
   192
  0
VERTEX
  8
fence19
 10
-79.599192
 20
-18.929796
 30
-4.687939
 70
   192
  0
VERTEX
  8
fence19
 10
-79.599192
 20
94.041617
 30
-4.687939
 70
   192
  0
VERTEX
  8
fence19
 10
-79.038435
 20
-18.929796
 30
1.619260
 70
   192
  0
VERTEX
  8
fence19
 10
-79.038435
 20
94.041617
 30
1.619260
 70
   192
  0
VERTEX
  8
fence19
 10
-75.399206
 20
-18.929796
 30
6.801076
 70
   192
  0
VERTEX
  8
fence19
 10
-75.399206
 20
94.041617
 30
6.801076
 70
   192
  0
VERTEX
  8
fence19
 10
-69.656632
 20
-18.929796
 30
9.469045
 70
   192
  0
VERTEX
  8
fence19
 10
-69.656632
 20
94.041617
 30
9.469045
 70
   192
  0
VERTEX
  8
fence19
 10
-63.349433
 20
-18.929796
 30
8.908288
 70
   192
  0
VERTEX
  8
fence19
 10
-63.349433
 20
94.041617
 30
8.908288
 70
   192
  0
VERTEX
  8
fence19
 10
-58.167617
 20
-18.929796
 30
5.269059
 70
   192
  0
VERTEX
  8
fence19
 10
-58.167617
 20
94.041617
 30
5.269059
 70
   192
  0
VERTEX
  8
fence19
 10
-55.499648
 20
-18.929796
 30
-0.473515
 70
   192
  0
VERTEX
  8
fence19
 10
-55.499648
 20
94.041617
 30
-0.473515
 70
   192
  0
VERTEX
  8
fence19
 10
-56.060405
 20
-18.929796
 30
-6.780714
 70
   192
  0
VERTEX
  8
fence19
 10
-56.060405
 20
94.041617
 30
-6.780714
 70
   192
  0
VERTEX
  8
fence19
 10
-59.699635
 20
-18.929796
 30
-11.962530
 70
   192
  0
VERTEX
  8
fence19
 10
-59.699635
 20
94.041617
 30
-11.962530
 70
   192
  0
VERTEX
  8
fence19
 10
-66.425842
 20
23.607834
 30
-13.971942
 70
   192
  0
VERTEX
  8
fence19
 10
-72.733041
 20
23.607834
 30
-13.411185
 70
   192
  0
VERTEX
  8
fence19
 10
-77.914857
 20
23.607834
 30
-9.771955
 70
   192
  0
VERTEX
  8
fence19
 10
-80.582826
 20
23.607834
 30
-4.029382
 70
   192
  0
VERTEX
  8
fence19
 10
-80.022069
 20
23.607834
 30
2.277817
 70
   192
  0
VERTEX
  8
fence19
 10
-76.382839
 20
23.607834
 30
7.459633
 70
   192
  0
VERTEX
  8
fence19
 10
-70.640266
 20
23.607834
 30
10.127603
 70
   192
  0
VERTEX
  8
fence19
 10
-64.333067
 20
23.607834
 30
9.566845
 70
   192
  0
VERTEX
  8
fence19
 10
-59.151251
 20
23.607834
 30
5.927616
 70
   192
  0
VERTEX
  8
fence19
 10
-56.483281
 20
23.607834
 30
0.185043
 70
   192
  0
VERTEX
  8
fence19
 10
-57.044039
 20
23.607834
 30
-6.122156
 70
   192
  0
VERTEX
  8
fence19
 10
-60.683268
 20
23.607834
 30
-11.303972
 70
   192
  0
VERTEX
  8
fence19
 10
-65.207314
 20
60.955343
 30
-15.973707
 70
   192
  0
VERTEX
  8
fence19
 10
-71.514513
 20
60.740913
 30
-15.412949
 70
   192
  0
VERTEX
  8
fence19
 10
-76.696329
 20
60.155078
 30
-11.773720
 70
   192
  0
VERTEX
  8
fence19
 10
-79.364298
 20
59.354812
 30
-6.031147
 70
   192
  0
VERTEX
  8
fence19
 10
-78.803541
 20
58.554546
 30
0.276052
 70
   192
  0
VERTEX
  8
fence19
 10
-75.164311
 20
57.968711
 30
5.457868
 70
   192
  0
VERTEX
  8
fence19
 10
-69.421738
 20
57.754280
 30
8.125838
 70
   192
  0
VERTEX
  8
fence19
 10
-63.114539
 20
57.968711
 30
7.565081
 70
   192
  0
VERTEX
  8
fence19
 10
-57.932723
 20
58.554546
 30
3.925851
 70
   192
  0
VERTEX
  8
fence19
 10
-55.264754
 20
59.354812
 30
-1.816722
 70
   192
  0
VERTEX
  8
fence19
 10
-55.825511
 20
60.155078
 30
-8.123921
 70
   192
  0
VERTEX
  8
fence19
 10
-59.464740
 20
60.740913
 30
-13.305737
 70
   192
  0
VERTEX
  8
fence19
 10
-83.334836
 20
62.454640
 30
11.468802
 70
   192
  0
VERTEX
  8
fence19
 10
86.399373
 20
62.454640
 30
11.468802
 70
   192
  0
VERTEX
  8
fence19
 10
-83.334836
 20
80.563745
 30
11.468802
 70
   192
  0
VERTEX
  8
fence19
 10
86.399373
 20
80.563745
 30
11.468802
 70
   192
  0
VERTEX
  8
fence19
 10
-83.334836
 20
80.563745
 30
6.489611
 70
   192
  0
VERTEX
  8
fence19
 10
86.399373
 20
80.563745
 30
6.489611
 70
   192
  0
VERTEX
  8
fence19
 10
-83.334836
 20
62.454640
 30
6.489611
 70
   192
  0
VERTEX
  8
fence19
 10
86.399373
 20
62.454640
 30
6.489611
 70
   192
  0
VERTEX
  8
fence19
 10
-66.126120
 20
62.454640
 30
11.468802
 70
   192
  0
VERTEX
  8
fence19
 10
-66.126120
 20
80.563745
 30
11.468802
 70
   192
  0
VERTEX
  8
fence19
 10
68.217479
 20
62.454640
 30
11.468802
 70
   192
  0
VERTEX
  8
fence19
 10
68.217479
 20
80.563745
 30
11.468802
 70
   192
  0
VERTEX
  8
fence19
 10
0.0
 20
0.0
 30
0.0
 70
   128
 71
   7
 72
   1
 73
   9
  0
VERTEX
  8
fence19
 10
0.0
 20
0.0
 30
0.0
 70
   128
 71
   3
 72
   5
 73
   10
  0
VERTEX
  8
fence19
 10
0.0
 20
0.0
 30
0.0
 70
   128
 71
   4
 72
   2
 73
   11
  0
VERTEX
  8
fence19
 10
0.0
 20
0.0
 30
0.0
 70
   128
 71
   6
 72
   8
 73
   2
  0
VERTEX
  8
fence19
 10
0.0
 20
0.0
 30
0.0
 70
   128
 71
   7
 72
   8
 73
   6
  0
VERTEX
  8
fence19
 10
0.0
 20
0.0
 30
0.0
 70
   128
 71
   5
 72
   3
 73
   1
  0
VERTEX
  8
fence19
 10
0.0
 20
0.0
 30
0.0
 70
   128
 71
   7
 72
   9
 73
   11
  0
VERTEX
  8
fence19
 10
0.0
 20
0.0
 30
0.0
 70
   128
 71
   5
 72
   6
 73
   12
  0
VERTEX
  8
fence19
 10
0.0
 20
0.0
 30
0.0
 70
   128
 71
   9
 72
   1
 73
   3
  0
VERTEX
  8
fence19
 10
0.0
 20
0.0
 30
0.0
 70
   128
 71
   11
 72
   2
 73
   8
  0
VERTEX
  8
fence19
 10
0.0
 20
0.0
 30
0.0
 70
   128
 71
   6
 72
   4
 73
   12
  0
VERTEX
  8
fence19
 10
0.0
 20
0.0
 30
0.0
 70
   128
 71
   11
 72
   9
 73
   10
  0
VERTEX
  8
fence19
 10
0.0
 20
0.0
 30
0.0
 70
   128
 71
   39
 72
   51
 73
   52
  0
VERTEX
  8
fence19
 10
0.0
 20
0.0
 30
0.0
 70
   128
 71
   15
 72
   39
 73
   40
  0
VERTEX
  8
fence19
 10
0.0
 20
0.0
 30
0.0
 70
   128
 71
   41
 72
   19
 73
   17
  0
VERTEX
  8
fence19
 10
0.0
 20
0.0
 30
0.0
 70
   128
 71
   41
 72
   53
 73
   54
  0
VERTEX
  8
fence19
 10
0.0
 20
0.0
 30
0.0
 70
   128
 71
   52
 72
   18
 73
   20
  0
VERTEX
  8
fence19
 10
0.0
 20
0.0
 30
0.0
 70
   128
 71
   43
 72
   23
 73
   21
  0
VERTEX
  8
fence19
 10
0.0
 20
0.0
 30
0.0
 70
   128
 71
   43
 72
   55
 73
   56
  0
VERTEX
  8
fence19
 10
0.0
 20
0.0
 30
0.0
 70
   128
 71
   19
 72
   41
 73
   42
  0
VERTEX
  8
fence19
 10
0.0
 20
0.0
 30
0.0
 70
   128
 71
   45
 72
   27
 73
   25
  0
VERTEX
  8
fence19
 10
0.0
 20
0.0
 30
0.0
 70
   128
 71
   45
 72
   57
 73
   58
  0
VERTEX
  8
fence19
 10
0.0
 20
0.0
 30
0.0
 70
   128
 71
   42
 72
   54
 73
   55
  0
VERTEX
  8
fence19
 10
0.0
 20
0.0
 30
0.0
 70
   128
 71
   47
 72
   31
 73
   29
  0
VERTEX
  8
fence19
 10
0.0
 20
0.0
 30
0.0
 70
   128
 71
   47
 72
   59
 73
   60
  0
VERTEX
  8
fence19
 10
0.0
 20
0.0
 30
0.0
 70
   128
 71
   23
 72
   43
 73
   44
  0
VERTEX
  8
fence19
 10
0.0
 20
0.0
 30
0.0
 70
   128
 71
   49
 72
   35
 73
   33
  0
VERTEX
  8
fence19
 10
0.0
 20
0.0
 30
0.0
 70
   128
 71
   49
 72
   61
 73
   62
  0
VERTEX
  8
fence19
 10
0.0
 20
0.0
 30
0.0
 70
   128
 71
   44
 72
   56
 73
   57
  0
VERTEX
  8
fence19
 10
0.0
 20
0.0
 30
0.0
 70
   128
 71
   39
 72
   15
 73
   37
  0
VERTEX
  8
fence19
 10
0.0
 20
0.0
 30
0.0
 70
   128
 71
   53
 72
   41
 73
   40
  0
VERTEX
  8
fence19
 10
0.0
 20
0.0
 30
0.0
 70
   128
 71
   27
 72
   45
 73
   46
  0
VERTEX
  8
fence19
 10
0.0
 20
0.0
 30
0.0
 70
   128
 71
   54
 72
   22
 73
   24
  0
VERTEX
  8
fence19
 10
0.0
 20
0.0
 30
0.0
 70
   128
 71
   56
 72
   26
 73
   28
  0
VERTEX
  8
fence19
 10
0.0
 20
0.0
 30
0.0
 70
   128
 71
   46
 72
   58
 73
   59
  0
VERTEX
  8
fence19
 10
0.0
 20
0.0
 30
0.0
 70
   128
 71
   58
 72
   30
 73
   32
  0
VERTEX
  8
fence19
 10
0.0
 20
0.0
 30
0.0
 70
   128
 71
   60
 72
   34
 73
   36
  0
VERTEX
  8
fence19
 10
0.0
 20
0.0
 30
0.0
 70
   128
 71
   31
 72
   47
 73
   48
  0
VERTEX
  8
fence19
 10
0.0
 20
0.0
 30
0.0
 70
   128
 71
   62
 72
   38
 73
   16
  0
VERTEX
  8
fence19
 10
0.0
 20
0.0
 30
0.0
 70
   128
 71
   51
 72
   16
 73
   18
  0
VERTEX
  8
fence19
 10
0.0
 20
0.0
 30
0.0
 70
   128
 71
   48
 72
   60
 73
   61
  0
VERTEX
  8
fence19
 10
0.0
 20
0.0
 30
0.0
 70
   128
 71
   53
 72
   20
 73
   22
  0
VERTEX
  8
fence19
 10
0.0
 20
0.0
 30
0.0
 70
   128
 71
   55
 72
   24
 73
   26
  0
VERTEX
  8
fence19
 10
0.0
 20
0.0
 30
0.0
 70
   128
 71
   35
 72
   49
 73
   50
  0
VERTEX
  8
fence19
 10
0.0
 20
0.0
 30
0.0
 70
   128
 71
   57
 72
   28
 73
   30
  0
VERTEX
  8
fence19
 10
0.0
 20
0.0
 30
0.0
 70
   128
 71
   59
 72
   32
 73
   34
  0
VERTEX
  8
fence19
 10
0.0
 20
0.0
 30
0.0
 70
   128
 71
   50
 72
   62
 73
   51
  0
VERTEX
  8
fence19
 10
0.0
 20
0.0
 30
0.0
 70
   128
 71
   61
 72
   36
 73
   38
  0
VERTEX
  8
fence19
 10
0.0
 20
0.0
 30
0.0
 70
   128
 71
   19
 72
   37
 73
   15
  0
VERTEX
  8
fence19
 10
0.0
 20
0.0
 30
0.0
 70
   128
 71
   31
 72
   37
 73
   19
  0
VERTEX
  8
fence19
 10
0.0
 20
0.0
 30
0.0
 70
   128
 71
   37
 72
   31
 73
   33
  0
VERTEX
  8
fence19
 10
0.0
 20
0.0
 30
0.0
 70
   128
 71
   21
 72
   23
 73
   25
  0
VERTEX
  8
fence19
 10
0.0
 20
0.0
 30
0.0
 70
   128
 71
   21
 72
   25
 73
   27
  0
VERTEX
  8
fence19
 10
0.0
 20
0.0
 30
0.0
 70
   128
 71
   27
 72
   29
 73
   31
  0
VERTEX
  8
fence19
 10
0.0
 20
0.0
 30
0.0
 70
   128
 71
   36
 72
   32
 73
   30
  0
VERTEX
  8
fence19
 10
0.0
 20
0.0
 30
0.0
 70
   128
 71
   36
 72
   34
 73
   32
  0
VERTEX
  8
fence19
 10
0.0
 20
0.0
 30
0.0
 70
   128
 71
   24
 72
   30
 73
   28
  0
VERTEX
  8
fence19
 10
0.0
 20
0.0
 30
0.0
 70
   128
 71
   38
 72
   30
 73
   24
  0
VERTEX
  8
fence19
 10
0.0
 20
0.0
 30
0.0
 70
   128
 71
   24
 72
   22
 73
   20
  0
VERTEX
  8
fence19
 10
0.0
 20
0.0
 30
0.0
 70
   128
 71
   18
 72
   16
 73
   38
  0
VERTEX
  8
fence19
 10
0.0
 20
0.0
 30
0.0
 70
   128
 71
   69
 72
   63
 73
   71
  0
VERTEX
  8
fence19
 10
0.0
 20
0.0
 30
0.0
 70
   128
 71
   65
 72
   67
 73
   72
  0
VERTEX
  8
fence19
 10
0.0
 20
0.0
 30
0.0
 70
   128
 71
   66
 72
   64
 73
   73
  0
VERTEX
  8
fence19
 10
0.0
 20
0.0
 30
0.0
 70
   128
 71
   68
 72
   70
 73
   64
  0
VERTEX
  8
fence19
 10
0.0
 20
0.0
 30
0.0
 70
   128
 71
   69
 72
   70
 73
   68
  0
VERTEX
  8
fence19
 10
0.0
 20
0.0
 30
0.0
 70
   128
 71
   67
 72
   65
 73
   63
  0
VERTEX
  8
fence19
 10
0.0
 20
0.0
 30
0.0
 70
   128
 71
   69
 72
   71
 73
   73
  0
VERTEX
  8
fence19
 10
0.0
 20
0.0
 30
0.0
 70
   128
 71
   67
 72
   68
 73
   74
  0
VERTEX
  8
fence19
 10
0.0
 20
0.0
 30
0.0
 70
   128
 71
   71
 72
   63
 73
   65
  0
VERTEX
  8
fence19
 10
0.0
 20
0.0
 30
0.0
 70
   128
 71
   73
 72
   64
 73
   70
  0
VERTEX
  8
fence19
 10
0.0
 20
0.0
 30
0.0
 70
   128
 71
   68
 72
   66
 73
   74
  0
VERTEX
  8
fence19
 10
0.0
 20
0.0
 30
0.0
 70
   128
 71
   73
 72
   71
 73
   72
  0
VERTEX
  8
fence19
 10
0.0
 20
0.0
 30
0.0
 70
   128
 71
   4
 72
   11
 73
   12
  0
VERTEX
  8
fence19
 10
0.0
 20
0.0
 30
0.0
 70
   128
 71
   6
 72
   2
 73
   4
  0
VERTEX
  8
fence19
 10
0.0
 20
0.0
 30
0.0
 70
   128
 71
   7
 72
   6
 73
   5
  0
VERTEX
  8
fence19
 10
0.0
 20
0.0
 30
0.0
 70
   128
 71
   5
 72
   1
 73
   7
  0
VERTEX
  8
fence19
 10
0.0
 20
0.0
 30
0.0
 70
   128
 71
   7
 72
   11
 73
   8
  0
VERTEX
  8
fence19
 10
0.0
 20
0.0
 30
0.0
 70
   128
 71
   5
 72
   12
 73
   10
  0
VERTEX
  8
fence19
 10
0.0
 20
0.0
 30
0.0
 70
   128
 71
   9
 72
   3
 73
   10
  0
VERTEX
  8
fence19
 10
0.0
 20
0.0
 30
0.0
 70
   128
 71
   11
 72
   10
 73
   12
  0
VERTEX
  8
fence19
 10
0.0
 20
0.0
 30
0.0
 70
   128
 71
   39
 72
   52
 73
   40
  0
VERTEX
  8
fence19
 10
0.0
 20
0.0
 30
0.0
 70
   128
 71
   15
 72
   40
 73
   17
  0
VERTEX
  8
fence19
 10
0.0
 20
0.0
 30
0.0
 70
   128
 71
   41
 72
   17
 73
   40
  0
VERTEX
  8
fence19
 10
0.0
 20
0.0
 30
0.0
 70
   128
 71
   41
 72
   54
 73
   42
  0
VERTEX
  8
fence19
 10
0.0
 20
0.0
 30
0.0
 70
   128
 71
   52
 72
   20
 73
   53
  0
VERTEX
  8
fence19
 10
0.0
 20
0.0
 30
0.0
 70
   128
 71
   43
 72
   21
 73
   42
  0
VERTEX
  8
fence19
 10
0.0
 20
0.0
 30
0.0
 70
   128
 71
   43
 72
   56
 73
   44
  0
VERTEX
  8
fence19
 10
0.0
 20
0.0
 30
0.0
 70
   128
 71
   19
 72
   42
 73
   21
  0
VERTEX
  8
fence19
 10
0.0
 20
0.0
 30
0.0
 70
   128
 71
   45
 72
   25
 73
   44
  0
VERTEX
  8
fence19
 10
0.0
 20
0.0
 30
0.0
 70
   128
 71
   45
 72
   58
 73
   46
  0
VERTEX
  8
fence19
 10
0.0
 20
0.0
 30
0.0
 70
   128
 71
   42
 72
   55
 73
   43
  0
VERTEX
  8
fence19
 10
0.0
 20
0.0
 30
0.0
 70
   128
 71
   47
 72
   29
 73
   46
  0
VERTEX
  8
fence19
 10
0.0
 20
0.0
 30
0.0
 70
   128
 71
   47
 72
   60
 73
   48
  0
VERTEX
  8
fence19
 10
0.0
 20
0.0
 30
0.0
 70
   128
 71
   23
 72
   44
 73
   25
  0
VERTEX
  8
fence19
 10
0.0
 20
0.0
 30
0.0
 70
   128
 71
   49
 72
   33
 73
   48
  0
VERTEX
  8
fence19
 10
0.0
 20
0.0
 30
0.0
 70
   128
 71
   49
 72
   62
 73
   50
  0
VERTEX
  8
fence19
 10
0.0
 20
0.0
 30
0.0
 70
   128
 71
   44
 72
   57
 73
   45
  0
VERTEX
  8
fence19
 10
0.0
 20
0.0
 30
0.0
 70
   128
 71
   39
 72
   37
 73
   50
  0
VERTEX
  8
fence19
 10
0.0
 20
0.0
 30
0.0
 70
   128
 71
   53
 72
   40
 73
   52
  0
VERTEX
  8
fence19
 10
0.0
 20
0.0
 30
0.0
 70
   128
 71
   27
 72
   46
 73
   29
  0
VERTEX
  8
fence19
 10
0.0
 20
0.0
 30
0.0
 70
   128
 71
   54
 72
   24
 73
   55
  0
VERTEX
  8
fence19
 10
0.0
 20
0.0
 30
0.0
 70
   128
 71
   56
 72
   28
 73
   57
  0
VERTEX
  8
fence19
 10
0.0
 20
0.0
 30
0.0
 70
   128
 71
   46
 72
   59
 73
   47
  0
VERTEX
  8
fence19
 10
0.0
 20
0.0
 30
0.0
 70
   128
 71
   58
 72
   32
 73
   59
  0
VERTEX
  8
fence19
 10
0.0
 20
0.0
 30
0.0
 70
   128
 71
   60
 72
   36
 73
   61
  0
VERTEX
  8
fence19
 10
0.0
 20
0.0
 30
0.0
 70
   128
 71
   31
 72
   48
 73
   33
  0
VERTEX
  8
fence19
 10
0.0
 20
0.0
 30
0.0
 70
   128
 71
   62
 72
   16
 73
   51
  0
VERTEX
  8
fence19
 10
0.0
 20
0.0
 30
0.0
 70
   128
 71
   51
 72
   18
 73
   52
  0
VERTEX
  8
fence19
 10
0.0
 20
0.0
 30
0.0
 70
   128
 71
   48
 72
   61
 73
   49
  0
VERTEX
  8
fence19
 10
0.0
 20
0.0
 30
0.0
 70
   128
 71
   53
 72
   22
 73
   54
  0
VERTEX
  8
fence19
 10
0.0
 20
0.0
 30
0.0
 70
   128
 71
   55
 72
   26
 73
   56
  0
VERTEX
  8
fence19
 10
0.0
 20
0.0
 30
0.0
 70
   128
 71
   35
 72
   50
 73
   37
  0
VERTEX
  8
fence19
 10
0.0
 20
0.0
 30
0.0
 70
   128
 71
   57
 72
   30
 73
   58
  0
VERTEX
  8
fence19
 10
0.0
 20
0.0
 30
0.0
 70
   128
 71
   59
 72
   34
 73
   60
  0
VERTEX
  8
fence19
 10
0.0
 20
0.0
 30
0.0
 70
   128
 71
   50
 72
   51
 73
   39
  0
VERTEX
  8
fence19
 10
0.0
 20
0.0
 30
0.0
 70
   128
 71
   61
 72
   38
 73
   62
  0
VERTEX
  8
fence19
 10
0.0
 20
0.0
 30
0.0
 70
   128
 71
   19
 72
   15
 73
   17
  0
VERTEX
  8
fence19
 10
0.0
 20
0.0
 30
0.0
 70
   128
 71
   31
 72
   19
 73
   21
  0
VERTEX
  8
fence19
 10
0.0
 20
0.0
 30
0.0
 70
   128
 71
   37
 72
   33
 73
   35
  0
VERTEX
  8
fence19
 10
0.0
 20
0.0
 30
0.0
 70
   128
 71
   21
 72
   27
 73
   31
  0
VERTEX
  8
fence19
 10
0.0
 20
0.0
 30
0.0
 70
   128
 71
   36
 72
   30
 73
   38
  0
VERTEX
  8
fence19
 10
0.0
 20
0.0
 30
0.0
 70
   128
 71
   24
 72
   28
 73
   26
  0
VERTEX
  8
fence19
 10
0.0
 20
0.0
 30
0.0
 70
   128
 71
   38
 72
   24
 73
   18
  0
VERTEX
  8
fence19
 10
0.0
 20
0.0
 30
0.0
 70
   128
 71
   24
 72
   20
 73
   18
  0
VERTEX
  8
fence19
 10
0.0
 20
0.0
 30
0.0
 70
   128
 71
   66
 72
   73
 73
   74
  0
VERTEX
  8
fence19
 10
0.0
 20
0.0
 30
0.0
 70
   128
 71
   68
 72
   64
 73
   66
  0
VERTEX
  8
fence19
 10
0.0
 20
0.0
 30
0.0
 70
   128
 71
   69
 72
   68
 73
   67
  0
VERTEX
  8
fence19
 10
0.0
 20
0.0
 30
0.0
 70
   128
 71
   67
 72
   63
 73
   69
  0
VERTEX
  8
fence19
 10
0.0
 20
0.0
 30
0.0
 70
   128
 71
   69
 72
   73
 73
   70
  0
VERTEX
  8
fence19
 10
0.0
 20
0.0
 30
0.0
 70
   128
 71
   67
 72
   74
 73
   72
  0
VERTEX
  8
fence19
 10
0.0
 20
0.0
 30
0.0
 70
   128
 71
   71
 72
   65
 73
   72
  0
VERTEX
  8
fence19
 10
0.0
 20
0.0
 30
0.0
 70
   128
 71
   73
 72
   72
 73
   74
  0
SEQEND
  0
ENDSEC
  0
EOF
