999
FBX AutoCAD (*.DXF) exporter
  0
SECTION
  2
HEADER
  9
$ACADVER
  1
AC1008
  9
$UCSORG
 10
0.0
 20
0.0
 30
0.0
  9
$UCSXDIR
 10
1.0
 20
0.0
 30
0.0
  9
$TILEMODE
 70
   1
  9
$UCSYDIR
 10
0.0
 20
1.0
 30
0.0
  0
ENDSEC
  0
SECTION
  2
TABLES
  0
TABLE
  2
LTYPE
 70
   1
  0
LTYPE
  2
CONTINUOUS
 70
   64
  3
Solid line
 72
   65
 73
   0
 40
0.0
  0
ENDTAB
  0
TABLE
  2
LAYER
 70
   7
  0
LAYER
  2
leaf
 70
   0
 62
   250
  6
CONTINUOUS
  0
LAYER
  2
leaf_2
 70
   0
 62
   250
  6
CONTINUOUS
  0
LAYER
  2
leaf_3
 70
   0
 62
   250
  6
CONTINUOUS
  0
LAYER
  2
leaf_4
 70
   0
 62
   250
  6
CONTINUOUS
  0
LAYER
  2
leaf_5
 70
   0
 62
   250
  6
CONTINUOUS
  0
LAYER
  2
bark
 70
   0
 62
   250
  6
CONTINUOUS
  0
ENDTAB
  0
ENDSEC
  0
SECTION
  2
BLOCKS
  0
ENDSEC
  0
SECTION
  2
ENTITIES
  0
POLYLINE
  8
leaf
 66
   1
 10
0.0
 20
0.0
 30
0.0
 70
   64
 71
   13
 72
   22
  0
VERTEX
  8
leaf
 10
-38.121189
 20
794.298796
 30
84.618062
 70
   192
  0
VERTEX
  8
leaf
 10
-74.845389
 20
788.016038
 30
48.324279
 70
   192
  0
VERTEX
  8
leaf
 10
-88.287382
 20
781.425594
 30
-1.487944
 70
   192
  0
VERTEX
  8
leaf
 10
-74.845398
 20
776.293370
 30
-51.471460
 70
   192
  0
VERTEX
  8
leaf
 10
-38.121204
 20
773.994541
 30
-88.233228
 70
   192
  0
VERTEX
  8
leaf
 10
62.211167
 20
779.436689
 30
-88.872508
 70
   192
  0
VERTEX
  8
leaf
 10
98.935367
 20
785.719448
 30
-52.578725
 70
   192
  0
VERTEX
  8
leaf
 10
112.377360
 20
792.309892
 30
-2.766503
 70
   192
  0
VERTEX
  8
leaf
 10
98.935376
 20
797.442116
 30
47.217014
 70
   192
  0
VERTEX
  8
leaf
 10
62.211182
 20
799.740945
 30
83.978782
 70
   192
  0
VERTEX
  8
leaf
 10
0.049460
 20
1070.651730
 30
-34.897936
 70
   192
  0
VERTEX
  8
leaf
 10
12.044998
 20
798.590410
 30
97.668515
 70
   192
  0
VERTEX
  8
leaf
 10
12.044980
 20
775.145075
 30
-101.922962
 70
   192
  0
VERTEX
  8
leaf
 10
0.0
 20
0.0
 30
0.0
 70
   128
 71
   12
 72
   1
 73
   11
  0
VERTEX
  8
leaf
 10
0.0
 20
0.0
 30
0.0
 70
   128
 71
   1
 72
   2
 73
   11
  0
VERTEX
  8
leaf
 10
0.0
 20
0.0
 30
0.0
 70
   128
 71
   2
 72
   3
 73
   11
  0
VERTEX
  8
leaf
 10
0.0
 20
0.0
 30
0.0
 70
   128
 71
   3
 72
   4
 73
   11
  0
VERTEX
  8
leaf
 10
0.0
 20
0.0
 30
0.0
 70
   128
 71
   4
 72
   5
 73
   11
  0
VERTEX
  8
leaf
 10
0.0
 20
0.0
 30
0.0
 70
   128
 71
   5
 72
   13
 73
   11
  0
VERTEX
  8
leaf
 10
0.0
 20
0.0
 30
0.0
 70
   128
 71
   13
 72
   6
 73
   11
  0
VERTEX
  8
leaf
 10
0.0
 20
0.0
 30
0.0
 70
   128
 71
   6
 72
   7
 73
   11
  0
VERTEX
  8
leaf
 10
0.0
 20
0.0
 30
0.0
 70
   128
 71
   7
 72
   8
 73
   11
  0
VERTEX
  8
leaf
 10
0.0
 20
0.0
 30
0.0
 70
   128
 71
   8
 72
   9
 73
   11
  0
VERTEX
  8
leaf
 10
0.0
 20
0.0
 30
0.0
 70
   128
 71
   9
 72
   10
 73
   11
  0
VERTEX
  8
leaf
 10
0.0
 20
0.0
 30
0.0
 70
   128
 71
   10
 72
   12
 73
   11
  0
VERTEX
  8
leaf
 10
0.0
 20
0.0
 30
0.0
 70
   128
 71
   10
 72
   9
 73
   7
  0
VERTEX
  8
leaf
 10
0.0
 20
0.0
 30
0.0
 70
   128
 71
   10
 72
   7
 73
   2
  0
VERTEX
  8
leaf
 10
0.0
 20
0.0
 30
0.0
 70
   128
 71
   10
 72
   2
 73
   1
  0
VERTEX
  8
leaf
 10
0.0
 20
0.0
 30
0.0
 70
   128
 71
   10
 72
   1
 73
   12
  0
VERTEX
  8
leaf
 10
0.0
 20
0.0
 30
0.0
 70
   128
 71
   9
 72
   8
 73
   7
  0
VERTEX
  8
leaf
 10
0.0
 20
0.0
 30
0.0
 70
   128
 71
   7
 72
   6
 73
   5
  0
VERTEX
  8
leaf
 10
0.0
 20
0.0
 30
0.0
 70
   128
 71
   7
 72
   5
 73
   4
  0
VERTEX
  8
leaf
 10
0.0
 20
0.0
 30
0.0
 70
   128
 71
   7
 72
   4
 73
   2
  0
VERTEX
  8
leaf
 10
0.0
 20
0.0
 30
0.0
 70
   128
 71
   6
 72
   13
 73
   5
  0
VERTEX
  8
leaf
 10
0.0
 20
0.0
 30
0.0
 70
   128
 71
   4
 72
   3
 73
   2
  0
SEQEND
  0
POLYLINE
  8
leaf_2
 66
   1
 10
0.0
 20
0.0
 30
0.0
 70
   64
 71
   13
 72
   22
  0
VERTEX
  8
leaf_2
 10
-54.917504
 20
629.526194
 30
123.227209
 70
   192
  0
VERTEX
  8
leaf_2
 10
-105.903107
 20
624.037434
 30
72.476755
 70
   192
  0
VERTEX
  8
leaf_2
 10
-124.565129
 20
618.295949
 30
3.021510
 70
   192
  0
VERTEX
  8
leaf_2
 10
-105.903095
 20
613.840164
 30
-66.528050
 70
   192
  0
VERTEX
  8
leaf_2
 10
14.730155
 20
612.896979
 30
-136.335282
 70
   192
  0
VERTEX
  8
leaf_2
 10
84.377789
 20
616.662304
 30
-117.888162
 70
   192
  0
VERTEX
  8
leaf_2
 10
135.363392
 20
622.151064
 30
-67.137709
 70
   192
  0
VERTEX
  8
leaf_2
 10
135.363380
 20
632.348335
 30
71.867096
 70
   192
  0
VERTEX
  8
leaf_2
 10
84.377767
 20
634.324495
 30
122.875222
 70
   192
  0
VERTEX
  8
leaf_2
 10
0.060485
 20
1046.676781
 30
-28.404121
 70
   192
  0
VERTEX
  8
leaf_2
 10
14.730130
 20
633.291520
 30
141.674328
 70
   192
  0
VERTEX
  8
leaf_2
 10
-54.917482
 20
611.864004
 30
-117.536176
 70
   192
  0
VERTEX
  8
leaf_2
 10
154.025413
 20
627.892550
 30
2.317536
 70
   192
  0
VERTEX
  8
leaf_2
 10
0.0
 20
0.0
 30
0.0
 70
   128
 71
   11
 72
   1
 73
   10
  0
VERTEX
  8
leaf_2
 10
0.0
 20
0.0
 30
0.0
 70
   128
 71
   1
 72
   2
 73
   10
  0
VERTEX
  8
leaf_2
 10
0.0
 20
0.0
 30
0.0
 70
   128
 71
   2
 72
   3
 73
   10
  0
VERTEX
  8
leaf_2
 10
0.0
 20
0.0
 30
0.0
 70
   128
 71
   3
 72
   4
 73
   10
  0
VERTEX
  8
leaf_2
 10
0.0
 20
0.0
 30
0.0
 70
   128
 71
   4
 72
   12
 73
   10
  0
VERTEX
  8
leaf_2
 10
0.0
 20
0.0
 30
0.0
 70
   128
 71
   12
 72
   5
 73
   10
  0
VERTEX
  8
leaf_2
 10
0.0
 20
0.0
 30
0.0
 70
   128
 71
   5
 72
   6
 73
   10
  0
VERTEX
  8
leaf_2
 10
0.0
 20
0.0
 30
0.0
 70
   128
 71
   6
 72
   7
 73
   10
  0
VERTEX
  8
leaf_2
 10
0.0
 20
0.0
 30
0.0
 70
   128
 71
   7
 72
   13
 73
   10
  0
VERTEX
  8
leaf_2
 10
0.0
 20
0.0
 30
0.0
 70
   128
 71
   13
 72
   8
 73
   10
  0
VERTEX
  8
leaf_2
 10
0.0
 20
0.0
 30
0.0
 70
   128
 71
   8
 72
   9
 73
   10
  0
VERTEX
  8
leaf_2
 10
0.0
 20
0.0
 30
0.0
 70
   128
 71
   9
 72
   11
 73
   10
  0
VERTEX
  8
leaf_2
 10
0.0
 20
0.0
 30
0.0
 70
   128
 71
   9
 72
   8
 73
   6
  0
VERTEX
  8
leaf_2
 10
0.0
 20
0.0
 30
0.0
 70
   128
 71
   9
 72
   6
 73
   4
  0
VERTEX
  8
leaf_2
 10
0.0
 20
0.0
 30
0.0
 70
   128
 71
   9
 72
   4
 73
   1
  0
VERTEX
  8
leaf_2
 10
0.0
 20
0.0
 30
0.0
 70
   128
 71
   9
 72
   1
 73
   11
  0
VERTEX
  8
leaf_2
 10
0.0
 20
0.0
 30
0.0
 70
   128
 71
   8
 72
   13
 73
   7
  0
VERTEX
  8
leaf_2
 10
0.0
 20
0.0
 30
0.0
 70
   128
 71
   8
 72
   7
 73
   6
  0
VERTEX
  8
leaf_2
 10
0.0
 20
0.0
 30
0.0
 70
   128
 71
   6
 72
   5
 73
   4
  0
VERTEX
  8
leaf_2
 10
0.0
 20
0.0
 30
0.0
 70
   128
 71
   5
 72
   12
 73
   4
  0
VERTEX
  8
leaf_2
 10
0.0
 20
0.0
 30
0.0
 70
   128
 71
   4
 72
   3
 73
   2
  0
VERTEX
  8
leaf_2
 10
0.0
 20
0.0
 30
0.0
 70
   128
 71
   4
 72
   2
 73
   1
  0
SEQEND
  0
POLYLINE
  8
leaf_3
 66
   1
 10
0.0
 20
0.0
 30
0.0
 70
   64
 71
   13
 72
   22
  0
VERTEX
  8
leaf_3
 10
21.270681
 20
454.224167
 30
176.274450
 70
   192
  0
VERTEX
  8
leaf_3
 10
-67.017379
 20
450.247295
 30
152.628803
 70
   192
  0
VERTEX
  8
leaf_3
 10
-131.648725
 20
446.936511
 30
87.963963
 70
   192
  0
VERTEX
  8
leaf_3
 10
-155.305439
 20
445.178937
 30
-0.393179
 70
   192
  0
VERTEX
  8
leaf_3
 10
-131.648725
 20
445.445514
 30
-88.767397
 70
   192
  0
VERTEX
  8
leaf_3
 10
21.270681
 20
451.242174
 30
-177.188271
 70
   192
  0
VERTEX
  8
leaf_3
 10
109.558741
 20
455.219046
 30
-153.542624
 70
   192
  0
VERTEX
  8
leaf_3
 10
174.190087
 20
458.529830
 30
-88.877783
 70
   192
  0
VERTEX
  8
leaf_3
 10
197.846802
 20
460.287404
 30
-0.520642
 70
   192
  0
VERTEX
  8
leaf_3
 10
174.190087
 20
460.020827
 30
87.853577
 70
   192
  0
VERTEX
  8
leaf_3
 10
109.558741
 20
457.801528
 30
152.565072
 70
   192
  0
VERTEX
  8
leaf_3
 10
0.087342
 20
947.847029
 30
-4.633946
 70
   192
  0
VERTEX
  8
leaf_3
 10
-67.017379
 20
447.664813
 30
-153.478892
 70
   192
  0
VERTEX
  8
leaf_3
 10
0.0
 20
0.0
 30
0.0
 70
   128
 71
   1
 72
   2
 73
   12
  0
VERTEX
  8
leaf_3
 10
0.0
 20
0.0
 30
0.0
 70
   128
 71
   2
 72
   3
 73
   12
  0
VERTEX
  8
leaf_3
 10
0.0
 20
0.0
 30
0.0
 70
   128
 71
   3
 72
   4
 73
   12
  0
VERTEX
  8
leaf_3
 10
0.0
 20
0.0
 30
0.0
 70
   128
 71
   4
 72
   5
 73
   12
  0
VERTEX
  8
leaf_3
 10
0.0
 20
0.0
 30
0.0
 70
   128
 71
   5
 72
   13
 73
   12
  0
VERTEX
  8
leaf_3
 10
0.0
 20
0.0
 30
0.0
 70
   128
 71
   13
 72
   6
 73
   12
  0
VERTEX
  8
leaf_3
 10
0.0
 20
0.0
 30
0.0
 70
   128
 71
   6
 72
   7
 73
   12
  0
VERTEX
  8
leaf_3
 10
0.0
 20
0.0
 30
0.0
 70
   128
 71
   7
 72
   8
 73
   12
  0
VERTEX
  8
leaf_3
 10
0.0
 20
0.0
 30
0.0
 70
   128
 71
   8
 72
   9
 73
   12
  0
VERTEX
  8
leaf_3
 10
0.0
 20
0.0
 30
0.0
 70
   128
 71
   9
 72
   10
 73
   12
  0
VERTEX
  8
leaf_3
 10
0.0
 20
0.0
 30
0.0
 70
   128
 71
   10
 72
   11
 73
   12
  0
VERTEX
  8
leaf_3
 10
0.0
 20
0.0
 30
0.0
 70
   128
 71
   11
 72
   1
 73
   12
  0
VERTEX
  8
leaf_3
 10
0.0
 20
0.0
 30
0.0
 70
   128
 71
   11
 72
   10
 73
   9
  0
VERTEX
  8
leaf_3
 10
0.0
 20
0.0
 30
0.0
 70
   128
 71
   11
 72
   9
 73
   8
  0
VERTEX
  8
leaf_3
 10
0.0
 20
0.0
 30
0.0
 70
   128
 71
   11
 72
   8
 73
   6
  0
VERTEX
  8
leaf_3
 10
0.0
 20
0.0
 30
0.0
 70
   128
 71
   11
 72
   6
 73
   2
  0
VERTEX
  8
leaf_3
 10
0.0
 20
0.0
 30
0.0
 70
   128
 71
   11
 72
   2
 73
   1
  0
VERTEX
  8
leaf_3
 10
0.0
 20
0.0
 30
0.0
 70
   128
 71
   8
 72
   7
 73
   6
  0
VERTEX
  8
leaf_3
 10
0.0
 20
0.0
 30
0.0
 70
   128
 71
   6
 72
   13
 73
   2
  0
VERTEX
  8
leaf_3
 10
0.0
 20
0.0
 30
0.0
 70
   128
 71
   13
 72
   5
 73
   4
  0
VERTEX
  8
leaf_3
 10
0.0
 20
0.0
 30
0.0
 70
   128
 71
   13
 72
   4
 73
   2
  0
VERTEX
  8
leaf_3
 10
0.0
 20
0.0
 30
0.0
 70
   128
 71
   4
 72
   3
 73
   2
  0
SEQEND
  0
POLYLINE
  8
leaf_4
 66
   1
 10
0.0
 20
0.0
 30
0.0
 70
   64
 71
   13
 72
   22
  0
VERTEX
  8
leaf_4
 10
-79.316086
 20
309.778102
 30
181.157201
 70
   192
  0
VERTEX
  8
leaf_4
 10
-155.809183
 20
306.436790
 30
104.591148
 70
   192
  0
VERTEX
  8
leaf_4
 10
-183.807593
 20
305.213785
 30
-0.000018
 70
   192
  0
VERTEX
  8
leaf_4
 10
-155.809165
 20
306.436790
 30
-104.591180
 70
   192
  0
VERTEX
  8
leaf_4
 10
25.175473
 20
314.342421
 30
-209.182328
 70
   192
  0
VERTEX
  8
leaf_4
 10
129.666994
 20
318.906739
 30
-181.157201
 70
   192
  0
VERTEX
  8
leaf_4
 10
206.160092
 20
322.248051
 30
-104.591148
 70
   192
  0
VERTEX
  8
leaf_4
 10
206.160073
 20
322.248051
 30
104.591180
 70
   192
  0
VERTEX
  8
leaf_4
 10
129.666962
 20
318.906738
 30
181.157219
 70
   192
  0
VERTEX
  8
leaf_4
 10
0.103376
 20
888.320775
 30
0.000000
 70
   192
  0
VERTEX
  8
leaf_4
 10
25.175436
 20
314.342420
 30
209.182328
 70
   192
  0
VERTEX
  8
leaf_4
 10
-79.316054
 20
309.778103
 30
-181.157219
 70
   192
  0
VERTEX
  8
leaf_4
 10
234.158502
 20
323.471056
 30
0.000018
 70
   192
  0
VERTEX
  8
leaf_4
 10
0.0
 20
0.0
 30
0.0
 70
   128
 71
   11
 72
   1
 73
   10
  0
VERTEX
  8
leaf_4
 10
0.0
 20
0.0
 30
0.0
 70
   128
 71
   1
 72
   2
 73
   10
  0
VERTEX
  8
leaf_4
 10
0.0
 20
0.0
 30
0.0
 70
   128
 71
   2
 72
   3
 73
   10
  0
VERTEX
  8
leaf_4
 10
0.0
 20
0.0
 30
0.0
 70
   128
 71
   3
 72
   4
 73
   10
  0
VERTEX
  8
leaf_4
 10
0.0
 20
0.0
 30
0.0
 70
   128
 71
   4
 72
   12
 73
   10
  0
VERTEX
  8
leaf_4
 10
0.0
 20
0.0
 30
0.0
 70
   128
 71
   12
 72
   5
 73
   10
  0
VERTEX
  8
leaf_4
 10
0.0
 20
0.0
 30
0.0
 70
   128
 71
   5
 72
   6
 73
   10
  0
VERTEX
  8
leaf_4
 10
0.0
 20
0.0
 30
0.0
 70
   128
 71
   6
 72
   7
 73
   10
  0
VERTEX
  8
leaf_4
 10
0.0
 20
0.0
 30
0.0
 70
   128
 71
   7
 72
   13
 73
   10
  0
VERTEX
  8
leaf_4
 10
0.0
 20
0.0
 30
0.0
 70
   128
 71
   13
 72
   8
 73
   10
  0
VERTEX
  8
leaf_4
 10
0.0
 20
0.0
 30
0.0
 70
   128
 71
   8
 72
   9
 73
   10
  0
VERTEX
  8
leaf_4
 10
0.0
 20
0.0
 30
0.0
 70
   128
 71
   9
 72
   11
 73
   10
  0
VERTEX
  8
leaf_4
 10
0.0
 20
0.0
 30
0.0
 70
   128
 71
   9
 72
   8
 73
   13
  0
VERTEX
  8
leaf_4
 10
0.0
 20
0.0
 30
0.0
 70
   128
 71
   9
 72
   13
 73
   6
  0
VERTEX
  8
leaf_4
 10
0.0
 20
0.0
 30
0.0
 70
   128
 71
   9
 72
   6
 73
   4
  0
VERTEX
  8
leaf_4
 10
0.0
 20
0.0
 30
0.0
 70
   128
 71
   9
 72
   4
 73
   3
  0
VERTEX
  8
leaf_4
 10
0.0
 20
0.0
 30
0.0
 70
   128
 71
   9
 72
   3
 73
   1
  0
VERTEX
  8
leaf_4
 10
0.0
 20
0.0
 30
0.0
 70
   128
 71
   9
 72
   1
 73
   11
  0
VERTEX
  8
leaf_4
 10
0.0
 20
0.0
 30
0.0
 70
   128
 71
   13
 72
   7
 73
   6
  0
VERTEX
  8
leaf_4
 10
0.0
 20
0.0
 30
0.0
 70
   128
 71
   6
 72
   5
 73
   4
  0
VERTEX
  8
leaf_4
 10
0.0
 20
0.0
 30
0.0
 70
   128
 71
   5
 72
   12
 73
   4
  0
VERTEX
  8
leaf_4
 10
0.0
 20
0.0
 30
0.0
 70
   128
 71
   3
 72
   2
 73
   1
  0
SEQEND
  0
POLYLINE
  8
leaf_5
 66
   1
 10
0.0
 20
0.0
 30
0.0
 70
   64
 71
   24
 72
   34
  0
VERTEX
  8
leaf_5
 10
-192.045221
 20
165.085423
 30
-0.000000
 70
   192
  0
VERTEX
  8
leaf_5
 10
-83.919027
 20
167.232020
 30
-187.316965
 70
   192
  0
VERTEX
  8
leaf_5
 10
24.207168
 20
169.378618
 30
-216.295000
 70
   192
  0
VERTEX
  8
leaf_5
 10
132.333362
 20
171.525215
 30
-187.316965
 70
   192
  0
VERTEX
  8
leaf_5
 10
211.487230
 20
173.096633
 30
-108.147500
 70
   192
  0
VERTEX
  8
leaf_5
 10
240.459556
 20
173.671812
 30
0.000000
 70
   192
  0
VERTEX
  8
leaf_5
 10
211.487230
 20
173.096634
 30
108.147500
 70
   192
  0
VERTEX
  8
leaf_5
 10
132.333362
 20
171.525215
 30
187.316965
 70
   192
  0
VERTEX
  8
leaf_5
 10
-83.919027
 20
167.232021
 30
187.316965
 70
   192
  0
VERTEX
  8
leaf_5
 10
-132.958437
 20
423.309268
 30
0.000000
 70
   192
  0
VERTEX
  8
leaf_5
 10
-112.620674
 20
424.031875
 30
-75.949459
 70
   192
  0
VERTEX
  8
leaf_5
 10
-57.056872
 20
426.006075
 30
-131.548323
 70
   192
  0
VERTEX
  8
leaf_5
 10
18.844694
 20
428.702881
 30
-151.898919
 70
   192
  0
VERTEX
  8
leaf_5
 10
94.746259
 20
431.399688
 30
-131.548323
 70
   192
  0
VERTEX
  8
leaf_5
 10
150.310061
 20
433.373888
 30
-75.949459
 70
   192
  0
VERTEX
  8
leaf_5
 10
170.647825
 20
434.096495
 30
0.000000
 70
   192
  0
VERTEX
  8
leaf_5
 10
150.310061
 20
433.373888
 30
75.949459
 70
   192
  0
VERTEX
  8
leaf_5
 10
94.746259
 20
431.399688
 30
131.548323
 70
   192
  0
VERTEX
  8
leaf_5
 10
18.844694
 20
428.702881
 30
151.898919
 70
   192
  0
VERTEX
  8
leaf_5
 10
-57.056872
 20
426.006075
 30
131.548323
 70
   192
  0
VERTEX
  8
leaf_5
 10
-112.620674
 20
424.031875
 30
75.949459
 70
   192
  0
VERTEX
  8
leaf_5
 10
-163.072894
 20
165.660602
 30
-108.147500
 70
   192
  0
VERTEX
  8
leaf_5
 10
24.207168
 20
169.378618
 30
216.295000
 70
   192
  0
VERTEX
  8
leaf_5
 10
-163.072894
 20
165.660602
 30
108.147500
 70
   192
  0
VERTEX
  8
leaf_5
 10
0.0
 20
0.0
 30
0.0
 70
   128
 71
   1
 72
   22
 73
   11
  0
VERTEX
  8
leaf_5
 10
0.0
 20
0.0
 30
0.0
 70
   128
 71
   22
 72
   2
 73
   12
  0
VERTEX
  8
leaf_5
 10
0.0
 20
0.0
 30
0.0
 70
   128
 71
   2
 72
   3
 73
   13
  0
VERTEX
  8
leaf_5
 10
0.0
 20
0.0
 30
0.0
 70
   128
 71
   3
 72
   4
 73
   14
  0
VERTEX
  8
leaf_5
 10
0.0
 20
0.0
 30
0.0
 70
   128
 71
   4
 72
   5
 73
   15
  0
VERTEX
  8
leaf_5
 10
0.0
 20
0.0
 30
0.0
 70
   128
 71
   5
 72
   6
 73
   16
  0
VERTEX
  8
leaf_5
 10
0.0
 20
0.0
 30
0.0
 70
   128
 71
   6
 72
   7
 73
   17
  0
VERTEX
  8
leaf_5
 10
0.0
 20
0.0
 30
0.0
 70
   128
 71
   7
 72
   8
 73
   18
  0
VERTEX
  8
leaf_5
 10
0.0
 20
0.0
 30
0.0
 70
   128
 71
   8
 72
   23
 73
   19
  0
VERTEX
  8
leaf_5
 10
0.0
 20
0.0
 30
0.0
 70
   128
 71
   23
 72
   9
 73
   20
  0
VERTEX
  8
leaf_5
 10
0.0
 20
0.0
 30
0.0
 70
   128
 71
   9
 72
   24
 73
   21
  0
VERTEX
  8
leaf_5
 10
0.0
 20
0.0
 30
0.0
 70
   128
 71
   24
 72
   1
 73
   10
  0
VERTEX
  8
leaf_5
 10
0.0
 20
0.0
 30
0.0
 70
   128
 71
   24
 72
   2
 73
   22
  0
VERTEX
  8
leaf_5
 10
0.0
 20
0.0
 30
0.0
 70
   128
 71
   24
 72
   22
 73
   1
  0
VERTEX
  8
leaf_5
 10
0.0
 20
0.0
 30
0.0
 70
   128
 71
   24
 72
   9
 73
   2
  0
VERTEX
  8
leaf_5
 10
0.0
 20
0.0
 30
0.0
 70
   128
 71
   9
 72
   8
 73
   2
  0
VERTEX
  8
leaf_5
 10
0.0
 20
0.0
 30
0.0
 70
   128
 71
   9
 72
   23
 73
   8
  0
VERTEX
  8
leaf_5
 10
0.0
 20
0.0
 30
0.0
 70
   128
 71
   8
 72
   7
 73
   4
  0
VERTEX
  8
leaf_5
 10
0.0
 20
0.0
 30
0.0
 70
   128
 71
   8
 72
   4
 73
   2
  0
VERTEX
  8
leaf_5
 10
0.0
 20
0.0
 30
0.0
 70
   128
 71
   7
 72
   6
 73
   4
  0
VERTEX
  8
leaf_5
 10
0.0
 20
0.0
 30
0.0
 70
   128
 71
   6
 72
   5
 73
   4
  0
VERTEX
  8
leaf_5
 10
0.0
 20
0.0
 30
0.0
 70
   128
 71
   4
 72
   3
 73
   2
  0
VERTEX
  8
leaf_5
 10
0.0
 20
0.0
 30
0.0
 70
   128
 71
   1
 72
   11
 73
   10
  0
VERTEX
  8
leaf_5
 10
0.0
 20
0.0
 30
0.0
 70
   128
 71
   22
 72
   12
 73
   11
  0
VERTEX
  8
leaf_5
 10
0.0
 20
0.0
 30
0.0
 70
   128
 71
   2
 72
   13
 73
   12
  0
VERTEX
  8
leaf_5
 10
0.0
 20
0.0
 30
0.0
 70
   128
 71
   3
 72
   14
 73
   13
  0
VERTEX
  8
leaf_5
 10
0.0
 20
0.0
 30
0.0
 70
   128
 71
   4
 72
   15
 73
   14
  0
VERTEX
  8
leaf_5
 10
0.0
 20
0.0
 30
0.0
 70
   128
 71
   5
 72
   16
 73
   15
  0
VERTEX
  8
leaf_5
 10
0.0
 20
0.0
 30
0.0
 70
   128
 71
   6
 72
   17
 73
   16
  0
VERTEX
  8
leaf_5
 10
0.0
 20
0.0
 30
0.0
 70
   128
 71
   7
 72
   18
 73
   17
  0
VERTEX
  8
leaf_5
 10
0.0
 20
0.0
 30
0.0
 70
   128
 71
   8
 72
   19
 73
   18
  0
VERTEX
  8
leaf_5
 10
0.0
 20
0.0
 30
0.0
 70
   128
 71
   23
 72
   20
 73
   19
  0
VERTEX
  8
leaf_5
 10
0.0
 20
0.0
 30
0.0
 70
   128
 71
   9
 72
   21
 73
   20
  0
VERTEX
  8
leaf_5
 10
0.0
 20
0.0
 30
0.0
 70
   128
 71
   24
 72
   10
 73
   21
  0
SEQEND
  0
POLYLINE
  8
bark
 66
   1
 10
0.0
 20
0.0
 30
0.0
 70
   64
 71
   12
 72
   20
  0
VERTEX
  8
bark
 10
0.000004
 20
-0.000000
 30
40.238996
 70
   192
  0
VERTEX
  8
bark
 10
-34.846254
 20
0.347969
 30
20.119501
 70
   192
  0
VERTEX
  8
bark
 10
-34.846257
 20
0.347969
 30
-20.119495
 70
   192
  0
VERTEX
  8
bark
 10
-0.000004
 20
0.000000
 30
-40.238996
 70
   192
  0
VERTEX
  8
bark
 10
34.846254
 20
-0.347969
 30
-20.119501
 70
   192
  0
VERTEX
  8
bark
 10
34.846257
 20
-0.347969
 30
20.119495
 70
   192
  0
VERTEX
  8
bark
 10
2.559200
 20
256.282885
 30
18.107548
 70
   192
  0
VERTEX
  8
bark
 10
-13.121616
 20
256.439471
 30
9.053775
 70
   192
  0
VERTEX
  8
bark
 10
-13.121618
 20
256.439471
 30
-9.053773
 70
   192
  0
VERTEX
  8
bark
 10
2.559196
 20
256.282885
 30
-18.107548
 70
   192
  0
VERTEX
  8
bark
 10
18.240012
 20
256.126299
 30
-9.053775
 70
   192
  0
VERTEX
  8
bark
 10
18.240014
 20
256.126299
 30
9.053773
 70
   192
  0
VERTEX
  8
bark
 10
0.0
 20
0.0
 30
0.0
 70
   128
 71
   1
 72
   2
 73
   8
  0
VERTEX
  8
bark
 10
0.0
 20
0.0
 30
0.0
 70
   128
 71
   2
 72
   3
 73
   9
  0
VERTEX
  8
bark
 10
0.0
 20
0.0
 30
0.0
 70
   128
 71
   3
 72
   4
 73
   10
  0
VERTEX
  8
bark
 10
0.0
 20
0.0
 30
0.0
 70
   128
 71
   4
 72
   5
 73
   11
  0
VERTEX
  8
bark
 10
0.0
 20
0.0
 30
0.0
 70
   128
 71
   5
 72
   6
 73
   12
  0
VERTEX
  8
bark
 10
0.0
 20
0.0
 30
0.0
 70
   128
 71
   6
 72
   1
 73
   7
  0
VERTEX
  8
bark
 10
0.0
 20
0.0
 30
0.0
 70
   128
 71
   6
 72
   5
 73
   2
  0
VERTEX
  8
bark
 10
0.0
 20
0.0
 30
0.0
 70
   128
 71
   6
 72
   2
 73
   1
  0
VERTEX
  8
bark
 10
0.0
 20
0.0
 30
0.0
 70
   128
 71
   5
 72
   4
 73
   3
  0
VERTEX
  8
bark
 10
0.0
 20
0.0
 30
0.0
 70
   128
 71
   5
 72
   3
 73
   2
  0
VERTEX
  8
bark
 10
0.0
 20
0.0
 30
0.0
 70
   128
 71
   7
 72
   8
 73
   11
  0
VERTEX
  8
bark
 10
0.0
 20
0.0
 30
0.0
 70
   128
 71
   7
 72
   11
 73
   12
  0
VERTEX
  8
bark
 10
0.0
 20
0.0
 30
0.0
 70
   128
 71
   8
 72
   9
 73
   11
  0
VERTEX
  8
bark
 10
0.0
 20
0.0
 30
0.0
 70
   128
 71
   9
 72
   10
 73
   11
  0
VERTEX
  8
bark
 10
0.0
 20
0.0
 30
0.0
 70
   128
 71
   1
 72
   8
 73
   7
  0
VERTEX
  8
bark
 10
0.0
 20
0.0
 30
0.0
 70
   128
 71
   2
 72
   9
 73
   8
  0
VERTEX
  8
bark
 10
0.0
 20
0.0
 30
0.0
 70
   128
 71
   3
 72
   10
 73
   9
  0
VERTEX
  8
bark
 10
0.0
 20
0.0
 30
0.0
 70
   128
 71
   4
 72
   11
 73
   10
  0
VERTEX
  8
bark
 10
0.0
 20
0.0
 30
0.0
 70
   128
 71
   5
 72
   12
 73
   11
  0
VERTEX
  8
bark
 10
0.0
 20
0.0
 30
0.0
 70
   128
 71
   6
 72
   7
 73
   12
  0
SEQEND
  0
ENDSEC
  0
EOF
