999
FBX AutoCAD (*.DXF) exporter
  0
SECTION
  2
HEADER
  9
$ACADVER
  1
AC1008
  9
$UCSORG
 10
0.0
 20
0.0
 30
0.0
  9
$UCSXDIR
 10
1.0
 20
0.0
 30
0.0
  9
$TILEMODE
 70
   1
  9
$UCSYDIR
 10
0.0
 20
1.0
 30
0.0
  0
ENDSEC
  0
SECTION
  2
TABLES
  0
TABLE
  2
LTYPE
 70
   1
  0
LTYPE
  2
CONTINUOUS
 70
   64
  3
Solid line
 72
   65
 73
   0
 40
0.0
  0
ENDTAB
  0
TABLE
  2
LAYER
 70
   3
  0
LAYER
  2
snow
 70
   0
 62
   250
  6
CONTINUOUS
  0
LAYER
  2
bark
 70
   0
 62
   250
  6
CONTINUOUS
  0
ENDTAB
  0
ENDSEC
  0
SECTION
  2
BLOCKS
  0
ENDSEC
  0
SECTION
  2
ENTITIES
  0
POLYLINE
  8
snow
 66
   1
 10
0.0
 20
0.0
 30
0.0
 70
   64
 71
   15
 72
   26
  0
VERTEX
  8
snow
 10
-16.637223
 20
366.038190
 30
30.474535
 70
   192
  0
VERTEX
  8
snow
 10
2.838019
 20
354.979426
 30
41.667268
 70
   192
  0
VERTEX
  8
snow
 10
33.302512
 20
330.779145
 30
31.817397
 70
   192
  0
VERTEX
  8
snow
 10
15.605690
 20
348.283560
 30
23.553876
 70
   192
  0
VERTEX
  8
snow
 10
23.063866
 20
337.821925
 30
24.966904
 70
   192
  0
VERTEX
  8
snow
 10
1.026494
 20
332.080322
 30
33.406797
 70
   192
  0
VERTEX
  8
snow
 10
9.999371
 20
350.506931
 30
42.921500
 70
   192
  0
VERTEX
  8
snow
 10
-10.132025
 20
364.252312
 30
39.038896
 70
   192
  0
VERTEX
  8
snow
 10
2.899761
 20
347.825444
 30
39.877620
 70
   192
  0
VERTEX
  8
snow
 10
37.499320
 20
343.219004
 30
32.286583
 70
   192
  0
VERTEX
  8
snow
 10
25.191162
 20
339.591342
 30
37.639550
 70
   192
  0
VERTEX
  8
snow
 10
8.606331
 20
317.783078
 30
28.553725
 70
   192
  0
VERTEX
  8
snow
 10
23.063868
 20
337.821925
 30
24.966904
 70
   192
  0
VERTEX
  8
snow
 10
-5.132715
 20
357.877882
 30
24.795102
 70
   192
  0
VERTEX
  8
snow
 10
-8.885516
 20
349.772351
 30
33.696584
 70
   192
  0
VERTEX
  8
snow
 10
0.0
 20
0.0
 30
0.0
 70
   128
 71
   4
 72
   10
 73
   7
  0
VERTEX
  8
snow
 10
0.0
 20
0.0
 30
0.0
 70
   128
 71
   7
 72
   2
 73
   8
  0
VERTEX
  8
snow
 10
0.0
 20
0.0
 30
0.0
 70
   128
 71
   7
 72
   8
 73
   14
  0
VERTEX
  8
snow
 10
0.0
 20
0.0
 30
0.0
 70
   128
 71
   14
 72
   8
 73
   1
  0
VERTEX
  8
snow
 10
0.0
 20
0.0
 30
0.0
 70
   128
 71
   5
 72
   13
 73
   4
  0
VERTEX
  8
snow
 10
0.0
 20
0.0
 30
0.0
 70
   128
 71
   10
 72
   3
 73
   11
  0
VERTEX
  8
snow
 10
0.0
 20
0.0
 30
0.0
 70
   128
 71
   11
 72
   7
 73
   10
  0
VERTEX
  8
snow
 10
0.0
 20
0.0
 30
0.0
 70
   128
 71
   7
 72
   11
 73
   2
  0
VERTEX
  8
snow
 10
0.0
 20
0.0
 30
0.0
 70
   128
 71
   5
 72
   6
 73
   12
  0
VERTEX
  8
snow
 10
0.0
 20
0.0
 30
0.0
 70
   128
 71
   12
 72
   3
 73
   13
  0
VERTEX
  8
snow
 10
0.0
 20
0.0
 30
0.0
 70
   128
 71
   13
 72
   10
 73
   4
  0
VERTEX
  8
snow
 10
0.0
 20
0.0
 30
0.0
 70
   128
 71
   10
 72
   13
 73
   3
  0
VERTEX
  8
snow
 10
0.0
 20
0.0
 30
0.0
 70
   128
 71
   6
 72
   5
 73
   4
  0
VERTEX
  8
snow
 10
0.0
 20
0.0
 30
0.0
 70
   128
 71
   15
 72
   14
 73
   1
  0
VERTEX
  8
snow
 10
0.0
 20
0.0
 30
0.0
 70
   128
 71
   4
 72
   14
 73
   15
  0
VERTEX
  8
snow
 10
0.0
 20
0.0
 30
0.0
 70
   128
 71
   13
 72
   5
 73
   12
  0
VERTEX
  8
snow
 10
0.0
 20
0.0
 30
0.0
 70
   128
 71
   6
 72
   15
 73
   9
  0
VERTEX
  8
snow
 10
0.0
 20
0.0
 30
0.0
 70
   128
 71
   15
 72
   1
 73
   8
  0
VERTEX
  8
snow
 10
0.0
 20
0.0
 30
0.0
 70
   128
 71
   8
 72
   9
 73
   15
  0
VERTEX
  8
snow
 10
0.0
 20
0.0
 30
0.0
 70
   128
 71
   9
 72
   8
 73
   2
  0
VERTEX
  8
snow
 10
0.0
 20
0.0
 30
0.0
 70
   128
 71
   6
 72
   11
 73
   3
  0
VERTEX
  8
snow
 10
0.0
 20
0.0
 30
0.0
 70
   128
 71
   9
 72
   2
 73
   11
  0
VERTEX
  8
snow
 10
0.0
 20
0.0
 30
0.0
 70
   128
 71
   6
 72
   9
 73
   11
  0
VERTEX
  8
snow
 10
0.0
 20
0.0
 30
0.0
 70
   128
 71
   4
 72
   7
 73
   14
  0
VERTEX
  8
snow
 10
0.0
 20
0.0
 30
0.0
 70
   128
 71
   6
 72
   4
 73
   15
  0
VERTEX
  8
snow
 10
0.0
 20
0.0
 30
0.0
 70
   128
 71
   6
 72
   3
 73
   12
  0
SEQEND
  0
POLYLINE
  8
bark
 66
   1
 10
0.0
 20
0.0
 30
0.0
 70
   64
 71
   60
 72
   72
  0
VERTEX
  8
bark
 10
6.476916
 20
310.894180
 30
24.816776
 70
   192
  0
VERTEX
  8
bark
 10
7.969094
 20
308.365583
 30
32.850422
 70
   192
  0
VERTEX
  8
bark
 10
4.333607
 20
312.516933
 30
39.385664
 70
   192
  0
VERTEX
  8
bark
 10
-0.794059
 20
319.196880
 30
37.887261
 70
   192
  0
VERTEX
  8
bark
 10
-2.286238
 20
321.725477
 30
29.853615
 70
   192
  0
VERTEX
  8
bark
 10
1.349250
 20
317.574127
 30
23.318373
 70
   192
  0
VERTEX
  8
bark
 10
80.639725
 20
368.823105
 30
29.274871
 70
   192
  0
VERTEX
  8
bark
 10
80.785621
 20
365.242920
 30
37.227589
 70
   192
  0
VERTEX
  8
bark
 10
74.457568
 20
367.291094
 30
43.600974
 70
   192
  0
VERTEX
  8
bark
 10
67.983619
 20
372.919453
 30
42.021643
 70
   192
  0
VERTEX
  8
bark
 10
67.837723
 20
376.499638
 30
34.068925
 70
   192
  0
VERTEX
  8
bark
 10
74.165776
 20
374.451464
 30
27.695539
 70
   192
  0
VERTEX
  8
bark
 10
86.963244
 20
403.228902
 30
33.595889
 70
   192
  0
VERTEX
  8
bark
 10
86.635299
 20
398.314750
 30
40.588987
 70
   192
  0
VERTEX
  8
bark
 10
79.359563
 20
397.694990
 30
45.043135
 70
   192
  0
VERTEX
  8
bark
 10
72.411773
 20
401.989382
 30
42.504184
 70
   192
  0
VERTEX
  8
bark
 10
72.739718
 20
406.903534
 30
35.511085
 70
   192
  0
VERTEX
  8
bark
 10
80.015454
 20
407.523294
 30
31.056938
 70
   192
  0
VERTEX
  8
bark
 10
6.476916
 20
310.894180
 30
24.816776
 70
   192
  0
VERTEX
  8
bark
 10
7.969094
 20
308.365583
 30
32.850422
 70
   192
  0
VERTEX
  8
bark
 10
4.333607
 20
312.516933
 30
39.385664
 70
   192
  0
VERTEX
  8
bark
 10
-0.794059
 20
319.196880
 30
37.887261
 70
   192
  0
VERTEX
  8
bark
 10
-2.286238
 20
321.725477
 30
29.853615
 70
   192
  0
VERTEX
  8
bark
 10
1.349250
 20
317.574127
 30
23.318373
 70
   192
  0
VERTEX
  8
bark
 10
86.963244
 20
403.228902
 30
33.595889
 70
   192
  0
VERTEX
  8
bark
 10
86.635299
 20
398.314750
 30
40.588987
 70
   192
  0
VERTEX
  8
bark
 10
79.359563
 20
397.694990
 30
45.043135
 70
   192
  0
VERTEX
  8
bark
 10
72.411773
 20
401.989382
 30
42.504184
 70
   192
  0
VERTEX
  8
bark
 10
72.739718
 20
406.903534
 30
35.511085
 70
   192
  0
VERTEX
  8
bark
 10
80.015454
 20
407.523294
 30
31.056938
 70
   192
  0
VERTEX
  8
bark
 10
20.081801
 20
-3.523387
 30
7.437259
 70
   192
  0
VERTEX
  8
bark
 10
3.621338
 20
-4.063326
 30
20.478363
 70
   192
  0
VERTEX
  8
bark
 10
-15.778033
 20
-0.955220
 30
13.041104
 70
   192
  0
VERTEX
  8
bark
 10
-18.716942
 20
2.692826
 30
-7.437259
 70
   192
  0
VERTEX
  8
bark
 10
-2.256480
 20
3.232765
 30
-20.478363
 70
   192
  0
VERTEX
  8
bark
 10
17.142892
 20
0.124658
 30
-13.041104
 70
   192
  0
VERTEX
  8
bark
 10
34.833771
 20
195.022162
 30
38.267671
 70
   192
  0
VERTEX
  8
bark
 10
22.263009
 20
196.061263
 30
48.490828
 70
   192
  0
VERTEX
  8
bark
 10
7.262743
 20
197.502281
 30
42.546948
 70
   192
  0
VERTEX
  8
bark
 10
4.833238
 20
197.904198
 30
26.379910
 70
   192
  0
VERTEX
  8
bark
 10
17.404000
 20
196.865097
 30
16.156753
 70
   192
  0
VERTEX
  8
bark
 10
32.404266
 20
195.424079
 30
22.100634
 70
   192
  0
VERTEX
  8
bark
 10
12.827507
 20
316.217751
 30
35.010569
 70
   192
  0
VERTEX
  8
bark
 10
4.360481
 20
315.346028
 30
41.774082
 70
   192
  0
VERTEX
  8
bark
 10
-5.625598
 20
313.466753
 30
38.115532
 70
   192
  0
VERTEX
  8
bark
 10
-7.144651
 20
312.459201
 30
27.693468
 70
   192
  0
VERTEX
  8
bark
 10
1.322376
 20
313.330924
 30
20.929955
 70
   192
  0
VERTEX
  8
bark
 10
11.308454
 20
315.210200
 30
24.588505
 70
   192
  0
VERTEX
  8
bark
 10
-17.560920
 20
390.645058
 30
33.440115
 70
   192
  0
VERTEX
  8
bark
 10
-21.958476
 20
388.767866
 30
37.545652
 70
   192
  0
VERTEX
  8
bark
 10
-27.427283
 20
386.433387
 30
35.457556
 70
   192
  0
VERTEX
  8
bark
 10
-28.498534
 20
385.976101
 30
29.263922
 70
   192
  0
VERTEX
  8
bark
 10
-24.100978
 20
387.853293
 30
25.158385
 70
   192
  0
VERTEX
  8
bark
 10
-18.632171
 20
390.187772
 30
27.246481
 70
   192
  0
VERTEX
  8
bark
 10
-17.560920
 20
390.645058
 30
33.440115
 70
   192
  0
VERTEX
  8
bark
 10
-21.958476
 20
388.767866
 30
37.545652
 70
   192
  0
VERTEX
  8
bark
 10
-27.427283
 20
386.433387
 30
35.457556
 70
   192
  0
VERTEX
  8
bark
 10
-28.498534
 20
385.976101
 30
29.263922
 70
   192
  0
VERTEX
  8
bark
 10
-24.100978
 20
387.853293
 30
25.158385
 70
   192
  0
VERTEX
  8
bark
 10
-18.632171
 20
390.187772
 30
27.246481
 70
   192
  0
VERTEX
  8
bark
 10
0.0
 20
0.0
 30
0.0
 70
   128
 71
   1
 72
   2
 73
   8
  0
VERTEX
  8
bark
 10
0.0
 20
0.0
 30
0.0
 70
   128
 71
   2
 72
   3
 73
   9
  0
VERTEX
  8
bark
 10
0.0
 20
0.0
 30
0.0
 70
   128
 71
   3
 72
   4
 73
   10
  0
VERTEX
  8
bark
 10
0.0
 20
0.0
 30
0.0
 70
   128
 71
   4
 72
   5
 73
   11
  0
VERTEX
  8
bark
 10
0.0
 20
0.0
 30
0.0
 70
   128
 71
   5
 72
   6
 73
   12
  0
VERTEX
  8
bark
 10
0.0
 20
0.0
 30
0.0
 70
   128
 71
   6
 72
   1
 73
   7
  0
VERTEX
  8
bark
 10
0.0
 20
0.0
 30
0.0
 70
   128
 71
   7
 72
   8
 73
   14
  0
VERTEX
  8
bark
 10
0.0
 20
0.0
 30
0.0
 70
   128
 71
   8
 72
   9
 73
   15
  0
VERTEX
  8
bark
 10
0.0
 20
0.0
 30
0.0
 70
   128
 71
   9
 72
   10
 73
   16
  0
VERTEX
  8
bark
 10
0.0
 20
0.0
 30
0.0
 70
   128
 71
   10
 72
   11
 73
   17
  0
VERTEX
  8
bark
 10
0.0
 20
0.0
 30
0.0
 70
   128
 71
   11
 72
   12
 73
   18
  0
VERTEX
  8
bark
 10
0.0
 20
0.0
 30
0.0
 70
   128
 71
   12
 72
   7
 73
   13
  0
VERTEX
  8
bark
 10
0.0
 20
0.0
 30
0.0
 70
   128
 71
   24
 72
   23
 73
   20
  0
VERTEX
  8
bark
 10
0.0
 20
0.0
 30
0.0
 70
   128
 71
   24
 72
   20
 73
   19
  0
VERTEX
  8
bark
 10
0.0
 20
0.0
 30
0.0
 70
   128
 71
   23
 72
   22
 73
   20
  0
VERTEX
  8
bark
 10
0.0
 20
0.0
 30
0.0
 70
   128
 71
   22
 72
   21
 73
   20
  0
VERTEX
  8
bark
 10
0.0
 20
0.0
 30
0.0
 70
   128
 71
   25
 72
   26
 73
   29
  0
VERTEX
  8
bark
 10
0.0
 20
0.0
 30
0.0
 70
   128
 71
   25
 72
   29
 73
   30
  0
VERTEX
  8
bark
 10
0.0
 20
0.0
 30
0.0
 70
   128
 71
   26
 72
   27
 73
   29
  0
VERTEX
  8
bark
 10
0.0
 20
0.0
 30
0.0
 70
   128
 71
   27
 72
   28
 73
   29
  0
VERTEX
  8
bark
 10
0.0
 20
0.0
 30
0.0
 70
   128
 71
   31
 72
   32
 73
   38
  0
VERTEX
  8
bark
 10
0.0
 20
0.0
 30
0.0
 70
   128
 71
   32
 72
   33
 73
   39
  0
VERTEX
  8
bark
 10
0.0
 20
0.0
 30
0.0
 70
   128
 71
   33
 72
   34
 73
   40
  0
VERTEX
  8
bark
 10
0.0
 20
0.0
 30
0.0
 70
   128
 71
   34
 72
   35
 73
   41
  0
VERTEX
  8
bark
 10
0.0
 20
0.0
 30
0.0
 70
   128
 71
   35
 72
   36
 73
   42
  0
VERTEX
  8
bark
 10
0.0
 20
0.0
 30
0.0
 70
   128
 71
   36
 72
   31
 73
   37
  0
VERTEX
  8
bark
 10
0.0
 20
0.0
 30
0.0
 70
   128
 71
   37
 72
   38
 73
   44
  0
VERTEX
  8
bark
 10
0.0
 20
0.0
 30
0.0
 70
   128
 71
   38
 72
   39
 73
   45
  0
VERTEX
  8
bark
 10
0.0
 20
0.0
 30
0.0
 70
   128
 71
   39
 72
   40
 73
   46
  0
VERTEX
  8
bark
 10
0.0
 20
0.0
 30
0.0
 70
   128
 71
   40
 72
   41
 73
   47
  0
VERTEX
  8
bark
 10
0.0
 20
0.0
 30
0.0
 70
   128
 71
   41
 72
   42
 73
   48
  0
VERTEX
  8
bark
 10
0.0
 20
0.0
 30
0.0
 70
   128
 71
   42
 72
   37
 73
   43
  0
VERTEX
  8
bark
 10
0.0
 20
0.0
 30
0.0
 70
   128
 71
   43
 72
   44
 73
   50
  0
VERTEX
  8
bark
 10
0.0
 20
0.0
 30
0.0
 70
   128
 71
   44
 72
   45
 73
   51
  0
VERTEX
  8
bark
 10
0.0
 20
0.0
 30
0.0
 70
   128
 71
   45
 72
   46
 73
   52
  0
VERTEX
  8
bark
 10
0.0
 20
0.0
 30
0.0
 70
   128
 71
   46
 72
   47
 73
   53
  0
VERTEX
  8
bark
 10
0.0
 20
0.0
 30
0.0
 70
   128
 71
   47
 72
   48
 73
   54
  0
VERTEX
  8
bark
 10
0.0
 20
0.0
 30
0.0
 70
   128
 71
   48
 72
   43
 73
   49
  0
VERTEX
  8
bark
 10
0.0
 20
0.0
 30
0.0
 70
   128
 71
   55
 72
   58
 73
   60
  0
VERTEX
  8
bark
 10
0.0
 20
0.0
 30
0.0
 70
   128
 71
   55
 72
   56
 73
   58
  0
VERTEX
  8
bark
 10
0.0
 20
0.0
 30
0.0
 70
   128
 71
   56
 72
   57
 73
   58
  0
VERTEX
  8
bark
 10
0.0
 20
0.0
 30
0.0
 70
   128
 71
   58
 72
   59
 73
   60
  0
VERTEX
  8
bark
 10
0.0
 20
0.0
 30
0.0
 70
   128
 71
   1
 72
   8
 73
   7
  0
VERTEX
  8
bark
 10
0.0
 20
0.0
 30
0.0
 70
   128
 71
   2
 72
   9
 73
   8
  0
VERTEX
  8
bark
 10
0.0
 20
0.0
 30
0.0
 70
   128
 71
   3
 72
   10
 73
   9
  0
VERTEX
  8
bark
 10
0.0
 20
0.0
 30
0.0
 70
   128
 71
   4
 72
   11
 73
   10
  0
VERTEX
  8
bark
 10
0.0
 20
0.0
 30
0.0
 70
   128
 71
   5
 72
   12
 73
   11
  0
VERTEX
  8
bark
 10
0.0
 20
0.0
 30
0.0
 70
   128
 71
   6
 72
   7
 73
   12
  0
VERTEX
  8
bark
 10
0.0
 20
0.0
 30
0.0
 70
   128
 71
   7
 72
   14
 73
   13
  0
VERTEX
  8
bark
 10
0.0
 20
0.0
 30
0.0
 70
   128
 71
   8
 72
   15
 73
   14
  0
VERTEX
  8
bark
 10
0.0
 20
0.0
 30
0.0
 70
   128
 71
   9
 72
   16
 73
   15
  0
VERTEX
  8
bark
 10
0.0
 20
0.0
 30
0.0
 70
   128
 71
   10
 72
   17
 73
   16
  0
VERTEX
  8
bark
 10
0.0
 20
0.0
 30
0.0
 70
   128
 71
   11
 72
   18
 73
   17
  0
VERTEX
  8
bark
 10
0.0
 20
0.0
 30
0.0
 70
   128
 71
   12
 72
   13
 73
   18
  0
VERTEX
  8
bark
 10
0.0
 20
0.0
 30
0.0
 70
   128
 71
   31
 72
   38
 73
   37
  0
VERTEX
  8
bark
 10
0.0
 20
0.0
 30
0.0
 70
   128
 71
   32
 72
   39
 73
   38
  0
VERTEX
  8
bark
 10
0.0
 20
0.0
 30
0.0
 70
   128
 71
   33
 72
   40
 73
   39
  0
VERTEX
  8
bark
 10
0.0
 20
0.0
 30
0.0
 70
   128
 71
   34
 72
   41
 73
   40
  0
VERTEX
  8
bark
 10
0.0
 20
0.0
 30
0.0
 70
   128
 71
   35
 72
   42
 73
   41
  0
VERTEX
  8
bark
 10
0.0
 20
0.0
 30
0.0
 70
   128
 71
   36
 72
   37
 73
   42
  0
VERTEX
  8
bark
 10
0.0
 20
0.0
 30
0.0
 70
   128
 71
   37
 72
   44
 73
   43
  0
VERTEX
  8
bark
 10
0.0
 20
0.0
 30
0.0
 70
   128
 71
   38
 72
   45
 73
   44
  0
VERTEX
  8
bark
 10
0.0
 20
0.0
 30
0.0
 70
   128
 71
   39
 72
   46
 73
   45
  0
VERTEX
  8
bark
 10
0.0
 20
0.0
 30
0.0
 70
   128
 71
   40
 72
   47
 73
   46
  0
VERTEX
  8
bark
 10
0.0
 20
0.0
 30
0.0
 70
   128
 71
   41
 72
   48
 73
   47
  0
VERTEX
  8
bark
 10
0.0
 20
0.0
 30
0.0
 70
   128
 71
   42
 72
   43
 73
   48
  0
VERTEX
  8
bark
 10
0.0
 20
0.0
 30
0.0
 70
   128
 71
   43
 72
   50
 73
   49
  0
VERTEX
  8
bark
 10
0.0
 20
0.0
 30
0.0
 70
   128
 71
   44
 72
   51
 73
   50
  0
VERTEX
  8
bark
 10
0.0
 20
0.0
 30
0.0
 70
   128
 71
   45
 72
   52
 73
   51
  0
VERTEX
  8
bark
 10
0.0
 20
0.0
 30
0.0
 70
   128
 71
   46
 72
   53
 73
   52
  0
VERTEX
  8
bark
 10
0.0
 20
0.0
 30
0.0
 70
   128
 71
   47
 72
   54
 73
   53
  0
VERTEX
  8
bark
 10
0.0
 20
0.0
 30
0.0
 70
   128
 71
   48
 72
   49
 73
   54
  0
SEQEND
  0
ENDSEC
  0
EOF
