999
FBX AutoCAD (*.DXF) exporter
  0
SECTION
  2
HEADER
  9
$ACADVER
  1
AC1008
  9
$UCSORG
 10
0.0
 20
0.0
 30
0.0
  9
$UCSXDIR
 10
1.0
 20
0.0
 30
0.0
  9
$TILEMODE
 70
   1
  9
$UCSYDIR
 10
0.0
 20
1.0
 30
0.0
  0
ENDSEC
  0
SECTION
  2
TABLES
  0
TABLE
  2
LTYPE
 70
   1
  0
LTYPE
  2
CONTINUOUS
 70
   64
  3
Solid line
 72
   65
 73
   0
 40
0.0
  0
ENDTAB
  0
TABLE
  2
LAYER
 70
   1
  0
LAYER
  2
fence17
 70
   0
 62
   250
  6
CONTINUOUS
  0
ENDTAB
  0
ENDSEC
  0
SECTION
  2
BLOCKS
  0
ENDSEC
  0
SECTION
  2
ENTITIES
  0
POLYLINE
  8
fence17
 66
   1
 10
0.0
 20
0.0
 30
0.0
 70
   64
 71
   116
 72
   212
  0
VERTEX
  8
fence17
 10
-81.468225
 20
-2.732158
 30
10.683206
 70
   192
  0
VERTEX
  8
fence17
 10
88.141417
 20
-6.982893
 30
15.602784
 70
   192
  0
VERTEX
  8
fence17
 10
-80.961212
 20
15.266875
 30
8.755149
 70
   192
  0
VERTEX
  8
fence17
 10
88.648431
 20
11.016141
 30
13.674727
 70
   192
  0
VERTEX
  8
fence17
 10
-80.831049
 20
14.733095
 30
3.806363
 70
   192
  0
VERTEX
  8
fence17
 10
88.778594
 20
10.482360
 30
8.725941
 70
   192
  0
VERTEX
  8
fence17
 10
-81.338062
 20
-3.265939
 30
5.734420
 70
   192
  0
VERTEX
  8
fence17
 10
88.271581
 20
-7.516673
 30
10.653998
 70
   192
  0
VERTEX
  8
fence17
 10
-64.272138
 20
-3.163125
 30
11.181984
 70
   192
  0
VERTEX
  8
fence17
 10
-63.765125
 20
14.835909
 30
9.253927
 70
   192
  0
VERTEX
  8
fence17
 10
69.972866
 20
-6.527555
 30
15.075800
 70
   192
  0
VERTEX
  8
fence17
 10
70.479880
 20
11.471479
 30
13.147743
 70
   192
  0
VERTEX
  8
fence17
 10
-1.155199
 20
11.393332
 30
-6.419364
 70
   192
  0
VERTEX
  8
fence17
 10
-5.309091
 20
-6.514304
 30
-4.597086
 70
   192
  0
VERTEX
  8
fence17
 10
-3.355241
 20
-6.032752
 30
0.412148
 70
   192
  0
VERTEX
  8
fence17
 10
0.798652
 20
11.874884
 30
-1.410130
 70
   192
  0
VERTEX
  8
fence17
 10
76.126537
 20
-18.929796
 30
-2.580727
 70
   192
  0
VERTEX
  8
fence17
 10
76.126537
 20
94.041617
 30
-2.580727
 70
   192
  0
VERTEX
  8
fence17
 10
66.297423
 20
-18.929796
 30
-9.862613
 70
   192
  0
VERTEX
  8
fence17
 10
66.297423
 20
94.041617
 30
-9.862613
 70
   192
  0
VERTEX
  8
fence17
 10
63.973331
 20
-18.929796
 30
-3.972469
 70
   192
  0
VERTEX
  8
fence17
 10
63.973331
 20
94.041617
 30
-3.972469
 70
   192
  0
VERTEX
  8
fence17
 10
64.905681
 20
-18.929796
 30
2.290592
 70
   192
  0
VERTEX
  8
fence17
 10
64.905681
 20
94.041617
 30
2.290592
 70
   192
  0
VERTEX
  8
fence17
 10
68.844651
 20
-18.929796
 30
7.248387
 70
   192
  0
VERTEX
  8
fence17
 10
68.844651
 20
94.041617
 30
7.248387
 70
   192
  0
VERTEX
  8
fence17
 10
74.734795
 20
-18.929796
 30
9.572479
 70
   192
  0
VERTEX
  8
fence17
 10
74.734795
 20
94.041617
 30
9.572479
 70
   192
  0
VERTEX
  8
fence17
 10
80.997856
 20
-18.929796
 30
8.640129
 70
   192
  0
VERTEX
  8
fence17
 10
80.997856
 20
94.041617
 30
8.640129
 70
   192
  0
VERTEX
  8
fence17
 10
85.955651
 20
-18.929796
 30
4.701160
 70
   192
  0
VERTEX
  8
fence17
 10
85.955651
 20
94.041617
 30
4.701160
 70
   192
  0
VERTEX
  8
fence17
 10
88.279743
 20
-18.929796
 30
-1.188985
 70
   192
  0
VERTEX
  8
fence17
 10
88.279743
 20
94.041617
 30
-1.188985
 70
   192
  0
VERTEX
  8
fence17
 10
87.347393
 20
-18.929796
 30
-7.452046
 70
   192
  0
VERTEX
  8
fence17
 10
87.347393
 20
94.041617
 30
-7.452046
 70
   192
  0
VERTEX
  8
fence17
 10
83.408424
 20
-18.929796
 30
-12.409841
 70
   192
  0
VERTEX
  8
fence17
 10
83.408424
 20
94.041617
 30
-12.409841
 70
   192
  0
VERTEX
  8
fence17
 10
77.518279
 20
-18.929796
 30
-14.733933
 70
   192
  0
VERTEX
  8
fence17
 10
77.518279
 20
94.041617
 30
-14.733933
 70
   192
  0
VERTEX
  8
fence17
 10
71.255218
 20
-18.929796
 30
-13.801583
 70
   192
  0
VERTEX
  8
fence17
 10
71.255218
 20
94.041617
 30
-13.801583
 70
   192
  0
VERTEX
  8
fence17
 10
69.604334
 20
4.365990
 30
-9.521343
 70
   192
  0
VERTEX
  8
fence17
 10
67.280242
 20
4.365990
 30
-3.631199
 70
   192
  0
VERTEX
  8
fence17
 10
68.212592
 20
4.365990
 30
2.631862
 70
   192
  0
VERTEX
  8
fence17
 10
72.151561
 20
4.365990
 30
7.589657
 70
   192
  0
VERTEX
  8
fence17
 10
78.041706
 20
4.365990
 30
9.913749
 70
   192
  0
VERTEX
  8
fence17
 10
84.304767
 20
4.365990
 30
8.981399
 70
   192
  0
VERTEX
  8
fence17
 10
89.262562
 20
4.365990
 30
5.042430
 70
   192
  0
VERTEX
  8
fence17
 10
91.586653
 20
4.365990
 30
-0.847715
 70
   192
  0
VERTEX
  8
fence17
 10
90.654303
 20
4.365990
 30
-7.110776
 70
   192
  0
VERTEX
  8
fence17
 10
86.715334
 20
4.365990
 30
-12.068571
 70
   192
  0
VERTEX
  8
fence17
 10
80.825189
 20
4.365990
 30
-14.392663
 70
   192
  0
VERTEX
  8
fence17
 10
74.562128
 20
4.365990
 30
-13.460313
 70
   192
  0
VERTEX
  8
fence17
 10
66.594325
 20
61.630496
 30
-7.450269
 70
   192
  0
VERTEX
  8
fence17
 10
64.270234
 20
61.416065
 30
-1.560125
 70
   192
  0
VERTEX
  8
fence17
 10
65.202584
 20
60.830230
 30
4.702936
 70
   192
  0
VERTEX
  8
fence17
 10
69.141553
 20
60.029964
 30
9.660731
 70
   192
  0
VERTEX
  8
fence17
 10
75.031698
 20
59.229698
 30
11.984823
 70
   192
  0
VERTEX
  8
fence17
 10
81.294759
 20
58.643863
 30
11.052473
 70
   192
  0
VERTEX
  8
fence17
 10
86.252553
 20
58.429433
 30
7.113504
 70
   192
  0
VERTEX
  8
fence17
 10
88.576645
 20
58.643863
 30
1.223359
 70
   192
  0
VERTEX
  8
fence17
 10
87.644295
 20
59.229698
 30
-5.039702
 70
   192
  0
VERTEX
  8
fence17
 10
83.705326
 20
60.029964
 30
-9.997497
 70
   192
  0
VERTEX
  8
fence17
 10
77.815181
 20
60.830230
 30
-12.321589
 70
   192
  0
VERTEX
  8
fence17
 10
71.552120
 20
61.416065
 30
-11.389239
 70
   192
  0
VERTEX
  8
fence17
 10
-67.549420
 20
-18.929796
 30
-2.580727
 70
   192
  0
VERTEX
  8
fence17
 10
-67.549420
 20
94.041617
 30
-2.580727
 70
   192
  0
VERTEX
  8
fence17
 10
-72.013909
 20
-18.929796
 30
8.808114
 70
   192
  0
VERTEX
  8
fence17
 10
-72.013909
 20
94.041617
 30
8.808114
 70
   192
  0
VERTEX
  8
fence17
 10
-65.721360
 20
-18.929796
 30
9.514543
 70
   192
  0
VERTEX
  8
fence17
 10
-65.721360
 20
94.041617
 30
9.514543
 70
   192
  0
VERTEX
  8
fence17
 10
-59.918639
 20
-18.929796
 30
6.980054
 70
   192
  0
VERTEX
  8
fence17
 10
-59.918639
 20
94.041617
 30
6.980054
 70
   192
  0
VERTEX
  8
fence17
 10
-56.160579
 20
-18.929796
 30
1.883762
 70
   192
  0
VERTEX
  8
fence17
 10
-56.160579
 20
94.041617
 30
1.883762
 70
   192
  0
VERTEX
  8
fence17
 10
-55.454150
 20
-18.929796
 30
-4.408787
 70
   192
  0
VERTEX
  8
fence17
 10
-55.454150
 20
94.041617
 30
-4.408787
 70
   192
  0
VERTEX
  8
fence17
 10
-57.988639
 20
-18.929796
 30
-10.211508
 70
   192
  0
VERTEX
  8
fence17
 10
-57.988639
 20
94.041617
 30
-10.211508
 70
   192
  0
VERTEX
  8
fence17
 10
-63.084932
 20
-18.929796
 30
-13.969568
 70
   192
  0
VERTEX
  8
fence17
 10
-63.084932
 20
94.041617
 30
-13.969568
 70
   192
  0
VERTEX
  8
fence17
 10
-69.377480
 20
-18.929796
 30
-14.675997
 70
   192
  0
VERTEX
  8
fence17
 10
-69.377480
 20
94.041617
 30
-14.675997
 70
   192
  0
VERTEX
  8
fence17
 10
-75.180201
 20
-18.929796
 30
-12.141508
 70
   192
  0
VERTEX
  8
fence17
 10
-75.180201
 20
94.041617
 30
-12.141508
 70
   192
  0
VERTEX
  8
fence17
 10
-78.938261
 20
-18.929796
 30
-7.045216
 70
   192
  0
VERTEX
  8
fence17
 10
-78.938261
 20
94.041617
 30
-7.045216
 70
   192
  0
VERTEX
  8
fence17
 10
-79.644690
 20
-18.929796
 30
-0.752667
 70
   192
  0
VERTEX
  8
fence17
 10
-79.644690
 20
94.041617
 30
-0.752667
 70
   192
  0
VERTEX
  8
fence17
 10
-77.110201
 20
-18.929796
 30
5.050054
 70
   192
  0
VERTEX
  8
fence17
 10
-77.110201
 20
94.041617
 30
5.050054
 70
   192
  0
VERTEX
  8
fence17
 10
-70.918836
 20
23.607834
 30
8.358617
 70
   192
  0
VERTEX
  8
fence17
 10
-64.626287
 20
23.607834
 30
9.065046
 70
   192
  0
VERTEX
  8
fence17
 10
-58.823566
 20
23.607834
 30
6.530557
 70
   192
  0
VERTEX
  8
fence17
 10
-55.065506
 20
23.607834
 30
1.434265
 70
   192
  0
VERTEX
  8
fence17
 10
-54.359077
 20
23.607834
 30
-4.858284
 70
   192
  0
VERTEX
  8
fence17
 10
-56.893566
 20
23.607834
 30
-10.661005
 70
   192
  0
VERTEX
  8
fence17
 10
-61.989858
 20
23.607834
 30
-14.419065
 70
   192
  0
VERTEX
  8
fence17
 10
-68.282407
 20
23.607834
 30
-15.125494
 70
   192
  0
VERTEX
  8
fence17
 10
-74.085128
 20
23.607834
 30
-12.591005
 70
   192
  0
VERTEX
  8
fence17
 10
-77.843188
 20
23.607834
 30
-7.494712
 70
   192
  0
VERTEX
  8
fence17
 10
-78.549617
 20
23.607834
 30
-1.202164
 70
   192
  0
VERTEX
  8
fence17
 10
-76.015128
 20
23.607834
 30
4.600557
 70
   192
  0
VERTEX
  8
fence17
 10
-72.511573
 20
60.955343
 30
10.077646
 70
   192
  0
VERTEX
  8
fence17
 10
-66.219024
 20
60.740913
 30
10.784075
 70
   192
  0
VERTEX
  8
fence17
 10
-60.416303
 20
60.155078
 30
8.249586
 70
   192
  0
VERTEX
  8
fence17
 10
-56.658243
 20
59.354812
 30
3.153294
 70
   192
  0
VERTEX
  8
fence17
 10
-55.951814
 20
58.554546
 30
-3.139254
 70
   192
  0
VERTEX
  8
fence17
 10
-58.486303
 20
57.968711
 30
-8.941976
 70
   192
  0
VERTEX
  8
fence17
 10
-63.582595
 20
57.754280
 30
-12.700035
 70
   192
  0
VERTEX
  8
fence17
 10
-69.875144
 20
57.968711
 30
-13.406464
 70
   192
  0
VERTEX
  8
fence17
 10
-75.677865
 20
58.554546
 30
-10.871976
 70
   192
  0
VERTEX
  8
fence17
 10
-79.435925
 20
59.354812
 30
-5.775683
 70
   192
  0
VERTEX
  8
fence17
 10
-80.142354
 20
60.155078
 30
0.516865
 70
   192
  0
VERTEX
  8
fence17
 10
-77.607865
 20
60.740913
 30
6.319587
 70
   192
  0
VERTEX
  8
fence17
 10
0.0
 20
0.0
 30
0.0
 70
   128
 71
   14
 72
   15
 73
   11
  0
VERTEX
  8
fence17
 10
0.0
 20
0.0
 30
0.0
 70
   128
 71
   3
 72
   5
 73
   10
  0
VERTEX
  8
fence17
 10
0.0
 20
0.0
 30
0.0
 70
   128
 71
   4
 72
   2
 73
   11
  0
VERTEX
  8
fence17
 10
0.0
 20
0.0
 30
0.0
 70
   128
 71
   6
 72
   8
 73
   2
  0
VERTEX
  8
fence17
 10
0.0
 20
0.0
 30
0.0
 70
   128
 71
   14
 72
   8
 73
   6
  0
VERTEX
  8
fence17
 10
0.0
 20
0.0
 30
0.0
 70
   128
 71
   5
 72
   3
 73
   1
  0
VERTEX
  8
fence17
 10
0.0
 20
0.0
 30
0.0
 70
   128
 71
   11
 72
   2
 73
   8
  0
VERTEX
  8
fence17
 10
0.0
 20
0.0
 30
0.0
 70
   128
 71
   10
 72
   5
 73
   13
  0
VERTEX
  8
fence17
 10
0.0
 20
0.0
 30
0.0
 70
   128
 71
   9
 72
   1
 73
   3
  0
VERTEX
  8
fence17
 10
0.0
 20
0.0
 30
0.0
 70
   128
 71
   13
 72
   5
 73
   7
  0
VERTEX
  8
fence17
 10
0.0
 20
0.0
 30
0.0
 70
   128
 71
   15
 72
   9
 73
   10
  0
VERTEX
  8
fence17
 10
0.0
 20
0.0
 30
0.0
 70
   128
 71
   11
 72
   15
 73
   16
  0
VERTEX
  8
fence17
 10
0.0
 20
0.0
 30
0.0
 70
   128
 71
   14
 72
   7
 73
   9
  0
VERTEX
  8
fence17
 10
0.0
 20
0.0
 30
0.0
 70
   128
 71
   7
 72
   1
 73
   9
  0
VERTEX
  8
fence17
 10
0.0
 20
0.0
 30
0.0
 70
   128
 71
   13
 72
   6
 73
   12
  0
VERTEX
  8
fence17
 10
0.0
 20
0.0
 30
0.0
 70
   128
 71
   6
 72
   4
 73
   12
  0
VERTEX
  8
fence17
 10
0.0
 20
0.0
 30
0.0
 70
   128
 71
   43
 72
   55
 73
   56
  0
VERTEX
  8
fence17
 10
0.0
 20
0.0
 30
0.0
 70
   128
 71
   19
 72
   43
 73
   44
  0
VERTEX
  8
fence17
 10
0.0
 20
0.0
 30
0.0
 70
   128
 71
   45
 72
   23
 73
   21
  0
VERTEX
  8
fence17
 10
0.0
 20
0.0
 30
0.0
 70
   128
 71
   45
 72
   57
 73
   58
  0
VERTEX
  8
fence17
 10
0.0
 20
0.0
 30
0.0
 70
   128
 71
   56
 72
   22
 73
   24
  0
VERTEX
  8
fence17
 10
0.0
 20
0.0
 30
0.0
 70
   128
 71
   47
 72
   27
 73
   25
  0
VERTEX
  8
fence17
 10
0.0
 20
0.0
 30
0.0
 70
   128
 71
   47
 72
   59
 73
   60
  0
VERTEX
  8
fence17
 10
0.0
 20
0.0
 30
0.0
 70
   128
 71
   23
 72
   45
 73
   46
  0
VERTEX
  8
fence17
 10
0.0
 20
0.0
 30
0.0
 70
   128
 71
   49
 72
   31
 73
   29
  0
VERTEX
  8
fence17
 10
0.0
 20
0.0
 30
0.0
 70
   128
 71
   49
 72
   61
 73
   62
  0
VERTEX
  8
fence17
 10
0.0
 20
0.0
 30
0.0
 70
   128
 71
   46
 72
   58
 73
   59
  0
VERTEX
  8
fence17
 10
0.0
 20
0.0
 30
0.0
 70
   128
 71
   51
 72
   35
 73
   33
  0
VERTEX
  8
fence17
 10
0.0
 20
0.0
 30
0.0
 70
   128
 71
   51
 72
   63
 73
   64
  0
VERTEX
  8
fence17
 10
0.0
 20
0.0
 30
0.0
 70
   128
 71
   27
 72
   47
 73
   48
  0
VERTEX
  8
fence17
 10
0.0
 20
0.0
 30
0.0
 70
   128
 71
   53
 72
   39
 73
   37
  0
VERTEX
  8
fence17
 10
0.0
 20
0.0
 30
0.0
 70
   128
 71
   53
 72
   65
 73
   66
  0
VERTEX
  8
fence17
 10
0.0
 20
0.0
 30
0.0
 70
   128
 71
   48
 72
   60
 73
   61
  0
VERTEX
  8
fence17
 10
0.0
 20
0.0
 30
0.0
 70
   128
 71
   43
 72
   19
 73
   41
  0
VERTEX
  8
fence17
 10
0.0
 20
0.0
 30
0.0
 70
   128
 71
   57
 72
   45
 73
   44
  0
VERTEX
  8
fence17
 10
0.0
 20
0.0
 30
0.0
 70
   128
 71
   31
 72
   49
 73
   50
  0
VERTEX
  8
fence17
 10
0.0
 20
0.0
 30
0.0
 70
   128
 71
   58
 72
   26
 73
   28
  0
VERTEX
  8
fence17
 10
0.0
 20
0.0
 30
0.0
 70
   128
 71
   60
 72
   30
 73
   32
  0
VERTEX
  8
fence17
 10
0.0
 20
0.0
 30
0.0
 70
   128
 71
   50
 72
   62
 73
   63
  0
VERTEX
  8
fence17
 10
0.0
 20
0.0
 30
0.0
 70
   128
 71
   62
 72
   34
 73
   36
  0
VERTEX
  8
fence17
 10
0.0
 20
0.0
 30
0.0
 70
   128
 71
   64
 72
   38
 73
   40
  0
VERTEX
  8
fence17
 10
0.0
 20
0.0
 30
0.0
 70
   128
 71
   35
 72
   51
 73
   52
  0
VERTEX
  8
fence17
 10
0.0
 20
0.0
 30
0.0
 70
   128
 71
   66
 72
   42
 73
   20
  0
VERTEX
  8
fence17
 10
0.0
 20
0.0
 30
0.0
 70
   128
 71
   55
 72
   20
 73
   22
  0
VERTEX
  8
fence17
 10
0.0
 20
0.0
 30
0.0
 70
   128
 71
   52
 72
   64
 73
   65
  0
VERTEX
  8
fence17
 10
0.0
 20
0.0
 30
0.0
 70
   128
 71
   57
 72
   24
 73
   26
  0
VERTEX
  8
fence17
 10
0.0
 20
0.0
 30
0.0
 70
   128
 71
   59
 72
   28
 73
   30
  0
VERTEX
  8
fence17
 10
0.0
 20
0.0
 30
0.0
 70
   128
 71
   39
 72
   53
 73
   54
  0
VERTEX
  8
fence17
 10
0.0
 20
0.0
 30
0.0
 70
   128
 71
   61
 72
   32
 73
   34
  0
VERTEX
  8
fence17
 10
0.0
 20
0.0
 30
0.0
 70
   128
 71
   63
 72
   36
 73
   38
  0
VERTEX
  8
fence17
 10
0.0
 20
0.0
 30
0.0
 70
   128
 71
   54
 72
   66
 73
   55
  0
VERTEX
  8
fence17
 10
0.0
 20
0.0
 30
0.0
 70
   128
 71
   65
 72
   40
 73
   42
  0
VERTEX
  8
fence17
 10
0.0
 20
0.0
 30
0.0
 70
   128
 71
   23
 72
   41
 73
   19
  0
VERTEX
  8
fence17
 10
0.0
 20
0.0
 30
0.0
 70
   128
 71
   35
 72
   41
 73
   23
  0
VERTEX
  8
fence17
 10
0.0
 20
0.0
 30
0.0
 70
   128
 71
   41
 72
   35
 73
   37
  0
VERTEX
  8
fence17
 10
0.0
 20
0.0
 30
0.0
 70
   128
 71
   25
 72
   27
 73
   29
  0
VERTEX
  8
fence17
 10
0.0
 20
0.0
 30
0.0
 70
   128
 71
   25
 72
   29
 73
   31
  0
VERTEX
  8
fence17
 10
0.0
 20
0.0
 30
0.0
 70
   128
 71
   31
 72
   33
 73
   35
  0
VERTEX
  8
fence17
 10
0.0
 20
0.0
 30
0.0
 70
   128
 71
   40
 72
   36
 73
   34
  0
VERTEX
  8
fence17
 10
0.0
 20
0.0
 30
0.0
 70
   128
 71
   40
 72
   38
 73
   36
  0
VERTEX
  8
fence17
 10
0.0
 20
0.0
 30
0.0
 70
   128
 71
   28
 72
   34
 73
   32
  0
VERTEX
  8
fence17
 10
0.0
 20
0.0
 30
0.0
 70
   128
 71
   42
 72
   34
 73
   28
  0
VERTEX
  8
fence17
 10
0.0
 20
0.0
 30
0.0
 70
   128
 71
   28
 72
   26
 73
   24
  0
VERTEX
  8
fence17
 10
0.0
 20
0.0
 30
0.0
 70
   128
 71
   22
 72
   20
 73
   42
  0
VERTEX
  8
fence17
 10
0.0
 20
0.0
 30
0.0
 70
   128
 71
   93
 72
   105
 73
   106
  0
VERTEX
  8
fence17
 10
0.0
 20
0.0
 30
0.0
 70
   128
 71
   69
 72
   93
 73
   94
  0
VERTEX
  8
fence17
 10
0.0
 20
0.0
 30
0.0
 70
   128
 71
   95
 72
   73
 73
   71
  0
VERTEX
  8
fence17
 10
0.0
 20
0.0
 30
0.0
 70
   128
 71
   95
 72
   107
 73
   108
  0
VERTEX
  8
fence17
 10
0.0
 20
0.0
 30
0.0
 70
   128
 71
   106
 72
   72
 73
   74
  0
VERTEX
  8
fence17
 10
0.0
 20
0.0
 30
0.0
 70
   128
 71
   97
 72
   77
 73
   75
  0
VERTEX
  8
fence17
 10
0.0
 20
0.0
 30
0.0
 70
   128
 71
   97
 72
   109
 73
   110
  0
VERTEX
  8
fence17
 10
0.0
 20
0.0
 30
0.0
 70
   128
 71
   73
 72
   95
 73
   96
  0
VERTEX
  8
fence17
 10
0.0
 20
0.0
 30
0.0
 70
   128
 71
   99
 72
   81
 73
   79
  0
VERTEX
  8
fence17
 10
0.0
 20
0.0
 30
0.0
 70
   128
 71
   99
 72
   111
 73
   112
  0
VERTEX
  8
fence17
 10
0.0
 20
0.0
 30
0.0
 70
   128
 71
   96
 72
   108
 73
   109
  0
VERTEX
  8
fence17
 10
0.0
 20
0.0
 30
0.0
 70
   128
 71
   101
 72
   85
 73
   83
  0
VERTEX
  8
fence17
 10
0.0
 20
0.0
 30
0.0
 70
   128
 71
   101
 72
   113
 73
   114
  0
VERTEX
  8
fence17
 10
0.0
 20
0.0
 30
0.0
 70
   128
 71
   77
 72
   97
 73
   98
  0
VERTEX
  8
fence17
 10
0.0
 20
0.0
 30
0.0
 70
   128
 71
   103
 72
   89
 73
   87
  0
VERTEX
  8
fence17
 10
0.0
 20
0.0
 30
0.0
 70
   128
 71
   103
 72
   115
 73
   116
  0
VERTEX
  8
fence17
 10
0.0
 20
0.0
 30
0.0
 70
   128
 71
   98
 72
   110
 73
   111
  0
VERTEX
  8
fence17
 10
0.0
 20
0.0
 30
0.0
 70
   128
 71
   93
 72
   69
 73
   91
  0
VERTEX
  8
fence17
 10
0.0
 20
0.0
 30
0.0
 70
   128
 71
   107
 72
   95
 73
   94
  0
VERTEX
  8
fence17
 10
0.0
 20
0.0
 30
0.0
 70
   128
 71
   81
 72
   99
 73
   100
  0
VERTEX
  8
fence17
 10
0.0
 20
0.0
 30
0.0
 70
   128
 71
   108
 72
   76
 73
   78
  0
VERTEX
  8
fence17
 10
0.0
 20
0.0
 30
0.0
 70
   128
 71
   110
 72
   80
 73
   82
  0
VERTEX
  8
fence17
 10
0.0
 20
0.0
 30
0.0
 70
   128
 71
   100
 72
   112
 73
   113
  0
VERTEX
  8
fence17
 10
0.0
 20
0.0
 30
0.0
 70
   128
 71
   112
 72
   84
 73
   86
  0
VERTEX
  8
fence17
 10
0.0
 20
0.0
 30
0.0
 70
   128
 71
   114
 72
   88
 73
   90
  0
VERTEX
  8
fence17
 10
0.0
 20
0.0
 30
0.0
 70
   128
 71
   85
 72
   101
 73
   102
  0
VERTEX
  8
fence17
 10
0.0
 20
0.0
 30
0.0
 70
   128
 71
   116
 72
   92
 73
   70
  0
VERTEX
  8
fence17
 10
0.0
 20
0.0
 30
0.0
 70
   128
 71
   105
 72
   70
 73
   72
  0
VERTEX
  8
fence17
 10
0.0
 20
0.0
 30
0.0
 70
   128
 71
   102
 72
   114
 73
   115
  0
VERTEX
  8
fence17
 10
0.0
 20
0.0
 30
0.0
 70
   128
 71
   107
 72
   74
 73
   76
  0
VERTEX
  8
fence17
 10
0.0
 20
0.0
 30
0.0
 70
   128
 71
   109
 72
   78
 73
   80
  0
VERTEX
  8
fence17
 10
0.0
 20
0.0
 30
0.0
 70
   128
 71
   89
 72
   103
 73
   104
  0
VERTEX
  8
fence17
 10
0.0
 20
0.0
 30
0.0
 70
   128
 71
   111
 72
   82
 73
   84
  0
VERTEX
  8
fence17
 10
0.0
 20
0.0
 30
0.0
 70
   128
 71
   113
 72
   86
 73
   88
  0
VERTEX
  8
fence17
 10
0.0
 20
0.0
 30
0.0
 70
   128
 71
   104
 72
   116
 73
   105
  0
VERTEX
  8
fence17
 10
0.0
 20
0.0
 30
0.0
 70
   128
 71
   115
 72
   90
 73
   92
  0
VERTEX
  8
fence17
 10
0.0
 20
0.0
 30
0.0
 70
   128
 71
   73
 72
   91
 73
   69
  0
VERTEX
  8
fence17
 10
0.0
 20
0.0
 30
0.0
 70
   128
 71
   85
 72
   91
 73
   73
  0
VERTEX
  8
fence17
 10
0.0
 20
0.0
 30
0.0
 70
   128
 71
   91
 72
   85
 73
   87
  0
VERTEX
  8
fence17
 10
0.0
 20
0.0
 30
0.0
 70
   128
 71
   75
 72
   77
 73
   79
  0
VERTEX
  8
fence17
 10
0.0
 20
0.0
 30
0.0
 70
   128
 71
   75
 72
   79
 73
   81
  0
VERTEX
  8
fence17
 10
0.0
 20
0.0
 30
0.0
 70
   128
 71
   81
 72
   83
 73
   85
  0
VERTEX
  8
fence17
 10
0.0
 20
0.0
 30
0.0
 70
   128
 71
   90
 72
   86
 73
   84
  0
VERTEX
  8
fence17
 10
0.0
 20
0.0
 30
0.0
 70
   128
 71
   90
 72
   88
 73
   86
  0
VERTEX
  8
fence17
 10
0.0
 20
0.0
 30
0.0
 70
   128
 71
   78
 72
   84
 73
   82
  0
VERTEX
  8
fence17
 10
0.0
 20
0.0
 30
0.0
 70
   128
 71
   92
 72
   84
 73
   78
  0
VERTEX
  8
fence17
 10
0.0
 20
0.0
 30
0.0
 70
   128
 71
   78
 72
   76
 73
   74
  0
VERTEX
  8
fence17
 10
0.0
 20
0.0
 30
0.0
 70
   128
 71
   72
 72
   70
 73
   92
  0
VERTEX
  8
fence17
 10
0.0
 20
0.0
 30
0.0
 70
   128
 71
   14
 72
   11
 73
   8
  0
VERTEX
  8
fence17
 10
0.0
 20
0.0
 30
0.0
 70
   128
 71
   4
 72
   11
 73
   12
  0
VERTEX
  8
fence17
 10
0.0
 20
0.0
 30
0.0
 70
   128
 71
   6
 72
   2
 73
   4
  0
VERTEX
  8
fence17
 10
0.0
 20
0.0
 30
0.0
 70
   128
 71
   14
 72
   6
 73
   13
  0
VERTEX
  8
fence17
 10
0.0
 20
0.0
 30
0.0
 70
   128
 71
   5
 72
   1
 73
   7
  0
VERTEX
  8
fence17
 10
0.0
 20
0.0
 30
0.0
 70
   128
 71
   10
 72
   13
 73
   16
  0
VERTEX
  8
fence17
 10
0.0
 20
0.0
 30
0.0
 70
   128
 71
   9
 72
   3
 73
   10
  0
VERTEX
  8
fence17
 10
0.0
 20
0.0
 30
0.0
 70
   128
 71
   13
 72
   7
 73
   14
  0
VERTEX
  8
fence17
 10
0.0
 20
0.0
 30
0.0
 70
   128
 71
   15
 72
   10
 73
   16
  0
VERTEX
  8
fence17
 10
0.0
 20
0.0
 30
0.0
 70
   128
 71
   11
 72
   16
 73
   12
  0
VERTEX
  8
fence17
 10
0.0
 20
0.0
 30
0.0
 70
   128
 71
   14
 72
   9
 73
   15
  0
VERTEX
  8
fence17
 10
0.0
 20
0.0
 30
0.0
 70
   128
 71
   13
 72
   12
 73
   16
  0
VERTEX
  8
fence17
 10
0.0
 20
0.0
 30
0.0
 70
   128
 71
   43
 72
   56
 73
   44
  0
VERTEX
  8
fence17
 10
0.0
 20
0.0
 30
0.0
 70
   128
 71
   19
 72
   44
 73
   21
  0
VERTEX
  8
fence17
 10
0.0
 20
0.0
 30
0.0
 70
   128
 71
   45
 72
   21
 73
   44
  0
VERTEX
  8
fence17
 10
0.0
 20
0.0
 30
0.0
 70
   128
 71
   45
 72
   58
 73
   46
  0
VERTEX
  8
fence17
 10
0.0
 20
0.0
 30
0.0
 70
   128
 71
   56
 72
   24
 73
   57
  0
VERTEX
  8
fence17
 10
0.0
 20
0.0
 30
0.0
 70
   128
 71
   47
 72
   25
 73
   46
  0
VERTEX
  8
fence17
 10
0.0
 20
0.0
 30
0.0
 70
   128
 71
   47
 72
   60
 73
   48
  0
VERTEX
  8
fence17
 10
0.0
 20
0.0
 30
0.0
 70
   128
 71
   23
 72
   46
 73
   25
  0
VERTEX
  8
fence17
 10
0.0
 20
0.0
 30
0.0
 70
   128
 71
   49
 72
   29
 73
   48
  0
VERTEX
  8
fence17
 10
0.0
 20
0.0
 30
0.0
 70
   128
 71
   49
 72
   62
 73
   50
  0
VERTEX
  8
fence17
 10
0.0
 20
0.0
 30
0.0
 70
   128
 71
   46
 72
   59
 73
   47
  0
VERTEX
  8
fence17
 10
0.0
 20
0.0
 30
0.0
 70
   128
 71
   51
 72
   33
 73
   50
  0
VERTEX
  8
fence17
 10
0.0
 20
0.0
 30
0.0
 70
   128
 71
   51
 72
   64
 73
   52
  0
VERTEX
  8
fence17
 10
0.0
 20
0.0
 30
0.0
 70
   128
 71
   27
 72
   48
 73
   29
  0
VERTEX
  8
fence17
 10
0.0
 20
0.0
 30
0.0
 70
   128
 71
   53
 72
   37
 73
   52
  0
VERTEX
  8
fence17
 10
0.0
 20
0.0
 30
0.0
 70
   128
 71
   53
 72
   66
 73
   54
  0
VERTEX
  8
fence17
 10
0.0
 20
0.0
 30
0.0
 70
   128
 71
   48
 72
   61
 73
   49
  0
VERTEX
  8
fence17
 10
0.0
 20
0.0
 30
0.0
 70
   128
 71
   43
 72
   41
 73
   54
  0
VERTEX
  8
fence17
 10
0.0
 20
0.0
 30
0.0
 70
   128
 71
   57
 72
   44
 73
   56
  0
VERTEX
  8
fence17
 10
0.0
 20
0.0
 30
0.0
 70
   128
 71
   31
 72
   50
 73
   33
  0
VERTEX
  8
fence17
 10
0.0
 20
0.0
 30
0.0
 70
   128
 71
   58
 72
   28
 73
   59
  0
VERTEX
  8
fence17
 10
0.0
 20
0.0
 30
0.0
 70
   128
 71
   60
 72
   32
 73
   61
  0
VERTEX
  8
fence17
 10
0.0
 20
0.0
 30
0.0
 70
   128
 71
   50
 72
   63
 73
   51
  0
VERTEX
  8
fence17
 10
0.0
 20
0.0
 30
0.0
 70
   128
 71
   62
 72
   36
 73
   63
  0
VERTEX
  8
fence17
 10
0.0
 20
0.0
 30
0.0
 70
   128
 71
   64
 72
   40
 73
   65
  0
VERTEX
  8
fence17
 10
0.0
 20
0.0
 30
0.0
 70
   128
 71
   35
 72
   52
 73
   37
  0
VERTEX
  8
fence17
 10
0.0
 20
0.0
 30
0.0
 70
   128
 71
   66
 72
   20
 73
   55
  0
VERTEX
  8
fence17
 10
0.0
 20
0.0
 30
0.0
 70
   128
 71
   55
 72
   22
 73
   56
  0
VERTEX
  8
fence17
 10
0.0
 20
0.0
 30
0.0
 70
   128
 71
   52
 72
   65
 73
   53
  0
VERTEX
  8
fence17
 10
0.0
 20
0.0
 30
0.0
 70
   128
 71
   57
 72
   26
 73
   58
  0
VERTEX
  8
fence17
 10
0.0
 20
0.0
 30
0.0
 70
   128
 71
   59
 72
   30
 73
   60
  0
VERTEX
  8
fence17
 10
0.0
 20
0.0
 30
0.0
 70
   128
 71
   39
 72
   54
 73
   41
  0
VERTEX
  8
fence17
 10
0.0
 20
0.0
 30
0.0
 70
   128
 71
   61
 72
   34
 73
   62
  0
VERTEX
  8
fence17
 10
0.0
 20
0.0
 30
0.0
 70
   128
 71
   63
 72
   38
 73
   64
  0
VERTEX
  8
fence17
 10
0.0
 20
0.0
 30
0.0
 70
   128
 71
   54
 72
   55
 73
   43
  0
VERTEX
  8
fence17
 10
0.0
 20
0.0
 30
0.0
 70
   128
 71
   65
 72
   42
 73
   66
  0
VERTEX
  8
fence17
 10
0.0
 20
0.0
 30
0.0
 70
   128
 71
   23
 72
   19
 73
   21
  0
VERTEX
  8
fence17
 10
0.0
 20
0.0
 30
0.0
 70
   128
 71
   35
 72
   23
 73
   25
  0
VERTEX
  8
fence17
 10
0.0
 20
0.0
 30
0.0
 70
   128
 71
   41
 72
   37
 73
   39
  0
VERTEX
  8
fence17
 10
0.0
 20
0.0
 30
0.0
 70
   128
 71
   25
 72
   31
 73
   35
  0
VERTEX
  8
fence17
 10
0.0
 20
0.0
 30
0.0
 70
   128
 71
   40
 72
   34
 73
   42
  0
VERTEX
  8
fence17
 10
0.0
 20
0.0
 30
0.0
 70
   128
 71
   28
 72
   32
 73
   30
  0
VERTEX
  8
fence17
 10
0.0
 20
0.0
 30
0.0
 70
   128
 71
   42
 72
   28
 73
   22
  0
VERTEX
  8
fence17
 10
0.0
 20
0.0
 30
0.0
 70
   128
 71
   28
 72
   24
 73
   22
  0
VERTEX
  8
fence17
 10
0.0
 20
0.0
 30
0.0
 70
   128
 71
   93
 72
   106
 73
   94
  0
VERTEX
  8
fence17
 10
0.0
 20
0.0
 30
0.0
 70
   128
 71
   69
 72
   94
 73
   71
  0
VERTEX
  8
fence17
 10
0.0
 20
0.0
 30
0.0
 70
   128
 71
   95
 72
   71
 73
   94
  0
VERTEX
  8
fence17
 10
0.0
 20
0.0
 30
0.0
 70
   128
 71
   95
 72
   108
 73
   96
  0
VERTEX
  8
fence17
 10
0.0
 20
0.0
 30
0.0
 70
   128
 71
   106
 72
   74
 73
   107
  0
VERTEX
  8
fence17
 10
0.0
 20
0.0
 30
0.0
 70
   128
 71
   97
 72
   75
 73
   96
  0
VERTEX
  8
fence17
 10
0.0
 20
0.0
 30
0.0
 70
   128
 71
   97
 72
   110
 73
   98
  0
VERTEX
  8
fence17
 10
0.0
 20
0.0
 30
0.0
 70
   128
 71
   73
 72
   96
 73
   75
  0
VERTEX
  8
fence17
 10
0.0
 20
0.0
 30
0.0
 70
   128
 71
   99
 72
   79
 73
   98
  0
VERTEX
  8
fence17
 10
0.0
 20
0.0
 30
0.0
 70
   128
 71
   99
 72
   112
 73
   100
  0
VERTEX
  8
fence17
 10
0.0
 20
0.0
 30
0.0
 70
   128
 71
   96
 72
   109
 73
   97
  0
VERTEX
  8
fence17
 10
0.0
 20
0.0
 30
0.0
 70
   128
 71
   101
 72
   83
 73
   100
  0
VERTEX
  8
fence17
 10
0.0
 20
0.0
 30
0.0
 70
   128
 71
   101
 72
   114
 73
   102
  0
VERTEX
  8
fence17
 10
0.0
 20
0.0
 30
0.0
 70
   128
 71
   77
 72
   98
 73
   79
  0
VERTEX
  8
fence17
 10
0.0
 20
0.0
 30
0.0
 70
   128
 71
   103
 72
   87
 73
   102
  0
VERTEX
  8
fence17
 10
0.0
 20
0.0
 30
0.0
 70
   128
 71
   103
 72
   116
 73
   104
  0
VERTEX
  8
fence17
 10
0.0
 20
0.0
 30
0.0
 70
   128
 71
   98
 72
   111
 73
   99
  0
VERTEX
  8
fence17
 10
0.0
 20
0.0
 30
0.0
 70
   128
 71
   93
 72
   91
 73
   104
  0
VERTEX
  8
fence17
 10
0.0
 20
0.0
 30
0.0
 70
   128
 71
   107
 72
   94
 73
   106
  0
VERTEX
  8
fence17
 10
0.0
 20
0.0
 30
0.0
 70
   128
 71
   81
 72
   100
 73
   83
  0
VERTEX
  8
fence17
 10
0.0
 20
0.0
 30
0.0
 70
   128
 71
   108
 72
   78
 73
   109
  0
VERTEX
  8
fence17
 10
0.0
 20
0.0
 30
0.0
 70
   128
 71
   110
 72
   82
 73
   111
  0
VERTEX
  8
fence17
 10
0.0
 20
0.0
 30
0.0
 70
   128
 71
   100
 72
   113
 73
   101
  0
VERTEX
  8
fence17
 10
0.0
 20
0.0
 30
0.0
 70
   128
 71
   112
 72
   86
 73
   113
  0
VERTEX
  8
fence17
 10
0.0
 20
0.0
 30
0.0
 70
   128
 71
   114
 72
   90
 73
   115
  0
VERTEX
  8
fence17
 10
0.0
 20
0.0
 30
0.0
 70
   128
 71
   85
 72
   102
 73
   87
  0
VERTEX
  8
fence17
 10
0.0
 20
0.0
 30
0.0
 70
   128
 71
   116
 72
   70
 73
   105
  0
VERTEX
  8
fence17
 10
0.0
 20
0.0
 30
0.0
 70
   128
 71
   105
 72
   72
 73
   106
  0
VERTEX
  8
fence17
 10
0.0
 20
0.0
 30
0.0
 70
   128
 71
   102
 72
   115
 73
   103
  0
VERTEX
  8
fence17
 10
0.0
 20
0.0
 30
0.0
 70
   128
 71
   107
 72
   76
 73
   108
  0
VERTEX
  8
fence17
 10
0.0
 20
0.0
 30
0.0
 70
   128
 71
   109
 72
   80
 73
   110
  0
VERTEX
  8
fence17
 10
0.0
 20
0.0
 30
0.0
 70
   128
 71
   89
 72
   104
 73
   91
  0
VERTEX
  8
fence17
 10
0.0
 20
0.0
 30
0.0
 70
   128
 71
   111
 72
   84
 73
   112
  0
VERTEX
  8
fence17
 10
0.0
 20
0.0
 30
0.0
 70
   128
 71
   113
 72
   88
 73
   114
  0
VERTEX
  8
fence17
 10
0.0
 20
0.0
 30
0.0
 70
   128
 71
   104
 72
   105
 73
   93
  0
VERTEX
  8
fence17
 10
0.0
 20
0.0
 30
0.0
 70
   128
 71
   115
 72
   92
 73
   116
  0
VERTEX
  8
fence17
 10
0.0
 20
0.0
 30
0.0
 70
   128
 71
   73
 72
   69
 73
   71
  0
VERTEX
  8
fence17
 10
0.0
 20
0.0
 30
0.0
 70
   128
 71
   85
 72
   73
 73
   75
  0
VERTEX
  8
fence17
 10
0.0
 20
0.0
 30
0.0
 70
   128
 71
   91
 72
   87
 73
   89
  0
VERTEX
  8
fence17
 10
0.0
 20
0.0
 30
0.0
 70
   128
 71
   75
 72
   81
 73
   85
  0
VERTEX
  8
fence17
 10
0.0
 20
0.0
 30
0.0
 70
   128
 71
   90
 72
   84
 73
   92
  0
VERTEX
  8
fence17
 10
0.0
 20
0.0
 30
0.0
 70
   128
 71
   78
 72
   82
 73
   80
  0
VERTEX
  8
fence17
 10
0.0
 20
0.0
 30
0.0
 70
   128
 71
   92
 72
   78
 73
   72
  0
VERTEX
  8
fence17
 10
0.0
 20
0.0
 30
0.0
 70
   128
 71
   78
 72
   74
 73
   72
  0
SEQEND
  0
ENDSEC
  0
EOF
