999
FBX AutoCAD (*.DXF) exporter
  0
SECTION
  2
HEADER
  9
$ACADVER
  1
AC1008
  9
$UCSORG
 10
0.0
 20
0.0
 30
0.0
  9
$UCSXDIR
 10
1.0
 20
0.0
 30
0.0
  9
$TILEMODE
 70
   1
  9
$UCSYDIR
 10
0.0
 20
1.0
 30
0.0
  0
ENDSEC
  0
SECTION
  2
TABLES
  0
TABLE
  2
LTYPE
 70
   1
  0
LTYPE
  2
CONTINUOUS
 70
   64
  3
Solid line
 72
   65
 73
   0
 40
0.0
  0
ENDTAB
  0
TABLE
  2
LAYER
 70
   1
  0
LAYER
  2
fence18
 70
   0
 62
   250
  6
CONTINUOUS
  0
ENDTAB
  0
ENDSEC
  0
SECTION
  2
BLOCKS
  0
ENDSEC
  0
SECTION
  2
ENTITIES
  0
POLYLINE
  8
fence18
 66
   1
 10
0.0
 20
0.0
 30
0.0
 70
   64
 71
   74
 72
   132
  0
VERTEX
  8
fence18
 10
-83.334836
 20
7.697941
 30
11.468802
 70
   192
  0
VERTEX
  8
fence18
 10
86.399373
 20
7.697941
 30
11.468802
 70
   192
  0
VERTEX
  8
fence18
 10
-83.334836
 20
25.807046
 30
11.468802
 70
   192
  0
VERTEX
  8
fence18
 10
86.399373
 20
25.807046
 30
11.468802
 70
   192
  0
VERTEX
  8
fence18
 10
-83.334836
 20
25.807046
 30
6.489611
 70
   192
  0
VERTEX
  8
fence18
 10
86.399373
 20
25.807046
 30
6.489611
 70
   192
  0
VERTEX
  8
fence18
 10
-83.334836
 20
7.697941
 30
6.489611
 70
   192
  0
VERTEX
  8
fence18
 10
86.399373
 20
7.697941
 30
6.489611
 70
   192
  0
VERTEX
  8
fence18
 10
-66.126120
 20
7.697941
 30
11.468802
 70
   192
  0
VERTEX
  8
fence18
 10
-66.126120
 20
25.807046
 30
11.468802
 70
   192
  0
VERTEX
  8
fence18
 10
68.217479
 20
7.697941
 30
11.468802
 70
   192
  0
VERTEX
  8
fence18
 10
68.217479
 20
25.807046
 30
11.468802
 70
   192
  0
VERTEX
  8
fence18
 10
76.126537
 20
-18.929796
 30
-2.580727
 70
   192
  0
VERTEX
  8
fence18
 10
76.126537
 20
94.041617
 30
-2.580727
 70
   192
  0
VERTEX
  8
fence18
 10
73.887854
 20
-18.929796
 30
9.445314
 70
   192
  0
VERTEX
  8
fence18
 10
73.887854
 20
94.041617
 30
9.445314
 70
   192
  0
VERTEX
  8
fence18
 10
80.200801
 20
-18.929796
 30
8.953471
 70
   192
  0
VERTEX
  8
fence18
 10
80.200801
 20
94.041617
 30
8.953471
 70
   192
  0
VERTEX
  8
fence18
 10
85.422052
 20
-18.929796
 30
5.371050
 70
   192
  0
VERTEX
  8
fence18
 10
85.422052
 20
94.041617
 30
5.371050
 70
   192
  0
VERTEX
  8
fence18
 10
88.152578
 20
-18.929796
 30
-0.342044
 70
   192
  0
VERTEX
  8
fence18
 10
88.152578
 20
94.041617
 30
-0.342044
 70
   192
  0
VERTEX
  8
fence18
 10
87.660735
 20
-18.929796
 30
-6.654991
 70
   192
  0
VERTEX
  8
fence18
 10
87.660735
 20
94.041617
 30
-6.654991
 70
   192
  0
VERTEX
  8
fence18
 10
84.078314
 20
-18.929796
 30
-11.876242
 70
   192
  0
VERTEX
  8
fence18
 10
84.078314
 20
94.041617
 30
-11.876242
 70
   192
  0
VERTEX
  8
fence18
 10
78.365220
 20
-18.929796
 30
-14.606768
 70
   192
  0
VERTEX
  8
fence18
 10
78.365220
 20
94.041617
 30
-14.606768
 70
   192
  0
VERTEX
  8
fence18
 10
72.052273
 20
-18.929796
 30
-14.114925
 70
   192
  0
VERTEX
  8
fence18
 10
72.052273
 20
94.041617
 30
-14.114925
 70
   192
  0
VERTEX
  8
fence18
 10
66.831022
 20
-18.929796
 30
-10.532504
 70
   192
  0
VERTEX
  8
fence18
 10
66.831022
 20
94.041617
 30
-10.532504
 70
   192
  0
VERTEX
  8
fence18
 10
64.100496
 20
-18.929796
 30
-4.819410
 70
   192
  0
VERTEX
  8
fence18
 10
64.100496
 20
94.041617
 30
-4.819410
 70
   192
  0
VERTEX
  8
fence18
 10
64.592339
 20
-18.929796
 30
1.493537
 70
   192
  0
VERTEX
  8
fence18
 10
64.592339
 20
94.041617
 30
1.493537
 70
   192
  0
VERTEX
  8
fence18
 10
68.174760
 20
-18.929796
 30
6.714788
 70
   192
  0
VERTEX
  8
fence18
 10
68.174760
 20
94.041617
 30
6.714788
 70
   192
  0
VERTEX
  8
fence18
 10
72.745598
 20
4.365990
 30
6.323235
 70
   192
  0
VERTEX
  8
fence18
 10
79.058545
 20
4.365990
 30
5.831393
 70
   192
  0
VERTEX
  8
fence18
 10
84.279796
 20
4.365990
 30
2.248972
 70
   192
  0
VERTEX
  8
fence18
 10
87.010321
 20
4.365990
 30
-3.464122
 70
   192
  0
VERTEX
  8
fence18
 10
86.518479
 20
4.365990
 30
-9.777069
 70
   192
  0
VERTEX
  8
fence18
 10
82.936058
 20
4.365990
 30
-14.998320
 70
   192
  0
VERTEX
  8
fence18
 10
77.222964
 20
4.365990
 30
-17.728846
 70
   192
  0
VERTEX
  8
fence18
 10
70.910017
 20
4.365990
 30
-17.237004
 70
   192
  0
VERTEX
  8
fence18
 10
65.688766
 20
4.365990
 30
-13.654582
 70
   192
  0
VERTEX
  8
fence18
 10
62.958240
 20
4.365990
 30
-7.941489
 70
   192
  0
VERTEX
  8
fence18
 10
63.450082
 20
4.365990
 30
-1.628542
 70
   192
  0
VERTEX
  8
fence18
 10
67.032504
 20
4.365990
 30
3.592710
 70
   192
  0
VERTEX
  8
fence18
 10
75.926184
 20
61.630496
 30
8.121393
 70
   192
  0
VERTEX
  8
fence18
 10
82.239131
 20
61.416065
 30
7.629550
 70
   192
  0
VERTEX
  8
fence18
 10
87.460382
 20
60.830230
 30
4.047129
 70
   192
  0
VERTEX
  8
fence18
 10
90.190907
 20
60.029964
 30
-1.665965
 70
   192
  0
VERTEX
  8
fence18
 10
89.699065
 20
59.229698
 30
-7.978912
 70
   192
  0
VERTEX
  8
fence18
 10
86.116644
 20
58.643863
 30
-13.200163
 70
   192
  0
VERTEX
  8
fence18
 10
80.403550
 20
58.429433
 30
-15.930688
 70
   192
  0
VERTEX
  8
fence18
 10
74.090603
 20
58.643863
 30
-15.438846
 70
   192
  0
VERTEX
  8
fence18
 10
68.869352
 20
59.229698
 30
-11.856425
 70
   192
  0
VERTEX
  8
fence18
 10
66.138826
 20
60.029964
 30
-6.143331
 70
   192
  0
VERTEX
  8
fence18
 10
66.630669
 20
60.830230
 30
0.169616
 70
   192
  0
VERTEX
  8
fence18
 10
70.213090
 20
61.416065
 30
5.390867
 70
   192
  0
VERTEX
  8
fence18
 10
-83.334836
 20
62.454640
 30
11.468802
 70
   192
  0
VERTEX
  8
fence18
 10
86.399373
 20
62.454640
 30
11.468802
 70
   192
  0
VERTEX
  8
fence18
 10
-83.334836
 20
80.563745
 30
11.468802
 70
   192
  0
VERTEX
  8
fence18
 10
86.399373
 20
80.563745
 30
11.468802
 70
   192
  0
VERTEX
  8
fence18
 10
-83.334836
 20
80.563745
 30
6.489611
 70
   192
  0
VERTEX
  8
fence18
 10
86.399373
 20
80.563745
 30
6.489611
 70
   192
  0
VERTEX
  8
fence18
 10
-83.334836
 20
62.454640
 30
6.489611
 70
   192
  0
VERTEX
  8
fence18
 10
86.399373
 20
62.454640
 30
6.489611
 70
   192
  0
VERTEX
  8
fence18
 10
-66.126120
 20
62.454640
 30
11.468802
 70
   192
  0
VERTEX
  8
fence18
 10
-66.126120
 20
80.563745
 30
11.468802
 70
   192
  0
VERTEX
  8
fence18
 10
68.217479
 20
62.454640
 30
11.468802
 70
   192
  0
VERTEX
  8
fence18
 10
68.217479
 20
80.563745
 30
11.468802
 70
   192
  0
VERTEX
  8
fence18
 10
0.0
 20
0.0
 30
0.0
 70
   128
 71
   7
 72
   1
 73
   9
  0
VERTEX
  8
fence18
 10
0.0
 20
0.0
 30
0.0
 70
   128
 71
   3
 72
   5
 73
   10
  0
VERTEX
  8
fence18
 10
0.0
 20
0.0
 30
0.0
 70
   128
 71
   4
 72
   2
 73
   11
  0
VERTEX
  8
fence18
 10
0.0
 20
0.0
 30
0.0
 70
   128
 71
   6
 72
   8
 73
   2
  0
VERTEX
  8
fence18
 10
0.0
 20
0.0
 30
0.0
 70
   128
 71
   7
 72
   8
 73
   6
  0
VERTEX
  8
fence18
 10
0.0
 20
0.0
 30
0.0
 70
   128
 71
   5
 72
   3
 73
   1
  0
VERTEX
  8
fence18
 10
0.0
 20
0.0
 30
0.0
 70
   128
 71
   7
 72
   9
 73
   11
  0
VERTEX
  8
fence18
 10
0.0
 20
0.0
 30
0.0
 70
   128
 71
   5
 72
   6
 73
   12
  0
VERTEX
  8
fence18
 10
0.0
 20
0.0
 30
0.0
 70
   128
 71
   9
 72
   1
 73
   3
  0
VERTEX
  8
fence18
 10
0.0
 20
0.0
 30
0.0
 70
   128
 71
   11
 72
   2
 73
   8
  0
VERTEX
  8
fence18
 10
0.0
 20
0.0
 30
0.0
 70
   128
 71
   6
 72
   4
 73
   12
  0
VERTEX
  8
fence18
 10
0.0
 20
0.0
 30
0.0
 70
   128
 71
   11
 72
   9
 73
   10
  0
VERTEX
  8
fence18
 10
0.0
 20
0.0
 30
0.0
 70
   128
 71
   39
 72
   51
 73
   52
  0
VERTEX
  8
fence18
 10
0.0
 20
0.0
 30
0.0
 70
   128
 71
   15
 72
   39
 73
   40
  0
VERTEX
  8
fence18
 10
0.0
 20
0.0
 30
0.0
 70
   128
 71
   41
 72
   19
 73
   17
  0
VERTEX
  8
fence18
 10
0.0
 20
0.0
 30
0.0
 70
   128
 71
   41
 72
   53
 73
   54
  0
VERTEX
  8
fence18
 10
0.0
 20
0.0
 30
0.0
 70
   128
 71
   52
 72
   18
 73
   20
  0
VERTEX
  8
fence18
 10
0.0
 20
0.0
 30
0.0
 70
   128
 71
   43
 72
   23
 73
   21
  0
VERTEX
  8
fence18
 10
0.0
 20
0.0
 30
0.0
 70
   128
 71
   43
 72
   55
 73
   56
  0
VERTEX
  8
fence18
 10
0.0
 20
0.0
 30
0.0
 70
   128
 71
   19
 72
   41
 73
   42
  0
VERTEX
  8
fence18
 10
0.0
 20
0.0
 30
0.0
 70
   128
 71
   45
 72
   27
 73
   25
  0
VERTEX
  8
fence18
 10
0.0
 20
0.0
 30
0.0
 70
   128
 71
   45
 72
   57
 73
   58
  0
VERTEX
  8
fence18
 10
0.0
 20
0.0
 30
0.0
 70
   128
 71
   42
 72
   54
 73
   55
  0
VERTEX
  8
fence18
 10
0.0
 20
0.0
 30
0.0
 70
   128
 71
   47
 72
   31
 73
   29
  0
VERTEX
  8
fence18
 10
0.0
 20
0.0
 30
0.0
 70
   128
 71
   47
 72
   59
 73
   60
  0
VERTEX
  8
fence18
 10
0.0
 20
0.0
 30
0.0
 70
   128
 71
   23
 72
   43
 73
   44
  0
VERTEX
  8
fence18
 10
0.0
 20
0.0
 30
0.0
 70
   128
 71
   49
 72
   35
 73
   33
  0
VERTEX
  8
fence18
 10
0.0
 20
0.0
 30
0.0
 70
   128
 71
   49
 72
   61
 73
   62
  0
VERTEX
  8
fence18
 10
0.0
 20
0.0
 30
0.0
 70
   128
 71
   44
 72
   56
 73
   57
  0
VERTEX
  8
fence18
 10
0.0
 20
0.0
 30
0.0
 70
   128
 71
   39
 72
   15
 73
   37
  0
VERTEX
  8
fence18
 10
0.0
 20
0.0
 30
0.0
 70
   128
 71
   53
 72
   41
 73
   40
  0
VERTEX
  8
fence18
 10
0.0
 20
0.0
 30
0.0
 70
   128
 71
   27
 72
   45
 73
   46
  0
VERTEX
  8
fence18
 10
0.0
 20
0.0
 30
0.0
 70
   128
 71
   54
 72
   22
 73
   24
  0
VERTEX
  8
fence18
 10
0.0
 20
0.0
 30
0.0
 70
   128
 71
   56
 72
   26
 73
   28
  0
VERTEX
  8
fence18
 10
0.0
 20
0.0
 30
0.0
 70
   128
 71
   46
 72
   58
 73
   59
  0
VERTEX
  8
fence18
 10
0.0
 20
0.0
 30
0.0
 70
   128
 71
   58
 72
   30
 73
   32
  0
VERTEX
  8
fence18
 10
0.0
 20
0.0
 30
0.0
 70
   128
 71
   60
 72
   34
 73
   36
  0
VERTEX
  8
fence18
 10
0.0
 20
0.0
 30
0.0
 70
   128
 71
   31
 72
   47
 73
   48
  0
VERTEX
  8
fence18
 10
0.0
 20
0.0
 30
0.0
 70
   128
 71
   62
 72
   38
 73
   16
  0
VERTEX
  8
fence18
 10
0.0
 20
0.0
 30
0.0
 70
   128
 71
   51
 72
   16
 73
   18
  0
VERTEX
  8
fence18
 10
0.0
 20
0.0
 30
0.0
 70
   128
 71
   48
 72
   60
 73
   61
  0
VERTEX
  8
fence18
 10
0.0
 20
0.0
 30
0.0
 70
   128
 71
   53
 72
   20
 73
   22
  0
VERTEX
  8
fence18
 10
0.0
 20
0.0
 30
0.0
 70
   128
 71
   55
 72
   24
 73
   26
  0
VERTEX
  8
fence18
 10
0.0
 20
0.0
 30
0.0
 70
   128
 71
   35
 72
   49
 73
   50
  0
VERTEX
  8
fence18
 10
0.0
 20
0.0
 30
0.0
 70
   128
 71
   57
 72
   28
 73
   30
  0
VERTEX
  8
fence18
 10
0.0
 20
0.0
 30
0.0
 70
   128
 71
   59
 72
   32
 73
   34
  0
VERTEX
  8
fence18
 10
0.0
 20
0.0
 30
0.0
 70
   128
 71
   50
 72
   62
 73
   51
  0
VERTEX
  8
fence18
 10
0.0
 20
0.0
 30
0.0
 70
   128
 71
   61
 72
   36
 73
   38
  0
VERTEX
  8
fence18
 10
0.0
 20
0.0
 30
0.0
 70
   128
 71
   19
 72
   37
 73
   15
  0
VERTEX
  8
fence18
 10
0.0
 20
0.0
 30
0.0
 70
   128
 71
   31
 72
   37
 73
   19
  0
VERTEX
  8
fence18
 10
0.0
 20
0.0
 30
0.0
 70
   128
 71
   37
 72
   31
 73
   33
  0
VERTEX
  8
fence18
 10
0.0
 20
0.0
 30
0.0
 70
   128
 71
   21
 72
   23
 73
   25
  0
VERTEX
  8
fence18
 10
0.0
 20
0.0
 30
0.0
 70
   128
 71
   21
 72
   25
 73
   27
  0
VERTEX
  8
fence18
 10
0.0
 20
0.0
 30
0.0
 70
   128
 71
   27
 72
   29
 73
   31
  0
VERTEX
  8
fence18
 10
0.0
 20
0.0
 30
0.0
 70
   128
 71
   36
 72
   32
 73
   30
  0
VERTEX
  8
fence18
 10
0.0
 20
0.0
 30
0.0
 70
   128
 71
   36
 72
   34
 73
   32
  0
VERTEX
  8
fence18
 10
0.0
 20
0.0
 30
0.0
 70
   128
 71
   24
 72
   30
 73
   28
  0
VERTEX
  8
fence18
 10
0.0
 20
0.0
 30
0.0
 70
   128
 71
   38
 72
   30
 73
   24
  0
VERTEX
  8
fence18
 10
0.0
 20
0.0
 30
0.0
 70
   128
 71
   24
 72
   22
 73
   20
  0
VERTEX
  8
fence18
 10
0.0
 20
0.0
 30
0.0
 70
   128
 71
   18
 72
   16
 73
   38
  0
VERTEX
  8
fence18
 10
0.0
 20
0.0
 30
0.0
 70
   128
 71
   69
 72
   63
 73
   71
  0
VERTEX
  8
fence18
 10
0.0
 20
0.0
 30
0.0
 70
   128
 71
   65
 72
   67
 73
   72
  0
VERTEX
  8
fence18
 10
0.0
 20
0.0
 30
0.0
 70
   128
 71
   66
 72
   64
 73
   73
  0
VERTEX
  8
fence18
 10
0.0
 20
0.0
 30
0.0
 70
   128
 71
   68
 72
   70
 73
   64
  0
VERTEX
  8
fence18
 10
0.0
 20
0.0
 30
0.0
 70
   128
 71
   69
 72
   70
 73
   68
  0
VERTEX
  8
fence18
 10
0.0
 20
0.0
 30
0.0
 70
   128
 71
   67
 72
   65
 73
   63
  0
VERTEX
  8
fence18
 10
0.0
 20
0.0
 30
0.0
 70
   128
 71
   69
 72
   71
 73
   73
  0
VERTEX
  8
fence18
 10
0.0
 20
0.0
 30
0.0
 70
   128
 71
   67
 72
   68
 73
   74
  0
VERTEX
  8
fence18
 10
0.0
 20
0.0
 30
0.0
 70
   128
 71
   71
 72
   63
 73
   65
  0
VERTEX
  8
fence18
 10
0.0
 20
0.0
 30
0.0
 70
   128
 71
   73
 72
   64
 73
   70
  0
VERTEX
  8
fence18
 10
0.0
 20
0.0
 30
0.0
 70
   128
 71
   68
 72
   66
 73
   74
  0
VERTEX
  8
fence18
 10
0.0
 20
0.0
 30
0.0
 70
   128
 71
   73
 72
   71
 73
   72
  0
VERTEX
  8
fence18
 10
0.0
 20
0.0
 30
0.0
 70
   128
 71
   4
 72
   11
 73
   12
  0
VERTEX
  8
fence18
 10
0.0
 20
0.0
 30
0.0
 70
   128
 71
   6
 72
   2
 73
   4
  0
VERTEX
  8
fence18
 10
0.0
 20
0.0
 30
0.0
 70
   128
 71
   7
 72
   6
 73
   5
  0
VERTEX
  8
fence18
 10
0.0
 20
0.0
 30
0.0
 70
   128
 71
   5
 72
   1
 73
   7
  0
VERTEX
  8
fence18
 10
0.0
 20
0.0
 30
0.0
 70
   128
 71
   7
 72
   11
 73
   8
  0
VERTEX
  8
fence18
 10
0.0
 20
0.0
 30
0.0
 70
   128
 71
   5
 72
   12
 73
   10
  0
VERTEX
  8
fence18
 10
0.0
 20
0.0
 30
0.0
 70
   128
 71
   9
 72
   3
 73
   10
  0
VERTEX
  8
fence18
 10
0.0
 20
0.0
 30
0.0
 70
   128
 71
   11
 72
   10
 73
   12
  0
VERTEX
  8
fence18
 10
0.0
 20
0.0
 30
0.0
 70
   128
 71
   39
 72
   52
 73
   40
  0
VERTEX
  8
fence18
 10
0.0
 20
0.0
 30
0.0
 70
   128
 71
   15
 72
   40
 73
   17
  0
VERTEX
  8
fence18
 10
0.0
 20
0.0
 30
0.0
 70
   128
 71
   41
 72
   17
 73
   40
  0
VERTEX
  8
fence18
 10
0.0
 20
0.0
 30
0.0
 70
   128
 71
   41
 72
   54
 73
   42
  0
VERTEX
  8
fence18
 10
0.0
 20
0.0
 30
0.0
 70
   128
 71
   52
 72
   20
 73
   53
  0
VERTEX
  8
fence18
 10
0.0
 20
0.0
 30
0.0
 70
   128
 71
   43
 72
   21
 73
   42
  0
VERTEX
  8
fence18
 10
0.0
 20
0.0
 30
0.0
 70
   128
 71
   43
 72
   56
 73
   44
  0
VERTEX
  8
fence18
 10
0.0
 20
0.0
 30
0.0
 70
   128
 71
   19
 72
   42
 73
   21
  0
VERTEX
  8
fence18
 10
0.0
 20
0.0
 30
0.0
 70
   128
 71
   45
 72
   25
 73
   44
  0
VERTEX
  8
fence18
 10
0.0
 20
0.0
 30
0.0
 70
   128
 71
   45
 72
   58
 73
   46
  0
VERTEX
  8
fence18
 10
0.0
 20
0.0
 30
0.0
 70
   128
 71
   42
 72
   55
 73
   43
  0
VERTEX
  8
fence18
 10
0.0
 20
0.0
 30
0.0
 70
   128
 71
   47
 72
   29
 73
   46
  0
VERTEX
  8
fence18
 10
0.0
 20
0.0
 30
0.0
 70
   128
 71
   47
 72
   60
 73
   48
  0
VERTEX
  8
fence18
 10
0.0
 20
0.0
 30
0.0
 70
   128
 71
   23
 72
   44
 73
   25
  0
VERTEX
  8
fence18
 10
0.0
 20
0.0
 30
0.0
 70
   128
 71
   49
 72
   33
 73
   48
  0
VERTEX
  8
fence18
 10
0.0
 20
0.0
 30
0.0
 70
   128
 71
   49
 72
   62
 73
   50
  0
VERTEX
  8
fence18
 10
0.0
 20
0.0
 30
0.0
 70
   128
 71
   44
 72
   57
 73
   45
  0
VERTEX
  8
fence18
 10
0.0
 20
0.0
 30
0.0
 70
   128
 71
   39
 72
   37
 73
   50
  0
VERTEX
  8
fence18
 10
0.0
 20
0.0
 30
0.0
 70
   128
 71
   53
 72
   40
 73
   52
  0
VERTEX
  8
fence18
 10
0.0
 20
0.0
 30
0.0
 70
   128
 71
   27
 72
   46
 73
   29
  0
VERTEX
  8
fence18
 10
0.0
 20
0.0
 30
0.0
 70
   128
 71
   54
 72
   24
 73
   55
  0
VERTEX
  8
fence18
 10
0.0
 20
0.0
 30
0.0
 70
   128
 71
   56
 72
   28
 73
   57
  0
VERTEX
  8
fence18
 10
0.0
 20
0.0
 30
0.0
 70
   128
 71
   46
 72
   59
 73
   47
  0
VERTEX
  8
fence18
 10
0.0
 20
0.0
 30
0.0
 70
   128
 71
   58
 72
   32
 73
   59
  0
VERTEX
  8
fence18
 10
0.0
 20
0.0
 30
0.0
 70
   128
 71
   60
 72
   36
 73
   61
  0
VERTEX
  8
fence18
 10
0.0
 20
0.0
 30
0.0
 70
   128
 71
   31
 72
   48
 73
   33
  0
VERTEX
  8
fence18
 10
0.0
 20
0.0
 30
0.0
 70
   128
 71
   62
 72
   16
 73
   51
  0
VERTEX
  8
fence18
 10
0.0
 20
0.0
 30
0.0
 70
   128
 71
   51
 72
   18
 73
   52
  0
VERTEX
  8
fence18
 10
0.0
 20
0.0
 30
0.0
 70
   128
 71
   48
 72
   61
 73
   49
  0
VERTEX
  8
fence18
 10
0.0
 20
0.0
 30
0.0
 70
   128
 71
   53
 72
   22
 73
   54
  0
VERTEX
  8
fence18
 10
0.0
 20
0.0
 30
0.0
 70
   128
 71
   55
 72
   26
 73
   56
  0
VERTEX
  8
fence18
 10
0.0
 20
0.0
 30
0.0
 70
   128
 71
   35
 72
   50
 73
   37
  0
VERTEX
  8
fence18
 10
0.0
 20
0.0
 30
0.0
 70
   128
 71
   57
 72
   30
 73
   58
  0
VERTEX
  8
fence18
 10
0.0
 20
0.0
 30
0.0
 70
   128
 71
   59
 72
   34
 73
   60
  0
VERTEX
  8
fence18
 10
0.0
 20
0.0
 30
0.0
 70
   128
 71
   50
 72
   51
 73
   39
  0
VERTEX
  8
fence18
 10
0.0
 20
0.0
 30
0.0
 70
   128
 71
   61
 72
   38
 73
   62
  0
VERTEX
  8
fence18
 10
0.0
 20
0.0
 30
0.0
 70
   128
 71
   19
 72
   15
 73
   17
  0
VERTEX
  8
fence18
 10
0.0
 20
0.0
 30
0.0
 70
   128
 71
   31
 72
   19
 73
   21
  0
VERTEX
  8
fence18
 10
0.0
 20
0.0
 30
0.0
 70
   128
 71
   37
 72
   33
 73
   35
  0
VERTEX
  8
fence18
 10
0.0
 20
0.0
 30
0.0
 70
   128
 71
   21
 72
   27
 73
   31
  0
VERTEX
  8
fence18
 10
0.0
 20
0.0
 30
0.0
 70
   128
 71
   36
 72
   30
 73
   38
  0
VERTEX
  8
fence18
 10
0.0
 20
0.0
 30
0.0
 70
   128
 71
   24
 72
   28
 73
   26
  0
VERTEX
  8
fence18
 10
0.0
 20
0.0
 30
0.0
 70
   128
 71
   38
 72
   24
 73
   18
  0
VERTEX
  8
fence18
 10
0.0
 20
0.0
 30
0.0
 70
   128
 71
   24
 72
   20
 73
   18
  0
VERTEX
  8
fence18
 10
0.0
 20
0.0
 30
0.0
 70
   128
 71
   66
 72
   73
 73
   74
  0
VERTEX
  8
fence18
 10
0.0
 20
0.0
 30
0.0
 70
   128
 71
   68
 72
   64
 73
   66
  0
VERTEX
  8
fence18
 10
0.0
 20
0.0
 30
0.0
 70
   128
 71
   69
 72
   68
 73
   67
  0
VERTEX
  8
fence18
 10
0.0
 20
0.0
 30
0.0
 70
   128
 71
   67
 72
   63
 73
   69
  0
VERTEX
  8
fence18
 10
0.0
 20
0.0
 30
0.0
 70
   128
 71
   69
 72
   73
 73
   70
  0
VERTEX
  8
fence18
 10
0.0
 20
0.0
 30
0.0
 70
   128
 71
   67
 72
   74
 73
   72
  0
VERTEX
  8
fence18
 10
0.0
 20
0.0
 30
0.0
 70
   128
 71
   71
 72
   65
 73
   72
  0
VERTEX
  8
fence18
 10
0.0
 20
0.0
 30
0.0
 70
   128
 71
   73
 72
   72
 73
   74
  0
SEQEND
  0
ENDSEC
  0
EOF
