999
FBX AutoCAD (*.DXF) exporter
  0
SECTION
  2
HEADER
  9
$ACADVER
  1
AC1008
  9
$UCSORG
 10
0.0
 20
0.0
 30
0.0
  9
$UCSXDIR
 10
1.0
 20
0.0
 30
0.0
  9
$TILEMODE
 70
   1
  9
$UCSYDIR
 10
0.0
 20
1.0
 30
0.0
  0
ENDSEC
  0
SECTION
  2
TABLES
  0
TABLE
  2
LTYPE
 70
   1
  0
LTYPE
  2
CONTINUOUS
 70
   64
  3
Solid line
 72
   65
 73
   0
 40
0.0
  0
ENDTAB
  0
TABLE
  2
LAYER
 70
   1
  0
LAYER
  2
fence24
 70
   0
 62
   250
  6
CONTINUOUS
  0
ENDTAB
  0
ENDSEC
  0
SECTION
  2
BLOCKS
  0
ENDSEC
  0
SECTION
  2
ENTITIES
  0
POLYLINE
  8
fence24
 66
   1
 10
0.0
 20
0.0
 30
0.0
 70
   64
 71
   300
 72
   552
  0
VERTEX
  8
fence24
 10
75.853235
 20
-18.929796
 30
-2.843153
 70
   192
  0
VERTEX
  8
fence24
 10
76.121215
 20
94.041617
 30
-2.585837
 70
   192
  0
VERTEX
  8
fence24
 10
86.038488
 20
-18.929796
 30
6.486468
 70
   192
  0
VERTEX
  8
fence24
 10
88.649077
 20
94.041617
 30
8.889596
 70
   192
  0
VERTEX
  8
fence24
 10
89.338733
 20
-18.929796
 30
0.143909
 70
   192
  0
VERTEX
  8
fence24
 10
92.708378
 20
94.041617
 30
1.088249
 70
   192
  0
VERTEX
  8
fence24
 10
89.025550
 20
-18.929796
 30
-6.999031
 70
   192
  0
VERTEX
  8
fence24
 10
92.323163
 20
94.041617
 30
-7.697567
 70
   192
  0
VERTEX
  8
fence24
 10
85.182856
 20
-18.929796
 30
-13.028406
 70
   192
  0
VERTEX
  8
fence24
 10
87.596649
 20
94.041617
 30
-15.113699
 70
   192
  0
VERTEX
  8
fence24
 10
78.840297
 20
-18.929796
 30
-16.328652
 70
   192
  0
VERTEX
  8
fence24
 10
79.795301
 20
94.041617
 30
-19.173001
 70
   192
  0
VERTEX
  8
fence24
 10
71.697357
 20
-18.929796
 30
-16.015469
 70
   192
  0
VERTEX
  8
fence24
 10
71.009485
 20
94.041617
 30
-18.787785
 70
   192
  0
VERTEX
  8
fence24
 10
65.667981
 20
-18.929796
 30
-12.172774
 70
   192
  0
VERTEX
  8
fence24
 10
63.593353
 20
94.041617
 30
-14.061271
 70
   192
  0
VERTEX
  8
fence24
 10
62.367736
 20
-18.929796
 30
-5.830215
 70
   192
  0
VERTEX
  8
fence24
 10
59.534052
 20
94.041617
 30
-6.259924
 70
   192
  0
VERTEX
  8
fence24
 10
62.680919
 20
-18.929796
 30
1.312725
 70
   192
  0
VERTEX
  8
fence24
 10
59.919267
 20
94.041617
 30
2.525892
 70
   192
  0
VERTEX
  8
fence24
 10
66.523614
 20
-18.929796
 30
7.342100
 70
   192
  0
VERTEX
  8
fence24
 10
64.645781
 20
94.041617
 30
9.942024
 70
   192
  0
VERTEX
  8
fence24
 10
72.866173
 20
-18.929796
 30
10.642346
 70
   192
  0
VERTEX
  8
fence24
 10
72.447128
 20
94.041617
 30
14.001326
 70
   192
  0
VERTEX
  8
fence24
 10
80.009112
 20
-18.929796
 30
10.329162
 70
   192
  0
VERTEX
  8
fence24
 10
81.232944
 20
94.041617
 30
13.616111
 70
   192
  0
VERTEX
  8
fence24
 10
82.439751
 20
4.365990
 30
5.810362
 70
   192
  0
VERTEX
  8
fence24
 10
85.772273
 20
4.365990
 30
-0.594228
 70
   192
  0
VERTEX
  8
fence24
 10
85.456027
 20
4.365990
 30
-7.807027
 70
   192
  0
VERTEX
  8
fence24
 10
81.575750
 20
4.365990
 30
-13.895371
 70
   192
  0
VERTEX
  8
fence24
 10
75.171160
 20
4.365990
 30
-17.227893
 70
   192
  0
VERTEX
  8
fence24
 10
67.958361
 20
4.365990
 30
-16.911647
 70
   192
  0
VERTEX
  8
fence24
 10
61.870017
 20
4.365990
 30
-13.031370
 70
   192
  0
VERTEX
  8
fence24
 10
58.537495
 20
4.365990
 30
-6.626780
 70
   192
  0
VERTEX
  8
fence24
 10
58.853741
 20
4.365990
 30
0.586018
 70
   192
  0
VERTEX
  8
fence24
 10
62.734018
 20
4.365990
 30
6.674362
 70
   192
  0
VERTEX
  8
fence24
 10
69.138608
 20
4.365990
 30
10.006885
 70
   192
  0
VERTEX
  8
fence24
 10
76.351407
 20
4.365990
 30
9.690638
 70
   192
  0
VERTEX
  8
fence24
 10
87.309315
 20
61.630496
 30
4.643611
 70
   192
  0
VERTEX
  8
fence24
 10
90.986475
 20
61.416065
 30
-2.441613
 70
   192
  0
VERTEX
  8
fence24
 10
90.612707
 20
60.830230
 30
-10.405768
 70
   192
  0
VERTEX
  8
fence24
 10
86.305554
 20
60.029964
 30
-17.099357
 70
   192
  0
VERTEX
  8
fence24
 10
79.241067
 20
59.229698
 30
-20.736169
 70
   192
  0
VERTEX
  8
fence24
 10
71.316750
 20
58.643863
 30
-20.364178
 70
   192
  0
VERTEX
  8
fence24
 10
64.638935
 20
58.429433
 30
-16.098194
 70
   192
  0
VERTEX
  8
fence24
 10
60.975356
 20
58.643863
 30
-9.074360
 70
   192
  0
VERTEX
  8
fence24
 10
61.302678
 20
59.229698
 30
-1.152626
 70
   192
  0
VERTEX
  8
fence24
 10
65.549805
 20
60.029964
 30
5.559930
 70
   192
  0
VERTEX
  8
fence24
 10
72.600712
 20
60.830230
 30
9.258132
 70
   192
  0
VERTEX
  8
fence24
 10
80.571474
 20
61.416065
 30
8.928562
 70
   192
  0
VERTEX
  8
fence24
 10
99.730322
 20
10.999100
 30
-17.063190
 70
   192
  0
VERTEX
  8
fence24
 10
-96.315764
 20
10.999100
 30
-17.063190
 70
   192
  0
VERTEX
  8
fence24
 10
99.730322
 20
4.010059
 30
-17.265550
 70
   192
  0
VERTEX
  8
fence24
 10
-96.315764
 20
4.010059
 30
-17.265550
 70
   192
  0
VERTEX
  8
fence24
 10
99.730322
 20
4.845234
 30
-13.743918
 70
   192
  0
VERTEX
  8
fence24
 10
-96.315764
 20
4.845234
 30
-13.743918
 70
   192
  0
VERTEX
  8
fence24
 10
99.730322
 20
7.329331
 30
-11.111683
 70
   192
  0
VERTEX
  8
fence24
 10
-96.315764
 20
7.329331
 30
-11.111683
 70
   192
  0
VERTEX
  8
fence24
 10
99.730322
 20
10.796740
 30
-10.074150
 70
   192
  0
VERTEX
  8
fence24
 10
-96.315764
 20
10.796740
 30
-10.074150
 70
   192
  0
VERTEX
  8
fence24
 10
99.730322
 20
14.318371
 30
-10.909324
 70
   192
  0
VERTEX
  8
fence24
 10
-96.315764
 20
14.318371
 30
-10.909324
 70
   192
  0
VERTEX
  8
fence24
 10
99.730322
 20
16.950606
 30
-13.393422
 70
   192
  0
VERTEX
  8
fence24
 10
-96.315764
 20
16.950606
 30
-13.393422
 70
   192
  0
VERTEX
  8
fence24
 10
99.730322
 20
17.988140
 30
-16.860831
 70
   192
  0
VERTEX
  8
fence24
 10
-96.315764
 20
17.988140
 30
-16.860831
 70
   192
  0
VERTEX
  8
fence24
 10
99.730322
 20
17.152966
 30
-20.382462
 70
   192
  0
VERTEX
  8
fence24
 10
-96.315764
 20
17.152966
 30
-20.382462
 70
   192
  0
VERTEX
  8
fence24
 10
99.730322
 20
14.668868
 30
-23.014697
 70
   192
  0
VERTEX
  8
fence24
 10
-96.315764
 20
14.668868
 30
-23.014697
 70
   192
  0
VERTEX
  8
fence24
 10
99.730322
 20
11.201459
 30
-24.052230
 70
   192
  0
VERTEX
  8
fence24
 10
-96.315764
 20
11.201459
 30
-24.052230
 70
   192
  0
VERTEX
  8
fence24
 10
99.730322
 20
7.679828
 30
-23.217056
 70
   192
  0
VERTEX
  8
fence24
 10
-96.315764
 20
7.679828
 30
-23.217056
 70
   192
  0
VERTEX
  8
fence24
 10
99.730322
 20
5.047593
 30
-20.732959
 70
   192
  0
VERTEX
  8
fence24
 10
-96.315764
 20
5.047593
 30
-20.732959
 70
   192
  0
VERTEX
  8
fence24
 10
25.912216
 20
1.592531
 30
-16.846360
 70
   192
  0
VERTEX
  8
fence24
 10
25.912216
 20
2.427705
 30
-13.324729
 70
   192
  0
VERTEX
  8
fence24
 10
25.912216
 20
4.911803
 30
-10.692494
 70
   192
  0
VERTEX
  8
fence24
 10
25.912216
 20
8.379212
 30
-9.654961
 70
   192
  0
VERTEX
  8
fence24
 10
25.912216
 20
11.900843
 30
-10.490135
 70
   192
  0
VERTEX
  8
fence24
 10
25.912216
 20
14.533078
 30
-12.974232
 70
   192
  0
VERTEX
  8
fence24
 10
25.912216
 20
15.570611
 30
-16.441641
 70
   192
  0
VERTEX
  8
fence24
 10
25.912216
 20
14.735437
 30
-19.963273
 70
   192
  0
VERTEX
  8
fence24
 10
25.912216
 20
12.251340
 30
-22.595508
 70
   192
  0
VERTEX
  8
fence24
 10
25.912216
 20
8.783930
 30
-23.633041
 70
   192
  0
VERTEX
  8
fence24
 10
25.912216
 20
5.262299
 30
-22.797867
 70
   192
  0
VERTEX
  8
fence24
 10
25.912216
 20
2.630064
 30
-20.313769
 70
   192
  0
VERTEX
  8
fence24
 10
-38.899164
 20
3.230980
 30
-17.288107
 70
   192
  0
VERTEX
  8
fence24
 10
-38.527050
 20
4.066154
 30
-13.766476
 70
   192
  0
VERTEX
  8
fence24
 10
-37.510415
 20
6.550252
 30
-11.134241
 70
   192
  0
VERTEX
  8
fence24
 10
-36.121665
 20
10.017661
 30
-10.096707
 70
   192
  0
VERTEX
  8
fence24
 10
-34.732916
 20
13.539292
 30
-10.931881
 70
   192
  0
VERTEX
  8
fence24
 10
-33.716281
 20
16.171527
 30
-13.415979
 70
   192
  0
VERTEX
  8
fence24
 10
-33.344166
 20
17.209060
 30
-16.883388
 70
   192
  0
VERTEX
  8
fence24
 10
-33.716281
 20
16.373886
 30
-20.405019
 70
   192
  0
VERTEX
  8
fence24
 10
-34.732916
 20
13.889789
 30
-23.037254
 70
   192
  0
VERTEX
  8
fence24
 10
-36.121665
 20
10.422380
 30
-24.074788
 70
   192
  0
VERTEX
  8
fence24
 10
-37.510415
 20
6.900748
 30
-23.239614
 70
   192
  0
VERTEX
  8
fence24
 10
-38.527050
 20
4.268513
 30
-20.755516
 70
   192
  0
VERTEX
  8
fence24
 10
99.730322
 20
63.555939
 30
-16.578823
 70
   192
  0
VERTEX
  8
fence24
 10
-96.315764
 20
63.555939
 30
-16.578823
 70
   192
  0
VERTEX
  8
fence24
 10
99.730322
 20
70.547908
 30
-16.578823
 70
   192
  0
VERTEX
  8
fence24
 10
-96.315764
 20
70.547908
 30
-16.578823
 70
   192
  0
VERTEX
  8
fence24
 10
99.730322
 20
69.611162
 30
-20.074808
 70
   192
  0
VERTEX
  8
fence24
 10
-96.315764
 20
69.611162
 30
-20.074808
 70
   192
  0
VERTEX
  8
fence24
 10
99.730322
 20
67.051924
 30
-22.634046
 70
   192
  0
VERTEX
  8
fence24
 10
-96.315764
 20
67.051924
 30
-22.634046
 70
   192
  0
VERTEX
  8
fence24
 10
99.730322
 20
63.555939
 30
-23.570792
 70
   192
  0
VERTEX
  8
fence24
 10
-96.315764
 20
63.555939
 30
-23.570792
 70
   192
  0
VERTEX
  8
fence24
 10
99.730322
 20
60.059955
 30
-22.634046
 70
   192
  0
VERTEX
  8
fence24
 10
-96.315764
 20
60.059955
 30
-22.634046
 70
   192
  0
VERTEX
  8
fence24
 10
99.730322
 20
57.500716
 30
-20.074808
 70
   192
  0
VERTEX
  8
fence24
 10
-96.315764
 20
57.500716
 30
-20.074808
 70
   192
  0
VERTEX
  8
fence24
 10
99.730322
 20
56.563970
 30
-16.578823
 70
   192
  0
VERTEX
  8
fence24
 10
-96.315764
 20
56.563970
 30
-16.578823
 70
   192
  0
VERTEX
  8
fence24
 10
99.730322
 20
57.500716
 30
-13.082838
 70
   192
  0
VERTEX
  8
fence24
 10
-96.315764
 20
57.500716
 30
-13.082838
 70
   192
  0
VERTEX
  8
fence24
 10
99.730322
 20
60.059955
 30
-10.523600
 70
   192
  0
VERTEX
  8
fence24
 10
-96.315764
 20
60.059955
 30
-10.523600
 70
   192
  0
VERTEX
  8
fence24
 10
99.730322
 20
63.555939
 30
-9.586854
 70
   192
  0
VERTEX
  8
fence24
 10
-96.315764
 20
63.555939
 30
-9.586854
 70
   192
  0
VERTEX
  8
fence24
 10
99.730322
 20
67.051924
 30
-10.523600
 70
   192
  0
VERTEX
  8
fence24
 10
-96.315764
 20
67.051924
 30
-10.523600
 70
   192
  0
VERTEX
  8
fence24
 10
99.730322
 20
69.611162
 30
-13.082838
 70
   192
  0
VERTEX
  8
fence24
 10
-96.315764
 20
69.611162
 30
-13.082838
 70
   192
  0
VERTEX
  8
fence24
 10
25.912216
 20
72.952292
 30
-17.067804
 70
   192
  0
VERTEX
  8
fence24
 10
25.912216
 20
72.015546
 30
-20.563789
 70
   192
  0
VERTEX
  8
fence24
 10
25.912216
 20
69.456308
 30
-23.123027
 70
   192
  0
VERTEX
  8
fence24
 10
25.912216
 20
65.960323
 30
-24.059773
 70
   192
  0
VERTEX
  8
fence24
 10
25.912216
 20
62.464339
 30
-23.123027
 70
   192
  0
VERTEX
  8
fence24
 10
25.912216
 20
59.905100
 30
-20.563789
 70
   192
  0
VERTEX
  8
fence24
 10
25.912216
 20
58.968354
 30
-17.067804
 70
   192
  0
VERTEX
  8
fence24
 10
25.912216
 20
59.905100
 30
-13.571819
 70
   192
  0
VERTEX
  8
fence24
 10
25.912216
 20
62.464339
 30
-11.012581
 70
   192
  0
VERTEX
  8
fence24
 10
25.912216
 20
65.960323
 30
-10.075835
 70
   192
  0
VERTEX
  8
fence24
 10
25.912216
 20
69.456308
 30
-11.012581
 70
   192
  0
VERTEX
  8
fence24
 10
25.912216
 20
72.015546
 30
-13.571819
 70
   192
  0
VERTEX
  8
fence24
 10
-38.899164
 20
71.327315
 30
-16.578823
 70
   192
  0
VERTEX
  8
fence24
 10
-38.527050
 20
70.390568
 30
-20.074808
 70
   192
  0
VERTEX
  8
fence24
 10
-37.510415
 20
67.831330
 30
-22.634046
 70
   192
  0
VERTEX
  8
fence24
 10
-36.121665
 20
64.335345
 30
-23.570792
 70
   192
  0
VERTEX
  8
fence24
 10
-34.732916
 20
60.839361
 30
-22.634046
 70
   192
  0
VERTEX
  8
fence24
 10
-33.716281
 20
58.280122
 30
-20.074808
 70
   192
  0
VERTEX
  8
fence24
 10
-33.344166
 20
57.343376
 30
-16.578823
 70
   192
  0
VERTEX
  8
fence24
 10
-33.716281
 20
58.280122
 30
-13.082838
 70
   192
  0
VERTEX
  8
fence24
 10
-34.732916
 20
60.839361
 30
-10.523600
 70
   192
  0
VERTEX
  8
fence24
 10
-36.121665
 20
64.335345
 30
-9.586854
 70
   192
  0
VERTEX
  8
fence24
 10
-37.510415
 20
67.831330
 30
-10.523600
 70
   192
  0
VERTEX
  8
fence24
 10
-38.527050
 20
70.390568
 30
-13.082838
 70
   192
  0
VERTEX
  8
fence24
 10
-96.315764
 20
58.108996
 30
13.614319
 70
   192
  0
VERTEX
  8
fence24
 10
99.730322
 20
58.108996
 30
13.614319
 70
   192
  0
VERTEX
  8
fence24
 10
-96.315764
 20
58.657702
 30
6.483247
 70
   192
  0
VERTEX
  8
fence24
 10
99.730322
 20
58.657702
 30
6.483247
 70
   192
  0
VERTEX
  8
fence24
 10
-96.315764
 20
62.149726
 30
7.712982
 70
   192
  0
VERTEX
  8
fence24
 10
99.730322
 20
62.149726
 30
7.712982
 70
   192
  0
VERTEX
  8
fence24
 10
-96.315764
 20
64.559039
 30
10.523976
 70
   192
  0
VERTEX
  8
fence24
 10
99.730322
 20
64.559039
 30
10.523976
 70
   192
  0
VERTEX
  8
fence24
 10
-96.315764
 20
65.240069
 30
14.163025
 70
   192
  0
VERTEX
  8
fence24
 10
99.730322
 20
65.240069
 30
14.163025
 70
   192
  0
VERTEX
  8
fence24
 10
-96.315764
 20
64.010333
 30
17.655049
 70
   192
  0
VERTEX
  8
fence24
 10
99.730322
 20
64.010333
 30
17.655049
 70
   192
  0
VERTEX
  8
fence24
 10
-96.315764
 20
61.199339
 30
20.064362
 70
   192
  0
VERTEX
  8
fence24
 10
99.730322
 20
61.199339
 30
20.064362
 70
   192
  0
VERTEX
  8
fence24
 10
-96.315764
 20
57.560290
 30
20.745392
 70
   192
  0
VERTEX
  8
fence24
 10
99.730322
 20
57.560290
 30
20.745392
 70
   192
  0
VERTEX
  8
fence24
 10
-96.315764
 20
54.068266
 30
19.515656
 70
   192
  0
VERTEX
  8
fence24
 10
99.730322
 20
54.068266
 30
19.515656
 70
   192
  0
VERTEX
  8
fence24
 10
-96.315764
 20
51.658953
 30
16.704662
 70
   192
  0
VERTEX
  8
fence24
 10
99.730322
 20
51.658953
 30
16.704662
 70
   192
  0
VERTEX
  8
fence24
 10
-96.315764
 20
50.977924
 30
13.065613
 70
   192
  0
VERTEX
  8
fence24
 10
99.730322
 20
50.977924
 30
13.065613
 70
   192
  0
VERTEX
  8
fence24
 10
-96.315764
 20
52.207659
 30
9.573589
 70
   192
  0
VERTEX
  8
fence24
 10
99.730322
 20
52.207659
 30
9.573589
 70
   192
  0
VERTEX
  8
fence24
 10
-96.315764
 20
55.018653
 30
7.164276
 70
   192
  0
VERTEX
  8
fence24
 10
99.730322
 20
55.018653
 30
7.164276
 70
   192
  0
VERTEX
  8
fence24
 10
-22.497658
 20
57.650800
 30
6.885541
 70
   192
  0
VERTEX
  8
fence24
 10
-22.497658
 20
61.142824
 30
8.115276
 70
   192
  0
VERTEX
  8
fence24
 10
-22.497658
 20
63.552137
 30
10.926270
 70
   192
  0
VERTEX
  8
fence24
 10
-22.497658
 20
64.233167
 30
14.565319
 70
   192
  0
VERTEX
  8
fence24
 10
-22.497658
 20
63.003431
 30
18.057343
 70
   192
  0
VERTEX
  8
fence24
 10
-22.497658
 20
60.192437
 30
20.466656
 70
   192
  0
VERTEX
  8
fence24
 10
-22.497658
 20
56.553388
 30
21.147686
 70
   192
  0
VERTEX
  8
fence24
 10
-22.497658
 20
53.061364
 30
19.917950
 70
   192
  0
VERTEX
  8
fence24
 10
-22.497658
 20
50.652051
 30
17.106956
 70
   192
  0
VERTEX
  8
fence24
 10
-22.497658
 20
49.971022
 30
13.467907
 70
   192
  0
VERTEX
  8
fence24
 10
-22.497658
 20
51.200757
 30
9.975884
 70
   192
  0
VERTEX
  8
fence24
 10
-22.497658
 20
54.011751
 30
7.566570
 70
   192
  0
VERTEX
  8
fence24
 10
42.313722
 20
59.893997
 30
5.778756
 70
   192
  0
VERTEX
  8
fence24
 10
41.941608
 20
63.386021
 30
7.008491
 70
   192
  0
VERTEX
  8
fence24
 10
40.924973
 20
65.795334
 30
9.819485
 70
   192
  0
VERTEX
  8
fence24
 10
39.536223
 20
66.476364
 30
13.458534
 70
   192
  0
VERTEX
  8
fence24
 10
38.147474
 20
65.246628
 30
16.950558
 70
   192
  0
VERTEX
  8
fence24
 10
37.130839
 20
62.435634
 30
19.359871
 70
   192
  0
VERTEX
  8
fence24
 10
36.758725
 20
58.796585
 30
20.040901
 70
   192
  0
VERTEX
  8
fence24
 10
37.130839
 20
55.304561
 30
18.811165
 70
   192
  0
VERTEX
  8
fence24
 10
38.147474
 20
52.895248
 30
16.000171
 70
   192
  0
VERTEX
  8
fence24
 10
39.536223
 20
52.214218
 30
12.361122
 70
   192
  0
VERTEX
  8
fence24
 10
40.924973
 20
53.443954
 30
8.869099
 70
   192
  0
VERTEX
  8
fence24
 10
41.941608
 20
56.254948
 30
6.459785
 70
   192
  0
VERTEX
  8
fence24
 10
99.730322
 20
13.582340
 30
9.868332
 70
   192
  0
VERTEX
  8
fence24
 10
-96.315764
 20
13.582340
 30
9.868332
 70
   192
  0
VERTEX
  8
fence24
 10
99.730322
 20
13.033634
 30
16.999405
 70
   192
  0
VERTEX
  8
fence24
 10
-96.315764
 20
13.033634
 30
16.999405
 70
   192
  0
VERTEX
  8
fence24
 10
99.730322
 20
16.672683
 30
16.318375
 70
   192
  0
VERTEX
  8
fence24
 10
-96.315764
 20
16.672683
 30
16.318375
 70
   192
  0
VERTEX
  8
fence24
 10
99.730322
 20
19.483677
 30
13.909062
 70
   192
  0
VERTEX
  8
fence24
 10
-96.315764
 20
19.483677
 30
13.909062
 70
   192
  0
VERTEX
  8
fence24
 10
99.730322
 20
20.713412
 30
10.417038
 70
   192
  0
VERTEX
  8
fence24
 10
-96.315764
 20
20.713412
 30
10.417038
 70
   192
  0
VERTEX
  8
fence24
 10
99.730322
 20
20.032383
 30
6.777989
 70
   192
  0
VERTEX
  8
fence24
 10
-96.315764
 20
20.032383
 30
6.777989
 70
   192
  0
VERTEX
  8
fence24
 10
99.730322
 20
17.623069
 30
3.966995
 70
   192
  0
VERTEX
  8
fence24
 10
-96.315764
 20
17.623069
 30
3.966995
 70
   192
  0
VERTEX
  8
fence24
 10
99.730322
 20
14.131046
 30
2.737260
 70
   192
  0
VERTEX
  8
fence24
 10
-96.315764
 20
14.131046
 30
2.737260
 70
   192
  0
VERTEX
  8
fence24
 10
99.730322
 20
10.491997
 30
3.418289
 70
   192
  0
VERTEX
  8
fence24
 10
-96.315764
 20
10.491997
 30
3.418289
 70
   192
  0
VERTEX
  8
fence24
 10
99.730322
 20
7.681003
 30
5.827602
 70
   192
  0
VERTEX
  8
fence24
 10
-96.315764
 20
7.681003
 30
5.827602
 70
   192
  0
VERTEX
  8
fence24
 10
99.730322
 20
6.451267
 30
9.319626
 70
   192
  0
VERTEX
  8
fence24
 10
-96.315764
 20
6.451267
 30
9.319626
 70
   192
  0
VERTEX
  8
fence24
 10
99.730322
 20
7.132297
 30
12.958675
 70
   192
  0
VERTEX
  8
fence24
 10
-96.315764
 20
7.132297
 30
12.958675
 70
   192
  0
VERTEX
  8
fence24
 10
99.730322
 20
9.541610
 30
15.769669
 70
   192
  0
VERTEX
  8
fence24
 10
-96.315764
 20
9.541610
 30
15.769669
 70
   192
  0
VERTEX
  8
fence24
 10
25.912216
 20
12.100130
 30
16.447804
 70
   192
  0
VERTEX
  8
fence24
 10
25.912216
 20
15.739179
 30
15.766775
 70
   192
  0
VERTEX
  8
fence24
 10
25.912216
 20
18.550173
 30
13.357462
 70
   192
  0
VERTEX
  8
fence24
 10
25.912216
 20
19.779909
 30
9.865438
 70
   192
  0
VERTEX
  8
fence24
 10
25.912216
 20
19.098879
 30
6.226389
 70
   192
  0
VERTEX
  8
fence24
 10
25.912216
 20
16.689566
 30
3.415395
 70
   192
  0
VERTEX
  8
fence24
 10
25.912216
 20
13.197542
 30
2.185659
 70
   192
  0
VERTEX
  8
fence24
 10
25.912216
 20
9.558493
 30
2.866689
 70
   192
  0
VERTEX
  8
fence24
 10
25.912216
 20
6.747499
 30
5.276002
 70
   192
  0
VERTEX
  8
fence24
 10
25.912216
 20
5.517763
 30
8.768026
 70
   192
  0
VERTEX
  8
fence24
 10
25.912216
 20
6.198793
 30
12.407075
 70
   192
  0
VERTEX
  8
fence24
 10
25.912216
 20
8.608106
 30
15.218069
 70
   192
  0
VERTEX
  8
fence24
 10
-38.899164
 20
14.147598
 30
17.884738
 70
   192
  0
VERTEX
  8
fence24
 10
-38.527050
 20
17.786647
 30
17.203709
 70
   192
  0
VERTEX
  8
fence24
 10
-37.510415
 20
20.597641
 30
14.794395
 70
   192
  0
VERTEX
  8
fence24
 10
-36.121665
 20
21.827377
 30
11.302372
 70
   192
  0
VERTEX
  8
fence24
 10
-34.732916
 20
21.146347
 30
7.663323
 70
   192
  0
VERTEX
  8
fence24
 10
-33.716281
 20
18.737034
 30
4.852329
 70
   192
  0
VERTEX
  8
fence24
 10
-33.344166
 20
15.245010
 30
3.622593
 70
   192
  0
VERTEX
  8
fence24
 10
-33.716281
 20
11.605961
 30
4.303623
 70
   192
  0
VERTEX
  8
fence24
 10
-34.732916
 20
8.794967
 30
6.712936
 70
   192
  0
VERTEX
  8
fence24
 10
-36.121665
 20
7.565232
 30
10.204959
 70
   192
  0
VERTEX
  8
fence24
 10
-37.510415
 20
8.246261
 30
13.844008
 70
   192
  0
VERTEX
  8
fence24
 10
-38.527050
 20
10.655574
 30
16.655003
 70
   192
  0
VERTEX
  8
fence24
 10
-67.389802
 20
-18.929796
 30
-2.518492
 70
   192
  0
VERTEX
  8
fence24
 10
-67.538586
 20
94.041617
 30
-2.576503
 70
   192
  0
VERTEX
  8
fence24
 10
-64.713871
 20
-18.929796
 30
10.971548
 70
   192
  0
VERTEX
  8
fence24
 10
-64.113393
 20
94.041617
 30
14.690748
 70
   192
  0
VERTEX
  8
fence24
 10
-58.327358
 20
-18.929796
 30
7.826259
 70
   192
  0
VERTEX
  8
fence24
 10
-55.938657
 20
94.041617
 30
10.664779
 70
   192
  0
VERTEX
  8
fence24
 10
-54.369120
 20
-18.929796
 30
1.909103
 70
   192
  0
VERTEX
  8
fence24
 10
-50.872112
 20
94.041617
 30
3.090819
 70
   192
  0
VERTEX
  8
fence24
 10
-53.899763
 20
-18.929796
 30
-5.194423
 70
   192
  0
VERTEX
  8
fence24
 10
-50.271335
 20
94.041617
 30
-6.001695
 70
   192
  0
VERTEX
  8
fence24
 10
-57.045051
 20
-18.929796
 30
-11.580936
 70
   192
  0
VERTEX
  8
fence24
 10
-54.297304
 20
94.041617
 30
-14.176431
 70
   192
  0
VERTEX
  8
fence24
 10
-62.962207
 20
-18.929796
 30
-15.539174
 70
   192
  0
VERTEX
  8
fence24
 10
-61.871264
 20
94.041617
 30
-19.242976
 70
   192
  0
VERTEX
  8
fence24
 10
-70.065734
 20
-18.929796
 30
-16.008531
 70
   192
  0
VERTEX
  8
fence24
 10
-70.963778
 20
94.041617
 30
-19.843753
 70
   192
  0
VERTEX
  8
fence24
 10
-76.452246
 20
-18.929796
 30
-12.863243
 70
   192
  0
VERTEX
  8
fence24
 10
-79.138514
 20
94.041617
 30
-15.817784
 70
   192
  0
VERTEX
  8
fence24
 10
-80.410485
 20
-18.929796
 30
-6.946087
 70
   192
  0
VERTEX
  8
fence24
 10
-84.205059
 20
94.041617
 30
-8.243824
 70
   192
  0
VERTEX
  8
fence24
 10
-80.879842
 20
-18.929796
 30
0.157440
 70
   192
  0
VERTEX
  8
fence24
 10
-84.805836
 20
94.041617
 30
0.848690
 70
   192
  0
VERTEX
  8
fence24
 10
-77.734553
 20
-18.929796
 30
6.543952
 70
   192
  0
VERTEX
  8
fence24
 10
-80.779867
 20
94.041617
 30
9.023426
 70
   192
  0
VERTEX
  8
fence24
 10
-71.817397
 20
-18.929796
 30
10.502191
 70
   192
  0
VERTEX
  8
fence24
 10
-73.205907
 20
94.041617
 30
14.089971
 70
   192
  0
VERTEX
  8
fence24
 10
-63.833942
 20
23.607834
 30
10.366208
 70
   192
  0
VERTEX
  8
fence24
 10
-57.193898
 20
23.607834
 30
7.096059
 70
   192
  0
VERTEX
  8
fence24
 10
-53.078526
 20
23.607834
 30
0.944004
 70
   192
  0
VERTEX
  8
fence24
 10
-52.590537
 20
23.607834
 30
-6.441518
 70
   192
  0
VERTEX
  8
fence24
 10
-55.860686
 20
23.607834
 30
-13.081562
 70
   192
  0
VERTEX
  8
fence24
 10
-62.012741
 20
23.607834
 30
-17.196933
 70
   192
  0
VERTEX
  8
fence24
 10
-69.398262
 20
23.607834
 30
-17.684923
 70
   192
  0
VERTEX
  8
fence24
 10
-76.038306
 20
23.607834
 30
-14.414773
 70
   192
  0
VERTEX
  8
fence24
 10
-80.153678
 20
23.607834
 30
-8.262719
 70
   192
  0
VERTEX
  8
fence24
 10
-80.641668
 20
23.607834
 30
-0.877197
 70
   192
  0
VERTEX
  8
fence24
 10
-77.371518
 20
23.607834
 30
5.762847
 70
   192
  0
VERTEX
  8
fence24
 10
-71.219464
 20
23.607834
 30
9.878219
 70
   192
  0
VERTEX
  8
fence24
 10
-64.073562
 20
60.955343
 30
14.545548
 70
   192
  0
VERTEX
  8
fence24
 10
-56.799513
 20
60.740913
 30
10.951156
 70
   192
  0
VERTEX
  8
fence24
 10
-52.316153
 20
60.155078
 30
4.198313
 70
   192
  0
VERTEX
  8
fence24
 10
-51.819021
 20
59.354812
 30
-3.876127
 70
   192
  0
VERTEX
  8
fence24
 10
-55.414860
 20
58.554546
 30
-11.100093
 70
   192
  0
VERTEX
  8
fence24
 10
-62.119742
 20
57.968711
 30
-15.556443
 70
   192
  0
VERTEX
  8
fence24
 10
-70.142741
 20
57.754280
 30
-16.077882
 70
   192
  0
VERTEX
  8
fence24
 10
-77.359910
 20
57.968711
 30
-12.533350
 70
   192
  0
VERTEX
  8
fence24
 10
-81.857968
 20
58.554546
 30
-5.854746
 70
   192
  0
VERTEX
  8
fence24
 10
-82.426679
 20
59.354812
 30
2.195315
 70
   192
  0
VERTEX
  8
fence24
 10
-78.887720
 20
60.155078
 30
9.469142
 70
   192
  0
VERTEX
  8
fence24
 10
-72.168140
 20
60.740913
 30
13.999731
 70
   192
  0
VERTEX
  8
fence24
 10
0.0
 20
0.0
 30
0.0
 70
   128
 71
   27
 72
   39
 73
   40
  0
VERTEX
  8
fence24
 10
0.0
 20
0.0
 30
0.0
 70
   128
 71
   3
 72
   27
 73
   28
  0
VERTEX
  8
fence24
 10
0.0
 20
0.0
 30
0.0
 70
   128
 71
   29
 72
   7
 73
   5
  0
VERTEX
  8
fence24
 10
0.0
 20
0.0
 30
0.0
 70
   128
 71
   29
 72
   41
 73
   42
  0
VERTEX
  8
fence24
 10
0.0
 20
0.0
 30
0.0
 70
   128
 71
   40
 72
   6
 73
   8
  0
VERTEX
  8
fence24
 10
0.0
 20
0.0
 30
0.0
 70
   128
 71
   31
 72
   11
 73
   9
  0
VERTEX
  8
fence24
 10
0.0
 20
0.0
 30
0.0
 70
   128
 71
   31
 72
   43
 73
   44
  0
VERTEX
  8
fence24
 10
0.0
 20
0.0
 30
0.0
 70
   128
 71
   7
 72
   29
 73
   30
  0
VERTEX
  8
fence24
 10
0.0
 20
0.0
 30
0.0
 70
   128
 71
   33
 72
   15
 73
   13
  0
VERTEX
  8
fence24
 10
0.0
 20
0.0
 30
0.0
 70
   128
 71
   33
 72
   45
 73
   46
  0
VERTEX
  8
fence24
 10
0.0
 20
0.0
 30
0.0
 70
   128
 71
   30
 72
   42
 73
   43
  0
VERTEX
  8
fence24
 10
0.0
 20
0.0
 30
0.0
 70
   128
 71
   35
 72
   19
 73
   17
  0
VERTEX
  8
fence24
 10
0.0
 20
0.0
 30
0.0
 70
   128
 71
   35
 72
   47
 73
   48
  0
VERTEX
  8
fence24
 10
0.0
 20
0.0
 30
0.0
 70
   128
 71
   11
 72
   31
 73
   32
  0
VERTEX
  8
fence24
 10
0.0
 20
0.0
 30
0.0
 70
   128
 71
   37
 72
   23
 73
   21
  0
VERTEX
  8
fence24
 10
0.0
 20
0.0
 30
0.0
 70
   128
 71
   37
 72
   49
 73
   50
  0
VERTEX
  8
fence24
 10
0.0
 20
0.0
 30
0.0
 70
   128
 71
   32
 72
   44
 73
   45
  0
VERTEX
  8
fence24
 10
0.0
 20
0.0
 30
0.0
 70
   128
 71
   27
 72
   3
 73
   25
  0
VERTEX
  8
fence24
 10
0.0
 20
0.0
 30
0.0
 70
   128
 71
   41
 72
   29
 73
   28
  0
VERTEX
  8
fence24
 10
0.0
 20
0.0
 30
0.0
 70
   128
 71
   15
 72
   33
 73
   34
  0
VERTEX
  8
fence24
 10
0.0
 20
0.0
 30
0.0
 70
   128
 71
   42
 72
   10
 73
   12
  0
VERTEX
  8
fence24
 10
0.0
 20
0.0
 30
0.0
 70
   128
 71
   44
 72
   14
 73
   16
  0
VERTEX
  8
fence24
 10
0.0
 20
0.0
 30
0.0
 70
   128
 71
   34
 72
   46
 73
   47
  0
VERTEX
  8
fence24
 10
0.0
 20
0.0
 30
0.0
 70
   128
 71
   46
 72
   18
 73
   20
  0
VERTEX
  8
fence24
 10
0.0
 20
0.0
 30
0.0
 70
   128
 71
   48
 72
   22
 73
   24
  0
VERTEX
  8
fence24
 10
0.0
 20
0.0
 30
0.0
 70
   128
 71
   19
 72
   35
 73
   36
  0
VERTEX
  8
fence24
 10
0.0
 20
0.0
 30
0.0
 70
   128
 71
   50
 72
   26
 73
   4
  0
VERTEX
  8
fence24
 10
0.0
 20
0.0
 30
0.0
 70
   128
 71
   39
 72
   4
 73
   6
  0
VERTEX
  8
fence24
 10
0.0
 20
0.0
 30
0.0
 70
   128
 71
   36
 72
   48
 73
   49
  0
VERTEX
  8
fence24
 10
0.0
 20
0.0
 30
0.0
 70
   128
 71
   41
 72
   8
 73
   10
  0
VERTEX
  8
fence24
 10
0.0
 20
0.0
 30
0.0
 70
   128
 71
   43
 72
   12
 73
   14
  0
VERTEX
  8
fence24
 10
0.0
 20
0.0
 30
0.0
 70
   128
 71
   23
 72
   37
 73
   38
  0
VERTEX
  8
fence24
 10
0.0
 20
0.0
 30
0.0
 70
   128
 71
   45
 72
   16
 73
   18
  0
VERTEX
  8
fence24
 10
0.0
 20
0.0
 30
0.0
 70
   128
 71
   47
 72
   20
 73
   22
  0
VERTEX
  8
fence24
 10
0.0
 20
0.0
 30
0.0
 70
   128
 71
   38
 72
   50
 73
   39
  0
VERTEX
  8
fence24
 10
0.0
 20
0.0
 30
0.0
 70
   128
 71
   49
 72
   24
 73
   26
  0
VERTEX
  8
fence24
 10
0.0
 20
0.0
 30
0.0
 70
   128
 71
   7
 72
   25
 73
   3
  0
VERTEX
  8
fence24
 10
0.0
 20
0.0
 30
0.0
 70
   128
 71
   19
 72
   25
 73
   7
  0
VERTEX
  8
fence24
 10
0.0
 20
0.0
 30
0.0
 70
   128
 71
   25
 72
   19
 73
   21
  0
VERTEX
  8
fence24
 10
0.0
 20
0.0
 30
0.0
 70
   128
 71
   9
 72
   11
 73
   13
  0
VERTEX
  8
fence24
 10
0.0
 20
0.0
 30
0.0
 70
   128
 71
   9
 72
   13
 73
   15
  0
VERTEX
  8
fence24
 10
0.0
 20
0.0
 30
0.0
 70
   128
 71
   15
 72
   17
 73
   19
  0
VERTEX
  8
fence24
 10
0.0
 20
0.0
 30
0.0
 70
   128
 71
   24
 72
   20
 73
   18
  0
VERTEX
  8
fence24
 10
0.0
 20
0.0
 30
0.0
 70
   128
 71
   24
 72
   22
 73
   20
  0
VERTEX
  8
fence24
 10
0.0
 20
0.0
 30
0.0
 70
   128
 71
   12
 72
   18
 73
   16
  0
VERTEX
  8
fence24
 10
0.0
 20
0.0
 30
0.0
 70
   128
 71
   26
 72
   18
 73
   12
  0
VERTEX
  8
fence24
 10
0.0
 20
0.0
 30
0.0
 70
   128
 71
   12
 72
   10
 73
   8
  0
VERTEX
  8
fence24
 10
0.0
 20
0.0
 30
0.0
 70
   128
 71
   6
 72
   4
 73
   26
  0
VERTEX
  8
fence24
 10
0.0
 20
0.0
 30
0.0
 70
   128
 71
   77
 72
   89
 73
   90
  0
VERTEX
  8
fence24
 10
0.0
 20
0.0
 30
0.0
 70
   128
 71
   53
 72
   77
 73
   78
  0
VERTEX
  8
fence24
 10
0.0
 20
0.0
 30
0.0
 70
   128
 71
   79
 72
   57
 73
   55
  0
VERTEX
  8
fence24
 10
0.0
 20
0.0
 30
0.0
 70
   128
 71
   79
 72
   91
 73
   92
  0
VERTEX
  8
fence24
 10
0.0
 20
0.0
 30
0.0
 70
   128
 71
   90
 72
   56
 73
   58
  0
VERTEX
  8
fence24
 10
0.0
 20
0.0
 30
0.0
 70
   128
 71
   81
 72
   61
 73
   59
  0
VERTEX
  8
fence24
 10
0.0
 20
0.0
 30
0.0
 70
   128
 71
   81
 72
   93
 73
   94
  0
VERTEX
  8
fence24
 10
0.0
 20
0.0
 30
0.0
 70
   128
 71
   57
 72
   79
 73
   80
  0
VERTEX
  8
fence24
 10
0.0
 20
0.0
 30
0.0
 70
   128
 71
   83
 72
   65
 73
   63
  0
VERTEX
  8
fence24
 10
0.0
 20
0.0
 30
0.0
 70
   128
 71
   83
 72
   95
 73
   96
  0
VERTEX
  8
fence24
 10
0.0
 20
0.0
 30
0.0
 70
   128
 71
   80
 72
   92
 73
   93
  0
VERTEX
  8
fence24
 10
0.0
 20
0.0
 30
0.0
 70
   128
 71
   85
 72
   69
 73
   67
  0
VERTEX
  8
fence24
 10
0.0
 20
0.0
 30
0.0
 70
   128
 71
   85
 72
   97
 73
   98
  0
VERTEX
  8
fence24
 10
0.0
 20
0.0
 30
0.0
 70
   128
 71
   61
 72
   81
 73
   82
  0
VERTEX
  8
fence24
 10
0.0
 20
0.0
 30
0.0
 70
   128
 71
   87
 72
   73
 73
   71
  0
VERTEX
  8
fence24
 10
0.0
 20
0.0
 30
0.0
 70
   128
 71
   87
 72
   99
 73
   100
  0
VERTEX
  8
fence24
 10
0.0
 20
0.0
 30
0.0
 70
   128
 71
   82
 72
   94
 73
   95
  0
VERTEX
  8
fence24
 10
0.0
 20
0.0
 30
0.0
 70
   128
 71
   77
 72
   53
 73
   75
  0
VERTEX
  8
fence24
 10
0.0
 20
0.0
 30
0.0
 70
   128
 71
   91
 72
   79
 73
   78
  0
VERTEX
  8
fence24
 10
0.0
 20
0.0
 30
0.0
 70
   128
 71
   65
 72
   83
 73
   84
  0
VERTEX
  8
fence24
 10
0.0
 20
0.0
 30
0.0
 70
   128
 71
   92
 72
   60
 73
   62
  0
VERTEX
  8
fence24
 10
0.0
 20
0.0
 30
0.0
 70
   128
 71
   94
 72
   64
 73
   66
  0
VERTEX
  8
fence24
 10
0.0
 20
0.0
 30
0.0
 70
   128
 71
   84
 72
   96
 73
   97
  0
VERTEX
  8
fence24
 10
0.0
 20
0.0
 30
0.0
 70
   128
 71
   96
 72
   68
 73
   70
  0
VERTEX
  8
fence24
 10
0.0
 20
0.0
 30
0.0
 70
   128
 71
   98
 72
   72
 73
   74
  0
VERTEX
  8
fence24
 10
0.0
 20
0.0
 30
0.0
 70
   128
 71
   69
 72
   85
 73
   86
  0
VERTEX
  8
fence24
 10
0.0
 20
0.0
 30
0.0
 70
   128
 71
   100
 72
   76
 73
   54
  0
VERTEX
  8
fence24
 10
0.0
 20
0.0
 30
0.0
 70
   128
 71
   89
 72
   54
 73
   56
  0
VERTEX
  8
fence24
 10
0.0
 20
0.0
 30
0.0
 70
   128
 71
   86
 72
   98
 73
   99
  0
VERTEX
  8
fence24
 10
0.0
 20
0.0
 30
0.0
 70
   128
 71
   91
 72
   58
 73
   60
  0
VERTEX
  8
fence24
 10
0.0
 20
0.0
 30
0.0
 70
   128
 71
   93
 72
   62
 73
   64
  0
VERTEX
  8
fence24
 10
0.0
 20
0.0
 30
0.0
 70
   128
 71
   73
 72
   87
 73
   88
  0
VERTEX
  8
fence24
 10
0.0
 20
0.0
 30
0.0
 70
   128
 71
   95
 72
   66
 73
   68
  0
VERTEX
  8
fence24
 10
0.0
 20
0.0
 30
0.0
 70
   128
 71
   97
 72
   70
 73
   72
  0
VERTEX
  8
fence24
 10
0.0
 20
0.0
 30
0.0
 70
   128
 71
   88
 72
   100
 73
   89
  0
VERTEX
  8
fence24
 10
0.0
 20
0.0
 30
0.0
 70
   128
 71
   99
 72
   74
 73
   76
  0
VERTEX
  8
fence24
 10
0.0
 20
0.0
 30
0.0
 70
   128
 71
   57
 72
   75
 73
   53
  0
VERTEX
  8
fence24
 10
0.0
 20
0.0
 30
0.0
 70
   128
 71
   69
 72
   75
 73
   57
  0
VERTEX
  8
fence24
 10
0.0
 20
0.0
 30
0.0
 70
   128
 71
   75
 72
   69
 73
   71
  0
VERTEX
  8
fence24
 10
0.0
 20
0.0
 30
0.0
 70
   128
 71
   59
 72
   61
 73
   63
  0
VERTEX
  8
fence24
 10
0.0
 20
0.0
 30
0.0
 70
   128
 71
   59
 72
   63
 73
   65
  0
VERTEX
  8
fence24
 10
0.0
 20
0.0
 30
0.0
 70
   128
 71
   65
 72
   67
 73
   69
  0
VERTEX
  8
fence24
 10
0.0
 20
0.0
 30
0.0
 70
   128
 71
   74
 72
   70
 73
   68
  0
VERTEX
  8
fence24
 10
0.0
 20
0.0
 30
0.0
 70
   128
 71
   74
 72
   72
 73
   70
  0
VERTEX
  8
fence24
 10
0.0
 20
0.0
 30
0.0
 70
   128
 71
   62
 72
   68
 73
   66
  0
VERTEX
  8
fence24
 10
0.0
 20
0.0
 30
0.0
 70
   128
 71
   76
 72
   68
 73
   62
  0
VERTEX
  8
fence24
 10
0.0
 20
0.0
 30
0.0
 70
   128
 71
   62
 72
   60
 73
   58
  0
VERTEX
  8
fence24
 10
0.0
 20
0.0
 30
0.0
 70
   128
 71
   56
 72
   54
 73
   76
  0
VERTEX
  8
fence24
 10
0.0
 20
0.0
 30
0.0
 70
   128
 71
   127
 72
   139
 73
   140
  0
VERTEX
  8
fence24
 10
0.0
 20
0.0
 30
0.0
 70
   128
 71
   103
 72
   127
 73
   128
  0
VERTEX
  8
fence24
 10
0.0
 20
0.0
 30
0.0
 70
   128
 71
   129
 72
   107
 73
   105
  0
VERTEX
  8
fence24
 10
0.0
 20
0.0
 30
0.0
 70
   128
 71
   129
 72
   141
 73
   142
  0
VERTEX
  8
fence24
 10
0.0
 20
0.0
 30
0.0
 70
   128
 71
   140
 72
   106
 73
   108
  0
VERTEX
  8
fence24
 10
0.0
 20
0.0
 30
0.0
 70
   128
 71
   131
 72
   111
 73
   109
  0
VERTEX
  8
fence24
 10
0.0
 20
0.0
 30
0.0
 70
   128
 71
   131
 72
   143
 73
   144
  0
VERTEX
  8
fence24
 10
0.0
 20
0.0
 30
0.0
 70
   128
 71
   107
 72
   129
 73
   130
  0
VERTEX
  8
fence24
 10
0.0
 20
0.0
 30
0.0
 70
   128
 71
   133
 72
   115
 73
   113
  0
VERTEX
  8
fence24
 10
0.0
 20
0.0
 30
0.0
 70
   128
 71
   133
 72
   145
 73
   146
  0
VERTEX
  8
fence24
 10
0.0
 20
0.0
 30
0.0
 70
   128
 71
   130
 72
   142
 73
   143
  0
VERTEX
  8
fence24
 10
0.0
 20
0.0
 30
0.0
 70
   128
 71
   135
 72
   119
 73
   117
  0
VERTEX
  8
fence24
 10
0.0
 20
0.0
 30
0.0
 70
   128
 71
   135
 72
   147
 73
   148
  0
VERTEX
  8
fence24
 10
0.0
 20
0.0
 30
0.0
 70
   128
 71
   111
 72
   131
 73
   132
  0
VERTEX
  8
fence24
 10
0.0
 20
0.0
 30
0.0
 70
   128
 71
   137
 72
   123
 73
   121
  0
VERTEX
  8
fence24
 10
0.0
 20
0.0
 30
0.0
 70
   128
 71
   137
 72
   149
 73
   150
  0
VERTEX
  8
fence24
 10
0.0
 20
0.0
 30
0.0
 70
   128
 71
   132
 72
   144
 73
   145
  0
VERTEX
  8
fence24
 10
0.0
 20
0.0
 30
0.0
 70
   128
 71
   127
 72
   103
 73
   125
  0
VERTEX
  8
fence24
 10
0.0
 20
0.0
 30
0.0
 70
   128
 71
   141
 72
   129
 73
   128
  0
VERTEX
  8
fence24
 10
0.0
 20
0.0
 30
0.0
 70
   128
 71
   115
 72
   133
 73
   134
  0
VERTEX
  8
fence24
 10
0.0
 20
0.0
 30
0.0
 70
   128
 71
   142
 72
   110
 73
   112
  0
VERTEX
  8
fence24
 10
0.0
 20
0.0
 30
0.0
 70
   128
 71
   144
 72
   114
 73
   116
  0
VERTEX
  8
fence24
 10
0.0
 20
0.0
 30
0.0
 70
   128
 71
   134
 72
   146
 73
   147
  0
VERTEX
  8
fence24
 10
0.0
 20
0.0
 30
0.0
 70
   128
 71
   146
 72
   118
 73
   120
  0
VERTEX
  8
fence24
 10
0.0
 20
0.0
 30
0.0
 70
   128
 71
   148
 72
   122
 73
   124
  0
VERTEX
  8
fence24
 10
0.0
 20
0.0
 30
0.0
 70
   128
 71
   119
 72
   135
 73
   136
  0
VERTEX
  8
fence24
 10
0.0
 20
0.0
 30
0.0
 70
   128
 71
   150
 72
   126
 73
   104
  0
VERTEX
  8
fence24
 10
0.0
 20
0.0
 30
0.0
 70
   128
 71
   139
 72
   104
 73
   106
  0
VERTEX
  8
fence24
 10
0.0
 20
0.0
 30
0.0
 70
   128
 71
   136
 72
   148
 73
   149
  0
VERTEX
  8
fence24
 10
0.0
 20
0.0
 30
0.0
 70
   128
 71
   141
 72
   108
 73
   110
  0
VERTEX
  8
fence24
 10
0.0
 20
0.0
 30
0.0
 70
   128
 71
   143
 72
   112
 73
   114
  0
VERTEX
  8
fence24
 10
0.0
 20
0.0
 30
0.0
 70
   128
 71
   123
 72
   137
 73
   138
  0
VERTEX
  8
fence24
 10
0.0
 20
0.0
 30
0.0
 70
   128
 71
   145
 72
   116
 73
   118
  0
VERTEX
  8
fence24
 10
0.0
 20
0.0
 30
0.0
 70
   128
 71
   147
 72
   120
 73
   122
  0
VERTEX
  8
fence24
 10
0.0
 20
0.0
 30
0.0
 70
   128
 71
   138
 72
   150
 73
   139
  0
VERTEX
  8
fence24
 10
0.0
 20
0.0
 30
0.0
 70
   128
 71
   149
 72
   124
 73
   126
  0
VERTEX
  8
fence24
 10
0.0
 20
0.0
 30
0.0
 70
   128
 71
   107
 72
   125
 73
   103
  0
VERTEX
  8
fence24
 10
0.0
 20
0.0
 30
0.0
 70
   128
 71
   119
 72
   125
 73
   107
  0
VERTEX
  8
fence24
 10
0.0
 20
0.0
 30
0.0
 70
   128
 71
   125
 72
   119
 73
   121
  0
VERTEX
  8
fence24
 10
0.0
 20
0.0
 30
0.0
 70
   128
 71
   109
 72
   111
 73
   113
  0
VERTEX
  8
fence24
 10
0.0
 20
0.0
 30
0.0
 70
   128
 71
   109
 72
   113
 73
   115
  0
VERTEX
  8
fence24
 10
0.0
 20
0.0
 30
0.0
 70
   128
 71
   115
 72
   117
 73
   119
  0
VERTEX
  8
fence24
 10
0.0
 20
0.0
 30
0.0
 70
   128
 71
   124
 72
   120
 73
   118
  0
VERTEX
  8
fence24
 10
0.0
 20
0.0
 30
0.0
 70
   128
 71
   124
 72
   122
 73
   120
  0
VERTEX
  8
fence24
 10
0.0
 20
0.0
 30
0.0
 70
   128
 71
   112
 72
   118
 73
   116
  0
VERTEX
  8
fence24
 10
0.0
 20
0.0
 30
0.0
 70
   128
 71
   126
 72
   118
 73
   112
  0
VERTEX
  8
fence24
 10
0.0
 20
0.0
 30
0.0
 70
   128
 71
   112
 72
   110
 73
   108
  0
VERTEX
  8
fence24
 10
0.0
 20
0.0
 30
0.0
 70
   128
 71
   106
 72
   104
 73
   126
  0
VERTEX
  8
fence24
 10
0.0
 20
0.0
 30
0.0
 70
   128
 71
   177
 72
   189
 73
   190
  0
VERTEX
  8
fence24
 10
0.0
 20
0.0
 30
0.0
 70
   128
 71
   153
 72
   177
 73
   178
  0
VERTEX
  8
fence24
 10
0.0
 20
0.0
 30
0.0
 70
   128
 71
   179
 72
   157
 73
   155
  0
VERTEX
  8
fence24
 10
0.0
 20
0.0
 30
0.0
 70
   128
 71
   179
 72
   191
 73
   192
  0
VERTEX
  8
fence24
 10
0.0
 20
0.0
 30
0.0
 70
   128
 71
   190
 72
   156
 73
   158
  0
VERTEX
  8
fence24
 10
0.0
 20
0.0
 30
0.0
 70
   128
 71
   181
 72
   161
 73
   159
  0
VERTEX
  8
fence24
 10
0.0
 20
0.0
 30
0.0
 70
   128
 71
   181
 72
   193
 73
   194
  0
VERTEX
  8
fence24
 10
0.0
 20
0.0
 30
0.0
 70
   128
 71
   157
 72
   179
 73
   180
  0
VERTEX
  8
fence24
 10
0.0
 20
0.0
 30
0.0
 70
   128
 71
   183
 72
   165
 73
   163
  0
VERTEX
  8
fence24
 10
0.0
 20
0.0
 30
0.0
 70
   128
 71
   183
 72
   195
 73
   196
  0
VERTEX
  8
fence24
 10
0.0
 20
0.0
 30
0.0
 70
   128
 71
   180
 72
   192
 73
   193
  0
VERTEX
  8
fence24
 10
0.0
 20
0.0
 30
0.0
 70
   128
 71
   185
 72
   169
 73
   167
  0
VERTEX
  8
fence24
 10
0.0
 20
0.0
 30
0.0
 70
   128
 71
   185
 72
   197
 73
   198
  0
VERTEX
  8
fence24
 10
0.0
 20
0.0
 30
0.0
 70
   128
 71
   161
 72
   181
 73
   182
  0
VERTEX
  8
fence24
 10
0.0
 20
0.0
 30
0.0
 70
   128
 71
   187
 72
   173
 73
   171
  0
VERTEX
  8
fence24
 10
0.0
 20
0.0
 30
0.0
 70
   128
 71
   187
 72
   199
 73
   200
  0
VERTEX
  8
fence24
 10
0.0
 20
0.0
 30
0.0
 70
   128
 71
   182
 72
   194
 73
   195
  0
VERTEX
  8
fence24
 10
0.0
 20
0.0
 30
0.0
 70
   128
 71
   177
 72
   153
 73
   175
  0
VERTEX
  8
fence24
 10
0.0
 20
0.0
 30
0.0
 70
   128
 71
   191
 72
   179
 73
   178
  0
VERTEX
  8
fence24
 10
0.0
 20
0.0
 30
0.0
 70
   128
 71
   165
 72
   183
 73
   184
  0
VERTEX
  8
fence24
 10
0.0
 20
0.0
 30
0.0
 70
   128
 71
   192
 72
   160
 73
   162
  0
VERTEX
  8
fence24
 10
0.0
 20
0.0
 30
0.0
 70
   128
 71
   194
 72
   164
 73
   166
  0
VERTEX
  8
fence24
 10
0.0
 20
0.0
 30
0.0
 70
   128
 71
   184
 72
   196
 73
   197
  0
VERTEX
  8
fence24
 10
0.0
 20
0.0
 30
0.0
 70
   128
 71
   196
 72
   168
 73
   170
  0
VERTEX
  8
fence24
 10
0.0
 20
0.0
 30
0.0
 70
   128
 71
   198
 72
   172
 73
   174
  0
VERTEX
  8
fence24
 10
0.0
 20
0.0
 30
0.0
 70
   128
 71
   169
 72
   185
 73
   186
  0
VERTEX
  8
fence24
 10
0.0
 20
0.0
 30
0.0
 70
   128
 71
   200
 72
   176
 73
   154
  0
VERTEX
  8
fence24
 10
0.0
 20
0.0
 30
0.0
 70
   128
 71
   189
 72
   154
 73
   156
  0
VERTEX
  8
fence24
 10
0.0
 20
0.0
 30
0.0
 70
   128
 71
   186
 72
   198
 73
   199
  0
VERTEX
  8
fence24
 10
0.0
 20
0.0
 30
0.0
 70
   128
 71
   191
 72
   158
 73
   160
  0
VERTEX
  8
fence24
 10
0.0
 20
0.0
 30
0.0
 70
   128
 71
   193
 72
   162
 73
   164
  0
VERTEX
  8
fence24
 10
0.0
 20
0.0
 30
0.0
 70
   128
 71
   173
 72
   187
 73
   188
  0
VERTEX
  8
fence24
 10
0.0
 20
0.0
 30
0.0
 70
   128
 71
   195
 72
   166
 73
   168
  0
VERTEX
  8
fence24
 10
0.0
 20
0.0
 30
0.0
 70
   128
 71
   197
 72
   170
 73
   172
  0
VERTEX
  8
fence24
 10
0.0
 20
0.0
 30
0.0
 70
   128
 71
   188
 72
   200
 73
   189
  0
VERTEX
  8
fence24
 10
0.0
 20
0.0
 30
0.0
 70
   128
 71
   199
 72
   174
 73
   176
  0
VERTEX
  8
fence24
 10
0.0
 20
0.0
 30
0.0
 70
   128
 71
   157
 72
   175
 73
   153
  0
VERTEX
  8
fence24
 10
0.0
 20
0.0
 30
0.0
 70
   128
 71
   169
 72
   175
 73
   157
  0
VERTEX
  8
fence24
 10
0.0
 20
0.0
 30
0.0
 70
   128
 71
   175
 72
   169
 73
   171
  0
VERTEX
  8
fence24
 10
0.0
 20
0.0
 30
0.0
 70
   128
 71
   159
 72
   161
 73
   163
  0
VERTEX
  8
fence24
 10
0.0
 20
0.0
 30
0.0
 70
   128
 71
   159
 72
   163
 73
   165
  0
VERTEX
  8
fence24
 10
0.0
 20
0.0
 30
0.0
 70
   128
 71
   165
 72
   167
 73
   169
  0
VERTEX
  8
fence24
 10
0.0
 20
0.0
 30
0.0
 70
   128
 71
   174
 72
   170
 73
   168
  0
VERTEX
  8
fence24
 10
0.0
 20
0.0
 30
0.0
 70
   128
 71
   174
 72
   172
 73
   170
  0
VERTEX
  8
fence24
 10
0.0
 20
0.0
 30
0.0
 70
   128
 71
   162
 72
   168
 73
   166
  0
VERTEX
  8
fence24
 10
0.0
 20
0.0
 30
0.0
 70
   128
 71
   176
 72
   168
 73
   162
  0
VERTEX
  8
fence24
 10
0.0
 20
0.0
 30
0.0
 70
   128
 71
   162
 72
   160
 73
   158
  0
VERTEX
  8
fence24
 10
0.0
 20
0.0
 30
0.0
 70
   128
 71
   156
 72
   154
 73
   176
  0
VERTEX
  8
fence24
 10
0.0
 20
0.0
 30
0.0
 70
   128
 71
   227
 72
   239
 73
   240
  0
VERTEX
  8
fence24
 10
0.0
 20
0.0
 30
0.0
 70
   128
 71
   203
 72
   227
 73
   228
  0
VERTEX
  8
fence24
 10
0.0
 20
0.0
 30
0.0
 70
   128
 71
   229
 72
   207
 73
   205
  0
VERTEX
  8
fence24
 10
0.0
 20
0.0
 30
0.0
 70
   128
 71
   229
 72
   241
 73
   242
  0
VERTEX
  8
fence24
 10
0.0
 20
0.0
 30
0.0
 70
   128
 71
   240
 72
   206
 73
   208
  0
VERTEX
  8
fence24
 10
0.0
 20
0.0
 30
0.0
 70
   128
 71
   231
 72
   211
 73
   209
  0
VERTEX
  8
fence24
 10
0.0
 20
0.0
 30
0.0
 70
   128
 71
   231
 72
   243
 73
   244
  0
VERTEX
  8
fence24
 10
0.0
 20
0.0
 30
0.0
 70
   128
 71
   207
 72
   229
 73
   230
  0
VERTEX
  8
fence24
 10
0.0
 20
0.0
 30
0.0
 70
   128
 71
   233
 72
   215
 73
   213
  0
VERTEX
  8
fence24
 10
0.0
 20
0.0
 30
0.0
 70
   128
 71
   233
 72
   245
 73
   246
  0
VERTEX
  8
fence24
 10
0.0
 20
0.0
 30
0.0
 70
   128
 71
   230
 72
   242
 73
   243
  0
VERTEX
  8
fence24
 10
0.0
 20
0.0
 30
0.0
 70
   128
 71
   235
 72
   219
 73
   217
  0
VERTEX
  8
fence24
 10
0.0
 20
0.0
 30
0.0
 70
   128
 71
   235
 72
   247
 73
   248
  0
VERTEX
  8
fence24
 10
0.0
 20
0.0
 30
0.0
 70
   128
 71
   211
 72
   231
 73
   232
  0
VERTEX
  8
fence24
 10
0.0
 20
0.0
 30
0.0
 70
   128
 71
   237
 72
   223
 73
   221
  0
VERTEX
  8
fence24
 10
0.0
 20
0.0
 30
0.0
 70
   128
 71
   237
 72
   249
 73
   250
  0
VERTEX
  8
fence24
 10
0.0
 20
0.0
 30
0.0
 70
   128
 71
   232
 72
   244
 73
   245
  0
VERTEX
  8
fence24
 10
0.0
 20
0.0
 30
0.0
 70
   128
 71
   227
 72
   203
 73
   225
  0
VERTEX
  8
fence24
 10
0.0
 20
0.0
 30
0.0
 70
   128
 71
   241
 72
   229
 73
   228
  0
VERTEX
  8
fence24
 10
0.0
 20
0.0
 30
0.0
 70
   128
 71
   215
 72
   233
 73
   234
  0
VERTEX
  8
fence24
 10
0.0
 20
0.0
 30
0.0
 70
   128
 71
   242
 72
   210
 73
   212
  0
VERTEX
  8
fence24
 10
0.0
 20
0.0
 30
0.0
 70
   128
 71
   244
 72
   214
 73
   216
  0
VERTEX
  8
fence24
 10
0.0
 20
0.0
 30
0.0
 70
   128
 71
   234
 72
   246
 73
   247
  0
VERTEX
  8
fence24
 10
0.0
 20
0.0
 30
0.0
 70
   128
 71
   246
 72
   218
 73
   220
  0
VERTEX
  8
fence24
 10
0.0
 20
0.0
 30
0.0
 70
   128
 71
   248
 72
   222
 73
   224
  0
VERTEX
  8
fence24
 10
0.0
 20
0.0
 30
0.0
 70
   128
 71
   219
 72
   235
 73
   236
  0
VERTEX
  8
fence24
 10
0.0
 20
0.0
 30
0.0
 70
   128
 71
   250
 72
   226
 73
   204
  0
VERTEX
  8
fence24
 10
0.0
 20
0.0
 30
0.0
 70
   128
 71
   239
 72
   204
 73
   206
  0
VERTEX
  8
fence24
 10
0.0
 20
0.0
 30
0.0
 70
   128
 71
   236
 72
   248
 73
   249
  0
VERTEX
  8
fence24
 10
0.0
 20
0.0
 30
0.0
 70
   128
 71
   241
 72
   208
 73
   210
  0
VERTEX
  8
fence24
 10
0.0
 20
0.0
 30
0.0
 70
   128
 71
   243
 72
   212
 73
   214
  0
VERTEX
  8
fence24
 10
0.0
 20
0.0
 30
0.0
 70
   128
 71
   223
 72
   237
 73
   238
  0
VERTEX
  8
fence24
 10
0.0
 20
0.0
 30
0.0
 70
   128
 71
   245
 72
   216
 73
   218
  0
VERTEX
  8
fence24
 10
0.0
 20
0.0
 30
0.0
 70
   128
 71
   247
 72
   220
 73
   222
  0
VERTEX
  8
fence24
 10
0.0
 20
0.0
 30
0.0
 70
   128
 71
   238
 72
   250
 73
   239
  0
VERTEX
  8
fence24
 10
0.0
 20
0.0
 30
0.0
 70
   128
 71
   249
 72
   224
 73
   226
  0
VERTEX
  8
fence24
 10
0.0
 20
0.0
 30
0.0
 70
   128
 71
   207
 72
   225
 73
   203
  0
VERTEX
  8
fence24
 10
0.0
 20
0.0
 30
0.0
 70
   128
 71
   219
 72
   225
 73
   207
  0
VERTEX
  8
fence24
 10
0.0
 20
0.0
 30
0.0
 70
   128
 71
   225
 72
   219
 73
   221
  0
VERTEX
  8
fence24
 10
0.0
 20
0.0
 30
0.0
 70
   128
 71
   209
 72
   211
 73
   213
  0
VERTEX
  8
fence24
 10
0.0
 20
0.0
 30
0.0
 70
   128
 71
   209
 72
   213
 73
   215
  0
VERTEX
  8
fence24
 10
0.0
 20
0.0
 30
0.0
 70
   128
 71
   215
 72
   217
 73
   219
  0
VERTEX
  8
fence24
 10
0.0
 20
0.0
 30
0.0
 70
   128
 71
   224
 72
   220
 73
   218
  0
VERTEX
  8
fence24
 10
0.0
 20
0.0
 30
0.0
 70
   128
 71
   224
 72
   222
 73
   220
  0
VERTEX
  8
fence24
 10
0.0
 20
0.0
 30
0.0
 70
   128
 71
   212
 72
   218
 73
   216
  0
VERTEX
  8
fence24
 10
0.0
 20
0.0
 30
0.0
 70
   128
 71
   226
 72
   218
 73
   212
  0
VERTEX
  8
fence24
 10
0.0
 20
0.0
 30
0.0
 70
   128
 71
   212
 72
   210
 73
   208
  0
VERTEX
  8
fence24
 10
0.0
 20
0.0
 30
0.0
 70
   128
 71
   206
 72
   204
 73
   226
  0
VERTEX
  8
fence24
 10
0.0
 20
0.0
 30
0.0
 70
   128
 71
   277
 72
   289
 73
   290
  0
VERTEX
  8
fence24
 10
0.0
 20
0.0
 30
0.0
 70
   128
 71
   253
 72
   277
 73
   278
  0
VERTEX
  8
fence24
 10
0.0
 20
0.0
 30
0.0
 70
   128
 71
   279
 72
   257
 73
   255
  0
VERTEX
  8
fence24
 10
0.0
 20
0.0
 30
0.0
 70
   128
 71
   279
 72
   291
 73
   292
  0
VERTEX
  8
fence24
 10
0.0
 20
0.0
 30
0.0
 70
   128
 71
   290
 72
   256
 73
   258
  0
VERTEX
  8
fence24
 10
0.0
 20
0.0
 30
0.0
 70
   128
 71
   281
 72
   261
 73
   259
  0
VERTEX
  8
fence24
 10
0.0
 20
0.0
 30
0.0
 70
   128
 71
   281
 72
   293
 73
   294
  0
VERTEX
  8
fence24
 10
0.0
 20
0.0
 30
0.0
 70
   128
 71
   257
 72
   279
 73
   280
  0
VERTEX
  8
fence24
 10
0.0
 20
0.0
 30
0.0
 70
   128
 71
   283
 72
   265
 73
   263
  0
VERTEX
  8
fence24
 10
0.0
 20
0.0
 30
0.0
 70
   128
 71
   283
 72
   295
 73
   296
  0
VERTEX
  8
fence24
 10
0.0
 20
0.0
 30
0.0
 70
   128
 71
   280
 72
   292
 73
   293
  0
VERTEX
  8
fence24
 10
0.0
 20
0.0
 30
0.0
 70
   128
 71
   285
 72
   269
 73
   267
  0
VERTEX
  8
fence24
 10
0.0
 20
0.0
 30
0.0
 70
   128
 71
   285
 72
   297
 73
   298
  0
VERTEX
  8
fence24
 10
0.0
 20
0.0
 30
0.0
 70
   128
 71
   261
 72
   281
 73
   282
  0
VERTEX
  8
fence24
 10
0.0
 20
0.0
 30
0.0
 70
   128
 71
   287
 72
   273
 73
   271
  0
VERTEX
  8
fence24
 10
0.0
 20
0.0
 30
0.0
 70
   128
 71
   287
 72
   299
 73
   300
  0
VERTEX
  8
fence24
 10
0.0
 20
0.0
 30
0.0
 70
   128
 71
   282
 72
   294
 73
   295
  0
VERTEX
  8
fence24
 10
0.0
 20
0.0
 30
0.0
 70
   128
 71
   277
 72
   253
 73
   275
  0
VERTEX
  8
fence24
 10
0.0
 20
0.0
 30
0.0
 70
   128
 71
   291
 72
   279
 73
   278
  0
VERTEX
  8
fence24
 10
0.0
 20
0.0
 30
0.0
 70
   128
 71
   265
 72
   283
 73
   284
  0
VERTEX
  8
fence24
 10
0.0
 20
0.0
 30
0.0
 70
   128
 71
   292
 72
   260
 73
   262
  0
VERTEX
  8
fence24
 10
0.0
 20
0.0
 30
0.0
 70
   128
 71
   294
 72
   264
 73
   266
  0
VERTEX
  8
fence24
 10
0.0
 20
0.0
 30
0.0
 70
   128
 71
   284
 72
   296
 73
   297
  0
VERTEX
  8
fence24
 10
0.0
 20
0.0
 30
0.0
 70
   128
 71
   296
 72
   268
 73
   270
  0
VERTEX
  8
fence24
 10
0.0
 20
0.0
 30
0.0
 70
   128
 71
   298
 72
   272
 73
   274
  0
VERTEX
  8
fence24
 10
0.0
 20
0.0
 30
0.0
 70
   128
 71
   269
 72
   285
 73
   286
  0
VERTEX
  8
fence24
 10
0.0
 20
0.0
 30
0.0
 70
   128
 71
   300
 72
   276
 73
   254
  0
VERTEX
  8
fence24
 10
0.0
 20
0.0
 30
0.0
 70
   128
 71
   289
 72
   254
 73
   256
  0
VERTEX
  8
fence24
 10
0.0
 20
0.0
 30
0.0
 70
   128
 71
   286
 72
   298
 73
   299
  0
VERTEX
  8
fence24
 10
0.0
 20
0.0
 30
0.0
 70
   128
 71
   291
 72
   258
 73
   260
  0
VERTEX
  8
fence24
 10
0.0
 20
0.0
 30
0.0
 70
   128
 71
   293
 72
   262
 73
   264
  0
VERTEX
  8
fence24
 10
0.0
 20
0.0
 30
0.0
 70
   128
 71
   273
 72
   287
 73
   288
  0
VERTEX
  8
fence24
 10
0.0
 20
0.0
 30
0.0
 70
   128
 71
   295
 72
   266
 73
   268
  0
VERTEX
  8
fence24
 10
0.0
 20
0.0
 30
0.0
 70
   128
 71
   297
 72
   270
 73
   272
  0
VERTEX
  8
fence24
 10
0.0
 20
0.0
 30
0.0
 70
   128
 71
   288
 72
   300
 73
   289
  0
VERTEX
  8
fence24
 10
0.0
 20
0.0
 30
0.0
 70
   128
 71
   299
 72
   274
 73
   276
  0
VERTEX
  8
fence24
 10
0.0
 20
0.0
 30
0.0
 70
   128
 71
   257
 72
   275
 73
   253
  0
VERTEX
  8
fence24
 10
0.0
 20
0.0
 30
0.0
 70
   128
 71
   269
 72
   275
 73
   257
  0
VERTEX
  8
fence24
 10
0.0
 20
0.0
 30
0.0
 70
   128
 71
   275
 72
   269
 73
   271
  0
VERTEX
  8
fence24
 10
0.0
 20
0.0
 30
0.0
 70
   128
 71
   259
 72
   261
 73
   263
  0
VERTEX
  8
fence24
 10
0.0
 20
0.0
 30
0.0
 70
   128
 71
   259
 72
   263
 73
   265
  0
VERTEX
  8
fence24
 10
0.0
 20
0.0
 30
0.0
 70
   128
 71
   265
 72
   267
 73
   269
  0
VERTEX
  8
fence24
 10
0.0
 20
0.0
 30
0.0
 70
   128
 71
   274
 72
   270
 73
   268
  0
VERTEX
  8
fence24
 10
0.0
 20
0.0
 30
0.0
 70
   128
 71
   274
 72
   272
 73
   270
  0
VERTEX
  8
fence24
 10
0.0
 20
0.0
 30
0.0
 70
   128
 71
   262
 72
   268
 73
   266
  0
VERTEX
  8
fence24
 10
0.0
 20
0.0
 30
0.0
 70
   128
 71
   276
 72
   268
 73
   262
  0
VERTEX
  8
fence24
 10
0.0
 20
0.0
 30
0.0
 70
   128
 71
   262
 72
   260
 73
   258
  0
VERTEX
  8
fence24
 10
0.0
 20
0.0
 30
0.0
 70
   128
 71
   256
 72
   254
 73
   276
  0
VERTEX
  8
fence24
 10
0.0
 20
0.0
 30
0.0
 70
   128
 71
   27
 72
   40
 73
   28
  0
VERTEX
  8
fence24
 10
0.0
 20
0.0
 30
0.0
 70
   128
 71
   3
 72
   28
 73
   5
  0
VERTEX
  8
fence24
 10
0.0
 20
0.0
 30
0.0
 70
   128
 71
   29
 72
   5
 73
   28
  0
VERTEX
  8
fence24
 10
0.0
 20
0.0
 30
0.0
 70
   128
 71
   29
 72
   42
 73
   30
  0
VERTEX
  8
fence24
 10
0.0
 20
0.0
 30
0.0
 70
   128
 71
   40
 72
   8
 73
   41
  0
VERTEX
  8
fence24
 10
0.0
 20
0.0
 30
0.0
 70
   128
 71
   31
 72
   9
 73
   30
  0
VERTEX
  8
fence24
 10
0.0
 20
0.0
 30
0.0
 70
   128
 71
   31
 72
   44
 73
   32
  0
VERTEX
  8
fence24
 10
0.0
 20
0.0
 30
0.0
 70
   128
 71
   7
 72
   30
 73
   9
  0
VERTEX
  8
fence24
 10
0.0
 20
0.0
 30
0.0
 70
   128
 71
   33
 72
   13
 73
   32
  0
VERTEX
  8
fence24
 10
0.0
 20
0.0
 30
0.0
 70
   128
 71
   33
 72
   46
 73
   34
  0
VERTEX
  8
fence24
 10
0.0
 20
0.0
 30
0.0
 70
   128
 71
   30
 72
   43
 73
   31
  0
VERTEX
  8
fence24
 10
0.0
 20
0.0
 30
0.0
 70
   128
 71
   35
 72
   17
 73
   34
  0
VERTEX
  8
fence24
 10
0.0
 20
0.0
 30
0.0
 70
   128
 71
   35
 72
   48
 73
   36
  0
VERTEX
  8
fence24
 10
0.0
 20
0.0
 30
0.0
 70
   128
 71
   11
 72
   32
 73
   13
  0
VERTEX
  8
fence24
 10
0.0
 20
0.0
 30
0.0
 70
   128
 71
   37
 72
   21
 73
   36
  0
VERTEX
  8
fence24
 10
0.0
 20
0.0
 30
0.0
 70
   128
 71
   37
 72
   50
 73
   38
  0
VERTEX
  8
fence24
 10
0.0
 20
0.0
 30
0.0
 70
   128
 71
   32
 72
   45
 73
   33
  0
VERTEX
  8
fence24
 10
0.0
 20
0.0
 30
0.0
 70
   128
 71
   27
 72
   25
 73
   38
  0
VERTEX
  8
fence24
 10
0.0
 20
0.0
 30
0.0
 70
   128
 71
   41
 72
   28
 73
   40
  0
VERTEX
  8
fence24
 10
0.0
 20
0.0
 30
0.0
 70
   128
 71
   15
 72
   34
 73
   17
  0
VERTEX
  8
fence24
 10
0.0
 20
0.0
 30
0.0
 70
   128
 71
   42
 72
   12
 73
   43
  0
VERTEX
  8
fence24
 10
0.0
 20
0.0
 30
0.0
 70
   128
 71
   44
 72
   16
 73
   45
  0
VERTEX
  8
fence24
 10
0.0
 20
0.0
 30
0.0
 70
   128
 71
   34
 72
   47
 73
   35
  0
VERTEX
  8
fence24
 10
0.0
 20
0.0
 30
0.0
 70
   128
 71
   46
 72
   20
 73
   47
  0
VERTEX
  8
fence24
 10
0.0
 20
0.0
 30
0.0
 70
   128
 71
   48
 72
   24
 73
   49
  0
VERTEX
  8
fence24
 10
0.0
 20
0.0
 30
0.0
 70
   128
 71
   19
 72
   36
 73
   21
  0
VERTEX
  8
fence24
 10
0.0
 20
0.0
 30
0.0
 70
   128
 71
   50
 72
   4
 73
   39
  0
VERTEX
  8
fence24
 10
0.0
 20
0.0
 30
0.0
 70
   128
 71
   39
 72
   6
 73
   40
  0
VERTEX
  8
fence24
 10
0.0
 20
0.0
 30
0.0
 70
   128
 71
   36
 72
   49
 73
   37
  0
VERTEX
  8
fence24
 10
0.0
 20
0.0
 30
0.0
 70
   128
 71
   41
 72
   10
 73
   42
  0
VERTEX
  8
fence24
 10
0.0
 20
0.0
 30
0.0
 70
   128
 71
   43
 72
   14
 73
   44
  0
VERTEX
  8
fence24
 10
0.0
 20
0.0
 30
0.0
 70
   128
 71
   23
 72
   38
 73
   25
  0
VERTEX
  8
fence24
 10
0.0
 20
0.0
 30
0.0
 70
   128
 71
   45
 72
   18
 73
   46
  0
VERTEX
  8
fence24
 10
0.0
 20
0.0
 30
0.0
 70
   128
 71
   47
 72
   22
 73
   48
  0
VERTEX
  8
fence24
 10
0.0
 20
0.0
 30
0.0
 70
   128
 71
   38
 72
   39
 73
   27
  0
VERTEX
  8
fence24
 10
0.0
 20
0.0
 30
0.0
 70
   128
 71
   49
 72
   26
 73
   50
  0
VERTEX
  8
fence24
 10
0.0
 20
0.0
 30
0.0
 70
   128
 71
   7
 72
   3
 73
   5
  0
VERTEX
  8
fence24
 10
0.0
 20
0.0
 30
0.0
 70
   128
 71
   19
 72
   7
 73
   9
  0
VERTEX
  8
fence24
 10
0.0
 20
0.0
 30
0.0
 70
   128
 71
   25
 72
   21
 73
   23
  0
VERTEX
  8
fence24
 10
0.0
 20
0.0
 30
0.0
 70
   128
 71
   9
 72
   15
 73
   19
  0
VERTEX
  8
fence24
 10
0.0
 20
0.0
 30
0.0
 70
   128
 71
   24
 72
   18
 73
   26
  0
VERTEX
  8
fence24
 10
0.0
 20
0.0
 30
0.0
 70
   128
 71
   12
 72
   16
 73
   14
  0
VERTEX
  8
fence24
 10
0.0
 20
0.0
 30
0.0
 70
   128
 71
   26
 72
   12
 73
   6
  0
VERTEX
  8
fence24
 10
0.0
 20
0.0
 30
0.0
 70
   128
 71
   12
 72
   8
 73
   6
  0
VERTEX
  8
fence24
 10
0.0
 20
0.0
 30
0.0
 70
   128
 71
   77
 72
   90
 73
   78
  0
VERTEX
  8
fence24
 10
0.0
 20
0.0
 30
0.0
 70
   128
 71
   53
 72
   78
 73
   55
  0
VERTEX
  8
fence24
 10
0.0
 20
0.0
 30
0.0
 70
   128
 71
   79
 72
   55
 73
   78
  0
VERTEX
  8
fence24
 10
0.0
 20
0.0
 30
0.0
 70
   128
 71
   79
 72
   92
 73
   80
  0
VERTEX
  8
fence24
 10
0.0
 20
0.0
 30
0.0
 70
   128
 71
   90
 72
   58
 73
   91
  0
VERTEX
  8
fence24
 10
0.0
 20
0.0
 30
0.0
 70
   128
 71
   81
 72
   59
 73
   80
  0
VERTEX
  8
fence24
 10
0.0
 20
0.0
 30
0.0
 70
   128
 71
   81
 72
   94
 73
   82
  0
VERTEX
  8
fence24
 10
0.0
 20
0.0
 30
0.0
 70
   128
 71
   57
 72
   80
 73
   59
  0
VERTEX
  8
fence24
 10
0.0
 20
0.0
 30
0.0
 70
   128
 71
   83
 72
   63
 73
   82
  0
VERTEX
  8
fence24
 10
0.0
 20
0.0
 30
0.0
 70
   128
 71
   83
 72
   96
 73
   84
  0
VERTEX
  8
fence24
 10
0.0
 20
0.0
 30
0.0
 70
   128
 71
   80
 72
   93
 73
   81
  0
VERTEX
  8
fence24
 10
0.0
 20
0.0
 30
0.0
 70
   128
 71
   85
 72
   67
 73
   84
  0
VERTEX
  8
fence24
 10
0.0
 20
0.0
 30
0.0
 70
   128
 71
   85
 72
   98
 73
   86
  0
VERTEX
  8
fence24
 10
0.0
 20
0.0
 30
0.0
 70
   128
 71
   61
 72
   82
 73
   63
  0
VERTEX
  8
fence24
 10
0.0
 20
0.0
 30
0.0
 70
   128
 71
   87
 72
   71
 73
   86
  0
VERTEX
  8
fence24
 10
0.0
 20
0.0
 30
0.0
 70
   128
 71
   87
 72
   100
 73
   88
  0
VERTEX
  8
fence24
 10
0.0
 20
0.0
 30
0.0
 70
   128
 71
   82
 72
   95
 73
   83
  0
VERTEX
  8
fence24
 10
0.0
 20
0.0
 30
0.0
 70
   128
 71
   77
 72
   75
 73
   88
  0
VERTEX
  8
fence24
 10
0.0
 20
0.0
 30
0.0
 70
   128
 71
   91
 72
   78
 73
   90
  0
VERTEX
  8
fence24
 10
0.0
 20
0.0
 30
0.0
 70
   128
 71
   65
 72
   84
 73
   67
  0
VERTEX
  8
fence24
 10
0.0
 20
0.0
 30
0.0
 70
   128
 71
   92
 72
   62
 73
   93
  0
VERTEX
  8
fence24
 10
0.0
 20
0.0
 30
0.0
 70
   128
 71
   94
 72
   66
 73
   95
  0
VERTEX
  8
fence24
 10
0.0
 20
0.0
 30
0.0
 70
   128
 71
   84
 72
   97
 73
   85
  0
VERTEX
  8
fence24
 10
0.0
 20
0.0
 30
0.0
 70
   128
 71
   96
 72
   70
 73
   97
  0
VERTEX
  8
fence24
 10
0.0
 20
0.0
 30
0.0
 70
   128
 71
   98
 72
   74
 73
   99
  0
VERTEX
  8
fence24
 10
0.0
 20
0.0
 30
0.0
 70
   128
 71
   69
 72
   86
 73
   71
  0
VERTEX
  8
fence24
 10
0.0
 20
0.0
 30
0.0
 70
   128
 71
   100
 72
   54
 73
   89
  0
VERTEX
  8
fence24
 10
0.0
 20
0.0
 30
0.0
 70
   128
 71
   89
 72
   56
 73
   90
  0
VERTEX
  8
fence24
 10
0.0
 20
0.0
 30
0.0
 70
   128
 71
   86
 72
   99
 73
   87
  0
VERTEX
  8
fence24
 10
0.0
 20
0.0
 30
0.0
 70
   128
 71
   91
 72
   60
 73
   92
  0
VERTEX
  8
fence24
 10
0.0
 20
0.0
 30
0.0
 70
   128
 71
   93
 72
   64
 73
   94
  0
VERTEX
  8
fence24
 10
0.0
 20
0.0
 30
0.0
 70
   128
 71
   73
 72
   88
 73
   75
  0
VERTEX
  8
fence24
 10
0.0
 20
0.0
 30
0.0
 70
   128
 71
   95
 72
   68
 73
   96
  0
VERTEX
  8
fence24
 10
0.0
 20
0.0
 30
0.0
 70
   128
 71
   97
 72
   72
 73
   98
  0
VERTEX
  8
fence24
 10
0.0
 20
0.0
 30
0.0
 70
   128
 71
   88
 72
   89
 73
   77
  0
VERTEX
  8
fence24
 10
0.0
 20
0.0
 30
0.0
 70
   128
 71
   99
 72
   76
 73
   100
  0
VERTEX
  8
fence24
 10
0.0
 20
0.0
 30
0.0
 70
   128
 71
   57
 72
   53
 73
   55
  0
VERTEX
  8
fence24
 10
0.0
 20
0.0
 30
0.0
 70
   128
 71
   69
 72
   57
 73
   59
  0
VERTEX
  8
fence24
 10
0.0
 20
0.0
 30
0.0
 70
   128
 71
   75
 72
   71
 73
   73
  0
VERTEX
  8
fence24
 10
0.0
 20
0.0
 30
0.0
 70
   128
 71
   59
 72
   65
 73
   69
  0
VERTEX
  8
fence24
 10
0.0
 20
0.0
 30
0.0
 70
   128
 71
   74
 72
   68
 73
   76
  0
VERTEX
  8
fence24
 10
0.0
 20
0.0
 30
0.0
 70
   128
 71
   62
 72
   66
 73
   64
  0
VERTEX
  8
fence24
 10
0.0
 20
0.0
 30
0.0
 70
   128
 71
   76
 72
   62
 73
   56
  0
VERTEX
  8
fence24
 10
0.0
 20
0.0
 30
0.0
 70
   128
 71
   62
 72
   58
 73
   56
  0
VERTEX
  8
fence24
 10
0.0
 20
0.0
 30
0.0
 70
   128
 71
   127
 72
   140
 73
   128
  0
VERTEX
  8
fence24
 10
0.0
 20
0.0
 30
0.0
 70
   128
 71
   103
 72
   128
 73
   105
  0
VERTEX
  8
fence24
 10
0.0
 20
0.0
 30
0.0
 70
   128
 71
   129
 72
   105
 73
   128
  0
VERTEX
  8
fence24
 10
0.0
 20
0.0
 30
0.0
 70
   128
 71
   129
 72
   142
 73
   130
  0
VERTEX
  8
fence24
 10
0.0
 20
0.0
 30
0.0
 70
   128
 71
   140
 72
   108
 73
   141
  0
VERTEX
  8
fence24
 10
0.0
 20
0.0
 30
0.0
 70
   128
 71
   131
 72
   109
 73
   130
  0
VERTEX
  8
fence24
 10
0.0
 20
0.0
 30
0.0
 70
   128
 71
   131
 72
   144
 73
   132
  0
VERTEX
  8
fence24
 10
0.0
 20
0.0
 30
0.0
 70
   128
 71
   107
 72
   130
 73
   109
  0
VERTEX
  8
fence24
 10
0.0
 20
0.0
 30
0.0
 70
   128
 71
   133
 72
   113
 73
   132
  0
VERTEX
  8
fence24
 10
0.0
 20
0.0
 30
0.0
 70
   128
 71
   133
 72
   146
 73
   134
  0
VERTEX
  8
fence24
 10
0.0
 20
0.0
 30
0.0
 70
   128
 71
   130
 72
   143
 73
   131
  0
VERTEX
  8
fence24
 10
0.0
 20
0.0
 30
0.0
 70
   128
 71
   135
 72
   117
 73
   134
  0
VERTEX
  8
fence24
 10
0.0
 20
0.0
 30
0.0
 70
   128
 71
   135
 72
   148
 73
   136
  0
VERTEX
  8
fence24
 10
0.0
 20
0.0
 30
0.0
 70
   128
 71
   111
 72
   132
 73
   113
  0
VERTEX
  8
fence24
 10
0.0
 20
0.0
 30
0.0
 70
   128
 71
   137
 72
   121
 73
   136
  0
VERTEX
  8
fence24
 10
0.0
 20
0.0
 30
0.0
 70
   128
 71
   137
 72
   150
 73
   138
  0
VERTEX
  8
fence24
 10
0.0
 20
0.0
 30
0.0
 70
   128
 71
   132
 72
   145
 73
   133
  0
VERTEX
  8
fence24
 10
0.0
 20
0.0
 30
0.0
 70
   128
 71
   127
 72
   125
 73
   138
  0
VERTEX
  8
fence24
 10
0.0
 20
0.0
 30
0.0
 70
   128
 71
   141
 72
   128
 73
   140
  0
VERTEX
  8
fence24
 10
0.0
 20
0.0
 30
0.0
 70
   128
 71
   115
 72
   134
 73
   117
  0
VERTEX
  8
fence24
 10
0.0
 20
0.0
 30
0.0
 70
   128
 71
   142
 72
   112
 73
   143
  0
VERTEX
  8
fence24
 10
0.0
 20
0.0
 30
0.0
 70
   128
 71
   144
 72
   116
 73
   145
  0
VERTEX
  8
fence24
 10
0.0
 20
0.0
 30
0.0
 70
   128
 71
   134
 72
   147
 73
   135
  0
VERTEX
  8
fence24
 10
0.0
 20
0.0
 30
0.0
 70
   128
 71
   146
 72
   120
 73
   147
  0
VERTEX
  8
fence24
 10
0.0
 20
0.0
 30
0.0
 70
   128
 71
   148
 72
   124
 73
   149
  0
VERTEX
  8
fence24
 10
0.0
 20
0.0
 30
0.0
 70
   128
 71
   119
 72
   136
 73
   121
  0
VERTEX
  8
fence24
 10
0.0
 20
0.0
 30
0.0
 70
   128
 71
   150
 72
   104
 73
   139
  0
VERTEX
  8
fence24
 10
0.0
 20
0.0
 30
0.0
 70
   128
 71
   139
 72
   106
 73
   140
  0
VERTEX
  8
fence24
 10
0.0
 20
0.0
 30
0.0
 70
   128
 71
   136
 72
   149
 73
   137
  0
VERTEX
  8
fence24
 10
0.0
 20
0.0
 30
0.0
 70
   128
 71
   141
 72
   110
 73
   142
  0
VERTEX
  8
fence24
 10
0.0
 20
0.0
 30
0.0
 70
   128
 71
   143
 72
   114
 73
   144
  0
VERTEX
  8
fence24
 10
0.0
 20
0.0
 30
0.0
 70
   128
 71
   123
 72
   138
 73
   125
  0
VERTEX
  8
fence24
 10
0.0
 20
0.0
 30
0.0
 70
   128
 71
   145
 72
   118
 73
   146
  0
VERTEX
  8
fence24
 10
0.0
 20
0.0
 30
0.0
 70
   128
 71
   147
 72
   122
 73
   148
  0
VERTEX
  8
fence24
 10
0.0
 20
0.0
 30
0.0
 70
   128
 71
   138
 72
   139
 73
   127
  0
VERTEX
  8
fence24
 10
0.0
 20
0.0
 30
0.0
 70
   128
 71
   149
 72
   126
 73
   150
  0
VERTEX
  8
fence24
 10
0.0
 20
0.0
 30
0.0
 70
   128
 71
   107
 72
   103
 73
   105
  0
VERTEX
  8
fence24
 10
0.0
 20
0.0
 30
0.0
 70
   128
 71
   119
 72
   107
 73
   109
  0
VERTEX
  8
fence24
 10
0.0
 20
0.0
 30
0.0
 70
   128
 71
   125
 72
   121
 73
   123
  0
VERTEX
  8
fence24
 10
0.0
 20
0.0
 30
0.0
 70
   128
 71
   109
 72
   115
 73
   119
  0
VERTEX
  8
fence24
 10
0.0
 20
0.0
 30
0.0
 70
   128
 71
   124
 72
   118
 73
   126
  0
VERTEX
  8
fence24
 10
0.0
 20
0.0
 30
0.0
 70
   128
 71
   112
 72
   116
 73
   114
  0
VERTEX
  8
fence24
 10
0.0
 20
0.0
 30
0.0
 70
   128
 71
   126
 72
   112
 73
   106
  0
VERTEX
  8
fence24
 10
0.0
 20
0.0
 30
0.0
 70
   128
 71
   112
 72
   108
 73
   106
  0
VERTEX
  8
fence24
 10
0.0
 20
0.0
 30
0.0
 70
   128
 71
   177
 72
   190
 73
   178
  0
VERTEX
  8
fence24
 10
0.0
 20
0.0
 30
0.0
 70
   128
 71
   153
 72
   178
 73
   155
  0
VERTEX
  8
fence24
 10
0.0
 20
0.0
 30
0.0
 70
   128
 71
   179
 72
   155
 73
   178
  0
VERTEX
  8
fence24
 10
0.0
 20
0.0
 30
0.0
 70
   128
 71
   179
 72
   192
 73
   180
  0
VERTEX
  8
fence24
 10
0.0
 20
0.0
 30
0.0
 70
   128
 71
   190
 72
   158
 73
   191
  0
VERTEX
  8
fence24
 10
0.0
 20
0.0
 30
0.0
 70
   128
 71
   181
 72
   159
 73
   180
  0
VERTEX
  8
fence24
 10
0.0
 20
0.0
 30
0.0
 70
   128
 71
   181
 72
   194
 73
   182
  0
VERTEX
  8
fence24
 10
0.0
 20
0.0
 30
0.0
 70
   128
 71
   157
 72
   180
 73
   159
  0
VERTEX
  8
fence24
 10
0.0
 20
0.0
 30
0.0
 70
   128
 71
   183
 72
   163
 73
   182
  0
VERTEX
  8
fence24
 10
0.0
 20
0.0
 30
0.0
 70
   128
 71
   183
 72
   196
 73
   184
  0
VERTEX
  8
fence24
 10
0.0
 20
0.0
 30
0.0
 70
   128
 71
   180
 72
   193
 73
   181
  0
VERTEX
  8
fence24
 10
0.0
 20
0.0
 30
0.0
 70
   128
 71
   185
 72
   167
 73
   184
  0
VERTEX
  8
fence24
 10
0.0
 20
0.0
 30
0.0
 70
   128
 71
   185
 72
   198
 73
   186
  0
VERTEX
  8
fence24
 10
0.0
 20
0.0
 30
0.0
 70
   128
 71
   161
 72
   182
 73
   163
  0
VERTEX
  8
fence24
 10
0.0
 20
0.0
 30
0.0
 70
   128
 71
   187
 72
   171
 73
   186
  0
VERTEX
  8
fence24
 10
0.0
 20
0.0
 30
0.0
 70
   128
 71
   187
 72
   200
 73
   188
  0
VERTEX
  8
fence24
 10
0.0
 20
0.0
 30
0.0
 70
   128
 71
   182
 72
   195
 73
   183
  0
VERTEX
  8
fence24
 10
0.0
 20
0.0
 30
0.0
 70
   128
 71
   177
 72
   175
 73
   188
  0
VERTEX
  8
fence24
 10
0.0
 20
0.0
 30
0.0
 70
   128
 71
   191
 72
   178
 73
   190
  0
VERTEX
  8
fence24
 10
0.0
 20
0.0
 30
0.0
 70
   128
 71
   165
 72
   184
 73
   167
  0
VERTEX
  8
fence24
 10
0.0
 20
0.0
 30
0.0
 70
   128
 71
   192
 72
   162
 73
   193
  0
VERTEX
  8
fence24
 10
0.0
 20
0.0
 30
0.0
 70
   128
 71
   194
 72
   166
 73
   195
  0
VERTEX
  8
fence24
 10
0.0
 20
0.0
 30
0.0
 70
   128
 71
   184
 72
   197
 73
   185
  0
VERTEX
  8
fence24
 10
0.0
 20
0.0
 30
0.0
 70
   128
 71
   196
 72
   170
 73
   197
  0
VERTEX
  8
fence24
 10
0.0
 20
0.0
 30
0.0
 70
   128
 71
   198
 72
   174
 73
   199
  0
VERTEX
  8
fence24
 10
0.0
 20
0.0
 30
0.0
 70
   128
 71
   169
 72
   186
 73
   171
  0
VERTEX
  8
fence24
 10
0.0
 20
0.0
 30
0.0
 70
   128
 71
   200
 72
   154
 73
   189
  0
VERTEX
  8
fence24
 10
0.0
 20
0.0
 30
0.0
 70
   128
 71
   189
 72
   156
 73
   190
  0
VERTEX
  8
fence24
 10
0.0
 20
0.0
 30
0.0
 70
   128
 71
   186
 72
   199
 73
   187
  0
VERTEX
  8
fence24
 10
0.0
 20
0.0
 30
0.0
 70
   128
 71
   191
 72
   160
 73
   192
  0
VERTEX
  8
fence24
 10
0.0
 20
0.0
 30
0.0
 70
   128
 71
   193
 72
   164
 73
   194
  0
VERTEX
  8
fence24
 10
0.0
 20
0.0
 30
0.0
 70
   128
 71
   173
 72
   188
 73
   175
  0
VERTEX
  8
fence24
 10
0.0
 20
0.0
 30
0.0
 70
   128
 71
   195
 72
   168
 73
   196
  0
VERTEX
  8
fence24
 10
0.0
 20
0.0
 30
0.0
 70
   128
 71
   197
 72
   172
 73
   198
  0
VERTEX
  8
fence24
 10
0.0
 20
0.0
 30
0.0
 70
   128
 71
   188
 72
   189
 73
   177
  0
VERTEX
  8
fence24
 10
0.0
 20
0.0
 30
0.0
 70
   128
 71
   199
 72
   176
 73
   200
  0
VERTEX
  8
fence24
 10
0.0
 20
0.0
 30
0.0
 70
   128
 71
   157
 72
   153
 73
   155
  0
VERTEX
  8
fence24
 10
0.0
 20
0.0
 30
0.0
 70
   128
 71
   169
 72
   157
 73
   159
  0
VERTEX
  8
fence24
 10
0.0
 20
0.0
 30
0.0
 70
   128
 71
   175
 72
   171
 73
   173
  0
VERTEX
  8
fence24
 10
0.0
 20
0.0
 30
0.0
 70
   128
 71
   159
 72
   165
 73
   169
  0
VERTEX
  8
fence24
 10
0.0
 20
0.0
 30
0.0
 70
   128
 71
   174
 72
   168
 73
   176
  0
VERTEX
  8
fence24
 10
0.0
 20
0.0
 30
0.0
 70
   128
 71
   162
 72
   166
 73
   164
  0
VERTEX
  8
fence24
 10
0.0
 20
0.0
 30
0.0
 70
   128
 71
   176
 72
   162
 73
   156
  0
VERTEX
  8
fence24
 10
0.0
 20
0.0
 30
0.0
 70
   128
 71
   162
 72
   158
 73
   156
  0
VERTEX
  8
fence24
 10
0.0
 20
0.0
 30
0.0
 70
   128
 71
   227
 72
   240
 73
   228
  0
VERTEX
  8
fence24
 10
0.0
 20
0.0
 30
0.0
 70
   128
 71
   203
 72
   228
 73
   205
  0
VERTEX
  8
fence24
 10
0.0
 20
0.0
 30
0.0
 70
   128
 71
   229
 72
   205
 73
   228
  0
VERTEX
  8
fence24
 10
0.0
 20
0.0
 30
0.0
 70
   128
 71
   229
 72
   242
 73
   230
  0
VERTEX
  8
fence24
 10
0.0
 20
0.0
 30
0.0
 70
   128
 71
   240
 72
   208
 73
   241
  0
VERTEX
  8
fence24
 10
0.0
 20
0.0
 30
0.0
 70
   128
 71
   231
 72
   209
 73
   230
  0
VERTEX
  8
fence24
 10
0.0
 20
0.0
 30
0.0
 70
   128
 71
   231
 72
   244
 73
   232
  0
VERTEX
  8
fence24
 10
0.0
 20
0.0
 30
0.0
 70
   128
 71
   207
 72
   230
 73
   209
  0
VERTEX
  8
fence24
 10
0.0
 20
0.0
 30
0.0
 70
   128
 71
   233
 72
   213
 73
   232
  0
VERTEX
  8
fence24
 10
0.0
 20
0.0
 30
0.0
 70
   128
 71
   233
 72
   246
 73
   234
  0
VERTEX
  8
fence24
 10
0.0
 20
0.0
 30
0.0
 70
   128
 71
   230
 72
   243
 73
   231
  0
VERTEX
  8
fence24
 10
0.0
 20
0.0
 30
0.0
 70
   128
 71
   235
 72
   217
 73
   234
  0
VERTEX
  8
fence24
 10
0.0
 20
0.0
 30
0.0
 70
   128
 71
   235
 72
   248
 73
   236
  0
VERTEX
  8
fence24
 10
0.0
 20
0.0
 30
0.0
 70
   128
 71
   211
 72
   232
 73
   213
  0
VERTEX
  8
fence24
 10
0.0
 20
0.0
 30
0.0
 70
   128
 71
   237
 72
   221
 73
   236
  0
VERTEX
  8
fence24
 10
0.0
 20
0.0
 30
0.0
 70
   128
 71
   237
 72
   250
 73
   238
  0
VERTEX
  8
fence24
 10
0.0
 20
0.0
 30
0.0
 70
   128
 71
   232
 72
   245
 73
   233
  0
VERTEX
  8
fence24
 10
0.0
 20
0.0
 30
0.0
 70
   128
 71
   227
 72
   225
 73
   238
  0
VERTEX
  8
fence24
 10
0.0
 20
0.0
 30
0.0
 70
   128
 71
   241
 72
   228
 73
   240
  0
VERTEX
  8
fence24
 10
0.0
 20
0.0
 30
0.0
 70
   128
 71
   215
 72
   234
 73
   217
  0
VERTEX
  8
fence24
 10
0.0
 20
0.0
 30
0.0
 70
   128
 71
   242
 72
   212
 73
   243
  0
VERTEX
  8
fence24
 10
0.0
 20
0.0
 30
0.0
 70
   128
 71
   244
 72
   216
 73
   245
  0
VERTEX
  8
fence24
 10
0.0
 20
0.0
 30
0.0
 70
   128
 71
   234
 72
   247
 73
   235
  0
VERTEX
  8
fence24
 10
0.0
 20
0.0
 30
0.0
 70
   128
 71
   246
 72
   220
 73
   247
  0
VERTEX
  8
fence24
 10
0.0
 20
0.0
 30
0.0
 70
   128
 71
   248
 72
   224
 73
   249
  0
VERTEX
  8
fence24
 10
0.0
 20
0.0
 30
0.0
 70
   128
 71
   219
 72
   236
 73
   221
  0
VERTEX
  8
fence24
 10
0.0
 20
0.0
 30
0.0
 70
   128
 71
   250
 72
   204
 73
   239
  0
VERTEX
  8
fence24
 10
0.0
 20
0.0
 30
0.0
 70
   128
 71
   239
 72
   206
 73
   240
  0
VERTEX
  8
fence24
 10
0.0
 20
0.0
 30
0.0
 70
   128
 71
   236
 72
   249
 73
   237
  0
VERTEX
  8
fence24
 10
0.0
 20
0.0
 30
0.0
 70
   128
 71
   241
 72
   210
 73
   242
  0
VERTEX
  8
fence24
 10
0.0
 20
0.0
 30
0.0
 70
   128
 71
   243
 72
   214
 73
   244
  0
VERTEX
  8
fence24
 10
0.0
 20
0.0
 30
0.0
 70
   128
 71
   223
 72
   238
 73
   225
  0
VERTEX
  8
fence24
 10
0.0
 20
0.0
 30
0.0
 70
   128
 71
   245
 72
   218
 73
   246
  0
VERTEX
  8
fence24
 10
0.0
 20
0.0
 30
0.0
 70
   128
 71
   247
 72
   222
 73
   248
  0
VERTEX
  8
fence24
 10
0.0
 20
0.0
 30
0.0
 70
   128
 71
   238
 72
   239
 73
   227
  0
VERTEX
  8
fence24
 10
0.0
 20
0.0
 30
0.0
 70
   128
 71
   249
 72
   226
 73
   250
  0
VERTEX
  8
fence24
 10
0.0
 20
0.0
 30
0.0
 70
   128
 71
   207
 72
   203
 73
   205
  0
VERTEX
  8
fence24
 10
0.0
 20
0.0
 30
0.0
 70
   128
 71
   219
 72
   207
 73
   209
  0
VERTEX
  8
fence24
 10
0.0
 20
0.0
 30
0.0
 70
   128
 71
   225
 72
   221
 73
   223
  0
VERTEX
  8
fence24
 10
0.0
 20
0.0
 30
0.0
 70
   128
 71
   209
 72
   215
 73
   219
  0
VERTEX
  8
fence24
 10
0.0
 20
0.0
 30
0.0
 70
   128
 71
   224
 72
   218
 73
   226
  0
VERTEX
  8
fence24
 10
0.0
 20
0.0
 30
0.0
 70
   128
 71
   212
 72
   216
 73
   214
  0
VERTEX
  8
fence24
 10
0.0
 20
0.0
 30
0.0
 70
   128
 71
   226
 72
   212
 73
   206
  0
VERTEX
  8
fence24
 10
0.0
 20
0.0
 30
0.0
 70
   128
 71
   212
 72
   208
 73
   206
  0
VERTEX
  8
fence24
 10
0.0
 20
0.0
 30
0.0
 70
   128
 71
   277
 72
   290
 73
   278
  0
VERTEX
  8
fence24
 10
0.0
 20
0.0
 30
0.0
 70
   128
 71
   253
 72
   278
 73
   255
  0
VERTEX
  8
fence24
 10
0.0
 20
0.0
 30
0.0
 70
   128
 71
   279
 72
   255
 73
   278
  0
VERTEX
  8
fence24
 10
0.0
 20
0.0
 30
0.0
 70
   128
 71
   279
 72
   292
 73
   280
  0
VERTEX
  8
fence24
 10
0.0
 20
0.0
 30
0.0
 70
   128
 71
   290
 72
   258
 73
   291
  0
VERTEX
  8
fence24
 10
0.0
 20
0.0
 30
0.0
 70
   128
 71
   281
 72
   259
 73
   280
  0
VERTEX
  8
fence24
 10
0.0
 20
0.0
 30
0.0
 70
   128
 71
   281
 72
   294
 73
   282
  0
VERTEX
  8
fence24
 10
0.0
 20
0.0
 30
0.0
 70
   128
 71
   257
 72
   280
 73
   259
  0
VERTEX
  8
fence24
 10
0.0
 20
0.0
 30
0.0
 70
   128
 71
   283
 72
   263
 73
   282
  0
VERTEX
  8
fence24
 10
0.0
 20
0.0
 30
0.0
 70
   128
 71
   283
 72
   296
 73
   284
  0
VERTEX
  8
fence24
 10
0.0
 20
0.0
 30
0.0
 70
   128
 71
   280
 72
   293
 73
   281
  0
VERTEX
  8
fence24
 10
0.0
 20
0.0
 30
0.0
 70
   128
 71
   285
 72
   267
 73
   284
  0
VERTEX
  8
fence24
 10
0.0
 20
0.0
 30
0.0
 70
   128
 71
   285
 72
   298
 73
   286
  0
VERTEX
  8
fence24
 10
0.0
 20
0.0
 30
0.0
 70
   128
 71
   261
 72
   282
 73
   263
  0
VERTEX
  8
fence24
 10
0.0
 20
0.0
 30
0.0
 70
   128
 71
   287
 72
   271
 73
   286
  0
VERTEX
  8
fence24
 10
0.0
 20
0.0
 30
0.0
 70
   128
 71
   287
 72
   300
 73
   288
  0
VERTEX
  8
fence24
 10
0.0
 20
0.0
 30
0.0
 70
   128
 71
   282
 72
   295
 73
   283
  0
VERTEX
  8
fence24
 10
0.0
 20
0.0
 30
0.0
 70
   128
 71
   277
 72
   275
 73
   288
  0
VERTEX
  8
fence24
 10
0.0
 20
0.0
 30
0.0
 70
   128
 71
   291
 72
   278
 73
   290
  0
VERTEX
  8
fence24
 10
0.0
 20
0.0
 30
0.0
 70
   128
 71
   265
 72
   284
 73
   267
  0
VERTEX
  8
fence24
 10
0.0
 20
0.0
 30
0.0
 70
   128
 71
   292
 72
   262
 73
   293
  0
VERTEX
  8
fence24
 10
0.0
 20
0.0
 30
0.0
 70
   128
 71
   294
 72
   266
 73
   295
  0
VERTEX
  8
fence24
 10
0.0
 20
0.0
 30
0.0
 70
   128
 71
   284
 72
   297
 73
   285
  0
VERTEX
  8
fence24
 10
0.0
 20
0.0
 30
0.0
 70
   128
 71
   296
 72
   270
 73
   297
  0
VERTEX
  8
fence24
 10
0.0
 20
0.0
 30
0.0
 70
   128
 71
   298
 72
   274
 73
   299
  0
VERTEX
  8
fence24
 10
0.0
 20
0.0
 30
0.0
 70
   128
 71
   269
 72
   286
 73
   271
  0
VERTEX
  8
fence24
 10
0.0
 20
0.0
 30
0.0
 70
   128
 71
   300
 72
   254
 73
   289
  0
VERTEX
  8
fence24
 10
0.0
 20
0.0
 30
0.0
 70
   128
 71
   289
 72
   256
 73
   290
  0
VERTEX
  8
fence24
 10
0.0
 20
0.0
 30
0.0
 70
   128
 71
   286
 72
   299
 73
   287
  0
VERTEX
  8
fence24
 10
0.0
 20
0.0
 30
0.0
 70
   128
 71
   291
 72
   260
 73
   292
  0
VERTEX
  8
fence24
 10
0.0
 20
0.0
 30
0.0
 70
   128
 71
   293
 72
   264
 73
   294
  0
VERTEX
  8
fence24
 10
0.0
 20
0.0
 30
0.0
 70
   128
 71
   273
 72
   288
 73
   275
  0
VERTEX
  8
fence24
 10
0.0
 20
0.0
 30
0.0
 70
   128
 71
   295
 72
   268
 73
   296
  0
VERTEX
  8
fence24
 10
0.0
 20
0.0
 30
0.0
 70
   128
 71
   297
 72
   272
 73
   298
  0
VERTEX
  8
fence24
 10
0.0
 20
0.0
 30
0.0
 70
   128
 71
   288
 72
   289
 73
   277
  0
VERTEX
  8
fence24
 10
0.0
 20
0.0
 30
0.0
 70
   128
 71
   299
 72
   276
 73
   300
  0
VERTEX
  8
fence24
 10
0.0
 20
0.0
 30
0.0
 70
   128
 71
   257
 72
   253
 73
   255
  0
VERTEX
  8
fence24
 10
0.0
 20
0.0
 30
0.0
 70
   128
 71
   269
 72
   257
 73
   259
  0
VERTEX
  8
fence24
 10
0.0
 20
0.0
 30
0.0
 70
   128
 71
   275
 72
   271
 73
   273
  0
VERTEX
  8
fence24
 10
0.0
 20
0.0
 30
0.0
 70
   128
 71
   259
 72
   265
 73
   269
  0
VERTEX
  8
fence24
 10
0.0
 20
0.0
 30
0.0
 70
   128
 71
   274
 72
   268
 73
   276
  0
VERTEX
  8
fence24
 10
0.0
 20
0.0
 30
0.0
 70
   128
 71
   262
 72
   266
 73
   264
  0
VERTEX
  8
fence24
 10
0.0
 20
0.0
 30
0.0
 70
   128
 71
   276
 72
   262
 73
   256
  0
VERTEX
  8
fence24
 10
0.0
 20
0.0
 30
0.0
 70
   128
 71
   262
 72
   258
 73
   256
  0
SEQEND
  0
ENDSEC
  0
EOF
