999
FBX AutoCAD (*.DXF) exporter
  0
SECTION
  2
HEADER
  9
$ACADVER
  1
AC1008
  9
$UCSORG
 10
0.0
 20
0.0
 30
0.0
  9
$UCSXDIR
 10
1.0
 20
0.0
 30
0.0
  9
$TILEMODE
 70
   1
  9
$UCSYDIR
 10
0.0
 20
1.0
 30
0.0
  0
ENDSEC
  0
SECTION
  2
TABLES
  0
TABLE
  2
LTYPE
 70
   1
  0
LTYPE
  2
CONTINUOUS
 70
   64
  3
Solid line
 72
   65
 73
   0
 40
0.0
  0
ENDTAB
  0
TABLE
  2
LAYER
 70
   1
  0
LAYER
  2
hill
 70
   0
 62
   250
  6
CONTINUOUS
  0
ENDTAB
  0
ENDSEC
  0
SECTION
  2
BLOCKS
  0
ENDSEC
  0
SECTION
  2
ENTITIES
  0
POLYLINE
  8
hill
 66
   1
 10
0.0
 20
0.0
 30
0.0
 70
   64
 71
   169
 72
   288
  0
VERTEX
  8
hill
 10
-1699.049823
 20
0.000000
 30
1491.748017
 70
   192
  0
VERTEX
  8
hill
 10
-1415.874853
 20
0.000000
 30
1491.748017
 70
   192
  0
VERTEX
  8
hill
 10
-1132.699882
 20
0.000000
 30
1491.748017
 70
   192
  0
VERTEX
  8
hill
 10
-849.524912
 20
0.000000
 30
1491.748017
 70
   192
  0
VERTEX
  8
hill
 10
-566.349941
 20
0.000000
 30
1491.748017
 70
   192
  0
VERTEX
  8
hill
 10
-283.174971
 20
0.000000
 30
1491.748017
 70
   192
  0
VERTEX
  8
hill
 10
-0.000000
 20
0.000000
 30
1491.748017
 70
   192
  0
VERTEX
  8
hill
 10
283.174971
 20
0.000000
 30
1491.748017
 70
   192
  0
VERTEX
  8
hill
 10
566.349941
 20
0.000000
 30
1491.748017
 70
   192
  0
VERTEX
  8
hill
 10
849.524912
 20
0.000000
 30
1491.748017
 70
   192
  0
VERTEX
  8
hill
 10
1132.699882
 20
0.000000
 30
1491.748017
 70
   192
  0
VERTEX
  8
hill
 10
1415.874853
 20
0.000000
 30
1491.748017
 70
   192
  0
VERTEX
  8
hill
 10
1699.049823
 20
0.000000
 30
1491.748017
 70
   192
  0
VERTEX
  8
hill
 10
-1699.049823
 20
0.000000
 30
1243.123347
 70
   192
  0
VERTEX
  8
hill
 10
-1415.874853
 20
0.000000
 30
1243.123347
 70
   192
  0
VERTEX
  8
hill
 10
-1132.699882
 20
0.000000
 30
1243.123347
 70
   192
  0
VERTEX
  8
hill
 10
-849.524912
 20
0.000000
 30
1243.123347
 70
   192
  0
VERTEX
  8
hill
 10
-566.349941
 20
61.321504
 30
1243.123347
 70
   192
  0
VERTEX
  8
hill
 10
-283.174971
 20
50.592456
 30
1243.123347
 70
   192
  0
VERTEX
  8
hill
 10
-0.000000
 20
110.346672
 30
1243.123347
 70
   192
  0
VERTEX
  8
hill
 10
283.174971
 20
78.746430
 30
1243.123347
 70
   192
  0
VERTEX
  8
hill
 10
566.349941
 20
0.000000
 30
1243.123347
 70
   192
  0
VERTEX
  8
hill
 10
849.524912
 20
0.000000
 30
1243.123347
 70
   192
  0
VERTEX
  8
hill
 10
1132.699882
 20
0.000000
 30
1243.123347
 70
   192
  0
VERTEX
  8
hill
 10
1415.874853
 20
0.000000
 30
1243.123347
 70
   192
  0
VERTEX
  8
hill
 10
1699.049823
 20
0.000000
 30
1243.123347
 70
   192
  0
VERTEX
  8
hill
 10
-1699.049823
 20
0.000000
 30
994.498678
 70
   192
  0
VERTEX
  8
hill
 10
-1415.874853
 20
0.000000
 30
994.498678
 70
   192
  0
VERTEX
  8
hill
 10
-1132.699882
 20
73.452001
 30
994.498678
 70
   192
  0
VERTEX
  8
hill
 10
-849.524912
 20
194.580304
 30
994.498678
 70
   192
  0
VERTEX
  8
hill
 10
-566.349941
 20
490.302917
 30
994.498678
 70
   192
  0
VERTEX
  8
hill
 10
-283.174971
 20
708.124697
 30
994.498678
 70
   192
  0
VERTEX
  8
hill
 10
-0.000000
 20
728.629366
 30
994.498678
 70
   192
  0
VERTEX
  8
hill
 10
283.174971
 20
533.483140
 30
994.498678
 70
   192
  0
VERTEX
  8
hill
 10
566.349941
 20
334.300286
 30
994.498678
 70
   192
  0
VERTEX
  8
hill
 10
849.524912
 20
271.841949
 30
994.498678
 70
   192
  0
VERTEX
  8
hill
 10
1132.699882
 20
0.000000
 30
994.498678
 70
   192
  0
VERTEX
  8
hill
 10
1415.874853
 20
0.000000
 30
994.498678
 70
   192
  0
VERTEX
  8
hill
 10
1699.049823
 20
0.000000
 30
994.498678
 70
   192
  0
VERTEX
  8
hill
 10
-1699.049823
 20
0.000000
 30
745.874008
 70
   192
  0
VERTEX
  8
hill
 10
-1415.874853
 20
0.000000
 30
745.874008
 70
   192
  0
VERTEX
  8
hill
 10
-1132.699882
 20
338.815668
 30
745.874008
 70
   192
  0
VERTEX
  8
hill
 10
-849.524912
 20
554.221248
 30
745.874008
 70
   192
  0
VERTEX
  8
hill
 10
-566.349941
 20
934.022786
 30
745.874008
 70
   192
  0
VERTEX
  8
hill
 10
-283.174971
 20
1447.460806
 30
745.874008
 70
   192
  0
VERTEX
  8
hill
 10
-0.000000
 20
1187.520484
 30
745.874008
 70
   192
  0
VERTEX
  8
hill
 10
283.174971
 20
975.616368
 30
745.874008
 70
   192
  0
VERTEX
  8
hill
 10
566.349941
 20
697.105486
 30
745.874008
 70
   192
  0
VERTEX
  8
hill
 10
849.524912
 20
588.233691
 30
745.874008
 70
   192
  0
VERTEX
  8
hill
 10
1132.699882
 20
273.735736
 30
745.874008
 70
   192
  0
VERTEX
  8
hill
 10
1415.874853
 20
0.000000
 30
745.874008
 70
   192
  0
VERTEX
  8
hill
 10
1699.049823
 20
0.000000
 30
745.874008
 70
   192
  0
VERTEX
  8
hill
 10
-1699.049823
 20
0.000000
 30
497.249339
 70
   192
  0
VERTEX
  8
hill
 10
-1415.874853
 20
0.000000
 30
497.249339
 70
   192
  0
VERTEX
  8
hill
 10
-1132.699882
 20
444.862619
 30
497.249339
 70
   192
  0
VERTEX
  8
hill
 10
-849.524912
 20
1014.927382
 30
497.249339
 70
   192
  0
VERTEX
  8
hill
 10
-566.349941
 20
1422.398460
 30
497.249339
 70
   192
  0
VERTEX
  8
hill
 10
-283.174971
 20
1945.610710
 30
497.249339
 70
   192
  0
VERTEX
  8
hill
 10
-0.000000
 20
1921.770017
 30
497.249339
 70
   192
  0
VERTEX
  8
hill
 10
283.174971
 20
1393.822666
 30
497.249339
 70
   192
  0
VERTEX
  8
hill
 10
566.349941
 20
664.399927
 30
497.249339
 70
   192
  0
VERTEX
  8
hill
 10
849.524912
 20
672.051618
 30
497.249339
 70
   192
  0
VERTEX
  8
hill
 10
1132.699882
 20
474.307346
 30
497.249339
 70
   192
  0
VERTEX
  8
hill
 10
1415.874853
 20
45.147403
 30
497.249339
 70
   192
  0
VERTEX
  8
hill
 10
1699.049823
 20
0.000000
 30
497.249339
 70
   192
  0
VERTEX
  8
hill
 10
-1699.049823
 20
0.000000
 30
248.624669
 70
   192
  0
VERTEX
  8
hill
 10
-1415.874853
 20
42.920249
 30
248.624669
 70
   192
  0
VERTEX
  8
hill
 10
-1132.699882
 20
539.270440
 30
248.624669
 70
   192
  0
VERTEX
  8
hill
 10
-849.524912
 20
1202.619793
 30
248.624669
 70
   192
  0
VERTEX
  8
hill
 10
-566.349941
 20
1867.326910
 30
248.624669
 70
   192
  0
VERTEX
  8
hill
 10
-283.174971
 20
1992.252105
 30
248.624669
 70
   192
  0
VERTEX
  8
hill
 10
-0.000000
 20
2022.308018
 30
248.624669
 70
   192
  0
VERTEX
  8
hill
 10
283.174971
 20
2136.905293
 30
248.624669
 70
   192
  0
VERTEX
  8
hill
 10
566.349941
 20
1269.107916
 30
248.624669
 70
   192
  0
VERTEX
  8
hill
 10
849.524912
 20
849.193872
 30
248.624669
 70
   192
  0
VERTEX
  8
hill
 10
1132.699882
 20
476.927368
 30
248.624669
 70
   192
  0
VERTEX
  8
hill
 10
1415.874853
 20
90.219885
 30
248.624669
 70
   192
  0
VERTEX
  8
hill
 10
1699.049823
 20
0.000000
 30
248.624669
 70
   192
  0
VERTEX
  8
hill
 10
-1699.049823
 20
0.000000
 30
-0.000000
 70
   192
  0
VERTEX
  8
hill
 10
-1415.874853
 20
98.412380
 30
-0.000000
 70
   192
  0
VERTEX
  8
hill
 10
-1132.699882
 20
727.595427
 30
-0.000000
 70
   192
  0
VERTEX
  8
hill
 10
-849.524912
 20
1409.031527
 30
-0.000000
 70
   192
  0
VERTEX
  8
hill
 10
-566.349941
 20
2102.816541
 30
-0.000000
 70
   192
  0
VERTEX
  8
hill
 10
-283.174971
 20
2218.300520
 30
-0.000000
 70
   192
  0
VERTEX
  8
hill
 10
-0.000000
 20
1641.016166
 30
-0.000000
 70
   192
  0
VERTEX
  8
hill
 10
283.174971
 20
1716.170951
 30
-0.000000
 70
   192
  0
VERTEX
  8
hill
 10
566.349941
 20
1633.946322
 30
-0.000000
 70
   192
  0
VERTEX
  8
hill
 10
849.524912
 20
1276.838490
 30
-0.000000
 70
   192
  0
VERTEX
  8
hill
 10
1132.699882
 20
571.419181
 30
-0.000000
 70
   192
  0
VERTEX
  8
hill
 10
1415.874853
 20
73.175966
 30
-0.000000
 70
   192
  0
VERTEX
  8
hill
 10
1699.049823
 20
0.000000
 30
-0.000000
 70
   192
  0
VERTEX
  8
hill
 10
-1699.049823
 20
0.000000
 30
-248.624669
 70
   192
  0
VERTEX
  8
hill
 10
-1415.874853
 20
84.855541
 30
-248.624669
 70
   192
  0
VERTEX
  8
hill
 10
-1132.699882
 20
799.147178
 30
-248.624669
 70
   192
  0
VERTEX
  8
hill
 10
-849.524912
 20
1314.286056
 30
-248.624669
 70
   192
  0
VERTEX
  8
hill
 10
-566.349941
 20
1557.893885
 30
-248.624669
 70
   192
  0
VERTEX
  8
hill
 10
-283.174971
 20
2146.936720
 30
-248.624669
 70
   192
  0
VERTEX
  8
hill
 10
-0.000000
 20
1729.921926
 30
-248.624669
 70
   192
  0
VERTEX
  8
hill
 10
283.174971
 20
1322.117348
 30
-248.624669
 70
   192
  0
VERTEX
  8
hill
 10
566.349941
 20
1070.794134
 30
-248.624669
 70
   192
  0
VERTEX
  8
hill
 10
849.524912
 20
942.332807
 30
-248.624669
 70
   192
  0
VERTEX
  8
hill
 10
1132.699882
 20
549.287139
 30
-248.624669
 70
   192
  0
VERTEX
  8
hill
 10
1415.874853
 20
0.000000
 30
-248.624669
 70
   192
  0
VERTEX
  8
hill
 10
1699.049823
 20
0.000000
 30
-248.624669
 70
   192
  0
VERTEX
  8
hill
 10
-1699.049823
 20
0.000000
 30
-497.249339
 70
   192
  0
VERTEX
  8
hill
 10
-1415.874853
 20
0.000000
 30
-497.249339
 70
   192
  0
VERTEX
  8
hill
 10
-1132.699882
 20
462.176621
 30
-497.249339
 70
   192
  0
VERTEX
  8
hill
 10
-849.524912
 20
901.081177
 30
-497.249339
 70
   192
  0
VERTEX
  8
hill
 10
-566.349941
 20
1025.635897
 30
-497.249339
 70
   192
  0
VERTEX
  8
hill
 10
-283.174971
 20
1658.168466
 30
-497.249339
 70
   192
  0
VERTEX
  8
hill
 10
-0.000000
 20
1430.971308
 30
-497.249339
 70
   192
  0
VERTEX
  8
hill
 10
283.174971
 20
973.910704
 30
-497.249339
 70
   192
  0
VERTEX
  8
hill
 10
566.349941
 20
991.268771
 30
-497.249339
 70
   192
  0
VERTEX
  8
hill
 10
849.524912
 20
807.971261
 30
-497.249339
 70
   192
  0
VERTEX
  8
hill
 10
1132.699882
 20
313.923951
 30
-497.249339
 70
   192
  0
VERTEX
  8
hill
 10
1415.874853
 20
0.000000
 30
-497.249339
 70
   192
  0
VERTEX
  8
hill
 10
1699.049823
 20
0.000000
 30
-497.249339
 70
   192
  0
VERTEX
  8
hill
 10
-1699.049823
 20
0.000000
 30
-745.874008
 70
   192
  0
VERTEX
  8
hill
 10
-1415.874853
 20
0.000000
 30
-745.874008
 70
   192
  0
VERTEX
  8
hill
 10
-1132.699882
 20
269.584711
 30
-745.874008
 70
   192
  0
VERTEX
  8
hill
 10
-849.524912
 20
488.311054
 30
-745.874008
 70
   192
  0
VERTEX
  8
hill
 10
-566.349941
 20
820.989233
 30
-745.874008
 70
   192
  0
VERTEX
  8
hill
 10
-283.174971
 20
1291.182111
 30
-745.874008
 70
   192
  0
VERTEX
  8
hill
 10
-0.000000
 20
948.584923
 30
-745.874008
 70
   192
  0
VERTEX
  8
hill
 10
283.174971
 20
758.006144
 30
-745.874008
 70
   192
  0
VERTEX
  8
hill
 10
566.349941
 20
636.067291
 30
-745.874008
 70
   192
  0
VERTEX
  8
hill
 10
849.524912
 20
428.828593
 30
-745.874008
 70
   192
  0
VERTEX
  8
hill
 10
1132.699882
 20
109.547794
 30
-745.874008
 70
   192
  0
VERTEX
  8
hill
 10
1415.874853
 20
0.000000
 30
-745.874008
 70
   192
  0
VERTEX
  8
hill
 10
1699.049823
 20
0.000000
 30
-745.874008
 70
   192
  0
VERTEX
  8
hill
 10
-1699.049823
 20
0.000000
 30
-994.498678
 70
   192
  0
VERTEX
  8
hill
 10
-1415.874853
 20
0.000000
 30
-994.498678
 70
   192
  0
VERTEX
  8
hill
 10
-1132.699882
 20
79.191490
 30
-994.498678
 70
   192
  0
VERTEX
  8
hill
 10
-849.524912
 20
229.015912
 30
-994.498678
 70
   192
  0
VERTEX
  8
hill
 10
-566.349941
 20
454.039958
 30
-994.498678
 70
   192
  0
VERTEX
  8
hill
 10
-283.174971
 20
614.867106
 30
-994.498678
 70
   192
  0
VERTEX
  8
hill
 10
-0.000000
 20
323.142624
 30
-994.498678
 70
   192
  0
VERTEX
  8
hill
 10
283.174971
 20
303.022042
 30
-994.498678
 70
   192
  0
VERTEX
  8
hill
 10
566.349941
 20
278.494844
 30
-994.498678
 70
   192
  0
VERTEX
  8
hill
 10
849.524912
 20
177.563103
 30
-994.498678
 70
   192
  0
VERTEX
  8
hill
 10
1132.699882
 20
0.000000
 30
-994.498678
 70
   192
  0
VERTEX
  8
hill
 10
1415.874853
 20
0.000000
 30
-994.498678
 70
   192
  0
VERTEX
  8
hill
 10
1699.049823
 20
0.000000
 30
-994.498678
 70
   192
  0
VERTEX
  8
hill
 10
-1699.049823
 20
0.000000
 30
-1243.123347
 70
   192
  0
VERTEX
  8
hill
 10
-1415.874853
 20
0.000000
 30
-1243.123347
 70
   192
  0
VERTEX
  8
hill
 10
-1132.699882
 20
0.000000
 30
-1243.123347
 70
   192
  0
VERTEX
  8
hill
 10
-849.524912
 20
0.000000
 30
-1243.123347
 70
   192
  0
VERTEX
  8
hill
 10
-566.349941
 20
68.727756
 30
-1243.123347
 70
   192
  0
VERTEX
  8
hill
 10
-283.174971
 20
42.310926
 30
-1243.123347
 70
   192
  0
VERTEX
  8
hill
 10
-0.000000
 20
0.000000
 30
-1243.123347
 70
   192
  0
VERTEX
  8
hill
 10
283.174971
 20
0.000000
 30
-1243.123347
 70
   192
  0
VERTEX
  8
hill
 10
566.349941
 20
0.000000
 30
-1243.123347
 70
   192
  0
VERTEX
  8
hill
 10
849.524912
 20
0.000000
 30
-1243.123347
 70
   192
  0
VERTEX
  8
hill
 10
1132.699882
 20
0.000000
 30
-1243.123347
 70
   192
  0
VERTEX
  8
hill
 10
1415.874853
 20
0.000000
 30
-1243.123347
 70
   192
  0
VERTEX
  8
hill
 10
1699.049823
 20
0.000000
 30
-1243.123347
 70
   192
  0
VERTEX
  8
hill
 10
-1699.049823
 20
0.000000
 30
-1491.748017
 70
   192
  0
VERTEX
  8
hill
 10
-1415.874853
 20
0.000000
 30
-1491.748017
 70
   192
  0
VERTEX
  8
hill
 10
-1132.699882
 20
0.000000
 30
-1491.748017
 70
   192
  0
VERTEX
  8
hill
 10
-849.524912
 20
0.000000
 30
-1491.748017
 70
   192
  0
VERTEX
  8
hill
 10
-566.349941
 20
0.000000
 30
-1491.748017
 70
   192
  0
VERTEX
  8
hill
 10
-283.174971
 20
0.000000
 30
-1491.748017
 70
   192
  0
VERTEX
  8
hill
 10
-0.000000
 20
0.000000
 30
-1491.748017
 70
   192
  0
VERTEX
  8
hill
 10
283.174971
 20
0.000000
 30
-1491.748017
 70
   192
  0
VERTEX
  8
hill
 10
566.349941
 20
0.000000
 30
-1491.748017
 70
   192
  0
VERTEX
  8
hill
 10
849.524912
 20
0.000000
 30
-1491.748017
 70
   192
  0
VERTEX
  8
hill
 10
1132.699882
 20
0.000000
 30
-1491.748017
 70
   192
  0
VERTEX
  8
hill
 10
1415.874853
 20
0.000000
 30
-1491.748017
 70
   192
  0
VERTEX
  8
hill
 10
1699.049823
 20
0.000000
 30
-1491.748017
 70
   192
  0
VERTEX
  8
hill
 10
0.0
 20
0.0
 30
0.0
 70
   128
 71
   1
 72
   14
 73
   15
  0
VERTEX
  8
hill
 10
0.0
 20
0.0
 30
0.0
 70
   128
 71
   2
 72
   15
 73
   16
  0
VERTEX
  8
hill
 10
0.0
 20
0.0
 30
0.0
 70
   128
 71
   3
 72
   16
 73
   17
  0
VERTEX
  8
hill
 10
0.0
 20
0.0
 30
0.0
 70
   128
 71
   4
 72
   17
 73
   18
  0
VERTEX
  8
hill
 10
0.0
 20
0.0
 30
0.0
 70
   128
 71
   5
 72
   18
 73
   19
  0
VERTEX
  8
hill
 10
0.0
 20
0.0
 30
0.0
 70
   128
 71
   6
 72
   19
 73
   20
  0
VERTEX
  8
hill
 10
0.0
 20
0.0
 30
0.0
 70
   128
 71
   7
 72
   20
 73
   21
  0
VERTEX
  8
hill
 10
0.0
 20
0.0
 30
0.0
 70
   128
 71
   8
 72
   21
 73
   22
  0
VERTEX
  8
hill
 10
0.0
 20
0.0
 30
0.0
 70
   128
 71
   9
 72
   22
 73
   23
  0
VERTEX
  8
hill
 10
0.0
 20
0.0
 30
0.0
 70
   128
 71
   10
 72
   23
 73
   24
  0
VERTEX
  8
hill
 10
0.0
 20
0.0
 30
0.0
 70
   128
 71
   11
 72
   24
 73
   25
  0
VERTEX
  8
hill
 10
0.0
 20
0.0
 30
0.0
 70
   128
 71
   12
 72
   25
 73
   26
  0
VERTEX
  8
hill
 10
0.0
 20
0.0
 30
0.0
 70
   128
 71
   14
 72
   27
 73
   28
  0
VERTEX
  8
hill
 10
0.0
 20
0.0
 30
0.0
 70
   128
 71
   15
 72
   28
 73
   29
  0
VERTEX
  8
hill
 10
0.0
 20
0.0
 30
0.0
 70
   128
 71
   16
 72
   29
 73
   30
  0
VERTEX
  8
hill
 10
0.0
 20
0.0
 30
0.0
 70
   128
 71
   17
 72
   30
 73
   31
  0
VERTEX
  8
hill
 10
0.0
 20
0.0
 30
0.0
 70
   128
 71
   18
 72
   31
 73
   32
  0
VERTEX
  8
hill
 10
0.0
 20
0.0
 30
0.0
 70
   128
 71
   19
 72
   32
 73
   33
  0
VERTEX
  8
hill
 10
0.0
 20
0.0
 30
0.0
 70
   128
 71
   20
 72
   33
 73
   34
  0
VERTEX
  8
hill
 10
0.0
 20
0.0
 30
0.0
 70
   128
 71
   21
 72
   34
 73
   35
  0
VERTEX
  8
hill
 10
0.0
 20
0.0
 30
0.0
 70
   128
 71
   22
 72
   35
 73
   36
  0
VERTEX
  8
hill
 10
0.0
 20
0.0
 30
0.0
 70
   128
 71
   23
 72
   36
 73
   37
  0
VERTEX
  8
hill
 10
0.0
 20
0.0
 30
0.0
 70
   128
 71
   24
 72
   37
 73
   38
  0
VERTEX
  8
hill
 10
0.0
 20
0.0
 30
0.0
 70
   128
 71
   25
 72
   38
 73
   39
  0
VERTEX
  8
hill
 10
0.0
 20
0.0
 30
0.0
 70
   128
 71
   27
 72
   40
 73
   41
  0
VERTEX
  8
hill
 10
0.0
 20
0.0
 30
0.0
 70
   128
 71
   28
 72
   41
 73
   42
  0
VERTEX
  8
hill
 10
0.0
 20
0.0
 30
0.0
 70
   128
 71
   29
 72
   42
 73
   43
  0
VERTEX
  8
hill
 10
0.0
 20
0.0
 30
0.0
 70
   128
 71
   30
 72
   43
 73
   44
  0
VERTEX
  8
hill
 10
0.0
 20
0.0
 30
0.0
 70
   128
 71
   31
 72
   44
 73
   45
  0
VERTEX
  8
hill
 10
0.0
 20
0.0
 30
0.0
 70
   128
 71
   32
 72
   45
 73
   46
  0
VERTEX
  8
hill
 10
0.0
 20
0.0
 30
0.0
 70
   128
 71
   33
 72
   46
 73
   47
  0
VERTEX
  8
hill
 10
0.0
 20
0.0
 30
0.0
 70
   128
 71
   34
 72
   47
 73
   48
  0
VERTEX
  8
hill
 10
0.0
 20
0.0
 30
0.0
 70
   128
 71
   35
 72
   48
 73
   49
  0
VERTEX
  8
hill
 10
0.0
 20
0.0
 30
0.0
 70
   128
 71
   36
 72
   49
 73
   50
  0
VERTEX
  8
hill
 10
0.0
 20
0.0
 30
0.0
 70
   128
 71
   37
 72
   50
 73
   51
  0
VERTEX
  8
hill
 10
0.0
 20
0.0
 30
0.0
 70
   128
 71
   38
 72
   51
 73
   52
  0
VERTEX
  8
hill
 10
0.0
 20
0.0
 30
0.0
 70
   128
 71
   40
 72
   53
 73
   54
  0
VERTEX
  8
hill
 10
0.0
 20
0.0
 30
0.0
 70
   128
 71
   41
 72
   54
 73
   55
  0
VERTEX
  8
hill
 10
0.0
 20
0.0
 30
0.0
 70
   128
 71
   42
 72
   55
 73
   56
  0
VERTEX
  8
hill
 10
0.0
 20
0.0
 30
0.0
 70
   128
 71
   43
 72
   56
 73
   57
  0
VERTEX
  8
hill
 10
0.0
 20
0.0
 30
0.0
 70
   128
 71
   44
 72
   57
 73
   58
  0
VERTEX
  8
hill
 10
0.0
 20
0.0
 30
0.0
 70
   128
 71
   45
 72
   58
 73
   59
  0
VERTEX
  8
hill
 10
0.0
 20
0.0
 30
0.0
 70
   128
 71
   46
 72
   59
 73
   60
  0
VERTEX
  8
hill
 10
0.0
 20
0.0
 30
0.0
 70
   128
 71
   47
 72
   60
 73
   61
  0
VERTEX
  8
hill
 10
0.0
 20
0.0
 30
0.0
 70
   128
 71
   48
 72
   61
 73
   62
  0
VERTEX
  8
hill
 10
0.0
 20
0.0
 30
0.0
 70
   128
 71
   49
 72
   62
 73
   63
  0
VERTEX
  8
hill
 10
0.0
 20
0.0
 30
0.0
 70
   128
 71
   50
 72
   63
 73
   64
  0
VERTEX
  8
hill
 10
0.0
 20
0.0
 30
0.0
 70
   128
 71
   51
 72
   64
 73
   65
  0
VERTEX
  8
hill
 10
0.0
 20
0.0
 30
0.0
 70
   128
 71
   53
 72
   66
 73
   67
  0
VERTEX
  8
hill
 10
0.0
 20
0.0
 30
0.0
 70
   128
 71
   54
 72
   67
 73
   68
  0
VERTEX
  8
hill
 10
0.0
 20
0.0
 30
0.0
 70
   128
 71
   55
 72
   68
 73
   69
  0
VERTEX
  8
hill
 10
0.0
 20
0.0
 30
0.0
 70
   128
 71
   56
 72
   69
 73
   70
  0
VERTEX
  8
hill
 10
0.0
 20
0.0
 30
0.0
 70
   128
 71
   57
 72
   70
 73
   71
  0
VERTEX
  8
hill
 10
0.0
 20
0.0
 30
0.0
 70
   128
 71
   58
 72
   71
 73
   72
  0
VERTEX
  8
hill
 10
0.0
 20
0.0
 30
0.0
 70
   128
 71
   59
 72
   72
 73
   73
  0
VERTEX
  8
hill
 10
0.0
 20
0.0
 30
0.0
 70
   128
 71
   60
 72
   73
 73
   74
  0
VERTEX
  8
hill
 10
0.0
 20
0.0
 30
0.0
 70
   128
 71
   61
 72
   74
 73
   75
  0
VERTEX
  8
hill
 10
0.0
 20
0.0
 30
0.0
 70
   128
 71
   62
 72
   75
 73
   76
  0
VERTEX
  8
hill
 10
0.0
 20
0.0
 30
0.0
 70
   128
 71
   63
 72
   76
 73
   77
  0
VERTEX
  8
hill
 10
0.0
 20
0.0
 30
0.0
 70
   128
 71
   64
 72
   77
 73
   78
  0
VERTEX
  8
hill
 10
0.0
 20
0.0
 30
0.0
 70
   128
 71
   66
 72
   79
 73
   80
  0
VERTEX
  8
hill
 10
0.0
 20
0.0
 30
0.0
 70
   128
 71
   67
 72
   80
 73
   81
  0
VERTEX
  8
hill
 10
0.0
 20
0.0
 30
0.0
 70
   128
 71
   68
 72
   81
 73
   82
  0
VERTEX
  8
hill
 10
0.0
 20
0.0
 30
0.0
 70
   128
 71
   69
 72
   82
 73
   83
  0
VERTEX
  8
hill
 10
0.0
 20
0.0
 30
0.0
 70
   128
 71
   70
 72
   83
 73
   84
  0
VERTEX
  8
hill
 10
0.0
 20
0.0
 30
0.0
 70
   128
 71
   71
 72
   84
 73
   85
  0
VERTEX
  8
hill
 10
0.0
 20
0.0
 30
0.0
 70
   128
 71
   72
 72
   85
 73
   86
  0
VERTEX
  8
hill
 10
0.0
 20
0.0
 30
0.0
 70
   128
 71
   73
 72
   86
 73
   87
  0
VERTEX
  8
hill
 10
0.0
 20
0.0
 30
0.0
 70
   128
 71
   74
 72
   87
 73
   88
  0
VERTEX
  8
hill
 10
0.0
 20
0.0
 30
0.0
 70
   128
 71
   75
 72
   88
 73
   89
  0
VERTEX
  8
hill
 10
0.0
 20
0.0
 30
0.0
 70
   128
 71
   76
 72
   89
 73
   90
  0
VERTEX
  8
hill
 10
0.0
 20
0.0
 30
0.0
 70
   128
 71
   77
 72
   90
 73
   91
  0
VERTEX
  8
hill
 10
0.0
 20
0.0
 30
0.0
 70
   128
 71
   79
 72
   92
 73
   93
  0
VERTEX
  8
hill
 10
0.0
 20
0.0
 30
0.0
 70
   128
 71
   80
 72
   93
 73
   94
  0
VERTEX
  8
hill
 10
0.0
 20
0.0
 30
0.0
 70
   128
 71
   81
 72
   94
 73
   95
  0
VERTEX
  8
hill
 10
0.0
 20
0.0
 30
0.0
 70
   128
 71
   82
 72
   95
 73
   96
  0
VERTEX
  8
hill
 10
0.0
 20
0.0
 30
0.0
 70
   128
 71
   83
 72
   96
 73
   97
  0
VERTEX
  8
hill
 10
0.0
 20
0.0
 30
0.0
 70
   128
 71
   84
 72
   97
 73
   98
  0
VERTEX
  8
hill
 10
0.0
 20
0.0
 30
0.0
 70
   128
 71
   85
 72
   98
 73
   99
  0
VERTEX
  8
hill
 10
0.0
 20
0.0
 30
0.0
 70
   128
 71
   86
 72
   99
 73
   100
  0
VERTEX
  8
hill
 10
0.0
 20
0.0
 30
0.0
 70
   128
 71
   87
 72
   100
 73
   101
  0
VERTEX
  8
hill
 10
0.0
 20
0.0
 30
0.0
 70
   128
 71
   88
 72
   101
 73
   102
  0
VERTEX
  8
hill
 10
0.0
 20
0.0
 30
0.0
 70
   128
 71
   89
 72
   102
 73
   103
  0
VERTEX
  8
hill
 10
0.0
 20
0.0
 30
0.0
 70
   128
 71
   90
 72
   103
 73
   104
  0
VERTEX
  8
hill
 10
0.0
 20
0.0
 30
0.0
 70
   128
 71
   92
 72
   105
 73
   106
  0
VERTEX
  8
hill
 10
0.0
 20
0.0
 30
0.0
 70
   128
 71
   93
 72
   106
 73
   107
  0
VERTEX
  8
hill
 10
0.0
 20
0.0
 30
0.0
 70
   128
 71
   94
 72
   107
 73
   108
  0
VERTEX
  8
hill
 10
0.0
 20
0.0
 30
0.0
 70
   128
 71
   95
 72
   108
 73
   109
  0
VERTEX
  8
hill
 10
0.0
 20
0.0
 30
0.0
 70
   128
 71
   96
 72
   109
 73
   110
  0
VERTEX
  8
hill
 10
0.0
 20
0.0
 30
0.0
 70
   128
 71
   97
 72
   110
 73
   111
  0
VERTEX
  8
hill
 10
0.0
 20
0.0
 30
0.0
 70
   128
 71
   98
 72
   111
 73
   112
  0
VERTEX
  8
hill
 10
0.0
 20
0.0
 30
0.0
 70
   128
 71
   99
 72
   112
 73
   113
  0
VERTEX
  8
hill
 10
0.0
 20
0.0
 30
0.0
 70
   128
 71
   100
 72
   113
 73
   114
  0
VERTEX
  8
hill
 10
0.0
 20
0.0
 30
0.0
 70
   128
 71
   101
 72
   114
 73
   115
  0
VERTEX
  8
hill
 10
0.0
 20
0.0
 30
0.0
 70
   128
 71
   102
 72
   115
 73
   116
  0
VERTEX
  8
hill
 10
0.0
 20
0.0
 30
0.0
 70
   128
 71
   103
 72
   116
 73
   117
  0
VERTEX
  8
hill
 10
0.0
 20
0.0
 30
0.0
 70
   128
 71
   105
 72
   118
 73
   119
  0
VERTEX
  8
hill
 10
0.0
 20
0.0
 30
0.0
 70
   128
 71
   106
 72
   119
 73
   120
  0
VERTEX
  8
hill
 10
0.0
 20
0.0
 30
0.0
 70
   128
 71
   107
 72
   120
 73
   121
  0
VERTEX
  8
hill
 10
0.0
 20
0.0
 30
0.0
 70
   128
 71
   108
 72
   121
 73
   122
  0
VERTEX
  8
hill
 10
0.0
 20
0.0
 30
0.0
 70
   128
 71
   109
 72
   122
 73
   123
  0
VERTEX
  8
hill
 10
0.0
 20
0.0
 30
0.0
 70
   128
 71
   110
 72
   123
 73
   124
  0
VERTEX
  8
hill
 10
0.0
 20
0.0
 30
0.0
 70
   128
 71
   111
 72
   124
 73
   125
  0
VERTEX
  8
hill
 10
0.0
 20
0.0
 30
0.0
 70
   128
 71
   112
 72
   125
 73
   126
  0
VERTEX
  8
hill
 10
0.0
 20
0.0
 30
0.0
 70
   128
 71
   113
 72
   126
 73
   127
  0
VERTEX
  8
hill
 10
0.0
 20
0.0
 30
0.0
 70
   128
 71
   114
 72
   127
 73
   128
  0
VERTEX
  8
hill
 10
0.0
 20
0.0
 30
0.0
 70
   128
 71
   115
 72
   128
 73
   129
  0
VERTEX
  8
hill
 10
0.0
 20
0.0
 30
0.0
 70
   128
 71
   116
 72
   129
 73
   130
  0
VERTEX
  8
hill
 10
0.0
 20
0.0
 30
0.0
 70
   128
 71
   118
 72
   131
 73
   132
  0
VERTEX
  8
hill
 10
0.0
 20
0.0
 30
0.0
 70
   128
 71
   119
 72
   132
 73
   133
  0
VERTEX
  8
hill
 10
0.0
 20
0.0
 30
0.0
 70
   128
 71
   120
 72
   133
 73
   134
  0
VERTEX
  8
hill
 10
0.0
 20
0.0
 30
0.0
 70
   128
 71
   121
 72
   134
 73
   135
  0
VERTEX
  8
hill
 10
0.0
 20
0.0
 30
0.0
 70
   128
 71
   122
 72
   135
 73
   136
  0
VERTEX
  8
hill
 10
0.0
 20
0.0
 30
0.0
 70
   128
 71
   123
 72
   136
 73
   137
  0
VERTEX
  8
hill
 10
0.0
 20
0.0
 30
0.0
 70
   128
 71
   124
 72
   137
 73
   138
  0
VERTEX
  8
hill
 10
0.0
 20
0.0
 30
0.0
 70
   128
 71
   125
 72
   138
 73
   139
  0
VERTEX
  8
hill
 10
0.0
 20
0.0
 30
0.0
 70
   128
 71
   126
 72
   139
 73
   140
  0
VERTEX
  8
hill
 10
0.0
 20
0.0
 30
0.0
 70
   128
 71
   127
 72
   140
 73
   141
  0
VERTEX
  8
hill
 10
0.0
 20
0.0
 30
0.0
 70
   128
 71
   128
 72
   141
 73
   142
  0
VERTEX
  8
hill
 10
0.0
 20
0.0
 30
0.0
 70
   128
 71
   129
 72
   142
 73
   143
  0
VERTEX
  8
hill
 10
0.0
 20
0.0
 30
0.0
 70
   128
 71
   131
 72
   144
 73
   145
  0
VERTEX
  8
hill
 10
0.0
 20
0.0
 30
0.0
 70
   128
 71
   132
 72
   145
 73
   146
  0
VERTEX
  8
hill
 10
0.0
 20
0.0
 30
0.0
 70
   128
 71
   133
 72
   146
 73
   147
  0
VERTEX
  8
hill
 10
0.0
 20
0.0
 30
0.0
 70
   128
 71
   134
 72
   147
 73
   148
  0
VERTEX
  8
hill
 10
0.0
 20
0.0
 30
0.0
 70
   128
 71
   135
 72
   148
 73
   149
  0
VERTEX
  8
hill
 10
0.0
 20
0.0
 30
0.0
 70
   128
 71
   136
 72
   149
 73
   150
  0
VERTEX
  8
hill
 10
0.0
 20
0.0
 30
0.0
 70
   128
 71
   137
 72
   150
 73
   151
  0
VERTEX
  8
hill
 10
0.0
 20
0.0
 30
0.0
 70
   128
 71
   138
 72
   151
 73
   152
  0
VERTEX
  8
hill
 10
0.0
 20
0.0
 30
0.0
 70
   128
 71
   139
 72
   152
 73
   153
  0
VERTEX
  8
hill
 10
0.0
 20
0.0
 30
0.0
 70
   128
 71
   140
 72
   153
 73
   154
  0
VERTEX
  8
hill
 10
0.0
 20
0.0
 30
0.0
 70
   128
 71
   141
 72
   154
 73
   155
  0
VERTEX
  8
hill
 10
0.0
 20
0.0
 30
0.0
 70
   128
 71
   142
 72
   155
 73
   156
  0
VERTEX
  8
hill
 10
0.0
 20
0.0
 30
0.0
 70
   128
 71
   144
 72
   157
 73
   158
  0
VERTEX
  8
hill
 10
0.0
 20
0.0
 30
0.0
 70
   128
 71
   145
 72
   158
 73
   159
  0
VERTEX
  8
hill
 10
0.0
 20
0.0
 30
0.0
 70
   128
 71
   146
 72
   159
 73
   160
  0
VERTEX
  8
hill
 10
0.0
 20
0.0
 30
0.0
 70
   128
 71
   147
 72
   160
 73
   161
  0
VERTEX
  8
hill
 10
0.0
 20
0.0
 30
0.0
 70
   128
 71
   148
 72
   161
 73
   162
  0
VERTEX
  8
hill
 10
0.0
 20
0.0
 30
0.0
 70
   128
 71
   149
 72
   162
 73
   163
  0
VERTEX
  8
hill
 10
0.0
 20
0.0
 30
0.0
 70
   128
 71
   150
 72
   163
 73
   164
  0
VERTEX
  8
hill
 10
0.0
 20
0.0
 30
0.0
 70
   128
 71
   151
 72
   164
 73
   165
  0
VERTEX
  8
hill
 10
0.0
 20
0.0
 30
0.0
 70
   128
 71
   152
 72
   165
 73
   166
  0
VERTEX
  8
hill
 10
0.0
 20
0.0
 30
0.0
 70
   128
 71
   153
 72
   166
 73
   167
  0
VERTEX
  8
hill
 10
0.0
 20
0.0
 30
0.0
 70
   128
 71
   154
 72
   167
 73
   168
  0
VERTEX
  8
hill
 10
0.0
 20
0.0
 30
0.0
 70
   128
 71
   155
 72
   168
 73
   169
  0
VERTEX
  8
hill
 10
0.0
 20
0.0
 30
0.0
 70
   128
 71
   1
 72
   15
 73
   2
  0
VERTEX
  8
hill
 10
0.0
 20
0.0
 30
0.0
 70
   128
 71
   2
 72
   16
 73
   3
  0
VERTEX
  8
hill
 10
0.0
 20
0.0
 30
0.0
 70
   128
 71
   3
 72
   17
 73
   4
  0
VERTEX
  8
hill
 10
0.0
 20
0.0
 30
0.0
 70
   128
 71
   4
 72
   18
 73
   5
  0
VERTEX
  8
hill
 10
0.0
 20
0.0
 30
0.0
 70
   128
 71
   5
 72
   19
 73
   6
  0
VERTEX
  8
hill
 10
0.0
 20
0.0
 30
0.0
 70
   128
 71
   6
 72
   20
 73
   7
  0
VERTEX
  8
hill
 10
0.0
 20
0.0
 30
0.0
 70
   128
 71
   7
 72
   21
 73
   8
  0
VERTEX
  8
hill
 10
0.0
 20
0.0
 30
0.0
 70
   128
 71
   8
 72
   22
 73
   9
  0
VERTEX
  8
hill
 10
0.0
 20
0.0
 30
0.0
 70
   128
 71
   9
 72
   23
 73
   10
  0
VERTEX
  8
hill
 10
0.0
 20
0.0
 30
0.0
 70
   128
 71
   10
 72
   24
 73
   11
  0
VERTEX
  8
hill
 10
0.0
 20
0.0
 30
0.0
 70
   128
 71
   11
 72
   25
 73
   12
  0
VERTEX
  8
hill
 10
0.0
 20
0.0
 30
0.0
 70
   128
 71
   12
 72
   26
 73
   13
  0
VERTEX
  8
hill
 10
0.0
 20
0.0
 30
0.0
 70
   128
 71
   14
 72
   28
 73
   15
  0
VERTEX
  8
hill
 10
0.0
 20
0.0
 30
0.0
 70
   128
 71
   15
 72
   29
 73
   16
  0
VERTEX
  8
hill
 10
0.0
 20
0.0
 30
0.0
 70
   128
 71
   16
 72
   30
 73
   17
  0
VERTEX
  8
hill
 10
0.0
 20
0.0
 30
0.0
 70
   128
 71
   17
 72
   31
 73
   18
  0
VERTEX
  8
hill
 10
0.0
 20
0.0
 30
0.0
 70
   128
 71
   18
 72
   32
 73
   19
  0
VERTEX
  8
hill
 10
0.0
 20
0.0
 30
0.0
 70
   128
 71
   19
 72
   33
 73
   20
  0
VERTEX
  8
hill
 10
0.0
 20
0.0
 30
0.0
 70
   128
 71
   20
 72
   34
 73
   21
  0
VERTEX
  8
hill
 10
0.0
 20
0.0
 30
0.0
 70
   128
 71
   21
 72
   35
 73
   22
  0
VERTEX
  8
hill
 10
0.0
 20
0.0
 30
0.0
 70
   128
 71
   22
 72
   36
 73
   23
  0
VERTEX
  8
hill
 10
0.0
 20
0.0
 30
0.0
 70
   128
 71
   23
 72
   37
 73
   24
  0
VERTEX
  8
hill
 10
0.0
 20
0.0
 30
0.0
 70
   128
 71
   24
 72
   38
 73
   25
  0
VERTEX
  8
hill
 10
0.0
 20
0.0
 30
0.0
 70
   128
 71
   25
 72
   39
 73
   26
  0
VERTEX
  8
hill
 10
0.0
 20
0.0
 30
0.0
 70
   128
 71
   27
 72
   41
 73
   28
  0
VERTEX
  8
hill
 10
0.0
 20
0.0
 30
0.0
 70
   128
 71
   28
 72
   42
 73
   29
  0
VERTEX
  8
hill
 10
0.0
 20
0.0
 30
0.0
 70
   128
 71
   29
 72
   43
 73
   30
  0
VERTEX
  8
hill
 10
0.0
 20
0.0
 30
0.0
 70
   128
 71
   30
 72
   44
 73
   31
  0
VERTEX
  8
hill
 10
0.0
 20
0.0
 30
0.0
 70
   128
 71
   31
 72
   45
 73
   32
  0
VERTEX
  8
hill
 10
0.0
 20
0.0
 30
0.0
 70
   128
 71
   32
 72
   46
 73
   33
  0
VERTEX
  8
hill
 10
0.0
 20
0.0
 30
0.0
 70
   128
 71
   33
 72
   47
 73
   34
  0
VERTEX
  8
hill
 10
0.0
 20
0.0
 30
0.0
 70
   128
 71
   34
 72
   48
 73
   35
  0
VERTEX
  8
hill
 10
0.0
 20
0.0
 30
0.0
 70
   128
 71
   35
 72
   49
 73
   36
  0
VERTEX
  8
hill
 10
0.0
 20
0.0
 30
0.0
 70
   128
 71
   36
 72
   50
 73
   37
  0
VERTEX
  8
hill
 10
0.0
 20
0.0
 30
0.0
 70
   128
 71
   37
 72
   51
 73
   38
  0
VERTEX
  8
hill
 10
0.0
 20
0.0
 30
0.0
 70
   128
 71
   38
 72
   52
 73
   39
  0
VERTEX
  8
hill
 10
0.0
 20
0.0
 30
0.0
 70
   128
 71
   40
 72
   54
 73
   41
  0
VERTEX
  8
hill
 10
0.0
 20
0.0
 30
0.0
 70
   128
 71
   41
 72
   55
 73
   42
  0
VERTEX
  8
hill
 10
0.0
 20
0.0
 30
0.0
 70
   128
 71
   42
 72
   56
 73
   43
  0
VERTEX
  8
hill
 10
0.0
 20
0.0
 30
0.0
 70
   128
 71
   43
 72
   57
 73
   44
  0
VERTEX
  8
hill
 10
0.0
 20
0.0
 30
0.0
 70
   128
 71
   44
 72
   58
 73
   45
  0
VERTEX
  8
hill
 10
0.0
 20
0.0
 30
0.0
 70
   128
 71
   45
 72
   59
 73
   46
  0
VERTEX
  8
hill
 10
0.0
 20
0.0
 30
0.0
 70
   128
 71
   46
 72
   60
 73
   47
  0
VERTEX
  8
hill
 10
0.0
 20
0.0
 30
0.0
 70
   128
 71
   47
 72
   61
 73
   48
  0
VERTEX
  8
hill
 10
0.0
 20
0.0
 30
0.0
 70
   128
 71
   48
 72
   62
 73
   49
  0
VERTEX
  8
hill
 10
0.0
 20
0.0
 30
0.0
 70
   128
 71
   49
 72
   63
 73
   50
  0
VERTEX
  8
hill
 10
0.0
 20
0.0
 30
0.0
 70
   128
 71
   50
 72
   64
 73
   51
  0
VERTEX
  8
hill
 10
0.0
 20
0.0
 30
0.0
 70
   128
 71
   51
 72
   65
 73
   52
  0
VERTEX
  8
hill
 10
0.0
 20
0.0
 30
0.0
 70
   128
 71
   53
 72
   67
 73
   54
  0
VERTEX
  8
hill
 10
0.0
 20
0.0
 30
0.0
 70
   128
 71
   54
 72
   68
 73
   55
  0
VERTEX
  8
hill
 10
0.0
 20
0.0
 30
0.0
 70
   128
 71
   55
 72
   69
 73
   56
  0
VERTEX
  8
hill
 10
0.0
 20
0.0
 30
0.0
 70
   128
 71
   56
 72
   70
 73
   57
  0
VERTEX
  8
hill
 10
0.0
 20
0.0
 30
0.0
 70
   128
 71
   57
 72
   71
 73
   58
  0
VERTEX
  8
hill
 10
0.0
 20
0.0
 30
0.0
 70
   128
 71
   58
 72
   72
 73
   59
  0
VERTEX
  8
hill
 10
0.0
 20
0.0
 30
0.0
 70
   128
 71
   59
 72
   73
 73
   60
  0
VERTEX
  8
hill
 10
0.0
 20
0.0
 30
0.0
 70
   128
 71
   60
 72
   74
 73
   61
  0
VERTEX
  8
hill
 10
0.0
 20
0.0
 30
0.0
 70
   128
 71
   61
 72
   75
 73
   62
  0
VERTEX
  8
hill
 10
0.0
 20
0.0
 30
0.0
 70
   128
 71
   62
 72
   76
 73
   63
  0
VERTEX
  8
hill
 10
0.0
 20
0.0
 30
0.0
 70
   128
 71
   63
 72
   77
 73
   64
  0
VERTEX
  8
hill
 10
0.0
 20
0.0
 30
0.0
 70
   128
 71
   64
 72
   78
 73
   65
  0
VERTEX
  8
hill
 10
0.0
 20
0.0
 30
0.0
 70
   128
 71
   66
 72
   80
 73
   67
  0
VERTEX
  8
hill
 10
0.0
 20
0.0
 30
0.0
 70
   128
 71
   67
 72
   81
 73
   68
  0
VERTEX
  8
hill
 10
0.0
 20
0.0
 30
0.0
 70
   128
 71
   68
 72
   82
 73
   69
  0
VERTEX
  8
hill
 10
0.0
 20
0.0
 30
0.0
 70
   128
 71
   69
 72
   83
 73
   70
  0
VERTEX
  8
hill
 10
0.0
 20
0.0
 30
0.0
 70
   128
 71
   70
 72
   84
 73
   71
  0
VERTEX
  8
hill
 10
0.0
 20
0.0
 30
0.0
 70
   128
 71
   71
 72
   85
 73
   72
  0
VERTEX
  8
hill
 10
0.0
 20
0.0
 30
0.0
 70
   128
 71
   72
 72
   86
 73
   73
  0
VERTEX
  8
hill
 10
0.0
 20
0.0
 30
0.0
 70
   128
 71
   73
 72
   87
 73
   74
  0
VERTEX
  8
hill
 10
0.0
 20
0.0
 30
0.0
 70
   128
 71
   74
 72
   88
 73
   75
  0
VERTEX
  8
hill
 10
0.0
 20
0.0
 30
0.0
 70
   128
 71
   75
 72
   89
 73
   76
  0
VERTEX
  8
hill
 10
0.0
 20
0.0
 30
0.0
 70
   128
 71
   76
 72
   90
 73
   77
  0
VERTEX
  8
hill
 10
0.0
 20
0.0
 30
0.0
 70
   128
 71
   77
 72
   91
 73
   78
  0
VERTEX
  8
hill
 10
0.0
 20
0.0
 30
0.0
 70
   128
 71
   79
 72
   93
 73
   80
  0
VERTEX
  8
hill
 10
0.0
 20
0.0
 30
0.0
 70
   128
 71
   80
 72
   94
 73
   81
  0
VERTEX
  8
hill
 10
0.0
 20
0.0
 30
0.0
 70
   128
 71
   81
 72
   95
 73
   82
  0
VERTEX
  8
hill
 10
0.0
 20
0.0
 30
0.0
 70
   128
 71
   82
 72
   96
 73
   83
  0
VERTEX
  8
hill
 10
0.0
 20
0.0
 30
0.0
 70
   128
 71
   83
 72
   97
 73
   84
  0
VERTEX
  8
hill
 10
0.0
 20
0.0
 30
0.0
 70
   128
 71
   84
 72
   98
 73
   85
  0
VERTEX
  8
hill
 10
0.0
 20
0.0
 30
0.0
 70
   128
 71
   85
 72
   99
 73
   86
  0
VERTEX
  8
hill
 10
0.0
 20
0.0
 30
0.0
 70
   128
 71
   86
 72
   100
 73
   87
  0
VERTEX
  8
hill
 10
0.0
 20
0.0
 30
0.0
 70
   128
 71
   87
 72
   101
 73
   88
  0
VERTEX
  8
hill
 10
0.0
 20
0.0
 30
0.0
 70
   128
 71
   88
 72
   102
 73
   89
  0
VERTEX
  8
hill
 10
0.0
 20
0.0
 30
0.0
 70
   128
 71
   89
 72
   103
 73
   90
  0
VERTEX
  8
hill
 10
0.0
 20
0.0
 30
0.0
 70
   128
 71
   90
 72
   104
 73
   91
  0
VERTEX
  8
hill
 10
0.0
 20
0.0
 30
0.0
 70
   128
 71
   92
 72
   106
 73
   93
  0
VERTEX
  8
hill
 10
0.0
 20
0.0
 30
0.0
 70
   128
 71
   93
 72
   107
 73
   94
  0
VERTEX
  8
hill
 10
0.0
 20
0.0
 30
0.0
 70
   128
 71
   94
 72
   108
 73
   95
  0
VERTEX
  8
hill
 10
0.0
 20
0.0
 30
0.0
 70
   128
 71
   95
 72
   109
 73
   96
  0
VERTEX
  8
hill
 10
0.0
 20
0.0
 30
0.0
 70
   128
 71
   96
 72
   110
 73
   97
  0
VERTEX
  8
hill
 10
0.0
 20
0.0
 30
0.0
 70
   128
 71
   97
 72
   111
 73
   98
  0
VERTEX
  8
hill
 10
0.0
 20
0.0
 30
0.0
 70
   128
 71
   98
 72
   112
 73
   99
  0
VERTEX
  8
hill
 10
0.0
 20
0.0
 30
0.0
 70
   128
 71
   99
 72
   113
 73
   100
  0
VERTEX
  8
hill
 10
0.0
 20
0.0
 30
0.0
 70
   128
 71
   100
 72
   114
 73
   101
  0
VERTEX
  8
hill
 10
0.0
 20
0.0
 30
0.0
 70
   128
 71
   101
 72
   115
 73
   102
  0
VERTEX
  8
hill
 10
0.0
 20
0.0
 30
0.0
 70
   128
 71
   102
 72
   116
 73
   103
  0
VERTEX
  8
hill
 10
0.0
 20
0.0
 30
0.0
 70
   128
 71
   103
 72
   117
 73
   104
  0
VERTEX
  8
hill
 10
0.0
 20
0.0
 30
0.0
 70
   128
 71
   105
 72
   119
 73
   106
  0
VERTEX
  8
hill
 10
0.0
 20
0.0
 30
0.0
 70
   128
 71
   106
 72
   120
 73
   107
  0
VERTEX
  8
hill
 10
0.0
 20
0.0
 30
0.0
 70
   128
 71
   107
 72
   121
 73
   108
  0
VERTEX
  8
hill
 10
0.0
 20
0.0
 30
0.0
 70
   128
 71
   108
 72
   122
 73
   109
  0
VERTEX
  8
hill
 10
0.0
 20
0.0
 30
0.0
 70
   128
 71
   109
 72
   123
 73
   110
  0
VERTEX
  8
hill
 10
0.0
 20
0.0
 30
0.0
 70
   128
 71
   110
 72
   124
 73
   111
  0
VERTEX
  8
hill
 10
0.0
 20
0.0
 30
0.0
 70
   128
 71
   111
 72
   125
 73
   112
  0
VERTEX
  8
hill
 10
0.0
 20
0.0
 30
0.0
 70
   128
 71
   112
 72
   126
 73
   113
  0
VERTEX
  8
hill
 10
0.0
 20
0.0
 30
0.0
 70
   128
 71
   113
 72
   127
 73
   114
  0
VERTEX
  8
hill
 10
0.0
 20
0.0
 30
0.0
 70
   128
 71
   114
 72
   128
 73
   115
  0
VERTEX
  8
hill
 10
0.0
 20
0.0
 30
0.0
 70
   128
 71
   115
 72
   129
 73
   116
  0
VERTEX
  8
hill
 10
0.0
 20
0.0
 30
0.0
 70
   128
 71
   116
 72
   130
 73
   117
  0
VERTEX
  8
hill
 10
0.0
 20
0.0
 30
0.0
 70
   128
 71
   118
 72
   132
 73
   119
  0
VERTEX
  8
hill
 10
0.0
 20
0.0
 30
0.0
 70
   128
 71
   119
 72
   133
 73
   120
  0
VERTEX
  8
hill
 10
0.0
 20
0.0
 30
0.0
 70
   128
 71
   120
 72
   134
 73
   121
  0
VERTEX
  8
hill
 10
0.0
 20
0.0
 30
0.0
 70
   128
 71
   121
 72
   135
 73
   122
  0
VERTEX
  8
hill
 10
0.0
 20
0.0
 30
0.0
 70
   128
 71
   122
 72
   136
 73
   123
  0
VERTEX
  8
hill
 10
0.0
 20
0.0
 30
0.0
 70
   128
 71
   123
 72
   137
 73
   124
  0
VERTEX
  8
hill
 10
0.0
 20
0.0
 30
0.0
 70
   128
 71
   124
 72
   138
 73
   125
  0
VERTEX
  8
hill
 10
0.0
 20
0.0
 30
0.0
 70
   128
 71
   125
 72
   139
 73
   126
  0
VERTEX
  8
hill
 10
0.0
 20
0.0
 30
0.0
 70
   128
 71
   126
 72
   140
 73
   127
  0
VERTEX
  8
hill
 10
0.0
 20
0.0
 30
0.0
 70
   128
 71
   127
 72
   141
 73
   128
  0
VERTEX
  8
hill
 10
0.0
 20
0.0
 30
0.0
 70
   128
 71
   128
 72
   142
 73
   129
  0
VERTEX
  8
hill
 10
0.0
 20
0.0
 30
0.0
 70
   128
 71
   129
 72
   143
 73
   130
  0
VERTEX
  8
hill
 10
0.0
 20
0.0
 30
0.0
 70
   128
 71
   131
 72
   145
 73
   132
  0
VERTEX
  8
hill
 10
0.0
 20
0.0
 30
0.0
 70
   128
 71
   132
 72
   146
 73
   133
  0
VERTEX
  8
hill
 10
0.0
 20
0.0
 30
0.0
 70
   128
 71
   133
 72
   147
 73
   134
  0
VERTEX
  8
hill
 10
0.0
 20
0.0
 30
0.0
 70
   128
 71
   134
 72
   148
 73
   135
  0
VERTEX
  8
hill
 10
0.0
 20
0.0
 30
0.0
 70
   128
 71
   135
 72
   149
 73
   136
  0
VERTEX
  8
hill
 10
0.0
 20
0.0
 30
0.0
 70
   128
 71
   136
 72
   150
 73
   137
  0
VERTEX
  8
hill
 10
0.0
 20
0.0
 30
0.0
 70
   128
 71
   137
 72
   151
 73
   138
  0
VERTEX
  8
hill
 10
0.0
 20
0.0
 30
0.0
 70
   128
 71
   138
 72
   152
 73
   139
  0
VERTEX
  8
hill
 10
0.0
 20
0.0
 30
0.0
 70
   128
 71
   139
 72
   153
 73
   140
  0
VERTEX
  8
hill
 10
0.0
 20
0.0
 30
0.0
 70
   128
 71
   140
 72
   154
 73
   141
  0
VERTEX
  8
hill
 10
0.0
 20
0.0
 30
0.0
 70
   128
 71
   141
 72
   155
 73
   142
  0
VERTEX
  8
hill
 10
0.0
 20
0.0
 30
0.0
 70
   128
 71
   142
 72
   156
 73
   143
  0
VERTEX
  8
hill
 10
0.0
 20
0.0
 30
0.0
 70
   128
 71
   144
 72
   158
 73
   145
  0
VERTEX
  8
hill
 10
0.0
 20
0.0
 30
0.0
 70
   128
 71
   145
 72
   159
 73
   146
  0
VERTEX
  8
hill
 10
0.0
 20
0.0
 30
0.0
 70
   128
 71
   146
 72
   160
 73
   147
  0
VERTEX
  8
hill
 10
0.0
 20
0.0
 30
0.0
 70
   128
 71
   147
 72
   161
 73
   148
  0
VERTEX
  8
hill
 10
0.0
 20
0.0
 30
0.0
 70
   128
 71
   148
 72
   162
 73
   149
  0
VERTEX
  8
hill
 10
0.0
 20
0.0
 30
0.0
 70
   128
 71
   149
 72
   163
 73
   150
  0
VERTEX
  8
hill
 10
0.0
 20
0.0
 30
0.0
 70
   128
 71
   150
 72
   164
 73
   151
  0
VERTEX
  8
hill
 10
0.0
 20
0.0
 30
0.0
 70
   128
 71
   151
 72
   165
 73
   152
  0
VERTEX
  8
hill
 10
0.0
 20
0.0
 30
0.0
 70
   128
 71
   152
 72
   166
 73
   153
  0
VERTEX
  8
hill
 10
0.0
 20
0.0
 30
0.0
 70
   128
 71
   153
 72
   167
 73
   154
  0
VERTEX
  8
hill
 10
0.0
 20
0.0
 30
0.0
 70
   128
 71
   154
 72
   168
 73
   155
  0
VERTEX
  8
hill
 10
0.0
 20
0.0
 30
0.0
 70
   128
 71
   155
 72
   169
 73
   156
  0
SEQEND
  0
ENDSEC
  0
EOF
