999
FBX AutoCAD (*.DXF) exporter
  0
SECTION
  2
HEADER
  9
$ACADVER
  1
AC1008
  9
$UCSORG
 10
0.0
 20
0.0
 30
0.0
  9
$UCSXDIR
 10
1.0
 20
0.0
 30
0.0
  9
$TILEMODE
 70
   1
  9
$UCSYDIR
 10
0.0
 20
1.0
 30
0.0
  0
ENDSEC
  0
SECTION
  2
TABLES
  0
TABLE
  2
LTYPE
 70
   1
  0
LTYPE
  2
CONTINUOUS
 70
   64
  3
Solid line
 72
   65
 73
   0
 40
0.0
  0
ENDTAB
  0
TABLE
  2
LAYER
 70
   2
  0
LAYER
  2
bark
 70
   0
 62
   250
  6
CONTINUOUS
  0
ENDTAB
  0
ENDSEC
  0
SECTION
  2
BLOCKS
  0
ENDSEC
  0
SECTION
  2
ENTITIES
  0
POLYLINE
  8
bark
 66
   1
 10
0.0
 20
0.0
 30
0.0
 70
   64
 71
   114
 72
   212
  0
VERTEX
  8
bark
 10
4.253779
 20
342.948794
 30
-4.085214
 70
   192
  0
VERTEX
  8
bark
 10
10.546776
 20
349.362779
 30
0.000000
 70
   192
  0
VERTEX
  8
bark
 10
8.449110
 20
347.224784
 30
4.085214
 70
   192
  0
VERTEX
  8
bark
 10
-78.968967
 20
420.405601
 30
0.000000
 70
   192
  0
VERTEX
  8
bark
 10
-75.973767
 20
421.662992
 30
-5.187839
 70
   192
  0
VERTEX
  8
bark
 10
-69.983367
 20
424.177774
 30
-5.187839
 70
   192
  0
VERTEX
  8
bark
 10
-66.988167
 20
425.435165
 30
0.000000
 70
   192
  0
VERTEX
  8
bark
 10
-69.983367
 20
424.177774
 30
5.187839
 70
   192
  0
VERTEX
  8
bark
 10
-75.973767
 20
421.662992
 30
5.187839
 70
   192
  0
VERTEX
  8
bark
 10
-78.968967
 20
553.377777
 30
0.000000
 70
   192
  0
VERTEX
  8
bark
 10
-75.973767
 20
554.354426
 30
-5.187839
 70
   192
  0
VERTEX
  8
bark
 10
-69.983367
 20
556.307725
 30
-5.187839
 70
   192
  0
VERTEX
  8
bark
 10
-66.988167
 20
557.284374
 30
0.000000
 70
   192
  0
VERTEX
  8
bark
 10
-69.983367
 20
556.307725
 30
5.187839
 70
   192
  0
VERTEX
  8
bark
 10
-75.973767
 20
554.354426
 30
5.187839
 70
   192
  0
VERTEX
  8
bark
 10
-123.609349
 20
614.551634
 30
0.000000
 70
   192
  0
VERTEX
  8
bark
 10
-120.638263
 20
615.561327
 30
-5.187839
 70
   192
  0
VERTEX
  8
bark
 10
-114.696089
 20
617.580714
 30
-5.187839
 70
   192
  0
VERTEX
  8
bark
 10
-111.725003
 20
618.590408
 30
0.000000
 70
   192
  0
VERTEX
  8
bark
 10
-114.696089
 20
617.580714
 30
5.187839
 70
   192
  0
VERTEX
  8
bark
 10
-120.638263
 20
615.561327
 30
5.187839
 70
   192
  0
VERTEX
  8
bark
 10
-119.638297
 20
816.916432
 30
-5.187839
 70
   192
  0
VERTEX
  8
bark
 10
-116.644017
 20
816.990670
 30
0.000000
 70
   192
  0
VERTEX
  8
bark
 10
-119.638297
 20
816.916432
 30
5.187839
 70
   192
  0
VERTEX
  8
bark
 10
2.156114
 20
340.810799
 30
0.000000
 70
   192
  0
VERTEX
  8
bark
 10
8.449110
 20
347.224784
 30
-4.085214
 70
   192
  0
VERTEX
  8
bark
 10
4.253779
 20
342.948794
 30
4.085214
 70
   192
  0
VERTEX
  8
bark
 10
-128.621137
 20
816.693717
 30
0.000000
 70
   192
  0
VERTEX
  8
bark
 10
-125.626857
 20
816.767955
 30
-5.187839
 70
   192
  0
VERTEX
  8
bark
 10
-125.626857
 20
816.767955
 30
5.187839
 70
   192
  0
VERTEX
  8
bark
 10
7.388517
 20
410.839391
 30
3.152108
 70
   192
  0
VERTEX
  8
bark
 10
2.728997
 20
412.739912
 30
1.518333
 70
   192
  0
VERTEX
  8
bark
 10
3.612381
 20
416.540956
 30
-0.760466
 70
   192
  0
VERTEX
  8
bark
 10
9.155286
 20
418.441478
 30
-1.405489
 70
   192
  0
VERTEX
  8
bark
 10
-9.352148
 20
473.695116
 30
48.250027
 70
   192
  0
VERTEX
  8
bark
 10
-13.886133
 20
474.789888
 30
44.334812
 70
   192
  0
VERTEX
  8
bark
 10
-12.751679
 20
476.979432
 30
38.481884
 70
   192
  0
VERTEX
  8
bark
 10
-7.083239
 20
478.074204
 30
36.544172
 70
   192
  0
VERTEX
  8
bark
 10
-2.549254
 20
476.979432
 30
40.459387
 70
   192
  0
VERTEX
  8
bark
 10
-3.683708
 20
474.789888
 30
46.312315
 70
   192
  0
VERTEX
  8
bark
 10
-9.996736
 20
663.394295
 30
51.575619
 70
   192
  0
VERTEX
  8
bark
 10
-14.523375
 20
662.326962
 30
47.622500
 70
   192
  0
VERTEX
  8
bark
 10
-13.374228
 20
660.192297
 30
41.693765
 70
   192
  0
VERTEX
  8
bark
 10
-7.698441
 20
659.124964
 30
39.718150
 70
   192
  0
VERTEX
  8
bark
 10
-3.171802
 20
660.192297
 30
43.671269
 70
   192
  0
VERTEX
  8
bark
 10
-4.320950
 20
662.326962
 30
49.600003
 70
   192
  0
VERTEX
  8
bark
 10
-0.218665
 20
724.726406
 30
1.128145
 70
   192
  0
VERTEX
  8
bark
 10
-4.752650
 20
723.612990
 30
-2.787069
 70
   192
  0
VERTEX
  8
bark
 10
-3.618197
 20
721.386159
 30
-8.639995
 70
   192
  0
VERTEX
  8
bark
 10
2.050243
 20
720.272744
 30
-10.577707
 70
   192
  0
VERTEX
  8
bark
 10
6.584229
 20
721.386159
 30
-6.662492
 70
   192
  0
VERTEX
  8
bark
 10
5.449775
 20
723.612990
 30
-0.809566
 70
   192
  0
VERTEX
  8
bark
 10
0.089200
 20
816.947440
 30
-0.460206
 70
   192
  0
VERTEX
  8
bark
 10
6.902718
 20
816.789570
 30
-8.305655
 70
   192
  0
VERTEX
  8
bark
 10
5.761181
 20
816.894817
 30
-2.416188
 70
   192
  0
VERTEX
  8
bark
 10
13.814806
 20
416.540956
 30
0.228286
 70
   192
  0
VERTEX
  8
bark
 10
12.931422
 20
412.739913
 30
2.507085
 70
   192
  0
VERTEX
  8
bark
 10
-4.441244
 20
816.894817
 30
-4.393691
 70
   192
  0
VERTEX
  8
bark
 10
-3.299708
 20
816.789570
 30
-10.283158
 70
   192
  0
VERTEX
  8
bark
 10
2.372273
 20
816.736946
 30
-12.239140
 70
   192
  0
VERTEX
  8
bark
 10
89.697260
 20
805.496066
 30
-98.590274
 70
   192
  0
VERTEX
  8
bark
 10
81.628202
 20
805.016449
 30
-89.721211
 70
   192
  0
VERTEX
  8
bark
 10
91.523484
 20
805.376162
 30
-92.876210
 70
   192
  0
VERTEX
  8
bark
 10
92.005602
 20
719.742640
 30
-101.127476
 70
   192
  0
VERTEX
  8
bark
 10
86.104516
 20
721.121107
 30
-102.362677
 70
   192
  0
VERTEX
  8
bark
 10
81.989320
 20
723.878042
 30
-97.839480
 70
   192
  0
VERTEX
  8
bark
 10
83.775210
 20
725.256510
 30
-92.081083
 70
   192
  0
VERTEX
  8
bark
 10
89.676296
 20
723.878042
 30
-90.845883
 70
   192
  0
VERTEX
  8
bark
 10
93.791492
 20
721.121107
 30
-95.369079
 70
   192
  0
VERTEX
  8
bark
 10
61.854550
 20
683.235934
 30
-67.987105
 70
   192
  0
VERTEX
  8
bark
 10
55.992185
 20
684.661284
 30
-69.264865
 70
   192
  0
VERTEX
  8
bark
 10
51.954430
 20
687.511984
 30
-64.826788
 70
   192
  0
VERTEX
  8
bark
 10
53.779040
 20
688.937334
 30
-59.110950
 70
   192
  0
VERTEX
  8
bark
 10
59.641405
 20
687.511984
 30
-57.833190
 70
   192
  0
VERTEX
  8
bark
 10
63.679161
 20
684.661284
 30
-62.271268
 70
   192
  0
VERTEX
  8
bark
 10
61.854550
 20
419.872925
 30
-67.987105
 70
   192
  0
VERTEX
  8
bark
 10
55.992185
 20
421.396654
 30
-69.264865
 70
   192
  0
VERTEX
  8
bark
 10
51.954430
 20
424.444112
 30
-64.826788
 70
   192
  0
VERTEX
  8
bark
 10
53.779040
 20
425.967841
 30
-59.110950
 70
   192
  0
VERTEX
  8
bark
 10
59.641405
 20
424.444112
 30
-57.833190
 70
   192
  0
VERTEX
  8
bark
 10
63.679161
 20
421.396654
 30
-62.271268
 70
   192
  0
VERTEX
  8
bark
 10
4.872069
 20
363.417553
 30
-4.637418
 70
   192
  0
VERTEX
  8
bark
 10
5.088535
 20
369.224325
 30
1.294011
 70
   192
  0
VERTEX
  8
bark
 10
9.110975
 20
367.288734
 30
3.042125
 70
   192
  0
VERTEX
  8
bark
 10
83.836508
 20
805.376162
 30
-99.869807
 70
   192
  0
VERTEX
  8
bark
 10
79.801979
 20
805.136354
 30
-95.435276
 70
   192
  0
VERTEX
  8
bark
 10
87.488955
 20
805.136354
 30
-88.441678
 70
   192
  0
VERTEX
  8
bark
 10
8.894509
 20
361.481963
 30
-2.889305
 70
   192
  0
VERTEX
  8
bark
 10
2.969082
 20
367.288734
 30
-2.545760
 70
   192
  0
VERTEX
  8
bark
 10
11.013962
 20
363.417553
 30
0.950466
 70
   192
  0
VERTEX
  8
bark
 10
-2.650185
 20
1.125092
 30
0.000000
 70
   192
  0
VERTEX
  8
bark
 10
0.349701
 20
1.098915
 30
-5.196152
 70
   192
  0
VERTEX
  8
bark
 10
9.349358
 20
1.020384
 30
0.000000
 70
   192
  0
VERTEX
  8
bark
 10
0.349701
 20
1.098915
 30
5.196152
 70
   192
  0
VERTEX
  8
bark
 10
1.120149
 20
433.206735
 30
0.000000
 70
   192
  0
VERTEX
  8
bark
 10
4.113072
 20
432.382612
 30
-5.196152
 70
   192
  0
VERTEX
  8
bark
 10
10.098918
 20
430.734368
 30
-5.196152
 70
   192
  0
VERTEX
  8
bark
 10
13.091840
 20
429.910246
 30
0.000000
 70
   192
  0
VERTEX
  8
bark
 10
10.098918
 20
430.734368
 30
5.196152
 70
   192
  0
VERTEX
  8
bark
 10
4.113072
 20
432.382612
 30
5.196152
 70
   192
  0
VERTEX
  8
bark
 10
36.254094
 20
493.353965
 30
0.000000
 70
   192
  0
VERTEX
  8
bark
 10
39.261454
 20
492.554559
 30
-5.196152
 70
   192
  0
VERTEX
  8
bark
 10
45.276174
 20
490.955745
 30
-5.196152
 70
   192
  0
VERTEX
  8
bark
 10
48.283534
 20
490.156338
 30
0.000000
 70
   192
  0
VERTEX
  8
bark
 10
45.276174
 20
490.955745
 30
5.196152
 70
   192
  0
VERTEX
  8
bark
 10
39.261454
 20
492.554559
 30
5.196152
 70
   192
  0
VERTEX
  8
bark
 10
34.931564
 20
639.439164
 30
0.000000
 70
   192
  0
VERTEX
  8
bark
 10
43.931195
 20
639.520638
 30
5.196152
 70
   192
  0
VERTEX
  8
bark
 10
37.931441
 20
639.466322
 30
5.196152
 70
   192
  0
VERTEX
  8
bark
 10
6.349472
 20
1.046561
 30
-5.196152
 70
   192
  0
VERTEX
  8
bark
 10
6.349472
 20
1.046561
 30
5.196152
 70
   192
  0
VERTEX
  8
bark
 10
37.931441
 20
639.466322
 30
-5.196152
 70
   192
  0
VERTEX
  8
bark
 10
43.931195
 20
639.520638
 30
-5.196152
 70
   192
  0
VERTEX
  8
bark
 10
46.931072
 20
639.547797
 30
0.000000
 70
   192
  0
VERTEX
  8
bark
 10
0.0
 20
0.0
 30
0.0
 70
   128
 71
   25
 72
   1
 73
   5
  0
VERTEX
  8
bark
 10
0.0
 20
0.0
 30
0.0
 70
   128
 71
   1
 72
   26
 73
   6
  0
VERTEX
  8
bark
 10
0.0
 20
0.0
 30
0.0
 70
   128
 71
   26
 72
   2
 73
   7
  0
VERTEX
  8
bark
 10
0.0
 20
0.0
 30
0.0
 70
   128
 71
   2
 72
   3
 73
   8
  0
VERTEX
  8
bark
 10
0.0
 20
0.0
 30
0.0
 70
   128
 71
   3
 72
   27
 73
   9
  0
VERTEX
  8
bark
 10
0.0
 20
0.0
 30
0.0
 70
   128
 71
   27
 72
   25
 73
   4
  0
VERTEX
  8
bark
 10
0.0
 20
0.0
 30
0.0
 70
   128
 71
   4
 72
   5
 73
   11
  0
VERTEX
  8
bark
 10
0.0
 20
0.0
 30
0.0
 70
   128
 71
   5
 72
   6
 73
   12
  0
VERTEX
  8
bark
 10
0.0
 20
0.0
 30
0.0
 70
   128
 71
   6
 72
   7
 73
   13
  0
VERTEX
  8
bark
 10
0.0
 20
0.0
 30
0.0
 70
   128
 71
   7
 72
   8
 73
   14
  0
VERTEX
  8
bark
 10
0.0
 20
0.0
 30
0.0
 70
   128
 71
   8
 72
   9
 73
   15
  0
VERTEX
  8
bark
 10
0.0
 20
0.0
 30
0.0
 70
   128
 71
   9
 72
   4
 73
   10
  0
VERTEX
  8
bark
 10
0.0
 20
0.0
 30
0.0
 70
   128
 71
   10
 72
   11
 73
   17
  0
VERTEX
  8
bark
 10
0.0
 20
0.0
 30
0.0
 70
   128
 71
   11
 72
   12
 73
   18
  0
VERTEX
  8
bark
 10
0.0
 20
0.0
 30
0.0
 70
   128
 71
   12
 72
   13
 73
   19
  0
VERTEX
  8
bark
 10
0.0
 20
0.0
 30
0.0
 70
   128
 71
   13
 72
   14
 73
   20
  0
VERTEX
  8
bark
 10
0.0
 20
0.0
 30
0.0
 70
   128
 71
   14
 72
   15
 73
   21
  0
VERTEX
  8
bark
 10
0.0
 20
0.0
 30
0.0
 70
   128
 71
   15
 72
   10
 73
   16
  0
VERTEX
  8
bark
 10
0.0
 20
0.0
 30
0.0
 70
   128
 71
   16
 72
   17
 73
   29
  0
VERTEX
  8
bark
 10
0.0
 20
0.0
 30
0.0
 70
   128
 71
   17
 72
   18
 73
   22
  0
VERTEX
  8
bark
 10
0.0
 20
0.0
 30
0.0
 70
   128
 71
   18
 72
   19
 73
   23
  0
VERTEX
  8
bark
 10
0.0
 20
0.0
 30
0.0
 70
   128
 71
   19
 72
   20
 73
   24
  0
VERTEX
  8
bark
 10
0.0
 20
0.0
 30
0.0
 70
   128
 71
   20
 72
   21
 73
   30
  0
VERTEX
  8
bark
 10
0.0
 20
0.0
 30
0.0
 70
   128
 71
   21
 72
   16
 73
   28
  0
VERTEX
  8
bark
 10
0.0
 20
0.0
 30
0.0
 70
   128
 71
   27
 72
   3
 73
   25
  0
VERTEX
  8
bark
 10
0.0
 20
0.0
 30
0.0
 70
   128
 71
   3
 72
   2
 73
   26
  0
VERTEX
  8
bark
 10
0.0
 20
0.0
 30
0.0
 70
   128
 71
   3
 72
   26
 73
   25
  0
VERTEX
  8
bark
 10
0.0
 20
0.0
 30
0.0
 70
   128
 71
   26
 72
   1
 73
   25
  0
VERTEX
  8
bark
 10
0.0
 20
0.0
 30
0.0
 70
   128
 71
   28
 72
   29
 73
   30
  0
VERTEX
  8
bark
 10
0.0
 20
0.0
 30
0.0
 70
   128
 71
   29
 72
   22
 73
   24
  0
VERTEX
  8
bark
 10
0.0
 20
0.0
 30
0.0
 70
   128
 71
   29
 72
   24
 73
   30
  0
VERTEX
  8
bark
 10
0.0
 20
0.0
 30
0.0
 70
   128
 71
   22
 72
   23
 73
   24
  0
VERTEX
  8
bark
 10
0.0
 20
0.0
 30
0.0
 70
   128
 71
   31
 72
   32
 73
   36
  0
VERTEX
  8
bark
 10
0.0
 20
0.0
 30
0.0
 70
   128
 71
   32
 72
   33
 73
   37
  0
VERTEX
  8
bark
 10
0.0
 20
0.0
 30
0.0
 70
   128
 71
   33
 72
   34
 73
   38
  0
VERTEX
  8
bark
 10
0.0
 20
0.0
 30
0.0
 70
   128
 71
   34
 72
   56
 73
   39
  0
VERTEX
  8
bark
 10
0.0
 20
0.0
 30
0.0
 70
   128
 71
   56
 72
   57
 73
   40
  0
VERTEX
  8
bark
 10
0.0
 20
0.0
 30
0.0
 70
   128
 71
   57
 72
   31
 73
   35
  0
VERTEX
  8
bark
 10
0.0
 20
0.0
 30
0.0
 70
   128
 71
   35
 72
   36
 73
   42
  0
VERTEX
  8
bark
 10
0.0
 20
0.0
 30
0.0
 70
   128
 71
   36
 72
   37
 73
   43
  0
VERTEX
  8
bark
 10
0.0
 20
0.0
 30
0.0
 70
   128
 71
   37
 72
   38
 73
   44
  0
VERTEX
  8
bark
 10
0.0
 20
0.0
 30
0.0
 70
   128
 71
   38
 72
   39
 73
   45
  0
VERTEX
  8
bark
 10
0.0
 20
0.0
 30
0.0
 70
   128
 71
   39
 72
   40
 73
   46
  0
VERTEX
  8
bark
 10
0.0
 20
0.0
 30
0.0
 70
   128
 71
   40
 72
   35
 73
   41
  0
VERTEX
  8
bark
 10
0.0
 20
0.0
 30
0.0
 70
   128
 71
   41
 72
   42
 73
   48
  0
VERTEX
  8
bark
 10
0.0
 20
0.0
 30
0.0
 70
   128
 71
   42
 72
   43
 73
   49
  0
VERTEX
  8
bark
 10
0.0
 20
0.0
 30
0.0
 70
   128
 71
   43
 72
   44
 73
   50
  0
VERTEX
  8
bark
 10
0.0
 20
0.0
 30
0.0
 70
   128
 71
   44
 72
   45
 73
   51
  0
VERTEX
  8
bark
 10
0.0
 20
0.0
 30
0.0
 70
   128
 71
   45
 72
   46
 73
   52
  0
VERTEX
  8
bark
 10
0.0
 20
0.0
 30
0.0
 70
   128
 71
   46
 72
   41
 73
   47
  0
VERTEX
  8
bark
 10
0.0
 20
0.0
 30
0.0
 70
   128
 71
   47
 72
   48
 73
   58
  0
VERTEX
  8
bark
 10
0.0
 20
0.0
 30
0.0
 70
   128
 71
   48
 72
   49
 73
   59
  0
VERTEX
  8
bark
 10
0.0
 20
0.0
 30
0.0
 70
   128
 71
   49
 72
   50
 73
   60
  0
VERTEX
  8
bark
 10
0.0
 20
0.0
 30
0.0
 70
   128
 71
   50
 72
   51
 73
   54
  0
VERTEX
  8
bark
 10
0.0
 20
0.0
 30
0.0
 70
   128
 71
   51
 72
   52
 73
   55
  0
VERTEX
  8
bark
 10
0.0
 20
0.0
 30
0.0
 70
   128
 71
   52
 72
   47
 73
   53
  0
VERTEX
  8
bark
 10
0.0
 20
0.0
 30
0.0
 70
   128
 71
   57
 72
   56
 73
   34
  0
VERTEX
  8
bark
 10
0.0
 20
0.0
 30
0.0
 70
   128
 71
   57
 72
   34
 73
   31
  0
VERTEX
  8
bark
 10
0.0
 20
0.0
 30
0.0
 70
   128
 71
   34
 72
   33
 73
   32
  0
VERTEX
  8
bark
 10
0.0
 20
0.0
 30
0.0
 70
   128
 71
   34
 72
   32
 73
   31
  0
VERTEX
  8
bark
 10
0.0
 20
0.0
 30
0.0
 70
   128
 71
   53
 72
   58
 73
   59
  0
VERTEX
  8
bark
 10
0.0
 20
0.0
 30
0.0
 70
   128
 71
   53
 72
   59
 73
   55
  0
VERTEX
  8
bark
 10
0.0
 20
0.0
 30
0.0
 70
   128
 71
   59
 72
   60
 73
   54
  0
VERTEX
  8
bark
 10
0.0
 20
0.0
 30
0.0
 70
   128
 71
   59
 72
   54
 73
   55
  0
VERTEX
  8
bark
 10
0.0
 20
0.0
 30
0.0
 70
   128
 71
   61
 72
   85
 73
   65
  0
VERTEX
  8
bark
 10
0.0
 20
0.0
 30
0.0
 70
   128
 71
   85
 72
   86
 73
   66
  0
VERTEX
  8
bark
 10
0.0
 20
0.0
 30
0.0
 70
   128
 71
   86
 72
   62
 73
   67
  0
VERTEX
  8
bark
 10
0.0
 20
0.0
 30
0.0
 70
   128
 71
   62
 72
   87
 73
   68
  0
VERTEX
  8
bark
 10
0.0
 20
0.0
 30
0.0
 70
   128
 71
   87
 72
   63
 73
   69
  0
VERTEX
  8
bark
 10
0.0
 20
0.0
 30
0.0
 70
   128
 71
   63
 72
   61
 73
   64
  0
VERTEX
  8
bark
 10
0.0
 20
0.0
 30
0.0
 70
   128
 71
   64
 72
   65
 73
   71
  0
VERTEX
  8
bark
 10
0.0
 20
0.0
 30
0.0
 70
   128
 71
   65
 72
   66
 73
   72
  0
VERTEX
  8
bark
 10
0.0
 20
0.0
 30
0.0
 70
   128
 71
   66
 72
   67
 73
   73
  0
VERTEX
  8
bark
 10
0.0
 20
0.0
 30
0.0
 70
   128
 71
   67
 72
   68
 73
   74
  0
VERTEX
  8
bark
 10
0.0
 20
0.0
 30
0.0
 70
   128
 71
   68
 72
   69
 73
   75
  0
VERTEX
  8
bark
 10
0.0
 20
0.0
 30
0.0
 70
   128
 71
   69
 72
   64
 73
   70
  0
VERTEX
  8
bark
 10
0.0
 20
0.0
 30
0.0
 70
   128
 71
   70
 72
   71
 73
   77
  0
VERTEX
  8
bark
 10
0.0
 20
0.0
 30
0.0
 70
   128
 71
   71
 72
   72
 73
   78
  0
VERTEX
  8
bark
 10
0.0
 20
0.0
 30
0.0
 70
   128
 71
   72
 72
   73
 73
   79
  0
VERTEX
  8
bark
 10
0.0
 20
0.0
 30
0.0
 70
   128
 71
   73
 72
   74
 73
   80
  0
VERTEX
  8
bark
 10
0.0
 20
0.0
 30
0.0
 70
   128
 71
   74
 72
   75
 73
   81
  0
VERTEX
  8
bark
 10
0.0
 20
0.0
 30
0.0
 70
   128
 71
   75
 72
   70
 73
   76
  0
VERTEX
  8
bark
 10
0.0
 20
0.0
 30
0.0
 70
   128
 71
   76
 72
   77
 73
   82
  0
VERTEX
  8
bark
 10
0.0
 20
0.0
 30
0.0
 70
   128
 71
   77
 72
   78
 73
   89
  0
VERTEX
  8
bark
 10
0.0
 20
0.0
 30
0.0
 70
   128
 71
   78
 72
   79
 73
   83
  0
VERTEX
  8
bark
 10
0.0
 20
0.0
 30
0.0
 70
   128
 71
   79
 72
   80
 73
   84
  0
VERTEX
  8
bark
 10
0.0
 20
0.0
 30
0.0
 70
   128
 71
   80
 72
   81
 73
   90
  0
VERTEX
  8
bark
 10
0.0
 20
0.0
 30
0.0
 70
   128
 71
   81
 72
   76
 73
   88
  0
VERTEX
  8
bark
 10
0.0
 20
0.0
 30
0.0
 70
   128
 71
   63
 72
   87
 73
   85
  0
VERTEX
  8
bark
 10
0.0
 20
0.0
 30
0.0
 70
   128
 71
   63
 72
   85
 73
   61
  0
VERTEX
  8
bark
 10
0.0
 20
0.0
 30
0.0
 70
   128
 71
   87
 72
   62
 73
   85
  0
VERTEX
  8
bark
 10
0.0
 20
0.0
 30
0.0
 70
   128
 71
   62
 72
   86
 73
   85
  0
VERTEX
  8
bark
 10
0.0
 20
0.0
 30
0.0
 70
   128
 71
   88
 72
   82
 73
   90
  0
VERTEX
  8
bark
 10
0.0
 20
0.0
 30
0.0
 70
   128
 71
   82
 72
   89
 73
   90
  0
VERTEX
  8
bark
 10
0.0
 20
0.0
 30
0.0
 70
   128
 71
   89
 72
   83
 73
   84
  0
VERTEX
  8
bark
 10
0.0
 20
0.0
 30
0.0
 70
   128
 71
   89
 72
   84
 73
   90
  0
VERTEX
  8
bark
 10
0.0
 20
0.0
 30
0.0
 70
   128
 71
   91
 72
   92
 73
   96
  0
VERTEX
  8
bark
 10
0.0
 20
0.0
 30
0.0
 70
   128
 71
   92
 72
   110
 73
   97
  0
VERTEX
  8
bark
 10
0.0
 20
0.0
 30
0.0
 70
   128
 71
   110
 72
   93
 73
   98
  0
VERTEX
  8
bark
 10
0.0
 20
0.0
 30
0.0
 70
   128
 71
   93
 72
   111
 73
   99
  0
VERTEX
  8
bark
 10
0.0
 20
0.0
 30
0.0
 70
   128
 71
   111
 72
   94
 73
   100
  0
VERTEX
  8
bark
 10
0.0
 20
0.0
 30
0.0
 70
   128
 71
   94
 72
   91
 73
   95
  0
VERTEX
  8
bark
 10
0.0
 20
0.0
 30
0.0
 70
   128
 71
   95
 72
   96
 73
   102
  0
VERTEX
  8
bark
 10
0.0
 20
0.0
 30
0.0
 70
   128
 71
   96
 72
   97
 73
   103
  0
VERTEX
  8
bark
 10
0.0
 20
0.0
 30
0.0
 70
   128
 71
   97
 72
   98
 73
   104
  0
VERTEX
  8
bark
 10
0.0
 20
0.0
 30
0.0
 70
   128
 71
   98
 72
   99
 73
   105
  0
VERTEX
  8
bark
 10
0.0
 20
0.0
 30
0.0
 70
   128
 71
   99
 72
   100
 73
   106
  0
VERTEX
  8
bark
 10
0.0
 20
0.0
 30
0.0
 70
   128
 71
   100
 72
   95
 73
   101
  0
VERTEX
  8
bark
 10
0.0
 20
0.0
 30
0.0
 70
   128
 71
   101
 72
   102
 73
   112
  0
VERTEX
  8
bark
 10
0.0
 20
0.0
 30
0.0
 70
   128
 71
   102
 72
   103
 73
   113
  0
VERTEX
  8
bark
 10
0.0
 20
0.0
 30
0.0
 70
   128
 71
   103
 72
   104
 73
   114
  0
VERTEX
  8
bark
 10
0.0
 20
0.0
 30
0.0
 70
   128
 71
   104
 72
   105
 73
   108
  0
VERTEX
  8
bark
 10
0.0
 20
0.0
 30
0.0
 70
   128
 71
   105
 72
   106
 73
   109
  0
VERTEX
  8
bark
 10
0.0
 20
0.0
 30
0.0
 70
   128
 71
   106
 72
   101
 73
   107
  0
VERTEX
  8
bark
 10
0.0
 20
0.0
 30
0.0
 70
   128
 71
   94
 72
   111
 73
   91
  0
VERTEX
  8
bark
 10
0.0
 20
0.0
 30
0.0
 70
   128
 71
   111
 72
   93
 73
   91
  0
VERTEX
  8
bark
 10
0.0
 20
0.0
 30
0.0
 70
   128
 71
   93
 72
   110
 73
   92
  0
VERTEX
  8
bark
 10
0.0
 20
0.0
 30
0.0
 70
   128
 71
   93
 72
   92
 73
   91
  0
VERTEX
  8
bark
 10
0.0
 20
0.0
 30
0.0
 70
   128
 71
   107
 72
   112
 73
   113
  0
VERTEX
  8
bark
 10
0.0
 20
0.0
 30
0.0
 70
   128
 71
   107
 72
   113
 73
   114
  0
VERTEX
  8
bark
 10
0.0
 20
0.0
 30
0.0
 70
   128
 71
   107
 72
   114
 73
   109
  0
VERTEX
  8
bark
 10
0.0
 20
0.0
 30
0.0
 70
   128
 71
   114
 72
   108
 73
   109
  0
VERTEX
  8
bark
 10
0.0
 20
0.0
 30
0.0
 70
   128
 71
   25
 72
   5
 73
   4
  0
VERTEX
  8
bark
 10
0.0
 20
0.0
 30
0.0
 70
   128
 71
   1
 72
   6
 73
   5
  0
VERTEX
  8
bark
 10
0.0
 20
0.0
 30
0.0
 70
   128
 71
   26
 72
   7
 73
   6
  0
VERTEX
  8
bark
 10
0.0
 20
0.0
 30
0.0
 70
   128
 71
   2
 72
   8
 73
   7
  0
VERTEX
  8
bark
 10
0.0
 20
0.0
 30
0.0
 70
   128
 71
   3
 72
   9
 73
   8
  0
VERTEX
  8
bark
 10
0.0
 20
0.0
 30
0.0
 70
   128
 71
   27
 72
   4
 73
   9
  0
VERTEX
  8
bark
 10
0.0
 20
0.0
 30
0.0
 70
   128
 71
   4
 72
   11
 73
   10
  0
VERTEX
  8
bark
 10
0.0
 20
0.0
 30
0.0
 70
   128
 71
   5
 72
   12
 73
   11
  0
VERTEX
  8
bark
 10
0.0
 20
0.0
 30
0.0
 70
   128
 71
   6
 72
   13
 73
   12
  0
VERTEX
  8
bark
 10
0.0
 20
0.0
 30
0.0
 70
   128
 71
   7
 72
   14
 73
   13
  0
VERTEX
  8
bark
 10
0.0
 20
0.0
 30
0.0
 70
   128
 71
   8
 72
   15
 73
   14
  0
VERTEX
  8
bark
 10
0.0
 20
0.0
 30
0.0
 70
   128
 71
   9
 72
   10
 73
   15
  0
VERTEX
  8
bark
 10
0.0
 20
0.0
 30
0.0
 70
   128
 71
   10
 72
   17
 73
   16
  0
VERTEX
  8
bark
 10
0.0
 20
0.0
 30
0.0
 70
   128
 71
   11
 72
   18
 73
   17
  0
VERTEX
  8
bark
 10
0.0
 20
0.0
 30
0.0
 70
   128
 71
   12
 72
   19
 73
   18
  0
VERTEX
  8
bark
 10
0.0
 20
0.0
 30
0.0
 70
   128
 71
   13
 72
   20
 73
   19
  0
VERTEX
  8
bark
 10
0.0
 20
0.0
 30
0.0
 70
   128
 71
   14
 72
   21
 73
   20
  0
VERTEX
  8
bark
 10
0.0
 20
0.0
 30
0.0
 70
   128
 71
   15
 72
   16
 73
   21
  0
VERTEX
  8
bark
 10
0.0
 20
0.0
 30
0.0
 70
   128
 71
   16
 72
   29
 73
   28
  0
VERTEX
  8
bark
 10
0.0
 20
0.0
 30
0.0
 70
   128
 71
   17
 72
   22
 73
   29
  0
VERTEX
  8
bark
 10
0.0
 20
0.0
 30
0.0
 70
   128
 71
   18
 72
   23
 73
   22
  0
VERTEX
  8
bark
 10
0.0
 20
0.0
 30
0.0
 70
   128
 71
   19
 72
   24
 73
   23
  0
VERTEX
  8
bark
 10
0.0
 20
0.0
 30
0.0
 70
   128
 71
   20
 72
   30
 73
   24
  0
VERTEX
  8
bark
 10
0.0
 20
0.0
 30
0.0
 70
   128
 71
   21
 72
   28
 73
   30
  0
VERTEX
  8
bark
 10
0.0
 20
0.0
 30
0.0
 70
   128
 71
   31
 72
   36
 73
   35
  0
VERTEX
  8
bark
 10
0.0
 20
0.0
 30
0.0
 70
   128
 71
   32
 72
   37
 73
   36
  0
VERTEX
  8
bark
 10
0.0
 20
0.0
 30
0.0
 70
   128
 71
   33
 72
   38
 73
   37
  0
VERTEX
  8
bark
 10
0.0
 20
0.0
 30
0.0
 70
   128
 71
   34
 72
   39
 73
   38
  0
VERTEX
  8
bark
 10
0.0
 20
0.0
 30
0.0
 70
   128
 71
   56
 72
   40
 73
   39
  0
VERTEX
  8
bark
 10
0.0
 20
0.0
 30
0.0
 70
   128
 71
   57
 72
   35
 73
   40
  0
VERTEX
  8
bark
 10
0.0
 20
0.0
 30
0.0
 70
   128
 71
   35
 72
   42
 73
   41
  0
VERTEX
  8
bark
 10
0.0
 20
0.0
 30
0.0
 70
   128
 71
   36
 72
   43
 73
   42
  0
VERTEX
  8
bark
 10
0.0
 20
0.0
 30
0.0
 70
   128
 71
   37
 72
   44
 73
   43
  0
VERTEX
  8
bark
 10
0.0
 20
0.0
 30
0.0
 70
   128
 71
   38
 72
   45
 73
   44
  0
VERTEX
  8
bark
 10
0.0
 20
0.0
 30
0.0
 70
   128
 71
   39
 72
   46
 73
   45
  0
VERTEX
  8
bark
 10
0.0
 20
0.0
 30
0.0
 70
   128
 71
   40
 72
   41
 73
   46
  0
VERTEX
  8
bark
 10
0.0
 20
0.0
 30
0.0
 70
   128
 71
   41
 72
   48
 73
   47
  0
VERTEX
  8
bark
 10
0.0
 20
0.0
 30
0.0
 70
   128
 71
   42
 72
   49
 73
   48
  0
VERTEX
  8
bark
 10
0.0
 20
0.0
 30
0.0
 70
   128
 71
   43
 72
   50
 73
   49
  0
VERTEX
  8
bark
 10
0.0
 20
0.0
 30
0.0
 70
   128
 71
   44
 72
   51
 73
   50
  0
VERTEX
  8
bark
 10
0.0
 20
0.0
 30
0.0
 70
   128
 71
   45
 72
   52
 73
   51
  0
VERTEX
  8
bark
 10
0.0
 20
0.0
 30
0.0
 70
   128
 71
   46
 72
   47
 73
   52
  0
VERTEX
  8
bark
 10
0.0
 20
0.0
 30
0.0
 70
   128
 71
   47
 72
   58
 73
   53
  0
VERTEX
  8
bark
 10
0.0
 20
0.0
 30
0.0
 70
   128
 71
   48
 72
   59
 73
   58
  0
VERTEX
  8
bark
 10
0.0
 20
0.0
 30
0.0
 70
   128
 71
   49
 72
   60
 73
   59
  0
VERTEX
  8
bark
 10
0.0
 20
0.0
 30
0.0
 70
   128
 71
   50
 72
   54
 73
   60
  0
VERTEX
  8
bark
 10
0.0
 20
0.0
 30
0.0
 70
   128
 71
   51
 72
   55
 73
   54
  0
VERTEX
  8
bark
 10
0.0
 20
0.0
 30
0.0
 70
   128
 71
   52
 72
   53
 73
   55
  0
VERTEX
  8
bark
 10
0.0
 20
0.0
 30
0.0
 70
   128
 71
   61
 72
   65
 73
   64
  0
VERTEX
  8
bark
 10
0.0
 20
0.0
 30
0.0
 70
   128
 71
   85
 72
   66
 73
   65
  0
VERTEX
  8
bark
 10
0.0
 20
0.0
 30
0.0
 70
   128
 71
   86
 72
   67
 73
   66
  0
VERTEX
  8
bark
 10
0.0
 20
0.0
 30
0.0
 70
   128
 71
   62
 72
   68
 73
   67
  0
VERTEX
  8
bark
 10
0.0
 20
0.0
 30
0.0
 70
   128
 71
   87
 72
   69
 73
   68
  0
VERTEX
  8
bark
 10
0.0
 20
0.0
 30
0.0
 70
   128
 71
   63
 72
   64
 73
   69
  0
VERTEX
  8
bark
 10
0.0
 20
0.0
 30
0.0
 70
   128
 71
   64
 72
   71
 73
   70
  0
VERTEX
  8
bark
 10
0.0
 20
0.0
 30
0.0
 70
   128
 71
   65
 72
   72
 73
   71
  0
VERTEX
  8
bark
 10
0.0
 20
0.0
 30
0.0
 70
   128
 71
   66
 72
   73
 73
   72
  0
VERTEX
  8
bark
 10
0.0
 20
0.0
 30
0.0
 70
   128
 71
   67
 72
   74
 73
   73
  0
VERTEX
  8
bark
 10
0.0
 20
0.0
 30
0.0
 70
   128
 71
   68
 72
   75
 73
   74
  0
VERTEX
  8
bark
 10
0.0
 20
0.0
 30
0.0
 70
   128
 71
   69
 72
   70
 73
   75
  0
VERTEX
  8
bark
 10
0.0
 20
0.0
 30
0.0
 70
   128
 71
   70
 72
   77
 73
   76
  0
VERTEX
  8
bark
 10
0.0
 20
0.0
 30
0.0
 70
   128
 71
   71
 72
   78
 73
   77
  0
VERTEX
  8
bark
 10
0.0
 20
0.0
 30
0.0
 70
   128
 71
   72
 72
   79
 73
   78
  0
VERTEX
  8
bark
 10
0.0
 20
0.0
 30
0.0
 70
   128
 71
   73
 72
   80
 73
   79
  0
VERTEX
  8
bark
 10
0.0
 20
0.0
 30
0.0
 70
   128
 71
   74
 72
   81
 73
   80
  0
VERTEX
  8
bark
 10
0.0
 20
0.0
 30
0.0
 70
   128
 71
   75
 72
   76
 73
   81
  0
VERTEX
  8
bark
 10
0.0
 20
0.0
 30
0.0
 70
   128
 71
   76
 72
   82
 73
   88
  0
VERTEX
  8
bark
 10
0.0
 20
0.0
 30
0.0
 70
   128
 71
   77
 72
   89
 73
   82
  0
VERTEX
  8
bark
 10
0.0
 20
0.0
 30
0.0
 70
   128
 71
   78
 72
   83
 73
   89
  0
VERTEX
  8
bark
 10
0.0
 20
0.0
 30
0.0
 70
   128
 71
   79
 72
   84
 73
   83
  0
VERTEX
  8
bark
 10
0.0
 20
0.0
 30
0.0
 70
   128
 71
   80
 72
   90
 73
   84
  0
VERTEX
  8
bark
 10
0.0
 20
0.0
 30
0.0
 70
   128
 71
   81
 72
   88
 73
   90
  0
VERTEX
  8
bark
 10
0.0
 20
0.0
 30
0.0
 70
   128
 71
   91
 72
   96
 73
   95
  0
VERTEX
  8
bark
 10
0.0
 20
0.0
 30
0.0
 70
   128
 71
   92
 72
   97
 73
   96
  0
VERTEX
  8
bark
 10
0.0
 20
0.0
 30
0.0
 70
   128
 71
   110
 72
   98
 73
   97
  0
VERTEX
  8
bark
 10
0.0
 20
0.0
 30
0.0
 70
   128
 71
   93
 72
   99
 73
   98
  0
VERTEX
  8
bark
 10
0.0
 20
0.0
 30
0.0
 70
   128
 71
   111
 72
   100
 73
   99
  0
VERTEX
  8
bark
 10
0.0
 20
0.0
 30
0.0
 70
   128
 71
   94
 72
   95
 73
   100
  0
VERTEX
  8
bark
 10
0.0
 20
0.0
 30
0.0
 70
   128
 71
   95
 72
   102
 73
   101
  0
VERTEX
  8
bark
 10
0.0
 20
0.0
 30
0.0
 70
   128
 71
   96
 72
   103
 73
   102
  0
VERTEX
  8
bark
 10
0.0
 20
0.0
 30
0.0
 70
   128
 71
   97
 72
   104
 73
   103
  0
VERTEX
  8
bark
 10
0.0
 20
0.0
 30
0.0
 70
   128
 71
   98
 72
   105
 73
   104
  0
VERTEX
  8
bark
 10
0.0
 20
0.0
 30
0.0
 70
   128
 71
   99
 72
   106
 73
   105
  0
VERTEX
  8
bark
 10
0.0
 20
0.0
 30
0.0
 70
   128
 71
   100
 72
   101
 73
   106
  0
VERTEX
  8
bark
 10
0.0
 20
0.0
 30
0.0
 70
   128
 71
   101
 72
   112
 73
   107
  0
VERTEX
  8
bark
 10
0.0
 20
0.0
 30
0.0
 70
   128
 71
   102
 72
   113
 73
   112
  0
VERTEX
  8
bark
 10
0.0
 20
0.0
 30
0.0
 70
   128
 71
   103
 72
   114
 73
   113
  0
VERTEX
  8
bark
 10
0.0
 20
0.0
 30
0.0
 70
   128
 71
   104
 72
   108
 73
   114
  0
VERTEX
  8
bark
 10
0.0
 20
0.0
 30
0.0
 70
   128
 71
   105
 72
   109
 73
   108
  0
VERTEX
  8
bark
 10
0.0
 20
0.0
 30
0.0
 70
   128
 71
   106
 72
   107
 73
   109
  0
SEQEND
  0
ENDSEC
  0
EOF
