999
FBX AutoCAD (*.DXF) exporter
  0
SECTION
  2
HEADER
  9
$ACADVER
  1
AC1008
  9
$UCSORG
 10
0.0
 20
0.0
 30
0.0
  9
$UCSXDIR
 10
1.0
 20
0.0
 30
0.0
  9
$TILEMODE
 70
   1
  9
$UCSYDIR
 10
0.0
 20
1.0
 30
0.0
  0
ENDSEC
  0
SECTION
  2
TABLES
  0
TABLE
  2
LTYPE
 70
   1
  0
LTYPE
  2
CONTINUOUS
 70
   64
  3
Solid line
 72
   65
 73
   0
 40
0.0
  0
ENDTAB
  0
TABLE
  2
LAYER
 70
   1
  0
LAYER
  2
fence16
 70
   0
 62
   250
  6
CONTINUOUS
  0
ENDTAB
  0
ENDSEC
  0
SECTION
  2
BLOCKS
  0
ENDSEC
  0
SECTION
  2
ENTITIES
  0
POLYLINE
  8
fence16
 66
   1
 10
0.0
 20
0.0
 30
0.0
 70
   64
 71
   112
 72
   204
  0
VERTEX
  8
fence16
 10
78.574459
 20
-18.869422
 30
-1.672663
 70
   192
  0
VERTEX
  8
fence16
 10
73.678615
 20
93.981243
 30
-3.488791
 70
   192
  0
VERTEX
  8
fence16
 10
74.320015
 20
-18.869422
 30
9.796298
 70
   192
  0
VERTEX
  8
fence16
 10
69.424172
 20
93.981243
 30
7.980170
 70
   192
  0
VERTEX
  8
fence16
 10
80.618354
 20
-18.586710
 30
10.384696
 70
   192
  0
VERTEX
  8
fence16
 10
75.722510
 20
94.263955
 30
8.568569
 70
   192
  0
VERTEX
  8
fence16
 10
86.369032
 20
-18.379750
 30
7.742335
 70
   192
  0
VERTEX
  8
fence16
 10
81.473189
 20
94.470915
 30
5.926208
 70
   192
  0
VERTEX
  8
fence16
 10
90.031161
 20
-18.303997
 30
2.577233
 70
   192
  0
VERTEX
  8
fence16
 10
85.135318
 20
94.546668
 30
0.761106
 70
   192
  0
VERTEX
  8
fence16
 10
90.623476
 20
-18.379750
 30
-3.726626
 70
   192
  0
VERTEX
  8
fence16
 10
85.727632
 20
94.470915
 30
-5.542753
 70
   192
  0
VERTEX
  8
fence16
 10
87.987266
 20
-18.586710
 30
-9.480127
 70
   192
  0
VERTEX
  8
fence16
 10
83.091423
 20
94.263955
 30
-11.296254
 70
   192
  0
VERTEX
  8
fence16
 10
82.828903
 20
-18.869422
 30
-13.141624
 70
   192
  0
VERTEX
  8
fence16
 10
77.933059
 20
93.981243
 30
-14.957751
 70
   192
  0
VERTEX
  8
fence16
 10
76.530564
 20
-19.152135
 30
-13.730023
 70
   192
  0
VERTEX
  8
fence16
 10
71.634720
 20
93.698531
 30
-15.546150
 70
   192
  0
VERTEX
  8
fence16
 10
70.779885
 20
-19.359094
 30
-11.087662
 70
   192
  0
VERTEX
  8
fence16
 10
65.884042
 20
93.491571
 30
-12.903789
 70
   192
  0
VERTEX
  8
fence16
 10
67.117756
 20
-19.434847
 30
-5.922560
 70
   192
  0
VERTEX
  8
fence16
 10
62.221913
 20
93.415818
 30
-7.738687
 70
   192
  0
VERTEX
  8
fence16
 10
66.525442
 20
-19.359094
 30
0.381299
 70
   192
  0
VERTEX
  8
fence16
 10
61.629598
 20
93.491571
 30
-1.434828
 70
   192
  0
VERTEX
  8
fence16
 10
69.161651
 20
-19.152135
 30
6.134800
 70
   192
  0
VERTEX
  8
fence16
 10
64.265808
 20
93.698531
 30
4.318673
 70
   192
  0
VERTEX
  8
fence16
 10
72.718385
 20
4.323148
 30
6.151404
 70
   192
  0
VERTEX
  8
fence16
 10
79.016723
 20
4.605860
 30
6.739803
 70
   192
  0
VERTEX
  8
fence16
 10
84.767402
 20
4.812820
 30
4.097442
 70
   192
  0
VERTEX
  8
fence16
 10
88.429531
 20
4.888573
 30
-1.067660
 70
   192
  0
VERTEX
  8
fence16
 10
89.021846
 20
4.812820
 30
-7.371519
 70
   192
  0
VERTEX
  8
fence16
 10
86.385636
 20
4.605860
 30
-13.125020
 70
   192
  0
VERTEX
  8
fence16
 10
81.227272
 20
4.323148
 30
-16.786518
 70
   192
  0
VERTEX
  8
fence16
 10
74.928934
 20
4.040436
 30
-17.374916
 70
   192
  0
VERTEX
  8
fence16
 10
69.178255
 20
3.833476
 30
-14.732555
 70
   192
  0
VERTEX
  8
fence16
 10
65.516126
 20
3.757723
 30
-9.567453
 70
   192
  0
VERTEX
  8
fence16
 10
64.923811
 20
3.833476
 30
-3.263594
 70
   192
  0
VERTEX
  8
fence16
 10
67.560021
 20
4.040436
 30
2.489907
 70
   192
  0
VERTEX
  8
fence16
 10
73.061061
 20
61.686191
 30
7.543186
 70
   192
  0
VERTEX
  8
fence16
 10
79.368693
 20
61.754702
 30
8.135032
 70
   192
  0
VERTEX
  8
fence16
 10
85.144760
 20
61.376452
 30
5.502089
 70
   192
  0
VERTEX
  8
fence16
 10
88.841570
 20
60.652795
 30
0.349851
 70
   192
  0
VERTEX
  8
fence16
 10
89.468566
 20
59.777631
 30
-5.941142
 70
   192
  0
VERTEX
  8
fence16
 10
86.857744
 20
58.985462
 30
-11.685225
 70
   192
  0
VERTEX
  8
fence16
 10
81.708673
 20
58.488549
 30
-15.343276
 70
   192
  0
VERTEX
  8
fence16
 10
75.401042
 20
58.420038
 30
-15.935122
 70
   192
  0
VERTEX
  8
fence16
 10
69.624975
 20
58.798287
 30
-13.302179
 70
   192
  0
VERTEX
  8
fence16
 10
65.928165
 20
59.521945
 30
-8.149941
 70
   192
  0
VERTEX
  8
fence16
 10
65.301169
 20
60.397108
 30
-1.858948
 70
   192
  0
VERTEX
  8
fence16
 10
67.911990
 20
61.189277
 30
3.885135
 70
   192
  0
VERTEX
  8
fence16
 10
-67.549420
 20
-18.929796
 30
-2.580727
 70
   192
  0
VERTEX
  8
fence16
 10
-67.549420
 20
94.041617
 30
-2.580727
 70
   192
  0
VERTEX
  8
fence16
 10
-55.794743
 20
-18.929796
 30
0.805262
 70
   192
  0
VERTEX
  8
fence16
 10
-55.794743
 20
94.041617
 30
0.805262
 70
   192
  0
VERTEX
  8
fence16
 10
-55.676577
 20
-18.929796
 30
-5.525713
 70
   192
  0
VERTEX
  8
fence16
 10
-55.676577
 20
94.041617
 30
-5.525713
 70
   192
  0
VERTEX
  8
fence16
 10
-58.739729
 20
-18.929796
 30
-11.067581
 70
   192
  0
VERTEX
  8
fence16
 10
-58.739729
 20
94.041617
 30
-11.067581
 70
   192
  0
VERTEX
  8
fence16
 10
-64.163431
 20
-18.929796
 30
-14.335404
 70
   192
  0
VERTEX
  8
fence16
 10
-64.163431
 20
94.041617
 30
-14.335404
 70
   192
  0
VERTEX
  8
fence16
 10
-70.494406
 20
-18.929796
 30
-14.453571
 70
   192
  0
VERTEX
  8
fence16
 10
-70.494406
 20
94.041617
 30
-14.453571
 70
   192
  0
VERTEX
  8
fence16
 10
-76.036274
 20
-18.929796
 30
-11.390418
 70
   192
  0
VERTEX
  8
fence16
 10
-76.036274
 20
94.041617
 30
-11.390418
 70
   192
  0
VERTEX
  8
fence16
 10
-79.304097
 20
-18.929796
 30
-5.966716
 70
   192
  0
VERTEX
  8
fence16
 10
-79.304097
 20
94.041617
 30
-5.966716
 70
   192
  0
VERTEX
  8
fence16
 10
-79.422264
 20
-18.929796
 30
0.364259
 70
   192
  0
VERTEX
  8
fence16
 10
-79.422264
 20
94.041617
 30
0.364259
 70
   192
  0
VERTEX
  8
fence16
 10
-76.359111
 20
-18.929796
 30
5.906127
 70
   192
  0
VERTEX
  8
fence16
 10
-76.359111
 20
94.041617
 30
5.906127
 70
   192
  0
VERTEX
  8
fence16
 10
-70.935410
 20
-18.929796
 30
9.173950
 70
   192
  0
VERTEX
  8
fence16
 10
-70.935410
 20
94.041617
 30
9.173950
 70
   192
  0
VERTEX
  8
fence16
 10
-64.604434
 20
-18.929796
 30
9.292117
 70
   192
  0
VERTEX
  8
fence16
 10
-64.604434
 20
94.041617
 30
9.292117
 70
   192
  0
VERTEX
  8
fence16
 10
-59.062566
 20
-18.929796
 30
6.228964
 70
   192
  0
VERTEX
  8
fence16
 10
-59.062566
 20
94.041617
 30
6.228964
 70
   192
  0
VERTEX
  8
fence16
 10
-56.344133
 20
23.607834
 30
-0.243262
 70
   192
  0
VERTEX
  8
fence16
 10
-56.225966
 20
23.607834
 30
-6.574237
 70
   192
  0
VERTEX
  8
fence16
 10
-59.289119
 20
23.607834
 30
-12.116106
 70
   192
  0
VERTEX
  8
fence16
 10
-64.712820
 20
23.607834
 30
-15.383929
 70
   192
  0
VERTEX
  8
fence16
 10
-71.043796
 20
23.607834
 30
-15.502095
 70
   192
  0
VERTEX
  8
fence16
 10
-76.585664
 20
23.607834
 30
-12.438943
 70
   192
  0
VERTEX
  8
fence16
 10
-79.853487
 20
23.607834
 30
-7.015241
 70
   192
  0
VERTEX
  8
fence16
 10
-79.971653
 20
23.607834
 30
-0.684266
 70
   192
  0
VERTEX
  8
fence16
 10
-76.908501
 20
23.607834
 30
4.857603
 70
   192
  0
VERTEX
  8
fence16
 10
-71.484799
 20
23.607834
 30
8.125425
 70
   192
  0
VERTEX
  8
fence16
 10
-65.153824
 20
23.607834
 30
8.243592
 70
   192
  0
VERTEX
  8
fence16
 10
-59.611956
 20
23.607834
 30
5.180440
 70
   192
  0
VERTEX
  8
fence16
 10
-54.484430
 20
60.955343
 30
1.182704
 70
   192
  0
VERTEX
  8
fence16
 10
-54.366264
 20
60.740913
 30
-5.148271
 70
   192
  0
VERTEX
  8
fence16
 10
-57.429416
 20
60.155078
 30
-10.690140
 70
   192
  0
VERTEX
  8
fence16
 10
-62.853118
 20
59.354812
 30
-13.957962
 70
   192
  0
VERTEX
  8
fence16
 10
-69.184093
 20
58.554546
 30
-14.076129
 70
   192
  0
VERTEX
  8
fence16
 10
-74.725962
 20
57.968711
 30
-11.012977
 70
   192
  0
VERTEX
  8
fence16
 10
-77.993784
 20
57.754280
 30
-5.589275
 70
   192
  0
VERTEX
  8
fence16
 10
-78.111951
 20
57.968711
 30
0.741700
 70
   192
  0
VERTEX
  8
fence16
 10
-75.048799
 20
58.554546
 30
6.283569
 70
   192
  0
VERTEX
  8
fence16
 10
-69.625097
 20
59.354812
 30
9.551392
 70
   192
  0
VERTEX
  8
fence16
 10
-63.294122
 20
60.155078
 30
9.669558
 70
   192
  0
VERTEX
  8
fence16
 10
-57.752253
 20
60.740913
 30
6.606406
 70
   192
  0
VERTEX
  8
fence16
 10
-73.106730
 20
5.181993
 30
11.474308
 70
   192
  0
VERTEX
  8
fence16
 10
95.132484
 20
27.570108
 30
13.484550
 70
   192
  0
VERTEX
  8
fence16
 10
-75.457761
 20
23.027593
 30
9.487628
 70
   192
  0
VERTEX
  8
fence16
 10
92.781453
 20
45.415707
 30
11.497870
 70
   192
  0
VERTEX
  8
fence16
 10
-75.327597
 20
22.493813
 30
4.538842
 70
   192
  0
VERTEX
  8
fence16
 10
92.911617
 20
44.881927
 30
6.549084
 70
   192
  0
VERTEX
  8
fence16
 10
-72.976566
 20
4.648213
 30
6.525522
 70
   192
  0
VERTEX
  8
fence16
 10
95.262648
 20
27.036327
 30
8.535764
 70
   192
  0
VERTEX
  8
fence16
 10
-56.049585
 20
7.451841
 30
11.678119
 70
   192
  0
VERTEX
  8
fence16
 10
-58.400616
 20
25.297441
 30
9.691439
 70
   192
  0
VERTEX
  8
fence16
 10
77.110733
 20
25.171897
 30
13.269214
 70
   192
  0
VERTEX
  8
fence16
 10
74.759702
 20
43.017497
 30
11.282534
 70
   192
  0
VERTEX
  8
fence16
 10
0.0
 20
0.0
 30
0.0
 70
   128
 71
   27
 72
   39
 73
   40
  0
VERTEX
  8
fence16
 10
0.0
 20
0.0
 30
0.0
 70
   128
 71
   3
 72
   27
 73
   28
  0
VERTEX
  8
fence16
 10
0.0
 20
0.0
 30
0.0
 70
   128
 71
   29
 72
   7
 73
   5
  0
VERTEX
  8
fence16
 10
0.0
 20
0.0
 30
0.0
 70
   128
 71
   29
 72
   41
 73
   42
  0
VERTEX
  8
fence16
 10
0.0
 20
0.0
 30
0.0
 70
   128
 71
   40
 72
   6
 73
   8
  0
VERTEX
  8
fence16
 10
0.0
 20
0.0
 30
0.0
 70
   128
 71
   31
 72
   11
 73
   9
  0
VERTEX
  8
fence16
 10
0.0
 20
0.0
 30
0.0
 70
   128
 71
   31
 72
   43
 73
   44
  0
VERTEX
  8
fence16
 10
0.0
 20
0.0
 30
0.0
 70
   128
 71
   7
 72
   29
 73
   30
  0
VERTEX
  8
fence16
 10
0.0
 20
0.0
 30
0.0
 70
   128
 71
   33
 72
   15
 73
   13
  0
VERTEX
  8
fence16
 10
0.0
 20
0.0
 30
0.0
 70
   128
 71
   33
 72
   45
 73
   46
  0
VERTEX
  8
fence16
 10
0.0
 20
0.0
 30
0.0
 70
   128
 71
   30
 72
   42
 73
   43
  0
VERTEX
  8
fence16
 10
0.0
 20
0.0
 30
0.0
 70
   128
 71
   35
 72
   19
 73
   17
  0
VERTEX
  8
fence16
 10
0.0
 20
0.0
 30
0.0
 70
   128
 71
   35
 72
   47
 73
   48
  0
VERTEX
  8
fence16
 10
0.0
 20
0.0
 30
0.0
 70
   128
 71
   11
 72
   31
 73
   32
  0
VERTEX
  8
fence16
 10
0.0
 20
0.0
 30
0.0
 70
   128
 71
   37
 72
   23
 73
   21
  0
VERTEX
  8
fence16
 10
0.0
 20
0.0
 30
0.0
 70
   128
 71
   37
 72
   49
 73
   50
  0
VERTEX
  8
fence16
 10
0.0
 20
0.0
 30
0.0
 70
   128
 71
   32
 72
   44
 73
   45
  0
VERTEX
  8
fence16
 10
0.0
 20
0.0
 30
0.0
 70
   128
 71
   27
 72
   3
 73
   25
  0
VERTEX
  8
fence16
 10
0.0
 20
0.0
 30
0.0
 70
   128
 71
   41
 72
   29
 73
   28
  0
VERTEX
  8
fence16
 10
0.0
 20
0.0
 30
0.0
 70
   128
 71
   15
 72
   33
 73
   34
  0
VERTEX
  8
fence16
 10
0.0
 20
0.0
 30
0.0
 70
   128
 71
   42
 72
   10
 73
   12
  0
VERTEX
  8
fence16
 10
0.0
 20
0.0
 30
0.0
 70
   128
 71
   44
 72
   14
 73
   16
  0
VERTEX
  8
fence16
 10
0.0
 20
0.0
 30
0.0
 70
   128
 71
   34
 72
   46
 73
   47
  0
VERTEX
  8
fence16
 10
0.0
 20
0.0
 30
0.0
 70
   128
 71
   46
 72
   18
 73
   20
  0
VERTEX
  8
fence16
 10
0.0
 20
0.0
 30
0.0
 70
   128
 71
   48
 72
   22
 73
   24
  0
VERTEX
  8
fence16
 10
0.0
 20
0.0
 30
0.0
 70
   128
 71
   19
 72
   35
 73
   36
  0
VERTEX
  8
fence16
 10
0.0
 20
0.0
 30
0.0
 70
   128
 71
   50
 72
   26
 73
   4
  0
VERTEX
  8
fence16
 10
0.0
 20
0.0
 30
0.0
 70
   128
 71
   39
 72
   4
 73
   6
  0
VERTEX
  8
fence16
 10
0.0
 20
0.0
 30
0.0
 70
   128
 71
   36
 72
   48
 73
   49
  0
VERTEX
  8
fence16
 10
0.0
 20
0.0
 30
0.0
 70
   128
 71
   41
 72
   8
 73
   10
  0
VERTEX
  8
fence16
 10
0.0
 20
0.0
 30
0.0
 70
   128
 71
   43
 72
   12
 73
   14
  0
VERTEX
  8
fence16
 10
0.0
 20
0.0
 30
0.0
 70
   128
 71
   23
 72
   37
 73
   38
  0
VERTEX
  8
fence16
 10
0.0
 20
0.0
 30
0.0
 70
   128
 71
   45
 72
   16
 73
   18
  0
VERTEX
  8
fence16
 10
0.0
 20
0.0
 30
0.0
 70
   128
 71
   47
 72
   20
 73
   22
  0
VERTEX
  8
fence16
 10
0.0
 20
0.0
 30
0.0
 70
   128
 71
   38
 72
   50
 73
   39
  0
VERTEX
  8
fence16
 10
0.0
 20
0.0
 30
0.0
 70
   128
 71
   49
 72
   24
 73
   26
  0
VERTEX
  8
fence16
 10
0.0
 20
0.0
 30
0.0
 70
   128
 71
   7
 72
   25
 73
   3
  0
VERTEX
  8
fence16
 10
0.0
 20
0.0
 30
0.0
 70
   128
 71
   19
 72
   25
 73
   7
  0
VERTEX
  8
fence16
 10
0.0
 20
0.0
 30
0.0
 70
   128
 71
   25
 72
   19
 73
   21
  0
VERTEX
  8
fence16
 10
0.0
 20
0.0
 30
0.0
 70
   128
 71
   9
 72
   11
 73
   13
  0
VERTEX
  8
fence16
 10
0.0
 20
0.0
 30
0.0
 70
   128
 71
   9
 72
   13
 73
   15
  0
VERTEX
  8
fence16
 10
0.0
 20
0.0
 30
0.0
 70
   128
 71
   15
 72
   17
 73
   19
  0
VERTEX
  8
fence16
 10
0.0
 20
0.0
 30
0.0
 70
   128
 71
   24
 72
   20
 73
   18
  0
VERTEX
  8
fence16
 10
0.0
 20
0.0
 30
0.0
 70
   128
 71
   24
 72
   22
 73
   20
  0
VERTEX
  8
fence16
 10
0.0
 20
0.0
 30
0.0
 70
   128
 71
   12
 72
   18
 73
   16
  0
VERTEX
  8
fence16
 10
0.0
 20
0.0
 30
0.0
 70
   128
 71
   26
 72
   18
 73
   12
  0
VERTEX
  8
fence16
 10
0.0
 20
0.0
 30
0.0
 70
   128
 71
   12
 72
   10
 73
   8
  0
VERTEX
  8
fence16
 10
0.0
 20
0.0
 30
0.0
 70
   128
 71
   6
 72
   4
 73
   26
  0
VERTEX
  8
fence16
 10
0.0
 20
0.0
 30
0.0
 70
   128
 71
   77
 72
   89
 73
   90
  0
VERTEX
  8
fence16
 10
0.0
 20
0.0
 30
0.0
 70
   128
 71
   53
 72
   77
 73
   78
  0
VERTEX
  8
fence16
 10
0.0
 20
0.0
 30
0.0
 70
   128
 71
   79
 72
   57
 73
   55
  0
VERTEX
  8
fence16
 10
0.0
 20
0.0
 30
0.0
 70
   128
 71
   79
 72
   91
 73
   92
  0
VERTEX
  8
fence16
 10
0.0
 20
0.0
 30
0.0
 70
   128
 71
   90
 72
   56
 73
   58
  0
VERTEX
  8
fence16
 10
0.0
 20
0.0
 30
0.0
 70
   128
 71
   81
 72
   61
 73
   59
  0
VERTEX
  8
fence16
 10
0.0
 20
0.0
 30
0.0
 70
   128
 71
   81
 72
   93
 73
   94
  0
VERTEX
  8
fence16
 10
0.0
 20
0.0
 30
0.0
 70
   128
 71
   57
 72
   79
 73
   80
  0
VERTEX
  8
fence16
 10
0.0
 20
0.0
 30
0.0
 70
   128
 71
   83
 72
   65
 73
   63
  0
VERTEX
  8
fence16
 10
0.0
 20
0.0
 30
0.0
 70
   128
 71
   83
 72
   95
 73
   96
  0
VERTEX
  8
fence16
 10
0.0
 20
0.0
 30
0.0
 70
   128
 71
   80
 72
   92
 73
   93
  0
VERTEX
  8
fence16
 10
0.0
 20
0.0
 30
0.0
 70
   128
 71
   85
 72
   69
 73
   67
  0
VERTEX
  8
fence16
 10
0.0
 20
0.0
 30
0.0
 70
   128
 71
   85
 72
   97
 73
   98
  0
VERTEX
  8
fence16
 10
0.0
 20
0.0
 30
0.0
 70
   128
 71
   61
 72
   81
 73
   82
  0
VERTEX
  8
fence16
 10
0.0
 20
0.0
 30
0.0
 70
   128
 71
   87
 72
   73
 73
   71
  0
VERTEX
  8
fence16
 10
0.0
 20
0.0
 30
0.0
 70
   128
 71
   87
 72
   99
 73
   100
  0
VERTEX
  8
fence16
 10
0.0
 20
0.0
 30
0.0
 70
   128
 71
   82
 72
   94
 73
   95
  0
VERTEX
  8
fence16
 10
0.0
 20
0.0
 30
0.0
 70
   128
 71
   77
 72
   53
 73
   75
  0
VERTEX
  8
fence16
 10
0.0
 20
0.0
 30
0.0
 70
   128
 71
   91
 72
   79
 73
   78
  0
VERTEX
  8
fence16
 10
0.0
 20
0.0
 30
0.0
 70
   128
 71
   65
 72
   83
 73
   84
  0
VERTEX
  8
fence16
 10
0.0
 20
0.0
 30
0.0
 70
   128
 71
   92
 72
   60
 73
   62
  0
VERTEX
  8
fence16
 10
0.0
 20
0.0
 30
0.0
 70
   128
 71
   94
 72
   64
 73
   66
  0
VERTEX
  8
fence16
 10
0.0
 20
0.0
 30
0.0
 70
   128
 71
   84
 72
   96
 73
   97
  0
VERTEX
  8
fence16
 10
0.0
 20
0.0
 30
0.0
 70
   128
 71
   96
 72
   68
 73
   70
  0
VERTEX
  8
fence16
 10
0.0
 20
0.0
 30
0.0
 70
   128
 71
   98
 72
   72
 73
   74
  0
VERTEX
  8
fence16
 10
0.0
 20
0.0
 30
0.0
 70
   128
 71
   69
 72
   85
 73
   86
  0
VERTEX
  8
fence16
 10
0.0
 20
0.0
 30
0.0
 70
   128
 71
   100
 72
   76
 73
   54
  0
VERTEX
  8
fence16
 10
0.0
 20
0.0
 30
0.0
 70
   128
 71
   89
 72
   54
 73
   56
  0
VERTEX
  8
fence16
 10
0.0
 20
0.0
 30
0.0
 70
   128
 71
   86
 72
   98
 73
   99
  0
VERTEX
  8
fence16
 10
0.0
 20
0.0
 30
0.0
 70
   128
 71
   91
 72
   58
 73
   60
  0
VERTEX
  8
fence16
 10
0.0
 20
0.0
 30
0.0
 70
   128
 71
   93
 72
   62
 73
   64
  0
VERTEX
  8
fence16
 10
0.0
 20
0.0
 30
0.0
 70
   128
 71
   73
 72
   87
 73
   88
  0
VERTEX
  8
fence16
 10
0.0
 20
0.0
 30
0.0
 70
   128
 71
   95
 72
   66
 73
   68
  0
VERTEX
  8
fence16
 10
0.0
 20
0.0
 30
0.0
 70
   128
 71
   97
 72
   70
 73
   72
  0
VERTEX
  8
fence16
 10
0.0
 20
0.0
 30
0.0
 70
   128
 71
   88
 72
   100
 73
   89
  0
VERTEX
  8
fence16
 10
0.0
 20
0.0
 30
0.0
 70
   128
 71
   99
 72
   74
 73
   76
  0
VERTEX
  8
fence16
 10
0.0
 20
0.0
 30
0.0
 70
   128
 71
   57
 72
   75
 73
   53
  0
VERTEX
  8
fence16
 10
0.0
 20
0.0
 30
0.0
 70
   128
 71
   69
 72
   75
 73
   57
  0
VERTEX
  8
fence16
 10
0.0
 20
0.0
 30
0.0
 70
   128
 71
   75
 72
   69
 73
   71
  0
VERTEX
  8
fence16
 10
0.0
 20
0.0
 30
0.0
 70
   128
 71
   59
 72
   61
 73
   63
  0
VERTEX
  8
fence16
 10
0.0
 20
0.0
 30
0.0
 70
   128
 71
   59
 72
   63
 73
   65
  0
VERTEX
  8
fence16
 10
0.0
 20
0.0
 30
0.0
 70
   128
 71
   65
 72
   67
 73
   69
  0
VERTEX
  8
fence16
 10
0.0
 20
0.0
 30
0.0
 70
   128
 71
   74
 72
   70
 73
   68
  0
VERTEX
  8
fence16
 10
0.0
 20
0.0
 30
0.0
 70
   128
 71
   74
 72
   72
 73
   70
  0
VERTEX
  8
fence16
 10
0.0
 20
0.0
 30
0.0
 70
   128
 71
   62
 72
   68
 73
   66
  0
VERTEX
  8
fence16
 10
0.0
 20
0.0
 30
0.0
 70
   128
 71
   76
 72
   68
 73
   62
  0
VERTEX
  8
fence16
 10
0.0
 20
0.0
 30
0.0
 70
   128
 71
   62
 72
   60
 73
   58
  0
VERTEX
  8
fence16
 10
0.0
 20
0.0
 30
0.0
 70
   128
 71
   56
 72
   54
 73
   76
  0
VERTEX
  8
fence16
 10
0.0
 20
0.0
 30
0.0
 70
   128
 71
   107
 72
   101
 73
   109
  0
VERTEX
  8
fence16
 10
0.0
 20
0.0
 30
0.0
 70
   128
 71
   103
 72
   105
 73
   110
  0
VERTEX
  8
fence16
 10
0.0
 20
0.0
 30
0.0
 70
   128
 71
   104
 72
   102
 73
   111
  0
VERTEX
  8
fence16
 10
0.0
 20
0.0
 30
0.0
 70
   128
 71
   106
 72
   108
 73
   102
  0
VERTEX
  8
fence16
 10
0.0
 20
0.0
 30
0.0
 70
   128
 71
   107
 72
   108
 73
   106
  0
VERTEX
  8
fence16
 10
0.0
 20
0.0
 30
0.0
 70
   128
 71
   105
 72
   103
 73
   101
  0
VERTEX
  8
fence16
 10
0.0
 20
0.0
 30
0.0
 70
   128
 71
   107
 72
   109
 73
   111
  0
VERTEX
  8
fence16
 10
0.0
 20
0.0
 30
0.0
 70
   128
 71
   105
 72
   106
 73
   112
  0
VERTEX
  8
fence16
 10
0.0
 20
0.0
 30
0.0
 70
   128
 71
   109
 72
   101
 73
   103
  0
VERTEX
  8
fence16
 10
0.0
 20
0.0
 30
0.0
 70
   128
 71
   111
 72
   102
 73
   108
  0
VERTEX
  8
fence16
 10
0.0
 20
0.0
 30
0.0
 70
   128
 71
   106
 72
   104
 73
   112
  0
VERTEX
  8
fence16
 10
0.0
 20
0.0
 30
0.0
 70
   128
 71
   111
 72
   109
 73
   110
  0
VERTEX
  8
fence16
 10
0.0
 20
0.0
 30
0.0
 70
   128
 71
   27
 72
   40
 73
   28
  0
VERTEX
  8
fence16
 10
0.0
 20
0.0
 30
0.0
 70
   128
 71
   3
 72
   28
 73
   5
  0
VERTEX
  8
fence16
 10
0.0
 20
0.0
 30
0.0
 70
   128
 71
   29
 72
   5
 73
   28
  0
VERTEX
  8
fence16
 10
0.0
 20
0.0
 30
0.0
 70
   128
 71
   29
 72
   42
 73
   30
  0
VERTEX
  8
fence16
 10
0.0
 20
0.0
 30
0.0
 70
   128
 71
   40
 72
   8
 73
   41
  0
VERTEX
  8
fence16
 10
0.0
 20
0.0
 30
0.0
 70
   128
 71
   31
 72
   9
 73
   30
  0
VERTEX
  8
fence16
 10
0.0
 20
0.0
 30
0.0
 70
   128
 71
   31
 72
   44
 73
   32
  0
VERTEX
  8
fence16
 10
0.0
 20
0.0
 30
0.0
 70
   128
 71
   7
 72
   30
 73
   9
  0
VERTEX
  8
fence16
 10
0.0
 20
0.0
 30
0.0
 70
   128
 71
   33
 72
   13
 73
   32
  0
VERTEX
  8
fence16
 10
0.0
 20
0.0
 30
0.0
 70
   128
 71
   33
 72
   46
 73
   34
  0
VERTEX
  8
fence16
 10
0.0
 20
0.0
 30
0.0
 70
   128
 71
   30
 72
   43
 73
   31
  0
VERTEX
  8
fence16
 10
0.0
 20
0.0
 30
0.0
 70
   128
 71
   35
 72
   17
 73
   34
  0
VERTEX
  8
fence16
 10
0.0
 20
0.0
 30
0.0
 70
   128
 71
   35
 72
   48
 73
   36
  0
VERTEX
  8
fence16
 10
0.0
 20
0.0
 30
0.0
 70
   128
 71
   11
 72
   32
 73
   13
  0
VERTEX
  8
fence16
 10
0.0
 20
0.0
 30
0.0
 70
   128
 71
   37
 72
   21
 73
   36
  0
VERTEX
  8
fence16
 10
0.0
 20
0.0
 30
0.0
 70
   128
 71
   37
 72
   50
 73
   38
  0
VERTEX
  8
fence16
 10
0.0
 20
0.0
 30
0.0
 70
   128
 71
   32
 72
   45
 73
   33
  0
VERTEX
  8
fence16
 10
0.0
 20
0.0
 30
0.0
 70
   128
 71
   27
 72
   25
 73
   38
  0
VERTEX
  8
fence16
 10
0.0
 20
0.0
 30
0.0
 70
   128
 71
   41
 72
   28
 73
   40
  0
VERTEX
  8
fence16
 10
0.0
 20
0.0
 30
0.0
 70
   128
 71
   15
 72
   34
 73
   17
  0
VERTEX
  8
fence16
 10
0.0
 20
0.0
 30
0.0
 70
   128
 71
   42
 72
   12
 73
   43
  0
VERTEX
  8
fence16
 10
0.0
 20
0.0
 30
0.0
 70
   128
 71
   44
 72
   16
 73
   45
  0
VERTEX
  8
fence16
 10
0.0
 20
0.0
 30
0.0
 70
   128
 71
   34
 72
   47
 73
   35
  0
VERTEX
  8
fence16
 10
0.0
 20
0.0
 30
0.0
 70
   128
 71
   46
 72
   20
 73
   47
  0
VERTEX
  8
fence16
 10
0.0
 20
0.0
 30
0.0
 70
   128
 71
   48
 72
   24
 73
   49
  0
VERTEX
  8
fence16
 10
0.0
 20
0.0
 30
0.0
 70
   128
 71
   19
 72
   36
 73
   21
  0
VERTEX
  8
fence16
 10
0.0
 20
0.0
 30
0.0
 70
   128
 71
   50
 72
   4
 73
   39
  0
VERTEX
  8
fence16
 10
0.0
 20
0.0
 30
0.0
 70
   128
 71
   39
 72
   6
 73
   40
  0
VERTEX
  8
fence16
 10
0.0
 20
0.0
 30
0.0
 70
   128
 71
   36
 72
   49
 73
   37
  0
VERTEX
  8
fence16
 10
0.0
 20
0.0
 30
0.0
 70
   128
 71
   41
 72
   10
 73
   42
  0
VERTEX
  8
fence16
 10
0.0
 20
0.0
 30
0.0
 70
   128
 71
   43
 72
   14
 73
   44
  0
VERTEX
  8
fence16
 10
0.0
 20
0.0
 30
0.0
 70
   128
 71
   23
 72
   38
 73
   25
  0
VERTEX
  8
fence16
 10
0.0
 20
0.0
 30
0.0
 70
   128
 71
   45
 72
   18
 73
   46
  0
VERTEX
  8
fence16
 10
0.0
 20
0.0
 30
0.0
 70
   128
 71
   47
 72
   22
 73
   48
  0
VERTEX
  8
fence16
 10
0.0
 20
0.0
 30
0.0
 70
   128
 71
   38
 72
   39
 73
   27
  0
VERTEX
  8
fence16
 10
0.0
 20
0.0
 30
0.0
 70
   128
 71
   49
 72
   26
 73
   50
  0
VERTEX
  8
fence16
 10
0.0
 20
0.0
 30
0.0
 70
   128
 71
   7
 72
   3
 73
   5
  0
VERTEX
  8
fence16
 10
0.0
 20
0.0
 30
0.0
 70
   128
 71
   19
 72
   7
 73
   9
  0
VERTEX
  8
fence16
 10
0.0
 20
0.0
 30
0.0
 70
   128
 71
   25
 72
   21
 73
   23
  0
VERTEX
  8
fence16
 10
0.0
 20
0.0
 30
0.0
 70
   128
 71
   9
 72
   15
 73
   19
  0
VERTEX
  8
fence16
 10
0.0
 20
0.0
 30
0.0
 70
   128
 71
   24
 72
   18
 73
   26
  0
VERTEX
  8
fence16
 10
0.0
 20
0.0
 30
0.0
 70
   128
 71
   12
 72
   16
 73
   14
  0
VERTEX
  8
fence16
 10
0.0
 20
0.0
 30
0.0
 70
   128
 71
   26
 72
   12
 73
   6
  0
VERTEX
  8
fence16
 10
0.0
 20
0.0
 30
0.0
 70
   128
 71
   12
 72
   8
 73
   6
  0
VERTEX
  8
fence16
 10
0.0
 20
0.0
 30
0.0
 70
   128
 71
   77
 72
   90
 73
   78
  0
VERTEX
  8
fence16
 10
0.0
 20
0.0
 30
0.0
 70
   128
 71
   53
 72
   78
 73
   55
  0
VERTEX
  8
fence16
 10
0.0
 20
0.0
 30
0.0
 70
   128
 71
   79
 72
   55
 73
   78
  0
VERTEX
  8
fence16
 10
0.0
 20
0.0
 30
0.0
 70
   128
 71
   79
 72
   92
 73
   80
  0
VERTEX
  8
fence16
 10
0.0
 20
0.0
 30
0.0
 70
   128
 71
   90
 72
   58
 73
   91
  0
VERTEX
  8
fence16
 10
0.0
 20
0.0
 30
0.0
 70
   128
 71
   81
 72
   59
 73
   80
  0
VERTEX
  8
fence16
 10
0.0
 20
0.0
 30
0.0
 70
   128
 71
   81
 72
   94
 73
   82
  0
VERTEX
  8
fence16
 10
0.0
 20
0.0
 30
0.0
 70
   128
 71
   57
 72
   80
 73
   59
  0
VERTEX
  8
fence16
 10
0.0
 20
0.0
 30
0.0
 70
   128
 71
   83
 72
   63
 73
   82
  0
VERTEX
  8
fence16
 10
0.0
 20
0.0
 30
0.0
 70
   128
 71
   83
 72
   96
 73
   84
  0
VERTEX
  8
fence16
 10
0.0
 20
0.0
 30
0.0
 70
   128
 71
   80
 72
   93
 73
   81
  0
VERTEX
  8
fence16
 10
0.0
 20
0.0
 30
0.0
 70
   128
 71
   85
 72
   67
 73
   84
  0
VERTEX
  8
fence16
 10
0.0
 20
0.0
 30
0.0
 70
   128
 71
   85
 72
   98
 73
   86
  0
VERTEX
  8
fence16
 10
0.0
 20
0.0
 30
0.0
 70
   128
 71
   61
 72
   82
 73
   63
  0
VERTEX
  8
fence16
 10
0.0
 20
0.0
 30
0.0
 70
   128
 71
   87
 72
   71
 73
   86
  0
VERTEX
  8
fence16
 10
0.0
 20
0.0
 30
0.0
 70
   128
 71
   87
 72
   100
 73
   88
  0
VERTEX
  8
fence16
 10
0.0
 20
0.0
 30
0.0
 70
   128
 71
   82
 72
   95
 73
   83
  0
VERTEX
  8
fence16
 10
0.0
 20
0.0
 30
0.0
 70
   128
 71
   77
 72
   75
 73
   88
  0
VERTEX
  8
fence16
 10
0.0
 20
0.0
 30
0.0
 70
   128
 71
   91
 72
   78
 73
   90
  0
VERTEX
  8
fence16
 10
0.0
 20
0.0
 30
0.0
 70
   128
 71
   65
 72
   84
 73
   67
  0
VERTEX
  8
fence16
 10
0.0
 20
0.0
 30
0.0
 70
   128
 71
   92
 72
   62
 73
   93
  0
VERTEX
  8
fence16
 10
0.0
 20
0.0
 30
0.0
 70
   128
 71
   94
 72
   66
 73
   95
  0
VERTEX
  8
fence16
 10
0.0
 20
0.0
 30
0.0
 70
   128
 71
   84
 72
   97
 73
   85
  0
VERTEX
  8
fence16
 10
0.0
 20
0.0
 30
0.0
 70
   128
 71
   96
 72
   70
 73
   97
  0
VERTEX
  8
fence16
 10
0.0
 20
0.0
 30
0.0
 70
   128
 71
   98
 72
   74
 73
   99
  0
VERTEX
  8
fence16
 10
0.0
 20
0.0
 30
0.0
 70
   128
 71
   69
 72
   86
 73
   71
  0
VERTEX
  8
fence16
 10
0.0
 20
0.0
 30
0.0
 70
   128
 71
   100
 72
   54
 73
   89
  0
VERTEX
  8
fence16
 10
0.0
 20
0.0
 30
0.0
 70
   128
 71
   89
 72
   56
 73
   90
  0
VERTEX
  8
fence16
 10
0.0
 20
0.0
 30
0.0
 70
   128
 71
   86
 72
   99
 73
   87
  0
VERTEX
  8
fence16
 10
0.0
 20
0.0
 30
0.0
 70
   128
 71
   91
 72
   60
 73
   92
  0
VERTEX
  8
fence16
 10
0.0
 20
0.0
 30
0.0
 70
   128
 71
   93
 72
   64
 73
   94
  0
VERTEX
  8
fence16
 10
0.0
 20
0.0
 30
0.0
 70
   128
 71
   73
 72
   88
 73
   75
  0
VERTEX
  8
fence16
 10
0.0
 20
0.0
 30
0.0
 70
   128
 71
   95
 72
   68
 73
   96
  0
VERTEX
  8
fence16
 10
0.0
 20
0.0
 30
0.0
 70
   128
 71
   97
 72
   72
 73
   98
  0
VERTEX
  8
fence16
 10
0.0
 20
0.0
 30
0.0
 70
   128
 71
   88
 72
   89
 73
   77
  0
VERTEX
  8
fence16
 10
0.0
 20
0.0
 30
0.0
 70
   128
 71
   99
 72
   76
 73
   100
  0
VERTEX
  8
fence16
 10
0.0
 20
0.0
 30
0.0
 70
   128
 71
   57
 72
   53
 73
   55
  0
VERTEX
  8
fence16
 10
0.0
 20
0.0
 30
0.0
 70
   128
 71
   69
 72
   57
 73
   59
  0
VERTEX
  8
fence16
 10
0.0
 20
0.0
 30
0.0
 70
   128
 71
   75
 72
   71
 73
   73
  0
VERTEX
  8
fence16
 10
0.0
 20
0.0
 30
0.0
 70
   128
 71
   59
 72
   65
 73
   69
  0
VERTEX
  8
fence16
 10
0.0
 20
0.0
 30
0.0
 70
   128
 71
   74
 72
   68
 73
   76
  0
VERTEX
  8
fence16
 10
0.0
 20
0.0
 30
0.0
 70
   128
 71
   62
 72
   66
 73
   64
  0
VERTEX
  8
fence16
 10
0.0
 20
0.0
 30
0.0
 70
   128
 71
   76
 72
   62
 73
   56
  0
VERTEX
  8
fence16
 10
0.0
 20
0.0
 30
0.0
 70
   128
 71
   62
 72
   58
 73
   56
  0
VERTEX
  8
fence16
 10
0.0
 20
0.0
 30
0.0
 70
   128
 71
   104
 72
   111
 73
   112
  0
VERTEX
  8
fence16
 10
0.0
 20
0.0
 30
0.0
 70
   128
 71
   106
 72
   102
 73
   104
  0
VERTEX
  8
fence16
 10
0.0
 20
0.0
 30
0.0
 70
   128
 71
   107
 72
   106
 73
   105
  0
VERTEX
  8
fence16
 10
0.0
 20
0.0
 30
0.0
 70
   128
 71
   105
 72
   101
 73
   107
  0
VERTEX
  8
fence16
 10
0.0
 20
0.0
 30
0.0
 70
   128
 71
   107
 72
   111
 73
   108
  0
VERTEX
  8
fence16
 10
0.0
 20
0.0
 30
0.0
 70
   128
 71
   105
 72
   112
 73
   110
  0
VERTEX
  8
fence16
 10
0.0
 20
0.0
 30
0.0
 70
   128
 71
   109
 72
   103
 73
   110
  0
VERTEX
  8
fence16
 10
0.0
 20
0.0
 30
0.0
 70
   128
 71
   111
 72
   110
 73
   112
  0
SEQEND
  0
ENDSEC
  0
EOF
