# Blender v2.79 (sub 0) OBJ File: ''
# www.blender.org
mtllib cracked_wall_tile.mtl
o Cube.014
v 0.010074 0.149770 0.061882
v 0.005005 0.161260 0.042129
v 0.005005 0.160904 -0.001565
v 0.010074 0.147582 -0.013055
v 0.005181 -0.001661 -0.123863
v 0.005181 0.248339 -0.123863
v 0.005181 0.248339 0.126137
v 0.005181 -0.001661 0.126137
v 0.005005 0.089493 -0.000552
v 0.010074 0.100983 -0.012043
v 0.010074 0.100983 -0.124215
v 0.005005 0.089493 -0.124203
v 0.005005 0.161260 -0.124203
v 0.010074 0.149770 -0.124215
v 0.005005 0.082647 0.118160
v 0.010074 0.069325 0.106670
v 0.005005 0.007693 0.119173
v 0.010074 0.019183 0.107682
v 0.010074 0.019183 -0.104880
v 0.005005 0.007693 -0.116371
v 0.005005 0.243548 -0.116371
v 0.010074 0.232058 -0.104880
v 0.005005 0.243192 0.118160
v 0.010074 0.229870 0.106670
v 0.005005 0.169901 0.119173
v 0.010074 0.181391 0.107682
v 0.010074 0.181391 -0.104880
v 0.005005 0.169901 -0.116371
v 0.005005 0.083003 -0.116371
v 0.010074 0.071513 -0.104880
v 0.005005 0.089493 0.067613
v 0.010074 0.100983 0.079104
v 0.010074 0.100983 0.126859
v 0.005005 0.089493 0.126651
v 0.010074 0.147582 0.125847
v 0.005005 0.160904 0.125638
v 0.005005 0.160904 0.035491
v 0.010074 0.147582 0.024001
v 0.005005 0.089493 0.061382
v 0.010074 0.100983 0.049891
v 0.010074 0.100983 0.013284
v 0.005005 0.089493 0.004132
v 0.005005 0.161260 0.003232
v 0.010074 0.149770 0.012384
vn 0.9149 -0.4036 -0.0000
vn 1.0000 0.0000 -0.0000
vn 0.9151 0.0069 0.4031
vn 0.9264 0.3766 0.0041
vn 0.9149 0.0000 -0.4036
vn 0.9151 0.0065 0.4032
vn 0.9257 0.3782 0.0022
vn 0.9151 0.0067 0.4032
vn 0.9238 0.3828 0.0066
vn 0.9455 -0.1087 -0.3068
vn 0.9066 0.1696 0.3864
vn 0.9262 0.3764 0.0218
vn 0.8748 -0.0072 -0.4845
usemtl Stone
s off
f 12//1 11//1 10//1 9//1
f 11//2 14//2 4//2 10//2
f 9//3 10//3 4//3 3//3
f 3//4 4//4 14//4 13//4
f 20//5 29//5 30//5 19//5
f 20//1 19//1 18//1 17//1
f 19//2 30//2 16//2 18//2
f 17//6 18//6 16//6 15//6
f 15//7 16//7 30//7 29//7
f 28//5 21//5 22//5 27//5
f 28//1 27//1 26//1 25//1
f 27//2 22//2 24//2 26//2
f 25//8 26//8 24//8 23//8
f 23//7 24//7 22//7 21//7
f 36//9 35//9 1//9 2//9
f 32//2 1//2 35//2 33//2
f 31//1 32//1 33//1 34//1
f 31//10 2//10 1//10 32//10
f 42//1 41//1 40//1 39//1
f 41//2 44//2 38//2 40//2
f 39//11 40//11 38//11 37//11
f 37//12 38//12 44//12 43//12
f 42//13 43//13 44//13 41//13
usemtl Dark_Stone
f 5//2 6//2 7//2 8//2
