# Blender v2.79 (sub 0) OBJ File: ''
# www.blender.org
mtllib cracked_wall_tile_2.mtl
o Cube.008
v 0.005005 0.088829 -0.124203
v 0.010074 0.100319 -0.124215
v 0.010074 0.100319 -0.012043
v 0.005005 0.088829 -0.000552
v 0.010074 0.149105 -0.124215
v 0.010074 0.146917 -0.019840
v 0.005005 0.160240 -0.014303
v 0.005005 0.160595 -0.124203
v 0.005005 0.007028 -0.116371
v 0.005005 0.082338 -0.116371
v 0.010074 0.070848 -0.104880
v 0.010074 0.018518 -0.104880
v 0.010074 0.018518 -0.040053
v 0.005005 0.007028 -0.028562
v 0.010074 0.068660 -0.045960
v 0.005005 0.081983 -0.039945
v 0.005005 0.169237 -0.009826
v 0.005005 0.242883 0.020205
v 0.010074 0.231393 0.023444
v 0.010074 0.180727 0.001163
v 0.010074 0.180727 0.107682
v 0.005005 0.169237 0.119173
v 0.010074 0.229205 0.106670
v 0.005005 0.242527 0.118160
v 0.005005 0.160240 0.125638
v 0.010074 0.146917 0.125847
v 0.010074 0.149105 0.016583
v 0.005005 0.160595 0.005092
v 0.010074 0.100319 0.016583
v 0.010074 0.100319 0.126859
v 0.005005 0.088829 0.005092
v 0.005005 0.088829 0.126651
v 0.005181 -0.002326 -0.123863
v 0.005181 0.247674 -0.123863
v 0.005181 0.247674 0.126137
v 0.005181 -0.002326 0.126137
v 0.005005 0.169118 -0.116371
v 0.005005 0.244428 -0.116371
v 0.010074 0.232938 -0.104880
v 0.010074 0.180608 -0.104880
v 0.010074 0.180608 -0.019750
v 0.005005 0.169118 -0.015261
v 0.010074 0.230750 0.006923
v 0.005005 0.244073 0.018934
v 0.005005 0.007028 -0.022343
v 0.005005 0.082338 -0.036250
v 0.010074 0.070848 -0.026470
v 0.010074 0.018518 -0.016613
v 0.010074 0.018518 0.110943
v 0.005005 0.007028 0.122434
v 0.010074 0.068660 0.111162
v 0.005005 0.081983 0.122652
vn 0.9149 -0.4036 -0.0000
vn 1.0000 -0.0000 0.0000
vn 0.8599 0.0917 0.5021
vn 0.9261 0.3774 0.0045
vn 0.9149 0.0000 -0.4036
vn 0.8664 0.0684 0.4946
vn 0.9251 0.3796 0.0071
vn 0.7911 0.2372 -0.5638
vn 0.9151 0.0067 0.4032
vn 0.9263 0.3767 0.0053
vn 0.9250 0.3799 0.0042
vn 0.8106 -0.2562 0.5265
vn 0.9257 0.3782 0.0039
vn 0.8327 -0.1013 -0.5443
vn 0.9149 -0.0014 0.4037
vn 0.9258 0.3780 0.0032
usemtl Stone
s off
f 1//1 2//1 3//1 4//1
f 2//2 5//2 6//2 3//2
f 4//3 3//3 6//3 7//3
f 7//4 6//4 5//4 8//4
f 9//5 10//5 11//5 12//5
f 9//1 12//1 13//1 14//1
f 12//2 11//2 15//2 13//2
f 14//6 13//6 15//6 16//6
f 16//7 15//7 11//7 10//7
f 17//8 18//8 19//8 20//8
f 17//1 20//1 21//1 22//1
f 20//2 19//2 23//2 21//2
f 22//9 21//9 23//9 24//9
f 24//10 23//10 19//10 18//10
f 25//11 26//11 27//11 28//11
f 29//2 27//2 26//2 30//2
f 31//1 29//1 30//1 32//1
f 31//5 28//5 27//5 29//5
f 37//5 38//5 39//5 40//5
f 37//1 40//1 41//1 42//1
f 40//2 39//2 43//2 41//2
f 42//12 41//12 43//12 44//12
f 44//13 43//13 39//13 38//13
f 45//14 46//14 47//14 48//14
f 45//1 48//1 49//1 50//1
f 48//2 47//2 51//2 49//2
f 50//15 49//15 51//15 52//15
f 52//16 51//16 47//16 46//16
usemtl Dark_Stone
f 33//2 34//2 35//2 36//2
