# Blender v2.79 (sub 0) OBJ File: ''
# www.blender.org
mtllib wall_tile.mtl
o Cube.008
v 0.005005 0.088829 -0.124203
v 0.010074 0.100319 -0.124215
v 0.010074 0.100319 -0.012043
v 0.005005 0.088829 -0.000552
v 0.010074 0.149105 -0.124215
v 0.010074 0.146917 -0.013055
v 0.005005 0.160240 -0.001565
v 0.005005 0.160595 -0.124203
v 0.005005 0.007028 -0.116371
v 0.005005 0.082338 -0.116371
v 0.010074 0.070848 -0.104880
v 0.010074 0.018518 -0.104880
v 0.010074 0.018518 0.107682
v 0.005005 0.007028 0.119173
v 0.010074 0.068660 0.106670
v 0.005005 0.081983 0.118160
v 0.005005 0.169237 -0.116371
v 0.005005 0.242883 -0.116371
v 0.010074 0.231393 -0.104880
v 0.010074 0.180727 -0.104880
v 0.010074 0.180727 0.107682
v 0.005005 0.169237 0.119173
v 0.010074 0.229205 0.106670
v 0.005005 0.242527 0.118160
v 0.005005 0.160240 0.125638
v 0.010074 0.146917 0.125847
v 0.010074 0.149105 0.016583
v 0.005005 0.160595 0.005092
v 0.010074 0.100319 0.016583
v 0.010074 0.100319 0.126859
v 0.005005 0.088829 0.005092
v 0.005005 0.088829 0.126651
v 0.005181 -0.002326 -0.123863
v 0.005181 0.247674 -0.123863
v 0.005181 0.247674 0.126137
v 0.005181 -0.002326 0.126137
vn 0.9149 -0.4036 -0.0000
vn 1.0000 -0.0000 0.0000
vn 0.9151 0.0069 0.4031
vn 0.9264 0.3766 0.0041
vn 0.9149 0.0000 -0.4036
vn 0.9151 0.0065 0.4032
vn 0.9257 0.3782 0.0022
vn 0.9151 0.0067 0.4032
vn 0.9250 0.3799 0.0042
usemtl Stone
s 1
f 1//1 2//1 3//1 4//1
f 2//2 5//2 6//2 3//2
f 4//3 3//3 6//3 7//3
f 7//4 6//4 5//4 8//4
f 9//5 10//5 11//5 12//5
f 9//1 12//1 13//1 14//1
f 12//2 11//2 15//2 13//2
f 14//6 13//6 15//6 16//6
f 16//7 15//7 11//7 10//7
f 17//5 18//5 19//5 20//5
f 17//1 20//1 21//1 22//1
f 20//2 19//2 23//2 21//2
f 22//8 21//8 23//8 24//8
f 24//7 23//7 19//7 18//7
f 25//9 26//9 27//9 28//9
f 29//2 27//2 26//2 30//2
f 31//1 29//1 30//1 32//1
f 31//5 28//5 27//5 29//5
usemtl Dark_Stone
f 33//2 34//2 35//2 36//2
