# Blender v2.79 (sub 0) OBJ File: 'temp.blend'
# www.blender.org
mtllib 3clover.mtl
o Cube_Cube.001
v -0.002180 -0.000523 0.000000
v -0.002180 0.043873 0.000000
v 0.000000 0.043873 -0.002180
v 0.000000 -0.000523 -0.002180
v 0.002180 0.043873 0.000000
v 0.002180 -0.000523 0.000000
v 0.000000 0.043873 0.002180
v 0.000000 -0.000523 0.002180
v 0.010354 0.045655 0.019747
v -0.012603 0.045655 0.019747
v -0.005215 0.047923 0.032228
v 0.002966 0.047923 0.032228
v 0.004006 0.043873 0.000265
v -0.004275 0.043873 0.000265
v -0.021561 0.045655 0.001282
v -0.011428 0.045655 -0.019317
v -0.025889 0.047923 -0.018197
v -0.029500 0.047923 -0.010856
v -0.001277 0.043873 0.004186
v 0.002378 0.043873 -0.003245
v 0.008113 0.045655 -0.021054
v 0.022815 0.045655 -0.003423
v 0.027669 0.047923 -0.017090
v 0.022429 0.047923 -0.023373
v -0.002785 0.043873 -0.003701
v 0.002519 0.043873 0.002659
v 0.010354 0.045655 0.019747
v 0.002966 0.047923 0.032228
v -0.005215 0.047923 0.032228
v -0.012603 0.045655 0.019747
v -0.004275 0.043873 0.000265
v 0.004006 0.043873 0.000265
v -0.021561 0.045655 0.001282
v -0.029500 0.047923 -0.010856
v -0.025889 0.047923 -0.018197
v -0.011428 0.045655 -0.019317
v 0.002378 0.043873 -0.003245
v -0.001277 0.043873 0.004186
v 0.008113 0.045655 -0.021054
v 0.022429 0.047923 -0.023373
v 0.027669 0.047923 -0.017090
v 0.022815 0.045655 -0.003423
v 0.002519 0.043873 0.002659
v -0.002785 0.043873 -0.003701
vn -0.7071 0.0000 -0.7071
vn 0.7071 0.0000 -0.7071
vn 0.7071 -0.0000 0.7071
vn -0.7071 -0.0000 0.7071
vn 0.0000 -1.0000 -0.0000
vn 0.0000 0.9839 -0.1788
vn 0.0000 0.9958 -0.0911
vn 0.1604 0.9839 0.0789
vn 0.0817 0.9958 0.0402
vn -0.1373 0.9839 0.1145
vn -0.0700 0.9958 0.0583
vn 0.0000 -0.9839 0.1788
vn 0.0000 -0.9958 0.0911
vn -0.1604 -0.9839 -0.0789
vn -0.0817 -0.9958 -0.0402
vn 0.1373 -0.9839 -0.1145
vn 0.0700 -0.9958 -0.0583
usemtl Green
s 1
f 1//1 2//1 3//1 4//1
f 4//2 3//2 5//2 6//2
f 6//3 5//3 7//3 8//3
f 8//4 7//4 2//4 1//4
f 4//5 6//5 8//5 1//5
f 9//6 10//6 11//6 12//6
f 10//7 9//7 13//7 14//7
f 15//8 16//8 17//8 18//8
f 16//9 15//9 19//9 20//9
f 21//10 22//10 23//10 24//10
f 22//11 21//11 25//11 26//11
f 27//12 28//12 29//12 30//12
f 30//13 31//13 32//13 27//13
f 33//14 34//14 35//14 36//14
f 36//15 37//15 38//15 33//15
f 39//16 40//16 41//16 42//16
f 42//17 43//17 44//17 39//17
