# Blender v2.79 (sub 0) OBJ File: 'temp.blend'
# www.blender.org
mtllib bushyplant.mtl
o Cube_Cube.004
v -0.003614 -0.000706 0.000000
v -0.003614 0.076835 0.000000
v -0.000000 -0.000706 -0.003614
v -0.000000 0.076835 -0.003614
v 0.000000 -0.000706 0.003614
v 0.000000 0.076835 0.003614
v 0.003614 -0.000706 -0.000000
v 0.003614 0.076835 -0.000000
v -0.005338 0.051639 -0.000081
v 0.004571 0.051639 -0.000081
v -0.008848 0.053434 -0.009648
v 0.008081 0.053434 -0.009648
v -0.012154 0.056390 -0.032574
v 0.011386 0.056390 -0.032574
v -0.008653 0.055059 -0.052224
v 0.007885 0.055059 -0.052224
v -0.000384 0.051639 -0.066151
v 0.000703 0.060771 -0.007620
v -0.005846 0.060771 -0.000184
v 0.010203 0.062566 -0.003932
v -0.000985 0.062566 0.008773
v 0.029593 0.065522 0.008739
v 0.014035 0.065522 0.026405
v 0.042026 0.064191 0.024353
v 0.031096 0.064191 0.036765
v 0.047013 0.060771 0.039764
v 0.003459 0.060771 0.001656
v -0.002848 0.060771 -0.005986
v -0.001686 0.062566 0.010453
v -0.012461 0.062566 -0.002603
v -0.017264 0.065522 0.027595
v -0.032247 0.065522 0.009440
v -0.034647 0.064191 0.037403
v -0.045174 0.064191 0.024647
v -0.050652 0.060771 0.039890
v -0.001797 0.028638 -0.003906
v 0.004653 0.028638 0.003616
v 0.003180 0.030433 -0.012798
v 0.014200 0.030433 0.000053
v 0.018432 0.033389 -0.030231
v 0.033755 0.033389 -0.012361
v 0.035627 0.032058 -0.040364
v 0.046393 0.032058 -0.027810
v 0.051583 0.028638 -0.043153
v 0.004361 0.039973 -0.000734
v -0.005501 0.039973 -0.001697
v 0.006924 0.041768 0.009129
v -0.009925 0.041768 0.007483
v 0.007984 0.044724 0.032268
v -0.015444 0.044724 0.029979
v 0.002590 0.043393 0.051484
v -0.013870 0.043393 0.049876
v -0.006995 0.039973 0.064542
v -0.004431 0.077124 0.005300
v 0.004468 0.077124 0.000943
v -0.011790 0.078919 -0.001748
v 0.003413 0.078919 -0.009193
v -0.024842 0.081875 -0.020884
v -0.003701 0.081875 -0.031237
v -0.030339 0.080544 -0.040071
v -0.015486 0.080544 -0.047345
v -0.029038 0.077124 -0.056216
v -0.001122 0.070711 -0.005766
v 0.004761 0.070711 0.002207
v 0.004493 0.072506 -0.014271
v 0.014543 0.072506 -0.000649
v 0.020978 0.075462 -0.030542
v 0.034954 0.075462 -0.011600
v 0.038869 0.074132 -0.039391
v 0.048688 0.074132 -0.026083
v 0.054985 0.070711 -0.041006
v 0.000763 0.077124 -0.004874
v -0.003633 0.077124 0.004006
v 0.010894 0.078919 -0.003776
v 0.003384 0.078919 0.011396
v 0.032907 0.081875 0.003432
v 0.022464 0.081875 0.024529
v 0.048965 0.080544 0.015287
v 0.041628 0.080544 0.030108
v 0.057778 0.077124 0.028876
v 0.001031 0.044850 -0.005585
v 0.001010 0.044850 0.004324
v 0.010605 0.046645 -0.009074
v 0.010569 0.046645 0.007854
v 0.033538 0.049601 -0.012331
v 0.033488 0.049601 0.011209
v 0.053180 0.048270 -0.008789
v 0.053145 0.048270 0.007750
v 0.067090 0.044850 -0.000490
v 0.004760 0.044315 0.006330
v 0.007136 0.044315 -0.003289
v -0.005369 0.046110 0.007444
v -0.001311 0.046110 -0.008991
v -0.028419 0.049066 0.005157
v -0.022775 0.049066 -0.017697
v -0.046657 0.047735 -0.002953
v -0.042691 0.047735 -0.019009
v -0.058195 0.044315 -0.014321
v -0.005338 0.051639 -0.000081
v 0.004571 0.051639 -0.000081
v -0.008848 0.053434 -0.009648
v 0.008081 0.053434 -0.009648
v -0.012154 0.056390 -0.032574
v 0.011386 0.056390 -0.032574
v -0.008653 0.055059 -0.052224
v 0.007885 0.055059 -0.052224
v -0.000384 0.051639 -0.066151
v 0.000703 0.060771 -0.007620
v -0.005846 0.060771 -0.000184
v 0.010203 0.062566 -0.003932
v -0.000985 0.062566 0.008773
v 0.029593 0.065522 0.008739
v 0.014035 0.065522 0.026405
v 0.042026 0.064191 0.024353
v 0.031096 0.064191 0.036765
v 0.047013 0.060771 0.039764
v 0.003459 0.060771 0.001656
v -0.002848 0.060771 -0.005986
v -0.001686 0.062566 0.010453
v -0.012461 0.062566 -0.002603
v -0.017264 0.065522 0.027595
v -0.032247 0.065522 0.009440
v -0.034647 0.064191 0.037403
v -0.045174 0.064191 0.024647
v -0.050652 0.060771 0.039890
v -0.001797 0.028638 -0.003906
v 0.004653 0.028638 0.003616
v 0.003180 0.030433 -0.012798
v 0.014200 0.030433 0.000053
v 0.018432 0.033389 -0.030231
v 0.033755 0.033389 -0.012361
v 0.035627 0.032058 -0.040364
v 0.046393 0.032058 -0.027810
v 0.051583 0.028638 -0.043153
v 0.004361 0.039973 -0.000734
v -0.005501 0.039973 -0.001697
v 0.006924 0.041768 0.009129
v -0.009925 0.041768 0.007483
v 0.007984 0.044724 0.032268
v -0.015444 0.044724 0.029979
v 0.002590 0.043393 0.051484
v -0.013870 0.043393 0.049876
v -0.006995 0.039973 0.064542
v -0.004431 0.077124 0.005300
v 0.004468 0.077124 0.000943
v -0.011790 0.078919 -0.001748
v 0.003413 0.078919 -0.009193
v -0.024842 0.081875 -0.020884
v -0.003701 0.081875 -0.031237
v -0.030339 0.080544 -0.040071
v -0.015486 0.080544 -0.047345
v -0.029038 0.077124 -0.056216
v -0.001122 0.070711 -0.005766
v 0.004761 0.070711 0.002207
v 0.004493 0.072506 -0.014271
v 0.014543 0.072506 -0.000649
v 0.020978 0.075462 -0.030542
v 0.034954 0.075462 -0.011600
v 0.038869 0.074132 -0.039391
v 0.048688 0.074132 -0.026083
v 0.054985 0.070711 -0.041006
v 0.000763 0.077124 -0.004874
v -0.003633 0.077124 0.004006
v 0.010894 0.078919 -0.003776
v 0.003384 0.078919 0.011396
v 0.032907 0.081875 0.003432
v 0.022464 0.081875 0.024529
v 0.048965 0.080544 0.015287
v 0.041628 0.080544 0.030108
v 0.057778 0.077124 0.028876
v 0.001031 0.044850 -0.005585
v 0.001010 0.044850 0.004324
v 0.010605 0.046645 -0.009074
v 0.010569 0.046645 0.007854
v 0.033538 0.049601 -0.012331
v 0.033488 0.049601 0.011209
v 0.053180 0.048270 -0.008789
v 0.053145 0.048270 0.007750
v 0.067090 0.044850 -0.000490
v 0.004760 0.044315 0.006330
v 0.007136 0.044315 -0.003289
v -0.005369 0.046110 0.007444
v -0.001311 0.046110 -0.008991
v -0.028419 0.049066 0.005157
v -0.022775 0.049066 -0.017697
v -0.046657 0.047735 -0.002953
v -0.042691 0.047735 -0.019009
v -0.058195 0.044315 -0.014321
vn -0.7071 0.0000 -0.7071
vn 0.7071 0.0000 -0.7071
vn 0.7071 0.0000 0.7071
vn -0.7071 0.0000 0.7071
vn 0.0000 -1.0000 0.0000
vn 0.0000 1.0000 0.0000
vn -0.0000 0.9828 0.1844
vn 0.0000 0.9918 0.1279
vn 0.0000 0.9977 -0.0676
vn 0.0000 0.9711 -0.2385
vn -0.1384 0.9828 -0.1219
vn -0.0960 0.9918 -0.0845
vn 0.0507 0.9977 0.0446
vn 0.1790 0.9711 0.1576
vn 0.1422 0.9828 -0.1174
vn 0.0986 0.9918 -0.0814
vn -0.0521 0.9977 0.0430
vn -0.1839 0.9711 0.1518
vn -0.1400 0.9828 0.1200
vn -0.0971 0.9918 0.0832
vn 0.0513 0.9977 -0.0440
vn 0.1811 0.9711 -0.1553
vn 0.0179 0.9828 -0.1835
vn 0.0124 0.9918 -0.1273
vn -0.0066 0.9977 0.0672
vn -0.0232 0.9711 0.2374
vn 0.0811 0.9828 0.1656
vn 0.0562 0.9918 0.1148
vn -0.0297 0.9977 -0.0607
vn -0.1049 0.9711 -0.2142
vn -0.1484 0.9828 0.1095
vn -0.1029 0.9918 0.0759
vn 0.0544 0.9977 -0.0401
vn 0.1919 0.9711 -0.1416
vn -0.1653 0.9828 -0.0818
vn -0.1146 0.9918 -0.0567
vn 0.0605 0.9977 0.0300
vn 0.2138 0.9711 0.1058
vn -0.1844 0.9828 -0.0004
vn -0.1279 0.9918 -0.0003
vn 0.0676 0.9977 0.0001
vn 0.2385 0.9711 0.0005
vn 0.1790 0.9828 0.0442
vn 0.1241 0.9918 0.0307
vn -0.0656 0.9977 -0.0162
vn -0.2315 0.9711 -0.0572
vn 0.0000 -0.9828 -0.1844
vn 0.0000 -0.9918 -0.1279
vn 0.0000 -0.9977 0.0676
vn 0.0000 -0.9711 0.2385
vn 0.1384 -0.9828 0.1219
vn 0.0960 -0.9918 0.0845
vn -0.0507 -0.9977 -0.0446
vn -0.1790 -0.9711 -0.1576
vn -0.1422 -0.9828 0.1174
vn -0.0986 -0.9918 0.0814
vn 0.0521 -0.9977 -0.0430
vn 0.1839 -0.9711 -0.1518
vn 0.1400 -0.9828 -0.1200
vn 0.0971 -0.9918 -0.0832
vn -0.0513 -0.9977 0.0440
vn -0.1811 -0.9711 0.1553
vn -0.0179 -0.9828 0.1835
vn -0.0124 -0.9918 0.1273
vn 0.0066 -0.9977 -0.0672
vn 0.0232 -0.9711 -0.2374
vn -0.0811 -0.9828 -0.1656
vn -0.0562 -0.9918 -0.1148
vn 0.0297 -0.9977 0.0607
vn 0.1049 -0.9711 0.2142
vn 0.1484 -0.9828 -0.1095
vn 0.1029 -0.9918 -0.0759
vn -0.0544 -0.9977 0.0401
vn -0.1919 -0.9711 0.1416
vn 0.1653 -0.9828 0.0818
vn 0.1146 -0.9918 0.0567
vn -0.0605 -0.9977 -0.0300
vn -0.2138 -0.9711 -0.1058
vn 0.1844 -0.9828 0.0004
vn 0.1279 -0.9918 0.0003
vn -0.0676 -0.9977 -0.0001
vn -0.2385 -0.9711 -0.0005
vn -0.1790 -0.9828 -0.0442
vn -0.1241 -0.9918 -0.0307
vn 0.0656 -0.9977 0.0162
vn 0.2315 -0.9711 0.0572
usemtl Brown
s off
f 1//1 2//1 4//1 3//1
f 3//2 4//2 8//2 7//2
f 7//3 8//3 6//3 5//3
f 5//4 6//4 2//4 1//4
f 3//5 7//5 5//5 1//5
f 8//6 4//6 2//6 6//6
usemtl Green
f 9//7 10//7 12//7 11//7
f 11//8 12//8 14//8 13//8
f 13//9 14//9 16//9 15//9
f 15//10 16//10 17//10
f 18//11 19//11 21//11 20//11
f 20//12 21//12 23//12 22//12
f 22//13 23//13 25//13 24//13
f 24//14 25//14 26//14
f 27//15 28//15 30//15 29//15
f 29//16 30//16 32//16 31//16
f 31//17 32//17 34//17 33//17
f 33//18 34//18 35//18
f 36//19 37//19 39//19 38//19
f 38//20 39//20 41//20 40//20
f 40//21 41//21 43//21 42//21
f 42//22 43//22 44//22
f 45//23 46//23 48//23 47//23
f 47//24 48//24 50//24 49//24
f 49//25 50//25 52//25 51//25
f 51//26 52//26 53//26
f 54//27 55//27 57//27 56//27
f 56//28 57//28 59//28 58//28
f 58//29 59//29 61//29 60//29
f 60//30 61//30 62//30
f 63//31 64//31 66//31 65//31
f 65//32 66//32 68//32 67//32
f 67//33 68//33 70//33 69//33
f 69//34 70//34 71//34
f 72//35 73//35 75//35 74//35
f 74//36 75//36 77//36 76//36
f 76//37 77//37 79//37 78//37
f 78//38 79//38 80//38
f 81//39 82//39 84//39 83//39
f 83//40 84//40 86//40 85//40
f 85//41 86//41 88//41 87//41
f 87//42 88//42 89//42
f 90//43 91//43 93//43 92//43
f 92//44 93//44 95//44 94//44
f 94//45 95//45 97//45 96//45
f 96//46 97//46 98//46
f 99//47 101//47 102//47 100//47
f 101//48 103//48 104//48 102//48
f 103//49 105//49 106//49 104//49
f 105//50 107//50 106//50
f 108//51 110//51 111//51 109//51
f 110//52 112//52 113//52 111//52
f 112//53 114//53 115//53 113//53
f 114//54 116//54 115//54
f 117//55 119//55 120//55 118//55
f 119//56 121//56 122//56 120//56
f 121//57 123//57 124//57 122//57
f 123//58 125//58 124//58
f 126//59 128//59 129//59 127//59
f 128//60 130//60 131//60 129//60
f 130//61 132//61 133//61 131//61
f 132//62 134//62 133//62
f 135//63 137//63 138//63 136//63
f 137//64 139//64 140//64 138//64
f 139//65 141//65 142//65 140//65
f 141//66 143//66 142//66
f 144//67 146//67 147//67 145//67
f 146//68 148//68 149//68 147//68
f 148//69 150//69 151//69 149//69
f 150//70 152//70 151//70
f 153//71 155//71 156//71 154//71
f 155//72 157//72 158//72 156//72
f 157//73 159//73 160//73 158//73
f 159//74 161//74 160//74
f 162//75 164//75 165//75 163//75
f 164//76 166//76 167//76 165//76
f 166//77 168//77 169//77 167//77
f 168//78 170//78 169//78
f 171//79 173//79 174//79 172//79
f 173//80 175//80 176//80 174//80
f 175//81 177//81 178//81 176//81
f 177//82 179//82 178//82
f 180//83 182//83 183//83 181//83
f 182//84 184//84 185//84 183//84
f 184//85 186//85 187//85 185//85
f 186//86 188//86 187//86
