# Blender v2.79 (sub 0) OBJ File: 'temp.blend'
# www.blender.org
mtllib plant.mtl
o Plane
v 0.023058 0.000000 0.012470
v 0.037656 0.045058 0.021025
v 0.023058 0.000000 -0.017731
v 0.037656 0.045058 -0.026286
v 0.060958 0.069724 0.024158
v 0.060958 0.069724 -0.029419
v 0.089548 0.081383 0.017693
v 0.089548 0.081383 -0.022954
v 0.132596 0.088418 -0.002631
v 0.003934 0.000000 0.026393
v 0.004372 0.045058 0.043307
v 0.029585 0.000000 0.010453
v 0.044557 0.045058 0.018337
v 0.014009 0.069724 0.064753
v 0.059516 0.069724 0.036475
v 0.034589 0.081383 0.085625
v 0.069115 0.081383 0.064171
v 0.074572 0.088418 0.111462
v -0.020005 0.000000 0.006026
v -0.035995 0.045058 0.011561
v 0.002948 0.000000 0.025653
v -0.000036 0.045058 0.042308
v -0.053519 0.069724 0.027235
v -0.012799 0.069724 0.062054
v -0.067186 0.081383 0.053166
v -0.036292 0.081383 0.079582
v -0.079715 0.088418 0.099092
v -0.002960 0.000000 -0.020228
v -0.009584 0.045058 -0.035798
v -0.020958 0.000000 0.004023
v -0.037779 0.045058 0.002194
v -0.026429 0.069724 -0.052200
v -0.058358 0.069724 -0.009176
v -0.053240 0.081383 -0.064047
v -0.077464 0.081383 -0.031406
v -0.099921 0.088418 -0.073381
v 0.025486 0.000000 -0.012276
v 0.037886 0.045058 -0.023789
v -0.003432 0.000000 -0.020979
v -0.007418 0.045058 -0.037423
v 0.047601 0.069724 -0.045199
v -0.003703 0.069724 -0.060639
v 0.049650 0.081383 -0.074439
v 0.010727 0.081383 -0.086154
v 0.042595 0.088418 -0.121518
v 0.132596 0.088418 -0.002631
v 0.089548 0.081383 -0.022954
v 0.089548 0.081383 0.017693
v 0.060958 0.069724 -0.029419
v 0.060958 0.069724 0.024158
v 0.037656 0.045058 -0.026286
v 0.023058 0.000000 -0.017731
v 0.037656 0.045058 0.021025
v 0.023058 0.000000 0.012470
v 0.003934 0.000000 0.026393
v 0.004372 0.045058 0.043307
v 0.029585 0.000000 0.010453
v 0.044557 0.045058 0.018337
v 0.014009 0.069724 0.064753
v 0.059516 0.069724 0.036475
v 0.034589 0.081383 0.085625
v 0.069115 0.081383 0.064171
v 0.074572 0.088418 0.111462
v -0.020005 0.000000 0.006026
v -0.035995 0.045058 0.011561
v 0.002948 0.000000 0.025653
v -0.000036 0.045058 0.042308
v -0.053519 0.069724 0.027235
v -0.012799 0.069724 0.062054
v -0.067186 0.081383 0.053166
v -0.036292 0.081383 0.079582
v -0.079715 0.088418 0.099092
v -0.002960 0.000000 -0.020228
v -0.009584 0.045058 -0.035798
v -0.020958 0.000000 0.004023
v -0.037779 0.045058 0.002194
v -0.026429 0.069724 -0.052200
v -0.058358 0.069724 -0.009176
v -0.053240 0.081383 -0.064047
v -0.077464 0.081383 -0.031406
v -0.099921 0.088418 -0.073381
v 0.025486 0.000000 -0.012276
v 0.037886 0.045058 -0.023789
v -0.003432 0.000000 -0.020979
v -0.007418 0.045058 -0.037423
v 0.047601 0.069724 -0.045199
v -0.003703 0.069724 -0.060639
v 0.049650 0.081383 -0.074439
v 0.010727 0.081383 -0.086154
v 0.042595 0.088418 -0.121518
vn -0.9513 0.3082 0.0000
vn -0.7269 0.6867 0.0000
vn -0.3776 0.9260 0.0000
vn -0.1613 0.9869 0.0000
vn -0.5021 0.3082 -0.8080
vn -0.3837 0.6867 -0.6174
vn -0.1993 0.9260 -0.3207
vn -0.0851 0.9869 -0.1370
vn 0.6182 0.3082 -0.7230
vn 0.4724 0.6867 -0.5525
vn 0.2454 0.9260 -0.2870
vn 0.1048 0.9869 -0.1226
vn 0.7639 0.3082 0.5669
vn 0.5837 0.6867 0.4332
vn 0.3032 0.9260 0.2250
vn 0.1295 0.9869 0.0961
vn -0.2742 0.3082 0.9110
vn -0.2095 0.6867 0.6961
vn -0.1088 0.9260 0.3616
vn -0.0465 0.9869 0.1544
vn 0.1613 -0.9869 0.0000
vn 0.3776 -0.9260 0.0000
vn 0.7269 -0.6867 0.0000
vn 0.9513 -0.3082 0.0000
vn 0.5021 -0.3082 0.8080
vn 0.3837 -0.6867 0.6174
vn 0.1993 -0.9260 0.3207
vn 0.0851 -0.9869 0.1370
vn -0.6182 -0.3082 0.7230
vn -0.4724 -0.6867 0.5525
vn -0.2454 -0.9260 0.2870
vn -0.1048 -0.9869 0.1226
vn -0.7639 -0.3082 -0.5669
vn -0.5837 -0.6867 -0.4332
vn -0.3032 -0.9260 -0.2250
vn -0.1295 -0.9869 -0.0961
vn 0.2742 -0.3082 -0.9110
vn 0.2095 -0.6867 -0.6961
vn 0.1088 -0.9260 -0.3616
vn 0.0465 -0.9869 -0.1544
usemtl Green
s off
f 1//1 2//1 4//1 3//1
f 4//2 2//2 5//2 6//2
f 6//3 5//3 7//3 8//3
f 8//4 7//4 9//4
f 10//5 11//5 13//5 12//5
f 13//6 11//6 14//6 15//6
f 15//7 14//7 16//7 17//7
f 17//8 16//8 18//8
f 19//9 20//9 22//9 21//9
f 22//10 20//10 23//10 24//10
f 24//11 23//11 25//11 26//11
f 26//12 25//12 27//12
f 28//13 29//13 31//13 30//13
f 31//14 29//14 32//14 33//14
f 33//15 32//15 34//15 35//15
f 35//16 34//16 36//16
f 37//17 38//17 40//17 39//17
f 40//18 38//18 41//18 42//18
f 42//19 41//19 43//19 44//19
f 44//20 43//20 45//20
f 47//21 46//21 48//21
f 49//22 47//22 48//22 50//22
f 51//23 49//23 50//23 53//23
f 54//24 52//24 51//24 53//24
f 55//25 57//25 58//25 56//25
f 58//26 60//26 59//26 56//26
f 60//27 62//27 61//27 59//27
f 62//28 63//28 61//28
f 64//29 66//29 67//29 65//29
f 67//30 69//30 68//30 65//30
f 69//31 71//31 70//31 68//31
f 71//32 72//32 70//32
f 73//33 75//33 76//33 74//33
f 76//34 78//34 77//34 74//34
f 78//35 80//35 79//35 77//35
f 80//36 81//36 79//36
f 82//37 84//37 85//37 83//37
f 85//38 87//38 86//38 83//38
f 87//39 89//39 88//39 86//39
f 89//40 90//40 88//40
