# Blender v2.79 (sub 0) OBJ File: 'temp.blend'
# www.blender.org
mtllib thinplant.mtl
o Plane_Plane.024
v 0.006474 -0.001976 0.002539
v 0.018624 0.016834 0.004596
v 0.006474 -0.001976 -0.002539
v 0.018624 0.016834 -0.004596
v 0.058665 0.039472 0.005574
v 0.058665 0.039472 -0.005574
v 0.083079 0.040819 0.004032
v 0.083079 0.040819 -0.004032
v 0.104251 0.036130 0.000000
v 0.003049 -0.002192 0.009849
v 0.008717 0.017916 0.018950
v 0.006357 -0.002192 0.006920
v 0.014705 0.017916 0.013647
v 0.031177 0.037612 0.045596
v 0.038439 0.037612 0.039166
v 0.046264 0.038784 0.060610
v 0.051517 0.038784 0.055958
v 0.061103 0.034704 0.072075
v -0.000981 -0.002041 0.007842
v -0.006998 0.017916 0.015803
v 0.003038 -0.002041 0.009487
v 0.000279 0.017916 0.018781
v -0.022233 0.037612 0.043919
v -0.013408 0.037612 0.047531
v -0.029829 0.038784 0.061754
v -0.023445 0.038784 0.064367
v -0.034283 0.034704 0.078094
v 0.002875 -0.001537 0.002497
v -0.007660 0.016969 -0.001544
v 0.002347 -0.001537 0.007380
v -0.008614 0.016969 0.007295
v -0.042980 0.039240 -0.009282
v -0.044138 0.039240 0.001437
v -0.064738 0.040565 -0.011945
v -0.065575 0.040565 -0.004190
v -0.083886 0.035952 -0.011662
v 0.001752 -0.002512 -0.003432
v -0.004386 0.017954 -0.011231
v -0.000846 -0.002512 0.000019
v -0.009090 0.017954 -0.004983
v -0.027585 0.037546 -0.032994
v -0.033290 0.037546 -0.025416
v -0.042823 0.038712 -0.044809
v -0.046950 0.038712 -0.039327
v -0.057418 0.034653 -0.053223
v 0.003595 -0.002633 -0.000764
v 0.010272 0.017954 -0.008851
v -0.000238 -0.002633 -0.002957
v 0.003332 0.017954 -0.012820
v 0.027895 0.037546 -0.038007
v 0.019478 0.037546 -0.042821
v 0.037026 0.038712 -0.056707
v 0.030937 0.038712 -0.060190
v 0.042910 0.034653 -0.074088
v 0.004491 -0.001673 0.001519
v 0.014541 0.014474 -0.001163
v 0.002660 -0.001673 -0.002460
v 0.011224 0.014474 -0.008367
v 0.045567 0.033906 -0.014551
v 0.041544 0.033906 -0.023287
v 0.063712 0.035062 -0.024389
v 0.060802 0.035062 -0.030709
v 0.078475 0.031037 -0.035033
v 0.000169 -0.001497 0.002503
v -0.001980 0.017916 0.013007
v 0.004584 -0.001497 0.002653
v 0.006014 0.017916 0.013279
v -0.004014 0.037612 0.047797
v 0.005680 0.037612 0.048127
v -0.003396 0.038784 0.069072
v 0.003617 0.038784 0.069310
v -0.000515 0.034704 0.087601
v 0.003769 0.001550 -0.003078
v 0.002399 0.017916 -0.013712
v -0.000457 0.001550 -0.001790
v -0.005252 0.017916 -0.011380
v -0.006944 0.037612 -0.047285
v -0.016223 0.037612 -0.044457
v -0.014421 0.038784 -0.067213
v -0.021133 0.038784 -0.065167
v -0.023147 0.034704 -0.083811
v -0.001111 -0.001673 -0.000725
v -0.010710 0.014474 0.003280
v 0.001237 -0.001673 0.002973
v -0.006458 0.014474 0.009974
v -0.039663 0.033906 0.020703
v -0.034507 0.033906 0.028822
v -0.056327 0.035062 0.032884
v -0.052597 0.035062 0.038757
v -0.069531 0.031037 0.045409
v 0.006474 -0.001976 0.002539
v 0.018624 0.016834 0.004596
v 0.006474 -0.001976 -0.002539
v 0.018624 0.016834 -0.004596
v 0.058665 0.039472 0.005574
v 0.058665 0.039472 -0.005574
v 0.083079 0.040819 0.004032
v 0.083079 0.040819 -0.004032
v 0.104251 0.036130 0.000000
v 0.003049 -0.002192 0.009849
v 0.008717 0.017916 0.018950
v 0.006357 -0.002192 0.006920
v 0.014705 0.017916 0.013647
v 0.031177 0.037612 0.045596
v 0.038439 0.037612 0.039166
v 0.046264 0.038784 0.060610
v 0.051517 0.038784 0.055958
v 0.061103 0.034704 0.072075
v -0.000981 -0.002041 0.007842
v -0.006998 0.017916 0.015803
v 0.003038 -0.002041 0.009487
v 0.000279 0.017916 0.018781
v -0.022233 0.037612 0.043919
v -0.013408 0.037612 0.047531
v -0.029829 0.038784 0.061754
v -0.023445 0.038784 0.064367
v -0.034283 0.034704 0.078094
v 0.002875 -0.001537 0.002497
v -0.007660 0.016969 -0.001544
v 0.002347 -0.001537 0.007380
v -0.008614 0.016969 0.007295
v -0.042980 0.039240 -0.009282
v -0.044138 0.039240 0.001437
v -0.064738 0.040565 -0.011945
v -0.065575 0.040565 -0.004190
v -0.083886 0.035952 -0.011662
v 0.001752 -0.002512 -0.003432
v -0.004386 0.017954 -0.011231
v -0.000846 -0.002512 0.000019
v -0.009090 0.017954 -0.004983
v -0.027585 0.037546 -0.032994
v -0.033290 0.037546 -0.025416
v -0.042823 0.038712 -0.044809
v -0.046950 0.038712 -0.039327
v -0.057418 0.034653 -0.053223
v 0.003595 -0.002633 -0.000764
v 0.010272 0.017954 -0.008851
v -0.000238 -0.002633 -0.002957
v 0.003332 0.017954 -0.012820
v 0.027895 0.037546 -0.038007
v 0.019478 0.037546 -0.042821
v 0.037026 0.038712 -0.056707
v 0.030937 0.038712 -0.060190
v 0.042910 0.034653 -0.074088
v 0.004491 -0.001673 0.001519
v 0.014541 0.014474 -0.001163
v 0.002660 -0.001673 -0.002460
v 0.011224 0.014474 -0.008367
v 0.045567 0.033906 -0.014551
v 0.041544 0.033906 -0.023287
v 0.063712 0.035062 -0.024389
v 0.060802 0.035062 -0.030709
v 0.078475 0.031037 -0.035033
v 0.000169 -0.001497 0.002503
v -0.001980 0.017916 0.013007
v 0.004584 -0.001497 0.002653
v 0.006014 0.017916 0.013279
v -0.004014 0.037612 0.047797
v 0.005680 0.037612 0.048127
v -0.003396 0.038784 0.069072
v 0.003617 0.038784 0.069310
v -0.000515 0.034704 0.087601
v 0.003769 0.001550 -0.003078
v 0.002399 0.017916 -0.013712
v -0.000457 0.001550 -0.001790
v -0.005252 0.017916 -0.011380
v -0.006944 0.037612 -0.047285
v -0.016223 0.037612 -0.044457
v -0.014421 0.038784 -0.067213
v -0.021133 0.038784 -0.065167
v -0.023147 0.034704 -0.083811
v -0.001111 -0.001673 -0.000725
v -0.010710 0.014474 0.003280
v 0.001237 -0.001673 0.002973
v -0.006458 0.014474 0.009974
v -0.039663 0.033906 0.020703
v -0.034507 0.033906 0.028822
v -0.056327 0.035062 0.032884
v -0.052597 0.035062 0.038757
v -0.069531 0.031037 0.045409
vn -0.8400 0.5426 0.0000
vn -0.4921 0.8705 0.0000
vn -0.0551 0.9985 0.0000
vn 0.2162 0.9763 0.0000
vn -0.5868 0.4653 -0.6627
vn -0.3263 0.8705 -0.3684
vn -0.0365 0.9985 -0.0412
vn 0.1434 0.9763 0.1619
vn 0.3410 0.4352 -0.8333
vn 0.1995 0.8501 -0.4874
vn 0.0229 0.9982 -0.0559
vn -0.0893 0.9718 0.2183
vn 0.8565 0.5078 0.0925
vn 0.5236 0.8501 0.0565
vn 0.0600 0.9982 0.0065
vn -0.2345 0.9718 -0.0253
vn 0.7233 0.4245 0.5446
vn 0.4207 0.8501 0.3168
vn 0.0482 0.9982 0.0363
vn -0.1884 0.9718 -0.1419
vn -0.4437 0.4486 0.7758
vn -0.2476 0.8668 0.4328
vn -0.0278 0.9984 0.0487
vn 0.1092 0.9755 -0.1908
vn -0.7669 0.5359 0.3531
vn -0.4529 0.8668 0.2085
vn -0.0509 0.9984 0.0234
vn 0.1997 0.9755 -0.0919
vn 0.0299 0.4782 -0.8777
vn 0.0167 0.8705 -0.4919
vn 0.0019 0.9985 -0.0551
vn -0.0074 0.9763 0.2161
vn 0.2449 0.5426 0.8035
vn 0.1435 0.8705 0.4708
vn 0.0161 0.9985 0.0527
vn -0.0630 0.9763 -0.2069
vn 0.7127 0.5359 -0.4526
vn 0.4209 0.8668 -0.2673
vn 0.0473 0.9984 -0.0300
vn -0.1856 0.9755 0.1179
vn 0.8400 -0.5426 0.0000
vn 0.4921 -0.8705 0.0000
vn 0.0551 -0.9985 0.0000
vn -0.2162 -0.9763 0.0000
vn 0.5868 -0.4653 0.6627
vn 0.3263 -0.8705 0.3684
vn 0.0365 -0.9985 0.0412
vn -0.1434 -0.9763 -0.1619
vn -0.3410 -0.4352 0.8333
vn -0.1995 -0.8501 0.4874
vn -0.0229 -0.9982 0.0559
vn 0.0893 -0.9718 -0.2183
vn -0.8565 -0.5078 -0.0925
vn -0.5236 -0.8501 -0.0565
vn -0.0600 -0.9982 -0.0065
vn 0.2345 -0.9718 0.0253
vn -0.7233 -0.4245 -0.5446
vn -0.4207 -0.8501 -0.3168
vn -0.0482 -0.9982 -0.0363
vn 0.1884 -0.9718 0.1419
vn 0.4437 -0.4486 -0.7758
vn 0.2476 -0.8668 -0.4328
vn 0.0278 -0.9984 -0.0487
vn -0.1092 -0.9755 0.1908
vn 0.7669 -0.5359 -0.3531
vn 0.4529 -0.8668 -0.2085
vn 0.0509 -0.9984 -0.0234
vn -0.1997 -0.9755 0.0919
vn -0.0299 -0.4782 0.8777
vn -0.0167 -0.8705 0.4919
vn -0.0019 -0.9985 0.0551
vn 0.0074 -0.9763 -0.2161
vn -0.2449 -0.5426 -0.8035
vn -0.1435 -0.8705 -0.4708
vn -0.0161 -0.9985 -0.0527
vn 0.0630 -0.9763 0.2069
vn -0.7127 -0.5359 0.4526
vn -0.4209 -0.8668 0.2673
vn -0.0473 -0.9984 0.0301
vn 0.1856 -0.9755 -0.1179
usemtl YellowGreen
s off
f 1//1 2//1 4//1 3//1
f 4//2 2//2 5//2 6//2
f 6//3 5//3 7//3 8//3
f 8//4 7//4 9//4
f 10//5 11//5 13//5 12//5
f 13//6 11//6 14//6 15//6
f 15//7 14//7 16//7 17//7
f 17//8 16//8 18//8
f 19//9 20//9 22//9 21//9
f 22//10 20//10 23//10 24//10
f 24//11 23//11 25//11 26//11
f 26//12 25//12 27//12
f 28//13 29//13 31//13 30//13
f 31//14 29//14 32//14 33//14
f 33//15 32//15 34//15 35//15
f 35//16 34//16 36//16
f 37//17 38//17 40//17 39//17
f 40//18 38//18 41//18 42//18
f 42//19 41//19 43//19 44//19
f 44//20 43//20 45//20
f 46//21 47//21 49//21 48//21
f 49//22 47//22 50//22 51//22
f 51//23 50//23 52//23 53//23
f 53//24 52//24 54//24
f 55//25 56//25 58//25 57//25
f 58//26 56//26 59//26 60//26
f 60//27 59//27 61//27 62//27
f 62//28 61//28 63//28
f 64//29 65//29 67//29 66//29
f 67//30 65//30 68//30 69//30
f 69//31 68//31 70//31 71//31
f 71//32 70//32 72//32
f 73//33 74//33 76//33 75//33
f 76//34 74//34 77//34 78//34
f 78//35 77//35 79//35 80//35
f 80//36 79//36 81//36
f 82//37 83//37 85//37 84//37
f 85//38 83//38 86//38 87//38
f 87//39 86//39 88//39 89//39
f 89//40 88//40 90//40
f 91//41 93//41 94//41 92//41
f 94//42 96//42 95//42 92//42
f 96//43 98//43 97//43 95//43
f 98//44 99//44 97//44
f 100//45 102//45 103//45 101//45
f 103//46 105//46 104//46 101//46
f 105//47 107//47 106//47 104//47
f 107//48 108//48 106//48
f 109//49 111//49 112//49 110//49
f 112//50 114//50 113//50 110//50
f 114//51 116//51 115//51 113//51
f 116//52 117//52 115//52
f 118//53 120//53 121//53 119//53
f 121//54 123//54 122//54 119//54
f 123//55 125//55 124//55 122//55
f 125//56 126//56 124//56
f 127//57 129//57 130//57 128//57
f 130//58 132//58 131//58 128//58
f 132//59 134//59 133//59 131//59
f 134//60 135//60 133//60
f 136//61 138//61 139//61 137//61
f 139//62 141//62 140//62 137//62
f 141//63 143//63 142//63 140//63
f 143//64 144//64 142//64
f 145//65 147//65 148//65 146//65
f 148//66 150//66 149//66 146//66
f 150//67 152//67 151//67 149//67
f 152//68 153//68 151//68
f 154//69 156//69 157//69 155//69
f 157//70 159//70 158//70 155//70
f 159//71 161//71 160//71 158//71
f 161//72 162//72 160//72
f 163//73 165//73 166//73 164//73
f 166//74 168//74 167//74 164//74
f 168//75 170//75 169//75 167//75
f 170//76 171//76 169//76
f 172//77 174//77 175//77 173//77
f 175//78 177//78 176//78 173//78
f 177//79 179//79 178//79 176//79
f 179//80 180//80 178//80
