# Blender v2.79 (sub 0) OBJ File: ''
# www.blender.org
mtllib tall_potion.mtl
o Icosphere
v -0.004322 -0.000808 -0.000148
v -0.007551 -0.000942 0.010815
v 0.005702 -0.000677 0.014348
v 0.020018 0.056412 0.003195
v -0.008497 0.053965 -0.003055
v 0.008055 0.054408 -0.006616
v 0.006352 0.057702 0.019101
v 0.012450 -0.000264 0.004161
v 0.006584 -0.000902 -0.000396
v -0.014181 0.056297 0.013879
v 0.007597 0.007855 0.019550
v -0.013680 0.007007 0.013879
v -0.008497 0.005932 -0.003723
v 0.009013 0.006058 -0.004121
v 0.018431 0.007539 0.003195
v 0.007597 0.121982 0.019550
v -0.013680 0.120720 0.013879
v -0.008497 0.119255 -0.003723
v 0.005021 0.119560 -0.009106
v 0.018431 0.121333 0.003195
v 0.012217 0.132405 0.033744
v -0.025941 0.130162 0.020499
v -0.016646 0.129940 -0.011066
v 0.011589 0.129189 -0.015735
v 0.028824 0.129472 0.010016
v -0.003608 0.002409 0.000437
v -0.006509 0.004201 0.010286
v 0.005397 0.005067 0.013459
v 0.018257 0.066172 0.003440
v -0.007359 0.063973 -0.002175
v 0.007511 0.064371 -0.005374
v 0.005980 0.067330 0.017729
v 0.011459 0.003986 0.004308
v 0.006189 0.002734 0.000214
v -0.009745 0.066069 0.013037
v 0.007099 0.012731 0.018133
v -0.012015 0.011341 0.013037
v -0.007359 0.008464 -0.002775
v 0.008371 0.008987 -0.003132
v 0.016832 0.010996 0.003440
vn -0.2521 -0.0001 0.9677
vn -0.1151 -0.0200 -0.9932
vn 0.7964 0.0000 0.6048
vn 0.0255 -0.9996 0.0082
vn 0.7328 -0.4787 0.4836
vn -0.0195 -0.4721 -0.8813
vn -0.2113 -0.4810 0.8508
vn -0.9540 -0.0029 -0.2999
vn 0.5664 -0.5246 -0.6356
vn -0.7958 -0.5658 -0.2157
vn 0.6274 -0.0240 -0.7783
vn -0.2521 0.0000 0.9677
vn -0.2843 -0.0298 -0.9583
vn -0.9538 0.0021 -0.3004
vn 0.6562 0.0089 -0.7545
vn 0.4558 -0.8031 0.3838
vn -0.6877 -0.7037 -0.1784
vn 0.6370 -0.6028 -0.4804
vn -0.1628 -0.7429 0.6493
vn -0.1987 -0.5659 -0.8002
vn 0.0065 0.9988 -0.0493
vn -0.2709 0.0064 0.9626
vn -0.1150 -0.0156 -0.9932
vn 0.0439 -0.9827 0.1799
vn 0.7061 -0.4763 0.5240
vn -0.0044 -0.4707 -0.8823
vn -0.1934 -0.4791 0.8562
vn -0.9742 0.0213 -0.2246
vn 0.5949 -0.5307 -0.6037
vn -0.8090 -0.5722 -0.1341
vn 0.6274 -0.0190 -0.7785
vn -0.0507 0.9897 -0.1339
usemtl Glass
s off
f 12//1 11//1 7//1 10//1
f 14//2 13//2 5//2 6//2
f 11//3 15//3 4//3 7//3
f 2//4 1//4 9//4 8//4 3//4
f 15//5 11//5 3//5 8//5
f 13//6 14//6 9//6 1//6
f 11//7 12//7 2//7 3//7
f 13//8 12//8 10//8 5//8
f 14//9 15//9 8//9 9//9
f 12//10 13//10 1//10 2//10
f 15//11 14//11 6//11 4//11
f 10//12 7//12 16//12 17//12
f 6//13 5//13 18//13 19//13
f 7//3 4//3 20//3 16//3
f 5//14 10//14 17//14 18//14
f 4//15 6//15 19//15 20//15
usemtl Cork
f 16//16 20//16 25//16 21//16
f 18//17 17//17 22//17 23//17
f 20//18 19//18 24//18 25//18
f 17//19 16//19 21//19 22//19
f 19//20 18//20 23//20 24//20
f 24//21 23//21 22//21 21//21 25//21
usemtl Potion
f 37//22 36//22 32//22 35//22
f 39//23 38//23 30//23 31//23
f 36//3 40//3 29//3 32//3
f 27//24 26//24 34//24 33//24 28//24
f 40//25 36//25 28//25 33//25
f 38//26 39//26 34//26 26//26
f 36//27 37//27 27//27 28//27
f 38//28 37//28 35//28 30//28
f 39//29 40//29 33//29 34//29
f 37//30 38//30 26//30 27//30
f 40//31 39//31 31//31 29//31
f 32//32 29//32 31//32 30//32 35//32
