# Blender v2.79 (sub 0) OBJ File: 'temp.blend'
# www.blender.org
mtllib cabbage.mtl
o Icosphere
v -0.000145 -0.004239 -0.000447
v 0.018579 0.000646 0.013156
v -0.007297 0.000646 0.021564
v -0.023289 0.000646 -0.000447
v -0.007297 0.000646 -0.022458
v 0.018579 0.000646 -0.014050
v 0.007006 0.023791 0.021564
v -0.018869 0.023791 0.013156
v -0.018869 0.023791 -0.014050
v 0.007006 0.023791 -0.022458
v 0.022999 0.023791 -0.000447
v -0.000145 0.038094 -0.000447
v 0.016788 -0.000479 -0.006143
v 0.014265 -0.000479 0.015576
v 0.028916 0.004435 -0.008763
v 0.025469 0.004435 0.020906
v 0.043066 0.018779 -0.011091
v 0.038709 0.018779 0.026416
v 0.043989 0.038926 0.008023
v -0.016885 -0.000479 -0.006666
v 0.012010 -0.000479 -0.011278
v -0.024030 0.004435 -0.017454
v 0.015442 0.004435 -0.023755
v -0.031424 0.018779 -0.030277
v 0.018476 0.018779 -0.038242
v -0.006968 0.038926 -0.037352
v 0.006496 -0.000479 0.024088
v -0.014940 -0.000479 0.004171
v 0.002401 0.004435 0.036363
v -0.026882 0.004435 0.009156
v -0.003143 0.018779 0.050088
v -0.040163 0.018779 0.015692
v -0.023784 0.038926 0.035184
v 0.014508 -0.000479 0.007401
v -0.009553 -0.000479 0.024054
v 0.025615 0.004435 0.014040
v -0.007252 0.004435 0.036788
v 0.037827 0.018779 0.022405
v -0.003724 0.018779 0.051163
v 0.018833 0.038926 0.039359
v 0.000321 -0.000479 -0.014809
v 0.020377 -0.000479 0.006498
v 0.005229 0.004435 -0.026783
v 0.032626 0.004435 0.002323
v 0.011679 0.018779 -0.040105
v 0.046314 0.018779 -0.003310
v 0.031277 0.038926 -0.023854
v -0.013210 -0.000479 0.014228
v -0.001873 -0.000479 -0.012748
v -0.026145 0.004435 0.014601
v -0.010658 0.004435 -0.022249
v -0.040939 0.018779 0.014111
v -0.021360 0.018779 -0.032474
v -0.034036 0.038926 -0.010395
v 0.007835 0.000829 0.015881
v -0.011249 0.000829 0.000199
v 0.005014 0.004977 0.026434
v -0.021055 0.004977 0.005011
v 0.001046 0.017086 0.038283
v -0.031910 0.017086 0.011200
v -0.017110 0.034094 0.026784
v 0.011264 0.000829 -0.004569
v 0.006431 0.000829 0.019655
v 0.021900 0.004977 -0.007056
v 0.015298 0.004977 0.026033
v 0.034220 0.017086 -0.009144
v 0.025874 0.017086 0.032689
v 0.032639 0.034094 0.012290
v -0.014418 0.000829 -0.005065
v 0.010283 0.000829 -0.005065
v -0.018939 0.004977 -0.015009
v 0.014804 0.004977 -0.015009
v -0.023396 0.017086 -0.026682
v 0.019261 0.017086 -0.026682
v -0.002068 0.034094 -0.029326
v 0.018579 0.000646 0.013156
v -0.007297 0.000646 0.021564
v 0.007006 0.023791 0.021564
v 0.016788 -0.000479 -0.006143
v 0.014265 -0.000479 0.015576
v 0.028916 0.004435 -0.008763
v 0.025469 0.004435 0.020906
v 0.043066 0.018779 -0.011091
v 0.038709 0.018779 0.026416
v 0.043989 0.038926 0.008023
v -0.016885 -0.000479 -0.006666
v 0.012010 -0.000479 -0.011278
v -0.024030 0.004435 -0.017454
v 0.015442 0.004435 -0.023755
v -0.031424 0.018779 -0.030277
v 0.018476 0.018779 -0.038242
v -0.006968 0.038926 -0.037352
v 0.006496 -0.000479 0.024088
v -0.014940 -0.000479 0.004171
v 0.002401 0.004435 0.036363
v -0.026882 0.004435 0.009156
v -0.003143 0.018779 0.050088
v -0.040163 0.018779 0.015692
v -0.023784 0.038926 0.035184
v 0.014508 -0.000479 0.007401
v -0.009553 -0.000479 0.024054
v 0.025615 0.004435 0.014040
v -0.007252 0.004435 0.036788
v 0.037827 0.018779 0.022405
v -0.003724 0.018779 0.051163
v 0.018833 0.038926 0.039359
v 0.000321 -0.000479 -0.014809
v 0.020377 -0.000479 0.006498
v 0.005229 0.004435 -0.026783
v 0.032626 0.004435 0.002323
v 0.011679 0.018779 -0.040105
v 0.046314 0.018779 -0.003310
v 0.031277 0.038926 -0.023854
v -0.013210 -0.000479 0.014228
v -0.001873 -0.000479 -0.012748
v -0.026145 0.004435 0.014601
v -0.010658 0.004435 -0.022249
v -0.040939 0.018779 0.014111
v -0.021360 0.018779 -0.032474
v -0.034036 0.038926 -0.010395
v 0.007835 0.000829 0.015881
v -0.011249 0.000829 0.000199
v 0.005014 0.004977 0.026434
v -0.021055 0.004977 0.005011
v 0.001046 0.017086 0.038283
v -0.031910 0.017086 0.011200
v -0.017110 0.034094 0.026784
v 0.011264 0.000829 -0.004569
v 0.006431 0.000829 0.019655
v 0.021900 0.004977 -0.007056
v 0.015298 0.004977 0.026033
v 0.034220 0.017086 -0.009144
v 0.025874 0.017086 0.032689
v 0.032639 0.034094 0.012290
v -0.014418 0.000829 -0.005065
v 0.010283 0.000829 -0.005065
v -0.018939 0.004977 -0.015009
v 0.014804 0.004977 -0.015009
v -0.023396 0.017086 -0.026682
v 0.019261 0.017086 -0.026682
v -0.002068 0.034094 -0.029326
vn 0.0780 -0.9676 0.2401
vn 0.2525 -0.9676 0.0000
vn -0.2043 -0.9676 0.1484
vn -0.2043 -0.9676 -0.1484
vn 0.0780 -0.9676 -0.2401
vn 0.9822 -0.1876 0.0000
vn 0.3035 -0.1876 0.9342
vn -0.7946 -0.1876 0.5774
vn -0.7946 -0.1876 -0.5774
vn 0.3035 -0.1876 -0.9342
vn 0.7946 0.1876 0.5774
vn -0.3035 0.1876 0.9342
vn -0.9822 0.1876 0.0000
vn -0.3035 0.1876 -0.9342
vn 0.7946 0.1876 -0.5774
vn 0.4911 0.7947 0.3568
vn -0.1876 0.7947 0.5774
vn -0.6071 0.7947 0.0000
vn -0.1876 0.7947 -0.5774
vn 0.4911 0.7947 -0.3568
vn -0.3834 0.9225 -0.0445
vn -0.7162 0.6930 -0.0832
vn -0.9816 0.1531 -0.1140
vn 0.0607 0.9229 0.3802
vn 0.1135 0.6940 0.7109
vn 0.1558 0.1536 0.9758
vn 0.2620 0.9229 -0.2820
vn 0.4900 0.6940 -0.5274
vn 0.6726 0.1536 -0.7239
vn -0.2191 0.9229 -0.3165
vn -0.4097 0.6940 -0.5920
vn -0.5624 0.1536 -0.8125
vn -0.2803 0.9229 0.2639
vn -0.5242 0.6940 0.4935
vn -0.7195 0.1536 0.6773
vn 0.3549 0.9229 0.1492
vn 0.6637 0.6940 0.2789
vn 0.9110 0.1536 0.3829
vn 0.2444 0.9229 -0.2974
vn 0.4571 0.6940 -0.5562
vn 0.6274 0.1536 -0.7634
vn -0.3775 0.9229 -0.0753
vn -0.7060 0.6940 -0.1409
vn -0.9690 0.1536 -0.1933
vn 0.0000 0.9229 0.3850
vn 0.0000 0.6940 0.7199
vn 0.0000 0.1536 0.9881
vn 0.3834 -0.9225 0.0445
vn 0.7162 -0.6930 0.0832
vn 0.9816 -0.1531 0.1140
vn -0.0607 -0.9229 -0.3802
vn -0.1135 -0.6940 -0.7109
vn -0.1558 -0.1536 -0.9758
vn -0.2620 -0.9229 0.2820
vn -0.4900 -0.6940 0.5274
vn -0.6726 -0.1536 0.7239
vn 0.2191 -0.9229 0.3165
vn 0.4097 -0.6940 0.5920
vn 0.5624 -0.1536 0.8125
vn 0.2803 -0.9229 -0.2639
vn 0.5242 -0.6940 -0.4935
vn 0.7195 -0.1536 -0.6773
vn -0.3549 -0.9229 -0.1492
vn -0.6637 -0.6940 -0.2789
vn -0.9110 -0.1536 -0.3829
vn -0.2444 -0.9229 0.2974
vn -0.4571 -0.6940 0.5562
vn -0.6274 -0.1536 0.7634
vn 0.3775 -0.9229 0.0753
vn 0.7060 -0.6940 0.1409
vn 0.9690 -0.1536 0.1933
vn 0.0000 -0.9229 -0.3850
vn 0.0000 -0.6940 -0.7199
vn 0.0000 -0.1536 -0.9881
usemtl Light_Green
s off
f 1//1 2//1 3//1
f 2//2 1//2 6//2
f 1//3 3//3 4//3
f 1//4 4//4 5//4
f 1//5 5//5 6//5
f 2//6 6//6 11//6
f 3//7 2//7 7//7
f 4//8 3//8 8//8
f 5//9 4//9 9//9
f 6//10 5//10 10//10
f 2//11 11//11 7//11
f 3//12 7//12 8//12
f 4//13 8//13 9//13
f 5//14 9//14 10//14
f 6//15 10//15 11//15
f 7//16 11//16 12//16
f 8//17 7//17 12//17
f 9//18 8//18 12//18
f 10//19 9//19 12//19
f 11//20 10//20 12//20
f 13//21 14//21 16//21 15//21
f 15//22 16//22 18//22 17//22
f 17//23 18//23 19//23
f 20//24 21//24 23//24 22//24
f 22//25 23//25 25//25 24//25
f 24//26 25//26 26//26
f 27//27 28//27 30//27 29//27
f 29//28 30//28 32//28 31//28
f 31//29 32//29 33//29
f 34//30 35//30 37//30 36//30
f 36//31 37//31 39//31 38//31
f 38//32 39//32 40//32
f 41//33 42//33 44//33 43//33
f 43//34 44//34 46//34 45//34
f 45//35 46//35 47//35
f 48//36 49//36 51//36 50//36
f 50//37 51//37 53//37 52//37
f 52//38 53//38 54//38
f 55//39 56//39 58//39 57//39
f 57//40 58//40 60//40 59//40
f 59//41 60//41 61//41
f 62//42 63//42 65//42 64//42
f 64//43 65//43 67//43 66//43
f 66//44 67//44 68//44
f 69//45 70//45 72//45 71//45
f 71//46 72//46 74//46 73//46
f 73//47 74//47 75//47
f 77//14 78//14 76//14
f 79//48 81//48 82//48 80//48
f 81//49 83//49 84//49 82//49
f 83//50 85//50 84//50
f 86//51 88//51 89//51 87//51
f 88//52 90//52 91//52 89//52
f 90//53 92//53 91//53
f 93//54 95//54 96//54 94//54
f 95//55 97//55 98//55 96//55
f 97//56 99//56 98//56
f 100//57 102//57 103//57 101//57
f 102//58 104//58 105//58 103//58
f 104//59 106//59 105//59
f 107//60 109//60 110//60 108//60
f 109//61 111//61 112//61 110//61
f 111//62 113//62 112//62
f 114//63 116//63 117//63 115//63
f 116//64 118//64 119//64 117//64
f 118//65 120//65 119//65
f 121//66 123//66 124//66 122//66
f 123//67 125//67 126//67 124//67
f 125//68 127//68 126//68
f 128//69 130//69 131//69 129//69
f 130//70 132//70 133//70 131//70
f 132//71 134//71 133//71
f 135//72 137//72 138//72 136//72
f 137//73 139//73 140//73 138//73
f 139//74 141//74 140//74
