# Blender v2.79 (sub 0) OBJ File: 'temp.blend'
# www.blender.org
mtllib farmland_end_large.mtl
o Cylinder.001_Cylinder.001
v 0.499671 0.021700 -0.488209
v 0.499671 0.044965 -0.446869
v 0.523383 0.029366 -0.448446
v 0.523383 0.020734 -0.485486
v 0.499671 0.012782 -0.505118
v 0.523383 0.011050 -0.504271
v 0.499671 0.051667 -0.392038
v 0.523383 0.031853 -0.387450
v 0.499671 0.035900 -0.348041
v 0.499671 0.010219 -0.338075
v 0.523383 0.010099 -0.336280
v 0.523383 0.026003 -0.349075
v 0.536774 0.011821 -0.387450
v 0.536774 0.011572 -0.448446
v 0.536774 0.010709 -0.485486
v 0.536774 0.010283 -0.336280
v 0.536774 0.011236 -0.349075
v 0.536774 0.010378 -0.504271
v 0.499671 0.012782 -0.255937
v 0.536774 0.010378 -0.257977
v 0.536468 0.010219 -0.346698
v 0.499671 0.010219 0.411947
v 0.499671 0.013097 0.497884
v 0.536774 0.010378 0.497598
v 0.536468 0.010219 0.410022
v 0.523383 0.031853 0.355359
v 0.523383 0.026003 0.401282
v 0.536774 0.011236 0.401282
v 0.536774 0.011821 0.355359
v 0.523383 0.011050 0.241271
v 0.523383 0.020734 0.258634
v 0.536774 0.010709 0.258634
v 0.536774 0.010378 0.239800
v 0.523383 0.010099 0.411247
v 0.536774 0.010283 0.411247
v 0.523383 0.029366 0.302453
v 0.536774 0.011572 0.302453
v 0.499671 0.051667 0.357285
v 0.499671 0.035900 0.401282
v 0.499671 0.044965 0.302453
v 0.499671 0.012782 0.244204
v 0.499671 0.021700 0.261114
v 0.499671 0.021700 -0.239027
v 0.499671 0.044965 -0.197688
v 0.523383 0.029366 -0.195403
v 0.523383 0.020734 -0.244037
v 0.523383 0.011050 -0.257977
v 0.499671 0.051667 -0.142856
v 0.523383 0.031853 -0.141874
v 0.499671 0.035900 -0.098859
v 0.499671 0.010219 -0.088894
v 0.523383 0.010099 -0.088316
v 0.523383 0.026003 -0.098668
v 0.536774 0.011821 -0.141874
v 0.536774 0.011572 -0.195403
v 0.536774 0.010709 -0.244037
v 0.536774 0.010283 -0.088316
v 0.536774 0.011236 -0.098668
v 0.499671 0.013097 -0.007266
v 0.536774 0.010378 -0.009190
v 0.536468 0.010219 -0.093903
v 0.499671 0.021700 0.009912
v 0.499671 0.044965 0.051252
v 0.523383 0.029366 0.049059
v 0.523383 0.020734 0.007719
v 0.523383 0.011050 -0.009190
v 0.499671 0.051667 0.106083
v 0.523383 0.031853 0.103890
v 0.499671 0.035900 0.150080
v 0.499671 0.010219 0.160046
v 0.523383 0.010099 0.160712
v 0.523383 0.026003 0.147888
v 0.536774 0.011821 0.103890
v 0.536774 0.011572 0.049059
v 0.536774 0.010709 0.007719
v 0.536774 0.010283 0.160712
v 0.536774 0.011236 0.147888
v 0.536468 0.010219 0.157853
vn 0.3156 0.8789 -0.3577
vn 0.0849 0.8836 -0.4605
vn 0.5997 0.7977 -0.0633
vn 0.0870 0.4783 0.8739
vn 0.5062 0.8342 0.2189
vn 0.8161 0.5778 -0.0130
vn 0.7176 0.6908 -0.0885
vn 0.4139 0.7602 0.5008
vn 0.3600 0.9015 -0.2403
vn 0.7914 0.6091 0.0511
vn 0.0302 0.9994 -0.0160
vn 0.0362 0.9992 -0.0176
vn 0.7918 0.6093 0.0427
vn 0.3473 0.9038 -0.2501
vn 0.3839 0.7050 0.5963
vn 0.7184 0.6916 -0.0749
vn 0.8160 0.5778 -0.0149
vn 0.5261 0.8269 0.1988
vn 0.1065 0.4419 0.8907
vn 0.5951 0.8007 -0.0683
vn -0.0044 0.8789 -0.4770
vn 0.2950 0.8948 -0.3352
vn 0.2961 0.9003 -0.3192
vn -0.0280 0.8560 -0.5162
vn 0.5999 0.7972 -0.0676
vn 0.0779 0.4376 0.8958
vn 0.5158 0.8315 0.2061
vn 0.8161 0.5778 -0.0148
vn 0.7188 0.6920 -0.0675
vn 0.3890 0.7144 0.5816
vn 0.3519 0.8809 -0.3164
vn 0.7917 0.6093 0.0454
vn 0.0350 0.9992 -0.0183
vn 0.2808 0.8954 -0.3454
vn 0.0149 0.8811 -0.4727
vn 0.5930 0.8024 -0.0672
vn 0.1287 0.4766 0.8697
vn 0.5333 0.8215 0.2018
vn 0.8161 0.5778 -0.0144
vn 0.7181 0.6914 -0.0794
vn 0.4142 0.7606 0.4999
vn 0.3576 0.8954 -0.2652
vn 0.7917 0.6093 0.0446
vn 0.0310 0.9994 -0.0164
usemtl Brown
s 1
f 1//1 2//1 3//1 4//1
f 5//2 1//2 4//2 6//2
f 2//3 7//3 8//3 3//3
f 9//4 10//4 11//4 12//4
f 7//5 9//5 12//5 8//5
f 3//6 8//6 13//6 14//6
f 4//7 3//7 14//7 15//7
f 12//8 11//8 16//8 17//8
f 6//9 4//9 15//9 18//9
f 8//10 12//10 17//10 13//10
f 10//11 19//11 20//11 21//11
f 22//12 23//12 24//12 25//12
f 26//13 27//13 28//13 29//13
f 30//14 31//14 32//14 33//14
f 27//15 34//15 35//15 28//15
f 31//16 36//16 37//16 32//16
f 36//17 26//17 29//17 37//17
f 38//18 39//18 27//18 26//18
f 39//19 22//19 34//19 27//19
f 40//20 38//20 26//20 36//20
f 41//21 42//21 31//21 30//21
f 42//22 40//22 36//22 31//22
f 43//23 44//23 45//23 46//23
f 19//24 43//24 46//24 47//24
f 44//25 48//25 49//25 45//25
f 50//26 51//26 52//26 53//26
f 48//27 50//27 53//27 49//27
f 45//28 49//28 54//28 55//28
f 46//29 45//29 55//29 56//29
f 53//30 52//30 57//30 58//30
f 47//31 46//31 56//31 20//31
f 49//32 53//32 58//32 54//32
f 51//33 59//33 60//33 61//33
f 62//34 63//34 64//34 65//34
f 59//35 62//35 65//35 66//35
f 63//36 67//36 68//36 64//36
f 69//37 70//37 71//37 72//37
f 67//38 69//38 72//38 68//38
f 64//39 68//39 73//39 74//39
f 65//40 64//40 74//40 75//40
f 72//41 71//41 76//41 77//41
f 66//42 65//42 75//42 60//42
f 68//43 72//43 77//43 73//43
f 70//44 41//44 33//44 78//44
