# Blender v2.79 (sub 0) OBJ File: 'temp.blend'
# www.blender.org
mtllib farmland_end_large_inverted.mtl
o Cylinder.015_Cylinder.001
v -0.503031 0.045048 0.302356
v -0.503020 0.051607 0.357068
v -0.503305 0.010284 0.411409
v -0.502559 0.013105 0.497794
v -0.503073 0.036166 0.401449
v -0.502995 0.021685 0.261101
v -0.503071 0.012826 0.244155
v -0.539343 0.033479 0.302356
v -0.539332 0.037290 0.357068
v -0.539617 0.011684 0.411409
v -0.539385 0.028319 0.401449
v -0.539307 0.019907 0.261101
v -0.539383 0.014760 0.244155
v -0.560434 0.015062 0.302356
v -0.560423 0.015204 0.357068
v -0.560708 0.014305 0.411409
v -0.560476 0.014868 0.401449
v -0.560398 0.014553 0.261101
v -0.560474 0.014361 0.244155
v -0.558893 0.013105 0.497794
v -0.503031 0.045048 0.051154
v -0.503020 0.051607 0.105866
v -0.503305 0.010284 0.160207
v -0.502559 0.013105 0.246592
v -0.503073 0.036166 0.150247
v -0.502995 0.021685 0.009899
v -0.503071 0.012826 -0.007047
v -0.539343 0.033479 0.051154
v -0.539332 0.037290 0.105866
v -0.539617 0.011684 0.163625
v -0.539385 0.028319 0.150247
v -0.539307 0.019907 0.009899
v -0.539383 0.014760 -0.007047
v -0.560434 0.015062 0.051154
v -0.560423 0.015204 0.105866
v -0.560708 0.014305 0.160207
v -0.560476 0.014868 0.150247
v -0.560398 0.014553 0.009899
v -0.560474 0.014361 -0.007047
v -0.558893 0.013105 0.246592
v -0.503031 0.045048 -0.197786
v -0.503020 0.051607 -0.143074
v -0.503305 0.010284 -0.088733
v -0.502559 0.013105 -0.002348
v -0.503073 0.036166 -0.098693
v -0.502995 0.021685 -0.239041
v -0.503071 0.012826 -0.255987
v -0.539343 0.033479 -0.197786
v -0.539332 0.037290 -0.143074
v -0.539617 0.011684 -0.088733
v -0.539385 0.028319 -0.098693
v -0.539307 0.019907 -0.239041
v -0.539383 0.014760 -0.255987
v -0.560434 0.015062 -0.197786
v -0.560423 0.015204 -0.143074
v -0.560708 0.014305 -0.088733
v -0.560476 0.014868 -0.098693
v -0.560398 0.014553 -0.239041
v -0.560474 0.014361 -0.255987
v -0.558893 0.013105 -0.002348
v -0.503031 0.045048 -0.446967
v -0.503020 0.051607 -0.392255
v -0.503305 0.010284 -0.337914
v -0.502559 0.013105 -0.251529
v -0.503073 0.036166 -0.347874
v -0.502995 0.021685 -0.488222
v -0.503071 0.012826 -0.505168
v -0.539343 0.033479 -0.446967
v -0.539332 0.037290 -0.392255
v -0.539617 0.011684 -0.337914
v -0.539385 0.028319 -0.347874
v -0.539307 0.019907 -0.488222
v -0.539383 0.014760 -0.505168
v -0.560434 0.015062 -0.446967
v -0.560423 0.015204 -0.392255
v -0.560708 0.014305 -0.337914
v -0.560476 0.014868 -0.347874
v -0.560398 0.014553 -0.488222
v -0.560474 0.014361 -0.505168
v -0.558893 0.013105 -0.251529
vn -0.0377 0.4243 0.9047
vn -0.2823 0.9251 0.2541
vn -0.1654 0.9001 -0.4031
vn 0.0020 0.9242 -0.3819
vn -0.3344 0.9382 -0.0888
vn -0.4856 0.8617 -0.1475
vn -0.6924 0.7211 -0.0259
vn -0.6423 0.7624 0.0792
vn -0.1335 0.9791 -0.1536
vn -0.1913 0.7451 0.6389
vn 0.0353 0.9993 -0.0099
vn -0.0015 0.4812 0.8766
vn -0.2472 0.7824 0.5716
usemtl Brown
s off
f 3//1 5//1 11//1 10//1
f 5//2 2//2 9//2 11//2
f 1//3 6//3 12//3 8//3
f 6//4 7//4 13//4 12//4
f 2//5 1//5 8//5 9//5
f 8//6 12//6 18//6 14//6
f 9//7 8//7 14//7 15//7
f 11//8 9//8 15//8 17//8
f 12//9 13//9 19//9 18//9
f 10//10 11//10 17//10 16//10
f 4//11 3//11 16//11 20//11
f 23//12 25//12 31//12 30//12
f 25//2 22//2 29//2 31//2
f 21//3 26//3 32//3 28//3
f 26//4 27//4 33//4 32//4
f 22//5 21//5 28//5 29//5
f 28//6 32//6 38//6 34//6
f 29//7 28//7 34//7 35//7
f 31//8 29//8 35//8 37//8
f 32//9 33//9 39//9 38//9
f 30//13 31//13 37//13 36//13
f 24//11 23//11 36//11 40//11
f 43//1 45//1 51//1 50//1
f 45//2 42//2 49//2 51//2
f 41//3 46//3 52//3 48//3
f 46//4 47//4 53//4 52//4
f 42//5 41//5 48//5 49//5
f 48//6 52//6 58//6 54//6
f 49//7 48//7 54//7 55//7
f 51//8 49//8 55//8 57//8
f 52//9 53//9 59//9 58//9
f 50//10 51//10 57//10 56//10
f 44//11 43//11 56//11 60//11
f 63//1 65//1 71//1 70//1
f 65//2 62//2 69//2 71//2
f 61//3 66//3 72//3 68//3
f 66//4 67//4 73//4 72//4
f 62//5 61//5 68//5 69//5
f 68//6 72//6 78//6 74//6
f 69//7 68//7 74//7 75//7
f 71//8 69//8 75//8 77//8
f 72//9 73//9 79//9 78//9
f 70//10 71//10 77//10 76//10
f 64//11 63//11 76//11 80//11
