# Blender v2.79 (sub 0) OBJ File: ''
# www.blender.org
mtllib onion.mtl
o Cube.003_Cube.004
v 0.000858 0.017602 0.006854
v -0.005604 0.050022 0.000846
v 0.000496 0.017602 0.001888
v -0.005966 0.050022 -0.004120
v 0.005824 0.017602 0.006493
v -0.000639 0.050022 0.000485
v 0.005462 0.017602 0.001527
v -0.001000 0.050022 -0.004481
v -0.011352 0.089767 -0.001063
v -0.011714 0.089767 -0.006028
v -0.006748 0.089767 -0.006390
v -0.006387 0.089767 -0.001424
v -0.009050 0.112856 -0.003726
v 0.002097 0.017455 -0.001239
v 0.008882 0.046632 -0.003136
v 0.005629 0.017455 0.000585
v 0.012414 0.046632 -0.001312
v 0.000273 0.017455 0.002294
v 0.007058 0.046632 0.000397
v 0.003806 0.017455 0.004117
v 0.010591 0.046632 0.002220
v 0.012577 0.082402 -0.006255
v 0.016110 0.082402 -0.004431
v 0.014286 0.082402 -0.000899
v 0.010754 0.082402 -0.002722
v 0.013432 0.103181 -0.003577
v 0.005473 0.017602 0.005926
v 0.000230 0.050022 0.011739
v 0.001073 0.017602 0.006313
v -0.004171 0.050022 0.012126
v 0.005086 0.017602 0.001526
v -0.000157 0.050022 0.007339
v 0.000686 0.017602 0.001913
v -0.004558 0.050022 0.007725
v -0.001387 0.089767 0.016863
v -0.005788 0.089767 0.017250
v -0.006174 0.089767 0.012850
v -0.001774 0.089767 0.012463
v -0.003781 0.112856 0.014857
v 0.003352 0.017395 0.001547
v 0.010373 0.045241 0.005010
v 0.004922 0.017395 0.005675
v 0.011943 0.045241 0.009138
v -0.000777 0.017395 0.003117
v 0.006244 0.045241 0.006580
v 0.000794 0.017395 0.007246
v 0.007814 0.045241 0.010709
v 0.015744 0.079381 0.005170
v 0.017314 0.079381 0.009299
v 0.013185 0.079381 0.010869
v 0.011615 0.079381 0.006740
v 0.014465 0.099213 0.008019
v -0.002666 0.017601 0.003220
v -0.003432 0.050008 -0.005858
v 0.000506 0.017601 -0.000825
v -0.000260 0.050008 -0.009903
v 0.001379 0.017601 0.006392
v 0.000613 0.050008 -0.002686
v 0.004551 0.017601 0.002347
v 0.003785 0.050008 -0.006731
v -0.006499 0.089737 -0.011308
v -0.003327 0.089737 -0.015353
v 0.000719 0.089737 -0.012181
v -0.002453 0.089737 -0.008136
v -0.002890 0.112816 -0.011744
v -0.000701 -0.003595 -0.001271
v 0.012682 0.002420 0.008452
v -0.005850 0.002359 0.014578
v -0.011445 0.005319 -0.001271
v -0.002918 0.007104 -0.008093
v 0.008110 0.005246 -0.007672
v 0.004771 0.019546 0.015572
v -0.011957 0.017648 0.006907
v -0.007218 0.014719 -0.006005
v 0.001814 0.014761 -0.009012
v 0.013129 0.017606 -0.001271
v -0.000701 0.024192 -0.001271
vn -0.9807 -0.1822 0.0714
vn -0.0712 -0.1955 -0.9781
vn 0.9807 0.1822 -0.0714
vn 0.0712 0.1955 0.9781
vn 0.0000 -1.0000 0.0000
vn 0.9876 0.1394 -0.0719
vn 0.0722 0.1072 0.9916
vn -0.9876 -0.1394 0.0719
vn 0.0725 0.0583 0.9957
vn -0.0725 -0.0583 -0.9957
vn -0.0722 0.1072 -0.9916
vn 0.9916 0.1072 -0.0722
vn -0.9916 0.1072 0.0722
vn 0.4526 -0.1623 -0.8768
vn 0.8750 -0.1741 0.4517
vn -0.4526 0.1623 0.8768
vn -0.8750 0.1741 -0.4517
vn -0.4551 0.1239 0.8818
vn -0.8846 0.0952 -0.4566
vn 0.4551 -0.1239 -0.8818
vn -0.8874 0.0517 -0.4581
vn 0.8874 -0.0517 0.4581
vn 0.8846 0.0952 0.4566
vn -0.4566 0.0952 0.8846
vn 0.4566 0.0952 -0.8846
vn 0.0864 -0.1623 0.9830
vn -0.9809 -0.1741 0.0862
vn -0.0864 0.1623 -0.9830
vn 0.9809 0.1741 -0.0862
vn -0.0869 0.1239 -0.9885
vn 0.9916 0.0952 -0.0872
vn 0.0869 -0.1239 0.9885
vn 0.9948 0.0517 -0.0875
vn -0.9948 -0.0517 0.0875
vn -0.9916 0.0952 0.0872
vn -0.0872 0.0952 -0.9916
vn 0.0872 0.0952 0.9916
vn 0.9180 -0.1880 -0.3492
vn 0.3482 -0.2016 0.9155
vn -0.9180 0.1880 0.3492
vn -0.3482 0.2016 -0.9155
vn -0.9250 0.1439 0.3518
vn -0.3533 0.1107 -0.9289
vn 0.9250 -0.1439 -0.3518
vn -0.3549 0.0602 -0.9330
vn 0.3549 -0.0602 0.9330
vn 0.3533 0.1107 0.9289
vn -0.9289 0.1107 0.3533
vn 0.9289 0.1107 -0.3533
vn -0.7729 -0.1880 -0.6060
vn 0.6044 -0.2016 -0.7708
vn 0.7729 0.1880 0.6060
vn -0.6044 0.2016 0.7708
vn 0.7788 0.1439 0.6106
vn -0.6132 0.1107 0.7821
vn -0.7788 -0.1439 -0.6106
vn -0.6159 0.0602 0.7855
vn 0.6159 -0.0602 -0.7855
vn 0.6132 0.1107 -0.7821
vn 0.7821 0.1107 0.6132
vn -0.7821 0.1107 -0.6132
vn 0.1304 -0.9134 0.3855
vn 0.5616 -0.7731 -0.2947
vn -0.6364 -0.7671 0.0814
vn -0.4517 -0.5444 -0.7069
vn -0.0600 -0.5455 -0.8359
vn 0.9276 -0.2205 -0.3017
vn 0.3052 -0.2419 0.9210
vn -0.9307 -0.2283 0.2859
vn -0.6038 -0.1250 -0.7873
vn 0.0162 -0.1290 -0.9915
vn 0.8809 0.2365 0.4099
vn -0.4678 0.2399 0.8506
vn -0.9003 0.2140 -0.3790
vn -0.3152 0.0813 -0.9455
vn 0.5120 0.2218 -0.8298
vn 0.4274 0.8975 0.1087
vn -0.2772 0.8993 0.3382
vn -0.6574 0.6461 -0.3878
vn -0.2620 0.5696 -0.7790
vn 0.3101 0.6512 -0.6926
usemtl Green
s off
f 1//1 2//1 4//1 3//1
f 3//2 4//2 8//2 7//2
f 7//3 8//3 6//3 5//3
f 5//4 6//4 2//4 1//4
f 3//5 7//5 5//5 1//5
f 6//6 8//6 11//6 12//6
f 9//7 12//7 13//7
f 4//8 2//8 9//8 10//8
f 2//9 6//9 12//9 9//9
f 8//10 4//10 10//10 11//10
f 11//11 10//11 13//11
f 12//12 11//12 13//12
f 10//13 9//13 13//13
f 14//14 15//14 17//14 16//14
f 16//15 17//15 21//15 20//15
f 20//16 21//16 19//16 18//16
f 18//17 19//17 15//17 14//17
f 16//5 20//5 18//5 14//5
f 19//18 21//18 24//18 25//18
f 22//19 25//19 26//19
f 17//20 15//20 22//20 23//20
f 15//21 19//21 25//21 22//21
f 21//22 17//22 23//22 24//22
f 24//23 23//23 26//23
f 25//24 24//24 26//24
f 23//25 22//25 26//25
f 27//26 28//26 30//26 29//26
f 29//27 30//27 34//27 33//27
f 33//28 34//28 32//28 31//28
f 31//29 32//29 28//29 27//29
f 29//5 33//5 31//5 27//5
f 32//30 34//30 37//30 38//30
f 35//31 38//31 39//31
f 30//32 28//32 35//32 36//32
f 28//33 32//33 38//33 35//33
f 34//34 30//34 36//34 37//34
f 37//35 36//35 39//35
f 38//36 37//36 39//36
f 36//37 35//37 39//37
f 40//38 41//38 43//38 42//38
f 42//39 43//39 47//39 46//39
f 46//40 47//40 45//40 44//40
f 44//41 45//41 41//41 40//41
f 42//5 46//5 44//5 40//5
f 45//42 47//42 50//42 51//42
f 48//43 51//43 52//43
f 43//44 41//44 48//44 49//44
f 41//45 45//45 51//45 48//45
f 47//46 43//46 49//46 50//46
f 50//47 49//47 52//47
f 51//48 50//48 52//48
f 49//49 48//49 52//49
f 53//50 54//50 56//50 55//50
f 55//51 56//51 60//51 59//51
f 59//52 60//52 58//52 57//52
f 57//53 58//53 54//53 53//53
f 55//5 59//5 57//5 53//5
f 58//54 60//54 63//54 64//54
f 61//55 64//55 65//55
f 56//56 54//56 61//56 62//56
f 54//57 58//57 64//57 61//57
f 60//58 56//58 62//58 63//58
f 63//59 62//59 65//59
f 64//60 63//60 65//60
f 62//61 61//61 65//61
usemtl White
f 66//62 67//62 68//62
f 67//63 66//63 71//63
f 66//64 68//64 69//64
f 66//65 69//65 70//65
f 66//66 70//66 71//66
f 67//67 71//67 76//67
f 68//68 67//68 72//68
f 69//69 68//69 73//69
f 70//70 69//70 74//70
f 71//71 70//71 75//71
f 67//72 76//72 72//72
f 68//73 72//73 73//73
f 69//74 73//74 74//74
f 70//75 74//75 75//75
f 71//76 75//76 76//76
f 72//77 76//77 77//77
f 73//78 72//78 77//78
f 74//79 73//79 77//79
f 75//80 74//80 77//80
f 76//81 75//81 77//81
