# Blender v2.79 (sub 0) OBJ File: ''
# www.blender.org
mtllib barrel_open.mtl
o Cylinder
v 0.000000 0.059856 -0.060545
v 0.000000 0.118439 -0.060545
v 0.042812 0.059856 -0.042812
v 0.042812 0.118439 -0.042812
v 0.060545 0.059856 0.000000
v 0.060545 0.118439 0.000000
v 0.042812 0.059856 0.042812
v 0.042812 0.118439 0.042812
v -0.000000 0.059856 0.060545
v -0.000000 0.118439 0.060545
v -0.042812 0.059856 0.042812
v -0.042812 0.118439 0.042812
v -0.060545 0.059856 -0.000000
v -0.060545 0.118439 -0.000000
v -0.042812 0.059856 -0.042812
v -0.042812 0.118439 -0.042812
v 0.035320 0.157293 -0.035320
v -0.000000 0.157293 -0.049950
v 0.049950 0.157293 0.000000
v 0.035320 0.157293 0.035320
v -0.000000 0.157293 0.049950
v -0.035320 0.157293 0.035320
v -0.049950 0.157293 -0.000000
v -0.035320 0.157293 -0.035320
v 0.022005 0.179307 -0.022005
v -0.000000 0.179307 -0.031120
v 0.031120 0.179307 0.000000
v 0.022005 0.179307 0.022005
v -0.000000 0.179307 0.031120
v -0.022005 0.179307 0.022005
v -0.031120 0.179307 -0.000000
v -0.022005 0.179307 -0.022005
v -0.000000 0.018550 -0.046055
v 0.032566 0.018550 -0.032566
v 0.046055 0.018550 0.000000
v 0.032566 0.018550 0.032566
v -0.000000 0.018550 0.046055
v -0.032566 0.018550 0.032566
v -0.046055 0.018550 -0.000000
v -0.032566 0.018550 -0.032566
v -0.000000 0.000314 -0.035677
v 0.025227 0.000314 -0.025227
v 0.035677 0.000314 0.000000
v 0.025227 0.000314 0.025227
v -0.000000 0.000314 0.035677
v -0.025227 0.000314 0.025227
v -0.035677 0.000314 -0.000000
v -0.025227 0.000314 -0.025227
v 0.027198 0.179307 -0.027198
v -0.000000 0.179307 -0.038464
v 0.038464 0.179307 0.000000
v 0.027198 0.179307 0.027198
v -0.000000 0.179307 0.038464
v -0.027198 0.179307 0.027198
v -0.038464 0.179307 -0.000000
v -0.027198 0.179307 -0.027198
v 0.037469 0.090152 -0.037469
v -0.000000 0.090152 -0.052989
v 0.052989 0.090152 0.000000
v 0.037469 0.090152 0.037469
v -0.000000 0.090152 0.052989
v -0.037469 0.090152 0.037469
v -0.052989 0.090152 -0.000000
v -0.037469 0.090152 -0.037469
v 0.000652 0.065931 -0.056724
v 0.000652 0.055931 -0.056724
v 0.000652 0.115852 -0.056724
v 0.000652 0.125852 -0.056724
v 0.040914 0.115852 -0.040047
v 0.040914 0.125852 -0.040047
v 0.057591 0.115852 0.000216
v 0.057591 0.125852 0.000216
v 0.040914 0.115852 0.040478
v 0.040914 0.125852 0.040478
v 0.000652 0.115852 0.057155
v 0.000652 0.125852 0.057155
v -0.039611 0.115852 0.040478
v -0.039611 0.125852 0.040478
v -0.056288 0.115852 0.000215
v -0.056288 0.125852 0.000215
v -0.039611 0.115852 -0.040047
v -0.039611 0.125852 -0.040047
v 0.040914 0.055931 -0.040047
v 0.040914 0.065931 -0.040047
v 0.057591 0.055931 0.000216
v 0.057591 0.065931 0.000216
v 0.040914 0.055931 0.040478
v 0.040914 0.065931 0.040478
v 0.000652 0.055931 0.057155
v 0.000652 0.065931 0.057155
v -0.039611 0.055931 0.040478
v -0.039611 0.065931 0.040478
v -0.056288 0.055931 0.000215
v -0.056288 0.065931 0.000215
v -0.039611 0.055931 -0.040047
v -0.039611 0.065931 -0.040047
v 0.025049 0.011060 -0.025049
v -0.000000 0.011060 -0.035424
v 0.035424 0.011060 0.000000
v 0.025049 0.011060 0.025049
v -0.000000 0.011060 0.035424
v -0.025049 0.011060 0.025049
v -0.035424 0.011060 -0.000000
v -0.025049 0.011060 -0.025049
v -0.045795 0.065931 0.046663
v 0.000652 0.065931 0.065902
v 0.000652 0.115852 -0.065471
v 0.047099 0.115852 -0.046232
v 0.066338 0.055931 0.000216
v 0.047099 0.055931 0.046663
v 0.047099 0.125852 -0.046232
v 0.000652 0.125852 -0.065471
v 0.000652 0.055931 0.065902
v -0.045795 0.055931 0.046663
v 0.066338 0.115852 0.000216
v 0.066338 0.065931 0.000216
v 0.047099 0.065931 -0.046232
v 0.066338 0.125852 0.000216
v 0.047099 0.115852 0.046663
v 0.047099 0.055931 -0.046232
v 0.047099 0.125852 0.046663
v 0.047099 0.065931 0.046663
v 0.000652 0.115852 0.065902
v 0.000652 0.125852 0.065902
v -0.045795 0.115852 0.046663
v -0.045795 0.125852 0.046663
v -0.065034 0.115852 0.000215
v 0.000652 0.065931 -0.065471
v -0.065034 0.125852 0.000215
v -0.045795 0.115852 -0.046232
v 0.000652 0.055931 -0.065471
v -0.045795 0.125852 -0.046232
v -0.065034 0.055931 0.000215
v -0.065034 0.065931 0.000215
v -0.045795 0.055931 -0.046232
v -0.045795 0.065931 -0.046232
vn 0.3827 0.0000 -0.9239
vn 0.9239 0.0000 -0.3827
vn 0.9239 0.0000 0.3827
vn 0.3827 0.0000 0.9239
vn -0.3827 0.0000 0.9239
vn -0.9239 0.0000 0.3827
vn -0.8959 0.2443 0.3711
vn -0.9239 0.0000 -0.3827
vn -0.3827 0.0000 -0.9239
vn 0.8789 -0.3083 -0.3640
vn -0.3447 0.4342 0.8322
vn 0.3711 0.2443 0.8959
vn -0.8959 0.2443 -0.3711
vn 0.8959 0.2443 -0.3711
vn -0.3711 0.2443 0.8959
vn -0.3711 0.2443 -0.8959
vn 0.3711 0.2443 -0.8959
vn 0.8959 0.2443 0.3711
vn 0.9010 -0.2210 0.3732
vn 0.8322 0.4342 0.3447
vn 0.3447 0.4342 -0.8322
vn -0.3447 0.4342 -0.8322
vn -0.8322 0.4342 0.3447
vn 0.3447 0.4342 0.8322
vn 0.8322 0.4342 -0.3447
vn -0.8322 0.4342 -0.3447
vn -0.8177 -0.4654 0.3387
vn -0.3640 -0.3083 0.8789
vn -0.3640 -0.3083 -0.8789
vn 0.3640 -0.3083 -0.8789
vn 0.8789 -0.3083 0.3640
vn -0.8789 -0.3083 0.3640
vn 0.3640 -0.3083 0.8789
vn -0.8789 -0.3083 -0.3640
vn 0.0000 -1.0000 0.0000
vn 0.3387 -0.4654 0.8177
vn 0.8177 -0.4654 -0.3387
vn -0.8177 -0.4654 -0.3387
vn -0.3387 -0.4654 0.8177
vn 0.8177 -0.4654 0.3387
vn 0.3387 -0.4654 -0.8177
vn -0.3387 -0.4654 -0.8177
vn 0.0000 1.0000 0.0000
vn -0.9050 0.2010 0.3749
vn 0.3732 -0.2210 -0.9010
vn -0.9010 -0.2210 -0.3732
vn -0.3732 -0.2210 0.9010
vn 0.3732 -0.2210 0.9010
vn 0.9010 -0.2210 -0.3732
vn -0.3732 -0.2210 -0.9010
vn -0.9010 -0.2210 0.3732
vn 0.9050 0.2010 0.3749
vn 0.3749 0.2010 -0.9050
vn -0.9050 0.2010 -0.3749
vn -0.3749 0.2010 0.9050
vn 0.3749 0.2010 0.9050
vn 0.9050 0.2010 -0.3749
vn -0.3749 0.2010 -0.9050
usemtl Wood
s off
f 1//1 2//1 4//1 3//1
f 3//2 4//2 6//2 5//2
f 5//3 6//3 8//3 7//3
f 7//4 8//4 10//4 9//4
f 9//5 10//5 12//5 11//5
f 11//6 12//6 14//6 13//6
f 14//7 12//7 22//7 23//7
f 13//8 14//8 16//8 15//8
f 15//9 16//9 2//9 1//9
f 3//10 5//10 35//10 34//10
f 22//11 21//11 53//11 54//11
f 10//12 8//12 20//12 21//12
f 16//13 14//13 23//13 24//13
f 6//14 4//14 17//14 19//14
f 12//15 10//15 21//15 22//15
f 2//16 16//16 24//16 18//16
f 4//17 2//17 18//17 17//17
f 8//18 6//18 19//18 20//18
f 32//19 31//19 63//19 64//19
f 20//20 19//20 51//20 52//20
f 17//21 18//21 50//21 49//21
f 18//22 24//22 56//22 50//22
f 23//23 22//23 54//23 55//23
f 21//24 20//24 52//24 53//24
f 19//25 17//25 49//25 51//25
f 24//26 23//26 55//26 56//26
f 38//27 39//27 47//27 46//27
f 9//28 11//28 38//28 37//28
f 15//29 1//29 33//29 40//29
f 1//30 3//30 34//30 33//30
f 5//31 7//31 36//31 35//31
f 11//32 13//32 39//32 38//32
f 7//33 9//33 37//33 36//33
f 13//34 15//34 40//34 39//34
f 41//35 42//35 43//35 44//35 45//35 46//35 47//35 48//35
f 36//36 37//36 45//36 44//36
f 34//37 35//37 43//37 42//37
f 39//38 40//38 48//38 47//38
f 37//39 38//39 46//39 45//39
f 35//40 36//40 44//40 43//40
f 33//41 34//41 42//41 41//41
f 40//42 33//42 41//42 48//42
f 26//43 25//43 49//43 50//43
f 25//43 27//43 51//43 49//43
f 27//43 28//43 52//43 51//43
f 28//43 29//43 53//43 52//43
f 29//43 30//43 54//43 53//43
f 30//43 31//43 55//43 54//43
f 31//43 32//43 56//43 55//43
f 32//43 26//43 50//43 56//43
f 59//44 57//44 97//44 99//44
f 30//45 29//45 61//45 62//45
f 28//46 27//46 59//46 60//46
f 25//47 26//47 58//47 57//47
f 26//48 32//48 64//48 58//48
f 31//49 30//49 62//49 63//49
f 29//50 28//50 60//50 61//50
f 27//51 25//51 57//51 59//51
f 97//43 98//43 104//43 103//43 102//43 101//43 100//43 99//43
f 64//52 63//52 103//52 104//52
f 62//53 61//53 101//53 102//53
f 60//54 59//54 99//54 100//54
f 57//55 58//55 98//55 97//55
f 58//56 64//56 104//56 98//56
f 63//57 62//57 102//57 103//57
f 61//58 60//58 100//58 101//58
usemtl Iron
f 107//1 112//1 111//1 108//1
f 114//6 105//6 134//6 133//6
f 108//2 111//2 118//2 115//2
f 113//5 106//5 105//5 114//5
f 115//3 118//3 121//3 119//3
f 110//4 122//4 106//4 113//4
f 119//4 121//4 124//4 123//4
f 109//3 116//3 122//3 110//3
f 123//5 124//5 126//5 125//5
f 135//9 136//9 128//9 131//9
f 120//2 117//2 116//2 109//2
f 125//6 126//6 129//6 127//6
f 131//1 128//1 117//1 120//1
f 127//8 129//8 132//8 130//8
f 133//8 134//8 136//8 135//8
f 130//9 132//9 112//9 107//9
f 90//43 92//43 105//43 106//43
f 69//35 67//35 107//35 108//35
f 87//35 85//35 109//35 110//35
f 68//43 70//43 111//43 112//43
f 91//35 89//35 113//35 114//35
f 71//35 69//35 108//35 115//35
f 84//43 86//43 116//43 117//43
f 70//43 72//43 118//43 111//43
f 73//35 71//35 115//35 119//35
f 85//35 83//35 120//35 109//35
f 72//43 74//43 121//43 118//43
f 88//43 90//43 106//43 122//43
f 75//35 73//35 119//35 123//35
f 74//43 76//43 124//43 121//43
f 89//35 87//35 110//35 113//35
f 77//35 75//35 123//35 125//35
f 76//43 78//43 126//43 124//43
f 79//35 77//35 125//35 127//35
f 65//43 84//43 117//43 128//43
f 78//43 80//43 129//43 126//43
f 86//43 88//43 122//43 116//43
f 81//35 79//35 127//35 130//35
f 83//35 66//35 131//35 120//35
f 80//43 82//43 132//43 129//43
f 67//35 81//35 130//35 107//35
f 82//43 68//43 112//43 132//43
f 93//35 91//35 114//35 133//35
f 92//43 94//43 134//43 105//43
f 95//35 93//35 133//35 135//35
f 94//43 96//43 136//43 134//43
f 66//35 95//35 135//35 131//35
f 96//43 65//43 128//43 136//43
