# Blender v2.79 (sub 0) OBJ File: ''
# www.blender.org
mtllib carrying_crate_low.mtl
o Cube_Cube.000
v -0.146137 0.043471 0.051754
v -0.146137 0.075889 0.051754
v 0.146107 0.075889 0.051754
v 0.146107 0.043471 0.051754
v 0.146107 0.043471 0.065682
v 0.146107 0.075889 0.065682
v -0.146137 0.075889 0.065682
v -0.146137 0.043471 0.065682
v -0.143647 -0.001576 -0.057524
v -0.143647 -0.001576 -0.071451
v -0.143647 0.083565 -0.071451
v -0.143647 0.083565 -0.057524
v -0.156166 -0.001576 0.051985
v -0.156166 -0.001576 0.065913
v -0.156166 0.083565 0.065913
v -0.156166 0.083565 0.051985
v -0.143647 -0.001576 0.065913
v -0.143647 -0.001576 0.051985
v -0.156166 -0.001576 -0.071451
v -0.156166 0.083565 -0.071451
v -0.143647 0.083565 0.051985
v 0.158627 -0.001576 0.065913
v 0.146107 -0.001576 0.065913
v 0.146107 -0.001576 0.051985
v 0.158627 -0.001576 0.051985
v 0.146107 -0.001576 -0.071451
v 0.146107 -0.001576 -0.057524
v 0.146107 0.083565 -0.057524
v 0.146107 0.083565 -0.071451
v -0.156166 -0.001576 -0.057524
v -0.156166 0.083565 -0.057524
v 0.158627 0.083565 -0.057524
v 0.158627 0.083565 -0.071451
v 0.146107 0.083565 0.065913
v 0.146107 0.083565 0.051985
v 0.158627 -0.001576 -0.057524
v 0.158627 -0.001576 -0.071451
v 0.158627 0.083565 0.051985
v 0.158627 0.083565 0.065913
v 0.146107 0.043471 -0.058018
v 0.146107 0.075889 -0.058018
v -0.146137 0.075889 -0.058018
v -0.146137 0.043471 -0.058018
v -0.143647 0.083565 0.065913
v -0.146137 0.043471 -0.071945
v -0.146137 0.075889 -0.071945
v 0.146107 0.075889 -0.071945
v 0.146107 0.043471 -0.071945
v 0.145626 0.043471 0.058356
v 0.145626 0.075889 0.058356
v 0.145626 0.075889 -0.065273
v 0.145626 0.043471 -0.065273
v 0.159554 0.043471 -0.065273
v 0.159554 0.075889 -0.065273
v 0.159554 0.075889 0.058356
v 0.159554 0.043471 0.058356
v -0.154729 0.043471 0.058356
v -0.154729 0.075889 0.058356
v -0.154729 0.075889 -0.065273
v -0.154729 0.043471 -0.065273
v -0.140800 0.043471 -0.065273
v -0.140800 0.075889 -0.065273
v -0.140800 0.075889 0.058356
v -0.140800 0.043471 0.058356
v -0.146137 0.000195 0.051754
v -0.146137 0.032613 0.051754
v 0.146107 0.032613 0.051754
v 0.146107 0.000195 0.051754
v 0.146107 0.000195 0.065682
v 0.146107 0.032613 0.065682
v -0.146137 0.032613 0.065682
v -0.146137 0.000195 0.065682
v 0.146107 0.000195 -0.058018
v 0.146107 0.032613 -0.058018
v -0.146137 0.032613 -0.058018
v -0.146137 0.000195 -0.058018
v -0.146137 0.000195 -0.071945
v -0.146137 0.032613 -0.071945
v 0.146107 0.032613 -0.071945
v 0.146107 0.000195 -0.071945
v 0.145626 0.000195 0.058356
v 0.145626 0.032613 0.058356
v 0.145626 0.032613 -0.065273
v 0.145626 0.000195 -0.065273
v 0.159554 0.000195 -0.065273
v 0.159554 0.032613 -0.065273
v 0.159554 0.032613 0.058356
v 0.159554 0.000195 0.058356
v -0.154729 0.000195 0.058356
v -0.154729 0.032613 0.058356
v -0.154729 0.032613 -0.065273
v -0.154729 0.000195 -0.065273
v -0.140800 0.000195 -0.065273
v -0.140800 0.032613 -0.065273
v -0.140800 0.032613 0.058356
v -0.140800 0.000195 0.058356
vn 0.0000 0.0000 -1.0000
vn 0.0000 -0.0000 1.0000
vn 0.0000 1.0000 0.0000
vn 0.0000 -1.0000 -0.0000
vn 1.0000 0.0000 0.0000
vn -1.0000 0.0000 0.0000
usemtl Wood
s 1
f 1//1 2//1 3//1 4//1
f 5//2 6//2 7//2 8//2
f 3//3 2//3 7//3 6//3
f 1//4 4//4 5//4 8//4
f 9//5 10//5 11//5 12//5
f 13//6 14//6 15//6 16//6
f 17//4 14//4 13//4 18//4
f 10//1 19//1 20//1 11//1
f 18//1 13//1 16//1 21//1
f 22//4 23//4 24//4 25//4
f 26//6 27//6 28//6 29//6
f 19//6 30//6 31//6 20//6
f 20//3 31//3 12//3 11//3
f 29//3 28//3 32//3 33//3
f 24//6 23//6 34//6 35//6
f 36//5 37//5 33//5 32//5
f 37//1 26//1 29//1 33//1
f 25//1 24//1 35//1 38//1
f 35//3 34//3 39//3 38//3
f 22//5 25//5 38//5 39//5
f 23//2 22//2 39//2 34//2
f 40//2 41//2 42//2 43//2
f 16//3 15//3 44//3 21//3
f 45//1 46//1 47//1 48//1
f 36//4 27//4 26//4 37//4
f 27//2 36//2 32//2 28//2
f 45//4 48//4 40//4 43//4
f 47//3 46//3 42//3 41//3
f 17//5 18//5 21//5 44//5
f 14//2 17//2 44//2 15//2
f 9//4 30//4 19//4 10//4
f 30//2 9//2 12//2 31//2
f 49//6 50//6 51//6 52//6
f 53//5 54//5 55//5 56//5
f 51//3 50//3 55//3 54//3
f 49//4 52//4 53//4 56//4
f 57//6 58//6 59//6 60//6
f 61//5 62//5 63//5 64//5
f 59//3 58//3 63//3 62//3
f 57//4 60//4 61//4 64//4
f 65//1 66//1 67//1 68//1
f 69//2 70//2 71//2 72//2
f 67//3 66//3 71//3 70//3
f 65//4 68//4 69//4 72//4
f 73//2 74//2 75//2 76//2
f 77//1 78//1 79//1 80//1
f 77//4 80//4 73//4 76//4
f 79//3 78//3 75//3 74//3
f 81//6 82//6 83//6 84//6
f 85//5 86//5 87//5 88//5
f 83//3 82//3 87//3 86//3
f 81//4 84//4 85//4 88//4
f 89//6 90//6 91//6 92//6
f 93//5 94//5 95//5 96//5
f 91//3 90//3 95//3 94//3
f 89//4 92//4 93//4 96//4
f 93//3 76//3 65//3 96//3 81//3 68//3 73//3 84//3
