# Blender v2.79 (sub 0) OBJ File: ''
# www.blender.org
mtllib arrow.mtl
o Cube.001_Cube.002
v -0.000056 0.003564 -0.006884
v -0.001511 0.001395 -0.004433
v -0.000056 -0.000028 0.000335
v -0.003658 -0.000028 -0.006884
v -0.001490 -0.001447 -0.004433
v -0.000066 -0.003620 -0.006884
v 0.003526 -0.000028 -0.006884
v 0.001390 -0.001450 -0.004433
v 0.001368 0.001392 -0.004433
v -0.000056 -0.000104 -0.005854
v -0.000057 -0.001356 -0.067609
v 0.001270 -0.000030 -0.067609
v 0.001270 -0.000030 -0.004544
v -0.000057 -0.001356 -0.004544
v -0.001383 -0.000030 -0.004544
v -0.000057 0.001297 -0.004544
v -0.000057 0.001297 -0.067609
v -0.001383 -0.000030 -0.067609
v -0.000133 0.003787 -0.069762
v -0.000133 0.001108 -0.067507
v -0.000133 0.001108 -0.060383
v -0.000133 0.003787 -0.062638
v -0.000133 0.001108 -0.060383
v -0.000133 0.001108 -0.067507
v -0.000133 0.003787 -0.069762
v -0.000133 0.003787 -0.062638
v -0.000133 -0.003933 -0.069762
v -0.000133 -0.001255 -0.067507
v -0.000133 -0.001255 -0.060383
v -0.000133 -0.003933 -0.062638
v -0.000133 -0.001255 -0.060383
v -0.000133 -0.001255 -0.067507
v -0.000133 -0.003933 -0.069762
v -0.000133 -0.003933 -0.062638
v 0.003726 -0.000073 -0.069762
v 0.001048 -0.000073 -0.067507
v 0.001048 -0.000073 -0.060383
v 0.003726 -0.000073 -0.062638
v 0.001048 -0.000073 -0.060383
v 0.001048 -0.000073 -0.067507
v 0.003726 -0.000073 -0.069762
v 0.003726 -0.000073 -0.062638
v -0.003993 -0.000073 -0.069762
v -0.001315 -0.000073 -0.067507
v -0.001315 -0.000073 -0.060383
v -0.003993 -0.000073 -0.062638
v -0.001315 -0.000073 -0.060383
v -0.001315 -0.000073 -0.067507
v -0.003993 -0.000073 -0.069762
v -0.003993 -0.000073 -0.062638
vn 0.7071 -0.7071 -0.0000
vn -0.7070 0.7072 0.0000
vn -0.7070 -0.7072 -0.0000
vn 0.7071 0.7071 0.0000
vn 0.0000 0.0000 -1.0000
vn -1.0000 -0.0000 0.0000
vn 1.0000 0.0000 0.0000
vn -0.0000 1.0000 0.0000
vn 0.0000 -1.0000 -0.0000
vn -0.5044 0.7731 0.3846
vn -0.7687 -0.5119 0.3836
vn -0.7737 0.5024 0.3861
vn -0.5131 -0.7681 0.3830
vn 0.7750 -0.5015 0.3845
vn 0.5055 -0.7728 0.3838
vn 0.5141 0.7679 0.3821
vn 0.7700 0.5110 0.3820
vn 0.7796 -0.1692 -0.6030
vn -0.1925 0.7661 -0.6132
vn -0.1536 -0.7905 -0.5928
vn 0.7691 0.1774 -0.6140
vn -0.7724 0.1806 -0.6089
vn 0.1912 0.7668 -0.6127
vn -0.7729 -0.1714 -0.6109
vn 0.1527 -0.7906 -0.5930
usemtl Wood
s 1
f 11//1 12//1 13//1 14//1
f 15//2 16//2 17//2 18//2
f 14//3 15//3 18//3 11//3
f 16//4 13//4 12//4 17//4
usemtl Feather
f 18//5 17//5 12//5 11//5
f 19//6 20//6 21//6 22//6
f 23//7 24//7 25//7 26//7
f 27//7 28//7 29//7 30//7
f 31//6 32//6 33//6 34//6
f 35//8 36//8 37//8 38//8
f 39//9 40//9 41//9 42//9
f 43//9 44//9 45//9 46//9
f 47//8 48//8 49//8 50//8
usemtl Flint
f 1//10 2//10 3//10
f 4//11 5//11 3//11
f 4//12 3//12 2//12
f 6//13 3//13 5//13
f 7//14 3//14 8//14
f 6//15 8//15 3//15
f 1//16 3//16 9//16
f 7//17 9//17 3//17
f 1//18 9//18 10//18
f 9//19 7//19 10//19
f 8//20 10//20 7//20
f 8//21 6//21 10//21
f 5//22 10//22 6//22
f 4//23 2//23 10//23
f 2//24 1//24 10//24
f 4//25 10//25 5//25
